<?xml version="1.0" standalone="no"?>
<!DOCTYPE svg PUBLIC "-//W3C//DTD SVG 1.1//EN" "http://www.w3.org/Graphics/SVG/1.1/DTD/svg11.dtd" >
<svg xmlns="http://www.w3.org/2000/svg">
<metadata>Generated by IcoMoon</metadata>
<defs>
<font id="icomoon" horiz-adv-x="1024">
<font-face units-per-em="1024" ascent="960" descent="-64" />
<missing-glyph horiz-adv-x="1024" />
<glyph unicode="&#x20;" horiz-adv-x="512" d="" />
<glyph unicode="&#xe900;" glyph-name="icons-all-01" d="M980.8 382.4c-3.2-3.2-8-6.4-12.8-6.4 0 0-1.6 0-1.6 0-4.8 0-9.6 1.6-12.8 4.8l-441.6 366.4-440-366.4c-4.8-3.2-9.6-4.8-16-4.8-4.8 0-9.6 3.2-12.8 6.4l-40 46.4c-6.4 8-6.4 20.8 3.2 28.8l457.6 380.8c27.2 22.4 70.4 22.4 96 0l155.2-129.6v124.8c0 11.2 9.6 20.8 20.8 20.8h121.6c11.2 0 20.8-9.6 20.8-20.8v-259.2l139.2-115.2c8-6.4 9.6-20.8 3.2-28.8l-40-48zM878.4 81.6c0-22.4-19.2-40-40-40h-244.8v243.2h-163.2v-243.2h-243.2c-22.4 0-40 19.2-40 40v304c0 1.6 0 3.2 0 3.2l364.8 302.4 364.8-300.8c0-1.6 0-3.2 0-3.2v-305.6z" />
<glyph unicode="&#xe901;" glyph-name="icons-all-02" d="M92.8 830.4c0-11.2 0-20.8 0-32 1.6-30.4 20.8-54.4 49.6-62.4 28.8-6.4 57.6 4.8 73.6 30.4 6.4 9.6 8 20.8 8 33.6 0 9.6 0 19.2 0 30.4 128 0 254.4 0 384 0 0-11.2 0-20.8 0-32 1.6-27.2 14.4-48 40-59.2 43.2-19.2 91.2 12.8 91.2 59.2 0 9.6 0 20.8 0 32 22.4 0 43.2 3.2 64-9.6 19.2-12.8 28.8-30.4 30.4-52.8 0-11.2 0-24 0-35.2 0-70.4 0-140.8 0-212.8 0-3.2 0-4.8 0-8-20.8 0-41.6 0-62.4 0 0 43.2 0 84.8 0 128-235.2 0-470.4 0-705.6 0 0-1.6 0-4.8 0-6.4 0-144 0-288 0-432 0-8 0-9.6 9.6-9.6 121.6 0 244.8 0 366.4 0 3.2 0 4.8 0 8 0 0-20.8 0-41.6 0-62.4-1.6 0-4.8 0-6.4 0-123.2 0-246.4 0-369.6 0-44.8-1.6-73.6 27.2-73.6 68.8 0 187.2 0 376 0 563.2 0 35.2 22.4 62.4 57.6 67.2 11.2 3.2 22.4 1.6 35.2 1.6zM768 446.4c140.8 0 256-113.6 256-254.4s-113.6-256-254.4-256c-140.8 0-256 113.6-256 254.4s113.6 256 254.4 256zM576 192c0-107.2 86.4-192 193.6-192s192 86.4 192 193.6c0 105.6-88 192-192 190.4-107.2-1.6-193.6-88-193.6-192zM128 446.4c0 41.6 0 83.2 0 126.4 41.6 0 84.8 0 126.4 0 0-41.6 0-83.2 0-126.4-43.2 0-84.8 0-126.4 0zM446.4 572.8c0-41.6 0-83.2 0-124.8-41.6 0-83.2 0-126.4 0 0 41.6 0 83.2 0 124.8 41.6 0 84.8 0 126.4 0zM638.4 446.4c-41.6 0-83.2 0-126.4 0 0 41.6 0 83.2 0 126.4 41.6 0 83.2 0 126.4 0 0-41.6 0-83.2 0-126.4zM128 256c0 41.6 0 83.2 0 124.8 41.6 0 83.2 0 126.4 0 0-41.6 0-83.2 0-124.8-43.2 0-84.8 0-126.4 0zM320 380.8c41.6 0 83.2 0 126.4 0 0-41.6 0-83.2 0-124.8-41.6 0-83.2 0-126.4 0 0 41.6 0 83.2 0 124.8zM190.4 864c0-22.4 0-43.2 0-65.6 0-16-11.2-28.8-27.2-30.4s-30.4 6.4-35.2 22.4c-1.6 3.2-1.6 8-1.6 11.2 0 41.6 0 83.2 0 126.4 0 16 8 27.2 22.4 32s28.8 0 35.2-12.8c3.2-4.8 4.8-12.8 4.8-19.2 1.6-20.8 1.6-43.2 1.6-64zM704 864c0-20.8 0-41.6 0-62.4 0-19.2-12.8-33.6-32-33.6-17.6 0-32 14.4-32 33.6 0 41.6 0 83.2 0 124.8 0 19.2 14.4 33.6 32 33.6s32-14.4 32-33.6c0-20.8 0-41.6 0-62.4zM766.4 192c3.2 0 6.4 0 8 0 30.4 0 59.2 0 89.6 0 16 0 28.8-11.2 30.4-27.2s-6.4-30.4-22.4-33.6c-4.8-1.6-8-1.6-12.8-1.6-40 0-81.6 0-121.6 0-22.4 0-35.2 12.8-35.2 35.2 0 41.6 0 83.2 0 124.8 0 16 11.2 28.8 27.2 30.4 14.4 1.6 28.8-6.4 33.6-20.8 1.6-4.8 1.6-8 1.6-12.8 0-28.8 0-57.6 0-86.4 1.6-3.2 1.6-4.8 1.6-8z" />
<glyph unicode="&#xe902;" glyph-name="icons-all-03" d="M896 225.6c-62.4 27.2-153.6 97.6-289.6 123.2 35.2 36.8 60.8 96 88 164.8 16 40 12.8 73.6 12.8 123.2 0 35.2 6.4 92.8-1.6 124.8-30.4 104-105.6 134.4-195.2 134.4-88 0-164.8-28.8-195.2-136-9.6-32-1.6-89.6-1.6-124.8 0-48-3.2-83.2 12.8-123.2 27.2-68.8 52.8-128 88-164.8-134.4-24-225.6-94.4-288-123.2-126.4-56-128-118.4-128-118.4v-105.6h1024v105.6c1.6 0 1.6 62.4-126.4 120zM825.6 115.2c0-3.2-1.6-4.8-4.8-4.8h-68.8v-68.8c0-3.2-1.6-4.8-4.8-4.8h-48c-3.2 0-4.8 1.6-4.8 4.8v68.8h-68.8c-3.2 0-4.8 1.6-4.8 4.8v48c0 3.2 1.6 4.8 4.8 4.8h68.8v68.8c0 3.2 1.6 4.8 4.8 4.8h48c3.2 0 4.8-1.6 4.8-4.8v-68.8h68.8c3.2 0 4.8-1.6 4.8-4.8v-48z" />
<glyph unicode="&#xe903;" glyph-name="icons-all-04" d="M1020.8 144c1.6 6.4 3.2 12.8 3.2 19.2v569.6c0 6.4-1.6 12.8-3.2 19.2l-334.4-286.4 334.4-321.6zM512 395.2l88 72 44.8 36.8 336 286.4c-4.8 1.6-11.2 3.2-17.6 3.2h-902.4c-6.4 0-11.2-1.6-17.6-3.2l336-288 44.8-36.8 88-70.4zM963.2 102.4c6.4 0 11.2 1.6 16 3.2l-337.6 323.2-129.6-105.6-129.6 105.6-337.6-323.2c4.8-1.6 11.2-3.2 16-3.2h902.4zM3.2 750.4c-1.6-4.8-3.2-11.2-3.2-17.6v-568c0-6.4 1.6-12.8 3.2-19.2l334.4 320-334.4 284.8z" />
<glyph unicode="&#xe904;" glyph-name="icons-all-05" d="M920 78.4l-288 441.6v374.4c8 0 12.8 0 12.8 0 17.6 0 33.6 14.4 33.6 33.6 0 17.6-14.4 33.6-33.6 33.6h-265.6c-17.6 0-33.6-14.4-33.6-33.6 0-17.6 14.4-33.6 33.6-33.6 0 0 4.8 0 12.8 0v-372.8l-288-441.6c-24-36.8-28.8-72-12.8-99.2 14.4-27.2 48-43.2 91.2-43.2h660.8c43.2 0 75.2 16 91.2 43.2 14.4 25.6 9.6 60.8-14.4 97.6zM902.4-4.8c-8-16-30.4-25.6-60.8-25.6h-25.6c22.4 19.2 24 51.2 0 88l-174.4 268.8c-11.2 16-33.6 28.8-52.8 28.8h-262.4l97.6 150.4c1.6 3.2 3.2 6.4 3.2 9.6v379.2h171.2v-379.2c0-3.2 1.6-6.4 3.2-9.6l291.2-446.4c14.4-24 19.2-48 9.6-64z" />
<glyph unicode="&#xe905;" glyph-name="icons-all-06" d="M633.6 193.6h-243.2l-24-19.2-324.8-238.4h940.8l-323.2 238.4zM707.2 209.6v0l316.8-233.6v467.2l-134.4-99.2zM1024 515.2v0 0l-134.4 97.6v-198.4l134.4 99.2zM318.4 209.6l-182.4 134.4-136 100.8v-468.8l318.4 233.6zM136 614.4l-134.4-99.2 134.4-99.2zM320 960l-128-128h128zM192 774.4v-400l174.4-128h292.8l172.8 128v585.6h-454.4v-185.6h-185.6zM272 560h243.2v-68.8h-243.2v68.8zM688 339.2h-416v68.8h416v-68.8zM614.4 713.6v-68.8h-342.4v68.8h342.4z" />
<glyph unicode="&#xe906;" glyph-name="icons-all-07" d="M355.2 960v0l-214.4-214.4v-809.6h742.4v1024h-528zM798.4 20.8h-572.8v640h214.4v214.4h356.8v-854.4zM294.4 569.6h417.6v-57.6h-417.6v57.6zM294.4 446.4h417.6v-57.6h-417.6v57.6zM670.4 262.4c-9.6 0-19.2-3.2-25.6-9.6l-51.2 30.4c0 0 0 1.6 0 1.6 0 22.4-17.6 40-40 40s-40-17.6-40-40c0-8 3.2-14.4 6.4-20.8-20.8-32-49.6-73.6-65.6-99.2-3.2 1.6-6.4 1.6-11.2 1.6-8 0-16-3.2-22.4-8-12.8 11.2-28.8 24-43.2 35.2 1.6 3.2 1.6 6.4 1.6 11.2 0 22.4-17.6 40-40 40s-40-17.6-40-40c0-22.4 17.6-40 40-40 6.4 0 12.8 1.6 17.6 4.8l46.4-38.4c0-1.6-1.6-3.2-1.6-4.8 0-22.4 17.6-40 40-40s40 17.6 40 40c0 6.4-1.6 12.8-4.8 17.6 22.4 33.6 51.2 75.2 67.2 100.8 3.2 0 4.8-1.6 8-1.6 9.6 0 17.6 3.2 25.6 9.6 16-9.6 35.2-20.8 51.2-30.4 0 0 0-1.6 0-1.6 0-22.4 17.6-40 40-40s40 17.6 40 40c3.2 24-16 41.6-38.4 41.6z" />
<glyph unicode="&#xe907;" glyph-name="icons-all-08" d="M795.2 249.6c-54.4 24-136 88-257.6 108.8 30.4 33.6 54.4 84.8 78.4 145.6 14.4 35.2 11.2 65.6 11.2 108.8 0 32 6.4 83.2-1.6 110.4-27.2 94.4-94.4 121.6-172.8 121.6s-145.6-25.6-172.8-121.6c-8-27.2-1.6-78.4-1.6-110.4 0-43.2-1.6-73.6 11.2-108.8 24-60.8 48-113.6 78.4-145.6-120-22.4-200-84.8-254.4-108.8-113.6-49.6-113.6-105.6-113.6-105.6v-94.4h401.6l22.4 102.4-44.8 59.2c0 0 46.4 49.6 75.2 49.6s75.2-49.6 75.2-49.6l-43.2-59.2 20.8-102.4h403.2v94.4c-1.6 0-1.6 56-115.2 105.6zM1014.4 534.4l-49.6 9.6c-4.8 0-6.4 4.8-4.8 8l28.8 43.2c3.2 4.8 1.6 11.2-1.6 14.4l-27.2 28.8c-3.2 3.2-9.6 4.8-14.4 1.6l-43.2-28.8c-4.8-3.2-8-1.6-9.6 3.2l-9.6 51.2c-1.6 4.8-6.4 9.6-11.2 9.6h-40c-4.8 0-9.6-4.8-11.2-9.6l-9.6-51.2c-1.6-4.8-4.8-6.4-9.6-3.2l-43.2 28.8c-4.8 3.2-11.2 1.6-14.4-1.6l-24-28.8c-3.2-3.2-4.8-9.6-1.6-14.4l28.8-43.2c3.2-4.8 1.6-8-3.2-9.6l-51.2-9.6c-4.8-1.6-9.6-6.4-9.6-11.2v-40c0-4.8 4.8-9.6 9.6-11.2l51.2-9.6c4.8-1.6 6.4-4.8 3.2-9.6l-28.8-43.2c-3.2-4.8-1.6-11.2 1.6-14.4l27.2-27.2c3.2-3.2 9.6-4.8 14.4-1.6l43.2 28.8c4.8 3.2 8 1.6 9.6-3.2l9.6-51.2c1.6-4.8 6.4-9.6 11.2-9.6h40c4.8 0 9.6 4.8 11.2 9.6l9.6 51.2c1.6 4.8 4.8 6.4 9.6 3.2l43.2-28.8c4.8-3.2 11.2-1.6 14.4 1.6l27.2 27.2c3.2 3.2 4.8 9.6 1.6 14.4l-32 46.4c-3.2 4.8-1.6 8 3.2 9.6l51.2 9.6c4.8 1.6 9.6 6.4 9.6 11.2v40c0 3.2-4.8 8-9.6 9.6zM854.4 451.2c-28.8 0-52.8 24-52.8 52.8s24 52.8 52.8 52.8c28.8 0 52.8-24 52.8-52.8 0-30.4-24-52.8-52.8-52.8z" />
<glyph unicode="&#xe908;" glyph-name="icons-all-09" d="M1024 105.6c0 0 0 62.4-128 118.4-62.4 27.2-153.6 97.6-289.6 123.2 35.2 36.8 60.8 96 88 164.8 16 40 12.8 73.6 12.8 123.2 0 35.2 6.4 92.8-1.6 124.8-30.4 105.6-105.6 136-195.2 136-88 0-164.8-28.8-195.2-136-9.6-32-1.6-89.6-1.6-124.8 0-48-3.2-83.2 12.8-123.2 27.2-68.8 52.8-128 88-164.8-134.4-24-225.6-94.4-288-123.2-126.4-56-128-118.4-128-118.4v-105.6h452.8l24 116.8-49.6 67.2c0 0 52.8 56 84.8 56s84.8-56 84.8-56l-49.6-67.2 24-116.8h454.4v105.6z" />
<glyph unicode="&#xe909;" glyph-name="icons-all-10" d="M256 649.6v-622.4c0-49.6-41.6-91.2-91.2-91.2h-73.6c-49.6 0-91.2 41.6-91.2 91.2v622.4c0 49.6 41.6 91.2 91.2 91.2h73.6c49.6 0 91.2-41.6 91.2-91.2zM1024 521.6v-438.4c0-80-65.6-145.6-145.6-145.6h-494.4c-49.6 0-91.2 41.6-91.2 91.2v876.8c0 30.4 24 54.4 54.4 54.4h384c30.4 0 72-17.6 94.4-38.4l86.4-88c20.8-20.8 38.4-64 38.4-94.4v-92.8c43.2-24 73.6-72 73.6-124.8zM878.4 740.8h-91.2c-30.4 0-54.4 24-54.4 54.4v91.2h-366.4v-292.8h512v147.2zM529.6 448c0 9.6-8 17.6-17.6 17.6h-73.6c-9.6 0-17.6-8-17.6-17.6v-73.6c0-9.6 8-17.6 17.6-17.6h73.6c9.6 0 17.6 8 17.6 17.6v73.6zM529.6 302.4c0 9.6-8 17.6-17.6 17.6h-73.6c-9.6 0-17.6-8-17.6-17.6v-73.6c0-9.6 8-17.6 17.6-17.6h73.6c9.6 0 17.6 8 17.6 17.6v73.6zM529.6 155.2c0 9.6-8 17.6-17.6 17.6h-73.6c-9.6 0-17.6-8-17.6-17.6v-73.6c0-9.6 8-17.6 17.6-17.6h73.6c9.6 0 17.6 8 17.6 17.6v73.6zM676.8 448c0 9.6-8 17.6-17.6 17.6h-73.6c-9.6 0-17.6-8-17.6-17.6v-73.6c0-9.6 8-17.6 17.6-17.6h73.6c9.6 0 17.6 8 17.6 17.6v73.6zM676.8 302.4c0 9.6-8 17.6-17.6 17.6h-73.6c-9.6 0-17.6-8-17.6-17.6v-73.6c0-9.6 8-17.6 17.6-17.6h73.6c9.6 0 17.6 8 17.6 17.6v73.6zM676.8 155.2c0 9.6-8 17.6-17.6 17.6h-73.6c-9.6 0-17.6-8-17.6-17.6v-73.6c0-9.6 8-17.6 17.6-17.6h73.6c9.6 0 17.6 8 17.6 17.6v73.6zM822.4 448c0 9.6-8 17.6-17.6 17.6h-73.6c-9.6 0-17.6-8-17.6-17.6v-73.6c0-9.6 8-17.6 17.6-17.6h73.6c9.6 0 17.6 8 17.6 17.6v73.6zM822.4 302.4c0 9.6-8 17.6-17.6 17.6h-73.6c-9.6 0-17.6-8-17.6-17.6v-73.6c0-9.6 8-17.6 17.6-17.6h73.6c9.6 0 17.6 8 17.6 17.6v73.6zM822.4 155.2c0 9.6-8 17.6-17.6 17.6h-73.6c-9.6 0-17.6-8-17.6-17.6v-73.6c0-9.6 8-17.6 17.6-17.6h73.6c9.6 0 17.6 8 17.6 17.6v73.6z" />
<glyph unicode="&#xe90a;" glyph-name="icons-all-11" d="M566.4 905.6c-252.8 0-459.2-204.8-459.2-457.6 0 0 0-1.6 0-3.2h-107.2l171.2-171.2 171.2 171.2h-108.8c0 0 0 0 0 0v0c0 1.6 0 1.6 0 3.2 0 182.4 148.8 331.2 331.2 331.2 184 0 331.2-148.8 331.2-331.2s-148.8-331.2-331.2-331.2c-110.4 0-209.6 54.4-268.8 139.2l-54.4-52.8-36.8-36.8c83.2-107.2 214.4-174.4 360-174.4 254.4-1.6 459.2 203.2 459.2 456s-204.8 457.6-457.6 457.6zM536 678.4v-249.6h1.6l209.6-131.2 28.8 48-184 113.6v219.2z" />
<glyph unicode="&#xe90b;" glyph-name="icons-all-12" d="M512 960c-283.2 0-512-228.8-512-512s228.8-512 512-512c283.2 0 512 228.8 512 512s-228.8 512-512 512zM512 9.6c-241.6 0-438.4 196.8-438.4 438.4s196.8 438.4 438.4 438.4c241.6 0 438.4-196.8 438.4-438.4s-196.8-438.4-438.4-438.4zM534.4 396.8v-136c22.4 6.4 52.8 20.8 52.8 64 0 46.4-35.2 64-52.8 72zM443.2 574.4c0-43.2 36.8-59.2 52.8-67.2v128c-14.4-3.2-52.8-14.4-52.8-60.8zM512 859.2c-227.2-1.6-409.6-184-409.6-411.2s184-409.6 409.6-409.6c227.2 0 409.6 184 409.6 409.6 0 227.2-182.4 409.6-409.6 411.2zM540.8 176v-35.2c0-12.8-1.6-16-16-16h-16c-14.4 0-16 1.6-16 16v35.2c-27.2 0-136 17.6-136 41.6 0 1.6 0 1.6 1.6 6.4l22.4 65.6c0 1.6 3.2 6.4 6.4 6.4 4.8 0 57.6-30.4 105.6-36.8v156.8c-48 20.8-137.6 48-137.6 152 0 115.2 102.4 148.8 137.6 150.4v38.4c0 12.8 1.6 16 16 16h16c14.4 0 16-1.6 16-16v-38.4c22.4-1.6 123.2-19.2 123.2-44.8 0-3.2 0-4.8-1.6-8l-24-52.8c-1.6-3.2-3.2-6.4-6.4-6.4-4.8 0-56 32-89.6 32v-145.6c51.2-25.6 137.6-59.2 137.6-160-3.2-112-88-147.2-139.2-156.8z" />
<glyph unicode="&#xe90c;" glyph-name="icons-all-13" d="M248 960h528v-188.8h-528v188.8zM728 734.4h-432c-59.2 0-107.2-48-107.2-107.2v-46.4h644.8v46.4c1.6 59.2-46.4 107.2-105.6 107.2zM188.8 43.2c0-59.2 48-107.2 107.2-107.2h432c59.2 0 107.2 48 107.2 107.2v46.4h-646.4v-46.4zM539.2 454.4c0 22.4-9.6 41.6-24 52.8-16 12.8-38.4 19.2-70.4 19.2-30.4 0-51.2-1.6-67.2-4.8v-238.4h43.2v91.2c6.4-1.6 12.8-1.6 20.8-1.6 4.8 0 9.6 0 14.4 0l64-110.4-72-120h51.2l46.4 84.8h1.6l49.6-84.8h51.2l-73.6 123.2 70.4 118.4h-51.2l-44.8-81.6-48 84.8c6.4 3.2 12.8 8 17.6 12.8 14.4 12.8 20.8 32 20.8 54.4zM443.2 409.6c-9.6 0-16 0-20.8 1.6v81.6c4.8 1.6 12.8 1.6 25.6 1.6 30.4 0 49.6-14.4 49.6-41.6-1.6-27.2-22.4-43.2-54.4-43.2z" />
<glyph unicode="&#xe90d;" glyph-name="icons-all-14" d="M188.8 118.4v624h54.4v-28.8h393.6v28.8h54.4v-332.8c17.6-1.6 33.6-4.8 49.6-8v350.4c0 22.4-17.6 40-40 40h-65.6v3.2c0 33.6-27.2 60.8-60.8 60.8h-28.8c1.6 56-46.4 104-105.6 104s-107.2-48-107.2-105.6h-28.8c-33.6 0-60.8-27.2-60.8-60.8v-3.2h-65.6c-22.4 0-40-17.6-40-40v-643.2c0-20.8 17.6-38.4 40-38.4h243.2c-4.8 16-8 32-9.6 48h-222.4zM440 904c27.2 0 49.6-22.4 51.2-49.6h-102.4c1.6 27.2 24 49.6 51.2 49.6zM408 483.2c-8 8-22.4 8-30.4 0l-65.6-65.6-27.2 20.8c-6.4 4.8-16 4.8-22.4-1.6l-16-17.6c-3.2-3.2-4.8-8-4.8-12.8s3.2-9.6 6.4-11.2l48-36.8c11.2-9.6 27.2-8 38.4 1.6l83.2 83.2c3.2 3.2 6.4 9.6 6.4 14.4s-1.6 11.2-6.4 14.4l-9.6 11.2zM496 625.6c-19.2 0-36.8-14.4-36.8-35.2 0-19.2 16-35.2 36.8-35.2h126.4c19.2 0 35.2 14.4 35.2 35.2 0 19.2-16 35.2-35.2 35.2h-126.4zM475.2 400c6.4-3.2 12.8-6.4 20.8-6.4h126.4c12.8 0 24 6.4 30.4 16 1.6 1.6 1.6 3.2 3.2 4.8 0 0 0 1.6 1.6 1.6 0 1.6 1.6 3.2 1.6 3.2s0 1.6 0 1.6 0 4.8 0 6.4v0 0c0 8-1.6 14.4-6.4 19.2-6.4 9.6-17.6 14.4-30.4 14.4h-126.4c-12.8 0-24-6.4-30.4-14.4-3.2-4.8-6.4-12.8-6.4-19.2v0c0-9.6 6.4-20.8 16-27.2zM417.6 635.2l-9.6 9.6c-8 8-22.4 8-30.4 0l-65.6-65.6-27.2 20.8c-6.4 4.8-16 4.8-22.4-1.6l-16-17.6c-3.2-3.2-4.8-8-4.8-12.8s3.2-8 6.4-11.2l48-36.8c11.2-9.6 27.2-8 38.4 1.6l83.2 83.2c3.2 3.2 6.4 9.6 6.4 14.4 0 6.4-1.6 12.8-6.4 16zM408 326.4c-3.2 3.2-9.6 6.4-14.4 6.4-6.4 0-11.2-1.6-14.4-6.4l-65.6-65.6-27.2 20.8c-6.4 4.8-16 4.8-22.4-1.6l-16-16c-3.2-3.2-4.8-8-4.8-12.8s3.2-9.6 6.4-11.2l48-36.8c11.2-9.6 27.2-8 38.4 1.6l83.2 83.2c8 8 8 22.4 0 30.4l-11.2 8zM673.6 360c-116.8 0-211.2-94.4-211.2-211.2s94.4-211.2 211.2-211.2 211.2 94.4 211.2 211.2c0 116.8-94.4 211.2-211.2 211.2zM673.6-11.2c-88 0-158.4 72-158.4 158.4 0 88 72 158.4 158.4 158.4s158.4-72 158.4-158.4c0-86.4-70.4-158.4-158.4-158.4zM692.8 156.8v97.6c0 1.6-1.6 4.8-3.2 6.4s-3.2 3.2-6.4 3.2h-22.4c-1.6 0-4.8-1.6-6.4-3.2s-3.2-3.2-3.2-6.4v-115.2c0-1.6 1.6-4.8 3.2-6.4 0 0 1.6-1.6 1.6-1.6l97.6-65.6c1.6-1.6 3.2-1.6 4.8-1.6 0 0 1.6 0 1.6 0 1.6 0 4.8 1.6 6.4 3.2l12.8 19.2c3.2 4.8 1.6 9.6-3.2 11.2l-83.2 59.2z" />
<glyph unicode="&#xe90e;" glyph-name="icons-all-15" d="M987.2 9.6c0-40-33.6-73.6-73.6-73.6h-803.2c-40 0-73.6 33.6-73.6 73.6v731.2c0 40 33.6 73.6 73.6 73.6h73.6v54.4c-1.6 49.6 40 91.2 89.6 91.2h36.8c49.6 0 91.2-41.6 91.2-91.2v-54.4h219.2v54.4c0 49.6 41.6 91.2 91.2 91.2h36.8c49.6 0 91.2-41.6 91.2-91.2v-54.4h73.6c40 0 73.6-33.6 73.6-73.6v-731.2zM273.6 430.4v163.2h-163.2v-164.8h163.2zM273.6 209.6v184h-163.2v-182.4h163.2zM273.6 9.6v164.8h-163.2v-164.8h163.2zM329.6 868.8c0 9.6-8 17.6-17.6 17.6h-36.8c-9.6 0-17.6-8-17.6-17.6v-164.8c0-9.6 8-17.6 17.6-17.6h36.8c9.6 0 17.6 8 17.6 17.6v164.8zM494.4 430.4v163.2h-184v-164.8h184zM494.4 9.6v164.8h-184v-164.8h184zM713.6 430.4v163.2h-184v-164.8h184zM713.6 209.6v184h-184v-182.4h184zM713.6 9.6v164.8h-184v-164.8h184zM768 868.8c0 9.6-8 17.6-17.6 17.6h-36.8c-9.6 0-17.6-8-17.6-17.6v-164.8c0-9.6 8-17.6 17.6-17.6h36.8c9.6 0 17.6 8 17.6 17.6v164.8zM913.6 430.4v163.2h-163.2v-164.8h163.2zM913.6 209.6v184h-163.2v-182.4h163.2zM913.6 9.6v164.8h-163.2v-164.8h163.2z" />
<glyph unicode="&#xe90f;" glyph-name="icons-all-16" d="M804.8 832c-27.2 54.4-78.4 128-123.2 128h-340.8c-41.6 0-88-68.8-116.8-128h-97.6v-896h772.8v896h-94.4zM388.8 902.4h241.6c16 0 30.4-12.8 30.4-30.4 0-16-12.8-30.4-30.4-30.4h-241.6c-16 0-30.4 12.8-30.4 30.4s14.4 30.4 30.4 30.4zM798.4 35.2h-572.8v697.6h574.4v-697.6zM308.8 648h408v-68.8h-408v68.8zM308.8 188.8h408v-68.8h-408v68.8zM308.8 496h408v-68.8h-408v68.8zM308.8 342.4h408v-68.8h-408v68.8z" />
<glyph unicode="&#xe910;" glyph-name="icons-all-17" d="M808 891.2h-46.4v28.8c0 22.4-17.6 40-40 40s-40-17.6-40-40v-30.4h-132.8v30.4c0 22.4-17.6 40-40 40s-40-17.6-40-40v-30.4h-131.2v30.4c0 22.4-17.6 40-40 40s-40-17.6-40-40v-30.4h-44.8c-44.8 0-81.6-36.8-81.6-81.6v-790.4c0-44.8 36.8-81.6 81.6-81.6h593.6c44.8 0 81.6 36.8 81.6 81.6v790.4c3.2 46.4-33.6 83.2-80 83.2zM809.6 25.6h-595.2v776h46.4v-27.2c0-22.4 17.6-40 40-40s40 17.6 40 40v27.2h131.2v-27.2c0-22.4 17.6-40 40-40s40 17.6 40 40v27.2h132.8v-27.2c0-22.4 17.6-40 40-40s40 17.6 40 40v27.2h46.4v-776zM299.2 633.6h424v-56h-424v56zM299.2 488h424v-56h-424v56zM299.2 342.4h424v-56h-424v56zM299.2 196.8h424v-56h-424v56z" />
<glyph unicode="&#xe911;" glyph-name="icons-all-18" d="M1024 408v-256c0-4.8-1.6-9.6-6.4-14.4-3.2-3.2-8-6.4-14.4-6.4h-137.6v-99.2c0-16-6.4-30.4-17.6-41.6s-25.6-17.6-41.6-17.6h-590.4c-16 0-30.4 6.4-41.6 17.6s-17.6 25.6-17.6 41.6v99.2h-137.6c-4.8 0-9.6 1.6-14.4 6.4-3.2 4.8-4.8 9.6-4.8 14.4v256c0 32 11.2 60.8 35.2 83.2 22.4 22.4 51.2 35.2 83.2 35.2h40v334.4c0 16 6.4 30.4 17.6 41.6s25.6 17.6 41.6 17.6h412.8c16 0 35.2-4.8 54.4-12.8 19.2-6.4 35.2-17.6 46.4-28.8l92.8-92.8c11.2-11.2 20.8-27.2 28.8-46.4s12.8-38.4 12.8-54.4v-156.8h40c32 0 60.8-11.2 83.2-35.2 24-24 35.2-51.2 35.2-84.8zM236.8 448h552v236.8h-99.2c-16 0-30.4 6.4-41.6 17.6s-17.6 25.6-17.6 41.6v97.6h-393.6v-393.6zM236.8 54.4h552v156.8h-552v-156.8zM932.8 380.8c8 8 11.2 17.6 11.2 27.2 0 11.2-3.2 19.2-11.2 27.2s-16 12.8-27.2 12.8c-11.2 0-19.2-3.2-27.2-11.2s-11.2-17.6-11.2-27.2c0-11.2 3.2-19.2 11.2-27.2s17.6-11.2 27.2-11.2c11.2-1.6 20.8 1.6 27.2 9.6z" />
<glyph unicode="&#xe912;" glyph-name="icons-all-19" d="M988.8 492.8c-22.4 22.4-51.2 35.2-83.2 35.2h-40v156.8c0 16-4.8 35.2-12.8 54.4s-17.6 35.2-28.8 46.4l-92.8 92.8c-11.2 11.2-27.2 22.4-46.4 30.4s-38.4 12.8-54.4 12.8h-414.4c-16 0-30.4-6.4-41.6-17.6s-17.6-25.6-17.6-41.6v-334.4h-38.4c-32 0-60.8-11.2-83.2-35.2-24-24-35.2-51.2-35.2-84.8v-256c0-4.8 1.6-9.6 6.4-14.4 3.2-3.2 8-6.4 14.4-6.4h137.6v-99.2c0-16 6.4-30.4 17.6-41.6s25.6-17.6 41.6-17.6h590.4c16 0 30.4 6.4 41.6 17.6s17.6 25.6 17.6 41.6v99.2h137.6c4.8 0 9.6 1.6 14.4 6.4 3.2 3.2 6.4 8 6.4 14.4v256c-1.6 33.6-12.8 60.8-36.8 84.8zM787.2 54.4h-550.4v156.8h552v-156.8zM787.2 448h-550.4v393.6h393.6v-99.2c0-16 6.4-30.4 17.6-41.6s25.6-17.6 41.6-17.6h99.2v-235.2zM932.8 380.8c-8-8-17.6-11.2-27.2-11.2s-19.2 3.2-27.2 11.2c-8 8-11.2 17.6-11.2 27.2 0 11.2 3.2 19.2 11.2 27.2s17.6 11.2 27.2 11.2 19.2-3.2 27.2-11.2c8-8 11.2-17.6 11.2-27.2 1.6-9.6-3.2-19.2-11.2-27.2zM540.8 680c-3.2 8-8 14.4-11.2 20.8 12.8 28.8 19.2 48 19.2 54.4 0 1.6 0 1.6-1.6 3.2-32 17.6-48 27.2-48 27.2h-1.6c-11.2-11.2-22.4-25.6-35.2-43.2-4.8 0-9.6 0-11.2 0-3.2 0-6.4 0-11.2 0-3.2 4.8-11.2 14.4-20.8 25.6-9.6 12.8-16 17.6-17.6 17.6 0 0-4.8-1.6-11.2-6.4-8-4.8-14.4-8-22.4-12.8s-12.8-8-14.4-8c-1.6 0-1.6-1.6-1.6-3.2 0-6.4 6.4-24 19.2-54.4-4.8-6.4-8-12.8-11.2-20.8-38.4-3.2-57.6-8-57.6-12.8v-54.4c0-4.8 19.2-8 57.6-12.8 3.2-6.4 6.4-14.4 11.2-20.8-12.8-28.8-19.2-48-19.2-54.4 0-1.6 0-1.6 1.6-3.2 32-19.2 48-27.2 48-27.2 1.6 0 8 6.4 17.6 17.6 9.6 12.8 16 20.8 20.8 27.2 4.8 0 9.6 0 11.2 0 3.2 0 6.4 0 11.2 0 3.2-4.8 11.2-14.4 20.8-27.2s16-17.6 17.6-17.6c0 0 16 9.6 48 27.2 1.6 0 1.6 1.6 1.6 3.2 0 6.4-6.4 24-19.2 54.4 4.8 6.4 8 12.8 11.2 20.8 38.4 3.2 57.6 8 57.6 12.8v54.4c0 4.8-19.2 8-59.2 12.8zM484.8 604.8c-9.6-9.6-20.8-14.4-35.2-14.4s-25.6 4.8-35.2 14.4-14.4 20.8-14.4 35.2c0 12.8 4.8 25.6 14.4 35.2s22.4 14.4 35.2 14.4c12.8 0 25.6-4.8 35.2-14.4s14.4-22.4 14.4-35.2c0-14.4-4.8-25.6-14.4-35.2z" />
<glyph unicode="&#xe913;" glyph-name="icons-all-20" d="M163.2 552c0 0-108.8-430.4-148.8-598.4l209.6 288c-19.2 43.2-8 107.2 25.6 144 44.8 49.6 124.8 49.6 174.4 4.8s52.8-121.6 8-169.6c-33.6-36.8-97.6-52.8-140.8-35.2l-264-249.6 553.6 214.4 222.4 334.4-291.2 272-348.8-204.8zM732.8 960l-160-148.8 286.4-276.8 152 156.8-278.4 268.8z" />
<glyph unicode="&#xe914;" d="M824 872c4.8 4.8 11.2 4.8 16 0l68.8-68.8c4.8-4.8 4.8-11.2 0-16l-416-419.2c-4.8-4.8-11.2-4.8-16 0l-68.8 68.8c-4.8 4.8-4.8 11.2 0 16l416 419.2z" />
<glyph unicode="&#xe915;" d="M369.6 417.6l-363.2-363.2c-11.2-11.2-8-25.6 6.4-30.4 123.2-33.6 412.8 139.2 444.8 302.4-28.8 32-59.2 60.8-88 91.2z" />
<glyph unicode="&#xe916;" d="M726.4 680c4.8-4.8 4.8-11.2 0-16l-196.8-196.8c-4.8-4.8-11.2-4.8-16 0l-8 8c-4.8 4.8-4.8 11.2 0 16l195.2 196.8c4.8 4.8 11.2 4.8 16 0l9.6-8z" />
<glyph unicode="&#xe917;" d="M382.4 32c0-6.4-4.8-11.2-11.2-11.2h-70.4c-6.4 0-11.2 4.8-11.2 11.2v16c0 6.4 4.8 11.2 11.2 11.2h70.4c6.4 0 11.2-4.8 11.2-11.2v-16z" />
<glyph unicode="&#xe918;" d="M542.4 32c0-6.4-4.8-11.2-11.2-11.2h-70.4c-6.4 0-11.2 4.8-11.2 11.2v16c0 6.4 4.8 11.2 11.2 11.2h70.4c6.4 0 11.2-4.8 11.2-11.2v-16z" />
<glyph unicode="&#xe919;" d="M702.4 32c0-6.4-4.8-11.2-11.2-11.2h-70.4c-6.4 0-11.2 4.8-11.2 11.2v16c0 6.4 4.8 11.2 11.2 11.2h70.4c6.4 0 11.2-4.8 11.2-11.2v-16z" />
<glyph unicode="&#xe91a;" d="M864 32c0-6.4-4.8-11.2-11.2-11.2h-70.4c-6.4 0-11.2 4.8-11.2 11.2v16c0 6.4 4.8 11.2 11.2 11.2h70.4c6.4 0 11.2-4.8 11.2-11.2v-16z" />
<glyph unicode="&#xe91b;" d="M1024 32c0-6.4-4.8-11.2-11.2-11.2h-70.4c-6.4 0-11.2 4.8-11.2 11.2v16c0 6.4 4.8 11.2 11.2 11.2h70.4c6.4 0 11.2-4.8 11.2-11.2v-16z" />
<glyph unicode="&#xe91c;" d="M270.4 545.6l-168-168c-70.4-70.4-76.8-180.8-12.8-244.8s174.4-57.6 244.8 12.8l168 168-232 232z" />
<glyph unicode="&#xe91d;" d="M667.2 478.4l-336-336c-75.2-75.2-198.4-75.2-275.2 0-75.2 75.2-75.2 198.4 0 275.2l336 336c75.2 75.2 198.4 75.2 275.2 0 75.2-75.2 75.2-198.4 0-275.2zM73.6 401.6c-67.2-67.2-67.2-176 0-241.6 67.2-67.2 176-67.2 241.6 0l336 336c67.2 67.2 67.2 176 0 241.6-67.2 67.2-176 67.2-241.6 0l-336-336z" />
<glyph unicode="&#xe91e;" d="M833.6 467.2c-99.2 0-180.8-75.2-190.4-172.8h379.2c-8 97.6-89.6 172.8-188.8 172.8z" />
<glyph unicode="&#xe91f;" d="M833.6 86.4c99.2 0 180.8 75.2 190.4 172.8h-380.8c9.6-97.6 91.2-172.8 190.4-172.8z" />
<glyph unicode="&#xe920;" d="M1022.4 294.4h-379.2c0-6.4-1.6-12.8-1.6-17.6 0-6.4 0-12.8 1.6-17.6h379.2c0 6.4 1.6 12.8 1.6 17.6 0 6.4 0 12.8-1.6 17.6z" />
<glyph unicode="&#xe921;" glyph-name="icons-all-23" d="M592 593.6c0 28.8 6.4 57.6 16 83.2h-54.4v40c0 36.8-30.4 68.8-68.8 68.8h-169.6c-36.8 0-68.8-30.4-68.8-68.8v-40h-89.6c-86.4 1.6-156.8-68.8-156.8-155.2v-254.4c0-86.4 70.4-156.8 156.8-156.8h486.4c86.4 0 156.8 70.4 156.8 156.8v89.6c-116.8 14.4-208 115.2-208 236.8zM283.2 718.4c0 17.6 14.4 32 32 32h169.6c17.6 0 32-14.4 32-32v-40h-233.6v40zM580.8 339.2h-126.4v-126.4h-110.4v126.4h-126.4v108.8h126.4v126.4h110.4v-126.4h126.4v-108.8zM843.2 569.6v-64c11.2 3.2 24 9.6 24 30.4 0 22.4-16 30.4-24 33.6zM800 652.8c0-19.2 17.6-27.2 25.6-32v59.2c-8 0-25.6-4.8-25.6-27.2zM832 785.6c-105.6 0-192-86.4-192-192s86.4-192 192-192c105.6 0 192 86.4 192 192s-86.4 192-192 192zM844.8 467.2v-16c0-6.4-1.6-8-8-8h-8c-6.4 0-8 1.6-8 8v16c-12.8 0-64 8-64 19.2 0 1.6 0 1.6 0 3.2l11.2 30.4c0 0 1.6 3.2 3.2 3.2s27.2-14.4 49.6-17.6v72c-22.4 9.6-64 22.4-64 72 0 54.4 48 68.8 64 70.4v17.6c0 6.4 1.6 8 8 8h8c6.4 0 8-1.6 8-8v-17.6c11.2 0 57.6-9.6 57.6-20.8 0-1.6 0-3.2-1.6-4.8l-11.2-25.6c0-1.6-1.6-3.2-3.2-3.2s-25.6 14.4-41.6 14.4v-68.8c24-11.2 64-27.2 64-75.2s-40-65.6-64-68.8z" />
</font>
</defs>
</svg>
