<?xml version="1.0" encoding="utf-8"?>
<!-- Generator: Adobe Illustrator 22.1.0, SVG Export Plug-In . SVG Version: 6.00 Build 0)  -->
<svg version="1.1" id="Layer_1" xmlns="http://www.w3.org/2000/svg" xmlns:xlink="http://www.w3.org/1999/xlink" x="0px" y="0px"
	 width="32px" height="32px" viewBox="0 0 32 32" style="enable-background:new 0 0 32 32;" xml:space="preserve">
<style type="text/css">
	.st0{fill:#FFFFFF;}
</style>
<g>
	<circle class="st0" cx="8.1" cy="6.8" r="6"/>
	<circle class="st0" cx="20.8" cy="10.8" r="6"/>
	<circle class="st0" cx="10.2" cy="19" r="3.9"/>
	<path class="st0" d="M15.2,24.9l1.8-2c0,0,2.3,1.4,3.8,3.2c0,0,1.7-3.2,4.1-6c1.6-1.8,4.5-3.4,7.1-3.5c0,0-2.9,1.6-6,5.9
		c-1.6,2.1-3,5.1-4.5,8.8C21.4,31.2,19.1,27.6,15.2,24.9z"/>
	<path class="st0" d="M13.4,23.1c0.3,0,1.8,2,0.9,4.4c-0.9,2.6-3.8,2.2-4.7,2.2c-1,0-3.5-0.1-4.2-2.3C4.6,25,6.2,23,6.7,23
		c1,0,0.9,1,3.4,1.1C12.7,24.3,12.7,23,13.4,23.1z"/>
	<path class="st0" d="M15.1,21c0,0,4.1,0.1,5.3,2.2c0,0,2.8-3.3,6.2-6.1c-0.4-0.4-0.7-0.6-0.8-0.6c-1.4,0.1-1,1.4-4.6,1.5
		c-3.6-0.2-3.2-1.3-4.6-1.4c-0.2,0-0.7,0.3-1.3,1.1c0.1,0.4,0.2,0.8,0.2,1.3C15.5,19.7,15.4,20.4,15.1,21z"/>
	<g>
		<path class="st0" d="M12.7,12.5c-1,0-1.1,0.7-2.3,1.1c-0.1,0-0.1,0.1,0,0.1c1.8,0.1,3.4,1.1,4.3,2.6l0.7-0.6
			C14.6,14,13.2,12.5,12.7,12.5z"/>
		<path class="st0" d="M3.5,12.6c-0.7,0-4,3.9-3.5,6.6c0.4,1.9,3.5,2.7,5.9,3c-0.7-0.9-1-2-1-3.2c0-2.2,1.4-4.1,3.3-4.9
			c0.1-0.1,0-0.1,0-0.1C4.6,13.9,5,12.7,3.5,12.6z"/>
	</g>
</g>
</svg>
