<?xml version="1.0" encoding="utf-8"?>
<!-- Generator: Adobe Illustrator 22.1.0, SVG Export Plug-In . SVG Version: 6.00 Build 0)  -->
<svg version="1.1" id="Layer_1" xmlns="http://www.w3.org/2000/svg" xmlns:xlink="http://www.w3.org/1999/xlink" x="0px" y="0px"
	 width="32px" height="32px" viewBox="0 0 32 32" style="enable-background:new 0 0 32 32;" xml:space="preserve">
<style type="text/css">
	.st0{fill:none;}
	.st1{fill:#1960A3;}
	.st2{fill:#14A45C;}
</style>
<g>
	<g>
		<path class="st0" d="M21.3,6.1H10.4c-0.1,0-0.2-0.1-0.2-0.2V4.5H6.6C5.9,4.5,5.4,5,5.4,5.7v23.7c0,0.6,0.5,1.1,1.1,1.1h18.9
			c0.6,0,1.1-0.5,1.1-1.1V5.7c0-0.6-0.5-1.1-1.1-1.1h-4v1.4C21.5,6,21.4,6.1,21.3,6.1z"/>
		<path class="st1" d="M25.4,3h-4.2c-0.2-0.3-0.6-0.5-1-0.5h-1.9c0-1.4-1.1-2.5-2.5-2.5s-2.5,1.1-2.5,2.5h-1.9c-0.4,0-0.8,0.2-1,0.5
			H6.6C5.1,3,3.9,4.2,3.9,5.7v23.7c0,1.5,1.2,2.6,2.6,2.6h18.9c1.5,0,2.6-1.2,2.6-2.6V5.7C28.1,4.2,26.9,3,25.4,3z M14.6,2.5
			C14.6,2.5,14.7,2.5,14.6,2.5c0-0.7,0.5-1.2,1.2-1.2s1.2,0.5,1.2,1.2c0,0,0,0,0,0c0,0.2,0,0.3-0.1,0.5c-0.2,0.4-0.6,0.7-1.1,0.7
			c-0.5,0-0.9-0.3-1.1-0.7C14.7,2.9,14.6,2.7,14.6,2.5z M26.6,29.4c0,0.6-0.5,1.1-1.1,1.1H6.6c-0.6,0-1.1-0.5-1.1-1.1V5.7
			c0-0.6,0.5-1.1,1.1-1.1h3.7v1.4c0,0.1,0.1,0.2,0.2,0.2h10.8c0.1,0,0.2-0.1,0.2-0.2V4.5h4c0.6,0,1.1,0.5,1.1,1.1V29.4z"/>
	</g>
	<path class="st2" d="M13.9,8.6l-0.5-0.5c-0.1-0.1-0.2-0.1-0.3,0l-3,3.2c-0.1,0.1-0.2,0.1-0.2,0L8.5,10c0,0-0.1-0.1-0.2-0.1
		c0,0,0,0,0,0c-0.1,0-0.1,0-0.2,0.1l-0.5,0.5c-0.1,0.1-0.1,0.2,0,0.3l1.9,1.8c0.1,0.1,0.2,0.1,0.4,0.1h0.2c0.1,0,0.3-0.1,0.4-0.1
		l3.4-3.7c0,0,0.1-0.1,0.1-0.2C14,8.7,14,8.6,13.9,8.6z"/>
	<path class="st2" d="M13.9,15.7l-0.5-0.5c-0.1-0.1-0.2-0.1-0.3,0l-3,3.2c0,0-0.1,0-0.1,0c0,0,0,0,0,0c0,0-0.1,0-0.1,0l-1.4-1.3
		c0,0-0.1-0.1-0.2-0.1c0,0,0,0,0,0c-0.1,0-0.1,0-0.2,0.1l-0.5,0.5c-0.1,0.1-0.1,0.2,0,0.3l1.9,1.8c0.1,0.1,0.2,0.1,0.4,0.1h0.2
		c0.1,0,0.3-0.1,0.4-0.1l3.4-3.7c0,0,0.1-0.1,0.1-0.2C14,15.8,14,15.7,13.9,15.7z"/>
	<path class="st2" d="M13.9,22.8l-0.5-0.5c-0.1-0.1-0.2-0.1-0.3,0l-3,3.2c0,0-0.1,0-0.1,0c0,0,0,0,0,0c0,0-0.1,0-0.1,0l-1.4-1.3
		c-0.1-0.1-0.2-0.1-0.3,0l-0.5,0.5c-0.1,0.1-0.1,0.2,0,0.3l1.9,1.8c0.1,0.1,0.2,0.1,0.4,0.1h0.2c0.1,0,0.3-0.1,0.4-0.1l3.4-3.7
		c0,0,0.1-0.1,0.1-0.2C14,22.9,14,22.8,13.9,22.8z"/>
	<g>
		<rect x="15" y="8.6" class="st1" width="9.1" height="1.2"/>
		<rect x="15" y="10.9" class="st1" width="9.1" height="1.2"/>
	</g>
	<g>
		<rect x="15" y="15.8" class="st1" width="9.1" height="1.2"/>
		<rect x="15" y="18" class="st1" width="9.1" height="1.2"/>
	</g>
	<g>
		<rect x="15" y="22.9" class="st1" width="9.1" height="1.2"/>
		<rect x="15" y="25.2" class="st1" width="9.1" height="1.2"/>
	</g>
</g>
</svg>
