<?xml version="1.0" encoding="utf-8"?>
<!-- Generator: Adobe Illustrator 22.1.0, SVG Export Plug-In . SVG Version: 6.00 Build 0)  -->
<svg version="1.1" id="Layer_1" xmlns="http://www.w3.org/2000/svg" xmlns:xlink="http://www.w3.org/1999/xlink" x="0px" y="0px"
	 width="32px" height="32px" viewBox="0 0 32 32" style="enable-background:new 0 0 32 32;" xml:space="preserve">
<style type="text/css">
	.st0{fill:#415262;}
	.st1{fill:#1960A3;}
	.st2{fill:#E62722;}
	.st3{fill:#7E8E9B;}
	.st4{fill:#14A45C;}
	.st5{fill:none;}
</style>
<g>
	<g>
		<path class="st0" d="M23.6,20.1v-3.5c0-0.4-0.3-0.7-0.7-0.7s-0.7,0.3-0.7,0.7v3.5c0.2-0.1,0.5-0.1,0.7-0.1
			C23.1,20,23.4,20,23.6,20.1z"/>
		<path class="st1" d="M28.3,21.1h-3.7c0.1,0.2,0.2,0.5,0.2,0.7c0,0.3-0.1,0.5-0.2,0.7h3.7c0.4,0,0.7-0.3,0.7-0.7
			S28.7,21.1,28.3,21.1z"/>
		<path class="st2" d="M21.3,23l-3,3c-0.2,0.2-0.2,0.5,0,0.7c0.2,0.2,0.5,0.2,0.7,0l3.1-3.1C21.7,23.5,21.5,23.3,21.3,23z"/>
	</g>
	<path class="st3" d="M24.6,21.1c-0.2-0.4-0.5-0.8-1-1C23.4,20,23.1,20,22.8,20c-0.3,0-0.5,0.1-0.7,0.1c-0.7,0.3-1.2,1-1.2,1.8
		c0,0.4,0.1,0.8,0.3,1.1c0.2,0.3,0.5,0.5,0.8,0.6c0.2,0.1,0.5,0.2,0.8,0.2c0.8,0,1.5-0.5,1.8-1.2c0.1-0.2,0.2-0.5,0.2-0.7
		C24.8,21.6,24.7,21.4,24.6,21.1z M22.8,22.8c-0.2,0-0.3,0-0.5-0.1c-0.1-0.1-0.3-0.2-0.3-0.3c-0.1-0.1-0.1-0.3-0.1-0.5
		c0-0.5,0.4-0.9,0.9-0.9s0.9,0.4,0.9,0.9S23.4,22.8,22.8,22.8z"/>
	<g>
		<path class="st4" d="M6.9,9.4c-1.8,0-3.2,1.4-3.2,3.2s1.4,3.2,3.2,3.2s3.2-1.4,3.2-3.2S8.7,9.4,6.9,9.4z M9,11.7L6.7,14
			c-0.1,0.1-0.2,0.1-0.3,0.1H6.2c-0.1,0-0.2-0.1-0.3-0.1l-1.1-1.1c-0.1-0.1-0.1-0.2,0-0.2l0.4-0.4c0.1-0.1,0.2-0.1,0.2,0L6.2,13
			C6.3,13,6.4,13,6.4,13l1.9-1.9c0.1-0.1,0.2-0.1,0.2,0L9,11.5C9,11.6,9,11.7,9,11.7z"/>
	</g>
	<g>
		<path class="st4" d="M6.9,16.9c-1.8,0-3.2,1.4-3.2,3.2c0,1.8,1.4,3.2,3.2,3.2s3.2-1.4,3.2-3.2C10.1,18.3,8.7,16.9,6.9,16.9z
			 M9,19.3l-2.3,2.3c-0.1,0.1-0.2,0.1-0.3,0.1H6.2c-0.1,0-0.2-0.1-0.3-0.1l-1.1-1.1c-0.1-0.1-0.1-0.2,0-0.2l0.4-0.4
			c0.1-0.1,0.2-0.1,0.2,0l0.7,0.7c0.1,0.1,0.2,0.1,0.2,0l1.9-1.9c0.1-0.1,0.2-0.1,0.2,0L9,19C9,19.1,9,19.2,9,19.3z"/>
	</g>
	<rect x="11.3" y="11" class="st1" width="8.5" height="1.7"/>
	<g>
		<path class="st1" d="M11.3,18v1.7H14c0.1-0.6,0.3-1.1,0.6-1.7H11.3z"/>
		<path class="st1" d="M3.7,25v1.7h11.4c-0.3-0.5-0.6-1.1-0.8-1.7H3.7z"/>
		<path class="st1" d="M17.5,14.5h-4.6v1.7h2.9C16.2,15.6,16.8,15,17.5,14.5z"/>
		<path class="st1" d="M13.7,21.5h-0.9v1.7h1c-0.1-0.4-0.1-0.8-0.1-1.3C13.7,21.7,13.7,21.6,13.7,21.5z"/>
		<g>
			<path class="st5" d="M15.1,26.6c-0.3-0.5-0.6-1.1-0.8-1.7c-0.2-0.6-0.4-1.2-0.4-1.8c-0.1-0.4-0.1-0.8-0.1-1.3c0-0.1,0-0.3,0-0.4
				c0-0.6,0.1-1.2,0.3-1.8c0.1-0.6,0.3-1.1,0.6-1.7c0.3-0.7,0.7-1.3,1.1-1.8c0.5-0.6,1.1-1.2,1.7-1.7c1.5-1.1,3.3-1.7,5.2-1.7V5.7
				c0-0.6-0.5-1.1-1.1-1.1h-4v1.4c0,0.1-0.1,0.2-0.2,0.2H6.5C6.4,6.1,6.4,6,6.4,5.9V4.5H2.7C2.1,4.5,1.5,5,1.5,5.7v23.7
				c0,0.6,0.5,1.1,1.1,1.1h17.2C17.9,29.8,16.2,28.4,15.1,26.6z"/>
			<path class="st5" d="M12,3.7c0.5,0,0.9-0.3,1.1-0.7c0.1-0.2,0.1-0.3,0.1-0.5c0,0,0,0,0,0c0-0.7-0.5-1.2-1.2-1.2s-1.2,0.5-1.2,1.2
				c0,0,0,0,0,0c0,0.2,0,0.3,0.1,0.5C11.1,3.4,11.5,3.7,12,3.7z"/>
			<path class="st1" d="M19.9,30.5H2.7c-0.6,0-1.1-0.5-1.1-1.1V5.7c0-0.6,0.5-1.1,1.1-1.1h3.7v1.4c0,0.1,0.1,0.2,0.2,0.2h10.8
				c0.1,0,0.2-0.1,0.2-0.2V4.5h4c0.6,0,1.1,0.5,1.1,1.1v7.1c0.1,0,0.1,0,0.2,0c0.5,0,0.9,0,1.3,0.1V5.7C24.2,4.2,23,3,21.5,3h-4.2
				c-0.2-0.3-0.6-0.5-1-0.5h-1.9C14.5,1.1,13.4,0,12,0S9.4,1.1,9.4,2.5H7.6c-0.4,0-0.8,0.2-1,0.5H2.7C1.2,3,0,4.2,0,5.7v23.7
				C0,30.8,1.2,32,2.7,32h18.9c0.9,0,1.6-0.4,2.1-1c-0.3,0-0.5,0-0.8,0C21.8,31,20.8,30.8,19.9,30.5z M10.8,2.5
				c0-0.7,0.5-1.2,1.2-1.2s1.2,0.5,1.2,1.2c0,0,0,0,0,0c0,0.2,0,0.3-0.1,0.5c-0.2,0.4-0.6,0.7-1.1,0.7S11.1,3.4,10.9,3
				C10.8,2.9,10.8,2.7,10.8,2.5C10.8,2.5,10.8,2.5,10.8,2.5z"/>
			<path class="st4" d="M24.2,12.9c-0.4-0.1-0.9-0.1-1.3-0.1c-0.1,0-0.1,0-0.2,0c-1.9,0-3.7,0.7-5.2,1.7c-0.7,0.5-1.2,1-1.7,1.7
				c-0.4,0.6-0.8,1.2-1.1,1.8c-0.3,0.5-0.5,1.1-0.6,1.7c-0.1,0.6-0.2,1.2-0.3,1.8c0,0.1,0,0.3,0,0.4c0,0.4,0,0.8,0.1,1.3
				c0.1,0.6,0.2,1.2,0.4,1.8c0.2,0.6,0.5,1.1,0.8,1.7c1.1,1.8,2.8,3.2,4.8,3.9c0.9,0.3,1.9,0.5,3,0.5c0.3,0,0.5,0,0.8,0
				c4.7-0.4,8.3-4.3,8.3-9.1C32,17.3,28.6,13.5,24.2,12.9z M24.2,29.4c-0.4,0.1-0.9,0.1-1.3,0.1c-0.1,0-0.1,0-0.2,0
				c-2.3-0.1-4.4-1.2-5.8-2.9c-0.4-0.5-0.7-1.1-1-1.7c-0.3-0.6-0.4-1.2-0.5-1.8c-0.1-0.4-0.1-0.8-0.1-1.3c0-0.1,0-0.3,0-0.4
				c0-0.6,0.1-1.2,0.3-1.8c0.2-0.6,0.4-1.1,0.7-1.7c0.4-0.7,0.9-1.3,1.5-1.8c0.6-0.5,1.3-0.9,2-1.3c0.9-0.4,1.9-0.6,2.9-0.6
				c0.1,0,0.1,0,0.2,0c0.5,0,0.9,0,1.3,0.1c3.6,0.6,6.3,3.8,6.3,7.5C30.5,25.6,27.7,28.8,24.2,29.4z"/>
		</g>
	</g>
</g>
</svg>
