<?xml version="1.0" encoding="utf-8"?>
<!-- Generator: Adobe Illustrator 22.1.0, SVG Export Plug-In . SVG Version: 6.00 Build 0)  -->
<svg version="1.1" id="Layer_1" xmlns="http://www.w3.org/2000/svg" xmlns:xlink="http://www.w3.org/1999/xlink" x="0px" y="0px"
	 width="32px" height="32px" viewBox="0 0 32 32" style="enable-background:new 0 0 32 32;" xml:space="preserve">
<style type="text/css">
	.st0{fill:#FFFFFF;}
</style>
<g>
	<path class="st0" d="M28.4,4.1H12.3v9c0,1.6-1.3,3-3,3H7.1c-1.6,0-3-1.3-3-3v-9H3.6C2,4.1,0.7,5.4,0.7,7v14.1C0.7,22.7,2,24,3.6,24
		h0.7v-3.3H5l0,0h22.3l0,0H28V24h0.4c1.6,0,2.9-1.3,2.9-2.9V7C31.3,5.4,30,4.1,28.4,4.1z M15.7,16.1h-0.8c-0.4,0-0.8-0.3-0.8-0.8
		s0.3-0.8,0.8-0.8h0.8c0.4,0,0.8,0.3,0.8,0.8S16.1,16.1,15.7,16.1z M15.7,13.6h-0.8c-0.4,0-0.8-0.3-0.8-0.8s0.3-0.8,0.8-0.8h0.8
		c0.4,0,0.8,0.3,0.8,0.8S16.1,13.6,15.7,13.6z M15.7,11.1h-0.8c-0.4,0-0.8-0.3-0.8-0.8s0.3-0.8,0.8-0.8h0.8c0.4,0,0.8,0.3,0.8,0.8
		S16.1,11.1,15.7,11.1z M20.2,12.1H21c0.4,0,0.8,0.3,0.8,0.8s-0.3,0.8-0.8,0.8h-0.8c-0.4,0-0.8-0.3-0.8-0.8S19.8,12.1,20.2,12.1z
		 M19.4,10.4c0-0.4,0.3-0.8,0.8-0.8H21c0.4,0,0.8,0.3,0.8,0.8s-0.3,0.8-0.8,0.8h-0.8C19.8,11.1,19.4,10.8,19.4,10.4z M21,16.1h-0.8
		c-0.4,0-0.8-0.3-0.8-0.8s0.3-0.8,0.8-0.8H21c0.4,0,0.8,0.3,0.8,0.8S21.4,16.1,21,16.1z M26.2,16.1h-0.8c-0.4,0-0.8-0.3-0.8-0.8
		s0.3-0.8,0.8-0.8h0.8c0.4,0,0.8,0.3,0.8,0.8S26.7,16.1,26.2,16.1z M26.2,13.6h-0.8c-0.4,0-0.8-0.3-0.8-0.8s0.3-0.8,0.8-0.8h0.8
		c0.4,0,0.8,0.3,0.8,0.8S26.7,13.6,26.2,13.6z M26.2,11.1h-0.8c-0.4,0-0.8-0.3-0.8-0.8s0.3-0.8,0.8-0.8h0.8c0.4,0,0.8,0.3,0.8,0.8
		S26.7,11.1,26.2,11.1z M26.1,8.1H15c-0.5,0-0.9-0.4-0.9-0.9s0.4-0.9,0.9-0.9h11.1c0.5,0,0.9,0.4,0.9,0.9S26.6,8.1,26.1,8.1z"/>
	<path class="st0" d="M8.2,14.9L8.2,14.9c-1.6,0-2.8-1.3-2.8-2.8V2.8C5.4,1.3,6.6,0,8.2,0l0,0C9.7,0,11,1.3,11,2.8v9.3
		C11,13.7,9.7,14.9,8.2,14.9z"/>
	<path class="st0" d="M24.3,29.4H8c-0.5,0-0.8-0.4-0.8-0.8l0,0c0-0.5,0.4-0.8,0.8-0.8h16.3c0.5,0,0.8,0.4,0.8,0.8l0,0
		C25.1,29,24.8,29.4,24.3,29.4z"/>
	<path class="st0" d="M24.3,26.7H8c-0.5,0-0.8-0.4-0.8-0.8l0,0C7.2,25.4,7.6,25,8,25h16.3c0.5,0,0.8,0.4,0.8,0.8l0,0
		C25.1,26.3,24.8,26.7,24.3,26.7z"/>
	<path class="st0" d="M24.3,23.9H8c-0.5,0-0.8-0.4-0.8-0.8l0,0c0-0.5,0.4-0.8,0.8-0.8h16.3c0.5,0,0.8,0.4,0.8,0.8l0,0
		C25.1,23.6,24.8,23.9,24.3,23.9z"/>
	<g>
		<path class="st0" d="M25.7,32h-19c-1.3,0-2.3-1.1-2.3-2.4v-8.9h1.3v8.9c0,0.6,0.4,1,1,1h19c0.5,0,1-0.5,1-1v-8.9H28v8.9
			C28,30.9,27,32,25.7,32z"/>
	</g>
</g>
</svg>
