<?xml version="1.0" encoding="utf-8"?>
<!-- Generator: Adobe Illustrator 22.1.0, SVG Export Plug-In . SVG Version: 6.00 Build 0)  -->
<svg version="1.1" id="Layer_1" xmlns="http://www.w3.org/2000/svg" xmlns:xlink="http://www.w3.org/1999/xlink" x="0px" y="0px"
	 width="32px" height="32px" viewBox="0 0 32 32" style="enable-background:new 0 0 32 32;" xml:space="preserve">
<style type="text/css">
	.st0{fill:none;}
	.st1{fill:#FFFFFF;}
</style>
<g>
	<g>
		<path class="st0" d="M14.7,28.3l6.2-9.8v-5l-1.1-1.4h2.6V5.7c0-0.6-0.5-1.1-1.1-1.1h-3.9V6c0,0.1-0.1,0.2-0.2,0.2H6.5
			C6.4,6.2,6.3,6.1,6.3,6V4.6H2.6C2,4.6,1.5,5.1,1.5,5.7v23.5c0,0.6,0.5,1.1,1.1,1.1h11.9C14.2,29.7,14.3,28.9,14.7,28.3z"/>
		<path class="st1" d="M14.6,30.7c0-0.1-0.1-0.2-0.1-0.3H2.6c-0.6,0-1.1-0.5-1.1-1.1V5.7c0-0.6,0.5-1.1,1.1-1.1h3.7V6
			c0,0.1,0.1,0.2,0.2,0.2h10.8c0.1,0,0.2-0.1,0.2-0.2V4.6h3.9c0.6,0,1.1,0.5,1.1,1.1V12h0.7H24V5.7c0-1.4-1.2-2.6-2.6-2.6h-4.2
			c-0.2-0.3-0.6-0.5-1-0.5h-1.9c0-1.4-1.1-2.5-2.5-2.5S9.3,1.2,9.3,2.6H7.5c-0.4,0-0.8,0.2-1,0.5H2.6C1.2,3.1,0,4.3,0,5.7v23.5
			c0,1.4,1.2,2.6,2.6,2.6h14.1C15.8,31.9,15.1,31.4,14.6,30.7z M10.6,2.6c0-0.6,0.5-1.2,1.2-1.2C12.5,1.4,13,2,13,2.6l0,0
			c0,0.2,0,0.3-0.1,0.5c-0.2,0.4-0.6,0.7-1.1,0.7s-0.9-0.3-1.1-0.7C10.7,3,10.6,2.8,10.6,2.6L10.6,2.6z"/>
	</g>
	<g>
		<path class="st1" d="M6.8,9.4c-1.8,0-3.2,1.4-3.2,3.2s1.4,3.2,3.2,3.2s3.2-1.4,3.2-3.2S8.6,9.4,6.8,9.4z M8.9,11.8L6.6,14
			c-0.1,0.1-0.2,0.1-0.3,0.1H6.1C6,14.1,5.9,14,5.8,14l-1-1c-0.1-0.1-0.1-0.2,0-0.2l0.4-0.4c0.1-0.1,0.2-0.1,0.2,0L6.1,13
			c0.1,0.1,0.2,0.1,0.2,0l1.9-1.9c0.1-0.1,0.2-0.1,0.2,0l0.4,0.4C8.9,11.6,8.9,11.7,8.9,11.8z"/>
	</g>
	<g>
		<path class="st1" d="M6.8,16.9c-1.8,0-3.2,1.4-3.2,3.2s1.4,3.2,3.2,3.2s3.2-1.4,3.2-3.2S8.6,16.9,6.8,16.9z M8.9,19.3l-2.3,2.3
			c-0.1,0.1-0.2,0.1-0.3,0.1H6.1c-0.1,0-0.2-0.1-0.3-0.1l-1.1-1.1c-0.1-0.1-0.1-0.2,0-0.2l0.4-0.4c0.1-0.1,0.2-0.1,0.2,0L6,20.6
			c0.1,0.1,0.2,0.1,0.2,0l1.9-1.9c0.1-0.1,0.2-0.1,0.2,0L8.9,19C8.9,19.1,8.9,19.2,8.9,19.3z"/>
	</g>
	<rect x="11.2" y="11.1" class="st1" width="8.4" height="1.7"/>
	<rect x="11.2" y="18" class="st1" width="8.4" height="1.7"/>
	<rect x="12.7" y="14.5" class="st1" width="6.9" height="1.7"/>
	<g>
		<polygon class="st1" points="3.6,24.9 3.6,26.5 15.3,26.5 16.4,24.9 		"/>
		<polygon class="st1" points="12.7,21.4 12.7,23.1 17.5,23.1 18.6,21.4 		"/>
		<path class="st1" d="M31.6,28.3l-6.1-9.8v-5.1l1.1-1.3H24v6.8l6.4,10.2c0.2,0.3,0.2,0.6,0,0.9s-0.4,0.4-0.8,0.4H16.7
			c-0.3,0-0.6-0.2-0.8-0.5s-0.1-0.6,0-0.9l1.6-2.5l1.1-1.7l1.2-1.8l0.3-0.5l2.3-3.6V12h-2.5l1.1,1.4v5l-1.9,2.9L18,23.1l-1.2,1.8
			l-1.1,1.7l-1.1,1.7c-0.5,0.7-0.5,1.6-0.1,2.4s1.2,1.2,2.1,1.2h12.9c0.9,0,1.6-0.4,2.1-1.2S32.1,29,31.6,28.3z"/>
	</g>
	<g>
		<path class="st1" d="M19.1,24l-3.2,5c-0.2,0.3-0.2,0.6,0,0.9c0.2,0.3,0.4,0.5,0.8,0.5h12.9c0.3,0,0.6-0.2,0.8-0.4
			c0.2-0.3,0.1-0.6,0-0.9l-3.3-5.2L19.1,24z"/>
	</g>
</g>
</svg>
