<?xml version="1.0" encoding="utf-8"?>
<!-- Generator: Adobe Illustrator 26.0.2, SVG Export Plug-In . SVG Version: 6.00 Build 0)  -->
<svg version="1.1" id="Layer_1" xmlns="http://www.w3.org/2000/svg" xmlns:xlink="http://www.w3.org/1999/xlink" x="0px" y="0px"
	 viewBox="0 0 200 200" style="enable-background:new 0 0 200 200;" xml:space="preserve">
<style type="text/css">
	.st0{fill:#1A73E8;}
	.st1{fill:#FFFFFF;}
</style>
<g>
	<g>
		<path class="st0" d="M197.42,143c-1.22,4.52-1.72,9.18-2.65,13.76c-0.28,1.36-0.48,2.74-0.76,4.11c-0.76,3.82-3.52,5.84-7.46,5.32
			c-2.32-0.3-4.61-0.81-6.92-1.23c-0.49-0.09-0.97-0.33-1.35,0.26c-0.39,0.61,0.11,0.94,0.36,1.33c1.33,2,2.72,3.97,4.04,5.99
			c2.03,3.1,1.44,6.73-1.57,8.91c-5.08,3.67-10.22,7.27-15.39,10.83c-2.9,2-6.49,1.38-8.61-1.45c-1.37-1.82-2.57-3.77-3.89-5.63
			c-0.38-0.53-0.55-1.49-1.4-1.34c-0.87,0.16-0.7,1.08-0.82,1.74c-0.39,2.12-0.74,4.24-1.16,6.35c-0.75,3.83-3.86,5.98-7.68,5.29
			c-5.98-1.08-11.95-2.19-17.93-3.32c-3.89-0.73-6.07-3.91-5.37-7.81c0.41-2.31,0.85-4.61,1.26-6.91c0.09-0.48,0.25-1.03-0.35-1.34
			c-0.5-0.26-0.83,0.14-1.18,0.38c-1.87,1.3-3.72,2.64-5.6,3.93c-3.28,2.25-6.68,1.84-9.03-1.32c-0.83-1.12-1.75-1.04-2.8-1.04
			c-31.19,0-62.37,0-93.56,0c-4.2,0-4.96-0.77-4.96-5c0-9.44-0.18-18.89,0.03-28.33c0.64-27.71,12.83-48.42,37.65-61.34
			c0.27-0.14,0.51-0.33,0.87-0.56c-4.51-4.93-7.9-10.44-10.18-16.64c-9.08-24.66,2.74-52.19,26.71-62.09
			c3.58-1.48,7.32-2.44,11.18-2.88c0.49-0.06,0.97-0.23,1.46-0.35c2.66,0,5.33,0,7.99,0c3.08,0.67,6.25,0.96,9.24,2
			c17.75,6.19,28.53,18.68,32.13,36.95c3.1,15.72-0.92,29.87-11.41,42.09c-0.16,0.19-0.34,0.38-0.48,0.59
			c-0.07,0.1-0.09,0.23-0.15,0.43c3.88,1.86,7.62,3.97,11.07,6.56c0.66,0.49,1.1,0.24,1.7-0.06c3.17-1.58,6.27-0.81,8.36,2.1
			c1.37,1.9,2.64,3.88,3.97,5.8c0.27,0.39,0.44,1.01,1.1,0.86c0.63-0.14,0.62-0.74,0.71-1.22c0.41-2.24,0.79-4.49,1.2-6.73
			c0.75-4.06,3.79-6.14,7.89-5.4c5.79,1.05,11.58,2.1,17.37,3.18c4.22,0.79,6.27,3.7,5.6,7.95c-0.35,2.25-0.8,4.49-1.17,6.73
			c-0.08,0.47-0.29,1.03,0.28,1.38c0.59,0.37,0.94-0.16,1.32-0.42c1.93-1.33,3.82-2.71,5.77-4.02c3.09-2.08,6.75-1.48,8.87,1.58
			c3.61,5.21,7.15,10.46,10.63,15.75c1.91,2.89,1.2,6.47-1.62,8.63c-1.86,1.42-3.83,2.7-5.73,4.07c-0.47,0.34-1.26,0.52-1.01,1.39
			c0.2,0.73,0.87,0.6,1.41,0.7c1.49,0.27,2.98,0.64,4.49,0.8c3.66,0.38,6.29,2.06,7.54,5.63C197.42,140.97,197.42,141.98,197.42,143
			z M114.07,95.61c-3.36-2.35-6.69-4.14-10.15-5.72c-1.05-0.48-1.77-0.36-2.71,0.34c-7.96,5.92-16.93,8.98-26.85,8.98
			c-9.85,0-18.77-3.04-26.7-8.86c-1-0.73-1.74-0.86-2.87-0.33c-20.39,9.57-32.07,25.68-35.21,47.79
			c-1.61,11.37-0.39,22.91-0.64,34.38c-0.02,0.96,0.29,1.34,1.3,1.33c8.11-0.03,16.23-0.03,24.34,0c0.88,0,1.11-0.17,1.09-1.17
			c-0.11-5-0.11-10.01-0.08-15.02c0.01-2.2,1.29-3.57,3.12-3.57c1.82,0,3.12,1.43,3.13,3.56c0.03,4.82,0.14,9.64-0.06,14.45
			c-0.07,1.71,0.52,1.76,1.83,1.75c17.68-0.03,35.37-0.02,53.05-0.03c0.6,0,1.25,0.2,1.79-0.2c0-0.17,0.05-0.32-0.01-0.4
			c-1.66-2.47-3.33-4.93-4.99-7.41c-2.27-3.41-1.68-6.85,1.62-9.32c1.83-1.37,3.69-2.68,5.53-4.02c0.39-0.29,0.91-0.51,0.75-1.17
			c-0.15-0.63-0.66-0.67-1.17-0.76c-2.06-0.37-4.11-0.77-6.16-1.13c-4.22-0.73-6.41-3.73-5.67-7.9c1.07-6.05,2.17-12.09,3.3-18.12
			c0.77-4.09,3.81-6.17,7.89-5.44c2.06,0.37,4.11,0.77,6.16,1.13c0.57,0.1,1.23,0.6,1.69-0.2c0.43-0.75-0.28-1.17-0.59-1.65
			c-1.14-1.75-2.35-3.46-3.51-5.19c-2.45-3.65-1.83-7.18,1.74-9.73C107.96,99.89,110.92,97.82,114.07,95.61z M74.43,8.87
			c-5.18,0.02-10.12,1.02-14.84,3C34.61,22.32,26.3,55.02,43.03,77c13.71,18.01,38.39,21.02,56.01,6.84
			c14.47-11.65,19.6-32.7,11.8-50.12C103.84,18.09,91.62,9.73,74.43,8.87z M119.37,170.7c0.83-0.04,1.5,0.24,2.15,0.7
			c1.14,0.79,2.31,1.55,3.51,2.26c1.5,0.88,2.09,2.09,1.75,3.82c-0.54,2.8-0.94,5.62-1.55,8.4c-0.29,1.35,0.16,1.76,1.4,1.99
			c5.1,0.94,10.2,1.95,15.28,2.98c1.15,0.23,1.71,0.06,1.9-1.27c0.4-2.75,1.03-5.47,1.5-8.22c0.34-1.99,1.33-3.21,3.43-3.44
			c1.13-0.13,2.26-0.33,3.34-0.68c1.92-0.61,3.31-0.06,4.4,1.59c1.61,2.43,3.3,4.8,4.89,7.24c0.53,0.82,0.93,0.93,1.75,0.34
			c4.38-3.12,8.79-6.22,13.24-9.25c1.01-0.69,0.96-1.2,0.33-2.1c-1.46-2.07-2.82-4.21-4.22-6.32c-1.92-2.89-1.92-3.28-0.04-6.1
			c0.42-0.63,0.83-1.27,1.2-1.94c1.4-2.5,2.2-2.87,5.09-2.31c2.55,0.49,5.11,0.91,7.65,1.42c0.89,0.18,1.36,0.13,1.55-0.96
			c0.95-5.42,1.97-10.84,3-16.24c0.22-1.17-0.06-1.72-1.34-1.91c-2.82-0.42-5.6-1.01-8.41-1.52c-4.16-0.75-2.88-4.51-3.84-7
			c-0.6-1.57-0.16-3,1.31-3.99c0.52-0.35,1.03-0.73,1.55-1.1c1.87-1.31,3.71-2.65,5.62-3.91c0.92-0.6,1.14-1.08,0.45-2.09
			c-3.04-4.44-6.02-8.93-8.96-13.44c-0.59-0.9-1.03-1.04-1.92-0.39c-2.35,1.72-4.77,3.34-7.15,5.02c-1.48,1.04-2.89,1.06-4.37-0.02
			c-1.07-0.78-2.21-1.48-3.35-2.15c-1.5-0.87-2.1-2.11-1.79-3.82c0.52-2.8,0.9-5.63,1.56-8.4c0.33-1.37-0.08-1.75-1.31-1.98
			c-5.16-0.96-10.32-1.97-15.47-3.02c-1.04-0.21-1.48-0.01-1.66,1.1c-0.46,2.87-1.05,5.73-1.57,8.59c-0.33,1.82-1.27,2.97-3.2,3.23
			c-1.19,0.16-2.4,0.32-3.53,0.71c-2.05,0.7-3.4-0.04-4.51-1.72c-1.57-2.38-3.2-4.72-4.79-7.08c-0.43-0.64-0.76-1.05-1.62-0.44
			c-4.49,3.2-9.01,6.35-13.54,9.48c-0.74,0.51-0.85,0.93-0.33,1.67c1.2,1.71,2.18,3.6,3.51,5.19c2.44,2.91,3.1,5.71,0.19,8.68
			c-0.17,0.17-0.27,0.43-0.39,0.65c-1.48,2.65-2.22,3-5.21,2.44c-2.49-0.47-4.98-0.94-7.46-1.42c-0.9-0.17-1.5-0.16-1.71,1.05
			c-0.92,5.36-1.94,10.71-2.98,16.06c-0.22,1.11,0.07,1.59,1.2,1.8c2.74,0.49,5.46,1.11,8.19,1.63c1.86,0.35,2.88,1.41,3.15,3.28
			c0.18,1.25,0.42,2.5,0.72,3.72c0.44,1.75-0.02,3.08-1.51,4.13c-2.33,1.63-4.6,3.37-6.96,4.97c-0.9,0.61-0.93,1.05-0.33,1.92
			c3.07,4.5,6.09,9.03,9.07,13.59c0.61,0.93,1.04,0.97,1.9,0.34c2.3-1.68,4.66-3.28,7-4.91C117.84,171.1,118.53,170.65,119.37,170.7
			z"/>
		<path class="st0" d="M143.57,199c-0.55,0-1.12-0.05-1.7-0.15c-5.98-1.08-11.96-2.19-17.93-3.32c-4.79-0.9-7.53-4.88-6.67-9.69
			l0.97-5.35l-0.89,0.63c-1.14,0.81-2.28,1.61-3.44,2.4c-4.09,2.8-8.39,2.16-11.25-1.69c-0.25-0.34-0.36-0.38-1.14-0.38
			c-0.04,0-0.1,0-0.15,0L7.6,181.45c-5.1,0-6.58-1.48-6.58-6.62c0-2.94-0.02-5.87-0.03-8.81c-0.04-6.41-0.08-13.03,0.07-19.56
			c0.65-28.33,13.3-49.27,37.62-62.27c-3.99-4.7-7.08-9.97-9.18-15.67c-9.45-25.68,2.68-53.86,27.6-64.16
			c3.72-1.53,7.63-2.54,11.62-2.99c0.24-0.03,0.48-0.11,0.73-0.18l0.51-0.14L78.35,1c1.38,0.27,2.42,0.44,3.46,0.63
			c2.08,0.36,4.22,0.74,6.32,1.46c18.29,6.38,29.45,19.22,33.18,38.18c3.11,15.77-0.66,30.17-11.21,42.8
			c3.69,1.86,6.85,3.79,9.62,5.88c3.87-2.14,7.86-1.15,10.4,2.4c0.84,1.17,1.65,2.37,2.45,3.57l0.68,1l0.93-5.2
			c0.92-4.98,4.69-7.66,9.78-6.71c5.79,1.05,11.58,2.1,17.38,3.18c5.07,0.95,7.71,4.71,6.9,9.81c-0.2,1.26-0.42,2.51-0.65,3.77
			c-0.1,0.51-0.18,1.01-0.27,1.52l1.23-0.86c1.12-0.79,2.24-1.58,3.38-2.35c3.85-2.57,8.51-1.74,11.11,2
			c3.61,5.22,7.16,10.49,10.65,15.78c2.36,3.58,1.52,8.13-1.99,10.81c-1.13,0.87-2.31,1.69-3.49,2.5c-0.48,0.34-0.96,0.67-1.43,1
			l0.32,0.06c0.98,0.2,1.95,0.4,2.94,0.5c4.51,0.47,7.51,2.73,8.9,6.71l0.09,0.54l-0.06,3.47c-0.74,2.75-1.22,5.63-1.69,8.42
			c-0.29,1.75-0.58,3.5-0.94,5.24c-0.15,0.7-0.27,1.39-0.39,2.09c-0.11,0.67-0.23,1.34-0.37,2.01c-0.94,4.7-4.5,7.24-9.26,6.62
			c-1.67-0.22-3.33-0.54-4.99-0.86l-0.56-0.11l0.84,1.24c0.81,1.19,1.62,2.37,2.4,3.57c2.52,3.87,1.71,8.44-1.98,11.11
			c-5.1,3.68-10.24,7.29-15.42,10.85c-3.64,2.5-8.18,1.72-10.83-1.81c-0.82-1.09-1.57-2.22-2.33-3.35
			c-0.36-0.53-0.71-1.06-1.07-1.58l-0.29,1.6c-0.22,1.26-0.44,2.52-0.69,3.78C150.63,196.41,147.5,199,143.57,199z M119.47,176.16
			c0.32,0,0.68,0.08,1.05,0.27c1.08,0.56,1.49,1.56,1.22,2.97l-1.27,7.02c-0.55,3.03,1.05,5.35,4.07,5.91
			c5.97,1.12,11.94,2.24,17.92,3.32c2.94,0.53,5.22-1.05,5.8-4.01c0.24-1.24,0.46-2.48,0.68-3.72l0.47-2.62
			c0.08-0.89,0.23-2.69,2.12-3.04c1.8-0.37,2.62,1.22,2.88,1.73c0.7,1.05,1.24,1.85,1.78,2.66c0.72,1.08,1.45,2.16,2.23,3.2
			c1.59,2.13,4.23,2.55,6.4,1.08c5.15-3.55,10.28-7.14,15.35-10.81c2.29-1.65,2.75-4.29,1.17-6.71c-0.77-1.19-1.57-2.35-2.36-3.51
			l-1.67-2.46c-0.91-1.13-1.01-2.14-0.37-3.11c0.62-0.95,1.58-1.29,2.85-1l2.2,0.42c1.59,0.3,3.19,0.61,4.79,0.82
			c3.12,0.39,5.06-1.04,5.66-4.03c0.13-0.64,0.24-1.29,0.36-1.93c0.13-0.74,0.25-1.46,0.4-2.19c0.35-1.7,0.63-3.41,0.92-5.12
			c0.47-2.8,0.95-5.69,1.7-8.53v-2.55c-1-2.61-2.94-3.97-6.08-4.3c-1.09-0.11-2.17-0.33-3.25-0.55l-1.37-0.27
			c-0.69-0.06-2.22-0.2-2.68-1.87c-0.35-1.25,0.13-2.27,1.45-3.02c0.95-0.67,1.73-1.2,2.52-1.75c1.13-0.79,2.27-1.57,3.37-2.4
			c2.15-1.65,2.66-4.3,1.24-6.45c-3.47-5.28-7.01-10.52-10.61-15.72c-1.58-2.3-4.26-2.75-6.62-1.16c-1.12,0.75-2.22,1.53-3.32,2.31
			l-2.43,1.71c-1.12,0.95-2.12,1.07-3.11,0.46c-1.45-0.89-1.14-2.4-1.04-2.89c0.19-1.14,0.37-2.15,0.56-3.16
			c0.22-1.23,0.44-2.46,0.63-3.69c0.53-3.37-0.95-5.48-4.29-6.11c-5.78-1.08-11.58-2.13-17.36-3.18c-3.21-0.56-5.41,0.9-6,4.1
			l-1.2,6.72c-0.1,0.65-0.33,2.15-1.95,2.51c-1.12,0.23-2.03-0.2-2.7-1.37l-1.65-2.43c-0.79-1.17-1.57-2.35-2.4-3.49
			c-1.62-2.26-3.88-2.83-6.32-1.59c-0.68,0.34-1.97,0.97-3.4-0.1c-3.02-2.28-6.56-4.37-10.8-6.4l-1.31-0.63l0.49-1.38
			c0.08-0.26,0.15-0.55,0.37-0.84c0.13-0.2,0.32-0.41,0.5-0.62c10.35-12.06,14.06-25.76,11.1-40.78
			c-3.49-17.74-13.94-29.77-31.06-35.74c-1.85-0.65-3.77-0.98-5.81-1.34C80.17,4.63,79.08,4.44,78,4.21l-7.65,0.1
			c-0.41,0.12-0.83,0.23-1.25,0.28c-3.7,0.42-7.32,1.35-10.75,2.77C35.04,16.99,23.7,43.37,32.54,67.4
			c2.22,6.01,5.44,11.28,9.85,16.1l1.28,1.4l-1.58,1.05c-0.55,0.37-0.78,0.53-1.02,0.65C17.3,98.97,4.94,119.14,4.31,146.54
			c-0.15,6.48-0.11,13.08-0.07,19.47c0.01,2.94,0.03,5.88,0.03,8.82c0,3.34,0.03,3.37,3.33,3.37l93.56,0.01
			c1.19-0.01,2.84-0.02,4.1,1.69c1.79,2.4,4.21,2.75,6.81,0.95c1.14-0.79,2.27-1.58,3.4-2.38l2.19-1.55
			C118,176.67,118.64,176.16,119.47,176.16z M119.41,179.42c0.22,0.03,0.39-0.05,0.49-0.11l-1.31-1.05L119.41,179.42z
			 M179.09,164.85l-0.22,1.61c0.12,0.02,0.29-0.02,0.44-0.09L179.09,164.85z M166.89,104.76l-1.5,0.29l1.62,0.13
			C167.01,105.08,166.97,104.91,166.89,104.76z M142.65,192.55c-0.37,0-0.73-0.06-1.05-0.12c-5.07-1.03-10.16-2.03-15.25-2.97
			c-0.8-0.15-1.79-0.44-2.38-1.33c-0.6-0.9-0.48-1.91-0.32-2.6c0.36-1.65,0.65-3.32,0.93-4.99c0.2-1.13,0.39-2.26,0.61-3.38
			c0.2-1.03-0.05-1.56-0.98-2.1c-1.24-0.73-2.44-1.51-3.61-2.33c-0.51-0.36-0.77-0.5-1.14-0.41l-0.2-0.01
			c-0.36,0.06-0.7,0.25-1.17,0.59l-1.87,1.29c-1.71,1.18-3.42,2.36-5.1,3.59c-0.57,0.41-1.39,0.87-2.31,0.7
			c-0.98-0.18-1.56-0.92-1.91-1.46c-2.97-4.55-5.99-9.07-9.05-13.57c-0.37-0.55-0.8-1.31-0.65-2.22c0.15-0.99,0.87-1.58,1.41-1.95
			c1.33-0.91,2.63-1.85,3.93-2.8c1-0.73,2-1.46,3.01-2.17c0.91-0.63,1.15-1.29,0.87-2.4c-0.32-1.28-0.57-2.58-0.75-3.89
			c-0.18-1.19-0.66-1.69-1.85-1.92c-1.26-0.23-2.52-0.49-3.78-0.75c-1.46-0.3-2.92-0.6-4.39-0.87c-0.37-0.06-1.49-0.27-2.14-1.22
			c-0.59-0.86-0.49-1.83-0.36-2.49c1.03-5.33,2.05-10.66,2.97-16.01c0.16-0.95,0.54-1.62,1.15-2.05c0.91-0.62,1.95-0.42,2.46-0.33
			l7.46,1.41c2.27,0.43,2.36,0.39,3.49-1.64c0.19-0.36,0.36-0.7,0.67-1c2.03-2.06,1.95-3.82-0.29-6.49
			c-0.9-1.08-1.64-2.25-2.35-3.38c-0.41-0.65-0.82-1.3-1.26-1.92c-0.19-0.28-0.76-1.1-0.58-2.13c0.17-0.93,0.83-1.48,1.32-1.81
			c4.52-3.13,9.04-6.27,13.52-9.46c0.7-0.5,1.39-0.7,2.08-0.57c1.01,0.18,1.53,0.96,1.84,1.43l2.04,3c0.93,1.36,1.85,2.72,2.76,4.09
			c0.9,1.37,1.59,1.43,2.63,1.08c1.22-0.42,2.46-0.61,3.84-0.79c0.95-0.13,1.55-0.48,1.81-1.91l0.51-2.73
			c0.37-1.94,0.74-3.88,1.05-5.83c0.06-0.36,0.24-1.46,1.16-2.1c0.82-0.58,1.78-0.45,2.43-0.33c5.13,1.04,10.28,2.05,15.44,3
			c0.51,0.1,1.69,0.32,2.33,1.32c0.58,0.91,0.42,1.94,0.26,2.64c-0.44,1.84-0.75,3.73-1.07,5.62l-0.47,2.69
			c-0.19,1.03,0.08,1.58,1.01,2.12c1.19,0.69,2.38,1.42,3.49,2.23c0.91,0.68,1.57,0.67,2.48,0.01l2.73-1.91
			c1.48-1.02,2.95-2.04,4.4-3.1c0.53-0.38,1.32-0.88,2.3-0.68c0.97,0.17,1.54,0.88,1.93,1.48c2.94,4.49,5.91,8.98,8.95,13.41
			c0.22,0.32,0.86,1.26,0.64,2.38c-0.2,0.99-0.93,1.58-1.54,1.98c-1.31,0.86-2.57,1.76-3.85,2.66l-3.3,2.33
			c-0.84,0.56-1.05,1.18-0.7,2.05c0.36,0.93,0.46,1.89,0.56,2.82c0.22,2.12,0.39,2.88,2.05,3.18l2.75,0.51
			c1.86,0.36,3.73,0.72,5.61,1c0.39,0.06,1.6,0.23,2.3,1.23c0.63,0.88,0.53,1.9,0.39,2.59c-1.03,5.41-2.05,10.8-3,16.22
			c-0.06,0.34-0.24,1.37-1.12,1.97c-0.87,0.6-1.85,0.41-2.35,0.3c-1.47-0.3-2.95-0.56-4.42-0.83l-3.23-0.6
			c-2.2-0.41-2.31-0.39-3.36,1.52c-0.4,0.7-0.83,1.38-1.27,2.05c-1.41,2.12-1.41,2.12,0.04,4.3l1.27,1.92
			c0.96,1.47,1.91,2.94,2.92,4.36c0.42,0.6,0.89,1.42,0.72,2.41c-0.18,1-0.91,1.6-1.45,1.97c-4.44,3.03-8.84,6.12-13.22,9.24
			c-0.49,0.36-1.27,0.82-2.21,0.63c-1.05-0.2-1.62-1.08-1.84-1.41c-0.88-1.36-1.79-2.69-2.7-4.02c-0.74-1.07-1.46-2.14-2.18-3.22
			c-0.72-1.08-1.37-1.32-2.55-0.93c-1.1,0.35-2.29,0.59-3.65,0.74c-1.07,0.12-1.74,0.5-2.02,2.1c-0.2,1.15-0.42,2.29-0.64,3.43
			c-0.31,1.58-0.62,3.16-0.86,4.75c-0.05,0.39-0.23,1.58-1.2,2.27C143.73,192.43,143.18,192.55,142.65,192.55z M126.82,186.24
			c0.04,0.01,0.08,0.02,0.13,0.03c5.1,0.94,10.19,1.95,15.27,2.97c0.29-1.78,0.58-3.3,0.88-4.81c0.22-1.12,0.44-2.23,0.63-3.35
			c0.6-3.57,2.97-4.56,4.85-4.77c1.15-0.13,2.14-0.33,3.03-0.61c2.57-0.82,4.72-0.05,6.24,2.24c0.7,1.07,1.43,2.12,2.15,3.17
			c0.85,1.24,1.7,2.48,2.52,3.74c4.34-3.07,8.54-6.03,12.78-8.92c-1.1-1.61-2.01-3-2.92-4.39l-1.25-1.9
			c-2.28-3.42-2.29-4.53-0.04-7.9c0.41-0.6,0.79-1.2,1.14-1.83c1.72-3.09,3.27-3.82,6.8-3.11l3.2,0.58
			c1.39,0.25,2.78,0.51,4.17,0.78c0.96-5.39,1.95-10.61,2.94-15.84c-2.1-0.34-3.91-0.68-5.72-1.03l-2.72-0.51
			c-4.14-0.75-4.48-3.92-4.7-6.03c-0.08-0.75-0.16-1.46-0.36-1.99c-0.89-2.29-0.17-4.5,1.92-5.91l3.24-2.29
			c1.27-0.9,2.54-1.8,3.84-2.66c-3.04-4.49-5.9-8.79-8.72-13.12c-1.5,1.07-2.86,2.01-4.22,2.95l-2.71,1.89
			c-2.06,1.46-4.23,1.45-6.26-0.04c-1.03-0.75-2.12-1.41-3.21-2.05c-2.12-1.23-3.01-3.14-2.57-5.52l0.46-2.64
			c0.33-1.96,0.66-3.91,1.12-5.83v-0.01c-0.01-0.01-0.03-0.01-0.04-0.01c-5.09-0.94-10.18-1.94-15.25-2.97
			c-0.34,2-0.68,3.82-1.03,5.64l-0.51,2.71c-0.61,3.33-2.83,4.31-4.58,4.55c-1.24,0.16-2.28,0.32-3.21,0.64
			c-2.59,0.91-4.76,0.09-6.4-2.36c-0.89-1.36-1.81-2.7-2.73-4.04l-1.84-2.71c-4.29,3.04-8.53,5.99-12.77,8.93
			c0.39,0.59,0.74,1.14,1.08,1.69c0.66,1.05,1.31,2.09,2.09,3.02c3.3,3.92,3.33,7.58,0.11,10.85c-1.96,3.57-3.37,4.23-7.06,3.56
			l-7.32-1.39c-0.93,5.36-1.92,10.54-2.92,15.7c1.59,0.31,2.97,0.6,4.36,0.88c1.24,0.25,2.49,0.51,3.73,0.74
			c2.55,0.49,4.09,2.09,4.46,4.65c0.17,1.2,0.41,2.4,0.69,3.56c0.61,2.42-0.14,4.44-2.16,5.85c-0.99,0.7-1.98,1.41-2.96,2.13
			c-1.25,0.91-2.5,1.82-3.77,2.69c3.06,4.52,5.94,8.84,8.77,13.18c1.74-1.26,3.34-2.36,4.93-3.46l1.86-1.29
			c0.7-0.49,1.74-1.32,3.14-1.17c1.43-0.06,2.43,0.54,3.08,0.99c1.1,0.77,2.23,1.51,3.4,2.19c2.11,1.24,2.99,3.15,2.52,5.52
			c-0.21,1.1-0.4,2.21-0.59,3.32c-0.3,1.72-0.59,3.43-0.96,5.13C126.83,186.23,126.82,186.23,126.82,186.24z M97.54,175.16
			c-0.22,0-0.41-0.02-0.58-0.03l-19.62-0.01c-11.25,0-22.5,0.01-33.76,0.03c-0.85,0-1.91,0-2.69-0.82
			c-0.73-0.77-0.79-1.81-0.75-2.62c0.16-3.8,0.12-7.7,0.08-11.47l-0.03-2.9c-0.01-0.94-0.4-1.95-1.5-1.95h-0.01
			c-1.3,0-1.5,1.22-1.5,1.95c-0.03,5-0.03,9.99,0.08,14.97c0.01,0.43,0.03,1.43-0.68,2.14c-0.69,0.7-1.57,0.7-2.05,0.69
			c-8.1-0.03-16.21-0.03-24.32,0.01c-0.29,0.07-1.4,0.01-2.18-0.77c-0.77-0.78-0.75-1.86-0.74-2.21c0.09-3.91,0-7.82-0.09-11.73
			c-0.16-7.49-0.33-15.23,0.75-22.84c3.23-22.8,15.39-39.3,36.12-49.03c1.63-0.77,3.02-0.59,4.52,0.49
			c7.74,5.67,16.39,8.55,25.71,8.55c0.01,0,0.02,0,0.03,0c9.45,0,18.16-2.91,25.88-8.65c1.46-1.08,2.8-1.23,4.36-0.52
			c3.94,1.8,7.25,3.66,10.4,5.86l1.9,1.32l-5.01,3.52c-2.02,1.41-3.97,2.79-5.91,4.17c-2.87,2.04-3.32,4.56-1.34,7.5l1.44,2.11
			c0.7,1.03,1.41,2.06,2.09,3.11c0.48,0.55,1.54,1.76,0.62,3.33c-0.44,0.8-1.38,1.64-3.17,1.05l-6.37-1.19
			c-3.26-0.61-5.41,0.94-6,4.15c-1.13,6.03-2.23,12.06-3.3,18.1c-0.28,1.58-0.05,2.95,0.66,3.96c0.74,1.05,2.02,1.77,3.7,2.06
			l6.17,1.13c0.63,0.11,2.07,0.35,2.46,1.98c0.4,1.66-0.85,2.5-1.26,2.78l-2.23,1.61c-1.14,0.82-2.28,1.64-3.4,2.49
			c-2.62,1.96-3.05,4.42-1.24,7.12l5.31,7.89l-0.05,1.65l-0.67,0.48C98.74,175.07,98.08,175.16,97.54,175.16z M43.4,172.34
			L43.4,172.34L43.4,172.34z M43.38,171.9c0.08,0,0.15,0,0.2,0c11.25-0.02,22.51-0.03,33.76-0.03l18.42-0.01l-3.68-5.48
			c-2.76-4.12-1.99-8.54,2-11.52c1.13-0.86,2.29-1.69,3.45-2.52l1.08-0.77l-4.88-0.89c-2.55-0.44-4.55-1.62-5.79-3.39
			c-1.22-1.74-1.64-3.95-1.2-6.39c1.07-6.04,2.17-12.09,3.3-18.13c0.94-4.99,4.79-7.58,9.77-6.75l5.08,0.94
			c-0.49-0.74-1-1.48-1.5-2.21l-1.45-2.14c-2.97-4.41-2.17-8.88,2.16-11.95c1.95-1.39,3.91-2.76,5.93-4.18l1.18-0.83
			c-2.42-1.54-5-2.92-7.95-4.27c-0.43-0.21-0.51-0.25-1.08,0.17c-8.29,6.17-17.65,9.29-27.81,9.29c-0.01,0-0.02,0-0.03,0
			c-10.03,0-19.32-3.09-27.63-9.18c-0.63-0.45-0.74-0.4-1.22-0.16c-19.68,9.24-31.22,24.9-34.3,46.55
			c-1.04,7.35-0.87,14.96-0.71,22.32c0.09,3.85,0.17,7.7,0.1,11.53c7.92-0.01,15.69-0.02,23.45,0.01c-0.1-5-0.1-9.78-0.06-14.57
			c0.02-3.04,1.97-5.17,4.74-5.17c0.01,0,0.01,0,0.02,0c2.73,0,4.72,2.17,4.74,5.17l0.03,2.89c0.04,3.81,0.08,7.75-0.08,11.63
			C43.39,171.85,43.38,171.88,43.38,171.9z M99.78,150.94l1.26,0.87l-1.05-1.24C99.91,150.65,99.83,150.79,99.78,150.94z
			 M74.23,94.4c-1.61,0-3.23-0.1-4.84-0.29c-10.93-1.33-20.76-7.06-27.66-16.13c-8.41-11.05-11.14-25.21-7.48-38.84
			c3.54-13.19,12.55-23.67,24.71-28.76c4.93-2.05,10.13-3.11,15.47-3.13h0.09c17.81,0.88,30.53,9.56,37.8,25.8
			c8.04,17.97,2.88,39.85-12.27,52.05C92.5,91.18,83.48,94.4,74.23,94.4z M74.4,10.5c-4.89,0.03-9.67,0.99-14.18,2.87
			c-11.24,4.7-19.56,14.4-22.84,26.61c-3.39,12.65-0.87,25.79,6.94,36.03c6.37,8.37,15.41,13.65,25.47,14.87
			c10,1.24,20.07-1.73,28.23-8.3c14.02-11.29,18.79-31.56,11.34-48.19C102.63,19.36,90.87,11.32,74.4,10.5z"/>
	</g>
	<g>
		<path class="st0" d="M142.92,164.07c-12.09,0.08-22.16-10.03-22.23-22.31c-0.07-12.23,9.93-22.43,22.05-22.5
			c12.13-0.07,22.06,9.91,22.22,22.32C165.1,153.73,155.05,163.99,142.92,164.07z M127.02,141.61c-0.01,8.86,7.13,16.21,15.76,16.21
			c8.68,0,15.87-7.3,15.86-16.11c-0.01-8.9-7.11-16.19-15.76-16.2C134.21,125.49,127.03,132.78,127.02,141.61z"/>
		<path class="st0" d="M142.77,165.69c-6.16,0-12.01-2.43-16.49-6.86c-4.62-4.56-7.18-10.62-7.22-17.07
			c-0.08-13.23,10.54-24.06,23.67-24.14c0.04,0,0.09,0,0.13,0c12.93,0,23.55,10.7,23.71,23.92c0.08,6.33-2.37,12.35-6.89,16.96
			c-4.51,4.59-10.46,7.14-16.75,7.18l0,0C142.87,165.69,142.82,165.69,142.77,165.69z M142.86,120.88c-0.04,0-0.08,0-0.12,0
			c-11.14,0.06-20.5,9.62-20.43,20.88c0.03,5.57,2.25,10.82,6.26,14.77c3.87,3.82,8.91,5.92,14.21,5.92c0.04,0,0.09,0,0.13,0l0,0
			c5.43-0.03,10.56-2.24,14.46-6.21c3.91-3.99,6.03-9.19,5.96-14.64C163.19,130.15,154.01,120.88,142.86,120.88z M142.77,159.44
			c-4.61,0-8.97-1.87-12.27-5.27c-3.3-3.39-5.11-7.85-5.1-12.56l0,0c0.01-4.7,1.84-9.14,5.15-12.5c3.32-3.37,7.69-5.22,12.31-5.22
			c0.01,0,0.02,0,0.03,0c9.57,0.01,17.37,8,17.38,17.83c0.01,4.68-1.82,9.12-5.14,12.5C151.79,157.58,147.41,159.44,142.77,159.44z
			 M128.64,141.61c0,3.86,1.48,7.52,4.18,10.3c5.4,5.56,14.59,5.51,19.98,0.03c2.72-2.76,4.21-6.39,4.21-10.22
			c-0.01-8.03-6.35-14.57-14.14-14.58c-0.01,0-0.01,0-0.02,0c-3.75,0-7.3,1.51-10,4.25C130.14,134.14,128.65,137.77,128.64,141.61z"
			/>
	</g>
</g>
</svg>
