<?xml version="1.0" encoding="utf-8"?>
<!-- Generator: Adobe Illustrator 26.0.2, SVG Export Plug-In . SVG Version: 6.00 Build 0)  -->
<svg version="1.1" id="Layer_1" xmlns="http://www.w3.org/2000/svg" xmlns:xlink="http://www.w3.org/1999/xlink" x="0px" y="0px"
	 viewBox="0 0 200 200" style="enable-background:new 0 0 200 200;" xml:space="preserve">
<style type="text/css">
	.st0{fill:#1A73E8;}
	.st1{fill:#FFFFFF;}
</style>
<g>
	<g>
		<path class="st0" d="M198.33,195.24c-1.03,2.36-2.86,3.11-5.38,3.11c-61.97-0.04-123.94-0.03-185.9-0.04
			c-0.89,0-1.78,0.07-2.65-0.27c-1.77-0.69-2.87-2.38-2.69-4.21c0.19-1.92,1.67-3.41,3.62-3.63c0.38-0.04,0.77-0.04,1.15-0.05
			c3.36-0.05,3.36-0.05,3.36-3.51c0-13.38,0-26.76,0-40.14c0-4.24,1.28-5.52,5.49-5.52c7.3-0.01,14.6-0.01,21.89,0
			c4.18,0,5.46,1.3,5.46,5.55c0,13.83,0.03,27.66-0.03,41.48c-0.01,1.63,0.32,2.23,2.09,2.17c4.03-0.14,8.07-0.14,12.1,0
			c1.81,0.06,2.21-0.52,2.21-2.24c-0.05-27.33-0.04-54.67-0.03-82c0-0.77-0.03-1.54,0.08-2.3c0.32-2.18,1.81-3.62,4.03-3.64
			c8.19-0.05,16.39-0.05,24.58,0c2.3,0.01,3.8,1.5,4.09,3.79c0.09,0.76,0.06,1.53,0.06,2.3c0,27.08,0,54.16,0.01,81.24
			c0,3.25-0.38,2.79,2.9,2.81c3.78,0.02,7.56-0.09,11.33,0.05c1.7,0.06,2.14-0.44,2.13-2.13c-0.06-19.01-0.04-38.03-0.04-57.04
			c0-3.26-0.03-6.53,0.01-9.79c0.03-3.32,1.52-4.81,4.83-4.82c7.49-0.02,14.98-0.01,22.47-0.01c4.22,0,5.53,1.29,5.53,5.48
			c0,21.89,0,43.79,0.01,65.68c0,2.89-0.3,2.57,2.55,2.58c3.9,0.01,7.81-0.1,11.71,0.05c1.77,0.07,2.09-0.55,2.09-2.17
			c-0.04-38.28-0.03-76.56-0.03-114.85c0-0.83-0.02-1.67,0.12-2.49c0.35-2.04,1.74-3.39,3.8-3.4c8.32-0.06,16.64-0.06,24.96,0
			c2.08,0.01,3.46,1.33,3.82,3.37c0.14,0.81,0.13,1.66,0.13,2.49c0.01,38.15,0,76.31,0.01,114.46c0,2.9-0.25,2.64,2.59,2.51
			c2.48-0.12,4.34,0.64,5.57,2.82C198.33,193.7,198.33,194.47,198.33,195.24z M181.91,132.77c0-18.49-0.02-36.98,0.03-55.47
			c0-1.45-0.3-1.98-1.87-1.94c-4.22,0.12-8.45,0.09-12.67,0.01c-1.38-0.03-1.85,0.27-1.85,1.77c0.04,37.04,0.04,74.09,0,111.13
			c0,1.51,0.52,1.8,1.88,1.78c4.09-0.08,8.19-0.11,12.28,0.01c1.72,0.05,2.25-0.4,2.24-2.2
			C181.88,169.49,181.91,151.13,181.91,132.77z M67.25,148.95c0,13.06,0.02,26.11-0.03,39.17c-0.01,1.5,0.39,1.97,1.92,1.94
			c4.22-0.1,8.45-0.07,12.67-0.01c1.24,0.02,1.8-0.21,1.8-1.65c-0.04-26.17-0.04-52.35,0-78.52c0-1.31-0.35-1.78-1.71-1.75
			c-4.22,0.08-8.45,0.11-12.67-0.01c-1.65-0.05-2.01,0.51-2,2.06C67.27,123.09,67.25,136.02,67.25,148.95z M116.42,157.22
			c0,10.3,0.03,20.59-0.03,30.89c-0.01,1.49,0.37,1.98,1.91,1.94c4.28-0.1,8.57-0.08,12.85-0.01c1.26,0.02,1.62-0.39,1.62-1.63
			c-0.03-20.79-0.03-41.57,0-62.36c0-1.17-0.33-1.53-1.51-1.51c-4.35,0.06-8.7,0.08-13.05-0.01c-1.42-0.03-1.83,0.34-1.82,1.79
			C116.45,136.62,116.42,146.92,116.42,157.22z M34.41,169.49c0-6.2-0.03-12.4,0.02-18.6c0.01-1.25-0.2-1.81-1.64-1.78
			c-4.41,0.09-8.82,0.07-13.23,0.01c-1.19-0.02-1.5,0.36-1.5,1.52c0.04,12.59,0.04,25.19,0,37.78c0,1.27,0.4,1.63,1.64,1.61
			c4.35-0.06,8.7-0.08,13.04,0.01c1.38,0.03,1.71-0.44,1.7-1.75C34.38,182.02,34.41,175.76,34.41,169.49z"/>
		<path class="st0" d="M192.95,199c-61.97-0.04-123.94-0.04-185.91-0.04h-0.4c-0.77,0.06-1.63,0.04-2.5-0.31
			c-2.06-0.81-3.3-2.77-3.1-4.88c0.22-2.24,1.94-3.97,4.2-4.23c0.31-0.03,0.61-0.04,0.92-0.05h0.29c2.73-0.04,2.73-0.04,2.73-2.86
			v-40.13c0-4.62,1.55-6.17,6.14-6.17c7.3-0.03,14.6-0.03,21.9,0c4.57,0,6.11,1.56,6.11,6.2l0.01,5.93
			c0.01,11.86,0.01,23.7-0.04,35.56c0,0.74,0.07,1.14,0.24,1.31c0.16,0.17,0.53,0.19,1.17,0.2c4.04-0.15,8.12-0.15,12.15,0
			c0.67-0.01,1.08-0.05,1.26-0.23c0.19-0.18,0.27-0.6,0.27-1.36c-0.04-21.47-0.04-42.95-0.04-64.42l0.01-17.58l-0.01-0.37
			c0-0.65-0.01-1.33,0.1-2.01c0.36-2.57,2.16-4.19,4.67-4.2c8.17-0.05,16.44-0.05,24.59,0c2.59,0.01,4.41,1.69,4.73,4.37
			c0.08,0.64,0.08,1.29,0.07,1.91l-0.01,0.46v20.31c0,20.31,0,40.62,0.01,60.93l-0.01,0.92c-0.01,0.55-0.01,1.11,0.05,1.25
			c0.08-0.01,0.59-0.01,1.11-0.01c0.31-0.01,0.69,0,1.08-0.01c1.36,0,2.7,0.01,4.05-0.01c2.4,0,4.88-0.01,7.31,0.06
			c0.67,0.01,1.04-0.05,1.21-0.2c0.17-0.15,0.25-0.58,0.25-1.27c-0.06-15.44-0.05-30.9-0.05-46.34l0.01-10.69l-0.01-2.68
			c0-2.37-0.01-4.75,0.02-7.12c0.03-3.68,1.82-5.47,5.49-5.48c4.99-0.03,9.99-0.03,14.98,0h7.49c4.57,0,6.18,1.6,6.18,6.13
			l0.01,66.45c-0.01,0.51-0.01,1.05,0.05,1.18c0.06,0,0.58-0.01,1.08-0.01h0.77c1.31,0.01,2.61-0.01,3.9-0.01
			c2.57-0.04,5.22-0.03,7.84,0.05c0.64-0.01,1.01-0.04,1.17-0.2c0.17-0.15,0.24-0.56,0.24-1.31c-0.04-38.29-0.03-76.56-0.03-114.85
			V72.9c-0.01-0.76-0.01-1.54,0.12-2.32c0.42-2.42,2.12-3.93,4.44-3.94c7.98-0.08,16.37-0.06,24.98-0.01
			c2.32,0.01,4.04,1.51,4.47,3.92c0.14,0.81,0.14,1.61,0.13,2.41v0.19c0,38.15,0,76.31,0.01,114.46v0.65
			c-0.01,0.56-0.01,1.17,0.06,1.29c0.08,0,0.63-0.03,1.18-0.06l0.67-0.03c0.17-0.01,0.33-0.01,0.49-0.01c2.63,0,4.49,1.04,5.69,3.16
			l0.08,0.32l-0.05,2.57C197.55,198.64,194.86,199,192.95,199z M7.04,197.66c61.97,0,123.93,0,185.91,0.04
			c2.46,0,3.88-0.78,4.73-2.6v-1.98c-0.97-1.61-2.36-2.36-4.44-2.36c-0.14,0-0.29,0.01-0.44,0.01l-0.66,0.04
			c-1.13,0.04-1.74,0.09-2.18-0.33c-0.45-0.44-0.44-1.04-0.44-2.23l0.01-0.64c-0.01-38.15-0.01-76.31-0.01-114.46v-0.19
			c0-0.77,0-1.49-0.12-2.18c-0.32-1.79-1.48-2.83-3.19-2.84c-8.59-0.06-16.98-0.04-24.95,0.01c-1.7,0.01-2.84,1.05-3.16,2.86
			c-0.11,0.67-0.11,1.4-0.11,2.1v0.27c-0.01,38.29-0.01,76.56,0.03,114.85c0.01,0.97-0.1,1.73-0.63,2.25
			c-0.57,0.55-1.43,0.58-2.13,0.56c-2.57-0.09-5.22-0.08-7.77-0.05c-1.3,0.03-2.63,0.04-3.91,0.01h-0.76c-1.03,0-1.62,0.01-2.05-0.4
			c-0.42-0.42-0.42-1.01-0.4-2.09l0.01-0.76l-0.01-65.68c0-3.83-1.01-4.83-4.87-4.83h-7.49c-5,0-9.99,0-14.98,0
			c-2.94,0.01-4.15,1.23-4.18,4.17c-0.02,2.38-0.02,4.75-0.01,7.12v13.37c0,15.44-0.01,30.89,0.04,46.34c0,0.82-0.08,1.66-0.65,2.22
			c-0.57,0.55-1.43,0.56-2.16,0.56c-2.39-0.08-4.85-0.08-7.25-0.05c-1.35,0-2.72,0.01-4.06,0c-0.44-0.01-0.76,0.01-1.05,0.01
			c-1.08-0.01-1.66,0.03-2.09-0.4c-0.43-0.44-0.42-1.01-0.41-2.18l0.01-0.9c-0.01-20.3-0.01-40.62-0.01-60.93l0.01-20.77
			c0.01-0.61,0.01-1.19-0.06-1.75c-0.24-2.02-1.5-3.2-3.44-3.21c-8.14-0.05-16.42-0.05-24.57,0c-1.84,0.01-3.11,1.17-3.39,3.07
			c-0.08,0.59-0.08,1.19-0.08,1.83v17.95c0,21.47-0.01,42.95,0.03,64.42c0.01,0.86-0.07,1.73-0.66,2.31
			c-0.6,0.56-1.49,0.58-2.23,0.59c-3.98-0.12-8.04-0.13-12.04,0c-0.72-0.03-1.56-0.03-2.13-0.56c-0.53-0.53-0.64-1.28-0.63-2.25
			c0.04-11.86,0.04-23.7,0.03-35.56v-5.93c0-3.88-0.99-4.89-4.8-4.89c-7.3,0-14.6,0-21.9,0c-3.84,0-4.83,1-4.83,4.87v40.13
			c0,3.79-0.29,4.11-4,4.16l-0.28,0.01c-0.28,0-0.54,0.01-0.82,0.04c-1.63,0.18-2.87,1.43-3.03,3.05c-0.15,1.52,0.76,2.93,2.27,3.52
			c0.63,0.26,1.33,0.26,2,0.23H7.04z M179.96,190.71c-0.09,0-0.19-0.01-0.28-0.01c-3.58-0.1-7.36-0.09-12.25-0.01
			c-0.63,0.05-1.47-0.03-1.97-0.54c-0.51-0.5-0.58-1.27-0.57-1.88c0.04-37.81,0.03-75.21-0.01-111.14c0-0.61,0.06-1.38,0.57-1.9
			c0.51-0.49,1.23-0.5,1.95-0.53c4.85,0.1,8.87,0.1,12.64,0c0.65-0.01,1.42,0.01,1.95,0.54c0.53,0.51,0.6,1.29,0.59,2.05
			c-0.03,14.23-0.03,28.45-0.03,42.67v25.92c-0.01,14-0.01,27.98,0.04,41.98c0.01,0.79-0.07,1.68-0.66,2.24
			C181.42,190.61,180.67,190.71,179.96,190.71z M173.8,189.32c2.11,0,4.05,0.03,5.92,0.08c0.72,0,1.12-0.05,1.3-0.23
			c0.18-0.18,0.27-0.6,0.27-1.31c-0.06-13.98-0.05-27.98-0.04-41.98l0.01-13.11l-0.01-12.81c0-14.21-0.01-28.44,0.03-42.67
			c0-0.23,0-0.92-0.2-1.11c-0.1-0.08-0.26-0.18-1-0.17c-3.79,0.1-7.84,0.1-12.7,0c-0.19-0.01-0.83-0.01-1,0.17
			c-0.08,0.08-0.19,0.31-0.19,0.95c0.04,35.93,0.05,73.32,0.01,111.14c0,0.64,0.1,0.87,0.19,0.95c0.18,0.18,0.81,0.17,1.02,0.17
			C169.76,189.33,171.86,189.32,173.8,189.32z M68.96,190.7c-0.61,0-1.31-0.08-1.8-0.55c-0.53-0.53-0.6-1.33-0.6-2.04
			c0.04-9.99,0.04-19.96,0.03-29.95v-18.34c0.01-9.89,0.01-19.77-0.03-29.66c-0.01-0.79,0.07-1.61,0.62-2.15s1.34-0.58,2.05-0.56
			c3.69,0.1,7.59,0.09,12.64,0.01c0.55,0.03,1.31,0.04,1.82,0.53c0.5,0.5,0.56,1.23,0.56,1.87c-0.03,29.35-0.03,55.04,0.01,78.52
			c0,0.53-0.06,1.28-0.56,1.77c-0.46,0.47-1.13,0.6-1.91,0.54c-3.48-0.05-8.04-0.09-12.65,0.01C69.09,190.7,69.02,190.7,68.96,190.7
			z M69.02,108.76c-0.48,0-0.79,0.06-0.92,0.19c-0.16,0.17-0.23,0.54-0.23,1.22c0.04,9.87,0.04,19.77,0.04,29.66l-0.01,9.12
			l0.01,9.22c0.01,9.99,0.01,19.96-0.04,29.95c0,0.59,0.07,0.96,0.21,1.1c0.13,0.13,0.58,0.2,1.03,0.18
			c4.64-0.12,9.21-0.06,12.7-0.01c0.03,0,0.06,0,0.08,0c0.33,0,0.74-0.03,0.88-0.17c0.06-0.05,0.17-0.24,0.17-0.83
			c-0.04-23.49-0.04-49.17-0.01-78.52c0-0.5-0.06-0.82-0.18-0.92c-0.08-0.09-0.24-0.23-0.87-0.17c-5.06,0.12-8.98,0.09-12.7-0.01
			C69.14,108.76,69.07,108.76,69.02,108.76z M118.12,190.7c-0.61,0-1.31-0.08-1.8-0.55c-0.53-0.53-0.6-1.33-0.6-2.05
			c0.04-7.72,0.04-15.44,0.03-23.17v-15.44c0.01-7.72,0.01-15.44-0.03-23.17c-0.01-0.67,0.05-1.42,0.56-1.92
			c0.51-0.5,1.32-0.5,1.93-0.53c3.75,0.08,7.77,0.08,13.01,0c0.56,0.03,1.22,0.05,1.67,0.5c0.45,0.45,0.51,1.13,0.51,1.66
			c-0.03,20.78-0.03,41.57,0,62.36c0.01,0.56-0.05,1.29-0.54,1.77c-0.49,0.47-1.22,0.46-1.75,0.51c-3.52-0.04-8.14-0.09-12.82,0.01
			C118.25,190.7,118.18,190.7,118.12,190.7z M118.03,125.19c-0.54,0-0.74,0.08-0.82,0.15c-0.08,0.08-0.18,0.32-0.17,0.99
			c0.05,7.72,0.04,15.44,0.04,23.17l-0.01,7.72l0.01,7.72c0.01,7.72,0.01,15.44-0.04,23.17c0,0.6,0.07,0.97,0.21,1.11
			c0.13,0.13,0.53,0.18,1.02,0.18c4.69-0.12,9.34-0.06,12.88-0.01c0.65-0.04,0.74-0.09,0.8-0.14c0.06-0.05,0.15-0.24,0.15-0.83
			c-0.03-20.8-0.03-41.58,0-62.36c0-0.55-0.09-0.7-0.13-0.74c-0.03-0.03-0.12-0.15-0.72-0.12c-5.28,0.06-9.31,0.06-13.06,0
			C118.14,125.19,118.08,125.19,118.03,125.19z M32.86,190.7c-0.04,0-0.08,0-0.13,0c-3.9-0.08-8.15-0.06-13.02-0.01
			c-0.58-0.05-1.29-0.04-1.77-0.53c-0.48-0.47-0.54-1.18-0.53-1.74c0.04-12.54,0.04-25.24,0-37.78c0-0.58,0.06-1.24,0.51-1.69
			c0.45-0.45,1.15-0.41,1.65-0.49c3.63,0.04,8.41,0.1,13.22-0.01c0.44-0.05,1.27,0.03,1.77,0.53c0.51,0.5,0.54,1.25,0.53,1.92
			c-0.03,4.47-0.03,8.95-0.02,13.43v10.28c-0.01,4.56-0.02,9.1,0.03,13.66c0.01,0.65-0.05,1.4-0.55,1.88
			C34.08,190.63,33.42,190.7,32.86,190.7z M26.23,189.33c2.31,0,4.47,0.01,6.53,0.06c0.65-0.01,0.81-0.1,0.86-0.15
			c0.12-0.12,0.17-0.44,0.17-0.93c-0.05-4.57-0.04-9.13-0.03-13.69l0.01-5.12l-0.01-5.16c-0.01-4.48-0.01-8.98,0.03-13.45
			c0-0.2,0.01-0.82-0.15-0.97c-0.04-0.05-0.2-0.15-0.74-0.15c-0.03,0-0.05,0-0.08,0c-4.83,0.1-9.63,0.05-13.25,0.01
			c-0.02,0-0.04,0-0.05,0c-0.49,0-0.63,0.08-0.67,0.12c-0.04,0.04-0.13,0.19-0.13,0.76c0.04,12.54,0.04,25.24,0,37.78
			c0,0.58,0.1,0.76,0.15,0.81c0.07,0.09,0.35,0.14,0.83,0.15C22,189.34,24.16,189.33,26.23,189.33z"/>
	</g>
	<g>
		<path class="st0" d="M176.05,1.65c1.09,0.33,2.2,0.62,3.27,1.01c8.65,3.15,13.02,12.77,9.7,21.31c-3.35,8.62-13.2,12.8-21.7,9.07
			c-1.59-0.7-2.4-0.45-3.56,0.72c-7.82,7.93-15.7,15.8-23.61,23.63c-1.02,1.01-1.36,1.72-0.66,3.21c2.91,6.2,1.4,13.6-3.53,18.36
			c-4.9,4.74-12.09,5.94-18.32,3.05c-6.15-2.85-9.97-9.3-9.36-16.02c0.11-1.23-0.2-1.65-1.35-1.96c-5.36-1.47-10.7-3-16.04-4.57
			c-0.93-0.27-1.45-0.14-2.07,0.68c-5.69,7.46-14.23,9.16-22.25,4.42c-0.81-0.48-1.27-0.44-1.97,0.11
			c-7.64,6.12-15.28,12.25-22.98,18.29c-1.1,0.86-0.7,1.53-0.32,2.44c3.59,8.6-0.57,18.37-9.19,21.67
			c-8.65,3.31-18.29-1.19-21.34-9.97c-2.17-6.24-0.41-13.02,4.55-17.5c4.92-4.45,11.99-5.51,18.05-2.52
			c1.27,0.62,1.99,0.47,3.01-0.36c7.57-6.11,15.17-12.17,22.82-18.18c0.99-0.78,1.1-1.39,0.72-2.53
			c-2.98-8.91,2.04-18.44,10.97-20.95c9.11-2.55,18.34,2.92,20.49,12.15c0.04,0.19,0.14,0.38,0.11,0.56
			c-0.41,3.17,1.56,3.97,4.16,4.61c4.96,1.22,9.85,2.73,14.75,4.17c0.98,0.29,1.58,0.15,2.32-0.61c5.27-5.33,12.14-6.58,19.01-3.44
			c0.93,0.43,1.41,0.34,2.1-0.36c8.26-8.3,16.55-16.58,24.84-24.85c0.59-0.59,0.89-1.04,0.43-1.95
			c-5.1-10.13,1.42-21.74,11.81-23.43c0.18-0.03,0.33-0.17,0.5-0.26C172.98,1.65,174.51,1.65,176.05,1.65z M181.89,18.01
			c-0.01-4.53-3.67-8.2-8.18-8.18c-4.51,0.02-8.13,3.69-8.12,8.23c0.01,4.52,3.67,8.18,8.18,8.16
			C178.28,26.21,181.9,22.54,181.89,18.01z M116.43,67.11c-0.04,4.55,3.55,8.24,8.05,8.28c4.51,0.05,8.2-3.58,8.24-8.1
			c0.04-4.53-3.54-8.23-8.06-8.3C120.2,58.92,116.47,62.6,116.43,67.11z M34.4,91.77c0-4.51-3.68-8.2-8.16-8.19
			c-4.5,0.01-8.14,3.68-8.13,8.22c0,4.53,3.64,8.18,8.16,8.18C30.77,99.97,34.4,96.31,34.4,91.77z M75.48,42.67
			c-4.59-0.03-8.18,3.51-8.21,8.08c-0.03,4.58,3.52,8.19,8.08,8.22c4.57,0.03,8.18-3.52,8.21-8.08
			C83.6,46.31,80.04,42.7,75.48,42.67z"/>
		<path class="st0" d="M26.25,108.82c-2.44,0-4.88-0.53-7.16-1.6c-4.22-1.96-7.39-5.48-8.93-9.9c-2.27-6.53-0.46-13.51,4.73-18.21
			c5.17-4.67,12.53-5.69,18.79-2.61c0.98,0.49,1.43,0.44,2.31-0.28c8.2-6.62,15.66-12.56,22.82-18.18c0.74-0.59,0.82-0.87,0.51-1.81
			c-1.5-4.51-1.11-9.28,1.1-13.46c2.18-4.12,5.85-7.08,10.31-8.32c4.58-1.31,9.33-0.67,13.36,1.7c4.05,2.39,6.87,6.27,7.95,10.91
			c0.09,0.31,0.16,0.54,0.12,0.81c-0.31,2.47,0.88,3.2,3.67,3.88c4.18,1.04,8.37,2.28,12.43,3.48l2.36,0.7
			c0.77,0.2,1.11,0.12,1.67-0.45c5.46-5.52,12.65-6.81,19.76-3.59c0.67,0.32,0.85,0.29,1.36-0.22c8.27-8.3,16.55-16.58,24.85-24.84
			c0.5-0.51,0.58-0.67,0.3-1.2c-2.45-4.88-2.45-10.46,0.02-15.3c2.45-4.83,7.04-8.22,12.27-9.08c0.17-0.1,0.23-0.14,0.29-0.18
			L171.44,1l4.8,0.03c0.36,0.12,0.73,0.22,1.09,0.32c0.74,0.22,1.48,0.44,2.2,0.69c4.37,1.59,7.82,4.79,9.73,9
			c1.9,4.2,2.03,8.87,0.36,13.16c-1.7,4.37-5.01,7.76-9.34,9.57c-4.3,1.77-8.98,1.73-13.23-0.14c-1.27-0.56-1.8-0.42-2.83,0.59
			c-6.84,6.94-14.13,14.24-23.62,23.63c-0.9,0.91-1.07,1.32-0.52,2.47c3.01,6.4,1.53,14.09-3.67,19.12
			c-5.1,4.93-12.56,6.19-19.05,3.18c-6.46-3-10.37-9.69-9.73-16.67c0.08-0.9-0.02-1.04-0.88-1.28c-4.69-1.28-9.64-2.68-16.05-4.56
			c-0.7-0.2-0.93-0.15-1.37,0.44c-5.9,7.77-14.75,9.54-23.1,4.6c-0.63-0.37-0.79-0.32-1.23,0.06c-8.48,6.8-15.57,12.47-22.98,18.29
			c-0.63,0.49-0.54,0.68-0.2,1.47l0.08,0.19c1.81,4.35,1.79,9.12-0.04,13.41c-1.82,4.24-5.2,7.49-9.51,9.14
			C30.37,108.45,28.31,108.82,26.25,108.82z M26.18,76.05c-3.76,0-7.47,1.38-10.41,4.03c-4.79,4.34-6.47,10.78-4.37,16.8
			c1.42,4.08,4.34,7.34,8.24,9.16c3.88,1.79,8.23,1.97,12.24,0.42c3.98-1.52,7.1-4.52,8.78-8.44c1.7-3.96,1.72-8.35,0.04-12.37
			l-0.08-0.19c-0.34-0.81-0.81-1.91,0.61-3.01c7.41-5.81,14.48-11.49,22.97-18.29c0.92-0.72,1.66-0.78,2.71-0.17
			c7.72,4.56,15.91,2.92,21.4-4.26c0.78-1.02,1.58-1.23,2.79-0.9c6.38,1.87,11.33,3.28,16.02,4.56c1.47,0.41,1.97,1.13,1.83,2.66
			c-0.59,6.42,3.02,12.59,8.98,15.37c5.99,2.77,12.89,1.61,17.59-2.95c4.8-4.64,6.16-11.72,3.39-17.61
			c-0.85-1.81-0.38-2.78,0.78-3.96c9.49-9.4,16.78-16.69,23.61-23.63c1.4-1.41,2.52-1.64,4.29-0.87c3.92,1.73,8.25,1.75,12.2,0.13
			c4-1.65,7.06-4.79,8.62-8.84c1.54-3.94,1.42-8.26-0.33-12.14c-1.77-3.89-4.96-6.84-8.98-8.31c-0.7-0.24-1.41-0.45-2.13-0.65
			c-0.34-0.1-0.68-0.2-1.02-0.31h-4.33c-0.2,0.13-0.37,0.22-0.59,0.26c-4.81,0.78-9.03,3.92-11.3,8.36
			c-2.28,4.47-2.29,9.62-0.02,14.12c0.66,1.32,0.1,2.06-0.54,2.71c-8.3,8.26-16.59,16.54-24.84,24.84c-0.9,0.91-1.68,1.04-2.84,0.49
			c-6.58-2.98-13.23-1.79-18.27,3.32c-0.9,0.92-1.75,1.13-2.97,0.78l-2.37-0.7c-4.04-1.19-8.21-2.43-12.36-3.46
			c-2.62-0.65-5.14-1.59-4.65-5.34c-0.06-0.18-0.08-0.26-0.1-0.32c-1-4.29-3.6-7.88-7.34-10.09c-3.74-2.2-8.11-2.77-12.33-1.58
			c-4.12,1.15-7.5,3.88-9.51,7.68c-2.05,3.85-2.41,8.27-1.02,12.43c0.49,1.43,0.23,2.32-0.94,3.24C52.46,64.68,45,70.62,36.8,77.24
			c-1.08,0.88-2.09,1.22-3.71,0.44C30.89,76.59,28.52,76.05,26.18,76.05z M26.23,100.63c-2.34,0-4.53-0.91-6.19-2.55
			c-1.68-1.66-2.6-3.91-2.6-6.29c-0.01-2.38,0.92-4.61,2.59-6.29c1.66-1.66,3.86-2.57,6.2-2.57c0.01,0,0.02,0,0.03,0
			c2.32,0,4.52,0.91,6.19,2.57c1.68,1.68,2.61,3.91,2.61,6.27l0,0l0,0l0,0c0.01,2.38-0.91,4.61-2.58,6.27
			c-1.66,1.66-3.86,2.57-6.21,2.57C26.25,100.63,26.24,100.63,26.23,100.63z M26.26,84.24c-0.01,0-0.02,0-0.03,0
			c-1.99,0-3.86,0.78-5.27,2.19c-1.43,1.43-2.21,3.33-2.21,5.37c0.01,2.04,0.79,3.93,2.22,5.35c1.4,1.41,3.27,2.18,5.26,2.18
			c0.01,0,0.02,0,0.03,0c2,0,3.87-0.78,5.28-2.19c1.42-1.42,2.2-3.33,2.2-5.35l0,0c0-2.02-0.79-3.92-2.23-5.35
			C30.1,85.02,28.23,84.24,26.26,84.24z M124.58,76.04c-0.03,0-0.07,0-0.1,0c-2.34-0.01-4.53-0.95-6.17-2.61
			c-1.66-1.69-2.55-3.93-2.53-6.33c0.02-2.37,0.97-4.6,2.69-6.27c1.65-1.6,3.8-2.48,6.06-2.48c0.05,0,0.1,0,0.15,0
			c4.84,0.08,8.75,4.1,8.69,8.96c-0.02,2.36-0.95,4.57-2.64,6.22C129.08,75.16,126.9,76.04,124.58,76.04z M124.53,59.65
			c-1.91,0-3.74,0.76-5.14,2.13c-1.47,1.42-2.28,3.32-2.3,5.34v0.01c-0.02,2.04,0.75,3.94,2.16,5.38c1.4,1.42,3.25,2.2,5.24,2.23
			c0.03,0,0.06,0,0.09,0c1.97,0,3.83-0.76,5.24-2.14c1.43-1.41,2.23-3.29,2.25-5.3c0.04-4.15-3.28-7.57-7.41-7.64
			C124.62,59.65,124.57,59.65,124.53,59.65z M75.42,59.61c-0.03,0-0.06,0-0.08,0c-2.38-0.01-4.58-0.93-6.21-2.59
			c-1.64-1.65-2.54-3.89-2.52-6.27c0.03-4.9,3.89-8.73,8.82-8.73c0.02,0,0.04,0,0.06,0c2.38,0.01,4.58,0.93,6.21,2.59
			c1.64,1.65,2.54,3.89,2.52,6.27C84.18,55.8,80.32,59.61,75.42,59.61z M75.43,43.32c-4.19,0-7.48,3.25-7.51,7.43
			c-0.01,2.05,0.75,3.94,2.14,5.35s3.27,2.19,5.3,2.2c0.02,0,0.04,0,0.06,0c4.17,0,7.45-3.25,7.49-7.43
			c0.01-2.05-0.75-3.94-2.14-5.35c-1.39-1.41-3.27-2.19-5.3-2.2C75.46,43.32,75.45,43.32,75.43,43.32z M173.75,26.88
			c-2.34,0-4.55-0.91-6.21-2.57c-1.66-1.66-2.59-3.88-2.59-6.25c-0.01-4.88,3.92-8.86,8.77-8.87c0.01,0,0.03,0,0.05,0
			c2.32,0,4.51,0.9,6.17,2.55c1.68,1.66,2.61,3.89,2.61,6.27l0,0c0.02,4.88-3.92,8.86-8.77,8.87
			C173.76,26.88,173.76,26.88,173.75,26.88z M173.76,10.49c-0.01,0-0.03,0-0.04,0c-4.13,0.01-7.48,3.41-7.47,7.57
			c0.01,2.01,0.79,3.91,2.22,5.33c1.42,1.41,3.29,2.19,5.28,2.19c0.01,0,0.02,0,0.03,0c4.12-0.01,7.47-3.41,7.47-7.57l0,0
			c-0.01-2.02-0.79-3.92-2.23-5.35C177.6,11.26,175.74,10.49,173.76,10.49z"/>
	</g>
</g>
</svg>
