<?xml version="1.0" encoding="utf-8"?>
<!-- Generator: Adobe Illustrator 26.0.2, SVG Export Plug-In . SVG Version: 6.00 Build 0)  -->
<svg version="1.1" id="Layer_1" xmlns="http://www.w3.org/2000/svg" xmlns:xlink="http://www.w3.org/1999/xlink" x="0px" y="0px"
	 viewBox="0 0 200 200" style="enable-background:new 0 0 200 200;" xml:space="preserve">
<style type="text/css">
	.st0{fill:#1A73E8;}
	.st1{fill:#FFFFFF;}
</style>
<g>
	<g id="Path_1403_00000030457587223548283040000013162371961835835302_">
		<path class="st0" d="M152.92,130.76c-6.57,0-13.14-0.01-19.71-0.04c-6.4,0.2-12.83-2.1-17.8-6.7c-5.22-4.82-8.25-11.47-8.52-18.7
			v-1.96c-0.05-8.17-0.03-16.56-0.02-24.96l0.03-12.57l-0.01-12.49l0.01-25.06c-0.43-12.69,8.09-23.94,20.28-26.58
			c1.79-0.41,3.7-0.63,5.62-0.64l5.96-0.01C150.18,1,161.6,0.97,173.01,1.06c12.62-0.38,22.88,8.54,25.31,21.03
			c0.4,2.01,0.61,4.1,0.59,6.18c0.03,25.05,0.03,50.14,0,75.24c0.48,12.34-7.74,23.53-19.56,26.41c-2.19,0.53-4.4,0.53-6.74,0.79
			C166.06,130.74,159.5,130.76,152.92,130.76z M133.01,120.36c13.35,0.04,26.48,0.04,39.6-0.01c1.54,0.04,2.93-0.16,4.29-0.49
			c7.05-1.72,11.95-8.51,11.66-16.15c0.03-25.3,0.03-50.39-0.01-75.47c0.01-1.41-0.12-2.79-0.4-4.13c-1.48-7.56-8-12.94-15.05-12.7
			c-11.55-0.09-22.95-0.05-34.33-0.01l-5.95,0.01c-1.15,0.01-2.29,0.13-3.4,0.39c-7.36,1.59-12.45,8.44-12.18,16.31l-0.01,25.21
			l0.01,12.53h-0.01l-0.01,12.56c-0.01,8.38-0.03,16.75,0.01,25.12l-0.01,1.39c0.18,4.46,2.02,8.54,5.2,11.48
			C125.37,119.13,129.15,120.48,133.01,120.36z"/>
	</g>
	<g id="Path_1404_00000145051022341428935920000005571205730227275661_">
		<path class="st0" d="M48.73,199c-6.86,0-13.74-0.02-20.62-0.06c-14.78,0.31-26.63-10.18-27.04-23.48l-0.01-0.22l0.02-1.39
			l-0.01-33.37h10.36v33.28l-0.01,1.37c0.24,7.63,7.56,13.66,16.58,13.45c14,0.09,27.82,0.08,41.63,0
			c5.87-0.13,10.23-2.01,13.16-5.14c2.39-2.54,3.63-5.73,3.51-8.98c0.09-22.69,0.09-45.16-0.01-67.63
			c-0.36-8.72-7.88-14.5-16.67-14.28c-13.89-0.03-27.6-0.04-41.3,0.01c-1.62-0.07-3.21,0.13-4.72,0.45
			c-7.32,1.53-12.46,7.32-12.19,13.78l0.01,33.71H1.07l-0.01-11.16l0.01-22.35c-0.48-11.3,8.12-21.54,20.45-24.12
			c2.23-0.45,4.65-0.78,6.83-0.66c13.67-0.03,27.39-0.03,41.11,0c14.36-0.63,26.57,9.78,27.19,23c0.03,0.59,0.03,1.17,0.01,1.77
			c0.1,22.32,0.1,44.82,0,67.33c0.22,5.82-2.02,11.65-6.3,16.23c-4.81,5.13-11.82,8.2-19.22,8.42h-1.64
			C62.62,198.98,55.69,199,48.73,199z"/>
	</g>
	<g id="Path_1405_00000059995494369035706060000005841225959211476915_">
		<path class="st0" d="M48.88,71.21c-7.05,0-14.11-0.05-21.18-0.13C14.04,71.66,1.68,60.15,1.2,45.91
			C0.81,39.41,0.81,32.7,1.21,26.07c0.59-14.28,12.54-25.63,27.18-25c4.39-0.05,9.02-0.04,13.65-0.02l6.91,0.01V1.05l6.91-0.01
			c4.63-0.01,9.25-0.02,13.89,0.01c14.35-0.09,26.33,10.86,26.81,25.28c0.39,6.42,0.39,13.07-0.01,19.64
			c-0.42,14.06-12.64,24.95-26.58,25.09C62.98,71.16,55.94,71.21,48.88,71.21z M27.64,60.71c14.26,0.2,28.32,0.2,42.37,0
			c8.98-0.01,15.94-6.64,16.19-15.21c0.38-6.31,0.38-12.54,0.01-18.67c-0.3-8.86-7.54-15.74-16.34-15.42
			c-4.82-0.04-9.39-0.03-13.99-0.01l-6.93,0.02l-6.93-0.01c-4.59-0.01-9.19-0.03-13.77,0.01C19.01,11.2,11.91,17.9,11.55,26.6
			c-0.38,6.31-0.38,12.6,0,18.82C11.85,54.14,19.22,61.02,27.64,60.71z"/>
	</g>
	<g id="Path_1406_00000039819682961978071030000013274649565504166279_">
		<path class="st0" d="M157.92,198.97l-6.91-0.01l-6.83,0.01l-13.75-0.01c-13.91,0.36-26.44-8.81-27-20.54
			c-0.33-5.02-0.33-10.04,0-14.99c0.28-11.49,12.37-20.72,26.59-20.64c14.06-0.12,28.2-0.12,42.33,0
			c14.14-0.31,25.97,8.75,26.44,20.49c0.4,4.95,0.4,10.17-0.01,15.32c-0.5,11.51-12.52,20.54-27.02,20.37L157.92,198.97z
			 M151.02,188.61l6.92,0.01l13.8-0.01c8.87,0.24,16.44-4.65,16.71-10.64c0.38-4.8,0.38-9.46,0.01-14.07
			c-0.25-6.06-7.3-10.76-16.06-10.75c-14.2-0.14-28.28-0.14-42.35,0c-8.87,0-16.12,4.8-16.26,10.75c-0.31,4.71-0.31,9.27-0.01,13.77
			c0.3,6.29,7.88,11.19,16.56,10.93l13.84,0.01H151.02L151.02,188.61z"/>
	</g>
</g>
</svg>
