<?xml version="1.0" encoding="utf-8"?>
<!-- Generator: Adobe Illustrator 26.0.2, SVG Export Plug-In . SVG Version: 6.00 Build 0)  -->
<svg version="1.1" id="Layer_1" xmlns="http://www.w3.org/2000/svg" xmlns:xlink="http://www.w3.org/1999/xlink" x="0px" y="0px"
	 viewBox="0 0 200 200" style="enable-background:new 0 0 200 200;" xml:space="preserve">
<style type="text/css">
	.st0{fill:#1A73E8;}
	.st1{fill:#FFFFFF;}
</style>
<g id="Group_5_00000101790730979453143840000009372432828772456616_" transform="translate(-96.973 -59.77)">
	<g id="Group_688_00000020380342533628516150000016577279211470423184_" transform="translate(136.984 171.436)">
		<g>
			<g id="Group_687_00000073692701503005858640000005694416250088244152_" transform="translate(0 0)">
				<g id="Path_1356_00000093138336629532956930000001700193359911795590_">
					<path class="st0" d="M114.07,83.33L80.12,83.1c-4.85-1.63-7.89-6.49-7.24-11.57c0.04-11.16,0.02-22.88,0-34.58l-0.01-5.27
						c0.12-1.57-0.25-2.72-1.01-3.63c-0.76-0.91-1.84-1.46-3.02-1.56l-1.17,0.02h-15c-1.74-0.19-2.93,0.15-3.89,0.88
						c-0.95,0.74-1.56,1.81-1.71,3.01l0.04,0.27l-0.01,12.63c-0.01,9.58-0.02,19.17,0.04,28.77c0.61,4.52-2.42,9.39-7.25,11.03
						l-1.45,0.24L3.87,82.86C-7.86,80.5-16.15,69.99-15.64,58.02c0.16-11.76,0.12-23.65,0.08-35.54l-0.02-13.15
						c-1.14-0.15-2.28-0.34-3.41-0.56c-11.54-3.04-18.28-14.6-15.31-25.85c1.02-3.87,3.12-7.37,6.06-10.09
						c24.18-24.23,48.5-48.54,72.85-72.85c1.25-1.26,2.65-2.4,4.14-3.37c8.8-5.52,20.14-3.93,27.02,3.77l69.84,69.76
						c4.41,3.63,7.8,9.06,9.24,15.02l0.13,6.37l-0.47,0.95c-1.55,9.18-9.41,16.21-18.95,16.94l0.01,11.49
						c0.01,12.98,0.02,25.97-0.05,38.94c-0.17,10.36-6.89,19.33-16.74,22.37c-0.92,0.28-1.86,0.53-2.79,0.76L114.07,83.33z
						 M82.53,74.35h30.94c1.26-0.32,1.96-0.5,2.64-0.71c6.13-1.9,10.31-7.48,10.41-13.88c0.06-12.91,0.06-25.88,0.05-38.84
						l-0.01-20.43h7.16c0.05,0,0.09,0,0.13,0c5.93,0,10.89-4.18,11.88-9.98l0.25-4.29c-0.87-3.02-3.19-6.75-6.43-9.44L69.25-93.45
						c-4.12-4.6-10.64-5.52-15.67-2.36c-0.89,0.57-1.78,1.3-2.6,2.14C26.61-69.36,2.28-45.04-22.01-20.7
						c-1.82,1.69-3.02,3.69-3.6,5.91c-1.71,6.46,2.16,13.1,8.62,14.8c1.83,0.35,3.98,0.61,6.14,0.73l4.25,0.23l0.03,21.48
						C-6.53,34.4-6.5,46.34-6.66,58.28C-7,66.14-1.48,72.91,6.17,74.15l1.11,0.2h30.16c0.52-0.37,0.82-1.02,0.73-1.69
						c-0.09-10.17-0.08-19.78-0.07-29.38l0.01-11.27c-0.1-0.56-0.1-1.67,0.04-2.75c0.44-3.56,2.26-6.75,5.11-8.96
						c2.84-2.21,6.37-3.18,9.97-2.74l14.44-0.04c0.37-0.05,1.14-0.05,1.91,0.01c3.6,0.31,6.85,1.99,9.16,4.73
						c2.31,2.74,3.42,6.22,3.11,9.79l0.02,4.88c0.02,11.73,0.04,23.46-0.04,35.2C81.71,73.23,82.01,73.96,82.53,74.35z"/>
				</g>
			</g>
		</g>
	</g>
</g>
</svg>
