<?xml version="1.0" encoding="utf-8"?>
<!-- Generator: Adobe Illustrator 26.0.2, SVG Export Plug-In . SVG Version: 6.00 Build 0)  -->
<svg version="1.1" id="Layer_1" xmlns="http://www.w3.org/2000/svg" xmlns:xlink="http://www.w3.org/1999/xlink" x="0px" y="0px"
	 viewBox="0 0 200 200" style="enable-background:new 0 0 200 200;" xml:space="preserve">
<style type="text/css">
	.st0{fill:#1A73E8;}
	.st1{fill:#FFFFFF;}
</style>
<g>
	<g>
		<path class="st0" d="M167.67,199l-136-0.2c-7.89-1.58-13.83-5.38-17.83-11.02c-6.67-8.83-7.23-20.77-1.36-30.3l47.87-88.54
			c0.2-0.37,0.32-0.83,0.33-1.29l0.04-51.29c-0.43-3.18,0.61-6.9,2.94-9.88c2.34-2.99,5.7-4.88,9.46-5.34
			c1.14-0.15,2.32-0.15,3.48,0l47.46-0.04c3.15-0.47,6.9,0.58,9.91,2.92c2.99,2.33,4.9,5.69,5.37,9.46
			c0.13,1.12,0.14,2.26,0.01,3.39l0.06,50.82c0,0.38,0.1,0.78,0.28,1.13c4.31,8.06,8.69,16.15,13.07,24.25l35.11,64.97
			c3.6,6.04,4.64,13.32,2.86,20.32c-1.79,6.99-6.19,12.88-12.4,16.57c-3.45,1.71-6.71,2.95-10.04,3.88L167.67,199z M74.25,10.5
			c-1.26,0.15-2.39,0.79-3.18,1.8c-0.79,1-1.13,2.25-0.98,3.5l0.03,16.8l-0.04,35.15c-0.03,1.99-0.53,3.93-1.44,5.64L20.63,162.2
			c-3.96,6.43-3.59,14.2,0.81,20.02c2.66,3.74,6.48,6.18,10.87,7c0.66,0.13,1.21,0.29,1.75,0.46l132.3-0.1
			c2.32-0.68,4.59-1.54,6.76-2.56l0.87-0.42c7.88-4.72,10.64-15.55,5.68-23.9l-35.2-65.13c-4.39-8.11-8.77-16.21-13.12-24.34
			c-0.9-1.72-1.36-3.6-1.37-5.49l-0.03-51.38c0.07-0.93,0.07-1.33,0.03-1.71c-0.16-1.26-0.8-2.39-1.81-3.17
			c-1.01-0.79-2.29-1.13-3.54-0.98l-48.65,0.04L74.25,10.5z"/>
	</g>
	<g>
		<path class="st0" d="M100.03,173.69c17.05,0,34.11,0,51.16,0c5.11,0.61,9.74-3.03,10.36-8.13c0.28-2.3-0.32-4.63-1.66-6.52
			c-2.67-4.83-5.35-9.65-8.05-14.46c-2.01-4.84-7.57-7.14-12.42-5.12c-0.53,0.22-1.03,0.49-1.51,0.8c-3.52,1.71-7.07,3.42-10.72,4.8
			c-7.82,3.31-16.54,3.81-24.68,1.41c-6.98-2.24-13.81-4.98-20.67-7.6c-6.49-2.92-13.33-4.97-20.35-6.09
			c-3.84-0.6-7.62,1.34-9.37,4.81c-4.13,7.31-8.19,14.65-12.25,22c-2.69,4.37-1.33,10.09,3.04,12.78c1.68,1.03,3.64,1.51,5.6,1.35
			c17.18,0,34.35,0,51.53,0"/>
	</g>
	<g>
		<path class="st0" d="M85.5,128.49c7.15,0.07,13-5.66,13.08-12.81c0.07-7.15-5.66-13-12.81-13.08
			c-7.13-0.07-12.98,5.63-13.08,12.76c-0.11,7.14,5.6,13.02,12.74,13.13C85.45,128.49,85.48,128.49,85.5,128.49"/>
	</g>
	<g>
		<path class="st0" d="M85.56,90.55c4.4,0.01,7.98-3.55,8-7.95c0.01-4.4-3.55-7.98-7.95-8c-4.4-0.01-7.98,3.55-8,7.95
			c0,0.01,0,0.03,0,0.04C77.64,86.97,81.18,90.51,85.56,90.55"/>
	</g>
	<g>
		<path class="st0" d="M108.14,138.76c4.4,0.01,7.98-3.55,7.99-7.95c0.01-4.4-3.55-7.98-7.95-7.99c-4.4-0.01-7.98,3.55-7.99,7.95
			c0,0.02,0,0.03,0,0.05C100.23,135.2,103.77,138.73,108.14,138.76"/>
	</g>
</g>
</svg>
