<?xml version="1.0" encoding="utf-8"?>
<!-- Generator: Adobe Illustrator 26.0.2, SVG Export Plug-In . SVG Version: 6.00 Build 0)  -->
<svg version="1.1" id="Layer_1" xmlns="http://www.w3.org/2000/svg" xmlns:xlink="http://www.w3.org/1999/xlink" x="0px" y="0px"
	 viewBox="0 0 200 200" style="enable-background:new 0 0 200 200;" xml:space="preserve">
<style type="text/css">
	.st0{fill:#1A73E8;}
	.st1{fill:#FFFFFF;}
</style>
<g>
	<g>
		<g id="Group_1080_00000069372990208398521160000002505024921305643905_" transform="translate(38.125 1316.395)">
			<g>
				<g id="Group_1079_00000047027586619712374600000007266096520011564161_" transform="translate(0 0)">
					<g id="Path_1421_00000025410857457865742360000002764060350323928987_">
						<path class="st0" d="M76.14-1131.45c-3.06,0-6.14-0.17-9.24-0.5c-23.98-2.57-45.8-15.29-59.88-34.89l-2.36-3.28l25.06-18.06
							l2.37,3.29c9.99,13.86,26.14,22.18,43.22,22.25c11.57,0.34,23.33-3.56,32.59-10.74c11.55-8.62,19.02-21.14,21.09-35.32
							c2.07-14.17-1.51-28.31-10.07-39.81c-8.56-11.49-21.09-18.96-35.27-21.03c-14.19-2.05-28.32,1.52-39.81,10.07
							c-9.26,6.9-15.98,16.52-19.29,27.48h25.49l-43.69,43.73l-43.49-43.62h29.47c4.44-23.93,18.8-44.65,39.8-57.22
							c15.71-9.77,34.56-13.89,52.97-11.66c46.48,4.99,80.27,46.93,75.27,93.46c-2.43,22.55-13.48,42.8-31.14,57.04
							C114.01-1137.97,95.43-1131.45,76.14-1131.45z M16.04-1168.34c12.74,15.9,31.37,26.16,51.73,28.34
							c20.4,2.24,40.42-3.68,56.4-16.55c15.97-12.88,25.97-31.2,28.17-51.6c2.2-20.4-3.69-40.42-16.56-56.39
							s-31.19-25.97-51.59-28.17c-16.69-2.1-33.63,1.7-47.83,10.54c-19.97,11.95-33.28,31.96-36.57,54.93l-0.5,3.47h-16.92l24,24.07
							l24.15-24.17H14.42l0.99-4.85c3.03-14.91,11.42-28.12,23.61-37.22c13.23-9.85,29.52-13.95,45.81-11.58
							c16.32,2.38,30.73,10.97,40.59,24.2c20.34,27.29,14.68,66.05-12.62,86.39c-10.65,8.26-23.81,12.72-37.6,12.39
							c-18.23-0.08-35.61-8.4-47.2-22.41L16.04-1168.34z"/>
					</g>
				</g>
			</g>
		</g>
	</g>
	<g>
		<polygon class="st0" points="140.07,126.73 106.64,101.28 106.64,65.46 114.74,65.46 114.74,97.28 144.97,120.28 		"/>
	</g>
</g>
</svg>
