<?xml version="1.0" encoding="utf-8"?>
<!-- Generator: Adobe Illustrator 26.0.2, SVG Export Plug-In . SVG Version: 6.00 Build 0)  -->
<svg version="1.1" id="Layer_1" xmlns="http://www.w3.org/2000/svg" xmlns:xlink="http://www.w3.org/1999/xlink" x="0px" y="0px"
	 viewBox="0 0 200 200" style="enable-background:new 0 0 200 200;" xml:space="preserve">
<style type="text/css">
	.st0{fill:#1A73E8;}
	.st1{fill:#FFFFFF;}
</style>
<g>
	<g id="Path_127_00000160192157019543436480000011426937712505704843_">
		<path class="st0" d="M147.87,199l-98.41-0.45c-1.57-0.3-3.14-0.6-4.67-1.04C30.32,194,19.96,181,19.75,165.95
			c-0.92-14.31,1.36-29.2,6.6-42.8c3.29-9.48,10-17.58,18.84-22.65c5.87-3.17,12.27-4.7,18.92-4.57c2.95,0.29,5.5,1.17,7.72,2.56
			c1.57,0.84,3.29,1.97,5.01,3.1l2.78,1.79c12.52,8.55,28.44,8.53,40.75,0.08l1.43-0.88c1.59-0.98,3.18-1.95,4.67-3.06
			c4.6-3.26,10.26-4.41,15.65-3.24c12.29,1.63,23.22,9.49,28.86,20.95c5.01,9.7,7.96,20.22,8.74,31.2
			c0.52,5.3,0.77,10.83,0.71,16.33c0.24,17.6-13.4,32.55-31.06,33.91L147.87,199z M52.65,189.96h94.49c0.34-0.1,0.68-0.18,1.03-0.25
			c13.43-1.07,23.41-11.99,23.23-24.95c0.06-5.28-0.17-10.48-0.67-15.58c-0.7-9.87-3.33-19.22-7.8-27.9
			c-4.35-8.82-12.69-14.82-22.36-16.12c-3.26-0.7-6.34-0.08-8.76,1.65c-1.61,1.21-3.44,2.34-5.27,3.46l-1.22,0.75
			c-15.24,10.45-35.18,10.48-50.61-0.07l-2.83-1.82c-1.51-0.99-3.01-1.99-4.6-2.85c-1.3-0.8-2.51-1.22-3.75-1.35
			c-4.7-0.27-9.56,1.08-13.95,3.45c-6.84,3.93-12.12,10.29-14.74,17.86c-4.83,12.54-6.91,26.1-6.07,39.34
			c0.16,11.16,7.69,20.59,18.31,23.18c1.44,0.41,2.75,0.65,4.05,0.89L52.65,189.96z"/>
	</g>
	<g id="Path_128_00000142151389418919804740000009737536230475258013_">
		<path class="st0" d="M99.01,97.78c-0.01,0-0.03,0-0.05,0l-0.09-4.53l-0.01,4.52c-12.92-0.02-25.07-5.07-34.19-14.22
			c-9.13-9.15-14.14-21.31-14.12-34.23C50.59,22.66,72.29,1,98.94,1c0.02,0,0.05,0,0.07,0c26.68,0.05,48.36,21.79,48.32,48.47
			C147.3,76.14,125.62,97.78,99.01,97.78z M98.94,10.04c-21.67,0-39.32,17.61-39.36,39.29c-0.03,21.7,17.6,39.38,39.29,39.41
			l0.4,0.01c21.52-0.15,38.99-17.68,39.01-39.24c0.03-21.75-17.6-39.43-39.29-39.47C98.98,10.04,98.95,10.04,98.94,10.04z"/>
	</g>
</g>
</svg>
