<?xml version="1.0" encoding="utf-8"?>
<!-- Generator: Adobe Illustrator 26.0.2, SVG Export Plug-In . SVG Version: 6.00 Build 0)  -->
<svg version="1.1" id="Layer_1" xmlns="http://www.w3.org/2000/svg" xmlns:xlink="http://www.w3.org/1999/xlink" x="0px" y="0px"
	 viewBox="0 0 200 200" style="enable-background:new 0 0 200 200;" xml:space="preserve">
<style type="text/css">
	.st0{fill:#1A73E8;}
	.st1{fill:#FFFFFF;}
</style>
<g>
	<g id="Path_1407_00000081643441197756046510000013053925573216200339_">
		<path class="st0" d="M82.28,99.85c-25.26,0-45.85-20.53-45.91-45.8C36.31,28.73,56.86,8.08,82.18,8.03c0.03,0,0.08,0,0.11,0
			c25.26,0,45.85,20.53,45.91,45.8c0,25.36-20.54,45.95-45.79,46.02l-0.02-8.89c20.36-0.05,36.92-16.66,36.92-37.01
			c-0.05-20.48-16.64-37.03-37.02-37.03c-0.03,0-0.06,0-0.09,0C61.78,16.96,45.21,33.6,45.26,54.02
			C45.3,74.41,61.9,90.96,82.28,90.96c0.03,0,0.06,0,0.09,0l0.02,8.89C82.35,99.85,82.31,99.85,82.28,99.85z"/>
	</g>
	<g id="Path_1408_00000147941133365430275880000017567234514657441673_">
		<path class="st0" d="M19.05,182.83c-4.21,0-8.45-1.59-11.81-4.54c-3.67-3.22-5.87-7.67-6.19-12.54c-0.06-0.8-0.06-1.6,0-2.41
			l-0.01-27.27c-0.32-6.88,3.62-13.4,10.04-16.42c23.15-12.21,49.48-18.2,75.77-17.55c0.31-0.14,1.45,0.09,2.09,0.13l-0.01,0.75
			l0.05-0.76l4.37,4.84l-1.96,1.54l0.83,0.57c-6.31,9.08-8.71,20.06-6.75,30.94c1.96,10.88,8.04,20.35,17.11,26.65
			c5.62,3.91,12.18,6.38,18.98,7.14l-0.5,8.86H20.18C19.81,182.82,19.43,182.83,19.05,182.83z M80.92,110.94
			c-22.96,0.25-45.6,5.96-65.88,16.66c-3.34,1.58-5.28,4.79-5.12,8.27l0.01,27.78c-0.03,0.7-0.03,1.11-0.01,1.51
			c0.34,5.17,4.87,8.97,9.98,8.75l77.35-0.01c-10.88-7.66-18.17-19.09-20.53-32.2C74.81,131.12,76.3,120.44,80.92,110.94z"/>
	</g>
	<g id="Path_1409_00000126314130918803851980000008982800136775340216_">
		<path class="st0" d="M188.76,191.97c-3.1,0-5.92-1.26-8.02-3.53c-4.95-5.02-16.31-16.69-21.57-22.16
			c-9.95,5.92-21.68,7.56-32.76,4.46c-9.6-2.46-18.06-8.5-23.71-16.98c-6.27-9.27-8.55-20.43-6.43-31.41
			c2.13-10.97,8.42-20.47,17.71-26.75c15.33-10.41,35.3-9.6,49.71,2c16.31,13.33,20.23,36.55,9.73,54.35
			c1.19,1.02,2.22,1.96,2.82,2.6l19.56,19.56c1.94,1.84,3.15,4.54,3.22,7.33c0.07,2.74-0.91,5.33-2.78,7.28
			c-1.48,1.48-3.06,2.42-4.91,2.97C190.45,191.88,189.59,191.97,188.76,191.97z M160.56,154.53l2.66,3.15
			c0.88,0.97,15.94,16.5,23.94,24.63c0.62,0.67,1.32,0.93,1.97,0.79c0.08-0.04,0.39-0.24,0.75-0.58c0.24-1.29,0.04-1.72-0.29-2.04
			l-19.75-19.75c-0.92-0.98-2.71-2.46-4.44-3.91c-1.75-1.47-3.45-2.9-4.33-3.79l3.1-3.1l-0.02-0.02
			c10.24-14.31,7.57-34.26-6.06-45.4c-11.33-9.12-27.06-9.74-39.13-1.54c-7.34,4.95-12.29,12.44-13.97,21.08
			c-1.67,8.64,0.13,17.44,5.08,24.77c4.45,6.67,11.06,11.4,18.63,13.35c9.78,2.75,20.15,0.83,28.52-5.22L160.56,154.53z"/>
	</g>
</g>
</svg>
