<?xml version="1.0" encoding="utf-8"?>
<!-- Generator: Adobe Illustrator 26.0.2, SVG Export Plug-In . SVG Version: 6.00 Build 0)  -->
<svg version="1.1" id="Layer_1" xmlns="http://www.w3.org/2000/svg" xmlns:xlink="http://www.w3.org/1999/xlink" x="0px" y="0px"
	 viewBox="0 0 200 200" style="enable-background:new 0 0 200 200;" xml:space="preserve">
<style type="text/css">
	.st0{fill:#1A73E8;}
	.st1{fill:#FFFFFF;}
</style>
<g>
	<g>
		<g>
			<path class="st0" d="M1.46,136.95c0.46-2.05,0.82-4.12,1.38-6.14c6.7-24.11,34.32-35.76,56.3-23.76
				c0.72,0.39,1.44,0.79,2.13,1.18c20.7-21.35,55.15-21.39,76.01-1.41c5.39-3.61,11.34-5.75,17.8-6.66
				c20.37-2.86,40.96,12.95,43.03,33.36c0.54,5.27,0.42,10.63,0.36,15.95c-0.05,3.85-3.15,7.02-6.97,7.56
				c-0.88,0.13-1.79,0.15-2.68,0.15c-10.9,0.01-21.81,0.01-32.71,0.01c-0.76,0-1.53,0-2.47,0c-0.05,0.67-0.11,1.22-0.12,1.77
				c-0.1,6.74-4.37,10.97-11.18,10.99c-8.6,0.03-17.19,0.01-25.79,0.01c-19.31,0-38.62,0-57.92,0c-7.42,0-11.03-2.98-12.34-10.34
				c-0.65,0-1.35,0-2.04,0c-10.78,0-21.56-0.13-32.33,0.06c-5.09,0.09-8.68-1.65-10.47-6.55C1.46,147.72,1.46,142.34,1.46,136.95z
				 M100.03,163.53c14.11,0,28.22,0,42.33,0c3.36,0,4.79-1.42,4.83-4.79c0.03-1.92-0.04-3.84-0.02-5.76
				c0.06-6.73,0.24-13.46-1.6-20.05c-7.23-25.94-34.48-40.58-60.16-32.29c-18.49,5.97-31.26,22.25-32.43,41.63
				c-0.32,5.37-0.13,10.76-0.18,16.14c-0.03,3.72,1.35,5.12,5.09,5.12C71.94,163.54,85.98,163.54,100.03,163.53z M153.61,150.72
				c0.41,0.04,0.72,0.09,1.03,0.09c5.39,0.01,10.77,0.01,16.16,0.01c6.22,0,12.44-0.01,18.66,0.01c1.45,0.01,2.72-0.33,2.66-2.02
				c-0.18-5.75,0.29-11.66-0.87-17.22c-3.49-16.7-19.48-27.41-36.4-24.97c-4.74,0.68-9.16,2.27-13.16,4.99
				C151.6,126.37,152.29,128.63,153.61,150.72z M57.1,113.34c-0.56-0.37-0.96-0.68-1.4-0.91c-18.42-9.99-42.3,0.55-46.84,21.02
				c-1.19,5.36-0.79,11.08-1.02,16.64c-0.11,2.73,0.36,3.1,3.11,3.1c11.16,0,22.32,0,33.48,0c0.62,0,1.24-0.06,2.2-0.11
				C45.48,138.57,48.15,125.13,57.1,113.34z"/>
			<path class="st0" d="M131.3,170.43c-2.45,0-4.91,0-7.37,0l-65.29,0c-7.5,0-11.33-3.1-12.73-10.34h-1.65
				c-3.14,0-6.29-0.01-9.43-0.02c-7.5-0.04-15.26-0.05-22.89,0.07c-0.12,0-0.24,0-0.36,0c-5.49,0-8.85-2.19-10.55-6.86L1,153.11
				l0.01-16.27c0.14-0.64,0.28-1.28,0.41-1.93c0.29-1.39,0.59-2.83,0.98-4.24c3.23-11.61,11.49-20.99,22.66-25.71
				c11.2-4.74,23.7-4.12,34.31,1.67c0.61,0.33,1.23,0.67,1.82,1c10.01-10.19,23.5-15.9,38.03-16.09c0.25,0,0.5,0,0.76,0
				c14.11,0,27.33,5.19,37.36,14.68c5.2-3.42,11.15-5.61,17.69-6.53c9.94-1.4,20.51,1.6,28.96,8.23c8.29,6.5,13.61,15.81,14.6,25.55
				c0.5,4.92,0.44,9.98,0.37,14.87l-0.01,1.13c-0.05,3.98-3.21,7.43-7.36,8.02c-0.95,0.14-1.92,0.15-2.75,0.15
				c-8.18,0-16.36,0.01-24.54,0.01l-10.22,0l-0.01,0.18c-0.03,0.41-0.06,0.77-0.07,1.14c-0.11,7.04-4.57,11.43-11.64,11.45
				C138.67,170.42,134.99,170.43,131.3,170.43z M25.45,159.1c3.15,0,6.29,0.01,9.39,0.02c3.14,0.01,6.29,0.02,9.43,0.02h2.43
				l0.07,0.38c1.26,7.07,4.71,9.96,11.88,9.96h65.29c6.14,0,12.27,0,18.42-0.01c6.5-0.02,10.61-4.05,10.71-10.54
				c0-0.38,0.04-0.77,0.07-1.19l0.07-1.04h11.09c8.17,0,16.35,0,24.53,0c0.83,0,1.73-0.02,2.62-0.15c3.7-0.53,6.52-3.58,6.57-7.11
				l0.01-1.13c0.06-4.86,0.12-9.89-0.37-14.77c-0.96-9.48-6.16-18.56-14.25-24.91c-8.25-6.47-18.57-9.41-28.26-8.04
				c-6.62,0.93-12.38,3.08-17.61,6.59l-0.31,0.21l-0.27-0.26C115.81,86.88,82,87.51,61.61,108.55l-0.25,0.26l-0.42-0.23
				c-0.65-0.36-1.33-0.75-2.02-1.12c-10.36-5.66-22.57-6.25-33.5-1.63c-10.91,4.61-18.97,13.76-22.13,25.11
				c-0.39,1.37-0.68,2.8-0.97,4.18c-0.13,0.63-0.26,1.26-0.4,1.89v16.04c1.58,4.25,4.56,6.17,9.64,6.17c0.11,0,0.23,0,0.35,0
				C16.41,159.12,20.95,159.1,25.45,159.1z M121.32,164.01c-3.57,0-7.14,0-10.71,0l-10.58,0c-14.05,0-28.09,0-42.14,0
				c-2.04,0-3.4-0.41-4.29-1.3c-0.88-0.89-1.28-2.25-1.26-4.28c0.01-1.66,0-3.32-0.01-4.99c-0.02-3.67-0.04-7.46,0.19-11.18
				c1.18-19.5,14.03-36.01,32.76-42.04c12.54-4.05,25.82-2.86,37.39,3.36c11.54,6.2,19.84,16.59,23.37,29.25
				c1.74,6.27,1.68,12.75,1.62,19.02l-0.01,1.16c0,0.9,0,1.8,0.01,2.7c0.01,1.02,0.02,2.04,0.01,3.06c-0.05,3.63-1.68,5.25-5.3,5.25
				C135.35,164,128.34,164.01,121.32,164.01z M100.12,98.77c-4.87,0-9.77,0.77-14.57,2.31c-18.35,5.93-30.95,22.1-32.11,41.22
				c-0.22,3.69-0.2,7.47-0.18,11.12c0.01,1.67,0.02,3.33,0,5c-0.01,1.77,0.3,2.92,1,3.62c0.69,0.7,1.84,1.03,3.62,1.03
				c14.05,0,28.09,0,42.14,0h10.59c10.57,0,21.17,0,31.75,0c3.1,0,4.32-1.22,4.37-4.33c0.01-1.01,0-2.03-0.01-3.04
				c-0.01-0.91-0.02-1.81-0.01-2.72l0.01-1.16c0.06-6.2,0.12-12.62-1.59-18.77c-3.46-12.41-11.59-22.6-22.91-28.68
				C115.3,100.66,107.75,98.77,100.12,98.77z M10.96,153.65c-1.51,0-2.43-0.11-2.99-0.7c-0.56-0.59-0.64-1.5-0.58-2.88
				c0.06-1.55,0.07-3.12,0.09-4.68c0.04-4,0.07-8.13,0.94-12.03c2.16-9.78,8.81-17.85,18.23-22.15c9.58-4.37,20.27-4.07,29.29,0.82
				c0.3,0.16,0.58,0.36,0.9,0.58c0.16,0.11,0.33,0.23,0.52,0.36l0.42,0.28l-0.3,0.4c-8.23,10.84-11.62,23.73-10.36,39.4l0.04,0.48
				l-0.48,0.02c-0.34,0.02-0.64,0.04-0.92,0.05c-0.5,0.04-0.9,0.06-1.31,0.06C33.28,153.65,22.12,153.65,10.96,153.65z M40.6,109.06
				c-4.57,0-9.19,0.99-13.57,2.99c-9.15,4.17-15.6,12.01-17.7,21.5c-0.85,3.81-0.88,7.89-0.92,11.84c-0.01,1.58-0.03,3.15-0.09,4.71
				c-0.05,1.28,0.04,1.9,0.33,2.2c0.33,0.35,1.13,0.41,2.32,0.42c11.16,0,22.32,0,33.49,0c0.39,0,0.77-0.03,1.24-0.06
				c0.15-0.01,0.3-0.02,0.46-0.03c-1.16-15.51,2.2-28.33,10.28-39.18c-0.05-0.03-0.09-0.06-0.13-0.09c-0.29-0.2-0.54-0.38-0.82-0.52
				C50.84,110.32,45.75,109.06,40.6,109.06z M189.52,151.29c-0.02,0-0.05,0-0.07,0c-3.95,0-7.91,0-11.87-0.01h-6.79
				c-5.39,0-10.77,0-16.16,0c-0.22,0-0.44-0.02-0.7-0.05l-0.77-0.07l-0.02-0.4c-1.32-22.01-1.98-24.19-11.84-38.89l-0.26-0.38
				l0.38-0.26c3.88-2.64,8.38-4.35,13.35-5.06c17.23-2.49,33.44,8.64,36.93,25.33c0.84,4.03,0.84,8.28,0.83,12.39
				c0,1.62,0,3.29,0.05,4.91c0.03,0.73-0.17,1.31-0.58,1.73C191.36,151.2,190.29,151.29,189.52,151.29z M181.37,150.35
				c2.7,0,5.39,0,8.09,0.01c0.02,0,0.04,0,0.05,0c0.92,0,1.51-0.16,1.83-0.48c0.23-0.23,0.33-0.58,0.32-1.05
				c-0.05-1.64-0.05-3.32-0.05-4.94c0-4.06,0.01-8.27-0.81-12.2c-3.38-16.21-19.13-26.98-35.88-24.6c-4.68,0.67-8.9,2.24-12.58,4.65
				c9.68,14.46,10.41,16.88,11.71,38.57c0.21,0.02,0.4,0.05,0.59,0.05c5.39,0,10.77,0,16.16,0h6.79
				C178.85,150.35,180.11,150.35,181.37,150.35z"/>
		</g>
	</g>
	<g>
		<g>
			<path class="st0" d="M98.97,88.27c-16.08,0.07-29.32-12.91-29.41-28.84c-0.1-16.18,12.99-29.33,29.27-29.39
				c16.16-0.06,29.36,12.97,29.43,29.05C128.32,75.12,115.2,88.2,98.97,88.27z M98.89,81.9c12.65,0,23.03-10.24,23.04-22.73
				c0-12.51-10.34-22.72-23.02-22.72c-12.67,0-23.05,10.22-23.05,22.7C75.85,71.62,86.27,81.91,98.89,81.9z"/>
			<path class="st0" d="M98.83,88.73c-16.31,0-29.64-13.12-29.74-29.31c-0.05-7.92,2.99-15.38,8.57-21.01
				c5.62-5.68,13.14-8.82,21.17-8.85c0.03,0,0.07,0,0.1,0c16.37,0,29.72,13.22,29.79,29.52c0.07,16.27-13.28,29.57-29.75,29.64
				v-0.46v0.46C98.92,88.73,98.88,88.73,98.83,88.73z M98.92,30.5c-0.03,0-0.06,0-0.1,0c-7.78,0.03-15.06,3.07-20.51,8.57
				c-5.4,5.45-8.34,12.68-8.3,20.35C70.12,75.1,83.03,87.8,98.83,87.8c0.05,0,0.09,0,0.14,0c15.95-0.07,28.88-12.95,28.82-28.71
				C127.72,43.31,114.78,30.5,98.92,30.5z M98.88,82.37c-6.23,0-12.11-2.42-16.57-6.83s-6.92-10.23-6.92-16.38
				C75.4,46.38,85.94,35.99,98.9,35.99c0,0,0,0,0.01,0c6.26,0,12.15,2.41,16.6,6.8s6.89,10.21,6.89,16.38
				C122.39,71.96,111.84,82.36,98.88,82.37l0.01-0.46L98.88,82.37C98.89,82.37,98.89,82.37,98.88,82.37z M98.9,36.92
				c-12.44,0-22.57,9.97-22.58,22.24c0,5.9,2.36,11.48,6.65,15.72c4.29,4.23,9.94,6.56,15.92,6.56c0,0,0,0,0.01,0
				c12.44,0,22.57-9.99,22.57-22.26c0-5.93-2.35-11.51-6.61-15.72C110.58,39.24,104.92,36.92,98.9,36.92
				C98.91,36.92,98.9,36.92,98.9,36.92z"/>
		</g>
	</g>
	<g>
		<g>
			<path class="st0" d="M182.4,72.72c-0.02,12.43-10.38,22.65-22.92,22.6c-12.51-0.05-22.87-10.39-22.81-22.76
				c0.06-12.42,10.43-22.62,22.96-22.58C172.2,50.02,182.42,60.22,182.4,72.72z M159.58,88.89c9.1,0,16.52-7.33,16.49-16.27
				c-0.03-8.99-7.42-16.24-16.53-16.23c-9.14,0.01-16.45,7.25-16.45,16.27C143.09,81.67,150.44,88.9,159.58,88.89z"/>
			<path class="st0" d="M159.58,95.78c-0.03,0-0.07,0-0.1,0c-6.18-0.02-12.02-2.47-16.45-6.89c-4.43-4.42-6.86-10.22-6.83-16.33
				c0.06-12.73,10.54-23.05,23.36-23.05c0.02,0,0.05,0,0.07,0c12.83,0.03,23.24,10.44,23.22,23.2l0,0
				c-0.01,6.11-2.44,11.88-6.84,16.25C171.6,93.37,165.76,95.78,159.58,95.78z M159.57,50.45c-12.31,0-22.37,9.91-22.43,22.12
				c-0.03,5.86,2.3,11.42,6.55,15.66c4.26,4.24,9.87,6.6,15.79,6.62c0.04,0,0.07,0,0.1,0c5.93,0,11.53-2.32,15.78-6.55
				c4.22-4.2,6.55-9.73,6.57-15.59c0.02-12.25-9.98-22.24-22.3-22.27C159.61,50.45,159.59,50.45,159.57,50.45z M159.57,89.36
				c-9.34,0-16.94-7.49-16.94-16.7c0-9.21,7.58-16.72,16.91-16.73c0.01,0,0.02,0,0.03,0c9.33,0,16.94,7.48,16.97,16.69
				c0.02,4.4-1.71,8.56-4.86,11.72C168.45,87.57,164.15,89.36,159.57,89.36C159.57,89.36,159.57,89.36,159.57,89.36z M159.58,88.43
				v0.46V88.43c4.33,0,8.39-1.69,11.44-4.75c2.97-2.98,4.6-6.91,4.59-11.06c-0.03-8.69-7.22-15.76-16.04-15.76
				c-0.01,0-0.02,0-0.03,0c-8.82,0.01-15.99,7.11-15.98,15.8C143.56,81.36,150.74,88.43,159.58,88.43
				C159.57,88.43,159.57,88.43,159.58,88.43z"/>
		</g>
	</g>
	<g>
		<g>
			<path class="st0" d="M17.61,74.19c0.01-12.46,10.29-22.64,22.86-22.64c12.52,0,22.87,10.28,22.86,22.69
				C63.32,86.64,52.94,96.9,40.42,96.88C27.86,96.86,17.6,86.66,17.61,74.19z M40.33,90.46c9.15,0.06,16.55-7.14,16.59-16.13
				c0.04-9.05-7.22-16.32-16.35-16.37c-9.13-0.05-16.51,7.11-16.63,16.12C23.81,82.99,31.24,90.4,40.33,90.46z"/>
			<path class="st0" d="M40.46,97.35c-0.01,0-0.03,0-0.04,0c-12.84-0.02-23.28-10.41-23.28-23.16l0,0
				c0.01-12.74,10.48-23.11,23.33-23.11c6.22,0,12.09,2.45,16.53,6.9c4.39,4.4,6.8,10.17,6.8,16.26
				C63.78,86.99,53.31,97.35,40.46,97.35z M18.07,74.19c0,12.24,10.02,22.21,22.35,22.23c0.01,0,0.02,0,0.03,0
				c12.34,0,22.4-9.94,22.41-22.18c0-5.84-2.31-11.38-6.53-15.6c-4.26-4.27-9.9-6.63-15.87-6.63
				C28.13,52.01,18.08,61.96,18.07,74.19L18.07,74.19z M40.43,90.92c-0.04,0-0.07,0-0.11,0l0,0c-4.58-0.03-8.88-1.85-12.1-5.13
				c-3.12-3.18-4.81-7.35-4.76-11.71c0.13-9.32,7.59-16.58,17.01-16.58c0.03,0,0.06,0,0.1,0c9.31,0.05,16.85,7.6,16.81,16.83
				c-0.02,4.48-1.8,8.66-5.02,11.79C49.17,89.22,44.93,90.92,40.43,90.92z M40.33,90c0.03,0,0.06,0,0.1,0
				c4.26,0,8.26-1.61,11.28-4.54c3.04-2.95,4.72-6.9,4.75-11.13c0.04-8.71-7.09-15.85-15.89-15.9C31.6,58.37,24.53,65.27,24.4,74.1
				c-0.05,4.12,1.54,8.04,4.49,11.05C31.93,88.25,35.99,89.97,40.33,90L40.33,90z"/>
		</g>
	</g>
</g>
</svg>
