<?xml version="1.0" encoding="utf-8"?>
<!-- Generator: Adobe Illustrator 26.0.2, SVG Export Plug-In . SVG Version: 6.00 Build 0)  -->
<svg version="1.1" id="Layer_1" xmlns="http://www.w3.org/2000/svg" xmlns:xlink="http://www.w3.org/1999/xlink" x="0px" y="0px"
	 viewBox="0 0 200 200" style="enable-background:new 0 0 200 200;" xml:space="preserve">
<style type="text/css">
	.st0{fill:#1A73E8;}
	.st1{fill:#FFFFFF;}
</style>
<g>
	<g>
		<g>
			<path class="st0" d="M154.26,199h-0.01c-21.9-0.03-39.99-17.88-40.3-39.79c-0.05-22.54,17.97-40.63,40.15-40.67
				c0.03,0,0.05,0,0.08,0c10.72,0,20.8,4.16,28.39,11.72c7.61,7.59,11.82,17.68,11.83,28.43C194.45,180.88,176.44,198.96,154.26,199
				z M154.18,126.49c-0.02,0-0.04,0-0.06,0c-17.8,0.04-32.26,14.55-32.23,32.35c0.25,17.86,14.77,32.19,32.36,32.22
				c17.8-0.04,32.25-14.55,32.22-32.34c-0.02-8.63-3.4-16.74-9.5-22.82C170.87,129.83,162.78,126.49,154.18,126.49z"/>
		</g>
		<g id="Path_66_00000064325166674903901460000008233758402586529682_">
			<path class="st0" d="M145.7,167.31c-3.53,0-6.83,0-10.13,0c-2.81,0-3.91-1.12-3.92-3.96c0-2.74-0.02-5.47,0-8.21
				c-0.22-1.75,1.02-3.35,2.77-3.57c0.28-0.04,0.57-0.03,0.85,0.01c3.41-0.03,6.83,0,10.43,0c0-3.32,0-6.5,0-9.66
				c0-2.94,1.08-4.02,4.02-4.02c2.57,0,5.14,0,7.71,0c3.06,0,4.03,0.97,4.03,3.96c0,3.18,0,6.36,0,9.73c3.37,0,6.61,0,9.85,0
				c2.81,0,3.85,1.03,3.86,3.79c0,2.85,0.03,5.7,0,8.55c0.2,1.68-1,3.2-2.68,3.4c-0.24,0.03-0.48,0.03-0.71,0
				c-3.31,0.04-6.62,0.03-9.94,0.05c-0.13,0.04-0.26,0.09-0.38,0.16c0,3.01,0,6.11,0,9.24c0,3.82-0.76,4.59-4.59,4.59
				c-2.34,0-4.68,0-7.02,0c-3.08,0-4.14-1.05-4.15-4.08C145.69,174.02,145.7,170.78,145.7,167.31z M156.67,176.48
				c0-3.38,0-6.62,0-9.86c0-3.06,1.05-4.08,4.13-4.09c1.31,0,2.63,0,3.94,0h5.55v-6.17h-6.73c-6.88,0-6.88-0.02-6.88-6.81v-6.76
				h-6.17c0,3.32,0,6.5,0,9.7c0,2.81-1.03,3.84-3.79,3.86c-1.71,0-3.44,0-5.14,0h-5.03v6.16c3.44,0,6.8,0,10.15,0
				c2.77,0,3.8,1.04,3.82,3.82c0,3.35,0,6.7,0,10.12L156.67,176.48z"/>
		</g>
	</g>
	<g>
		<g>
			<path class="st0" d="M109.76,185.85H80.53c-0.57,0-1.24,0.1-1.24-0.86c0.1-3.07-0.38-6.13,0.29-9.1
				c3.45-15.81,7.09-31.53,10.64-47.34c2.59-11.4,6.13-22.71,4.98-34.69c-0.1-0.86,0.1-1.72,0-2.59c-0.1-1.15,0.29-1.92,1.15-2.78
				c4.02-4.02,6.8-8.82,7.76-14.47c1.34-8.34,0.48-16.68,0.48-25.11c0.1-1.73-1.34-2.68-3.06-2.78c-1.53,0-3.07-0.1-4.51,0
				c-5.56,0.38-9.2-2.2-11.4-7.09c-0.38-0.77-0.77-1.44-1.44-1.92c-1.82-1.15-3.74-0.38-4.79,1.92c-2.11,4.6-5.37,7.28-10.73,7.09
				c-5.75-0.1-11.4,0-17.06,0c-2.88,0-4.03,1.15-4.03,4.02v18.59c0.1,6.04,1.53,11.98,5.65,16.39c3.45,3.74,4.41,7.57,3.93,12.27
				c-0.1,0.57-0.1,1.25,0,1.82c0.1,2.97-0.38,5.94,0.29,8.91c4.02,17.92,8.15,35.84,12.17,53.86c1.63,7.28,4.02,14.57,3.45,22.23
				c-0.19,1.25-0.38,1.63-1.72,1.63H36.45c-1.44,0-1.63-0.48-1.63-1.72c0.09-4.5,0.09-8.91,0.09-13.42
				c-0.09-2.68-1.15-3.93-3.16-3.93c-2.11,0-3.26,1.25-3.26,3.83c0,4.5,0,9.01,0.1,13.51c0,1.44-0.48,1.82-1.82,1.72
				c-4.12-0.1-8.34-0.1-12.46,0c-1.34,0-1.72-0.29-1.72-1.63c0.1-13.61-0.1-27.22,0.1-40.82c0.19-15.52,11.79-29.52,26.83-32.87
				c1.34-0.29,1.73-0.1,1.73,1.34c-0.1,7.48,0,14.85,0,22.23c0,1.05-0.29,1.63-1.25,2.2c-3.16,1.63-4.89,4.31-5.08,7.86
				c-0.29,4.7,3.07,8.72,7.67,9.77c4.41,0.86,9.01-1.63,10.73-6.04c1.63-4.22-0.1-9.01-4.12-11.5c-0.77-0.48-1.73-0.67-1.63-2.01
				c0.1-7.86,0-15.62,0-23.38c0-0.86,0.19-1.25,1.06-1.53c1.72-0.48,2.4-1.92,2.11-3.55c-0.29-1.82-1.53-2.59-3.26-2.59
				c-2.3-0.1-4.6,0.1-6.9,0.57c-20.6,3.93-34.21,20.51-34.31,41.49v42.07c0,3.83,0.96,4.7,4.7,4.7H115.7
				C113.49,190.26,111.48,188.15,109.76,185.85z M44.4,141.39c1.72,0,3.16,1.44,3.16,3.16c0,1.72-1.34,3.16-3.07,3.16
				c-1.72,0.1-3.16-1.25-3.26-2.97C41.14,142.92,42.58,141.39,44.4,141.39z M53.98,69.32c-0.19-5.17,0-10.25-0.1-15.33
				c0-1.25,0.38-1.53,1.53-1.53c4.7,0.1,9.3,0,13.9,0c4.89,0.1,8.91-1.53,12.17-5.08c0.58-0.67,0.96-1.25,1.82-0.29
				c3.45,4.02,7.86,5.65,13.03,5.37c1.72-0.1,2.11,0.48,2.11,2.11c-0.19,2.49-0.1,4.98-0.1,8.05c-0.1,3.45,0.29,7.38-0.67,11.31
				C94.9,84.56,84.74,91.75,74.01,90.5C62.8,89.26,54.27,80.34,53.98,69.32z M63.47,105.16V93.95c8.53,4.03,16.87,3.93,25.4,0.1
				v11.31c0,0.67-0.48,1.15-0.77,1.72c-5.08,7.67-18.69,7.67-23.86,0.1C63.85,106.51,63.47,105.93,63.47,105.16z M66.15,117.05
				c6.61,2.78,13.23,2.87,20.22-0.19c-3.36,14.95-6.71,29.52-10.06,44.37C75.55,159.4,66.34,119.73,66.15,117.05z M105.25,103.34
				c-2.2,0-3.45,0.77-3.64,2.49c-0.29,1.82,0.38,3.16,2.21,3.64c0.67,0.29,0.96,0.57,0.96,1.25c-0.1,6.8-0.1,13.61-0.1,20.41
				c0,0.67-0.19,1.05-0.86,1.25c-8.91,3.55-12.27,8.72-11.79,18.3c0.1,2.11,1.25,3.35,3.07,3.45c2.01,0,3.16-1.25,3.26-3.55v-2.97
				c0.1-3.83,2.3-7,5.46-8.53c1.82-4.12,4.31-8.05,7.19-11.4c0.1-5.27,0.1-10.54,0-15.81c0-1.44,0.48-1.63,1.72-1.34
				c4.7,1.05,9.01,3.16,12.75,5.94c2.11-1.15,4.31-2.01,6.61-2.68C124.8,107.27,115.22,103.25,105.25,103.34z"/>
			<path class="st0" d="M117.46,192.84H10.95c-4.16,0-5.35-1.2-5.35-5.35v-42.08c0.1-21.25,14.1-38.18,34.85-42.14
				c2.34-0.48,4.74-0.67,7.05-0.59c2.18,0,3.57,1.11,3.89,3.14c0.37,2.07-0.65,3.76-2.59,4.29c-0.51,0.18-0.57,0.26-0.57,0.89
				c0,2.59,0.01,5.16,0.03,7.75c0.02,5.11,0.04,10.4-0.03,15.65c-0.05,0.66,0.16,0.8,0.83,1.16c0.17,0.09,0.34,0.18,0.5,0.28
				c4.27,2.64,6.12,7.81,4.38,12.29c-1.84,4.68-6.66,7.37-11.49,6.44c-5.05-1.15-8.49-5.55-8.19-10.45
				c0.21-3.78,2.08-6.69,5.43-8.41c0.69-0.41,0.89-0.76,0.89-1.62c0-2.46-0.01-4.92-0.03-7.37c-0.02-4.85-0.04-9.88,0.03-14.87
				c0-0.63-0.09-0.76-0.1-0.78l0,0c-0.03-0.01-0.18-0.06-0.83,0.09c-14.8,3.3-26.11,17.15-26.31,32.23
				c-0.1,7.8-0.09,15.75-0.07,23.44c0.01,5.79,0.02,11.59-0.02,17.38c0,0.89,0,0.97,1.06,0.97c4.13-0.1,8.33-0.1,12.48,0
				c0.63,0,0.86-0.05,0.94-0.12c0.07-0.08,0.19-0.28,0.19-0.96c-0.1-4.49-0.1-9.08-0.1-13.5c0-3.92,2.46-4.5,3.92-4.5
				c1.67,0,3.69,0.79,3.82,4.57c0,4.62,0,8.95-0.1,13.45c0,1,0,1.06,0.97,1.06h34.88c0.91,0,0.91-0.03,1.07-1.07
				c0.45-5.98-1-11.87-2.4-17.59c-0.36-1.46-0.72-2.94-1.05-4.4c-2.3-10.32-4.64-20.62-6.97-30.89c-1.74-7.67-3.48-15.31-5.2-22.97
				c-0.46-2.06-0.39-4.11-0.33-6.09c0.03-0.98,0.06-1.95,0.03-2.94c-0.1-0.57-0.1-1.31,0.01-1.95c0.49-4.81-0.63-8.32-3.76-11.71
				c-3.75-4.02-5.72-9.69-5.83-16.83V50.15c0-3.23,1.44-4.68,4.69-4.68c3.74-0.01,7.48-0.05,11.32-0.04c1.9,0,3.82,0,5.74,0.04
				c0.17,0,0.35,0.01,0.52,0.01c4.46,0,7.51-2.15,9.6-6.71c0.64-1.4,1.62-2.35,2.76-2.7c0.98-0.27,2.01-0.12,2.99,0.5
				c0.82,0.58,1.26,1.36,1.67,2.17c2.21,4.89,5.73,7.15,10.77,6.73c0.99-0.05,2.03-0.05,3.02-0.03c0.51,0.01,1.02,0.03,1.53,0.03
				c2.35,0.14,3.84,1.54,3.73,3.48c0,2.33,0.07,4.7,0.14,7.05c0.17,5.94,0.35,12.08-0.62,18.12c-0.93,5.51-3.6,10.5-7.95,14.84
				c-0.78,0.79-1.03,1.37-0.96,2.26c0.05,0.45,0.03,0.91,0,1.37c-0.02,0.39-0.05,0.79,0,1.19c0.97,10.08-1.37,19.78-3.63,29.14
				c-0.47,1.93-0.93,3.85-1.36,5.77c-1.27,5.67-2.55,11.33-3.84,16.98c-2.26,9.93-4.59,20.22-6.8,30.36
				c-0.43,1.9-0.36,3.83-0.3,5.86c0.03,1.05,0.06,2.08,0.03,3.13c0,0.13,0.03,0.18,0.03,0.18c0.03,0,0.27,0,0.41,0h29.7l0.2,0.26
				c1.63,2.17,3.6,4.27,5.85,6.22L117.46,192.84z M46.39,103.98c-1.9,0-3.81,0.19-5.69,0.58c-20.11,3.84-33.69,20.26-33.78,40.85
				v42.08c0,3.43,0.61,4.04,4.04,4.04h103.04c-1.71-1.6-3.23-3.29-4.56-5.01h-28.9c-0.53,0-1.09,0.01-1.5-0.39
				c-0.27-0.27-0.4-0.65-0.4-1.14c0.03-1.03,0-2.04-0.03-3.05c-0.06-2.04-0.13-4.14,0.33-6.2c2.22-10.14,4.55-20.42,6.8-30.37
				c1.28-5.65,2.57-11.3,3.84-16.97c0.44-1.94,0.91-3.87,1.37-5.79c2.24-9.26,4.55-18.85,3.6-28.69c-0.05-0.48-0.03-0.96,0-1.41
				c0.02-0.39,0.05-0.78,0-1.18c-0.11-1.29,0.28-2.25,1.35-3.31c4.14-4.14,6.69-8.9,7.57-14.12c0.95-5.91,0.78-11.99,0.61-17.86
				c-0.07-2.37-0.14-4.75-0.14-7.13c0.08-1.46-1.27-2.04-2.44-2.12c-0.47,0.05-1-0.01-1.52-0.01c-1.01-0.03-1.98-0.05-2.91,0.01
				c-0.37,0.03-0.74,0.04-1.1,0.04c-5.01,0-8.69-2.52-10.94-7.51c-0.34-0.66-0.67-1.25-1.22-1.64c-0.59-0.39-1.24-0.54-1.88-0.32
				c-0.76,0.22-1.45,0.92-1.93,1.97c-2.3,5.03-5.84,7.49-10.8,7.49c-0.18,0-0.37,0-0.56-0.01c-3.8-0.04-7.64-0.03-11.38-0.01
				c-1.88,0-3.76,0.01-5.65,0.01c-2.52,0-3.37,0.85-3.37,3.36v18.6c0.11,6.8,1.95,12.16,5.48,15.94c3.37,3.65,4.64,7.59,4.11,12.78
				c-0.09,0.56-0.09,1.14-0.01,1.66c0.04,1.09,0.01,2.1-0.03,3.1c-0.06,1.99-0.12,3.87,0.3,5.77c1.72,7.64,3.45,15.3,5.19,22.96
				c2.33,10.28,4.67,20.58,6.98,30.9c0.32,1.45,0.68,2.91,1.04,4.37c1.42,5.81,2.89,11.82,2.43,18.06
				c-0.24,1.54-0.65,2.24-2.39,2.24H36.44c-1.91,0-2.29-0.92-2.29-2.39c0.1-4.51,0.1-8.83,0.1-13.41c-0.11-2.9-1.4-3.27-2.5-3.27
				c-1.11,0-2.6,0.34-2.6,3.18c0,4.42,0,8.99,0.1,13.49c0,0.63-0.06,1.42-0.61,1.93c-0.54,0.5-1.33,0.53-1.91,0.48
				c-4.11-0.12-8.29-0.12-12.4,0c-1.49,0-2.4-0.38-2.4-2.29c0.04-5.79,0.03-11.59,0.01-17.38c-0.02-7.68-0.03-15.64,0.08-23.46
				c0.19-15.66,11.95-30.07,27.35-33.5c0.65-0.14,1.41-0.28,1.95,0.18c0.51,0.41,0.58,1.11,0.58,1.81c-0.06,4.99-0.04,10-0.02,14.85
				c0.01,2.47,0.02,4.93,0.02,7.39c0,1.32-0.44,2.1-1.57,2.77c-2.98,1.54-4.57,4-4.75,7.33c-0.26,4.26,2.75,8.08,7.15,9.08
				c4.11,0.84,8.4-1.6,9.97-5.63c1.5-3.88-0.12-8.38-3.85-10.68c-0.14-0.1-0.28-0.17-0.42-0.25c-0.65-0.35-1.63-0.88-1.52-2.39
				c0.06-5.2,0.04-10.48,0.02-15.57c-0.01-2.59-0.02-5.17-0.02-7.76c0-1,0.25-1.75,1.51-2.16c1.86-0.52,1.78-2.13,1.66-2.81
				C49.86,104.66,49,104,47.46,104C47.11,103.98,46.75,103.98,46.39,103.98z M76.5,163.38l-0.8-1.9
				c-0.88-2.08-10.03-41.89-10.21-44.38l-0.08-1.07l1,0.41c6.62,2.77,13.06,2.72,19.69-0.19l1.2-0.53L87.02,117
				c-1.99,8.89-3.98,17.63-5.98,26.39c-1.36,5.98-2.72,11.95-4.09,17.98L76.5,163.38z M66.99,118.1c1.1,5.95,7.11,32.19,9.24,40.46
				c1.18-5.19,2.35-10.32,3.52-15.47c1.9-8.34,3.8-16.67,5.7-25.13C79.24,120.39,73.17,120.41,66.99,118.1z M95.09,154.79
				c-2.2-0.1-3.62-1.67-3.73-4.06c-0.49-9.83,3.05-15.33,12.2-18.97c0.37-0.1,0.45-0.14,0.45-0.62c0-6.69,0-13.61,0.09-20.42
				c0-0.27,0-0.39-0.56-0.62c-1.97-0.5-2.95-2.11-2.6-4.36c0.16-1.38,1.03-3.05,4.3-3.05l0,0c0.11,0,0.23,0,0.34,0
				c9.73,0,19.28,3.76,26.94,10.62l0.89,0.79l-1.14,0.34c-2.39,0.7-4.51,1.55-6.49,2.63l-0.38,0.21l-0.34-0.26
				c-3.87-2.86-8.07-4.82-12.5-5.82c-0.65-0.17-0.78-0.09-0.8-0.08l0,0c0,0-0.12,0.13-0.12,0.78c0.1,5.24,0.1,10.57,0,15.82v0.23
				l-0.16,0.18c-2.86,3.35-5.32,7.24-7.09,11.25l-0.1,0.22l-0.22,0.1c-3.05,1.49-5,4.53-5.09,7.94v2.96
				C98.9,153.26,97.47,154.79,95.09,154.79z M105.25,104c-2.46,0-2.89,1.02-2.99,1.91c-0.25,1.6,0.31,2.56,1.71,2.92
				c0.8,0.34,1.45,0.76,1.45,1.89c-0.09,6.8-0.09,13.72-0.09,20.41c0,0.38,0,1.51-1.35,1.88c-8.57,3.41-11.76,8.37-11.3,17.64
				c0.09,1.75,0.96,2.74,2.44,2.82c1.61,0,2.48-0.98,2.57-2.91v-2.95c0.1-3.84,2.24-7.27,5.61-9.02c1.78-3.97,4.22-7.83,7.04-11.16
				c0.1-5.16,0.09-10.39,0-15.55c0-0.63,0.06-1.4,0.61-1.82c0.54-0.43,1.24-0.31,1.92-0.18c4.48,1.01,8.73,2.96,12.66,5.81
				c1.63-0.85,3.35-1.58,5.23-2.19c-7.19-6.07-16.28-9.51-25.18-9.51C105.47,104,105.36,104,105.25,104L105.25,104z M44.3,148.39
				c-1.95,0-3.62-1.58-3.73-3.61c-0.06-1.07,0.31-2.08,1.05-2.86c0.72-0.76,1.71-1.19,2.77-1.19c2.08,0,3.82,1.75,3.82,3.82
				c0,2.11-1.67,3.83-3.73,3.83C44.43,148.37,44.37,148.39,44.3,148.39z M44.4,142.05c-0.69,0-1.34,0.28-1.82,0.78
				c-0.48,0.5-0.72,1.18-0.69,1.88c0.08,1.35,1.13,2.35,2.43,2.35c0.05,0,0.09,0,0.14,0c1.36,0,2.44-1.13,2.44-2.51
				C46.9,143.19,45.76,142.05,44.4,142.05z M76.15,113.5c-5.26,0-9.91-2.21-12.46-5.95l-0.14-0.23c-0.36-0.63-0.74-1.29-0.74-2.16
				V92.9l0.94,0.45c8.21,3.87,16.34,3.92,24.84,0.09l0.93-0.41v12.33c0,0.67-0.32,1.19-0.59,1.6c-0.08,0.13-0.17,0.27-0.25,0.41
				c-2.52,3.83-7.14,6.09-12.39,6.13C76.25,113.5,76.2,113.5,76.15,113.5z M64.13,94.98v10.18c0,0.52,0.25,0.94,0.57,1.5l0.11,0.19
				c2.28,3.32,6.52,5.33,11.34,5.33c0.05,0,0.09,0,0.14,0c4.81-0.04,9.02-2.08,11.26-5.47c0.05-0.12,0.16-0.3,0.27-0.47
				c0.24-0.38,0.39-0.62,0.39-0.89v-10.3C79.98,98.51,72.1,98.46,64.13,94.98z M76.42,91.31c-0.82,0-1.66-0.05-2.49-0.14
				c-11.65-1.31-20.32-10.49-20.61-21.82c-0.12-2.97-0.1-5.95-0.08-8.83c0.01-2.17,0.03-4.35-0.01-6.51c0-1.58,0.63-2.21,2.19-2.21
				c3.14,0.04,6.27,0.03,9.3,0.03c1.68-0.01,3.35,0,5.02-0.03c4.57,0,8.25-1.59,11.26-4.86c0.44-0.53,0.92-1.01,1.49-1.01
				c0.58,0,1.02,0.41,1.3,0.72c2.99,3.48,6.73,5.17,11.4,5.17c0.49,0,0.96-0.04,1.49-0.04c0.61,0,1.29,0.1,1.77,0.56
				c0.58,0.56,0.66,1.4,0.66,2.22c-0.14,1.88-0.12,3.67-0.11,5.77c0.01,0.72,0.01,1.49,0.01,2.29c-0.03,0.91-0.01,1.84-0.01,2.79
				c0.02,2.66,0.05,5.69-0.68,8.67C95.66,84.27,86.5,91.31,76.42,91.31z M55.41,53.11c-0.79,0-0.86,0-0.86,0.88
				c0.05,2.16,0.03,4.35,0.02,6.53c-0.01,2.86-0.03,5.82,0.08,8.77v0.01c0.28,10.67,8.45,19.31,19.44,20.54
				c10.38,1.25,20.25-5.72,22.96-16.09c0.69-2.81,0.66-5.63,0.64-8.34c-0.01-0.96-0.01-1.9,0.01-2.81c0-0.79-0.01-1.54-0.01-2.28
				c-0.02-2.11-0.04-3.94,0.11-5.82c0-0.65-0.08-1.05-0.25-1.22c-0.16-0.16-0.5-0.17-1.16-0.18c-0.39,0.03-0.77,0.04-1.14,0.04
				c-5.04,0-9.22-1.9-12.43-5.64c-0.21-0.23-0.32-0.27-0.32-0.27c-0.03,0.04-0.24,0.28-0.38,0.44v0.01l-0.1,0.12
				c-3.29,3.58-7.29,5.32-12.24,5.32c-1.59-0.05-3.34,0-5.02,0.01C61.68,53.17,58.54,53.19,55.41,53.11z"/>
		</g>
		<g>
			<path class="st0" d="M31.7,69.43c0-7.67-0.01-15.34,0-23.01c0.05-22.26,15.62-40.55,37.59-44.2
				c24.62-4.09,48.32,13.95,50.95,38.8c0.17,1.58,0.32,3.16,0.32,4.74c0.03,16.47,0.02,32.93,0.02,49.4c0,2.65-1.19,4-3.37,3.88
				c-1.69-0.09-2.68-1.02-2.93-2.68c-0.1-0.65-0.05-1.32-0.05-1.98c0-16.07,0.05-32.14-0.02-48.21
				c-0.07-17.93-11.82-32.79-29.19-37.07c-23.56-5.8-46.77,12.12-46.96,36.37c-0.12,16.27-0.03,32.53-0.03,48.8
				c0,0.66,0.03,1.33-0.03,1.98c-0.18,1.78-1.43,2.91-3.17,2.89c-1.75-0.01-3.03-1.14-3.11-2.94c-0.09-2.18-0.03-4.36-0.03-6.55
				C31.69,82.92,31.69,76.17,31.7,69.43z"/>
			<path class="st0" d="M34.87,99.81c-0.01,0-0.03,0-0.04,0c-2.16-0.01-3.67-1.45-3.76-3.57c-0.06-1.59-0.06-3.19-0.05-4.75
				l0.01-1.82l-0.01-27.91c-0.01-5.11-0.01-10.23,0.01-15.34C31.09,23.73,46.77,5.28,69.18,1.56c11.93-1.93,24.39,1.19,34.22,8.67
				c9.85,7.49,16.23,18.69,17.5,30.73c0.16,1.53,0.32,3.17,0.33,4.8c0.02,16.47,0.02,32.93,0.01,49.4c0,1.64-0.42,2.87-1.25,3.65
				c-0.63,0.59-1.47,0.91-2.5,0.91c-0.1,0-0.21,0-0.32-0.01c-1.99-0.1-3.25-1.25-3.54-3.23c-0.09-0.54-0.08-1.07-0.06-1.6l0.01-0.48
				l0.01-14.84c0.01-11.12,0.03-22.25-0.02-33.37c-0.07-17.58-11.6-32.22-28.69-36.42C73.8,7,62.23,9.5,53.12,16.59
				c-9.06,7.05-14.31,17.58-14.39,28.88c-0.08,11.07-0.06,22.31-0.05,33.18c0.01,5.21,0.02,10.41,0.01,15.62l0.01,0.5
				c0.01,0.52,0.01,1.05-0.04,1.55C38.46,98.41,36.93,99.81,34.87,99.81z M76.21,2.31c-2.28,0-4.55,0.19-6.81,0.57
				C47.64,6.49,32.41,24.39,32.36,46.41c-0.01,5.11-0.01,10.23,0,15.34L32.35,91.5c-0.01,1.54-0.03,3.13,0.04,4.68
				c0.06,1.38,1.03,2.29,2.46,2.3c0.01,0,0.01,0,0.03,0c1.38,0,2.33-0.88,2.48-2.3c0.05-0.45,0.05-0.92,0.03-1.38v-0.53
				c0-5.21-0.01-10.41-0.02-15.61c-0.01-10.88-0.03-22.13,0.05-33.19c0.08-11.73,5.52-22.64,14.89-29.93
				c9.44-7.32,21.42-9.89,32.89-7.09c17.68,4.36,29.61,19.52,29.68,37.72c0.05,11.12,0.04,22.25,0.03,33.37l-0.02,15.34
				c-0.01,0.49-0.01,0.94,0.05,1.37c0.21,1.37,0.94,2.04,2.31,2.12c0.82,0,1.42-0.14,1.84-0.54c0.54-0.5,0.83-1.44,0.83-2.68
				c0.01-16.47,0.01-32.93-0.01-49.4c-0.01-1.57-0.17-3.16-0.33-4.67c-1.24-11.67-7.42-22.53-16.98-29.8
				C94.92,5.44,85.58,2.31,76.21,2.31z"/>
		</g>
	</g>
</g>
</svg>
