<?xml version="1.0" encoding="utf-8"?>
<!-- Generator: Adobe Illustrator 26.0.2, SVG Export Plug-In . SVG Version: 6.00 Build 0)  -->
<svg version="1.1" id="Layer_1" xmlns="http://www.w3.org/2000/svg" xmlns:xlink="http://www.w3.org/1999/xlink" x="0px" y="0px"
	 viewBox="0 0 200 200" style="enable-background:new 0 0 200 200;" xml:space="preserve">
<style type="text/css">
	.st0{fill:#1A73E8;}
	.st1{fill:#FFFFFF;}
</style>
<g>
	<g>
		<path class="st0" d="M154.31,152.99v-1.53c0-3.61,0.03-7.21,0-10.81c0.06-2.27-1.72-4.16-3.99-4.22
			c-2.27-0.06-4.16,1.72-4.22,3.99c0,0.08,0,0.16,0,0.23c-0.04,5.5-0.04,10.99,0,16.49c-0.05,2.2,1.69,4.02,3.89,4.06
			c0.03,0,0.06,0,0.09,0c5.58,0.05,11.16,0.05,16.74,0c1.7,0.03,3.22-1.06,3.73-2.68c0.79-2.11-0.27-4.45-2.38-5.25
			c-0.49-0.19-1.02-0.27-1.55-0.26c-4.03-0.05-8.06,0-12.3,0"/>
	</g>
	<g>
		<path class="st0" d="M100.06,67.57c-29.55,0-59.09,0.02-88.64-0.04c-1.78,0-2.35,0.36-2.35,2.27c0.07,32.39,0.05,64.77,0.05,97.16
			c0,7.02,3.91,10.95,10.88,10.95c29.28,0,58.55,0,87.83,0c0.68,0,1.36-0.04,2.03,0.02c1.81,0.16,3.06,1.46,3.1,3.15
			c0.04,1.76-1.26,3.13-3.17,3.3c-0.47,0.04-0.95,0.02-1.42,0.02c-29.55,0-59.09,0.01-88.64,0c-10.17,0-17.1-6.89-17.1-17.03
			c-0.01-42.73-0.01-85.46,0-128.19c0-10.15,6.92-17.03,17.08-17.05c4.6-0.01,9.2-0.04,13.79,0.02c1.22,0.02,1.62-0.28,1.62-1.57
			c-0.02-2.56-0.28-5.13,0.28-7.68c1.43-6.45,7.36-10.83,13.89-10.21c6.51,0.62,11.57,6.04,11.75,12.63c0.05,1.76,0.06,3.52,0,5.27
			c-0.04,1.06,0.16,1.56,1.4,1.56c7.71-0.05,15.42-0.05,23.12,0c1.15,0.01,1.48-0.33,1.49-1.48c0-2.49-0.28-5.01,0.23-7.48
			c1.36-6.62,7.24-11.06,13.86-10.49c6.58,0.57,11.68,6.05,11.83,12.75c0.04,1.76,0.05,3.52,0,5.27c-0.03,0.99,0.19,1.44,1.32,1.43
			c7.78-0.04,15.55-0.04,23.33,0c1.09,0.01,1.35-0.37,1.36-1.4c0.04-2.63-0.28-5.27,0.3-7.88c1.43-6.43,7.41-10.81,13.92-10.17
			c6.44,0.64,11.48,5.99,11.7,12.46c0.06,1.69,0.12,3.39-0.01,5.07c-0.11,1.47,0.28,1.98,1.86,1.94c4.59-0.12,9.19-0.06,13.79-0.04
			c9.87,0.04,16.82,6.99,16.82,16.9c0.02,27.52,0.01,55.04,0.01,82.55c0,0.41,0.02,0.81-0.02,1.22c-0.17,1.91-1.53,3.21-3.3,3.17
			c-1.68-0.04-2.98-1.29-3.15-3.1c-0.06-0.6-0.02-1.22-0.02-1.82c0-17.11-0.03-34.21,0.04-51.32c0.01-1.79-0.44-2.21-2.22-2.21
			C159.16,67.59,129.61,67.57,100.06,67.57z M99.96,61.08c29.41,0,58.83,0,88.24,0c0.47,0,0.95-0.04,1.42,0.01
			c0.97,0.1,1.28-0.29,1.27-1.26c-0.04-7.37,0.09-14.74-0.08-22.11c-0.11-4.84-4.2-8.88-9.03-9.04c-5.2-0.17-10.41-0.03-15.62-0.07
			c-0.97-0.01-1.3,0.31-1.27,1.27c0.06,1.89,0.06,3.79-0.01,5.68c-0.21,6.55-5.38,11.97-11.88,12.5
			c-6.47,0.53-12.31-3.8-13.73-10.16c-0.59-2.61-0.26-5.25-0.31-7.88c-0.02-1-0.22-1.42-1.34-1.42c-7.78,0.04-15.55,0.04-23.33,0
			c-1.11-0.01-1.37,0.4-1.34,1.41c0.06,1.89,0.06,3.79-0.01,5.68c-0.25,6.44-5.38,11.79-11.8,12.36
			C94.7,48.63,88.8,44.3,87.36,37.97c-0.58-2.55-0.32-5.12-0.3-7.68c0.01-1.31-0.35-1.71-1.69-1.7c-7.57,0.06-15.15,0.05-22.72,0.01
			c-1.19-0.01-1.71,0.23-1.62,1.55c0.11,1.75,0.06,3.52,0.01,5.27c-0.18,6.59-5.23,12-11.75,12.63c-6.5,0.63-12.46-3.77-13.89-10.21
			c-0.56-2.55-0.3-5.12-0.28-7.68c0.01-1.29-0.41-1.58-1.62-1.56c-4.66,0.06-9.33,0.01-14,0.03C13.2,28.65,9.14,32.73,9.13,39.06
			C9.11,45.69,9.2,52.32,9.07,58.94c-0.04,1.85,0.52,2.18,2.24,2.18C40.86,61.07,70.41,61.08,99.96,61.08z M54.56,25.59
			c0-3.18,0.02-6.35-0.01-9.53c-0.04-3.97-2.76-6.87-6.44-6.9c-3.7-0.03-6.51,2.84-6.53,6.79c-0.03,6.29-0.03,12.57,0,18.86
			c0.02,3.93,2.84,6.83,6.53,6.8c3.68-0.03,6.4-2.92,6.44-6.89C54.58,31.67,54.56,28.63,54.56,25.59z M106.49,25.4
			c0-3.18,0.03-6.35-0.01-9.53c-0.05-3.82-2.82-6.67-6.42-6.71c-3.7-0.03-6.52,2.83-6.54,6.77c-0.04,6.29-0.03,12.57,0,18.86
			c0.02,3.93,2.83,6.83,6.52,6.81c3.68-0.02,6.41-2.91,6.45-6.88C106.51,31.61,106.49,28.51,106.49,25.4z M145.44,25.38
			c0,3.11-0.02,6.22,0.01,9.33c0.03,3.97,2.76,6.87,6.44,6.89c3.69,0.03,6.51-2.86,6.53-6.8c0.04-6.29,0.04-12.57,0-18.86
			c-0.02-3.93-2.85-6.82-6.54-6.79c-3.69,0.03-6.39,2.91-6.43,6.9C145.42,19.16,145.44,22.27,145.44,25.38z"/>
		<path class="st0" d="M108.92,186.04c-0.09,0-0.18,0-0.26,0l-88.92-0.01c-11.02,0-18.73-7.67-18.73-18.65
			C1,124.66,1,81.92,1.02,39.19c0-10.97,7.69-18.65,18.69-18.67h1.73c4.01-0.04,8.03-0.04,12.04,0.03l-0.01-1.66
			c-0.06-2.05-0.12-4.16,0.35-6.33C35.42,5.33,42.11,0.3,49.45,1.1c7.33,0.7,13.01,6.8,13.21,14.2c0.05,1.74,0.06,3.49,0.01,5.22
			c7.75-0.01,15.25-0.01,22.75,0.03c0.01-0.71-0.01-1.24-0.03-1.77c-0.06-1.91-0.11-3.88,0.3-5.91c1.54-7.45,8.17-12.4,15.59-11.78
			c7.42,0.65,13.14,6.81,13.31,14.34c0.04,1.7,0.06,3.4,0,5.1c7.73-0.03,15.24-0.04,22.75,0.01c0.01-0.77-0.01-1.38-0.02-1.98
			c-0.05-1.95-0.1-3.97,0.36-6.03c1.61-7.23,8.34-12.29,15.66-11.42c7.25,0.72,12.91,6.76,13.16,14.02
			c0.06,1.51,0.13,3.41-0.01,5.25c-0.01,0.06-0.01,0.14-0.01,0.19c0.04,0,0.13,0,0.22,0c3.99-0.09,7.98-0.09,12-0.05l1.84,0.01
			c10.85,0.04,18.43,7.66,18.44,18.52c0.01,19.65,0.01,39.31,0.01,58.97v23.58c0.01,0.66,0.01,1.03-0.03,1.37
			c-0.24,2.74-2.18,4.64-4.95,4.64c-2.5-0.05-4.49-1.98-4.73-4.56c-0.04-0.51-0.04-1.01-0.04-1.52l0.01-0.46l-0.01-11.66
			c0-13.21-0.01-26.43,0.05-39.67c0-0.27-0.01-0.46-0.03-0.57c-0.08,0-0.27-0.01-0.57,0c-25.32,0.05-50.68,0.05-75.97,0.05H85.29
			c-24.63,0.01-49.25,0.01-73.87-0.04c-0.32,0.06-0.6,0.01-0.72,0.04c0.02,0.08,0,0.28,0,0.61c0.05,26.31,0.05,52.63,0.04,78.93
			v18.22c0,6.1,3.2,9.33,9.26,9.33l88.36,0.01c0.53-0.03,1.1-0.01,1.65,0.04c2.59,0.22,4.51,2.19,4.57,4.72
			c0.06,2.64-1.9,4.72-4.65,4.96C109.6,186.04,109.26,186.04,108.92,186.04z M26.61,23.75c-1.72,0-3.44,0-5.16,0.01h-1.72
			c-9.25,0.03-15.46,6.22-15.46,15.43c-0.01,42.73-0.01,85.46,0,128.19c0,9.22,6.22,15.4,15.48,15.4l88.64,0.01
			c0.63,0,0.96,0.01,1.29-0.03c1.03-0.09,1.69-0.74,1.67-1.64c-0.02-0.87-0.65-1.48-1.61-1.56c-0.45-0.05-0.89-0.06-1.31-0.03
			l-88.41-0.01c-7.83,0-12.51-4.7-12.51-12.58v-18.22c0.01-26.31,0.01-52.63-0.04-78.93c0-0.94,0.1-2.13,0.94-2.97
			c0.83-0.82,1.74-0.9,3.04-0.93c24.61,0.05,49.25,0.04,73.85,0.04h27.44c25.36,0.01,50.66,0.01,75.97-0.05
			c1.01,0,2.14,0.11,2.94,0.91c0.81,0.81,0.91,1.93,0.91,2.92c-0.06,13.24-0.05,26.45-0.05,39.66l0.01,11.66l-0.01,0.51
			c-0.01,0.38-0.01,0.77,0.03,1.17c0.09,0.96,0.7,1.6,1.57,1.62c0.01,0,0.03,0,0.04,0c0.88,0,1.51-0.66,1.6-1.69
			c0.03-0.25,0.02-0.51,0.01-0.75V98.01c0.01-19.65,0.01-39.31-0.01-58.97c-0.01-8.96-6.26-15.24-15.21-15.28l-1.84-0.01
			c-3.98-0.04-7.94-0.05-11.9,0.05c-0.8-0.05-1.97-0.06-2.77-0.9c-0.79-0.82-0.81-1.91-0.75-2.78c0.11-1.55,0.07-3.07,0-4.89
			c-0.19-5.65-4.6-10.35-10.24-10.92c-5.62-0.46-10.92,3.27-12.17,8.91c-0.37,1.67-0.33,3.41-0.29,5.25
			c0.02,0.76,0.04,1.53,0.03,2.31c-0.03,2.5-1.52,2.9-3,2.99c-7.75-0.05-15.53-0.03-23.3,0c-0.3,0.04-1.45,0.01-2.22-0.77
			c-0.69-0.71-0.75-1.61-0.73-2.32c0.06-1.74,0.04-3.47,0.01-5.19C111.21,9.63,106.76,4.82,101,4.33c-5.8-0.6-10.93,3.36-12.13,9.19
			c-0.34,1.65-0.29,3.35-0.23,5.15c0.02,0.67,0.04,1.34,0.04,2.02c-0.01,2.07-1.06,3.11-3.11,3.11c-7.7-0.05-15.4-0.05-23.11,0
			c-0.39,0-1.53,0-2.31-0.81c-0.69-0.72-0.75-1.64-0.73-2.43c0.06-1.71,0.05-3.44,0-5.16C59.26,9.62,54.84,4.86,49.14,4.32
			c-5.79-0.34-10.91,3.32-12.15,8.95c-0.39,1.76-0.34,3.59-0.28,5.51l0.04,1.8c0.01,0.7-0.08,1.69-0.81,2.41
			c-0.73,0.72-1.69,0.76-2.45,0.8C31.2,23.75,28.9,23.75,26.61,23.75z M166.5,20.89L166.5,20.89L166.5,20.89z M166.16,20.52
			L166.16,20.52L166.16,20.52z M11.32,62.75c-1.09,0-2.2-0.11-3-0.93c-0.81-0.84-0.89-1.99-0.87-2.92c0.09-4.4,0.08-8.81,0.06-13.21
			l-0.01-6.63c0.01-7.19,4.84-12.03,11.99-12.06h5.01c3,0.01,5.98,0.01,8.98-0.03c0.65-0.01,1.72,0.06,2.45,0.77
			c0.74,0.72,0.82,1.72,0.82,2.42l-0.04,1.8c-0.06,1.93-0.11,3.75,0.28,5.51c1.24,5.64,6.45,9.32,12.15,8.95
			c5.7-0.55,10.12-5.3,10.27-11.06c0.05-1.72,0.1-3.44-0.01-5.13c-0.03-0.39-0.1-1.57,0.71-2.43c0.73-0.75,1.69-0.76,2.55-0.84
			c7.56,0.05,15.12,0.06,22.69-0.01c0.81,0.09,1.76,0.08,2.5,0.82c0.74,0.74,0.84,1.72,0.83,2.51l-0.04,1.74
			c-0.06,1.95-0.11,3.79,0.3,5.57c1.26,5.54,6.5,9.5,12.06,8.82c5.67-0.49,10.11-5.15,10.33-10.8c0.08-1.85,0.07-3.7,0.01-5.57
			c-0.01-0.42-0.04-1.51,0.73-2.31c0.79-0.79,1.92-0.79,2.25-0.77c7.77,0.05,15.54,0.05,23.3,0c0.02,0,0.04,0,0.06,0
			c1.31,0,2.87,0.53,2.92,3.02c0.01,0.76-0.01,1.53-0.03,2.29c-0.04,1.84-0.09,3.58,0.29,5.25c1.26,5.63,6.29,9.39,12.02,8.9
			c5.73-0.47,10.2-5.16,10.38-10.93c0.06-1.86,0.06-3.73,0.01-5.58c-0.01-0.35-0.04-1.41,0.72-2.18c0.75-0.77,1.83-0.77,2.17-0.77
			c2,0.03,4.01,0.01,6,0c3.23,0,6.46-0.03,9.67,0.08c5.72,0.19,10.47,4.96,10.6,10.62c0.11,4.75,0.1,9.52,0.08,14.28
			c-0.01,2.62-0.01,5.25,0,7.86c0,0.38,0.01,1.51-0.84,2.27c-0.55,0.52-1.26,0.8-2.23,0.61c-0.22-0.03-0.47,0.01-0.72,0l-0.53,0.01
			H80.27C57.29,62.71,34.3,62.7,11.32,62.75z M19.51,30.26c-5.39,0.03-8.75,3.4-8.76,8.81l0.01,6.62c0.01,4.42,0.03,8.86-0.06,13.3
			c-0.01,0.24,0.01,0.42,0.01,0.52c0.11,0,0.3,0,0.61,0c22.99-0.05,45.96-0.05,68.95-0.04l108.35-0.01c0.22,0,0.42,0,0.64-0.01
			c0-2.6,0.01-5.05,0.01-7.48c0.01-4.74,0.03-9.47-0.08-14.2c-0.09-3.98-3.44-7.32-7.46-7.45c-3.18-0.09-6.36-0.09-9.55-0.08
			c-1.87,0.03-3.76,0.04-5.64,0c0.04,1.89,0.03,3.64-0.03,5.39c-0.23,7.42-5.98,13.46-13.37,14.07
			c-7.04,0.51-13.86-4.32-15.45-11.44c-0.46-2.07-0.42-4.08-0.37-6.03c0.02-0.66,0.03-1.32,0.03-1.98
			c-7.71,0.03-15.24,0.04-22.74-0.01c0.04,1.99,0.04,3.77-0.03,5.53c-0.28,7.29-5.99,13.26-13.28,13.92
			c-7.37,0.51-13.9-4.23-15.52-11.35c-0.49-2.18-0.44-4.31-0.38-6.38l0.04-1.67c0-0.03,0-0.04,0-0.06c-0.03-0.01-0.03-0.01-0.06,0
			c-7.55,0.08-15.14,0.08-22.71,0.01c0.08,1.89,0.03,3.56-0.01,5.25c-0.2,7.39-5.88,13.49-13.21,14.19
			c-7.32,0.77-14.03-4.23-15.63-11.46c-0.48-2.17-0.42-4.27-0.35-6.33l0.04-1.65c-3,0.04-5.99,0.01-9,0.03H19.51z M48.06,43.22
			c-2.21,0-4.25-0.85-5.76-2.41c-1.5-1.56-2.33-3.69-2.35-6c-0.03-6.3-0.03-12.59,0.01-18.89c0.01-2.38,0.89-4.56,2.46-6.12
			c1.48-1.46,3.49-2.27,5.64-2.27c0.03,0,0.04,0,0.06,0c4.54,0.03,8,3.69,8.04,8.51c0.02,2.23,0.01,4.46,0.01,6.68l-0.01,2.87
			l0.01,2.74c0,2.13,0.01,4.26-0.01,6.39c-0.04,4.82-3.51,8.48-8.05,8.51C48.11,43.22,48.09,43.22,48.06,43.22z M48.07,10.78
			c-1.31,0-2.47,0.46-3.36,1.33c-0.96,0.95-1.49,2.31-1.5,3.84c-0.04,6.28-0.04,12.56-0.01,18.84c0.01,1.48,0.52,2.81,1.44,3.77
			c0.88,0.91,2.1,1.42,3.42,1.42c0.01,0,0.02,0,0.03,0c2.81-0.03,4.8-2.19,4.83-5.29c0.02-2.12,0.01-4.23,0.01-6.36l-0.01-2.74
			l0.01-2.87c0-2.22,0.01-4.44-0.01-6.66c-0.03-3.09-2.02-5.26-4.82-5.29C48.1,10.78,48.08,10.78,48.07,10.78z M99.98,43.22
			c-2.21,0-4.25-0.86-5.75-2.42c-1.5-1.56-2.33-3.69-2.34-6c-0.03-6.3-0.03-12.59,0.01-18.89c0.01-2.38,0.89-4.56,2.47-6.12
			c1.48-1.46,3.47-2.26,5.62-2.26c0.03,0,0.06,0,0.09,0c4.51,0.05,7.96,3.61,8.02,8.3c0.03,2.26,0.03,4.5,0.02,6.76l-0.01,2.8
			l0.01,2.79c0,2.18,0.01,4.36-0.01,6.54c-0.04,4.83-3.52,8.48-8.07,8.49C100.02,43.22,100,43.22,99.98,43.22z M99.99,10.78
			c-1.29,0-2.47,0.47-3.35,1.33c-0.96,0.95-1.5,2.31-1.5,3.83c-0.04,6.28-0.04,12.56-0.01,18.84c0.01,1.48,0.52,2.83,1.43,3.78
			c0.88,0.91,2.09,1.42,3.42,1.42c0.01,0,0.02,0,0.03,0c2.83-0.01,4.81-2.18,4.84-5.27c0.02-2.17,0.01-4.34,0.01-6.5l-0.01-2.8
			l0.01-2.81c0.01-2.23,0.01-4.46-0.02-6.69c-0.04-2.93-2.06-5.08-4.81-5.11C100.02,10.78,100.01,10.78,99.99,10.78z M151.93,43.22
			c-0.03,0-0.04,0-0.06,0c-4.55-0.03-8.01-3.69-8.04-8.51c-0.02-2.18-0.01-4.36-0.01-6.54l0.01-2.79l-0.01-2.8
			c0-2.18-0.01-4.36,0.01-6.54c0.04-4.88,3.42-8.46,8.03-8.51c0.02,0,0.04,0,0.06,0c2.16,0,4.16,0.81,5.65,2.28
			c1.58,1.56,2.45,3.74,2.47,6.11c0.04,6.3,0.04,12.59,0,18.89c-0.01,2.38-0.89,4.56-2.47,6.12
			C156.07,42.41,154.07,43.22,151.93,43.22z M151.91,10.78c-0.01,0-0.02,0-0.03,0c-2.81,0.03-4.79,2.21-4.81,5.29
			c-0.02,2.17-0.01,4.34-0.01,6.5l0.01,2.81l-0.01,2.8c0,2.17-0.01,4.34,0.01,6.5c0.03,3.09,2.01,5.26,4.82,5.29
			c0.01,0,0.03,0,0.03,0c1.29,0,2.48-0.47,3.35-1.34c0.96-0.95,1.5-2.32,1.51-3.84c0.04-6.28,0.04-12.56,0-18.84
			c-0.01-1.52-0.54-2.88-1.5-3.83C154.4,11.26,153.2,10.78,151.91,10.78z"/>
	</g>
	<g>
		<path class="st0" d="M155.29,197.38c-23.52-0.01-42.29-18.85-42.3-42.47c-0.02-23.01,19.01-41.87,42.27-41.9
			c23.08-0.03,42.11,18.98,42.11,42.07C197.36,178.4,178.47,197.39,155.29,197.38z M155.24,190.9
			c19.45,0.03,35.56-15.98,35.63-35.42c0.08-19.78-15.88-35.97-35.46-35.98c-19.93,0-35.88,15.85-35.93,35.71
			C119.43,174.86,135.48,190.88,155.24,190.9z"/>
		<path class="st0" d="M155.32,199c-0.01,0-0.02,0-0.03,0c-24.2,0-43.91-19.78-43.93-44.08c-0.02-23.97,19.67-43.5,43.89-43.52
			c0.01,0,0.03,0,0.04,0c11.58,0,22.52,4.56,30.81,12.84c8.3,8.29,12.87,19.25,12.87,30.85c0,11.71-4.55,22.73-12.81,31.04
			S166.95,199,155.32,199z M155.3,114.64c-0.01,0-0.03,0-0.04,0c-22.43,0.03-40.66,18.09-40.65,40.28
			c0.02,22.9,17.89,40.84,40.68,40.84l0,0c0.01,0,0.02,0,0.03,0c10.76,0,20.91-4.23,28.55-11.92c7.65-7.7,11.87-17.91,11.87-28.75
			c0-10.73-4.23-20.87-11.92-28.55C176.14,118.86,166.02,114.64,155.3,114.64z M155.28,192.52c-0.01,0-0.03,0-0.04,0
			c-9.99-0.01-19.38-3.9-26.45-10.95c-7.07-7.06-10.96-16.42-10.93-26.34c0.04-20.59,16.89-37.34,37.55-37.34
			c9.84,0,19.11,3.88,26.12,10.92c7.11,7.14,11,16.62,10.96,26.7C192.41,175.93,175.73,192.52,155.28,192.52z M155.41,121.13
			c-18.88,0-34.26,15.29-34.31,34.09c-0.02,9.06,3.52,17.61,9.98,24.05c6.46,6.44,15.04,9.99,24.16,10c0.02,0,0.03,0,0.04,0
			c18.66,0,33.89-15.15,33.96-33.8c0.04-9.2-3.52-17.86-10.02-24.38C172.83,124.67,164.38,121.13,155.41,121.13z"/>
	</g>
	<g>
		<path class="st0" d="M41.56,106.52c-2.16,0-4.33,0.05-6.49-0.01c-3.67-0.1-6.39-2.79-6.46-6.45c-0.07-3.24-0.06-6.49,0-9.73
			c0.07-3.7,2.73-6.44,6.39-6.5c4.39-0.08,8.79-0.08,13.18,0c3.55,0.06,6.27,2.78,6.36,6.33c0.08,3.31,0.08,6.62,0,9.93
			c-0.08,3.66-2.81,6.32-6.49,6.42C45.89,106.56,43.73,106.52,41.56,106.52z M41.5,100.03c1.75,0,3.51-0.04,5.26,0.01
			c0.9,0.03,1.35-0.18,1.32-1.21c-0.06-2.43-0.06-4.86,0-7.29c0.02-0.97-0.3-1.28-1.27-1.27c-3.51,0.05-7.02,0.03-10.53,0.01
			c-0.81-0.01-1.24,0.17-1.22,1.11c0.05,2.5,0.04,4.99,0,7.49c-0.02,0.88,0.29,1.19,1.16,1.16C37.99,99.99,39.75,100.03,41.5,100.03
			z"/>
	</g>
	<g>
		<path class="st0" d="M80.49,106.52c-2.16,0-4.33,0.05-6.49-0.01c-3.66-0.1-6.37-2.8-6.44-6.46c-0.06-3.24-0.06-6.49,0-9.73
			c0.07-3.78,2.79-6.45,6.61-6.49c4.26-0.05,8.52-0.05,12.77,0c3.77,0.05,6.49,2.78,6.55,6.56c0.06,3.18,0.05,6.35,0,9.53
			c-0.07,3.89-2.78,6.54-6.72,6.61C84.68,106.55,82.59,106.52,80.49,106.52z M80.42,100.03c1.75,0,3.51-0.06,5.26,0.02
			c1.1,0.05,1.38-0.37,1.35-1.4c-0.06-2.36-0.05-4.72,0-7.08c0.02-0.94-0.25-1.31-1.24-1.29c-3.51,0.05-7.02,0.05-10.53,0
			c-1-0.01-1.26,0.35-1.24,1.29c0.05,2.36,0.06,4.72,0,7.08c-0.03,1.03,0.25,1.45,1.35,1.4C77.05,99.97,78.74,100.03,80.42,100.03z"
			/>
	</g>
	<g>
		<path class="st0" d="M119.47,83.81c2.16,0,4.33-0.05,6.49,0.01c3.67,0.09,6.4,2.77,6.48,6.43c0.07,3.31,0.08,6.63-0.01,9.93
			c-0.09,3.55-2.8,6.26-6.37,6.32c-4.39,0.08-8.79,0.08-13.18,0c-3.55-0.06-6.28-2.79-6.37-6.32c-0.08-3.38-0.09-6.76,0.01-10.14
			c0.1-3.46,2.79-6.09,6.26-6.21C115,83.74,117.24,83.81,119.47,83.81z M119.42,100.03c1.69,0,3.38-0.06,5.06,0.02
			c1.12,0.05,1.55-0.26,1.5-1.45c-0.09-2.29-0.09-4.59,0-6.88c0.05-1.2-0.4-1.47-1.51-1.45c-3.37,0.06-6.75,0.06-10.12,0
			c-1.03-0.02-1.43,0.25-1.4,1.35c0.08,2.36,0.08,4.72,0,7.08c-0.04,1.11,0.38,1.38,1.41,1.34
			C116.05,99.98,117.74,100.03,119.42,100.03z"/>
	</g>
	<g>
		<path class="st0" d="M158.48,106.52c-2.16,0-4.33,0.04-6.49-0.01c-3.77-0.09-6.48-2.8-6.54-6.58c-0.05-3.18-0.05-6.35,0-9.53
			c0.06-3.81,2.74-6.53,6.52-6.58c4.32-0.06,8.65-0.07,12.98,0c3.65,0.06,6.36,2.79,6.44,6.46c0.07,3.24,0.07,6.49,0,9.73
			c-0.08,3.76-2.81,6.42-6.62,6.49C162.67,106.55,160.57,106.52,158.48,106.52z M158.4,100.03c1.75,0,3.51-0.04,5.26,0.02
			c0.97,0.03,1.29-0.3,1.27-1.27c-0.05-2.43-0.04-4.86-0.01-7.29c0.01-0.82-0.18-1.22-1.11-1.21c-3.58,0.04-7.15,0.04-10.73,0
			c-0.88-0.01-1.18,0.29-1.16,1.16c0.04,2.43,0.07,4.86-0.01,7.29c-0.04,1.14,0.44,1.35,1.43,1.32
			C155.02,99.99,156.71,100.03,158.4,100.03z"/>
	</g>
	<g>
		<path class="st0" d="M41.58,113.02c2.16,0,4.33-0.05,6.49,0.01c3.67,0.09,6.39,2.77,6.47,6.43c0.07,3.31,0.08,6.63-0.01,9.93
			c-0.09,3.55-2.81,6.25-6.37,6.31c-4.39,0.08-8.79,0.08-13.18,0c-3.55-0.06-6.28-2.79-6.36-6.33c-0.08-3.38-0.09-6.76,0.01-10.14
			c0.1-3.46,2.79-6.09,6.26-6.21C37.12,112.96,39.35,113.02,41.58,113.02z M41.62,119.5c-1.69,0-3.38,0.06-5.06-0.02
			c-1.13-0.06-1.54,0.27-1.5,1.46c0.09,2.29,0.09,4.59,0,6.88c-0.05,1.2,0.41,1.46,1.51,1.44c3.37-0.06,6.75-0.06,10.12,0
			c1.03,0.02,1.43-0.26,1.4-1.35c-0.07-2.36-0.08-4.72,0-7.08c0.04-1.11-0.39-1.38-1.41-1.34C45,119.55,43.31,119.5,41.62,119.5z"/>
	</g>
	<g>
		<path class="st0" d="M80.53,113.02c2.16,0,4.33-0.05,6.49,0.01c3.67,0.09,6.39,2.77,6.47,6.43c0.07,3.31,0.08,6.63-0.01,9.93
			c-0.09,3.55-2.81,6.25-6.37,6.31c-4.39,0.08-8.79,0.08-13.18,0c-3.55-0.06-6.28-2.79-6.36-6.33c-0.08-3.38-0.09-6.76,0.01-10.14
			c0.1-3.46,2.79-6.09,6.26-6.21C76.07,112.96,78.3,113.02,80.53,113.02z M80.21,129.24c2.06,0,3.74-0.05,5.43,0.02
			c1.03,0.04,1.43-0.26,1.4-1.35c-0.07-2.36-0.08-4.72,0-7.08c0.04-1.11-0.39-1.36-1.41-1.34c-2.77,0.06-5.53,0.02-8.3,0.02
			c-3.3,0-3.31,0-3.29,3.26c0.02,2.08-0.7,4.87,0.35,6.05C75.61,130.17,78.45,129.05,80.21,129.24z"/>
	</g>
	<g>
		<path class="st0" d="M41.5,164.94c-2.03,0-4.06,0.02-6.08,0c-4.04-0.06-6.76-2.72-6.81-6.73c-0.04-3.11-0.04-6.22,0-9.33
			c0.06-3.92,2.74-6.61,6.66-6.65c4.19-0.05,8.38-0.04,12.57,0c3.91,0.04,6.64,2.73,6.71,6.61c0.05,3.18,0.06,6.35,0,9.53
			c-0.07,3.79-2.77,6.47-6.56,6.55C45.82,164.98,43.66,164.94,41.5,164.94z M41.53,158.45c1.75,0,3.51-0.04,5.26,0.02
			c0.93,0.03,1.32-0.23,1.3-1.24c-0.06-2.43-0.06-4.86,0-7.29c0.02-1-0.36-1.25-1.29-1.24c-3.44,0.04-6.88,0.05-10.32,0
			c-1.02-0.02-1.44,0.24-1.41,1.34c0.08,2.36,0.08,4.72,0,7.08c-0.04,1.1,0.37,1.39,1.4,1.35C38.15,158.4,39.84,158.45,41.53,158.45
			z"/>
	</g>
	<g>
		<path class="st0" d="M80.55,142.22c2.16,0,4.33-0.05,6.49,0.01c3.66,0.1,6.37,2.79,6.45,6.45c0.07,3.24,0.07,6.49,0,9.73
			c-0.07,3.77-2.8,6.46-6.6,6.51c-4.26,0.05-8.52,0.06-12.77,0c-3.78-0.05-6.49-2.78-6.55-6.56c-0.05-3.18-0.05-6.35,0-9.53
			c0.06-3.9,2.76-6.55,6.71-6.61C76.36,142.2,78.45,142.22,80.55,142.22z M80.53,158.45c1.69,0,3.38-0.07,5.06,0.02
			c1.2,0.07,1.48-0.4,1.44-1.51c-0.07-2.29-0.07-4.59,0-6.88c0.03-1.04-0.27-1.41-1.36-1.39c-3.44,0.06-6.88,0.06-10.32,0
			c-1.11-0.02-1.37,0.39-1.34,1.41c0.06,2.36,0.05,4.72,0,7.08c-0.02,0.95,0.27,1.32,1.25,1.28
			C77.02,158.4,78.78,158.45,80.53,158.45z"/>
	</g>
	<g>
		<path class="st0" d="M119.22,113.01c1.96,0,3.92-0.01,5.88,0c2.58,0.02,4.06,1.18,4.09,3.2c0.03,2.02-1.47,3.28-4,3.29
			c-3.52,0.02-7.03,0.06-10.55-0.02c-1.32-0.03-1.78,0.35-1.69,1.69c0.11,1.61,0.01,3.24,0.03,4.87c0.02,1.59-0.45,3.25,1.89,3.97
			c1.25,0.38,1.62,1.95,1.21,3.33c-0.45,1.52-1.54,2.34-3.15,2.4c-3.2,0.13-6.28-2.69-6.4-6.08c-0.13-3.51-0.12-7.03,0-10.55
			c0.12-3.35,2.82-5.93,6.2-6.06C114.89,112.95,117.06,113.02,119.22,113.01C119.22,113.02,119.22,113.02,119.22,113.01z"/>
	</g>
</g>
</svg>
