<?xml version="1.0" encoding="utf-8"?>
<!-- Generator: Adobe Illustrator 26.0.2, SVG Export Plug-In . SVG Version: 6.00 Build 0)  -->
<svg version="1.1" id="Layer_1" xmlns="http://www.w3.org/2000/svg" xmlns:xlink="http://www.w3.org/1999/xlink" x="0px" y="0px"
	 viewBox="0 0 200 200" style="enable-background:new 0 0 200 200;" xml:space="preserve">
<style type="text/css">
	.st0{fill:#1A73E8;}
	.st1{fill:#FFFFFF;}
</style>
<g>
	<g id="Group_773_00000031193343229812539600000010649247048947548084_" transform="translate(-299.003 616.167)">
		<g>
			<g id="Group_693_00000133504427988337452620000004490375396669929146_" transform="translate(0 -0.001)">
				<g id="Path_1361_00000163777529515949320020000001415635932818427320_">
					<path class="st0" d="M411.14-417.17l-25.88-0.27c-4.11-1.46-7.06-5.05-7.7-9.35c-0.68-2.93-1.49-6.2-2.31-9.47
						c-0.66-2.64-1.32-5.29-1.94-7.95c-2.78-1.07-5.29-2.13-7.75-3.24c-4.46,2.74-8.73,5.29-12.99,7.82
						c-1.64,1.4-4.42,2.19-7.23,1.95c-2.83-0.28-5.38-1.65-7.17-3.85l-13.81-13.79c-4.2-2.97-5.27-9.65-1.82-14.41l2.38-3.9
						c1.81-3,3.61-6,5.38-9.03c-0.51-1.28-1.08-2.63-1.66-3.99c-0.54-1.28-1.08-2.55-1.6-3.84l-7.46-1.81
						c-3.43-0.85-6.86-1.7-10.31-2.5c-3.95-0.57-7.53-3.52-8.99-7.63l-0.27-1.56l0.27-25.88c1.46-4.13,5.07-7.08,9.4-7.7
						c3.1-0.74,6.59-1.6,10.07-2.47l7.27-1.79c0.82-2.26,1.69-4.37,2.61-6.44c-2.83-4.63-5.46-9.04-8.09-13.44l-0.82-1.37
						c-3.36-3.97-2.72-10.74,1.83-14.51l13.71-13.7c1.12-1.71,3.57-3.27,6.37-3.77c2.82-0.48,5.64,0.14,7.98,1.77l2.35,1.48
						c4.02,2.41,8.05,4.81,12.05,7.26c2.93-1.33,5.62-2.48,8.31-3.55c1.47-6.24,2.99-12.27,4.52-18.32c0.49-5.1,5.67-9.27,11.44-8.7
						l19.86-0.02c5.16-0.64,10.37,3.41,11.1,9.1c1.61,6.33,3.07,12.14,4.45,17.94c2.67,1.02,5.14,2.06,7.57,3.16
						c4.47-2.74,8.74-5.28,13.01-7.82c2.38-1.85,5.11-2.68,7.9-2.42c2.79,0.27,5.31,1.6,7.09,3.77l13.97,14
						c4.15,2.95,5.19,9.57,1.76,14.28l-1.55,2.54c-2.22,3.72-4.43,7.45-6.7,11.13c1.22,2.69,2.25,5.16,3.22,7.62
						c6.37,1.52,12.44,3.03,18.51,4.55c5.13,0.71,9.04,5.74,8.43,11.37l0.02,19.95c0.64,5.16-3.46,10.37-9.16,11.05
						c-5.6,1.43-11.71,2.96-17.86,4.44c-1.02,2.61-2.02,5.01-3.08,7.36c2.74,4.45,5.3,8.76,7.86,13.06c1.65,2.04,2.5,4.77,2.24,7.56
						c-0.26,2.8-1.6,5.33-3.76,7.12c-4.6,4.61-9.29,9.3-13.99,13.97c-3.07,4.19-9.76,5.16-14.46,1.65l-4.53-2.72
						c-2.85-1.72-5.7-3.44-8.59-5.13c-2.58,1.03-5.27,2.18-7.93,3.39c-1.53,5.91-3,11.82-4.38,17.76c-0.55,3.96-3.51,7.56-7.63,9.02
						L411.14-417.17z M387.86-426.53h22.24c0.54-0.37,0.91-0.96,1.01-1.63c1.52-6.69,3.1-12.97,4.73-19.24
						c0.76-2.29,2.15-3.91,4.01-4.88c3.49-1.61,6.84-3.05,10.24-4.37c2.1-0.73,4.26-0.59,6.07,0.32c3.5,2.02,6.68,3.94,9.85,5.85
						l4.69,2.82c1.19,0.86,2.01,0.73,2.43,0.16c5.13-5.17,9.81-9.85,14.47-14.56l1-1.28l-0.68-1.43c-3.03-5.09-5.78-9.71-8.59-14.28
						c-1.44-2.04-1.58-5.06-0.2-7.47c1.07-2.42,2.27-5.28,3.39-8.17c0.66-2.29,2.93-4.28,5.64-4.72c6.09-1.46,12.51-3.07,18.91-4.66
						c1.17-0.18,1.6-0.73,1.53-1.33l-0.03-20.98c0.09-1.1-0.32-1.62-0.9-1.71c-6.87-1.69-13.29-3.29-19.7-4.82
						c-2.46-0.38-4.72-2.35-5.55-5.06c-1.01-2.59-2.21-5.44-3.48-8.25c-1.25-2.09-1.12-5.26,0.54-7.65
						c2.25-3.66,4.59-7.58,6.92-11.49l1.53-2.58c0.88-1.21,0.77-1.97,0.23-2.36l-14.61-14.53c-0.85-0.99-1.69-1.1-2.11-0.74
						l-1.39,0.89c-4.56,2.71-9.13,5.42-13.65,8.2c-2.02,1.47-5.1,1.66-7.6,0.27c-2.47-1.12-5.31-2.31-8.18-3.4
						c-2.49-0.76-4.55-3.16-4.95-6.03c-1.35-5.56-2.85-11.54-4.34-17.52l-0.38-1.64c-0.07-0.6-0.63-1.05-1.25-0.97l-20.84,0.04
						c-1.22-0.07-1.77,0.35-1.83,0.99c-1.72,7.01-3.31,13.33-4.81,19.69c-0.46,2.55-2.46,4.76-5.16,5.56
						c-2.72,1.09-5.81,2.41-8.85,3.79c-2.08,1.26-5.27,1.12-7.67-0.57c-3.94-2.42-8.17-4.94-12.38-7.46l-2.13-1.27
						c-1.31-0.94-2.29-0.77-2.63-0.26l-14.28,14.39c-1.18,0.99-1.26,1.85-0.78,2.44l1.23,1.95c2.83,4.74,5.67,9.48,8.54,14.21
						c1.41,1.93,1.6,4.95,0.27,7.37c-0.96,2.13-1.99,4.61-2.88,7.13c-0.73,2.51-3.09,4.55-5.93,4.95l-7.57,1.89
						c-3.53,0.88-7.06,1.76-10.61,2.58c-0.98,0.16-1.65,0.55-2.03,1.11V-505c0.37,0.55,0.96,0.93,1.64,1.03
						c3.86,0.88,7.34,1.74,10.82,2.6l8.31,2.03c2.47,0.43,4.65,2.38,5.43,5.05c0.44,1.07,1.07,2.54,1.68,4
						c0.73,1.7,1.44,3.4,2.1,5.11c0.73,2.07,0.62,4.15-0.27,6c-2.13,3.69-4.14,7.03-6.15,10.38l-2.33,3.89
						c-0.9,1.26-0.77,2.08-0.18,2.5l14.5,14.39c0.86,1.03,1.81,1.12,2.29,0.76c5.13-3.11,9.69-5.83,14.21-8.61
						c2-1.46,5.05-1.65,7.51-0.31c2.57,1.18,5.48,2.38,8.41,3.52c2.37,0.65,4.48,3,4.95,5.84c0.61,2.58,1.32,5.44,2.04,8.29
						c0.83,3.33,1.66,6.66,2.43,10.01C386.91-427.56,387.3-426.91,387.86-426.53z M374.07-443.91c0.1,0.04,0.2,0.09,0.31,0.12
						C374.28-443.83,374.18-443.87,374.07-443.91z M373.13-444.97c0.01,0.04,0.01,0.07,0.02,0.12
						C373.15-444.9,373.13-444.94,373.13-444.97z M364.74-447.81c0.04,0.02,0.09,0.04,0.13,0.06
						C364.83-447.77,364.79-447.8,364.74-447.81z M366.61-448.09c-0.09,0.05-0.17,0.1-0.26,0.16
						C366.44-447.98,366.52-448.03,366.61-448.09z M467.54-482.42c-0.02,0.05-0.04,0.1-0.07,0.15
						C467.5-482.31,467.52-482.36,467.54-482.42z M467.16-484.2c0.05,0.07,0.1,0.15,0.14,0.22
						C467.25-484.05,467.21-484.13,467.16-484.2z M327.98-490.24c0.09,0.02,0.17,0.05,0.26,0.06L327.98-490.24z M470.17-490.28
						c-0.05,0.01-0.1,0.02-0.16,0.04C470.06-490.25,470.12-490.26,470.17-490.28z M326.71-491.27c0.01,0.04,0.03,0.09,0.05,0.14
						C326.75-491.17,326.73-491.22,326.71-491.27z M471.38-491.66c-0.04,0.1-0.08,0.21-0.12,0.31
						C471.31-491.45,471.35-491.55,471.38-491.66z M326.67-540.87c-0.02,0.07-0.05,0.14-0.07,0.21
						C326.62-540.73,326.65-540.8,326.67-540.87z M471.23-541.14c0.01,0.04,0.03,0.08,0.04,0.12
						C471.26-541.06,471.24-541.1,471.23-541.14z M327.83-542.01c-0.05,0.01-0.1,0.02-0.15,0.04L327.83-542.01z M469.81-542.08
						c0.09,0.02,0.19,0.04,0.28,0.07C469.99-542.05,469.9-542.07,469.81-542.08z M330.15-547.39c0.05,0.1,0.11,0.2,0.18,0.29
						C330.26-547.2,330.2-547.3,330.15-547.39z M467.37-548.83c-0.02,0.04-0.04,0.07-0.06,0.1
						C467.33-548.76,467.35-548.79,467.37-548.83z M330.02-549.11c-0.03,0.04-0.05,0.09-0.07,0.15
						C329.97-549.01,330-549.06,330.02-549.11z M467.25-550.51c0.05,0.11,0.1,0.22,0.15,0.33
						C467.36-550.29,467.31-550.41,467.25-550.51z M364.25-584.17c-0.12,0.04-0.23,0.1-0.35,0.16
						C364.02-584.06,364.14-584.12,364.25-584.17z M365.6-584.15c0.03,0.02,0.07,0.05,0.1,0.07
						C365.67-584.11,365.64-584.13,365.6-584.15z M431.47-584.42c-0.08,0.04-0.16,0.09-0.24,0.15
						C431.31-584.32,431.39-584.37,431.47-584.42z M432.92-584.62c0.04,0.02,0.08,0.04,0.12,0.06
						C433-584.58,432.96-584.6,432.92-584.62z M373.11-587.18c-0.02,0.06-0.03,0.13-0.04,0.19
						C373.08-587.05,373.1-587.11,373.11-587.18z M424.83-587.51c0.01,0.04,0.02,0.08,0.03,0.12
						C424.86-587.42,424.85-587.46,424.83-587.51z M374.02-588.35c-0.04,0.01-0.07,0.02-0.12,0.05
						C373.94-588.32,373.98-588.33,374.02-588.35z M423.66-588.46c0.08,0.03,0.15,0.05,0.23,0.09
						C423.81-588.41,423.74-588.44,423.66-588.46z M399.02-472.79c-11.62,0-22.48-4.49-30.67-12.66
						c-8.19-8.18-12.71-19.06-12.72-30.63c-0.02-23.9,19.39-43.37,43.29-43.39c0.02,0,0.04,0,0.05,0c11.56,0,22.43,4.5,30.61,12.66
						c8.18,8.17,12.71,19.04,12.72,30.61h0.02c-0.04,23.82-19.44,43.29-43.26,43.41C399.05-472.79,399.03-472.79,399.02-472.79z
						 M398.97-550.11c-0.01,0-0.02,0-0.04,0c-18.74,0.02-33.97,15.28-33.94,34.02c0.01,9.07,3.55,17.61,9.98,24.01
						c6.42,6.4,14.94,9.93,24,9.93c0.01,0,0.02,0,0.04,0c18.7-0.09,33.91-15.35,33.97-34.01h-0.02c-0.01-9.08-3.55-17.61-9.98-24.02
						C416.55-546.59,408.03-550.11,398.97-550.11z"/>
				</g>
			</g>
		</g>
	</g>
</g>
</svg>
