<?xml version="1.0" encoding="utf-8"?>
<!-- Generator: Adobe Illustrator 26.0.2, SVG Export Plug-In . SVG Version: 6.00 Build 0)  -->
<svg version="1.1" id="Layer_1" xmlns="http://www.w3.org/2000/svg" xmlns:xlink="http://www.w3.org/1999/xlink" x="0px" y="0px"
	 viewBox="0 0 200 200" style="enable-background:new 0 0 200 200;" xml:space="preserve">
<style type="text/css">
	.st0{fill:#1A73E8;}
	.st1{fill:#FFFFFF;}
</style>
<g>
	<g>
		<path class="st0" d="M197.47,176.51c-1.18,3.75-2.53,7.39-4.92,10.61c-9.13,12.27-27.5,14.26-38.52,3.65
			c-13.41-12.9-26.42-26.22-39.58-39.38c-1.81-1.81-1.73-3.45,0.02-5.34c0.56-0.6,1.16-1.19,1.62-1.86c1-1.48,0.78-3.33-0.44-4.52
			c-1.2-1.17-3.1-1.34-4.55-0.37c-0.47,0.31-0.88,0.72-1.29,1.12c-2.55,2.45-3.9,2.45-6.43-0.09c-2.1-2.11-4.16-4.27-6.29-6.46
			c-0.42,0.29-0.7,0.44-0.91,0.65c-5.17,5.16-10.38,10.29-15.45,15.54c-0.58,0.6-0.71,1.94-0.59,2.88
			c1.62,12.42-1.83,23.23-10.3,32.41c-17.02,18.45-48.16,15.37-61.3-6.04c-13.44-21.91-3.41-49.7,20.96-57.91
			c5.8-1.95,11.79-2.47,17.85-1.38c1.33,0.24,2.21-0.1,3.18-1.06c22.83-22.89,45.7-45.75,68.59-68.58c0.94-0.94,1.27-1.75,1.07-3.13
			c-3.06-21.6,10.69-40.52,32.21-44.42c0.92-0.17,1.85-0.32,2.77-0.48c2.29,0,4.57,0,6.86,0c1.6,0.31,3.2,0.65,4.81,0.94
			c1.56,0.28,3.02,0.72,3.54,2.43c0.54,1.77-0.41,3-1.59,4.18c-6.13,6.08-12.21,12.21-18.34,18.29c-0.76,0.76-1.01,1.38-0.62,2.47
			c1.56,4.42,2.96,8.9,4.55,13.31c0.27,0.74,1.09,1.53,1.84,1.8c4.3,1.54,8.67,2.87,12.96,4.4c1.29,0.46,2.04,0.19,2.95-0.74
			c5.98-6.05,12.02-12.04,18.04-18.06c1.15-1.15,2.29-2.24,4.13-1.66c1.81,0.57,2.26,2.02,2.51,3.67c0.13,0.85,0.45,1.68,0.68,2.51
			c0,3.68,0,7.37,0,11.05c-0.12,0.42-0.3,0.83-0.37,1.26c-3.35,20.69-23.75,35.27-44.39,31.67c-1.2-0.21-1.99,0.05-2.84,0.92
			c-4.9,4.98-9.86,9.89-14.79,14.83c-0.34,0.34-0.63,0.73-0.91,1.07c0.14,0.22,0.18,0.35,0.27,0.44c1.93,1.93,3.85,3.87,5.78,5.8
			c2.87,2.88,2.89,4.06,0.12,6.97c-1.87,1.96-2.05,3.95-0.52,5.56c1.57,1.64,3.67,1.48,5.7-0.43c2.89-2.72,4.07-2.71,6.82,0.04
			c12.3,12.3,24.61,24.59,36.89,36.9c1.16,1.16,2.24,2.42,3.28,3.7c2.55,3.1,3.75,6.84,4.95,10.57
			C197.47,169.65,197.47,173.08,197.47,176.51z M160.19,9.34c-5.92-0.72-11.37,0.44-16.44,3.11c-13.23,6.97-19.74,20.72-16.81,35.48
			c0.42,2.13,0.11,3.71-1.49,5.31c-24.07,23.98-48.1,48.01-72.09,72.06c-1.53,1.54-3.09,1.74-5.15,1.51
			c-3.7-0.41-7.51-0.94-11.15-0.47c-18.82,2.4-31.47,20.14-27.85,38.69c4.47,22.93,31.18,33.95,50.44,20.81
			c11.13-7.59,16.37-20.58,13.63-33.92c-0.42-2.02-0.17-3.62,1.39-5.17c24.11-24.03,48.18-48.1,72.23-72.19
			c1.45-1.45,2.92-1.9,4.96-1.46c17.27,3.76,32.86-6.54,37.71-21.44c1.22-3.76,1.76-7.59,1.17-11.82c-0.66,0.35-0.93,1.02-1.41,1.5
			c-4.83,4.87-9.73,9.67-14.51,14.59c-1.59,1.63-3.18,1.97-5.3,1.23c-5.69-1.98-11.41-3.87-17.14-5.72
			c-1.92-0.62-3.09-1.73-3.71-3.68c-1.82-5.67-3.69-11.33-5.67-16.95c-0.82-2.32-0.45-4.03,1.37-5.79
			C149.72,19.88,154.92,14.58,160.19,9.34z M106.74,134.24c0.44-0.26,0.97-0.6,1.51-0.9c3.99-2.21,8.86-1.5,12.1,1.75
			c3.17,3.18,3.94,8.29,1.55,12.09c-0.87,1.38-0.53,2,0.46,2.98c11.48,11.42,22.93,22.89,34.39,34.34c0.62,0.62,1.29,1.2,1.61,1.49
			c9.33-9.33,18.55-18.56,27.74-27.76c-12.3-12.25-24.81-24.71-37.36-37.2c-5.48,3.04-9.88,2.77-13.56-0.93
			c-3.58-3.6-3.83-8.04-0.84-13.41c-1.71-1.74-3.37-3.45-4.93-5.04c-9.17,9.21-18.39,18.47-27.61,27.73
			C103.33,130.88,104.99,132.52,106.74,134.24z M165.04,189.77c6.28,2.79,15.48,0.63,20.47-4.58c6.03-6.3,6.88-15.79,4.4-20.27
			C181.63,173.19,173.31,181.51,165.04,189.77z"/>
		<path class="st0" d="M171.4,199c-6.88,0-13.45-2.59-18.3-7.26c-9.81-9.44-19.56-19.25-28.99-28.73
			c-3.53-3.56-7.07-7.11-10.61-10.66c-1.58-1.59-2.86-4.12-0.01-7.2l0.42-0.45c0.38-0.41,0.77-0.8,1.08-1.25
			c0.61-0.92,0.51-2.05-0.27-2.81c-0.75-0.74-1.96-0.83-2.87-0.22c-0.39,0.27-0.75,0.62-1.1,0.96c-3.1,2.99-5.28,2.95-8.32-0.11
			c-1.42-1.42-2.83-2.87-4.24-4.34l-1.25-1.28l-2.64,2.63c-4.23,4.21-8.45,8.42-12.61,12.71c-0.14,0.16-0.33,0.96-0.22,1.77
			c1.66,12.78-1.92,24.05-10.65,33.51c-8.39,9.08-20.53,13.57-33.18,12.36c-12.74-1.24-23.77-8.02-30.26-18.61
			c-6.63-10.81-8.01-23.67-3.8-35.29c4.2-11.59,13.49-20.56,25.49-24.59c6.12-2.05,12.35-2.52,18.51-1.44c0.83,0.16,1.3,0,1.98-0.68
			c22.84-22.89,45.7-45.75,68.59-68.59c0.68-0.68,0.82-1.09,0.69-1.99c-3.14-22.18,11.17-41.93,33.3-45.94l2.79-0.48L162.02,1
			l1.55,0.28c1.16,0.24,2.33,0.47,3.49,0.67c1.23,0.22,3.77,0.67,4.59,3.37c0.84,2.76-1.03,4.62-1.92,5.52
			c-2.96,2.94-5.91,5.89-8.86,8.83c-3.16,3.16-6.32,6.31-9.49,9.46c-0.49,0.49-0.47,0.58-0.3,1.06c0.72,2.03,1.4,4.06,2.07,6.1
			c0.8,2.41,1.61,4.82,2.47,7.2c0.12,0.35,0.64,0.86,1.02,0.99c2.21,0.79,4.44,1.53,6.67,2.26c2.1,0.7,4.21,1.39,6.3,2.13
			c0.71,0.26,0.93,0.2,1.54-0.41c3.99-4.04,8.01-8.05,12.02-12.05l6.02-6.01c1.13-1.13,2.85-2.82,5.49-1.99
			c2.85,0.89,3.24,3.5,3.43,4.75c0.08,0.51,0.24,1,0.39,1.51l0.31,1.21l-0.19,11.86c-0.07,0.22-0.15,0.43-0.19,0.66
			c-1.68,10.4-7.47,19.58-16.3,25.87c-8.79,6.26-19.32,8.71-29.65,6.92c-0.77-0.14-1.1-0.03-1.65,0.53
			c-3.53,3.59-7.09,7.14-10.65,10.7l-4.15,4.15c-0.05,0.05-0.09,0.09-0.13,0.13l5.27,5.26c3.41,3.41,3.44,5.39,0.14,8.85
			c-2.03,2.13-0.89,3.31-0.52,3.7c1.06,1.1,2.32,0.93,3.81-0.48c3.4-3.22,5.43-3.18,8.7,0.07l5.27,5.27
			c10.54,10.53,21.09,21.07,31.62,31.63c1.22,1.23,2.34,2.55,3.37,3.8c2.7,3.28,3.96,7.2,5.18,10.99l0.08,0.44l-0.07,10.69
			c-1.16,3.7-2.58,7.59-5.13,11.01c-4.71,6.32-11.98,10.32-19.96,10.98C172.91,198.97,172.15,199,171.4,199z M113.15,137.33
			c1.25,0,2.49,0.47,3.43,1.38c1.71,1.67,1.96,4.24,0.62,6.24c-0.39,0.58-0.87,1.09-1.35,1.59l-0.4,0.43
			c-1.3,1.41-1.31,2.22-0.06,3.48c3.54,3.55,7.08,7.11,10.62,10.67c9.42,9.48,19.16,19.28,28.94,28.69c4.82,4.65,11.51,7,18.48,6.43
			c7.21-0.59,13.78-4.2,18.03-9.9c2.14-2.87,3.41-6.09,4.65-10.01v-9.88c-1.17-3.66-2.31-7.09-4.64-9.93
			c-0.98-1.19-2.06-2.46-3.2-3.61c-10.53-10.55-21.07-21.09-31.62-31.63L151.4,116c-2.22-2.22-2.59-2.23-4.96-0.01
			c-2.59,2.44-5.5,2.57-7.59,0.39c-2.05-2.15-1.86-4.92,0.52-7.42c2.28-2.39,2.27-2.72-0.1-5.09l-6.17-6.35l-0.45-0.81l0.72-1.17
			c0.24-0.3,0.49-0.6,0.77-0.87l4.13-4.14c3.56-3.55,7.11-7.1,10.64-10.68c1.17-1.16,2.41-1.56,4.03-1.29
			c9.64,1.69,19.42-0.62,27.63-6.46c8.24-5.86,13.64-14.42,15.21-24.09c0.05-0.35,0.17-0.72,0.29-1.08l0.05-0.17V36.08l-0.18-0.62
			c-0.19-0.63-0.38-1.25-0.48-1.9c-0.26-1.69-0.63-2.29-1.59-2.59c-0.95-0.28-1.5,0.05-2.78,1.33l-6.02,6.02
			c-4.02,4-8.03,8.01-12.01,12.04c-1.35,1.34-2.64,1.65-4.36,1.06c-2.07-0.74-4.15-1.42-6.24-2.11c-2.24-0.74-4.5-1.48-6.72-2.28
			c-1.14-0.4-2.26-1.5-2.65-2.62c-0.87-2.4-1.68-4.82-2.49-7.25c-0.67-2.02-1.35-4.04-2.05-6.05c-0.69-1.92,0.14-3.08,0.95-3.87
			c3.17-3.14,6.33-6.29,9.48-9.45c2.95-2.95,5.9-5.9,8.86-8.83c1.22-1.23,1.53-1.92,1.25-2.84c-0.26-0.85-0.86-1.22-2.48-1.5
			c-1.18-0.21-2.37-0.45-3.55-0.68l-1.29-0.26l-6.6,0.03l-2.53,0.46c-20.67,3.74-34.06,22.19-31.12,42.9
			c0.25,1.75-0.17,2.98-1.45,4.27c-22.89,22.84-45.75,45.7-68.59,68.59c-1.3,1.29-2.6,1.75-4.36,1.42
			c-5.72-1.03-11.51-0.58-17.18,1.34c-11.21,3.77-19.89,12.14-23.81,22.96c-3.93,10.84-2.63,22.85,3.57,32.97
			c6.04,9.86,16.34,16.18,28.22,17.34c11.86,1.14,23.13-3.05,30.94-11.51c8.16-8.84,11.51-19.38,9.96-31.33
			c-0.16-1.21-0.01-2.98,0.95-3.98c4.17-4.31,8.41-8.53,12.65-12.75l2.82-2.81c0.21-0.2,0.43-0.36,0.72-0.54l1.31-0.91l2.86,2.95
			c1.4,1.46,2.8,2.89,4.21,4.31c1.99,2.01,2.5,2.03,4.54,0.07c0.46-0.45,0.95-0.9,1.47-1.26
			C111.2,137.61,112.18,137.33,113.15,137.33z M134.44,96.91l-0.09,0.1l0.12-0.07L134.44,96.91z M41.42,192.8
			c-4.39,0-8.81-0.85-13.01-2.58c-10.67-4.38-18.33-13.7-20.52-24.93c-1.83-9.39,0.23-18.81,5.8-26.53
			c5.54-7.67,13.78-12.54,23.19-13.74c3.43-0.44,6.94-0.04,10.34,0.34l1.13,0.12c1.96,0.2,2.99-0.07,4.06-1.12
			c24-24.05,48.02-48.08,72.09-72.06c1.19-1.19,1.48-2.26,1.12-4.09c-3.02-15.25,3.85-29.74,17.51-36.94
			c5.47-2.89,11.27-3.96,17.23-3.26l2.74,0.33l-6.52,6.51c-3.73,3.74-7.46,7.48-11.27,11.14c-1.42,1.36-1.69,2.5-1.04,4.36
			c1.79,5.09,3.6,10.49,5.68,16.99c0.48,1.5,1.3,2.32,2.84,2.81c6.71,2.16,12.17,3.98,17.18,5.73c1.67,0.56,2.69,0.35,3.89-0.9
			c2.93-3.01,5.89-5.97,8.86-8.93c1.89-1.88,3.78-3.77,5.66-5.66c0.12-0.12,0.22-0.27,0.32-0.41c0.3-0.41,0.71-0.96,1.4-1.34
			l1.7-0.91l0.27,1.91c0.57,4.08,0.17,8.14-1.23,12.42c-5.36,16.44-22.25,26.04-39.28,22.33c-1.58-0.32-2.58-0.03-3.71,1.1
			c-24.05,24.09-48.12,48.16-72.24,72.2c-1.11,1.1-1.39,2.17-1.02,3.95c2.85,13.86-2.59,27.39-14.2,35.3
			C54.72,190.82,48.11,192.8,41.42,192.8z M40.1,127.51c-0.98,0-1.94,0.05-2.88,0.17c-8.67,1.1-16.26,5.6-21.36,12.65
			c-5.13,7.11-7.03,15.78-5.34,24.44c2.01,10.34,9.08,18.92,18.9,22.96c9.8,4.02,20.79,2.89,29.46-3.01
			c10.69-7.29,15.7-19.76,13.07-32.54c-0.54-2.66,0-4.64,1.76-6.39c24.11-24.03,48.18-48.1,72.24-72.19
			c1.77-1.77,3.74-2.34,6.19-1.82c15.72,3.43,31.23-5.41,36.15-20.54c0.95-2.9,1.39-5.6,1.35-8.3c-1.67,1.68-3.35,3.35-5.03,5.02
			c-2.95,2.95-5.91,5.91-8.83,8.9c-1.93,1.98-4.06,2.49-6.71,1.56c-4.99-1.74-10.43-3.55-17.12-5.7c-2.34-0.75-3.84-2.24-4.57-4.55
			c-2.08-6.47-3.88-11.85-5.66-16.91c-1-2.84-0.45-5.12,1.71-7.2c3.8-3.64,7.51-7.36,11.23-11.09l2.49-2.48
			c-4.38-0.11-8.61,0.98-12.79,3.16c-12.77,6.73-18.95,19.78-16.12,34.04c0.54,2.68-0.03,4.7-1.85,6.52
			c-24.07,23.99-48.1,48.01-72.09,72.06c-2.04,2.04-4.19,2.13-6.25,1.9l-1.14-0.13C44.66,127.77,42.35,127.51,40.1,127.51z
			 M171.25,192.33c-2.4,0-4.73-0.43-6.75-1.33l-1.79-0.79l27.52-27.5l0.86,1.56c2.88,5.21,1.72,15.24-4.61,21.86
			C182.7,190.07,176.77,192.33,171.25,192.33z M167.52,189.2c5.54,1.4,12.9-0.63,17.02-4.94c4.96-5.18,6.04-12.6,4.88-16.95
			L167.52,189.2z M158.4,187.86l-1.21-1.12c-0.37-0.33-0.89-0.8-1.38-1.29l-10.11-10.11c-8.09-8.08-16.17-16.17-24.28-24.23
			c-1.07-1.06-2.08-2.38-0.64-4.65c2.02-3.21,1.44-7.59-1.37-10.42c-2.82-2.84-7.04-3.45-10.49-1.53c-0.36,0.2-0.7,0.41-1.01,0.6
			l-1.36,0.81l-6.65-6.53l29.53-29.65l6.59,6.73l-0.49,0.88c-2.73,4.89-2.53,8.64,0.61,11.81c3.21,3.21,7,3.45,11.96,0.7l0.88-0.49
			L188,158.23L158.4,187.86z M113.16,130.71c2.97,0,5.9,1.17,8.14,3.43c3.7,3.7,4.42,9.49,1.74,13.76
			c-0.29,0.47-0.29,0.64-0.29,0.64c0.01,0.05,0.09,0.2,0.56,0.68c8.11,8.07,16.19,16.15,24.28,24.24l10.11,10.1
			c0.2,0.2,0.41,0.41,0.61,0.59l25.88-25.91l-35.7-35.55c-5.59,2.81-10.38,2.26-14.26-1.63c-3.81-3.83-4.32-8.58-1.53-14.12
			l-3.29-3.37l-25.7,25.81l3.23,3.18c0.22-0.13,0.44-0.26,0.68-0.39C109.37,131.19,111.27,130.71,113.16,130.71z"/>
	</g>
	<g>
		<path class="st0" d="M19.84,2.34c7.01,4.05,13.96,8.21,21.07,12.1c2.58,1.41,4.15,3.18,4.48,6.08c0.76,6.66,4.1,11.65,8.98,16.27
			c11.38,10.79,22.27,22.08,33.37,33.17c0.49,0.49,1.07,0.9,1.52,1.27c-1.67,1.6-3.17,3.02-4.81,4.58
			c-0.15-0.14-0.64-0.59-1.12-1.06C70.08,61.51,56.82,48.29,43.62,34.99c-1.05-1.06-1.84-2.57-2.3-4.01
			c-0.94-2.95-1.54-6.01-2.35-9.01c-0.15-0.56-0.46-1.27-0.91-1.53c-6.19-3.6-12.42-7.14-18.45-10.59
			c-3.26,3.23-6.39,6.34-9.66,9.58c3.45,6.04,6.98,12.27,10.59,18.45c0.29,0.5,1.07,0.84,1.69,1.01c2.38,0.67,4.76,1.39,7.19,1.8
			c2.83,0.48,4.94,1.88,6.95,3.9c12.74,12.86,25.56,25.62,38.37,38.41c0.49,0.49,1.09,0.88,1.76,1.41c-1.8,1.61-3.35,3-5.38,4.81
			c-0.18-0.3-0.47-1.07-1-1.6c-12.87-12.91-25.74-25.8-38.67-38.65c-0.84-0.84-2.05-1.46-3.2-1.8c-3.1-0.92-6.31-1.48-9.37-2.48
			c-1.26-0.41-2.65-1.37-3.31-2.48c-4.19-7.03-8.2-14.16-12.24-21.27c-1.2-2.1-1.08-3.33,0.55-4.97c4.06-4.11,8.15-8.19,12.25-12.26
			c0.53-0.52,1.2-0.91,1.8-1.35C18.57,2.34,19.2,2.34,19.84,2.34z"/>
		<path class="st0" d="M70.79,91.31l-1.04-1.8c-0.14-0.3-0.34-0.7-0.58-0.95C56.3,75.66,43.43,62.77,30.5,49.92
			c-0.62-0.61-1.61-1.16-2.63-1.47c-1.35-0.39-2.71-0.72-4.08-1.05c-1.8-0.43-3.59-0.87-5.34-1.44c-1.67-0.55-3.27-1.76-4.05-3.08
			C11,37.18,7.72,31.39,4.43,25.6l-2.28-4.01c-1.49-2.62-1.27-4.53,0.75-6.58c4.07-4.12,8.16-8.2,12.27-12.27
			c0.41-0.41,0.91-0.76,1.4-1.1L17.49,1h2.71l6.33,3.68c4.9,2.86,9.96,5.82,15.01,8.58c3.18,1.74,4.82,4,5.18,7.11
			c0.65,5.68,3.29,10.44,8.57,15.44c8.05,7.63,15.97,15.63,23.63,23.38c3.25,3.28,6.5,6.56,9.77,9.82c0.29,0.3,0.62,0.54,0.93,0.78
			l1.65,1.37l-6.82,6.51l-0.93-0.89c-0.39-0.37-0.77-0.72-1.14-1.08l-7.09-7.09C64.4,57.74,53.51,46.86,42.67,35.94
			c-1.14-1.16-2.07-2.77-2.63-4.55c-0.6-1.87-1.06-3.78-1.52-5.69c-0.27-1.14-0.54-2.26-0.85-3.39c-0.12-0.43-0.28-0.7-0.33-0.75
			c-5.03-2.93-10.15-5.84-15.15-8.7l-2.34-1.34l-8.2,8.14l1.63,2.85c2.76,4.85,5.57,9.79,8.44,14.69c0.05,0.05,0.35,0.24,0.9,0.4
			l1.08,0.3c1.96,0.55,3.98,1.12,5.97,1.46c2.86,0.49,5.22,1.81,7.68,4.29C47.59,54,57.9,64.29,68.22,74.59l7.48,7.46
			c0.28,0.28,0.59,0.51,0.93,0.77l1.96,1.54L70.79,91.31z M18.35,3.69L18.1,3.86c-0.36,0.24-0.72,0.49-1.02,0.79
			c-4.11,4.07-8.2,8.14-12.25,12.25c-1.12,1.13-1.29,1.68-0.33,3.36l2.28,4.01c3.28,5.77,6.55,11.54,9.95,17.24
			c0.45,0.76,1.54,1.56,2.58,1.9c1.68,0.55,3.4,0.96,5.13,1.38c1.4,0.33,2.82,0.68,4.21,1.09c1.46,0.43,2.83,1.21,3.76,2.14
			c12.94,12.84,25.81,25.74,38.68,38.64c0.14,0.14,0.27,0.3,0.38,0.45l2.94-2.63c-0.21-0.18-0.41-0.35-0.6-0.54l-7.47-7.46
			C56,66.19,45.68,55.89,35.42,45.53c-2.06-2.07-3.92-3.13-6.22-3.52c-2.13-0.36-4.22-0.96-6.25-1.53l-1.07-0.3
			c-0.85-0.24-1.96-0.72-2.49-1.63c-2.87-4.91-5.68-9.85-8.45-14.71l-2.65-4.64L19.4,8.17l4.12,2.36
			c5.01,2.86,10.13,5.78,15.23,8.75c0.87,0.51,1.31,1.56,1.53,2.34c0.31,1.14,0.58,2.3,0.87,3.45c0.45,1.85,0.89,3.7,1.46,5.51
			c0.43,1.37,1.16,2.64,1.98,3.48C55.41,44.97,66.3,55.84,77.19,66.71l7.1,7.09c0.05,0.05,0.11,0.11,0.16,0.16l2.78-2.64
			c-0.14-0.13-0.3-0.26-0.43-0.4c-3.27-3.27-6.52-6.55-9.77-9.83c-7.65-7.72-15.56-15.72-23.58-23.31
			c-5.78-5.47-8.67-10.74-9.39-17.1c-0.26-2.25-1.37-3.71-3.8-5.05c-5.09-2.78-10.17-5.75-15.08-8.62l-5.7-3.31H18.35z"/>
	</g>
	<g>
		<path class="st0" d="M41.43,178.03c-2.99,0-5.97-0.04-8.96,0.02c-1.69,0.03-2.91-0.6-3.78-2.06c-3.05-5.12-6.12-10.24-9.21-15.34
			c-0.88-1.46-0.88-2.82,0-4.28c3.09-5.1,6.16-10.21,9.2-15.34c0.83-1.4,2-2.03,3.61-2.03c6.16,0.02,12.32,0.02,18.48,0
			c1.61,0,2.76,0.64,3.59,2.04c3.04,5.13,6.12,10.24,9.21,15.34c0.88,1.46,0.86,2.84-0.01,4.29c-3.09,5.1-6.16,10.21-9.22,15.33
			c-0.87,1.46-2.09,2.08-3.78,2.05C47.53,177.99,44.48,178.03,41.43,178.03z M41.65,145.51c-2.22,0-4.45-0.1-6.67,0.06
			c-0.73,0.05-1.68,0.57-2.06,1.18c-2.21,3.48-4.34,7.02-6.36,10.61c-0.34,0.6-0.32,1.72,0.02,2.32c2.03,3.59,4.15,7.13,6.36,10.61
			c0.38,0.6,1.33,1.18,2.03,1.2c4.38,0.11,8.77,0.11,13.15,0c0.7-0.02,1.65-0.58,2.03-1.18c2.21-3.48,4.25-7.07,6.42-10.58
			c0.53-0.86,0.61-1.48,0.04-2.39c-2.18-3.5-4.3-7.04-6.36-10.61c-0.56-0.97-1.25-1.26-2.3-1.23
			C45.84,145.56,43.74,145.51,41.65,145.51z"/>
		<path class="st0" d="M50.7,179.39c-0.05,0-0.1,0-0.14,0c-2.13-0.04-4.25-0.04-6.37-0.02l-2.75,0.01l-2.69-0.01
			c-2.07-0.01-4.15-0.01-6.24,0.02c-0.05,0-0.1,0-0.14,0c-2.13,0-3.75-0.91-4.82-2.72c-3.05-5.13-6.11-10.23-9.2-15.33
			c-1.14-1.88-1.14-3.79,0-5.68c3.1-5.1,6.16-10.21,9.2-15.33c1.05-1.78,2.64-2.68,4.73-2.68c0.01,0,0.02,0,0.03,0
			c6.14,0.02,12.31,0.01,18.48,0c0.01,0,0.02,0,0.03,0c2.07,0,3.66,0.91,4.73,2.7c3.05,5.13,6.12,10.23,9.2,15.33
			c1.14,1.87,1.14,3.79-0.01,5.68c-3.08,5.11-6.16,10.21-9.21,15.33C54.44,178.48,52.82,179.39,50.7,179.39z M32.27,140.34
			c-1.14,0-1.84,0.39-2.42,1.37c-3.05,5.13-6.12,10.25-9.21,15.35c-0.63,1.04-0.63,1.85,0,2.89c3.09,5.1,6.16,10.22,9.21,15.34
			c0.61,1.02,1.35,1.49,2.6,1.4c2.1-0.03,4.19-0.03,6.29-0.02l2.68,0.01l2.74-0.01c2.14,0,4.27-0.01,6.43,0.02
			c1.18,0.03,1.99-0.38,2.6-1.39c3.05-5.13,6.13-10.24,9.22-15.34c0.63-1.04,0.63-1.88,0.01-2.89c-3.09-5.11-6.17-10.22-9.21-15.34
			c-0.59-0.99-1.38-1.28-2.43-1.38c-6.16,0.01-12.33,0.01-18.5,0C32.29,140.34,32.28,140.34,32.27,140.34z M41.54,172.91
			c-2.21,0-4.42-0.03-6.61-0.09c-1.13-0.02-2.47-0.8-3.12-1.81c-2.22-3.49-4.37-7.08-6.4-10.68c-0.58-1.01-0.58-2.64-0.01-3.65
			c1.97-3.49,4.12-7.08,6.39-10.67c0.6-0.94,1.93-1.71,3.1-1.79c1.62-0.12,3.24-0.08,4.9-0.07l3.97,0.02
			c1.38-0.01,2.78,0.02,4.15-0.03c1.72-0.04,2.73,0.55,3.5,1.9c2.05,3.56,4.16,7.09,6.34,10.57c1.02,1.65,0.52,2.91-0.05,3.81
			c-0.9,1.46-1.78,2.93-2.66,4.41c-1.23,2.07-2.47,4.14-3.76,6.18c-0.62,0.99-2,1.79-3.14,1.8
			C45.95,172.88,43.74,172.91,41.54,172.91z M37.86,146.83c-0.93,0-1.86,0.02-2.79,0.08c-0.33,0.03-0.89,0.35-1.02,0.56
			c-2.24,3.54-4.38,7.09-6.33,10.55c-0.11,0.21-0.1,0.79,0.01,0.99c2.01,3.57,4.13,7.12,6.33,10.56c0.16,0.26,0.7,0.56,0.92,0.57
			c4.34,0.12,8.74,0.12,13.09,0c0.23,0,0.77-0.31,0.93-0.55c1.28-2.02,2.5-4.07,3.73-6.12c0.89-1.48,1.77-2.97,2.68-4.45
			c0.32-0.51,0.3-0.58,0.05-0.97c-2.19-3.51-4.31-7.07-6.38-10.65c-0.27-0.45-0.44-0.66-1.1-0.55c-1.42,0.03-2.82,0.01-4.24,0.03
			l-4-0.03C39.11,146.84,38.48,146.83,37.86,146.83z"/>
	</g>
	<g>
		<path class="st0" d="M66.47,137.63c-1.32-1.34-2.74-2.78-4.04-4.1c23.73-23.72,47.53-47.5,71.39-71.34
			c1.21,1.33,2.6,2.85,3.87,4.24C114.04,90.07,90.25,113.85,66.47,137.63z"/>
	</g>
	<g>
		<path class="st0" d="M134.03,137.8c1.28-1.24,2.77-2.69,4.18-4.06c10.69,10.69,21.46,21.45,32.26,32.25
			c-1.43,1.33-2.94,2.73-4.28,3.97C155.62,159.38,144.83,148.6,134.03,137.8z"/>
	</g>
</g>
</svg>
