<?xml version="1.0" encoding="utf-8"?>
<!-- Generator: Adobe Illustrator 22.1.0, SVG Export Plug-In . SVG Version: 6.00 Build 0)  -->
<svg version="1.1" id="Layer_1" xmlns="http://www.w3.org/2000/svg" xmlns:xlink="http://www.w3.org/1999/xlink" x="0px" y="0px"
	 width="32px" height="32px" viewBox="0 0 32 32" style="enable-background:new 0 0 32 32;" xml:space="preserve">
<style type="text/css">
	.st0{fill:#1960A3;}
	.st1{fill:#14A45C;}
</style>
<g>
	<path class="st0" d="M29.7,18.6c3.4,2.2,1,7.5-2.6,5.9c-1.6-0.7-2.1-3-3.8-3.5c-1.7-0.6-3.5,1.1-2.8,2.8c0.7,1.7,3,2.3,3.5,4.3
		c0.4,1.9-1,3.7-3,3.9c-4.8,0.4-2.3-4.8-3.5-7.1c-0.6-1.1-1.8-1.8-3-1.1c-1.2,0.8-1.2,2.2-1.1,3.4c0.1,2.7-2.1,6.4-5.2,3.8
		c-4-3.3,2.4-5.3,2.8-8c0.2-1.5-1.2-2.7-2.7-2.4c-1.8,0.4-2.6,2.8-4.3,3.3c-3.6,1.2-5.8-4.2-2.3-5.8c1.6-0.7,3.2,0.2,4.8-0.3
		c1.5-0.4,2.6-2.2,1.2-3.5c-2-1.9-8.4,0.8-7.5-4.5C0.6,8.1,2.2,7,3.9,7.3c2.2,0.4,2.7,2.9,4.6,3.7c1.6,0.7,3.3-0.6,3-2.4
		c-0.3-1.8-2.6-2.5-3.3-4.1c-1.5-3.5,3.5-6,5.6-3.1c1.2,1.7-0.2,3.8,0.6,5.6c0.5,1.1,2.1,2.2,3.2,1.3c2.3-1.8-0.7-9,4.7-7.8
		c2.1,0.5,3.2,2.7,2.2,4.6C23.4,6.8,20.3,7.6,21,10c0.6,2.1,2.7,1.7,4,0.6c1.4-1.3,2.5-3.2,4.8-2.5c1.5,0.5,2.6,2.4,2.2,3.9
		c-0.7,2.5-3.2,2.2-5.2,2.3c-1.5,0-4.6,0.8-3,3C24.8,18.8,28.1,18.1,29.7,18.6z M17.6,13c-0.1-0.9-0.1-2.3-1.5-2.6
		c-1.4-0.3-1.9,1.5-1.8,2.5c0,0.8,0.4,2.4,1.4,2.7C16.7,16,17.8,14.4,17.6,13z M13,19.9c0.6-0.6,1.9-1.5,1.8-2.5
		c-0.2-1.3-1.5-1.3-2.5-0.9c-0.9,0.4-2.3,1.9-2.1,2.9C10.5,20.6,12.3,20.9,13,19.9z M17.1,16.6c-1.2,0.2,2,5.7,4.1,3.3
		C22.7,18.2,18.5,15.5,17.1,16.6z"/>
	<path class="st1" d="M17.6,13c-0.1-0.9-0.1-2.3-1.5-2.6c-1.4-0.3-1.9,1.5-1.8,2.5c0,0.8,0.4,2.4,1.4,2.7C16.7,16,17.8,14.4,17.6,13
		z M13,19.9c0.6-0.6,1.9-1.5,1.8-2.5c-0.2-1.3-1.5-1.3-2.5-0.9c-0.9,0.4-2.3,1.9-2.1,2.9C10.5,20.6,12.3,20.9,13,19.9z M17.1,16.6
		c-1.2,0.2,2,5.7,4.1,3.3C22.7,18.2,18.5,15.5,17.1,16.6z"/>
</g>
</svg>
