<?xml version="1.0" encoding="utf-8"?>
<!-- Generator: Adobe Illustrator 22.1.0, SVG Export Plug-In . SVG Version: 6.00 Build 0)  -->
<svg version="1.1" id="Layer_1" xmlns="http://www.w3.org/2000/svg" xmlns:xlink="http://www.w3.org/1999/xlink" x="0px" y="0px"
	 width="32px" height="32px" viewBox="0 0 32 32" style="enable-background:new 0 0 32 32;" xml:space="preserve">
<style type="text/css">
	.st0{fill:#14A45C;}
	.st1{fill:#1960A3;}
</style>
<g>
	<g>
		<g>
			<path class="st0" d="M10.4,8.2c-1.4,0-2.5,1.1-2.5,2.5s1.1,2.5,2.5,2.5s2.5-1.1,2.5-2.5S11.8,8.2,10.4,8.2z M12,10l-1.7,1.8
				c-0.1,0.1-0.1,0.1-0.2,0.1H9.9c-0.1,0-0.2,0-0.2-0.1L8.9,11c-0.1-0.1-0.1-0.1,0-0.2l0.3-0.3c0.1-0.1,0.1-0.1,0.2,0L9.9,11
				C9.9,11,10,11,10.1,11l1.4-1.4c0.1-0.1,0.1-0.1,0.2,0L12,9.9C12.1,9.9,12.1,10,12,10z"/>
		</g>
		<rect x="14.2" y="8.2" class="st1" width="9.8" height="1.7"/>
		<g>
			<rect x="15.8" y="11.7" class="st1" width="8.3" height="1.7"/>
		</g>
	</g>
	<g>
		<g>
			<path class="st0" d="M10.4,15.7c-1.4,0-2.5,1.1-2.5,2.5s1.1,2.5,2.5,2.5s2.5-1.1,2.5-2.5S11.8,15.7,10.4,15.7z M12,17.5l-1.7,1.8
				c-0.1,0.1-0.1,0.1-0.2,0.1H9.9c-0.1,0-0.2,0-0.2-0.1l-0.8-0.8c-0.1-0.1-0.1-0.1,0-0.2L9.2,18c0.1-0.1,0.1-0.1,0.2,0l0.5,0.5
				c0.1,0.1,0.1,0.1,0.2,0l1.4-1.4c0.1-0.1,0.1-0.1,0.2,0l0.3,0.3C12.1,17.4,12.1,17.5,12,17.5z"/>
		</g>
		<rect x="14.2" y="15.7" class="st1" width="9.8" height="1.7"/>
		<g>
			<rect x="15.8" y="19.2" class="st1" width="8.3" height="1.7"/>
		</g>
	</g>
	<g>
		<g>
			<path class="st0" d="M10.4,23.2c-1.4,0-2.5,1.1-2.5,2.5s1.1,2.5,2.5,2.5s2.5-1.1,2.5-2.5S11.8,23.2,10.4,23.2z M12,25l-1.7,1.8
				c-0.1,0.1-0.1,0.1-0.2,0.1H9.9c-0.1,0-0.2,0-0.2-0.1L8.9,26c-0.1-0.1-0.1-0.1,0-0.2l0.3-0.3c0.1-0.1,0.1-0.1,0.2,0L9.9,26
				C9.9,26,10,26,10.1,26l1.4-1.4c0.1-0.1,0.1-0.1,0.2,0l0.3,0.3C12.1,24.9,12.1,25,12,25z"/>
		</g>
		<rect x="14.2" y="23.2" class="st1" width="9.8" height="1.7"/>
		<g>
			<rect x="15.8" y="26.7" class="st1" width="8.3" height="1.7"/>
		</g>
	</g>
	<path class="st1" d="M25.4,3h-4.2c-0.2-0.3-0.6-0.5-1-0.5h-1.9c0-1.4-1.1-2.5-2.5-2.5s-2.5,1.1-2.5,2.5h-1.9c-0.4,0-0.8,0.2-1,0.5
		H6.6C5.1,3,3.9,4.2,3.9,5.7v23.7c0,1.5,1.2,2.6,2.6,2.6h13.3h5.5c0.1,0,0.2,0,0.2,0c0,0,0,0,0,0c0.1,0,0.1,0,0.2,0c0,0,0,0,0.1,0
		c0.1,0,0.1,0,0.2-0.1c0,0,0,0,0.1,0c0.1,0,0.1,0,0.2-0.1c0,0,0,0,0.1,0c0.1,0,0.1-0.1,0.2-0.1c0,0,0.1,0,0.1,0c0,0,0.1,0,0.1-0.1
		c0,0,0.1-0.1,0.1-0.1c0,0,0,0,0.1,0c0.1,0,0.1-0.1,0.2-0.1c0,0,0,0,0,0c0.1-0.1,0.2-0.2,0.3-0.3c0,0,0,0,0,0c0,0,0,0,0,0
		c0.3-0.4,0.6-1,0.6-1.6v-1.5V24V5.7C28.1,4.2,26.9,3,25.4,3z M15.9,1.3c0.7,0,1.2,0.5,1.2,1.2s-0.5,1.2-1.2,1.2
		c-0.7,0-1.2-0.5-1.2-1.2S15.2,1.3,15.9,1.3z M26.6,24v3.8v1.6c0,0.6-0.5,1.1-1.1,1.1h-1.7h-2.2h-15c-0.6,0-1.1-0.5-1.1-1.1V5.7
		c0-0.6,0.5-1.1,1.1-1.1h3.7v1.4c0,0.1,0.1,0.2,0.2,0.2h10.8c0.1,0,0.2-0.1,0.2-0.2V4.5h4c0.6,0,1.1,0.5,1.1,1.1V24z"/>
</g>
</svg>
