<?xml version="1.0" encoding="utf-8"?>
<!-- Generator: Adobe Illustrator 22.1.0, SVG Export Plug-In . SVG Version: 6.00 Build 0)  -->
<svg version="1.1" id="Layer_1" xmlns="http://www.w3.org/2000/svg" xmlns:xlink="http://www.w3.org/1999/xlink" x="0px" y="0px"
	 width="32px" height="32px" viewBox="0 0 32 32" style="enable-background:new 0 0 32 32;" xml:space="preserve">
<style type="text/css">
	.st0{fill:#1960A3;}
	.st1{fill:#14A45C;}
</style>
<g>
	<g>
		<path class="st0" d="M16,0C7.2,0,0,7.2,0,16c0,8.8,7.2,16,16,16c8.8,0,16-7.2,16-16C32,7.2,24.8,0,16,0z M16,29.7
			C8.4,29.7,2.3,23.6,2.3,16S8.4,2.3,16,2.3c7.6,0,13.7,6.1,13.7,13.7S23.6,29.7,16,29.7z"/>
	</g>
	<path class="st1" d="M16.7,17.6v4.2c0.7-0.2,1.6-0.7,1.6-2C18.4,18.4,17.3,17.9,16.7,17.6z"/>
	<path class="st1" d="M13.9,12.1c0,1.3,1.1,1.8,1.7,2.1v-4C15,10.3,13.9,10.6,13.9,12.1z"/>
	<path class="st1" d="M16,3.2C8.9,3.2,3.2,8.9,3.2,16c0,7.1,5.7,12.8,12.8,12.8c7.1,0,12.8-5.7,12.8-12.8C28.8,8.9,23.1,3.2,16,3.2z
		 M16.9,24.5v1.1c0,0.4-0.1,0.5-0.5,0.5h-0.5c-0.4,0-0.5-0.1-0.5-0.5v-1.1c-0.8,0-4.3-0.6-4.3-1.3c0-0.1,0-0.1,0-0.2l0.7-2.1
		c0,0,0.1-0.2,0.2-0.2c0.1,0,1.8,1,3.3,1.1V17c-1.5-0.7-4.3-1.5-4.3-4.8c0-3.6,3.2-4.6,4.3-4.7V6.4c0-0.4,0.1-0.5,0.5-0.5h0.5
		c0.4,0,0.5,0.1,0.5,0.5v1.2c0.7,0,3.9,0.6,3.9,1.4c0,0.1,0,0.2-0.1,0.3l-0.8,1.7c0,0.1-0.1,0.2-0.2,0.2c-0.1,0-1.7-1-2.8-1v4.5
		c1.6,0.8,4.3,1.8,4.3,5C21.2,23.1,18.5,24.2,16.9,24.5z"/>
</g>
</svg>
