<?xml version="1.0" encoding="utf-8"?>
<!-- Generator: Adobe Illustrator 26.0.2, SVG Export Plug-In . SVG Version: 6.00 Build 0)  -->
<svg version="1.1" id="Layer_1" xmlns="http://www.w3.org/2000/svg" xmlns:xlink="http://www.w3.org/1999/xlink" x="0px" y="0px"
	 viewBox="0 0 200 200" style="enable-background:new 0 0 200 200;" xml:space="preserve">
<style type="text/css">
	.st0{fill:#1A73E8;}
</style>
<g>
	<g>
		<path class="st0" d="M143.66,199c-0.87,0-1.72-0.01-2.59-0.04c-28.69,0.02-57.25-0.02-85.93-0.07
			c-7.44,0.15-14.82-0.81-21.96-2.98c-10.31-2.97-17.73-12.21-18.41-22.98c-1.75-15.14,2.58-30.26,12.2-42.37
			c9.61-12.12,23.37-19.76,38.73-21.52l1.43-0.08c0.36,0.02,0.75,0.07,1.11,0.14l2.69,0.54l0.76,2.63c1.14,3.91,3.4,7.34,6.55,9.93
			c5.48,5.05,10.92,9.76,16.37,14.47l5.55,4.82c8.55-6.57,16.37-13.68,23.49-21.37c2.29-2.28,3.85-4.95,4.65-7.87l0.97-3.58
			l3.7,0.27c7.33,0.54,14.36,2.57,20.87,6.02c20.31,9.98,32.81,31.17,31.73,53.91c-0.08,3.05-0.55,6.21-1.41,9.28
			c-2.58,9.68-10.68,17.04-20.63,18.7C157.16,198.27,150.44,199,143.66,199z M55.03,189.88c28.8,0.05,57.48,0.07,86.17,0.07
			c7.12,0.19,13.94-0.47,20.61-1.95c6.7-1.13,11.96-5.9,13.65-12.23c0.67-2.41,1.03-4.82,1.09-7.24
			c0.92-19.25-9.61-37.1-26.82-45.56c-4.49-2.38-9.19-3.94-14.06-4.68c-1.33,3-3.2,5.75-5.54,8.07
			c-7.95,8.58-16.87,16.59-26.4,23.67c-1.23,1.03-2.64,1.49-4.4,1.31l-1.87-0.21l-8.75-7.66c-5.51-4.78-11.04-9.55-16.39-14.49
			c-3.45-2.83-6.22-6.51-8.04-10.72c-25.4,4.18-43.54,27.84-40.55,53.87c0.46,7.22,5.27,13.2,11.98,15.14
			C42.01,189.18,48.46,189.99,55.03,189.88z M98.24,142.93c-0.06,0.04-0.12,0.08-0.18,0.13C98.12,143.01,98.18,142.98,98.24,142.93z
			"/>
	</g>
	<g>
		<path class="st0" d="M145.87,156.78c0-2.83-0.05-5.43,0-8.01c0.04-1.69-0.69-2.36-2.35-2.31c-2.15,0.07-4.31,0-6.47,0
			c-2.35,0-2.62,0.28-2.63,2.56c0,2.5,0,5.05,0,7.75c-2.9,0-5.57,0.03-8.23,0c-1.5,0-2.17,0.63-2.15,2.11c0,2.28,0.07,4.57,0,6.84
			c-0.07,1.89,0.77,2.55,2.59,2.5c2.5-0.09,5.06,0,7.8,0c0,2.87,0.03,5.51,0,8.18c0,1.5,0.63,2.16,2.11,2.14
			c2.35-0.03,4.71-0.05,7.05,0c1.69,0.04,2.34-0.73,2.3-2.38c-0.07-2.58,0-5.17,0-7.95c2.81,0,5.41-0.05,8.01,0
			c1.69,0.04,2.36-0.67,2.31-2.34c-0.07-2.21-0.08-4.44,0-6.65c0.07-1.74-0.57-2.5-2.38-2.46c-2.54,0.08-5.09,0-7.94,0"/>
	</g>
	<g id="Path_1424_00000098938332238990019090000012519278002155167392_">
		<path class="st0" d="M100.06,116.15c-8.2,0-16.41-3.05-22.76-9.15c-10.42-9.19-18.21-21.21-22.39-34.65
			c-3.14-8.4-4.51-17.82-3.82-27c2.72-27.08,26.94-46.78,53.85-44.12c22.42,2.26,40.4,19.41,43.71,41.7
			c0.25,1.62,0.36,3.29,0.47,4.85l0.15,2.05l-0.01,0.31c-0.75,15.39-5.71,30.27-14.35,43.02c-3.5,5.44-7.87,10.35-12.96,14.49
			C115.82,113.31,107.95,116.15,100.06,116.15z M100,10.01c-20.36,0-37.85,15.46-39.94,36.14c-0.57,7.77,0.6,15.86,3.38,23.29
			c3.77,12.11,10.64,22.73,19.96,30.94c9.18,8.83,23.45,8.96,32.65,0.48c4.55-3.72,8.3-7.91,11.33-12.65
			c7.72-11.4,12.14-24.58,12.85-38.24l-0.12-1.58c-0.08-1.31-0.18-2.72-0.39-4.12c-2.7-18.21-17.38-32.21-35.69-34.06
			C102.69,10.06,101.34,10.01,100,10.01z"/>
	</g>
</g>
</svg>
