<?xml version="1.0" encoding="utf-8"?>
<!-- Generator: Adobe Illustrator 22.1.0, SVG Export Plug-In . SVG Version: 6.00 Build 0)  -->
<svg version="1.1" id="Layer_1" xmlns="http://www.w3.org/2000/svg" xmlns:xlink="http://www.w3.org/1999/xlink" x="0px" y="0px"
	 width="32px" height="32px" viewBox="0 0 32 32" style="enable-background:new 0 0 32 32;" xml:space="preserve">
<style type="text/css">
	.st0{fill:#1960A3;}
</style>
<g>
	<circle class="st0" cx="9.8" cy="26.3" r="1.5"/>
	<path class="st0" d="M22.2,17.6v3.1c2.3,0.5,4.1,2.6,4.1,5v2.7c0,0.5-0.3,0.9-0.8,1l-2.1,0.4c-0.3,0.1-0.5-0.1-0.6-0.4l-0.2-1
		c-0.1-0.3,0.1-0.6,0.4-0.6l1.2-0.3v-1.8c0-4-6.2-4.2-6.2,0.1v1.7l1.2,0.3c0.3,0.1,0.5,0.3,0.4,0.6l-0.2,1c-0.1,0.3-0.3,0.5-0.6,0.4
		l-2-0.3c-0.5-0.1-0.9-0.5-0.9-1v-2.8c0-2.5,1.8-4.6,4.1-5v-2.9c-0.1,0-0.3,0.1-0.4,0.1c-1.2,0.4-2.4,0.6-3.7,0.6
		c-1.3,0-2.5-0.2-3.7-0.6c-0.5-0.2-1-0.3-1.5-0.3v5.2c1.5,0.4,2.6,1.8,2.6,3.4c0,2-1.6,3.6-3.6,3.6c-2,0-3.6-1.6-3.6-3.6
		c0-1.6,1.1-3,2.6-3.4v-5.2c-4.1,0.7-7.2,4.2-7.2,8.5v2.9c0,1.6,1.3,2.9,2.9,2.9h23c1.6,0,2.9-1.3,2.9-2.9v-2.9
		C30.4,21.6,26.7,17.9,22.2,17.6z"/>
	<circle class="st0" cx="16" cy="8.2" r="8.2"/>
</g>
</svg>
