<?xml version="1.0" encoding="utf-8"?>
<!-- Generator: Adobe Illustrator 22.1.0, SVG Export Plug-In . SVG Version: 6.00 Build 0)  -->
<svg version="1.1" id="Layer_1" xmlns="http://www.w3.org/2000/svg" xmlns:xlink="http://www.w3.org/1999/xlink" x="0px" y="0px"
	 width="32px" height="32px" viewBox="0 0 32 32" style="enable-background:new 0 0 32 32;" xml:space="preserve">
<style type="text/css">
	.st0{fill:none;}
	.st1{fill:#14A45C;}
	.st2{fill:#E4EBF0;}
	.st3{fill:#1960A3;}
	.st4{fill:#7C828D;}
</style>
<g>
	<g>
		<circle class="st0" cx="16" cy="2.6" r="1"/>
		<path class="st1" d="M26.8,4.1h-5.1v2.6H10.3V4.1H5.2c-0.6,0-1.1,0.5-1.1,1.1v25.7c0,0.6,0.5,1.1,1.1,1.1h21.6
			c0.6,0,1.1-0.5,1.1-1.1V5.2C27.9,4.6,27.4,4.1,26.8,4.1z"/>
	</g>
	<g>
		<circle class="st0" cx="16" cy="2.6" r="1"/>
		<polygon class="st2" points="21.7,6.2 21.7,6.7 10.3,6.7 10.3,6.2 6.2,6.2 6.2,25.8 10.3,29.9 25.8,29.9 25.8,6.2 		"/>
		<path class="st3" d="M20.6,2.6h-2.1c0,0,0,0,0,0C18.5,1.1,17.4,0,16,0s-2.6,1.1-2.6,2.6c0,0,0,0,0,0h-2.1c-0.6,0-1,0.5-1,1v0.5
			v2.1v0.5h11.4V6.2V4.1V3.6C21.7,3,21.2,2.6,20.6,2.6z M16,1.5c0.6,0,1,0.5,1,1s-0.5,1-1,1s-1-0.5-1-1S15.4,1.5,16,1.5z"/>
	</g>
	<path class="st4" d="M10.3,29.9l-4.1-4.1h3.2c0.5,0,0.9,0.4,0.9,0.9V29.9z"/>
	<rect x="9.8" y="23.2" class="st4" width="12.4" height="1"/>
	<rect x="11.9" y="25.3" class="st4" width="10.3" height="1"/>
	<g>
		<path class="st1" d="M22.2,15.4c0-3.4-2.8-6.2-6.2-6.2v6.2H22.2z"/>
		<path class="st4" d="M16,9.3c-3.4,0-6.2,2.8-6.2,6.2c0,1.7,0.7,3.3,1.8,4.4l4.4-4.4V9.3z"/>
		<path class="st3" d="M16,15.4l-4.4,4.4c1.1,1.1,2.7,1.8,4.4,1.8c3.4,0,6.2-2.8,6.2-6.2H16z"/>
	</g>
</g>
</svg>
