<?xml version="1.0" encoding="utf-8"?>
<!-- Generator: Adobe Illustrator 22.1.0, SVG Export Plug-In . SVG Version: 6.00 Build 0)  -->
<svg version="1.1" id="Layer_1" xmlns="http://www.w3.org/2000/svg" xmlns:xlink="http://www.w3.org/1999/xlink" x="0px" y="0px"
	 width="32px" height="32px" viewBox="0 0 32 32" style="enable-background:new 0 0 32 32;" xml:space="preserve">
<style type="text/css">
	.st0{fill:#1960A3;}
	.st1{fill:#14A45C;}
	.st2{fill:#FFE000;}
</style>
<g>
	<g>
		<path class="st0" d="M31.9,28.7c0.1-0.2,0.1-0.4,0.1-0.6V9.7c0-0.2,0-0.4-0.1-0.6l-10.4,9.2L31.9,28.7z"/>
		<path class="st1" d="M16,20.6l2.7-2.3l1.4-1.2l10.5-9.3c-0.2-0.1-0.4-0.1-0.5-0.1H1.9c-0.2,0-0.4,0-0.5,0.1l10.5,9.3l1.4,1.2
			L16,20.6z"/>
		<path class="st0" d="M30.1,30.1c0.2,0,0.4,0,0.5-0.1L20.1,19.6L16,23l-4.1-3.4L1.4,30c0.2,0,0.3,0.1,0.5,0.1H30.1z"/>
		<path class="st0" d="M0.1,9.1C0,9.3,0,9.5,0,9.7v18.4c0,0.2,0,0.4,0.1,0.6l10.4-10.4L0.1,9.1z"/>
	</g>
	<polygon class="st2" points="24.2,5.7 26.3,1.9 26.2,6.2 29.9,4 27.7,7.7 32,7.6 28.2,9.7 32,11.8 27.7,11.7 29.9,15.4 26.2,13.2 
		26.3,17.5 24.2,13.7 22.1,17.5 22.2,13.2 18.5,15.4 20.7,11.7 16.4,11.8 20.2,9.7 16.4,7.6 20.7,7.7 18.5,4 22.2,6.2 22.1,1.9 	"/>
</g>
</svg>
