<?xml version="1.0" encoding="utf-8"?>
<!-- Generator: Adobe Illustrator 22.1.0, SVG Export Plug-In . SVG Version: 6.00 Build 0)  -->
<svg version="1.1" id="Layer_1" xmlns="http://www.w3.org/2000/svg" xmlns:xlink="http://www.w3.org/1999/xlink" x="0px" y="0px"
	 width="32px" height="32px" viewBox="0 0 32 32" style="enable-background:new 0 0 32 32;" xml:space="preserve">
<style type="text/css">
	.st0{fill:#1960A3;}
	.st1{fill:#14A45C;}
	.st2{fill:#FF1A1E;}
</style>
<g>
	<path class="st0" d="M31.4,3.5H26v0.3c0,1.7-1.4,3-3,3s-3-1.4-3-3V3.5h-7.8v0.3c0,1.7-1.4,3-3,3s-3-1.4-3-3V3.5H0.6
		C0.3,3.5,0,3.8,0,4.2V31c0,0.4,0.3,0.6,0.6,0.6h30.7c0.4,0,0.6-0.3,0.6-0.6V4.2C32,3.8,31.7,3.5,31.4,3.5z M29.8,19.3
		c0,5.6-4.5,10.1-10.1,10.1H3c-0.4,0-0.7-0.3-0.7-0.7V12.3c0-0.4,0.3-0.7,0.7-0.7H29c0.4,0,0.7,0.3,0.7,0.7V19.3z"/>
	<path class="st1" d="M7.5,17.2h-1c-0.9,0-1.6-0.7-1.6-1.6v0c0-0.9,0.7-1.6,1.6-1.6h1c0.9,0,1.6,0.7,1.6,1.6v0
		C9.1,16.4,8.4,17.2,7.5,17.2z"/>
	<path class="st1" d="M13.5,17.2h-1c-0.9,0-1.6-0.7-1.6-1.6v0c0-0.9,0.7-1.6,1.6-1.6h1c0.9,0,1.6,0.7,1.6,1.6v0
		C15.1,16.4,14.4,17.2,13.5,17.2z"/>
	<path class="st1" d="M19.5,17.2h-1c-0.9,0-1.6-0.7-1.6-1.6v0c0-0.9,0.7-1.6,1.6-1.6h1c0.9,0,1.6,0.7,1.6,1.6v0
		C21.1,16.4,20.3,17.2,19.5,17.2z"/>
	<path class="st1" d="M25.4,17.2h-1c-0.9,0-1.6-0.7-1.6-1.6v0c0-0.9,0.7-1.6,1.6-1.6h1c0.9,0,1.6,0.7,1.6,1.6v0
		C27.1,16.4,26.3,17.2,25.4,17.2z"/>
	<g>
		<path class="st2" d="M7.5,22.8h-1c-1.3,0-2.3-1-2.3-2.3s1-2.3,2.3-2.3h1c1.3,0,2.3,1,2.3,2.3S8.7,22.8,7.5,22.8z M6.4,19.5
			c-0.5,0-0.9,0.4-0.9,0.9c0,0.5,0.4,0.9,0.9,0.9h1c0.5,0,0.9-0.4,0.9-0.9c0-0.5-0.4-0.9-0.9-0.9H6.4z"/>
	</g>
	<path class="st1" d="M13.5,22.1h-1c-0.9,0-1.6-0.7-1.6-1.6v0c0-0.9,0.7-1.6,1.6-1.6h1c0.9,0,1.6,0.7,1.6,1.6v0
		C15.1,21.4,14.4,22.1,13.5,22.1z"/>
	<path class="st1" d="M19.5,22.1h-1c-0.9,0-1.6-0.7-1.6-1.6v0c0-0.9,0.7-1.6,1.6-1.6h1c0.9,0,1.6,0.7,1.6,1.6v0
		C21.1,21.4,20.3,22.1,19.5,22.1z"/>
	<path class="st1" d="M25.4,22.1h-1c-0.9,0-1.6-0.7-1.6-1.6v0c0-0.9,0.7-1.6,1.6-1.6h1c0.9,0,1.6,0.7,1.6,1.6v0
		C27.1,21.4,26.3,22.1,25.4,22.1z"/>
	<path class="st1" d="M7.5,27h-1c-0.9,0-1.6-0.7-1.6-1.6v0c0-0.9,0.7-1.6,1.6-1.6h1c0.9,0,1.6,0.7,1.6,1.6v0C9.1,26.3,8.4,27,7.5,27
		z"/>
	<path class="st1" d="M13.5,27h-1c-0.9,0-1.6-0.7-1.6-1.6v0c0-0.9,0.7-1.6,1.6-1.6h1c0.9,0,1.6,0.7,1.6,1.6v0
		C15.1,26.3,14.4,27,13.5,27z"/>
	<path class="st1" d="M19.5,27h-1c-0.9,0-1.6-0.7-1.6-1.6v0c0-0.9,0.7-1.6,1.6-1.6h1c0.9,0,1.6,0.7,1.6,1.6v0
		C21.1,26.3,20.3,27,19.5,27z"/>
	<path class="st1" d="M27.1,24.2c0-0.2-0.2-0.4-0.4-0.4h-3.5c-0.2,0-0.4,0.2-0.4,0.4v2.5c0,0.2,0.2,0.4,0.4,0.4h1
		c1.1-0.7,2.1-1.7,2.9-2.7C27.1,24.2,27.1,24.2,27.1,24.2L27.1,24.2z"/>
	<path class="st0" d="M9.1,5L9.1,5C8.3,5,7.7,4.4,7.7,3.7V1.7c0-0.7,0.6-1.3,1.3-1.3h0c0.7,0,1.3,0.6,1.3,1.3v1.9
		C10.4,4.4,9.8,5,9.1,5z"/>
	<path class="st0" d="M22.9,5L22.9,5c-0.7,0-1.3-0.6-1.3-1.3V1.7c0-0.7,0.6-1.3,1.3-1.3h0c0.7,0,1.3,0.6,1.3,1.3v1.9
		C24.3,4.4,23.7,5,22.9,5z"/>
</g>
</svg>
