<svg xmlns="http://www.w3.org/2000/svg" width="70" height="70" viewBox="0 0 70 70">
    <defs>
        <style>
            .cls-2{fill:#2a4d9e}
        </style>
    </defs>
    <g id="Group_1410">
        <rect id="Rectangle_3910" width="70" height="70" fill="#e7ecf7" rx="18"/>
        <g id="Group_955" transform="translate(19 15)">
            <path id="Path_1250" d="M162.748-3.033a21.96 21.96 0 0 1 4.063-.321V-5.68a22.74 22.74 0 0 0-5.709.619zm0 0" class="cls-2" transform="translate(-137.89 15.101)"/>
            <path id="Path_1251" d="M-20.186-5.061A22.743 22.743 0 0 0-25.9-5.68v2.326a21.96 21.96 0 0 1 4.063.321zm0 0" class="cls-2" transform="translate(29.379 15.101)"/>
            <g id="Group_954">
                <path id="Path_1252" d="M11.206-85.222a22.15 22.15 0 0 0 6.113-.741c.264-.064.529-.128.8-.191l3.029-7.228-.879-.513A19.221 19.221 0 0 0 11.206-96a19.229 19.229 0 0 0-9.065 2.105l-.879.513 3.029 7.228c.273.063.538.127.8.191a22.148 22.148 0 0 0 6.113.741zm0 0" class="cls-2" transform="translate(4.997 96)"/>
                <path id="Path_1253" d="M-30.167 28.791a31.3 31.3 0 0 0-5.123-8.557c-.685.126-1.283.277-1.9.431a23.334 23.334 0 0 1-6.61.835 23.334 23.334 0 0 1-6.612-.833c-.612-.154-1.21-.3-1.9-.431a31.362 31.362 0 0 0-5.151 8.622A31.332 31.332 0 0 0-60 40.1c0 2.722.664 4.7 2.03 6.048 2.4 2.365 6.424 2.276 11.088 2.174 1-.022 2.031-.045 3.084-.045s2.085.023 3.084.045c.929.02 1.833.04 2.7.04 3.5 0 6.466-.32 8.385-2.214 1.366-1.348 2.03-3.326 2.03-6.048a31.362 31.362 0 0 0-2.572-11.306zm-14.9 2.513a11.061 11.061 0 0 0 2.818 1.32c3.873 1.361 3.273 6.725-.431 7.8v1.805h-2.372v-1.693a7.434 7.434 0 0 1-3.4-1.6l1.3-2 .992.654a3.164 3.164 0 0 0 2.285.6c1.737.067 2.843-2.584.835-3.317a12.1 12.1 0 0 1-3.491-1.693c-2.129-1.708-1.007-5.306 1.478-6.076V25.4h2.372v1.531a9.32 9.32 0 0 1 3.2 1.317l-1.119 2.11-1.044-.567c-.828-.5-3.233-1.168-3.624.772a.833.833 0 0 0 .2.741zm0 0" class="cls-2" transform="translate(60 -8.359)"/>
            </g>
        </g>
    </g>
</svg>
