<?xml version="1.0" encoding="utf-8"?>
<!-- Generator: Adobe Illustrator 22.1.0, SVG Export Plug-In . SVG Version: 6.00 Build 0)  -->
<svg version="1.1" id="Layer_1" xmlns="http://www.w3.org/2000/svg" xmlns:xlink="http://www.w3.org/1999/xlink" x="0px" y="0px"
	 width="32px" height="32px" viewBox="0 0 32 32" style="enable-background:new 0 0 32 32;" xml:space="preserve">
<style type="text/css">
	.st0{fill:#1960A3;}
	.st1{fill:#14A45C;}
</style>
<g>
	<path class="st0" d="M18.1,6.4h10.3c0.8,0,1.5-0.7,1.5-1.5V1.7c0-0.8-0.7-1.5-1.5-1.5H18.1c-0.8,0-1.5,0.7-1.5,1.5v3.2
		C16.6,5.7,17.3,6.4,18.1,6.4z"/>
	<path class="st0" d="M20.6,13.8c-0.5,0-0.8,0-1,0.1V17c0.2,0.1,0.5,0.1,0.8,0.1c1.3,0,2.1-0.6,2.1-1.7
		C22.5,14.3,21.8,13.8,20.6,13.8z"/>
	<path class="st0" d="M28.2,8.1H18.1c-2.1,0-3.8,1.7-3.8,3.8v16.2c0,2.1,1.7,3.8,3.8,3.8h10.1c2.1,0,3.8-1.7,3.8-3.8V11.9
		C32,9.8,30.3,8.1,28.2,8.1z M26.4,27.4l-1.9-3.3h0l-1.8,3.3h-2l2.8-4.7L21,18.4c-0.2,0-0.4,0-0.5,0c-0.3,0-0.6,0-0.8-0.1v3.5h-1.7
		v-9.2c0.6-0.1,1.5-0.2,2.6-0.2c1.2,0,2.2,0.3,2.8,0.8c0.6,0.5,0.9,1.2,0.9,2.1c0,0.9-0.3,1.6-0.8,2.1c-0.2,0.2-0.4,0.4-0.7,0.5
		l1.8,3.3h0l1.7-3.2h2l-2.7,4.6l2.8,4.8H26.4z"/>
	<path class="st1" d="M10.1,2.9c-2-1.8-6.2-4.7-9.3-0.4c-2.2,3,0.5,7.9,2.8,10L4.1,12c-1-1-3.5-5.8-1.9-7.5c1.6-1.7,4,0.1,5.2,1.2
		L5.1,8.2l8,0.4l-0.7-8.2L10.1,2.9z"/>
</g>
</svg>
