<svg xmlns="http://www.w3.org/2000/svg" id="Group_1414" width="70" height="70" viewBox="0 0 70 70">
    <defs>
        <style>
            .cls-2{fill:#ff5959}
        </style>
    </defs>
    <rect id="Rectangle_3910" width="70" height="70" fill="#f9efef" rx="18"/>
    <g id="Group_958" transform="translate(16 15)">
        <path id="Path_1257" d="M799.56 233.967a2.722 2.722 0 0 1 .873 2.107c0 3.915.01 7.829.018 11.744v.67h3.579a1.192 1.192 0 0 0 .358-.8c.1-.689.176-1.383.282-2.072.253-1.64.517-3.277.777-4.916h.171a4.279 4.279 0 0 1 .114.433c.361 2.288.734 4.574 1.065 6.865a.825.825 0 0 0 .193.484h3.177c.156-.138.159-.423.158-1.018 0-3.712.011-7.424-.023-11.136a3.388 3.388 0 0 1 1-2.549 4.959 4.959 0 0 0 1.477-3.52c.011-2.383.049-4.767.006-7.15a4.178 4.178 0 0 0-4.13-4.3c-2.155-.09-4.321-.088-6.476.012a4.323 4.323 0 0 0-4.164 4.323c-.06 2.4-.04 4.807-.03 7.211a4.83 4.83 0 0 0 1.575 3.612zm1.339-8.776h2.788v-2.777h3.7v2.756h2.763v3.73h-2.762v2.769h-3.7v-2.778H800.9z" class="cls-2" transform="translate(-786.549 -208.487)"/>
        <path id="Path_1258" d="M714.366 238.043a4.127 4.127 0 0 1 1.317 3.324c-.023 3.33-.019 6.66-.023 9.99 0 .183.013.366.026.56h3.451l1.122-6.907h.177c.043.212.093.423.127.636.312 1.977.616 3.955.941 5.93a1.206 1.206 0 0 0 .122.338h3.113c0-3.711 0-7.313-.007-10.915a1.341 1.341 0 0 0-.174-.567c-.406-.8-.871-1.576-1.228-2.4a6.445 6.445 0 0 1-.465-1.74c-.1-.779-.076-1.572-.117-2.358-.16-3.057-.4-6.119.885-9.165-2.18 0-4.225-.082-6.261.021a3.971 3.971 0 0 0-3.966 4.232c-.022 2.024-.03 4.049.013 6.072a3.842 3.842 0 0 0 .947 2.949z" class="cls-2" transform="translate(-713.386 -213.673)"/>
        <path id="Path_1259" d="M909.194 251.445v-1.491c0-2.676.009-5.352 0-8.028a6.952 6.952 0 0 1 1.109-3.743 6.4 6.4 0 0 0 .821-2.931c.11-2.488.078-4.985.006-7.476a20.845 20.845 0 0 0-.485-2.92c-.045-.262-.094-.523-.149-.833.521 0 .984-.018 1.446 0 1.751.079 3.508.1 5.25.277a3.337 3.337 0 0 1 3.257 3.263c.165 1.966.071 3.952.134 5.928a7.208 7.208 0 0 1-1.741 4.832A2.93 2.93 0 0 0 918.3 240c-.047 3.53-.021 7.061-.02 10.591v.9c-1.1 0-2.147.015-3.193-.021-.117 0-.3-.292-.326-.468-.33-1.973-.635-3.95-.949-5.925-.041-.259-.1-.515-.149-.773l-.172-.009-1.134 7.148z" class="cls-2" transform="translate(-882.755 -213.043)"/>
        <path id="Path_1260" d="M827.825 145.269a4.771 4.771 0 0 1-4.787 4.809 4.837 4.837 0 1 1 4.787-4.809z" class="cls-2" transform="translate(-803.995 -140.405)"/>
        <path id="Path_1261" d="M917.837 157.021a4.438 4.438 0 1 1-8.875-.065 4.438 4.438 0 0 1 8.875.065z" class="cls-2" transform="translate(-882.555 -150.958)"/>
        <path id="Path_1262" d="M740.92 157.1a4.442 4.442 0 1 1-8.875-.353 4.442 4.442 0 0 1 8.875.353z" class="cls-2" transform="translate(-729.525 -150.954)"/>
    </g>
</svg>
