<svg xmlns="http://www.w3.org/2000/svg" width="70" height="70" viewBox="0 0 70 70">
    <defs>
        <style>
            .cls-2{fill:#1683ff}
        </style>
    </defs>
    <g id="Group_1412">
        <rect id="Rectangle_3910" width="70" height="70" fill="#e7f0fa" rx="18"/>
        <g id="Group_960" transform="translate(17 15)">
            <path id="Path_1267" d="M2302.593 49.941c-4.627 0-9.1.087-13.569-.03a6.051 6.051 0 0 1-5.768-5.656c-.1-1.915.017-3.839.013-5.759 0-1.893-.05-3.786-.052-5.679q-.01-10.006 0-20.012c0-1.957.821-2.759 2.833-2.76h16.365a6.284 6.284 0 0 1 6.669 6.55c0 5.71-.009 11.42.008 17.13a8.152 8.152 0 0 1-1.254 4.714c-1.674 2.558-3.123 5.256-4.708 7.871a3.675 3.675 0 0 0-.537 3.631zm-6.587-13.415h7.827c.64 0 1.2-.139 1.2-.872s-.562-.881-1.2-.88h-15.57c-.614 0-1.117.173-1.12.868s.477.88 1.1.878q3.887-.003 7.763.006zm.11-7.016h1.309c2.154 0 4.308-.006 6.461 0 .612 0 1.133-.143 1.158-.83.026-.739-.52-.918-1.159-.922H2290.88c-.9 0-1.8-.026-2.7.017-.782.037-1.255.712-.846 1.231a1.583 1.583 0 0 0 1.093.48c2.564.042 5.127.023 7.689.024zm-.007-15.757h-7.855c-.609 0-1.039.269-1.036.88s.449.868 1.048.876h15.381c.218 0 .509.071.639-.037.3-.249.692-.576.715-.894.019-.252-.422-.588-.726-.79-.17-.114-.477-.036-.722-.036zm0 8.771h7.443c.271 0 .613.066.8-.066.292-.209.665-.565.655-.847s-.421-.583-.716-.8c-.143-.1-.423-.035-.641-.035h-15.049c-.245 0-.558-.067-.719.052a1.453 1.453 0 0 0-.63.809c-.025.247.283.609.542.777a1.743 1.743 0 0 0 .874.105c2.478.007 4.959.004 7.44.005zm-1.792 22.658a4.256 4.256 0 0 0 3.342-1.944 3.237 3.237 0 0 1 1.335-1.033c.559-.2.986-.4.906-1.012s-.553-.78-1.149-.748a3.041 3.041 0 0 0-2.5 1.711 2.165 2.165 0 0 1-2.659.99 6.369 6.369 0 0 1-1.521-.561 4.062 4.062 0 0 0-5.51 1.241 1.162 1.162 0 0 0 .094 1.108c.162.193.744.184 1.073.074s.576-.473.876-.7a2 2 0 0 1 2.6-.206 32.212 32.212 0 0 0 3.112 1.08z" class="cls-2" transform="translate(-2283.213 -10.044)"/>
            <path id="Path_1268" d="M2419.083 184.417c-2.127 0-4.255.007-6.381 0-1.746-.009-2.352-1.071-1.48-2.586 2.106-3.662 4.226-7.317 6.327-10.983.371-.646.781-1.219 1.612-1.18s1.155.647 1.525 1.3c2.052 3.6 4.15 7.168 6.23 10.749.955 1.645.351 2.709-1.532 2.71zm-.987-8.084v2.7a.966.966 0 1 0 1.931.035c.018-1.825.013-3.651 0-5.477 0-.636-.366-.933-.995-.924a.846.846 0 0 0-.94.971c.008.897.002 1.796.008 2.695zm.984 4.074a1.114 1.114 0 0 0-1.1 1.089 1.077 1.077 0 0 0 1.079 1.093 1.144 1.144 0 0 0 1.159-1.119 1.167 1.167 0 0 0-1.139-1.063z" class="cls-2" transform="translate(-2390.747 -144.419)"/>
        </g>
    </g>
</svg>
