<?xml version="1.0" encoding="utf-8"?>
<!-- Generator: Adobe Illustrator 22.1.0, SVG Export Plug-In . SVG Version: 6.00 Build 0)  -->
<svg version="1.1" id="Layer_1" xmlns="http://www.w3.org/2000/svg" xmlns:xlink="http://www.w3.org/1999/xlink" x="0px" y="0px"
	 width="32px" height="32px" viewBox="0 0 32 32" style="enable-background:new 0 0 32 32;" xml:space="preserve">
<style type="text/css">
	.st0{fill:none;}
	.st1{fill:#1960A3;}
	.st2{fill:#FFFFFF;}
	.st3{fill:#14A45C;}
</style>
<g>
	<g>
		<g>
			<path class="st0" d="M19.4,3.9h-6.8c-0.7,0-1.3,0.6-1.3,1.3v1.6h9.4V5.2C20.7,4.5,20.1,3.9,19.4,3.9z"/>
			<path class="st1" d="M25.7,6.8h-3.6V5.2c0-1.5-1.2-2.7-2.7-2.7h-6.8c-1.5,0-2.7,1.2-2.7,2.7v1.6H6.3C2.8,6.8,0,9.6,0,13.1v10.2
				c0,3.5,2.8,6.3,6.3,6.3h19.5c3.5,0,6.3-2.8,6.3-6.3V13.1C32,9.6,29.2,6.8,25.7,6.8z M11.3,6.8V5.2c0-0.7,0.6-1.3,1.3-1.3h6.8
				c0.7,0,1.3,0.6,1.3,1.3v1.6H11.3z"/>
			<circle class="st2" cx="16" cy="18.2" r="8.2"/>
		</g>
		<g>
			<polygon class="st3" points="22,16.3 17.8,16.3 17.8,12.1 14.2,12.1 14.2,16.3 10,16.3 10,20 14.2,20 14.2,24.2 17.8,24.2 
				17.8,20 22,20 			"/>
		</g>
	</g>
</g>
</svg>
