<?xml version="1.0" standalone="no"?>
<!DOCTYPE svg PUBLIC "-//W3C//DTD SVG 20010904//EN"
 "http://www.w3.org/TR/2001/REC-SVG-20010904/DTD/svg10.dtd">
<svg version="1.0" xmlns="http://www.w3.org/2000/svg"
 width="128.000000pt" height="128.000000pt" viewBox="0 0 128.000000 128.000000"
 preserveAspectRatio="xMidYMid meet">
<style type="text/css">
	.st0{fill:#1960A3;}
	.st1{fill:#14A45C;}
</style>
<g transform="translate(0.000000,128.000000) scale(0.100000,-0.100000)"
fill="#000000" stroke="none">
<path class="st1" d="M44 996 c-17 -8 -34 -21 -38 -31 -3 -9 -6 -79 -6 -156 l0 -139 583 2
582 3 3 44 c2 24 -2 57 -9 74 -22 52 -52 57 -319 57 l-240 0 -40 80 -40 80
-223 0 c-164 -1 -230 -4 -253 -14z"/>
<path class="st0" d="M0 405 c0 -229 1 -246 19 -264 11 -11 35 -23 53 -26 18 -3 209 -4
423 -3 l390 3 3 100 c2 83 5 103 21 116 14 11 20 33 23 87 4 76 19 107 72 146
22 17 42 21 97 21 l70 0 -3 30 -3 30 -582 3 -583 2 0 -245z"/>
<path class="st1" d="M1060 559 c-42 -9 -95 -66 -104 -111 -3 -17 -6 -50 -6 -74 0 -31 -6
-50 -20 -64 -18 -18 -20 -33 -20 -130 0 -153 -4 -150 186 -150 81 0 154 5 165
10 17 10 19 22 19 140 0 98 -3 131 -14 137 -8 5 -15 35 -19 80 -7 83 -15 103
-60 136 -38 29 -79 37 -127 26z m105 -74 c22 -21 25 -33 25 -90 l0 -65 -90 0
-90 0 0 65 c0 83 25 115 90 115 30 0 47 -6 65 -25z"/>
</g>
</svg>
