<?xml version="1.0" encoding="utf-8"?>
<!-- Generator: Adobe Illustrator 22.1.0, SVG Export Plug-In . SVG Version: 6.00 Build 0)  -->
<svg version="1.1" id="Layer_1" xmlns="http://www.w3.org/2000/svg" xmlns:xlink="http://www.w3.org/1999/xlink" x="0px" y="0px"
	 width="32px" height="32px" viewBox="0 0 32 32" style="enable-background:new 0 0 32 32;" xml:space="preserve">
<style type="text/css">
	.st0{fill:#1960A3;}
	.st1{fill:#14A45C;}
</style>
<g>
	<path class="st0" d="M21.2,16.1L18,21.9c-0.2,0.3-0.6,0.3-0.7,0l-4.7-11.1L10.4,15c-0.2,0.3-0.5,0.6-0.9,0.6H1
		c0.8,2.1,2.1,4,3.7,5.6L15.9,32l11.3-10.9c1.6-1.6,2.9-3.5,3.7-5.6h-8.8C21.8,15.5,21.4,15.7,21.2,16.1z"/>
	<path class="st0" d="M9.3,13.1l3.1-6c0.2-0.3,0.6-0.3,0.7,0l4.7,11.2l2.3-4.1c0.2-0.3,0.5-0.5,0.9-0.5h10.5c0-0.2,0.1-0.4,0.1-0.5
		c0.5-2.1,0.3-3.4,0.3-3.6C31.5,4,27.8,0,23.3,0c-3,0-5.8,1.8-7.4,4.6C14.4,1.7,11.7,0,8.7,0C4.2,0,0.5,4,0.1,9.5
		c0,0.2-0.2,1.5,0.3,3.6c0,0.2,0.1,0.4,0.1,0.5h7.9C8.8,13.7,9.1,13.5,9.3,13.1z"/>
	<path class="st1" d="M21.1,13.7c-0.4,0-0.7,0.2-0.9,0.5l-2.3,4.1L13.2,7.2c-0.1-0.3-0.6-0.3-0.7,0l-3.1,6c-0.2,0.3-0.5,0.6-0.9,0.6
		H0.5c0.2,0.6,0.4,1.2,0.6,1.8h8.4c0.4,0,0.8-0.2,0.9-0.6l2.2-4.2l4.7,11.1c0.1,0.3,0.6,0.3,0.7,0l3.2-5.8c0.2-0.3,0.5-0.5,0.9-0.5
		H31c0.2-0.6,0.4-1.2,0.6-1.8H21.1z"/>
</g>
</svg>
