<?xml version="1.0" encoding="utf-8"?>
<!-- Generator: Adobe Illustrator 22.1.0, SVG Export Plug-In . SVG Version: 6.00 Build 0)  -->
<svg version="1.1" id="Layer_1" xmlns="http://www.w3.org/2000/svg" xmlns:xlink="http://www.w3.org/1999/xlink" x="0px" y="0px"
	 width="32px" height="32px" viewBox="0 0 32 32" style="enable-background:new 0 0 32 32;" xml:space="preserve">
<style type="text/css">
	.st0{fill:#1960A3;}
	.st1{fill:#14A45C;}
</style>
<path class="st0" d="M32,16L31.7,0.3L27,4.7c0,0-14.2-12.2-24.6,2.7c0,0,8.4-3.4,14.2-1.5c1.3,0.4,3.2,1.3,5,3.9l-4.7,4.4L32,16z"/>
<path class="st1" d="M0,16l0.3,15.6L5,27.3c0,0,14.2,12.2,24.6-2.7c0,0-8.4,3.4-14.2,1.5c-1.3-0.4-3.2-1.3-5-3.9l4.7-4.4L0,16z"/>
</svg>
