<?xml version="1.0" standalone="no"?>
<!DOCTYPE svg PUBLIC "-//W3C//DTD SVG 20010904//EN"
 "http://www.w3.org/TR/2001/REC-SVG-20010904/DTD/svg10.dtd">
<svg version="1.0" xmlns="http://www.w3.org/2000/svg"
 width="64px" height="64px" viewBox="0 0 570.000000 597.000000"
 preserveAspectRatio="xMidYMid meet">
<style type="text/css">
	.st0{fill:#1960A3;}
	.st1{fill:#14A45C;}
</style>
<g transform="translate(0.000000,597.000000) scale(0.100000,-0.100000)"
fill="#000000" stroke="none">
<path class="st0" d="M2726 5922 c-17 -26 -67 -93 -113 -149 -83 -102 -355 -407 -373 -418
-5 -3 -112 77 -237 178 -283 227 -335 267 -408 311 l-58 35 -67 -107 c-306
-494 -1220 -1805 -1423 -2041 -28 -32 -47 -65 -47 -79 0 -34 1430 -3138 1660
-3604 21 -42 28 -48 56 -48 27 0 40 11 95 77 312 378 2184 2407 2680 2905
l267 268 4 87 c4 77 12 106 63 238 126 328 301 697 628 1327 119 229 223 434
232 454 14 34 21 134 10 134 -21 0 -422 -247 -808 -498 -131 -85 -240 -152
-243 -149 -3 2 -20 141 -40 308 -33 296 -89 731 -99 776 -5 22 -8 21 -91 -30
-78 -47 -530 -381 -814 -601 -63 -49 -120 -93 -126 -98 -8 -6 -41 27 -100 99
-49 59 -194 235 -322 391 -216 260 -237 282 -266 282 -26 0 -35 -7 -60 -48z
m299 -352 c217 -263 329 -400 353 -431 11 -15 -16 -39 -215 -195 -126 -98
-514 -404 -863 -679 -349 -276 -750 -590 -890 -699 -140 -110 -261 -204 -268
-211 -12 -11 -5 -63 42 -311 66 -360 191 -1062 321 -1809 52 -302 97 -563 100
-580 17 -93 16 -89 -710 2108 l-257 778 43 47 c23 26 284 297 578 602 743 768
789 816 1025 1070 228 245 364 400 453 515 32 41 61 71 64 67 3 -4 104 -126
224 -272z m1409 193 c18 -92 116 -914 116 -973 0 -23 -20 -39 -167 -135 -93
-60 -386 -253 -653 -429 -456 -301 -890 -584 -1043 -683 l-67 -43 -36 77 c-20
43 -49 112 -66 153 -16 41 -32 78 -34 82 -3 4 -151 -90 -329 -209 l-324 -215
-5 -52 c-4 -42 -117 -2689 -116 -2735 0 -48 -19 57 -115 604 -185 1064 -342
1939 -371 2076 -5 25 11 40 223 205 125 98 471 370 768 604 1092 861 1507
1185 1890 1471 275 206 306 228 317 228 3 1 9 -11 12 -26z"/>
</g>
</svg>
