<?xml version="1.0" encoding="utf-8"?>
<!-- Generator: Adobe Illustrator 26.0.2, SVG Export Plug-In . SVG Version: 6.00 Build 0)  -->
<svg version="1.1" id="Layer_1" xmlns="http://www.w3.org/2000/svg" xmlns:xlink="http://www.w3.org/1999/xlink" x="0px" y="0px"
	 viewBox="0 0 200 200" style="enable-background:new 0 0 200 200;" xml:space="preserve">
<style type="text/css">
	.st0{fill:#1A73E8;}
	.st1{fill:#1A73E8;stroke:#1A73E8;stroke-miterlimit:10;}
</style>
<g>
	<g>
		<path class="st0" d="M158.81,199H41.18C19.03,199,1,180.97,1,158.82V41.19C1,19.03,19.03,1,41.18,1h117.62
			C180.97,1,199,19.03,199,41.19v117.62C199,180.97,180.97,199,158.81,199z M41.18,10.8c-16.75,0-30.38,13.63-30.38,30.39v117.62
			c0,16.75,13.63,30.38,30.38,30.38h117.62c16.76,0,30.39-13.63,30.39-30.38V41.19c0-16.76-13.63-30.39-30.39-30.39H41.18z"/>
	</g>
	<g>
		<path class="st1" d="M88.99,55.31c-1.91-1.56-3.42-2.7-4.82-3.96c-2.06-1.86-2.3-4.48-0.68-6.35c1.55-1.8,4.04-2.07,6.15-0.43
			c4.36,3.4,8.65,6.88,12.92,10.39c2.05,1.69,2.45,3.82,0.98,6.1c-2.84,4.4-5.69,8.8-8.64,13.13c-1.64,2.41-4.41,2.97-6.45,1.51
			c-2.02-1.44-2.36-3.81-0.86-6.32c0.49-0.82,1.04-1.59,1.55-2.4c0.5-0.79,0.98-1.6,1.79-2.94c-4.17,0.71-7.56,2.04-10.75,3.79
			C63.43,77,54.78,95.07,58.31,113.28c3.57,18.43,18.33,32,37.31,34.33c27.46,3.36,51.41-22.46,46.19-49.77
			c-0.68-3.57-1.76-7-3.26-10.32c-1.54-3.4-0.9-5.86,1.74-7c2.55-1.1,4.67,0.04,6.21,3.33c14.24,30.58-4.86,66.54-38.22,71.98
			c-26.48,4.32-51.92-12.63-58.15-38.76c-6.18-25.92,9.22-52.85,34.7-60.69C85.99,56.04,87.2,55.78,88.99,55.31z"/>
	</g>
</g>
</svg>
