<?xml version="1.0" encoding="utf-8"?>
<!-- Generator: Adobe Illustrator 26.0.2, SVG Export Plug-In . SVG Version: 6.00 Build 0)  -->
<svg version="1.1" id="Layer_1" xmlns="http://www.w3.org/2000/svg" xmlns:xlink="http://www.w3.org/1999/xlink" x="0px" y="0px"
	 viewBox="0 0 200 200" style="enable-background:new 0 0 200 200;" xml:space="preserve">
<style type="text/css">
	.st0{fill:#1A73E8;}
	.st1{fill:#1A73E8;stroke:#1A73E8;stroke-miterlimit:10;}
</style>
<g>
	<path class="st0" d="M158.81,199H41.18C19.03,199,1,180.97,1,158.82V41.19C1,19.03,19.03,1,41.18,1h117.62
		C180.97,1,199,19.03,199,41.19v117.62C199,180.97,180.97,199,158.81,199z M41.18,10.8c-16.75,0-30.38,13.63-30.38,30.39v117.62
		c0,16.75,13.63,30.38,30.38,30.38h117.62c16.76,0,30.39-13.63,30.39-30.38V41.19c0-16.76-13.63-30.39-30.39-30.39H41.18z"/>
</g>
<g>
	<g>
		<path class="st0" d="M137.9,73.32c-9.34,10.19-18.69,20.37-28.04,30.53c-0.79,0.82-1.21,1.92-1.18,3.05
			c0.03,8.09,0,16.18,0.03,24.27c0.03,0.58-0.22,1.13-0.68,1.48c-5.34,4.54-10.68,9.1-16,13.67c-0.26,0.21-0.51,0.4-0.92,0.72v-1.16
			c0-12.96,0-25.92,0-38.89c0.04-1.2-0.41-2.36-1.24-3.22c-9.45-10.25-18.88-20.52-28.29-30.8c-0.26-0.28-0.51-0.57-0.88-0.98h78.38
			C138.6,72.53,138.24,72.93,137.9,73.32z"/>
	</g>
	<g>
		<rect x="56.87" y="52.95" class="st0" width="86.05" height="13.1"/>
	</g>
</g>
</svg>
