<?xml version="1.0" encoding="utf-8"?>
<!-- Generator: Adobe Illustrator 22.1.0, SVG Export Plug-In . SVG Version: 6.00 Build 0)  -->
<svg version="1.1" id="Layer_1" xmlns="http://www.w3.org/2000/svg" xmlns:xlink="http://www.w3.org/1999/xlink" x="0px" y="0px"
	 width="32px" height="32px" viewBox="0 0 32 32" style="enable-background:new 0 0 32 32;" xml:space="preserve">
<style type="text/css">
	.st0{fill:#14A45C;}
	.st1{fill:#D2D2D7;}
	.st2{fill:#E4E4EA;}
	.st3{fill:#F5F5F7;}
	.st4{fill:#694B4B;}
	.st5{fill:#563B3B;}
	.st6{fill:#FBCB99;}
	.st7{fill:#EDBA89;}
	.st8{fill:#1960A3;}
	.st9{fill:#223647;}
</style>
<g>
	<polygon class="st0" points="17.4,26.2 18.1,24.4 16,22.9 14,24.4 14.7,26.2 	"/>
	<polygon class="st0" points="14.7,26.2 14.7,26.3 13.8,32 18.3,32 17.4,26.3 17.4,26.2 	"/>
	<polygon class="st1" points="14.4,32 15.3,26.2 14.4,24 11.5,21.3 12.1,25.4 13.9,32 	"/>
	<polygon class="st2" points="18.2,32 20.1,25.3 20.6,21.2 17.6,24 16.8,26.2 17.7,32 	"/>
	<path class="st3" d="M18.2,25.2c0.6,0.4,1,0,1.1-0.2l1.9-3.9l-2.5-1.6l-0.6,1L16,22.8l-2.1-2l-0.4-1.4l-2.7,1.8l1.9,3.8
		c0.1,0.1,0.4,0.8,1.1,0.2l2.2-1.6l2.1,1.5C18.2,25.1,18.2,25.2,18.2,25.2z"/>
	<path class="st4" d="M16.3,0h-0.6c-3.9,0-7.1,3.2-7.1,7.1v1V9v1.5c0,0,1.6-0.2,1.8-0.9l0,0c0.1-0.1,0.1-0.2,0.2-0.3
		c0.9,0,5.2-0.1,7.7-3c0.3,0.9,1.3,2.5,3.2,3c0,0.1,0.1,0.2,0.2,0.3l0,0c0.2,0.8,1.8,0.9,1.8,0.9V9V8.1v-1C23.5,3.2,20.3,0,16.3,0z
		 M21.7,9L21.7,9L21.7,9L21.7,9L21.7,9z M21.7,9L21.7,9L21.7,9L21.7,9L21.7,9L21.7,9z M21.5,9.2L21.5,9.2l0.2-0.1l0,0L21.5,9.2
		L21.5,9.2z M21.6,9.1l-0.1,0.1c0,0,0,0,0,0l0,0c0,0,0,0,0,0L21.6,9.1L21.6,9.1L21.6,9.1z"/>
	<path class="st5" d="M9.9,9V8.1v-1c0-3.8,3-6.9,6.8-7.1c-0.1,0-0.2,0-0.3,0h-0.6c-3.9,0-7.1,3.2-7.1,7.1v1V9v1.5
		c0,0,0.7-0.1,1.3-0.4L9.9,9L9.9,9z"/>
	<path class="st6" d="M22.6,9.4c-0.3-0.1-0.6,0-0.8,0.1c-0.2,0.2-0.4,0.4-0.4,0.7v2.6c0,0.3,0.1,0.6,0.4,0.7
		c0.2,0.1,0.3,0.2,0.5,0.2c0.1,0,0.2,0,0.3,0c0.2-0.1,0.3-0.1,0.5-0.2c0.1-0.1,0.2-0.1,0.2-0.2c0.1-0.1,0.2-0.1,0.3-0.2
		c0.4-0.4,0.6-0.9,0.6-1.5C24.2,10.6,23.6,9.7,22.6,9.4z"/>
	<path class="st7" d="M10.3,9.6c-0.2-0.2-0.5-0.2-0.8-0.1c-0.9,0.3-1.6,1.2-1.6,2.1c0,1,0.6,1.8,1.6,2.1c0.1,0,0.2,0,0.3,0
		c0.2,0,0.4-0.1,0.5-0.2c0.2-0.2,0.4-0.4,0.4-0.7v-2.6C10.7,10,10.5,9.7,10.3,9.6z"/>
	<path class="st6" d="M18.5,17.3c-0.2-0.2-0.4-0.3-0.7-0.2l0,0c-0.1,0-0.1,0-0.2,0c-0.3,0.1-0.7,0.1-1,0.1h-1.1
		c-0.4,0-0.7,0-1.1-0.1c-0.3-0.1-0.5,0-0.8,0.2c-0.2,0.2-0.3,0.4-0.3,0.7v2.6l0,0c0,0.3,0.1,0.5,0.3,0.7l1.8,1.8
		c0.2,0.2,0.4,0.3,0.6,0.3c0,0,0,0,0,0c0.2,0,0.5-0.1,0.6-0.3l1.9-1.9c0.2-0.2,0.3-0.4,0.3-0.6V18C18.8,17.7,18.7,17.5,18.5,17.3z"
		/>
	<path class="st7" d="M16.2,22.8L14.4,21c-0.2-0.2-0.3-0.4-0.3-0.7l0,0v-2.6c0-0.2,0.1-0.4,0.2-0.6c-0.3,0-0.5,0-0.7,0.2
		c-0.2,0.2-0.3,0.4-0.3,0.7v2.6l0,0c0,0.3,0.1,0.5,0.3,0.7l1.8,1.8c0.2,0.2,0.4,0.3,0.6,0.3c0,0,0,0,0,0c0.2,0,0.5-0.1,0.6-0.3l0,0
		C16.5,23,16.3,22.9,16.2,22.8z"/>
	<path class="st6" d="M21.3,8.7c-0.1,0-0.2-0.1-0.3-0.1c-1.5-0.7-2.1-1.6-2.4-2.2c0,0,0,0,0-0.1c-0.2-0.3-0.5-0.1-0.5-0.1l0,0
		c-1.4,1.1-2.9,1.7-4.2,2.1c-0.5,0.1-1,0.3-1.4,0.3c-0.9,0.2-1.4,0.2-1.4,0.2c-0.5,0-0.8,0.4-0.8,0.9v3.7c0,2.9,2.4,5.3,5.3,5.3h1.1
		c2.9,0,5.3-2.4,5.3-5.3V9.6C21.9,9.2,21.7,8.8,21.3,8.7z"/>
	<path class="st7" d="M11.3,13.4V9.7c0-0.5,0.4-0.9,0.8-0.9c0,0,0.6,0,1.4-0.2C14,8.5,14.5,8.4,15,8.3c1.1-0.3,2.5-0.9,3.7-1.7
		c0-0.1-0.1-0.1-0.1-0.2c0,0,0,0,0-0.1c-0.2-0.3-0.5-0.1-0.5-0.1l0,0c-1.4,1.1-2.9,1.7-4.2,2.1c-0.5,0.1-1,0.3-1.4,0.3
		c-0.9,0.2-1.4,0.2-1.4,0.2c-0.5,0-0.8,0.4-0.8,0.9v3.7c0,2.9,2.4,5.3,5.3,5.3h1.1C13.7,18.6,11.3,16.3,11.3,13.4z"/>
	<g>
		<path class="st8" d="M5.8,32h8.8l-3.1-11.2l-3.2,1.3l0,0c-1.3,0.5-3.5,2.1-3.5,5.5v3.2C4.6,31.2,4.8,32,5.8,32z"/>
		<path class="st8" d="M27.4,30.9v-3.2c0-3.4-2.3-5.1-3.5-5.5l-3.1-1.3L17.6,32h8.6C27.2,32,27.4,31.2,27.4,30.9z"/>
	</g>
	<g>
		<path class="st9" d="M11.4,20.8l-3.2,1.3l0,0c-1.3,0.5-3.5,2.1-3.5,5.5v3.2c0,0.3,0.2,1.2,1.2,1.2h0.1v-4.4c0-3.3,2.2-5,3.5-5.5
			l0,0l2.1-0.9L11.4,20.8z"/>
		<path class="st9" d="M23.7,32v-4.5c0-0.3-0.2-0.5-0.5-0.5c-0.3,0-0.5,0.2-0.5,0.5V32H23.7z"/>
		<path class="st9" d="M9.4,32v-4.5c0-0.3-0.2-0.5-0.5-0.5c-0.3,0-0.5,0.2-0.5,0.5V32H9.4z"/>
	</g>
	<path class="st7" d="M16.6,13.8c0.2,0,0.3,0.2,0.3,0.3s-0.2,0.3-0.3,0.3h-0.9c-0.2,0-0.3-0.2-0.3-0.3v-1.6c0-0.2,0.2-0.3,0.3-0.3
		s0.3,0.2,0.3,0.3v1.3H16.6z"/>
</g>
</svg>
