<?xml version="1.0" encoding="utf-8"?>
<!-- Generator: Adobe Illustrator 22.1.0, SVG Export Plug-In . SVG Version: 6.00 Build 0)  -->
<svg version="1.1" id="Layer_1" xmlns="http://www.w3.org/2000/svg" xmlns:xlink="http://www.w3.org/1999/xlink" x="0px" y="0px"
	 width="32px" height="32px" viewBox="0 0 32 32" style="enable-background:new 0 0 32 32;" xml:space="preserve">
<style type="text/css">
	.st0{fill:#1960A3;}
	.st1{fill:#14A45C;}
</style>
<g>
	<path class="st0" d="M32,16c0,8.8-7.2,16-16,16C7.1,32,0,24.8,0,15.9C0,7.2,7.2,0,16,0C24.9,0,32,7.2,32,16z M22.6,3.2
		c0.1,0.3,0.1,0.4,0.1,0.6C22.9,4.3,23,4.9,23,5.5c0,0.8-0.5,1.4-1.1,2c-0.5,0.4-1.1,0.8-1.6,1.2c-0.6,0.5-0.9,1.1-1,1.8
		c-0.1,0.9,0,1.8,0.2,2.6c0.3,1.3,0.6,2.6,0.6,3.9c0,0.4-0.1,0.8-0.4,1c-0.3,0.3-0.6,0.6-0.9,0.8c0.3-2.7,0.3-2.7-0.3-5.4
		c-0.2-0.8-0.3-1.7-0.3-2.6c0.1-1.3,0.5-2.4,1.6-3.2c0.4-0.3,0.9-0.6,1.3-0.9C21.9,6,22,5.5,21.7,4.4c-0.1-0.5-0.3-0.9-0.3-1.4
		c0-0.3-0.1-0.4-0.3-0.5c-2.6-0.9-5.2-1.2-7.9-0.6C6.7,3.2,1.9,8.8,1.6,15.4c-0.1,2.3,0.3,4.5,1.3,6.6c2.6,5.3,6.8,8.1,12.7,8.4
		c2,0.1,3.9-0.3,5.7-1c6.2-2.5,10-9.2,8.8-15.8c-0.7-4.1-2.8-7.2-6.3-9.6C23.5,3.7,23.1,3.5,22.6,3.2z"/>
	<path class="st1" d="M16,17.7c-0.3-0.3-0.5-0.6-0.4-1.1c0.1-0.4,0.4-0.6,0.8-0.5c0.9,0.3,1.4,1,1.6,1.9c0.1,0.3-0.1,0.6-0.4,0.7
		c-0.6,0.2-1.1,0.4-1.7,0.6c-0.1,0-0.3,0.1-0.4,0.2c0.3,0.4,0.7,0.6,1.1,0.6c1.3,0,2.4-0.5,3.3-1.4c0.2-0.2,0.4-0.5,0.6-0.7
		c0.5-0.5,1.1-0.7,1.8-0.4c0.7,0.3,1.3,0.6,2,0.9c0.2,0.1,0.5,0.2,0.7,0.4c0.5,0.2,0.9,0.2,1.3-0.2c0.3-0.2,0.7-0.3,1-0.4
		c0.3,0.8,0.1,1.8-0.5,2.3c-0.5,0.4-1,0.4-1.5,0.2c-0.6-0.2-1.2-0.3-1.9-0.5c-0.2,0-0.4,0-0.5,0c-0.7,0.1-0.9,0.5-0.6,1.1
		c0.2,0.5,0.3,0.9,0.3,1.4c0.1,1.2-0.4,2.1-1.3,2.8c-0.9,0.8-2,1.2-3.2,1.4c-1.8,0.3-3.6,0.1-5.3-0.6c-1.9-0.8-2.9-2.3-3.2-4.3
		c-0.1-0.8-0.3-1.7-0.4-2.5c-0.1-0.7-0.5-1.2-1.2-1.5c-1.4-0.4-2.3-1.4-2.8-2.7c-0.5-1.2-0.7-2.4-0.6-3.7c0.1-1.3,0.6-2.3,1.6-3.1
		C7.3,8,8.6,7.5,9.9,7.4c3.1-0.2,5,2.3,5,4.4c0,0.6,0.2,1.2,0.6,1.7c0.6,0.8,0.5,1.5-0.2,2.2c-0.4,0.3-0.7,0.7-1.1,1
		c-0.1,0.1-0.3,0.2-0.3,0.4c-0.1,0.2-0.2,0.5-0.1,0.7c0.1,0.2,0.4,0.3,0.6,0.3C14.9,18,15.4,17.8,16,17.7z"/>
</g>
</svg>
