<?xml version="1.0" encoding="utf-8"?>
<!-- Generator: Adobe Illustrator 26.0.2, SVG Export Plug-In . SVG Version: 6.00 Build 0)  -->
<svg version="1.1" id="Layer_1" xmlns="http://www.w3.org/2000/svg" xmlns:xlink="http://www.w3.org/1999/xlink" x="0px" y="0px"
	 viewBox="0 0 200 200" style="enable-background:new 0 0 200 200;" xml:space="preserve">
<style type="text/css">
	.st0{fill:#1A73E8;}
	.st1{fill:#FFFFFF;}
</style>
<g>
	<g>
		<path class="st0" d="M99.98,197.37c-31.28,0-62.56,0-93.84,0c-2.66,0-3.45-0.8-3.45-3.47c0-38.53,0-77.06-0.04-115.6
			c0-1.41,0.46-2.37,1.58-3.22c10.3-7.81,20.58-15.64,30.8-23.54c0.59-0.46,0.98-1.55,0.99-2.35c0.08-6.23,0.04-12.46,0.05-18.7
			c0-2.85,0.85-3.71,3.7-3.71c8.64-0.01,17.28,0.04,25.92-0.05c1.1-0.01,2.38-0.45,3.25-1.11c9.52-7.18,18.97-14.44,28.44-21.68
			c2.28-1.75,2.97-1.75,5.3,0.02c9.47,7.23,18.93,14.5,28.44,21.67c0.88,0.66,2.16,1.08,3.26,1.1c8.51,0.09,17.01,0.05,25.52,0.05
			c3.28,0,4.05,0.76,4.05,3.97c0.01,6.17-0.04,12.33,0.06,18.49c0.01,0.84,0.53,1.95,1.19,2.45c10.18,7.85,20.44,15.6,30.6,23.47
			c0.81,0.62,1.49,1.98,1.49,2.99c0.07,38.6,0.05,77.2,0.05,115.8c0,2.62-0.83,3.41-3.51,3.41
			C162.55,197.37,131.26,197.37,99.98,197.37z M41.73,32.46c-0.04,0.58-0.08,0.91-0.08,1.24c0,22.92-0.02,45.84,0.05,68.76
			c0,0.88,0.65,2.02,1.36,2.61c11.12,9.25,22.27,18.48,33.48,27.63c13.54,11.04,31.71,11.67,45.47,1.02
			c12.07-9.34,23.68-19.29,35.42-29.05c0.62-0.51,0.91-1.73,0.91-2.62c0.05-22.52,0.04-45.03,0.03-67.55c0-0.65-0.06-1.3-0.1-2.03
			C119.39,32.46,80.64,32.46,41.73,32.46z M186.54,191.7c-0.73-0.65-1.16-1.05-1.6-1.42c-20-16.49-40.02-32.96-59.99-49.49
			c-1.17-0.97-1.93-0.84-3.11-0.13c-9.35,5.63-19.42,7.31-30.13,5.28c-5.46-1.03-10.44-3.24-15.21-6.25
			c-20.95,17.26-41.85,34.48-63.12,52.01C71.3,191.7,128.68,191.7,186.54,191.7z M8.37,188.62c21.41-17.64,42.47-34.99,63.64-52.44
			c-21.28-17.53-42.33-34.88-63.64-52.43C8.37,118.86,8.37,153.52,8.37,188.62z M191.71,83.73c-21.39,17.63-42.44,34.97-63.66,52.46
			c21.24,17.49,42.31,34.85,63.66,52.44C191.71,153.49,191.71,118.86,191.71,83.73z M190.11,77.83c-8.77-6.71-17.3-13.24-26.01-19.9
			c0,13.9,0,27.44,0,41.33C172.87,92.04,181.37,85.03,190.11,77.83z M35.97,57.92c-8.84,6.76-17.33,13.26-26.03,19.91
			c8.68,7.15,17.24,14.21,26.03,21.44C35.97,85.32,35.97,71.84,35.97,57.92z M122.93,26.68c-0.39-0.44-0.5-0.61-0.65-0.73
			c-7.06-5.41-14.15-10.8-21.17-16.26c-1.03-0.8-1.62-0.38-2.41,0.22c-6.79,5.22-13.59,10.42-20.41,15.6
			c-0.39,0.3-0.98,0.34-1.48,0.5c0.23,0.22,0.47,0.45,0.7,0.67C92.54,26.68,107.56,26.68,122.93,26.68z"/>
		<path class="st0" d="M6.14,199c-3.56,0-5.07-1.52-5.07-5.1v-19.27c-0.01-32.11-0.01-64.23-0.04-96.33c0-1.93,0.7-3.36,2.22-4.51
			c10.3-7.81,20.57-15.64,30.8-23.54c0.13-0.12,0.34-0.67,0.35-1.08c0.06-4.3,0.05-8.59,0.05-12.88v-5.81
			c0.01-3.73,1.6-5.33,5.31-5.33h7.86c6.04,0.01,12.04,0.01,18.05-0.06c0.75-0.01,1.7-0.32,2.3-0.78
			C75.34,18.76,82.68,13.15,90,7.54l6.4-4.89c2.87-2.21,4.38-2.19,7.27,0.02l7.16,5.48c7.07,5.41,14.16,10.83,21.27,16.2
			c0.6,0.44,1.54,0.76,2.31,0.77c6.15,0.06,12.29,0.08,18.46,0.05h7.04c4.19,0,5.67,1.46,5.67,5.6l-0.01,5.05
			c-0.01,4.47-0.01,8.94,0.06,13.42c0.01,0.39,0.32,1.01,0.56,1.2c4.7,3.63,9.41,7.23,14.14,10.83c5.5,4.2,10.99,8.4,16.46,12.64
			c1.2,0.93,2.12,2.76,2.12,4.25c0.06,35.64,0.05,71.27,0.04,106.9v8.91c0,3.53-1.54,5.03-5.14,5.03L6.14,199z M39.77,28.4
			c-1.93,0.01-2.07,0.14-2.07,2.1v5.79c0,4.3,0.01,8.61-0.05,12.91c-0.01,1.15-0.52,2.77-1.61,3.61
			C25.8,60.73,15.52,68.57,5.21,76.38c-0.71,0.54-0.94,1-0.94,1.92c0.03,32.11,0.03,64.22,0.04,96.33v19.27
			c0,1.78,0.07,1.85,1.83,1.85l187.69-0.01c1.85,0,1.9-0.13,1.9-1.79v-8.91c0.01-35.63,0.01-71.26-0.04-106.89
			c0-0.5-0.45-1.38-0.86-1.7c-5.46-4.23-10.96-8.43-16.45-12.63c-4.72-3.61-9.45-7.21-14.15-10.85c-1.03-0.81-1.8-2.36-1.82-3.71
			c-0.08-4.49-0.07-8.98-0.06-13.48l0.01-5.04c0-2.26,0-2.35-2.43-2.35h-7.04c-6.16,0.03-12.33,0.01-18.5-0.05
			c-1.45-0.02-3.07-0.56-4.22-1.42c-7.13-5.38-14.21-10.8-21.29-16.21l-7.16-5.48c-1.69-1.27-1.67-1.28-3.33-0.03l-6.4,4.89
			c-7.33,5.62-14.68,11.23-22.05,16.79c-1.16,0.88-2.78,1.43-4.23,1.44c-6.02,0.06-12.06,0.04-18.07,0.06H39.77z M190.81,193.32
			H8.86l67.52-55.62l1,0.63c4.95,3.13,9.74,5.09,14.64,6.02c10.37,1.98,20.13,0.26,28.98-5.07c1.32-0.82,2.95-1.42,4.98,0.27
			c15.52,12.84,31.07,25.66,46.61,38.47l13.38,11.02c0.33,0.27,0.64,0.56,1.07,0.94L190.81,193.32z M17.9,190.07h164.22l-11.6-9.56
			c-15.54-12.82-31.1-25.63-46.61-38.48c-0.51-0.42-0.52-0.41-1.24,0.01c-9.56,5.76-20.06,7.6-31.27,5.49
			c-4.97-0.94-9.81-2.86-14.77-5.85L17.9,190.07z M193.33,192.08l-67.85-55.89l67.85-55.9V192.08z M130.6,136.19l59.49,49V87.17
			L130.6,136.19z M6.75,192.06V80.31l67.81,55.87L6.75,192.06z M9.99,87.2v97.98l59.46-49L9.99,87.2z M100.09,142.95
			c-8.59,0-17.23-3-24.57-9c-11.21-9.15-22.37-18.38-33.49-27.63c-0.94-0.78-1.95-2.32-1.95-3.86c-0.06-19.09-0.06-38.2-0.06-57.3
			V33.7c0-0.25,0.02-0.49,0.04-0.81l0.14-2.05h119.61l0.12,2.21c0.03,0.5,0.06,0.98,0.06,1.45v6.14
			c0.01,20.47,0.01,40.94-0.03,61.42c0,1.2-0.39,2.94-1.5,3.85c-2.81,2.34-5.61,4.68-8.41,7.03c-8.78,7.34-17.85,14.94-27.06,22.06
			C116.15,140.31,108.13,142.95,100.09,142.95z M43.27,34.08v11.08c-0.01,19.09-0.01,38.2,0.06,57.29c0,0.32,0.37,1.03,0.78,1.37
			c11.11,9.26,22.25,18.47,33.47,27.62c13.03,10.62,30.51,11.03,43.44,1c9.16-7.09,18.21-14.67,26.96-21.99
			c2.8-2.35,5.61-4.69,8.42-7.03c0.12-0.13,0.33-0.77,0.33-1.37c0.04-20.47,0.04-40.94,0.03-61.41v-6.14c0-0.13-0.01-0.27-0.01-0.41
			H43.27z M37.59,102.72L7.34,77.78l30.25-23.15V102.72z M12.55,77.87l21.79,17.96V61.21L12.55,77.87z M162.48,102.7V54.65
			l30.24,23.14L162.48,102.7z M165.73,61.22v34.6l21.77-17.94L165.73,61.22z M126.49,28.31H76.85l-3.16-3.01l2.63-0.83
			c0.2-0.06,0.41-0.11,0.61-0.16c0.14-0.03,0.36-0.08,0.42-0.11c6.77-5.15,13.57-10.35,20.36-15.56c0.77-0.58,2.35-1.77,4.39-0.22
			c5.09,3.96,10.22,7.88,15.34,11.8l5.83,4.46c0.23,0.18,0.39,0.37,0.58,0.59L126.49,28.31z M81.57,25.06h36.85l-2.94-2.28
			c-5.13-3.92-10.26-7.85-15.36-11.81c-0.04-0.11-0.3,0.13-0.42,0.23C93.66,15.84,87.62,20.46,81.57,25.06z"/>
	</g>
	<g>
		<path class="st0" d="M99.81,58.25c-12.18,0-24.36,0-36.55,0c-0.67,0-1.53,0.22-1.97-0.1c-0.88-0.65-2.06-1.57-2.12-2.46
			c-0.06-0.88,0.94-2.02,1.76-2.71c0.5-0.42,1.54-0.27,2.33-0.27c24.5-0.01,49-0.01,73.5-0.01c0.54,0,1.08-0.03,1.6,0.04
			c1.59,0.22,2.58,1.09,2.63,2.76c0.05,1.55-1.1,2.69-2.84,2.72c-3.14,0.06-6.29,0.02-9.44,0.02
			C119.09,58.25,109.45,58.25,99.81,58.25z"/>
		<path class="st0" d="M62.04,59.94c-0.56,0-1.17-0.1-1.72-0.51c-1.36-1-2.66-2.14-2.76-3.63c-0.13-1.71,1.41-3.28,2.33-4.06
			c0.89-0.74,2.02-0.69,2.92-0.66l0.46,0.01l73.49-0.01c0.84,0.01,1.34-0.01,1.84,0.06c2.43,0.32,3.94,1.94,4.03,4.3
			c0.03,1.16-0.37,2.24-1.13,3.04c-0.81,0.86-1.98,1.34-3.3,1.36c-2.29,0.05-4.59,0.04-6.9,0.03l-68.04-0.01L62.8,59.9
			C62.57,59.92,62.31,59.94,62.04,59.94z M60.8,55.65c0.07,0,0.36,0.37,1.41,1.14c-0.1-0.1,0.15-0.11,0.31-0.13
			c0.25-0.03,0.51-0.04,0.74-0.04l68.04,0.01c2.28,0.01,4.55,0.02,6.83-0.03c0.44-0.01,0.8-0.13,1.01-0.36
			c0.16-0.17,0.24-0.4,0.23-0.69c-0.03-0.68-0.22-1.06-1.23-1.19c-0.33-0.05-0.66-0.04-1-0.04l-73.88,0.02l-0.58-0.01
			c-0.29-0.01-0.75-0.03-0.91,0.01c-0.56,0.53-0.96,1.14-1,1.32C60.79,55.65,60.8,55.65,60.8,55.65z"/>
	</g>
	<g>
		<path class="st0" d="M100.13,93.11c12.38,0,24.77-0.01,37.15,0.02c0.84,0,1.91,0.02,2.46,0.51c0.65,0.58,1.29,1.74,1.15,2.5
			c-0.16,0.86-1.07,1.74-1.89,2.26c-0.6,0.38-1.56,0.23-2.35,0.23c-24.43,0.01-48.86,0.01-73.29,0.01c-0.33,0-0.67,0.01-1-0.01
			c-2.17-0.09-3.4-1.17-3.33-2.9c0.07-1.68,1.21-2.61,3.36-2.61C74.96,93.1,87.55,93.11,100.13,93.11z"/>
		<path class="st0" d="M137.77,100.28c-0.22,0-0.44-0.01-0.64-0.02l-0.48-0.01l-74.36,0.01c-1.46-0.06-2.64-0.48-3.51-1.24
			c-0.94-0.82-1.43-2.02-1.38-3.36c0.11-2.61,1.97-4.17,4.98-4.17l46.01-0.01c9.62-0.01,19.27-0.01,28.9,0.02
			c0.93,0,2.5,0,3.53,0.92c1,0.87,1.93,2.58,1.67,4.01c-0.33,1.78-2.09,3-2.62,3.34C139.2,100.2,138.45,100.28,137.77,100.28z
			 M136.64,97l0.61,0.02c0.29,0,0.77,0.03,0.93-0.03c0.64-0.41,1.07-0.96,1.1-1.15c-0.01-0.13-0.3-0.7-0.63-0.98
			c-0.21-0.11-1.09-0.11-1.38-0.11c-9.64-0.03-19.3-0.02-28.89-0.02l-46.01,0.01c-1.69,0-1.72,0.63-1.74,1.06
			c-0.02,0.46,0.13,0.66,0.27,0.77c0.16,0.15,0.58,0.4,1.51,0.44L136.64,97z"/>
	</g>
	<g>
		<path class="st0" d="M99.98,78.44c-12.11,0-24.23,0-36.34,0c-0.67,0-1.34,0.02-2.01-0.05c-1.65-0.15-2.6-1.1-2.59-2.75
			c0.01-1.65,1.01-2.56,2.65-2.7c0.6-0.05,1.2-0.04,1.81-0.04c24.36,0,48.73,0,73.09,0c3.12,0,4.45,0.84,4.43,2.8
			c-0.02,1.94-1.32,2.74-4.48,2.74C124.35,78.44,112.17,78.44,99.98,78.44z"/>
		<path class="st0" d="M63.24,80.06c-0.7,0-1.24-0.01-1.76-0.06c-2.52-0.23-4.08-1.91-4.06-4.37c0.02-2.43,1.6-4.08,4.13-4.3
			c0.56-0.04,1.11-0.04,1.65-0.04h73.39c2.39,0,3.96,0.47,4.96,1.47c0.74,0.75,1.1,1.75,1.09,2.97c-0.04,4.34-4.6,4.34-6.1,4.34
			H63.64C63.5,80.06,63.37,80.06,63.24,80.06z M62.95,74.52c-0.46,0-0.79,0.01-1.13,0.03c-1.07,0.1-1.15,0.55-1.16,1.1
			c-0.01,0.67,0.16,1.03,1.12,1.12c0.54,0.05,1.09,0.06,1.57,0.04h73.18c2.85,0,2.85-0.63,2.86-1.13c0.01-0.48-0.11-0.61-0.16-0.65
			c-0.11-0.12-0.65-0.51-2.64-0.51H63.5C63.3,74.52,63.12,74.52,62.95,74.52z"/>
	</g>
</g>
</svg>
