<?xml version="1.0" encoding="utf-8"?>
<!-- Generator: Adobe Illustrator 26.0.2, SVG Export Plug-In . SVG Version: 6.00 Build 0)  -->
<svg version="1.1" id="Layer_1" xmlns="http://www.w3.org/2000/svg" xmlns:xlink="http://www.w3.org/1999/xlink" x="0px" y="0px"
	 viewBox="0 0 200 200" style="enable-background:new 0 0 200 200;" xml:space="preserve">
<style type="text/css">
	.st0{fill:#1A73E8;}
</style>
<g>
	<g>
		<path class="st0" d="M60.47,199c-23.73,0-43.04-19.01-43.05-42.39c0.07-23.37,19.38-42.36,43.03-42.42h0.01c0,0,0.01,0,0.02,0
			c23.73,0,43.04,19.01,43.05,42.39c0.01,11.34-4.48,22-12.63,30.03c-8.12,7.98-18.93,12.39-30.41,12.4
			C60.49,199,60.48,199,60.47,199z M60.46,124.9c-17.78,0.05-32.28,14.25-32.33,31.67c0.01,17.51,14.52,31.72,32.34,31.72
			c0.01,0,0.01,0,0.02,0c8.66,0,16.79-3.32,22.9-9.32c6.08-5.98,9.43-13.94,9.43-22.39c-0.01-17.47-14.51-31.68-32.34-31.68
			C60.47,124.9,60.47,124.9,60.46,124.9L60.46,124.9z"/>
	</g>
	<g>
		<path class="st0" d="M113.07,183.1l-9.25-5.42c4.06-6.93,6.12-14.55,6.12-22.66c0-25.43-21.14-46.13-47.14-46.13
			c-4.17,0-8.29,0.54-12.2,1.6l-2.8-10.34c4.83-1.31,9.88-1.98,15-1.98c31.9,0,57.86,25.5,57.86,56.84
			C120.66,164.91,118.03,174.62,113.07,183.1z"/>
	</g>
	<g>
		<path class="st0" d="M64.66,152.47c0-4.13,0-8.1,0-12.06c0.15-2.27-1.6-4.23-3.91-4.38c-2.31-0.15-4.31,1.57-4.46,3.84
			c-0.01,0.17-0.01,0.34,0,0.51c-0.02,5.3-0.02,10.61,0,15.91c-0.17,2.27,1.57,4.25,3.89,4.41c0.18,0.01,0.36,0.01,0.54,0
			c3.54,0.02,7.07,0.02,10.61,0c2.31,0.17,4.33-1.53,4.51-3.8c0.18-2.27-1.56-4.25-3.87-4.43c-0.23-0.02-0.45-0.02-0.68,0
			C69.14,152.48,67.01,152.48,64.66,152.47"/>
	</g>
	<g>
		<path class="st0" d="M143.48,185.74H99.08l4.75-8.07c4.05-6.92,6.11-14.53,6.11-22.66c0-25.43-21.14-46.13-47.13-46.13
			c-4.18,0-8.3,0.54-12.21,1.6l-6.76,1.83V39.63C43.84,18.33,61.38,1,82.94,1h60.54c21.56,0,39.11,17.33,39.11,38.63v107.49
			C182.58,168.42,165.04,185.74,143.48,185.74z M116.95,175.03h26.52c15.66,0,28.39-12.52,28.39-27.91V39.63
			c0-15.39-12.73-27.91-28.39-27.91H82.94c-15.65,0-28.38,12.52-28.38,27.91v59.13c2.71-0.39,5.47-0.59,8.25-0.59
			c31.9,0,57.85,25.5,57.85,56.84C120.66,161.9,119.39,168.69,116.95,175.03z"/>
	</g>
	<g>
		<path class="st0" d="M156.75,50.76H76.3c-0.25,0-0.46-0.21-0.46-0.46v-8.94c0-0.25,0.21-0.46,0.46-0.46h80.45
			c0.25,0,0.46,0.21,0.46,0.46v8.94C157.21,50.55,157.01,50.76,156.75,50.76z"/>
	</g>
	<g>
		<path class="st0" d="M156.75,70.92H76.3c-0.25,0-0.46-0.21-0.46-0.46v-8.94c0-0.25,0.21-0.46,0.46-0.46h80.45
			c0.25,0,0.46,0.21,0.46,0.46v8.94C157.21,70.71,157.01,70.92,156.75,70.92z"/>
	</g>
	<g>
		<path class="st0" d="M156.75,90.05H76.3c-0.25,0-0.46-0.21-0.46-0.46v-8.94c0-0.25,0.21-0.46,0.46-0.46h80.45
			c0.25,0,0.46,0.21,0.46,0.46v8.94C157.21,89.85,157.01,90.05,156.75,90.05z"/>
	</g>
</g>
</svg>
