<?xml version="1.0" encoding="utf-8"?>
<!-- Generator: Adobe Illustrator 22.1.0, SVG Export Plug-In . SVG Version: 6.00 Build 0)  -->
<svg version="1.1" id="Layer_1" xmlns="http://www.w3.org/2000/svg" xmlns:xlink="http://www.w3.org/1999/xlink" x="0px" y="0px"
	 width="32px" height="32px" viewBox="0 0 32 32" style="enable-background:new 0 0 32 32;" xml:space="preserve">
<style type="text/css">
	.st0{fill:#1960A3;}
	.st1{fill:#14A45C;}
</style>
<g>
	<path class="st0" d="M30.6,24.4c0.3,0.5,0.6,1,0.9,1.6c0.2,0.4,0.4,0.7,0.5,1.2c0.1,1.1-0.3,2-1.1,2.7c-0.1,0-0.1,0.1-0.2,0.1
		c-0.5,0.3-1,0.3-1.6,0.3c-8.7,0-17.5,0-26.2,0c-0.6,0-1.2-0.1-1.7-0.4c-1-0.7-1.7-2.3-0.8-3.7c1.4-2.3,2.7-4.7,4.1-7
		c3-5.3,6.1-10.5,9.1-15.8c0.3-0.6,0.7-1.1,1.4-1.4c1.1-0.4,2.5-0.2,3.2,0.9c0.8,1.2,1.5,2.6,2.2,3.8c3.4,5.8,6.7,11.6,10,17.4
		C30.5,24.2,30.6,24.3,30.6,24.4z M15.9,27.6c4.2,0,8.4,0,12.7,0c0.5,0,0.6-0.2,0.4-0.6c-4.2-7.3-8.4-14.5-12.6-21.8
		c0-0.1-0.1-0.2-0.2-0.2c-0.2-0.2-0.3-0.2-0.5,0c-0.1,0.1-0.1,0.1-0.1,0.2C11.4,12.4,7.2,19.6,3,26.9C3,27,2.8,27.2,2.9,27.4
		c0.1,0.2,0.4,0.1,0.5,0.1C7.6,27.6,11.8,27.6,15.9,27.6z"/>
	<path class="st1" d="M14,16.2c-0.1-1-0.1-2-0.2-3c0-0.4,0.2-0.7,0.6-0.7c1,0,2,0,3.1,0c0.4,0,0.6,0.3,0.6,0.7
		c0,0.8-0.1,1.5-0.1,2.3c-0.1,1.2-0.1,2.5-0.2,3.7c0,0.2,0,0.4-0.1,0.5C17.5,19.9,17.3,20,17,20c-0.7,0-1.4,0-2.1,0
		c-0.5,0-0.7-0.2-0.8-0.7C14.1,18.2,14,17.2,14,16.2z"/>
	<path class="st1" d="M18.3,23.1c0,1.3-1.1,2.3-2.3,2.3c-1.2,0-2.3-1.1-2.3-2.3c0-1.3,1.1-2.3,2.3-2.3
		C17.2,20.8,18.3,21.9,18.3,23.1z"/>
</g>
</svg>
