<?xml version="1.0" encoding="utf-8"?>
<!-- Generator: Adobe Illustrator 22.1.0, SVG Export Plug-In . SVG Version: 6.00 Build 0)  -->
<svg version="1.1" id="Layer_1" xmlns="http://www.w3.org/2000/svg" xmlns:xlink="http://www.w3.org/1999/xlink" x="0px" y="0px"
	 width="32px" height="32px" viewBox="0 0 32 32" style="enable-background:new 0 0 32 32;" xml:space="preserve">
<style type="text/css">
	.st0{fill:#14A45C;}
	.st1{fill:#1960A3;}
	.st2{fill:#F17B2B;}
</style>
<g>
	<path class="st0" d="M23,9.5c2.6,0,4.7-2.1,4.7-4.7S25.6,0,23,0s-4.7,2.1-4.7,4.7S20.3,9.5,23,9.5z M26.3,10.3h-0.6
		c-0.8,0.4-1.7,0.6-2.7,0.6s-1.9-0.2-2.7-0.6h-0.6c-2.7,0-5,2.2-5,5v0.5c0,1,0.8,1.8,1.8,1.8h13c1,0,1.8-0.8,1.8-1.8v-0.5
		C31.2,12.5,29,10.3,26.3,10.3z"/>
	<path class="st1" d="M9,24c2.6,0,4.7-2.1,4.7-4.7s-2.1-4.7-4.7-4.7s-4.7,2.1-4.7,4.7S6.4,24,9,24z M12.4,24.8h-0.6
		c-0.8,0.4-1.7,0.6-2.7,0.6s-1.9-0.2-2.7-0.6H5.7c-2.7,0-5,2.2-5,5v0.5c0,1,0.8,1.8,1.8,1.8h13c1,0,1.8-0.8,1.8-1.8v-0.5
		C17.3,27,15.1,24.8,12.4,24.8z"/>
	<path class="st2" d="M16.7,5.9L8.2,1.7L8.7,5c0,0-9.4,2.5-6.1,11.4c0,0,1-4.6,3.5-6.6c0.6-0.4,1.5-1,3.1-1l0.5,3.3L16.7,5.9z"/>
</g>
</svg>
