<?xml version="1.0" encoding="utf-8"?>
<!-- Generator: Adobe Illustrator 26.0.2, SVG Export Plug-In . SVG Version: 6.00 Build 0)  -->
<svg version="1.1" id="Layer_1" xmlns="http://www.w3.org/2000/svg" xmlns:xlink="http://www.w3.org/1999/xlink" x="0px" y="0px"
	 viewBox="0 0 200 200" style="enable-background:new 0 0 200 200;" xml:space="preserve">
<style type="text/css">
	.st0{fill:#1A73E8;}
</style>
<g id="Group_1093_00000101068492561645231060000004333276672683509888_">
	<path id="Path_1429_00000183240962352220789430000000587441072030274232_" class="st0" d="M86.25,158.36
		c-2.17-0.38-4.4-0.62-6.5-1.18c-15.48-3.47-27.53-15.61-30.91-31.1c-2.55-10.52-0.66-21.62,5.21-30.71
		c3.99-6.43,8.41-12.59,13.23-18.43c6.97-8.86,13.93-17.73,20.9-26.61c0.37-0.47,0.74-0.93,1.2-1.51l3.93,5
		c1.17,1.49,2.37,2.95,3.48,4.49c0.27,0.4,0.34,0.91,0.2,1.37c-5.6,14.65,1.74,31.06,16.39,36.66c1.81,0.69,3.69,1.2,5.6,1.51
		c2.03,0.27,4.09,0.38,6.14,0.32c0.67-0.08,1.31,0.31,1.55,0.95c9.97,20.4,1.52,45.02-18.88,54.99c-2.71,1.33-5.56,2.35-8.5,3.05
		c-2.29,0.55-4.66,0.82-6.99,1.23L86.25,158.36z"/>
	<path id="Path_1430_00000176760051523986769930000001523345156073323410_" class="st0" d="M123.67,34.63
		c2.84,3.62,5.63,7.06,8.29,10.59c3.24,4.3,6.6,8.53,9.52,13.05c6.29,9.91,3.35,23.04-6.56,29.33c-9.91,6.29-23.04,3.35-29.33-6.56
		c-1.77-2.79-2.87-5.96-3.2-9.26c-0.57-4.86,0.71-9.75,3.59-13.71c3.42-5.01,7.15-9.81,10.81-14.66c2.2-2.92,4.51-5.77,6.88-8.8"/>
	<path id="Path_1431_00000085220760149714321890000015707995910047948473_" class="st0" d="M105.84,1
		c3.63,0.48,7.28,0.85,10.88,1.46c17.25,2.88,33.39,10.38,46.7,21.72c0.63,0.55,1.28,1.04,2.2,1.79c1.99-2.08,3.95-4.11,5.89-6.16
		c2.22-2.63,6.16-2.97,8.8-0.74c1.53,1.29,2.35,3.24,2.2,5.24c-0.04,6.51,0,13.02,0,19.52c0.3,3.38-2.19,6.38-5.58,6.68
		c-0.4,0.04-0.81,0.03-1.21-0.01c-6.44,0-12.89,0-19.33,0c-2.73,0.27-5.31-1.3-6.33-3.85c-1.1-2.5-0.38-5.44,1.75-7.15
		c1.62-1.55,3.2-3.13,4.89-4.79c-4.96-4.43-10.45-8.23-16.34-11.32c-42.33-22.28-94.71-6.03-117,36.3
		c-10.33,19.63-12.74,42.47-6.73,63.82c0.49,1.59,0.63,3.26,0.43,4.91c-0.56,2.63-2.87,4.51-5.56,4.52
		c-2.82,0.28-5.43-1.54-6.15-4.28c-1.44-5.14-2.58-10.36-3.4-15.63C-1.5,89.29,4.09,65.13,17.62,45.33
		C33.26,21.37,58.61,5.48,86.98,1.84C89.26,1.5,91.56,1.29,93.85,1H105.84z"/>
	<path id="Path_1432_00000093178999818460391600000015137854504433493178_" class="st0" d="M199.05,106.18
		c-0.49,3.56-0.86,7.15-1.5,10.68c-4.01,24.04-16.92,45.7-36.16,60.66c-18.46,15-41.83,22.61-65.59,21.34
		c-21.7-0.77-42.5-8.85-59.03-22.93c-0.59-0.49-1.18-1-1.79-1.48c-0.23-0.11-0.48-0.21-0.73-0.28c-1.83,1.92-3.79,3.96-5.72,6.01
		c-1.72,2.14-4.65,2.87-7.18,1.79c-2.56-0.98-4.14-3.56-3.85-6.29c0.04-6.51,0-13.02,0-19.52c-0.31-3.37,2.17-6.36,5.55-6.67
		c0.41-0.04,0.82-0.03,1.23,0.01c6.44,0,12.89,0,19.33,0c2.73-0.27,5.32,1.3,6.34,3.85c1.12,2.51,0.41,5.47-1.74,7.19
		c-1.61,1.56-3.2,3.13-4.89,4.79c4.78,4.25,10.03,7.92,15.66,10.95c13.82,7.56,29.46,11.12,45.19,10.28
		c37.4-1.82,69.4-27.45,79.34-63.55c4.26-15.23,4.23-31.34-0.1-46.54c-0.5-1.65-0.62-3.38-0.36-5.08c0.96-3.22,4.35-5.05,7.57-4.09
		c2.01,0.6,3.57,2.19,4.13,4.22c1.44,6.65,2.62,13.36,3.89,20.05c0.16,0.87,0.26,1.75,0.39,2.63L199.05,106.18z"/>
</g>
</svg>
