<?xml version="1.0" encoding="utf-8"?>
<!-- Generator: Adobe Illustrator 22.1.0, SVG Export Plug-In . SVG Version: 6.00 Build 0)  -->
<svg version="1.1" id="Layer_1" xmlns="http://www.w3.org/2000/svg" xmlns:xlink="http://www.w3.org/1999/xlink" x="0px" y="0px"
	 width="32px" height="32px" viewBox="0 0 32 32" style="enable-background:new 0 0 32 32;" xml:space="preserve">
<style type="text/css">
	.st0{fill:#1960A3;}
	.st1{fill:#14A45C;}
</style>
<g>
	<g>
		<path class="st0" d="M15.3,1.1H14v1.1h1.3c1.1,0,2,0.9,2,2v3.2c0,3.9-3.2,7.1-7.1,7.1c-3.9,0-7.1-3.2-7.1-7.1V4.3c0-1.1,0.9-2,2-2
			h1.3V1.1H5.1c-1.7,0-3.1,1.4-3.1,3.1v3.2c0,4.5,3.7,8.2,8.2,8.2c4.5,0,8.2-3.7,8.2-8.2V4.3C18.4,2.5,17,1.1,15.3,1.1z"/>
		<g>
			<path class="st0" d="M10.2,19c-2.2,0-4.3-1.2-5.9-3.5c-1.5-2.2-2.3-5-2.3-8.1h1.1c0,5.7,3.2,10.4,7.1,10.4
				c3.9,0,7.1-4.7,7.1-10.4h1.1c0,3-0.8,5.9-2.3,8.1C14.5,17.8,12.4,19,10.2,19z"/>
		</g>
		<g>
			<path class="st0" d="M18.1,32c-4.7,0-8.5-3.8-8.5-8.5v-4.9h1.1v4.9c0,4,3.3,7.3,7.3,7.3c4,0,7.3-3.3,7.3-7.3v-4.9h1.1v4.9
				C26.5,28.2,22.7,32,18.1,32z"/>
		</g>
		<path class="st0" d="M24.6,17.7V19c0,0.8,0.6,1.4,1.4,1.4c0.8,0,1.4-0.6,1.4-1.4v-1.3H24.6z"/>
		<path class="st1" d="M25.9,10.5c-2.3,0-4.1,1.9-4.1,4.1c0,2.3,1.9,4.1,4.1,4.1c2.3,0,4.1-1.9,4.1-4.1
			C30.1,12.4,28.2,10.5,25.9,10.5z M25.9,17.5c-1.6,0-2.9-1.3-2.9-2.9c0-1.6,1.3-2.9,2.9-2.9c1.6,0,2.9,1.3,2.9,2.9
			C28.8,16.2,27.5,17.5,25.9,17.5z"/>
		<path class="st1" d="M27.5,14.7c0,0.9-0.7,1.6-1.6,1.6c-0.9,0-1.6-0.7-1.6-1.6c0-0.9,0.7-1.6,1.6-1.6
			C26.8,13.1,27.5,13.8,27.5,14.7z"/>
		<g>
			<path class="st1" d="M7.2,3.4c-0.9,0-1.7-0.8-1.7-1.7C5.5,0.8,6.3,0,7.2,0V3.4z"/>
			<path class="st1" d="M13.1,0c0.9,0,1.7,0.8,1.7,1.7c0,0.9-0.8,1.7-1.7,1.7V0z"/>
		</g>
	</g>
</g>
</svg>
