<?xml version="1.0" encoding="utf-8"?>
<!-- Generator: Adobe Illustrator 22.1.0, SVG Export Plug-In . SVG Version: 6.00 Build 0)  -->
<svg version="1.1" id="Layer_1" xmlns="http://www.w3.org/2000/svg" xmlns:xlink="http://www.w3.org/1999/xlink" x="0px" y="0px"
	 width="32px" height="32px" viewBox="0 0 32 32" style="enable-background:new 0 0 32 32;" xml:space="preserve">
<style type="text/css">
	.st0{fill:#1960A3;}
	.st1{fill:#14A45C;}
	.st2{fill:#FEFEFE;}
</style>
<g>
	<path class="st0" d="M32,4.1c-0.1,0-0.1,0.1-0.1,0.2C31.7,4.9,31.4,5.5,31,6c-4.8,5.5-9.7,11-14.5,16.5c-0.4,0.4-0.8,0.5-1.3,0.3
		c-1.2-0.3-2.4-0.5-3.5-0.7c-0.7-0.1-1.4-0.3-2.1-0.4c-0.8-0.2-1-0.8-0.5-1.4C13,15.9,16.9,11.5,20.7,7c1.6-1.9,3.3-3.8,4.9-5.6
		c0.6-0.7,1.3-1.2,2.2-1.3c0,0,0,0,0,0c0.4,0,0.7,0,1.1,0c0.1,0.1,0.2,0.1,0.3,0.1c1,0.3,1.7,0.8,2.3,1.7C31.8,2.2,31.8,2.6,32,3
		C32,3.4,32,3.8,32,4.1z M17.1,19.2c0-0.3-0.2-0.5-0.5-0.6c-1-0.2-2-0.4-2.9-0.6c-0.4-0.1-0.7,0.1-0.7,0.5c-0.1,0.3,0.1,0.6,0.5,0.7
		c1,0.2,2,0.4,3,0.6C16.8,19.8,17.1,19.6,17.1,19.2z M15.4,15.9c-0.4,0-0.7,0.2-0.8,0.5c-0.1,0.3,0.2,0.6,0.5,0.7
		c1,0.2,1.9,0.4,2.9,0.6c0.4,0.1,0.7-0.1,0.8-0.5c0.1-0.3-0.2-0.6-0.6-0.7c-0.3-0.1-0.6-0.1-0.9-0.2C16.8,16.2,16.1,16.1,15.4,15.9z
		"/>
	<path class="st1" d="M0,31.9c0.5-0.4,0.9-0.9,1.3-1.4c2.2-2.5,4.3-4.9,6.5-7.4C7.9,23,8,22.9,8.3,23c0.7,0.2,1.4,0.3,2.1,0.4
		c-0.4,0.4-0.7,0.8-1,1.2c-0.7,0.8-1.3,1.5-2,2.3C7,27.2,7,27.7,7.3,28.1c0.3,0.4,0.8,0.5,1.2,0.3c0.2-0.1,0.3-0.2,0.4-0.3
		c1.2-1.3,2.4-2.7,3.5-4c0.2-0.2,0.3-0.2,0.6-0.2c0.6,0.1,1.3,0.3,1.9,0.4c0.2,0,0.2,0.1,0.1,0.3c-1.1,1.7-2.2,3.4-3.4,5
		c-0.9,1.3-2.3,1.9-3.8,2.3c-0.3,0.1-0.7,0.1-1,0.2c-2.2,0-4.4,0-6.6,0C0.2,32,0.1,32.1,0,31.9z"/>
	<path class="st0" d="M13,32c-0.1-0.1,0-0.2,0.1-0.2c0.3-0.3,0.6-0.7,0.8-1.1c0.1-0.2,0.2-0.2,0.4-0.2c3,0,6,0,9,0
		c2.9,0,5.8,0,8.6,0c0,0.4,0,0.9,0,1.3c0,0.2,0,0.2-0.2,0.2c-1.9,0-3.8,0-5.7,0C21.7,32,17.4,32,13,32z"/>
	<path class="st2" d="M32,3c-0.2-0.4-0.2-0.8-0.4-1.2C31,1,30.3,0.4,29.3,0.1c-0.1,0-0.2,0-0.3-0.1c0.9,0,1.9,0,2.8,0
		C32,0,32,0,32,0.2C32,1.1,32,2.1,32,3z"/>
	<path class="st2" d="M17.1,19.2c0,0.4-0.3,0.7-0.7,0.6c-1-0.2-2-0.4-3-0.6c-0.4-0.1-0.6-0.4-0.5-0.7c0.1-0.4,0.4-0.6,0.7-0.5
		c1,0.2,2,0.4,2.9,0.6C17,18.6,17.1,18.8,17.1,19.2z"/>
	<path class="st2" d="M15.4,15.9c0.6,0.1,1.3,0.3,2,0.4c0.3,0.1,0.6,0.1,0.9,0.2c0.4,0.1,0.6,0.4,0.6,0.7c-0.1,0.4-0.4,0.6-0.8,0.5
		c-1-0.2-1.9-0.4-2.9-0.6c-0.4-0.1-0.6-0.4-0.5-0.7C14.7,16.1,15,15.9,15.4,15.9z"/>
</g>
</svg>
