<?xml version="1.0" encoding="utf-8"?>
<!-- Generator: Adobe Illustrator 22.1.0, SVG Export Plug-In . SVG Version: 6.00 Build 0)  -->
<svg version="1.1" xmlns="http://www.w3.org/2000/svg" xmlns:xlink="http://www.w3.org/1999/xlink" x="0px" y="0px" width="32px"
	 height="32px" viewBox="0 0 32 32" style="enable-background:new 0 0 32 32;" xml:space="preserve">
<style type="text/css">
	.st0{fill:#14A45C;}
	.st1{fill:#1960A3;}
	.st2{display:none;}
</style>
<g id="Layer_1">
	<g>
		<path class="st0" d="M18,20.5V14c0-1.1-0.9-2-2-2s-2,0.9-2,2v6.5c-1.2,0.7-2,2-2,3.5c0,2.2,1.8,4,4,4s4-1.8,4-4
			C20,22.5,19.2,21.2,18,20.5z"/>
		<path class="st1" d="M22,18.7V6c0-3.3-2.7-6-6-6c-3.3,0-6,2.7-6,6v12.7c-1.2,1.4-2,3.2-2,5.2c0,4.4,3.5,8,7.9,8c0,0,0,0,0.1,0
			c4.4,0,8-3.6,8-8C24,22,23.2,20.1,22,18.7z M16,29L16,29c-2.8,0-5-2.3-5-5c0-2.1,1.2-3.2,2-4.1V6c0-1.7,1.3-3,3-3s3,1.3,3,3v13.8
			c0.8,0.9,2,2,2,4.2C21,26.8,18.8,29,16,29z"/>
	</g>
</g>
<g id="Layer_2" class="st2">
</g>
</svg>
