<?xml version="1.0" encoding="utf-8"?>
<!-- Generator: Adobe Illustrator 26.0.2, SVG Export Plug-In . SVG Version: 6.00 Build 0)  -->
<svg version="1.1" id="Layer_1" xmlns="http://www.w3.org/2000/svg" xmlns:xlink="http://www.w3.org/1999/xlink" x="0px" y="0px"
	 viewBox="0 0 200 200" style="enable-background:new 0 0 200 200;" xml:space="preserve">
<style type="text/css">
	.st0{fill:#1A73E8;}
</style>
<g>
	<g>
		<path class="st0" d="M154.32,152.98v-1.53c0-3.61,0.03-7.21,0-10.81c0.06-2.27-1.72-4.16-3.99-4.23
			c-2.27-0.06-4.16,1.72-4.23,3.99c0,0.08,0,0.16,0,0.23c-0.04,5.5-0.04,11,0,16.49c-0.05,2.2,1.69,4.02,3.89,4.06
			c0.03,0,0.06,0,0.09,0c5.58,0.05,11.16,0.05,16.74,0c1.7,0.03,3.22-1.06,3.73-2.68c0.79-2.11-0.27-4.46-2.38-5.25
			c-0.49-0.19-1.02-0.27-1.55-0.26c-4.03-0.05-8.07,0-12.3,0"/>
	</g>
	<g>
		<path class="st0" d="M100.07,67.56c-29.55,0-59.1,0.02-88.65-0.04c-1.78,0-2.35,0.36-2.35,2.27c0.07,32.39,0.05,64.78,0.05,97.17
			c0,7.02,3.91,10.95,10.89,10.95c29.28,0,58.56,0,87.84,0c0.68,0,1.36-0.04,2.03,0.02c1.81,0.16,3.06,1.46,3.1,3.15
			c0.04,1.76-1.26,3.13-3.17,3.3c-0.47,0.04-0.95,0.02-1.42,0.02c-29.55,0-59.1,0.01-88.65,0c-10.18,0-17.1-6.89-17.1-17.03
			c-0.01-42.74-0.01-85.47,0-128.21c0-10.15,6.92-17.03,17.08-17.05c4.6-0.01,9.2-0.04,13.79,0.02c1.22,0.02,1.62-0.28,1.62-1.57
			c-0.02-2.56-0.28-5.13,0.28-7.68c1.43-6.45,7.36-10.83,13.89-10.21C55.8,3.3,60.85,8.72,61.03,15.31c0.05,1.76,0.06,3.52,0,5.27
			c-0.04,1.06,0.16,1.56,1.4,1.56c7.71-0.05,15.42-0.05,23.13,0c1.15,0.01,1.48-0.33,1.49-1.48c0-2.49-0.28-5.01,0.23-7.48
			c1.36-6.62,7.24-11.06,13.86-10.49c6.58,0.57,11.68,6.05,11.83,12.75c0.04,1.76,0.05,3.52,0,5.27c-0.03,0.99,0.19,1.44,1.32,1.43
			c7.78-0.04,15.55-0.04,23.33,0c1.09,0.01,1.35-0.37,1.36-1.4c0.04-2.63-0.28-5.27,0.3-7.88c1.43-6.43,7.42-10.81,13.92-10.17
			c6.44,0.64,11.48,5.99,11.7,12.46c0.06,1.69,0.12,3.39-0.01,5.07c-0.11,1.47,0.28,1.98,1.86,1.94c4.6-0.12,9.2-0.06,13.79-0.04
			c9.87,0.04,16.82,6.99,16.83,16.9c0.02,27.52,0.01,55.04,0.01,82.56c0,0.41,0.02,0.81-0.02,1.22c-0.17,1.91-1.53,3.21-3.3,3.17
			c-1.68-0.04-2.99-1.29-3.15-3.1c-0.06-0.6-0.02-1.22-0.02-1.82c0-17.11-0.03-34.22,0.04-51.32c0.01-1.79-0.44-2.21-2.22-2.21
			C159.17,67.57,129.62,67.56,100.07,67.56z M99.96,61.06c29.42,0,58.83,0,88.25,0c0.47,0,0.95-0.04,1.42,0.01
			c0.97,0.1,1.28-0.29,1.27-1.26c-0.04-7.37,0.09-14.74-0.08-22.11c-0.11-4.84-4.2-8.88-9.03-9.04c-5.2-0.17-10.41-0.03-15.62-0.07
			c-0.97-0.01-1.3,0.31-1.27,1.27c0.06,1.89,0.06,3.79-0.01,5.68c-0.21,6.55-5.38,11.97-11.88,12.5
			c-6.47,0.53-12.31-3.8-13.74-10.16c-0.59-2.61-0.26-5.26-0.31-7.88c-0.02-1-0.22-1.42-1.34-1.42c-7.78,0.04-15.55,0.04-23.33,0
			c-1.11-0.01-1.37,0.4-1.34,1.41c0.06,1.89,0.06,3.79-0.01,5.68c-0.25,6.45-5.38,11.79-11.8,12.36
			c-6.45,0.57-12.35-3.76-13.79-10.09c-0.58-2.55-0.32-5.12-0.3-7.68c0.01-1.31-0.35-1.71-1.69-1.7
			c-7.57,0.06-15.15,0.05-22.72,0.01c-1.19-0.01-1.71,0.23-1.62,1.55c0.11,1.75,0.06,3.52,0.01,5.27c-0.18,6.59-5.23,12-11.75,12.63
			c-6.5,0.63-12.47-3.77-13.89-10.21c-0.56-2.55-0.3-5.12-0.28-7.68c0.01-1.29-0.41-1.58-1.62-1.56c-4.67,0.06-9.33,0.01-14,0.03
			c-6.31,0.02-10.37,4.1-10.38,10.43C9.1,45.67,9.2,52.3,9.06,58.92c-0.04,1.85,0.52,2.18,2.24,2.18
			C40.86,61.05,70.41,61.06,99.96,61.06z M54.56,25.56c0-3.18,0.02-6.35-0.01-9.53c-0.04-3.97-2.76-6.87-6.44-6.9
			c-3.7-0.03-6.51,2.84-6.53,6.79c-0.03,6.29-0.03,12.57,0,18.86c0.02,3.93,2.84,6.83,6.53,6.8c3.68-0.03,6.4-2.92,6.44-6.89
			C54.58,31.65,54.56,28.6,54.56,25.56z M106.49,25.37c0-3.18,0.03-6.35-0.01-9.53c-0.05-3.82-2.82-6.67-6.42-6.71
			c-3.71-0.03-6.52,2.83-6.54,6.77c-0.04,6.29-0.03,12.57,0,18.86c0.02,3.93,2.83,6.83,6.52,6.81c3.68-0.02,6.41-2.91,6.45-6.88
			C106.52,31.59,106.49,28.48,106.49,25.37z M145.44,25.36c0,3.11-0.02,6.22,0.01,9.33c0.03,3.97,2.76,6.87,6.44,6.89
			c3.69,0.03,6.51-2.86,6.53-6.8c0.04-6.29,0.04-12.57,0-18.86c-0.02-3.93-2.85-6.82-6.54-6.79c-3.69,0.03-6.39,2.91-6.43,6.9
			C145.42,19.14,145.44,22.25,145.44,25.36z"/>
		<path class="st0" d="M109.18,186.04c-0.14,0-0.28,0-0.42,0l-89.03-0.01C8.7,186.02,1,178.35,1,167.37
			C0.99,124.64,0.99,81.9,1,39.17C1,28.2,8.7,20.51,19.72,20.49l2.17-0.01c3.88-0.01,7.75-0.03,11.6,0.03
			c0-0.72-0.01-1.22-0.03-1.73c-0.06-2.02-0.13-4.11,0.36-6.25C35.41,5.3,42.2,0.36,49.44,1.07c7.33,0.69,13.01,6.8,13.22,14.2
			c0.04,1.75,0.06,3.49-0.01,5.23c7.75-0.04,15.24-0.04,22.76,0.01c0-0.71-0.01-1.24-0.03-1.77c-0.05-1.91-0.11-3.89,0.3-5.9
			c1.53-7.47,7.91-12.45,15.6-11.79c7.42,0.63,13.14,6.8,13.31,14.33c0.04,1.7,0.05,3.4,0,5.1c7.75-0.03,15.25-0.03,22.75,0.01
			c0.01-0.78,0-1.39-0.01-2c-0.05-1.95-0.1-3.96,0.36-6.02c1.62-7.24,8.36-12.12,15.67-11.43c7.24,0.72,12.91,6.75,13.16,14.02
			c0.06,1.77,0.11,3.5-0.01,5.24c-0.01,0.08-0.01,0.14-0.01,0.2c0.06-0.01,0.14-0.01,0.22,0c3.78-0.09,7.54-0.07,11.34-0.05
			l2.51,0.01c10.85,0.04,18.44,7.66,18.44,18.52c0.03,20.64,0.01,41.28,0.01,61.92v20.64c0,0.61,0,0.99-0.04,1.37
			c-0.23,2.7-2.26,4.64-4.83,4.64c-0.04,0-0.08,0-0.11,0c-2.5-0.06-4.49-1.98-4.72-4.58c-0.05-0.48-0.05-0.99-0.04-1.5v-13.29
			c-0.01-12.84-0.01-25.67,0.04-38.5c0-0.28-0.01-0.46-0.03-0.58c-0.09-0.01-0.28-0.01-0.52,0c-0.01,0-0.03,0-0.04,0
			c-24.99,0.05-49.94,0.06-75.01,0.04H85.3c-24.65-0.01-49.26,0-73.88-0.04c-0.2,0.02-0.6,0.02-0.72,0.04c0.03,0.08,0,0.28,0,0.61
			c0.05,27.76,0.05,55.52,0.05,83.28v13.88c0,6.11,3.2,9.33,9.26,9.33l87.84,0.01l0.55-0.01c0.52-0.01,1.07-0.02,1.62,0.03
			c2.6,0.23,4.53,2.23,4.58,4.73c0.08,2.62-1.88,4.71-4.64,4.96C109.69,186.03,109.44,186.04,109.18,186.04z M108.38,182.78
			l0.43,0.01c0.27-0.01,0.55,0.01,0.86-0.01c1.03-0.1,1.69-0.74,1.66-1.64c-0.03-0.87-0.66-1.49-1.62-1.58
			c-0.42-0.04-0.85-0.01-1.27-0.02l-0.61,0.01L20,179.54c-7.82,0-12.5-4.7-12.5-12.58v-13.88c0-27.76,0-55.52-0.05-83.28
			c0-0.94,0.1-2.13,0.95-2.97c0.8-0.81,1.9-0.93,2.97-0.93c0.03,0,0.04,0,0.05,0c24.65,0.04,49.21,0.04,73.88,0.04h28.41
			c25.07-0.02,50.01,0.01,75.01-0.04c0.01,0,0.03,0,0.04,0c0.99,0,2.09,0.11,2.89,0.91c0.81,0.81,0.91,1.93,0.9,2.93
			c-0.06,12.82-0.05,25.65-0.04,38.48v13.36c-0.01,0.38-0.03,0.75,0.01,1.13c0.09,0.99,0.71,1.63,1.57,1.65c0.01,0,0.03,0,0.04,0
			c0.89,0,1.51-0.66,1.6-1.69c0.04-0.29,0.03-0.55,0.03-0.82v-20.9c0-20.64,0.01-41.28-0.01-61.92c0-8.96-6.25-15.25-15.2-15.28
			l-2.52-0.01c-3.74-0.01-7.49-0.03-11.23,0.05c-0.71,0-1.97-0.04-2.76-0.89c-0.79-0.82-0.81-1.91-0.76-2.78
			c0.13-1.58,0.08-3.21,0.01-4.89c-0.2-5.66-4.6-10.35-10.24-10.91c-5.46-0.52-10.9,3.27-12.17,8.91c-0.37,1.67-0.33,3.39-0.28,5.22
			c0.01,0.77,0.04,1.55,0.03,2.33c-0.03,2.47-1.62,2.99-2.95,2.99c-0.01,0-0.03,0-0.04,0c-7.76-0.04-15.54-0.04-23.3,0
			c-0.39-0.04-1.47,0.01-2.24-0.79c-0.68-0.7-0.74-1.61-0.71-2.32c0.05-1.71,0.04-3.45,0-5.17C111.22,9.59,106.77,4.79,101,4.29
			c-0.34-0.03-0.67-0.04-1.01-0.04C94.59,4.25,90,8,88.86,13.5c-0.33,1.64-0.28,3.34-0.23,5.15c0.01,0.67,0.04,1.34,0.04,2.01
			c0,0.72-0.09,1.63-0.79,2.32c-0.7,0.69-1.62,0.78-2.28,0.78c-0.01,0-0.04,0-0.05,0c-7.68-0.05-15.39-0.06-23.1,0.01
			c-0.39,0.08-1.52,0.01-2.31-0.81c-0.79-0.82-0.75-1.95-0.74-2.43c0.08-1.74,0.05-3.46,0.01-5.17C59.25,9.59,54.83,4.84,49.13,4.3
			c-5.6-0.58-10.89,3.3-12.15,8.94c-0.39,1.75-0.34,3.54-0.28,5.45c0.01,0.63,0.04,1.25,0.04,1.88c0,0.75-0.09,1.71-0.81,2.42
			c-0.71,0.71-1.69,0.76-2.46,0.78c-3.83-0.06-7.72-0.04-11.58-0.03l-2.18,0.01c-9.26,0.02-15.47,6.22-15.47,15.43
			c-0.01,42.73-0.01,85.47,0,128.2c0,9.21,6.23,15.41,15.48,15.41H108.38z M11.31,62.73c-1.08,0-2.19-0.11-2.99-0.93
			c-0.81-0.82-0.89-1.98-0.87-2.9c0.09-4.49,0.08-8.99,0.06-13.48l-0.01-6.37c0.01-7.18,4.84-12.03,11.99-12.06h5.02
			c2.98,0,5.98,0.01,8.96-0.03c0.74-0.02,1.74,0.06,2.47,0.79c0.74,0.73,0.81,1.72,0.8,2.42l-0.04,1.74
			c-0.06,1.95-0.13,3.78,0.28,5.56c1.26,5.65,6.33,9.52,12.15,8.95c5.69-0.55,10.12-5.3,10.28-11.06l0.01-0.65
			c0.04-1.5,0.08-2.99-0.03-4.48c-0.03-0.39-0.1-1.57,0.7-2.42c0.74-0.77,1.79-0.74,2.56-0.86c7.57,0.06,15.11,0.06,22.68-0.01
			c0.94,0.08,1.76,0.08,2.5,0.81c0.75,0.74,0.84,1.72,0.84,2.51c0,0.61-0.03,1.2-0.04,1.81c-0.05,1.93-0.1,3.75,0.3,5.51
			c1.24,5.52,6.31,9.45,12.07,8.83c5.66-0.5,10.11-5.15,10.32-10.81c0.06-1.84,0.06-3.71,0-5.56c-0.01-0.43-0.04-1.52,0.74-2.31
			c0.77-0.79,1.86-0.78,2.24-0.78c7.76,0.05,15.54,0.05,23.3,0c0.01,0,0.03,0,0.04,0c1.9,0,2.89,1.01,2.94,3.01
			c0.01,0.78-0.01,1.54-0.03,2.31c-0.04,1.84-0.09,3.58,0.29,5.26c1.18,5.31,5.76,8.94,11.07,8.94c0.3,0,0.62-0.01,0.95-0.04
			c5.73-0.47,10.19-5.17,10.38-10.94c0.06-1.86,0.06-3.72,0-5.57c-0.01-0.36-0.04-1.41,0.72-2.19c0.75-0.77,1.83-0.73,2.18-0.77
			c1.93,0.02,3.87,0.01,5.79,0c3.3-0.01,6.59-0.03,9.86,0.08c5.72,0.19,10.47,4.95,10.61,10.62c0.1,4.72,0.09,9.45,0.08,14.17
			c0,2.66-0.01,5.31,0,7.98c0,0.38,0,1.52-0.85,2.28c-0.55,0.49-1.31,0.7-2.21,0.6c-0.28-0.03-0.51-0.02-0.76-0.01l-0.49,0.01H82.23
			C58.58,62.7,34.95,62.68,11.31,62.73z M19.5,30.23c-5.39,0.02-8.75,3.4-8.76,8.82l0.01,6.35c0.01,4.51,0.03,9.03-0.06,13.55
			c0,0.25,0,0.42,0.01,0.53c0.08-0.01,0.27-0.01,0.61-0.01c23.65-0.04,47.31-0.04,70.92-0.04h105.99c0.44-0.01,0.77,0.01,1.05-0.01
			c0-2.66,0.01-5.14,0.01-7.61c0.01-4.69,0.03-9.39-0.08-14.08c-0.09-3.98-3.45-7.32-7.47-7.45c-3.25-0.11-6.5-0.1-9.75-0.08
			c-1.81,0.01-3.64,0.03-5.44,0c0.04,1.88,0.04,3.64-0.03,5.39c-0.24,7.41-6,13.46-13.38,14.06c-0.38,0.03-0.77,0.05-1.17,0.05
			c-6.76,0-12.78-4.76-14.28-11.47c-0.46-2.07-0.42-4.09-0.37-6.04c0.01-0.66,0.04-1.32,0.03-1.98c-7.71,0.01-15.24,0.03-22.75-0.01
			c0.04,1.98,0.04,3.76-0.03,5.53c-0.29,7.29-6,13.28-13.29,13.92c-7.19,0.72-13.91-4.25-15.52-11.34
			c-0.49-2.16-0.43-4.28-0.38-6.32l0.04-1.72c0-0.03,0-0.05,0-0.07h-0.01c-0.01,0-0.04,0-0.05,0c-7.57,0.06-15.15,0.05-22.7,0.01
			c0.06,1.67,0.04,3.13,0,4.58l-0.01,0.65c-0.22,7.4-5.9,13.5-13.22,14.21c-7.2,0.72-14.02-4.23-15.62-11.48
			c-0.48-2.17-0.42-4.3-0.36-6.37l0.04-1.6c-3.01,0.04-6,0.04-9,0.03H19.5z M85.8,30.22L85.8,30.22L85.8,30.22z M48.07,43.21
			c-2.14,0-4.15-0.81-5.63-2.28c-1.58-1.57-2.46-3.75-2.47-6.14c-0.04-6.29-0.04-12.58,0-18.88c0.01-2.38,0.89-4.56,2.46-6.12
			c1.48-1.46,3.49-2.27,5.63-2.27c0.03,0,0.05,0,0.08,0c4.55,0.03,8.01,3.69,8.04,8.5c0.03,2.27,0.03,4.55,0.01,6.83v5.33
			c0.01,2.18,0.01,4.36-0.01,6.54c-0.05,4.89-3.42,8.46-8.04,8.5C48.12,43.21,48.09,43.21,48.07,43.21z M48.07,10.76
			c-1.31,0-2.49,0.48-3.36,1.33c-0.96,0.95-1.5,2.31-1.5,3.84c-0.04,6.29-0.04,12.56,0,18.84c0,1.53,0.55,2.89,1.51,3.85
			c0.87,0.87,2.07,1.34,3.35,1.34c0.01,0,0.03,0,0.04,0c2.8-0.03,4.79-2.2,4.82-5.29c0.03-2.17,0.03-4.34,0.01-6.5v-5.34
			c0.01-2.26,0.01-4.53-0.01-6.79c-0.03-3.1-2-5.27-4.82-5.29C48.09,10.76,48.08,10.76,48.07,10.76z M151.93,43.21
			c-0.01,0-0.03,0-0.05,0c-4.54-0.03-8-3.69-8.05-8.51c-0.01-2.08-0.01-4.16,0-6.24v-6.21c-0.01-2.08-0.01-4.16,0-6.24
			c0.05-4.89,3.42-8.47,8.04-8.5c0.03,0,0.05,0,0.08,0c2.14,0,4.13,0.81,5.62,2.27c1.58,1.56,2.47,3.74,2.49,6.12
			c0.04,6.3,0.04,12.59,0,18.89C160.01,39.6,156.53,43.21,151.93,43.21z M151.94,10.76c-0.03,0-0.04,0-0.05,0
			c-2.8,0.02-4.79,2.19-4.82,5.28c-0.01,2.07-0.01,4.13,0,6.2v6.23c-0.01,2.07-0.01,4.13,0,6.2c0.03,3.09,2.02,5.27,4.83,5.29
			c0.01,0,0.01,0,0.03,0c2.8,0,4.84-2.18,4.87-5.19c0.04-6.28,0.04-12.55,0-18.84c-0.01-1.52-0.55-2.88-1.52-3.84
			C154.4,11.24,153.22,10.76,151.94,10.76z M99.99,43.21c-2.14,0-4.13-0.81-5.62-2.28c-1.58-1.57-2.46-3.76-2.47-6.15
			c-0.04-6.29-0.04-12.58,0-18.88c0.01-2.38,0.89-4.56,2.46-6.12c1.48-1.46,3.49-2.26,5.63-2.26c0.04,0,0.06,0,0.09,0
			c4.51,0.04,7.96,3.61,8.03,8.31c0.03,2.28,0.03,4.56,0.01,6.83v5.38c0.01,2.23,0.01,4.46-0.01,6.69
			c-0.05,4.81-3.51,8.46-8.06,8.49C100.03,43.21,100.02,43.21,99.99,43.21z M100,10.76c-1.31,0-2.49,0.47-3.36,1.33
			c-0.96,0.94-1.5,2.3-1.5,3.82c-0.04,6.29-0.04,12.56,0,18.84c0,1.53,0.55,2.9,1.51,3.86c0.87,0.87,2.05,1.34,3.33,1.34
			c0.01,0,0.03,0,0.03,0c2.83-0.02,4.82-2.19,4.84-5.27c0.03-2.22,0.03-4.43,0.01-6.64v-5.4c0.01-2.26,0.01-4.53-0.01-6.79
			c-0.04-2.93-2.07-5.07-4.81-5.1C100.03,10.76,100.02,10.76,100,10.76z"/>
	</g>
	<g>
		<path class="st0" d="M155.3,197.38c-23.52-0.01-42.29-18.85-42.31-42.47c-0.02-23.01,19.01-41.88,42.27-41.9
			c23.08-0.03,42.11,18.98,42.11,42.07C197.37,178.4,178.48,197.39,155.3,197.38z M155.24,190.9c19.45,0.03,35.56-15.98,35.64-35.42
			c0.08-19.79-15.88-35.98-35.46-35.98c-19.93,0-35.89,15.86-35.93,35.71C119.44,174.85,135.49,190.87,155.24,190.9z"/>
		<path class="st0" d="M155.32,199c-0.01,0-0.01,0-0.03,0c-24.61-0.01-43.91-19.38-43.93-44.09c-0.01-23.98,19.68-43.5,43.9-43.53
			c0.01,0,0.03,0,0.05,0c11.58,0,22.52,4.56,30.82,12.84c8.29,8.29,12.87,19.25,12.87,30.85c0,11.72-4.56,22.74-12.82,31.05
			C177.92,194.43,166.96,199,155.32,199z M155.31,114.62c-0.03,0-0.04,0-0.05,0c-22.43,0.03-40.66,18.09-40.65,40.28
			c0.03,22.89,17.9,40.83,40.69,40.85c0.01,0,0.01,0,0.03,0c10.76,0,20.91-4.23,28.55-11.93c7.66-7.7,11.88-17.91,11.88-28.76
			c0-10.73-4.23-20.87-11.92-28.55C176.16,118.85,166.02,114.62,155.31,114.62z M155.3,192.52c-0.03,0-0.04,0-0.05,0
			c-9.99-0.01-19.39-3.91-26.45-10.96c-7.08-7.06-10.97-16.41-10.94-26.35c0.05-20.59,16.9-37.33,37.54-37.33h0.01
			c9.84,0,19.12,3.88,26.13,10.92c7.11,7.14,11.01,16.62,10.96,26.68C192.42,175.92,175.74,192.52,155.3,192.52z M155.4,121.12
			c-18.87,0-34.25,15.29-34.3,34.1c-0.01,9.06,3.52,17.6,9.99,24.05c6.45,6.44,15.04,10,24.15,10.01c0.01,0,0.04,0,0.05,0
			c18.65,0,33.88-15.15,33.96-33.8c0.04-9.2-3.51-17.86-10-24.38c-6.4-6.43-14.86-9.97-23.84-9.97H155.4z"/>
	</g>
	<g>
		<path class="st0" d="M41.56,106.5c-2.16,0-4.33,0.05-6.49-0.01c-3.67-0.1-6.39-2.79-6.46-6.45c-0.07-3.24-0.06-6.49,0-9.73
			c0.07-3.7,2.73-6.44,6.39-6.5c4.39-0.08,8.79-0.08,13.18,0c3.55,0.06,6.27,2.78,6.36,6.33c0.08,3.31,0.08,6.63,0,9.94
			c-0.08,3.66-2.81,6.33-6.49,6.42C45.89,106.55,43.72,106.5,41.56,106.5z M41.5,100.01c1.75,0,3.51-0.04,5.26,0.01
			c0.9,0.03,1.35-0.18,1.33-1.21c-0.06-2.43-0.06-4.86,0-7.29c0.02-0.97-0.3-1.28-1.27-1.27c-3.51,0.05-7.02,0.03-10.53,0.01
			c-0.81-0.01-1.24,0.17-1.22,1.11c0.05,2.5,0.04,4.99,0,7.49c-0.02,0.88,0.29,1.19,1.16,1.16C37.99,99.98,39.74,100.01,41.5,100.01
			z"/>
	</g>
	<g>
		<path class="st0" d="M80.49,106.5c-2.16,0-4.33,0.05-6.49-0.01c-3.66-0.1-6.37-2.8-6.45-6.47c-0.06-3.24-0.06-6.49,0-9.73
			c0.07-3.78,2.79-6.45,6.61-6.5c4.26-0.05,8.52-0.05,12.78,0c3.77,0.05,6.49,2.78,6.55,6.56c0.06,3.18,0.05,6.35,0,9.53
			c-0.07,3.89-2.78,6.54-6.72,6.61C84.68,106.53,82.59,106.51,80.49,106.5z M80.42,100.01c1.75,0,3.51-0.06,5.26,0.02
			c1.1,0.05,1.38-0.37,1.35-1.4c-0.06-2.36-0.05-4.72,0-7.08c0.02-0.94-0.25-1.31-1.24-1.29c-3.51,0.05-7.02,0.05-10.53,0
			c-1-0.01-1.26,0.35-1.24,1.29c0.05,2.36,0.06,4.72,0,7.08c-0.03,1.03,0.25,1.45,1.35,1.4C77.05,99.95,78.74,100.01,80.42,100.01z"
			/>
	</g>
	<g>
		<path class="st0" d="M119.47,83.79c2.16,0,4.33-0.05,6.49,0.01c3.67,0.09,6.4,2.77,6.48,6.43c0.07,3.31,0.08,6.63-0.01,9.94
			c-0.09,3.55-2.8,6.26-6.37,6.32c-4.39,0.08-8.79,0.08-13.18,0c-3.55-0.06-6.28-2.79-6.37-6.32c-0.08-3.38-0.09-6.76,0.01-10.14
			c0.1-3.46,2.79-6.09,6.26-6.21C115.01,83.73,117.24,83.79,119.47,83.79z M119.43,100.01c1.69,0,3.38-0.06,5.06,0.02
			c1.12,0.05,1.55-0.26,1.5-1.45c-0.09-2.29-0.09-4.59,0-6.88c0.05-1.2-0.4-1.47-1.51-1.45c-3.37,0.06-6.75,0.06-10.12,0
			c-1.03-0.02-1.44,0.25-1.4,1.35c0.08,2.36,0.08,4.72,0,7.08c-0.04,1.11,0.38,1.38,1.41,1.34
			C116.05,99.96,117.74,100.01,119.43,100.01z"/>
	</g>
	<g>
		<path class="st0" d="M158.48,106.5c-2.16,0-4.33,0.04-6.49-0.01c-3.77-0.09-6.48-2.8-6.54-6.58c-0.05-3.18-0.05-6.35,0-9.53
			c0.06-3.81,2.74-6.53,6.52-6.58c4.33-0.06,8.65-0.07,12.98,0c3.65,0.06,6.36,2.79,6.44,6.47c0.07,3.24,0.07,6.49,0,9.73
			c-0.08,3.76-2.81,6.42-6.62,6.49C162.68,106.54,160.58,106.5,158.48,106.5z M158.4,100.01c1.75,0,3.51-0.04,5.26,0.02
			c0.97,0.03,1.29-0.3,1.27-1.27c-0.05-2.43-0.04-4.86-0.01-7.29c0.01-0.82-0.18-1.22-1.11-1.21c-3.58,0.04-7.15,0.04-10.73,0
			c-0.88-0.01-1.18,0.29-1.16,1.16c0.04,2.43,0.07,4.86-0.01,7.29c-0.04,1.14,0.44,1.35,1.43,1.32
			C155.03,99.97,156.72,100.01,158.4,100.01z"/>
	</g>
	<g>
		<path class="st0" d="M41.58,113c2.16,0,4.33-0.05,6.49,0.01c3.67,0.09,6.39,2.77,6.47,6.44c0.07,3.31,0.08,6.63-0.01,9.94
			c-0.09,3.55-2.81,6.25-6.37,6.31c-4.39,0.08-8.79,0.08-13.18,0c-3.55-0.06-6.28-2.79-6.36-6.33c-0.08-3.38-0.09-6.76,0.01-10.14
			c0.1-3.46,2.79-6.09,6.26-6.21C37.11,112.94,39.35,113.01,41.58,113z M41.62,119.49c-1.69,0-3.38,0.06-5.06-0.02
			c-1.13-0.06-1.54,0.27-1.5,1.46c0.09,2.29,0.09,4.59,0,6.88c-0.05,1.2,0.41,1.46,1.51,1.44c3.37-0.06,6.75-0.06,10.12,0
			c1.03,0.02,1.43-0.26,1.4-1.35c-0.07-2.36-0.08-4.72,0-7.08c0.04-1.11-0.39-1.38-1.41-1.34
			C44.99,119.54,43.31,119.49,41.62,119.49z"/>
	</g>
	<g>
		<path class="st0" d="M80.53,113c2.16,0,4.33-0.05,6.49,0.01c3.67,0.09,6.39,2.77,6.47,6.44c0.07,3.31,0.08,6.63-0.01,9.94
			c-0.09,3.55-2.81,6.25-6.37,6.31c-4.39,0.08-8.79,0.08-13.18,0c-3.55-0.06-6.28-2.79-6.36-6.33c-0.08-3.38-0.09-6.76,0.01-10.14
			c0.1-3.46,2.79-6.09,6.26-6.21C76.06,112.94,78.3,113.01,80.53,113z M80.21,129.23c2.06,0,3.74-0.05,5.43,0.02
			c1.03,0.04,1.43-0.26,1.4-1.35c-0.07-2.36-0.08-4.72,0-7.08c0.04-1.11-0.39-1.36-1.41-1.34c-2.77,0.06-5.53,0.02-8.3,0.02
			c-3.3,0-3.31,0-3.29,3.26c0.02,2.08-0.7,4.87,0.35,6.05C75.61,130.16,78.45,129.04,80.21,129.23z"/>
	</g>
	<g>
		<path class="st0" d="M41.49,164.93c-2.03,0-4.06,0.02-6.08,0c-4.05-0.06-6.76-2.72-6.81-6.73c-0.04-3.11-0.04-6.22,0-9.33
			c0.06-3.92,2.74-6.61,6.66-6.65c4.19-0.05,8.38-0.04,12.57,0c3.91,0.04,6.64,2.73,6.71,6.61c0.05,3.18,0.06,6.35,0,9.53
			c-0.07,3.79-2.77,6.47-6.56,6.56C45.82,164.97,43.66,164.93,41.49,164.93z M41.52,158.44c1.75,0,3.51-0.04,5.26,0.02
			c0.93,0.03,1.32-0.23,1.3-1.24c-0.06-2.43-0.06-4.86,0-7.29c0.02-1-0.36-1.26-1.29-1.24c-3.44,0.04-6.88,0.05-10.32,0
			c-1.02-0.02-1.44,0.24-1.41,1.34c0.08,2.36,0.08,4.72,0,7.08c-0.04,1.1,0.37,1.39,1.4,1.35
			C38.15,158.39,39.83,158.44,41.52,158.44z"/>
	</g>
	<g>
		<path class="st0" d="M80.55,142.21c2.16,0,4.33-0.05,6.49,0.01c3.66,0.1,6.38,2.79,6.45,6.45c0.07,3.24,0.07,6.49,0,9.73
			c-0.07,3.77-2.8,6.46-6.61,6.51c-4.26,0.05-8.52,0.06-12.78,0c-3.78-0.05-6.49-2.78-6.56-6.56c-0.05-3.18-0.05-6.35,0-9.53
			c0.06-3.9,2.76-6.55,6.71-6.61C76.36,142.19,78.45,142.21,80.55,142.21z M80.53,158.44c1.69,0,3.38-0.07,5.06,0.02
			c1.2,0.07,1.48-0.4,1.45-1.51c-0.07-2.29-0.07-4.59,0-6.88c0.03-1.04-0.27-1.41-1.36-1.39c-3.44,0.06-6.88,0.06-10.32,0
			c-1.11-0.02-1.37,0.39-1.34,1.41c0.06,2.36,0.05,4.72,0,7.08c-0.02,0.95,0.27,1.32,1.25,1.28
			C77.02,158.39,78.78,158.44,80.53,158.44z"/>
	</g>
	<g>
		<path class="st0" d="M119.22,113c1.96,0,3.92-0.01,5.88,0c2.58,0.02,4.06,1.18,4.09,3.2c0.03,2.02-1.47,3.28-4,3.29
			c-3.52,0.02-7.03,0.06-10.55-0.02c-1.32-0.03-1.78,0.35-1.69,1.69c0.11,1.62,0.01,3.24,0.03,4.87c0.02,1.59-0.45,3.25,1.89,3.97
			c1.25,0.38,1.62,1.96,1.21,3.33c-0.45,1.52-1.54,2.34-3.15,2.4c-3.2,0.13-6.28-2.69-6.41-6.08c-0.13-3.51-0.12-7.03,0-10.55
			c0.12-3.35,2.82-5.93,6.2-6.06C114.89,112.94,117.06,113.01,119.22,113C119.22,113,119.22,113,119.22,113z"/>
	</g>
</g>
</svg>
