<?xml version="1.0" encoding="utf-8"?>
<!-- Generator: Adobe Illustrator 26.0.2, SVG Export Plug-In . SVG Version: 6.00 Build 0)  -->
<svg version="1.1" id="Layer_1" xmlns="http://www.w3.org/2000/svg" xmlns:xlink="http://www.w3.org/1999/xlink" x="0px" y="0px"
	 viewBox="0 0 200 200" style="enable-background:new 0 0 200 200;" xml:space="preserve">
<style type="text/css">
	.st0{fill:#1A73E8;}
</style>
<g>
	<g id="Path_1418_00000162326451467366570580000011871746508708646323_">
		<path class="st0" d="M184.95,67.65H64.07V1h77.5l-0.15,43.51h43.52V67.65z M76.45,55.27h52.61l0.01-41.9H76.45V55.27z"/>
	</g>
	<g>
		<path class="st0" d="M199.57,198.94H49.68V66.37h149.89V198.94z M62.05,186.56h125.14V78.74H62.05V186.56z"/>
	</g>
	<g>
		<rect x="130.7" y="160.56" class="st0" width="10.69" height="10.68"/>
	</g>
	<g>
		<rect x="84.99" y="160.56" class="st0" width="10.65" height="10.67"/>
	</g>
	<g>
		<rect x="107.79" y="160.51" class="st0" width="10.75" height="10.68"/>
	</g>
	<g>
		<rect x="153.58" y="160.51" class="st0" width="10.65" height="10.72"/>
	</g>
	<g>
		<rect x="107.85" y="140.17" class="st0" width="10.63" height="10.72"/>
	</g>
	<g>
		<rect x="130.7" y="140.2" class="st0" width="10.74" height="10.61"/>
	</g>
	<g>
		<rect x="85" y="140.2" class="st0" width="10.66" height="10.67"/>
	</g>
	<g>
		<polygon class="st0" points="164.27,140.2 153.61,140.2 153.61,150.86 164.28,150.86 		"/>
	</g>
	<g id="Rectangle_140_00000057135087439229992270000010446033067965231543_">
		<path class="st0" d="M39.16,199H0.43V55.23h38.73V199z M12.81,186.62h13.98V67.6H12.81V186.62z"/>
	</g>
	<g id="Path_1420_00000159441205515317498080000005206208079458626737_">
		<path class="st0" d="M146.24,10.91l28.82,28.76h-28.82V10.91z"/>
	</g>
	<g id="Rectangle_141_00000025414340294308736630000011403822024770587308_">
		<rect x="95.85" y="103.96" class="st0" width="57.5" height="13.9"/>
	</g>
</g>
</svg>
