<?xml version="1.0" encoding="utf-8"?>
<!-- Generator: Adobe Illustrator 26.0.2, SVG Export Plug-In . SVG Version: 6.00 Build 0)  -->
<svg version="1.1" id="Layer_1" xmlns="http://www.w3.org/2000/svg" xmlns:xlink="http://www.w3.org/1999/xlink" x="0px" y="0px"
	 viewBox="0 0 200 200" style="enable-background:new 0 0 200 200;" xml:space="preserve">
<style type="text/css">
	.st0{fill:#1A73E8;}
</style>
<g>
	<g>
		<path class="st0" d="M140.78,199c-0.95,0-1.9-0.02-2.85-0.08H61.92c-31.27,0-49.94-19.1-49.94-51.07v-95.8
			C11.25,38.57,15.86,25.28,25,14.93C35.28,5.24,48.52,0.34,62.22,1.07l75.85-0.01c31.25,0,49.91,19.06,49.91,50.98v95.8
			c0.87,13.49-3.7,26.89-12.88,37.32C165.56,194.17,153.31,199,140.78,199z M59.82,13.38c-9.74,0-19,3.65-25.95,10.16
			c-6.56,7.48-10.09,17.63-9.52,28.16l0.01,96.14c0,24.96,13.34,38.7,37.56,38.7l76.58,0.01c10.22,0.64,20.28-3.01,27.74-9.98
			c6.59-7.53,10.07-17.74,9.39-28.33l-0.01-96.2c0-24.9-13.33-38.6-37.54-38.6H61.89C61.2,13.4,60.51,13.38,59.82,13.38z"/>
	</g>
	<g>
		<path class="st0" d="M64.47,134.63c-2.49,0-4.8,1.32-6.07,3.47c-2.11,3.4-1.13,7.87,2.22,10.06c1.11,0.71,2.4,1.1,3.72,1.12
			c0.3,0,0.61-0.02,0.91-0.06h71.28c4.02-0.65,6.75-4.43,6.1-8.45c-0.51-3.14-2.97-5.6-6.1-6.1H65.24
			C64.95,134.65,64.71,134.63,64.47,134.63L64.47,134.63z"/>
	</g>
	<g>
		<path class="st0" d="M64.36,92.36c-4,0.13-7.13,3.48-7,7.48c0.13,3.81,3.19,6.87,7,7h71.28c4-0.13,7.13-3.48,7-7.48
			c-0.13-3.81-3.19-6.87-7-7H64.36z"/>
	</g>
	<g>
		<path class="st0" d="M86.38,50.35v0.1l0,0c-3.99,0.13-7.12,3.48-6.99,7.47c0.13,3.81,3.18,6.86,6.99,6.99h27.19
			c4.02-0.14,7.17-3.51,7.03-7.53c-0.13-3.83-3.2-6.9-7.03-7.03L86.38,50.35z"/>
	</g>
</g>
</svg>
