<?xml version="1.0" encoding="utf-8"?>
<!-- Generator: Adobe Illustrator 22.1.0, SVG Export Plug-In . SVG Version: 6.00 Build 0)  -->
<svg version="1.1" id="Layer_1" xmlns="http://www.w3.org/2000/svg" xmlns:xlink="http://www.w3.org/1999/xlink" x="0px" y="0px"
	 width="32px" height="32px" viewBox="0 0 32 32" style="enable-background:new 0 0 32 32;" xml:space="preserve">
<style type="text/css">
	.st0{fill:#14A45C;}
	.st1{fill:#1960A3;}
</style>
<g>
	<path class="st0" d="M31.6,4.5c-0.7-0.7-1.5-1.5-2.2-2.2c-0.3-0.3-0.7-0.7-1-1c-0.4-0.4-0.7-0.8-1.1-1.1c-0.6-0.5-1.5,0-1.6,0.7
		c-0.1,0.4,0.3,0.7,0.5,1c0.1,0.1,0.4,0.3,0.4,0.5c0,0.2-0.2,0.4-0.4,0.5C25.7,3.6,25,4.3,24.3,5c-0.3,0.3-0.3,0.5,0,0.8
		c0.4,0.4,0.8,0.7,1.1,1.1c0.3,0.3,0.6,0.7,0.9,1C26.5,8,26.5,8.1,26.7,8C26.9,8,27,7.7,27.2,7.6c0.6-0.7,1.3-1.4,2-2
		c0.2-0.2,0.4-0.2,0.6-0.1c0.4,0.2,0.6,0.6,1.1,0.7c0.4,0.1,0.8-0.1,1-0.5C32.1,5.3,32,4.8,31.6,4.5z"/>
	<path class="st1" d="M20.2,3.4C19.8,3,19,3.1,18.7,3.5c-0.5,0.6-0.1,1.2,0.4,1.6c0.2,0.2,0.5,0.4,0.3,0.7c-0.2,0.3-0.6,0.6-0.9,0.9
		c-0.6,0.6-1.2,1.2-1.7,1.7c-2.4,2.3-4.7,4.7-7.1,7c-1.2,1.2-2.4,2.3-3.5,3.5c-0.4,0.4-0.7,1-0.8,1.6c0,0.3,0,0.6,0.1,0.8
		c0.1,0.3,0.3,0.6,0.4,0.9c0,0.3-0.2,0.4-0.4,0.6c-0.2,0.2-0.4,0.5-0.4,0.7c-0.1,0.6,0,1,0.4,1.5c0.2,0.2,0.2,0.4,0,0.6
		C5.2,26,5,26.2,4.7,26.5c-0.6,0.6-1.2,1.1-1.7,1.7c-0.6,0.6-1.2,1.2-1.8,1.8c-0.3,0.3-0.5,0.5-0.8,0.8C0.2,31-0.1,31.3,0,31.6
		c0.1,0.3,0.4,0.4,0.7,0.4c0.3-0.1,0.6-0.4,0.7-0.6c0.2-0.3,0.4-0.4,0.7-0.6c0.3-0.3,0.6-0.6,0.9-0.9c0.6-0.6,1.1-1.1,1.7-1.7
		c0.3-0.3,0.6-0.6,0.9-0.9c0.3-0.3,0.5-0.6,0.9-0.8c0.3-0.2,0.5,0.2,0.7,0.3C7.4,26.9,7.7,27,8,27c0.3,0,0.5-0.1,0.7-0.3
		c0.2-0.2,0.5-0.5,0.8-0.6c0.3-0.1,0.5,0.1,0.8,0.2c0.3,0.1,0.7,0.2,1,0.2c0.7,0,1.3-0.3,1.7-0.7c1.2-1.1,2.3-2.3,3.5-3.5
		c2.3-2.3,4.7-4.7,7-7.1c0.6-0.6,1.2-1.2,1.7-1.7c0.3-0.3,0.5-0.6,0.8-0.8c0.2-0.2,0.4-0.3,0.6-0.1c0.1,0.1,0.2,0.2,0.3,0.3
		c0.1,0.1,0.2,0.2,0.3,0.3c0.2,0.2,0.5,0.3,0.9,0.2c0.6-0.1,0.9-0.8,0.6-1.4c-0.2-0.3-0.5-0.6-0.8-0.9c-0.3-0.3-0.6-0.6-0.9-0.9
		c-0.6-0.6-1.2-1.2-1.7-1.7c-1.2-1.2-2.3-2.3-3.5-3.5C21.3,4.6,20.7,4,20.2,3.4z M12.9,23.2c-0.2,0.2-0.4-0.2-0.6-0.3
		c-0.3-0.3-0.6-0.6-0.9-0.9c-0.2-0.2-0.6-0.5-0.7-0.8c0-0.3,0.3-0.6,0.5-0.7c0.3-0.1,0.6,0.2,0.8,0.4c0.3,0.3,0.6,0.6,0.9,0.9
		c0.2,0.1,0.3,0.3,0.5,0.4c0,0,0.1,0.1,0.1,0.1c0.1,0.1,0.1,0.1,0,0.2C13.5,22.7,13.1,23,12.9,23.2z M16.4,19.7
		c-0.2,0.2-0.4,0.5-0.7,0.5c-0.2,0-0.4-0.3-0.6-0.4c-0.3-0.3-0.7-0.6-1-1c-0.2-0.2-0.5-0.5-0.5-0.9c0.1-0.3,0.3-0.5,0.6-0.5
		c0.4,0,0.6,0.3,0.8,0.6c0.3,0.3,0.6,0.6,0.9,0.9c0.1,0.1,0.3,0.2,0.4,0.4C16.6,19.5,16.5,19.6,16.4,19.7z M19.4,16.8
		c-0.2,0.2-0.5,0.4-0.7,0.6c-0.1-0.1-1.5-1.4-1.6-1.5c-0.1-0.1-0.1-0.2-0.2-0.2c-0.1-0.1-0.1-0.1-0.1-0.2c-0.2-0.4,0.1-1,0.7-0.9
		c0.3,0,0.5,0.3,0.6,0.5c0.2,0.2,0.4,0.4,0.6,0.6C18.9,15.8,19.8,16.4,19.4,16.8z M24.8,11.3c-0.6,0.6-1.2,1.2-1.8,1.8
		c-0.3,0.3-0.6,0.6-0.9,0.9c-0.2,0.2-0.3,0.3-0.5,0.5c-0.1,0.1-0.2,0.3-0.4,0.3c-0.3,0-0.6-0.4-0.8-0.6c-0.3-0.3-0.6-0.6-0.9-0.9
		c-0.3-0.3-0.6-0.6-0.9-0.9c-0.2-0.2-0.4-0.6-0.8-0.4c-0.3,0.2-0.6,0.6-0.8,0.8c-0.3,0.3-0.6,0.6-1,1c-0.6,0.6-1.2,1.2-1.8,1.8
		c-1.2,1.2-2.4,2.5-3.7,3.7C10,20,9.4,20.7,8.7,21.2c-0.2,0.2-0.4,0.3-0.7,0.3c-0.3,0-0.6-0.3-0.6-0.6c-0.1-0.3,0.2-0.6,0.4-0.8
		c0.3-0.3,0.7-0.7,1-1c0.6-0.6,1.2-1.2,1.8-1.8c2.4-2.4,4.9-4.9,7.3-7.3c0.7-0.7,1.3-1.4,2-2c0.2-0.2,0.6-0.7,0.9-0.8
		c0.3-0.1,0.6,0.4,0.8,0.6c0.6,0.7,1.3,1.3,1.9,2c0.3,0.3,0.6,0.6,1,1c0.1,0.1,0.3,0.2,0.4,0.3C25,11.1,24.9,11.2,24.8,11.3z"/>
</g>
</svg>
