<?xml version="1.0" encoding="utf-8"?>
<!-- Generator: Adobe Illustrator 22.1.0, SVG Export Plug-In . SVG Version: 6.00 Build 0)  -->
<svg version="1.1" id="Layer_1" xmlns="http://www.w3.org/2000/svg" xmlns:xlink="http://www.w3.org/1999/xlink" x="0px" y="0px"
	 width="32px" height="32px" viewBox="0 0 32 32" style="enable-background:new 0 0 32 32;" xml:space="preserve">
<style type="text/css">
	.st0{fill:#0771AC;}
	.st1{fill:#D7EAF3;}
	.st2{fill:#A3DEFF;}
	.st3{fill:#121011;}
	.st4{fill:#14A45C;}
	.st5{fill:#4F616B;}
</style>
<g>
	<g>
		<path class="st0" d="M23.2,30.7h-20c-1.8,0-3.2-1.4-3.2-3.2V8.3c0-0.5,0.2-1,0.6-1.4L7,0.6C7.4,0.2,7.9,0,8.4,0h14.8
			c1.8,0,3.2,1.4,3.2,3.2v24.3C26.4,29.3,25,30.7,23.2,30.7z M8.4,2C8.4,2,8.4,2,8.4,2L2.1,8.3c0,0,0,0,0,0v19.2
			c0,0.6,0.5,1.2,1.2,1.2h20c0.6,0,1.2-0.5,1.2-1.2V3.2c0-0.6-0.5-1.2-1.2-1.2H8.4z"/>
	</g>
	<g>
		<path class="st0" d="M9,10.2h-4v-2h3.5V4.7h2v4C10.4,9.5,9.7,10.2,9,10.2z"/>
	</g>
	<rect x="4.9" y="22.6" class="st1" width="16.7" height="3.1"/>
	<rect x="4.9" y="18.2" class="st1" width="16.7" height="3.1"/>
	<rect x="4.9" y="13.7" class="st1" width="16.7" height="3.1"/>
	<rect x="13.2" y="4.7" class="st1" width="8.4" height="3.1"/>
	<rect x="13.2" y="9.2" class="st1" width="8.4" height="3.1"/>
	<circle class="st2" cx="15.2" cy="16.7" r="7"/>
	
		<rect x="24.1" y="22.7" transform="matrix(0.7071 -0.7071 0.7071 0.7071 -11.6877 26.0778)" class="st3" width="3.1" height="8.9"/>
	<rect x="20.6" y="23.3" transform="matrix(0.7071 -0.7071 0.7071 0.7071 -10.254 22.6165)" class="st4" width="3.1" height="0.8"/>
	
		<rect x="27.6" y="30.2" transform="matrix(0.7071 -0.7071 0.7071 0.7071 -13.1214 29.5391)" class="st4" width="3.1" height="0.8"/>
	<path class="st5" d="M7.4,16.7c0,2.1,0.8,4,2.3,5.5c1.5,1.5,3.4,2.3,5.5,2.3c1.8,0,3.5-0.6,4.9-1.7l1.3,1.3l1.1-1.1l-1.3-1.3
		c1.1-1.4,1.7-3.1,1.7-4.9c0-2.1-0.8-4-2.3-5.5c-1.5-1.5-3.4-2.3-5.5-2.3s-4,0.8-5.5,2.3C8.2,12.6,7.4,14.6,7.4,16.7z M9,16.7
		c0-1.6,0.6-3.2,1.8-4.4s2.7-1.8,4.4-1.8c1.6,0,3.2,0.6,4.4,1.8c1.2,1.2,1.8,2.7,1.8,4.4c0,1.6-0.6,3.2-1.8,4.4
		c-1.2,1.2-2.7,1.8-4.4,1.8c-1.6,0-3.2-0.6-4.4-1.8C9.6,19.9,9,18.3,9,16.7z"/>
</g>
</svg>
