<?xml version="1.0" encoding="utf-8"?>
<!-- Generator: Adobe Illustrator 22.1.0, SVG Export Plug-In . SVG Version: 6.00 Build 0)  -->
<svg version="1.1" id="Layer_1" xmlns="http://www.w3.org/2000/svg" xmlns:xlink="http://www.w3.org/1999/xlink" x="0px" y="0px"
	 width="32px" height="32px" viewBox="0 0 32 32" style="enable-background:new 0 0 32 32;" xml:space="preserve">
<style type="text/css">
	.st0{fill:#14A45C;}
	.st1{fill:#1960A3;}
</style>
<g>
	<path class="st0" d="M16,20c5.5,0,10-4.5,10-10S21.5,0,16,0S6,4.5,6,10S10.5,20,16,20z M16,10.5l2.1-4.9c0.2-0.5,0.8-0.7,1.3-0.5
		c0.5,0.2,0.7,0.8,0.5,1.3l-2.1,4.9c0.4,0.4,0.7,1,0.7,1.7c0,1.4-1.1,2.5-2.5,2.5s-2.5-1.1-2.5-2.5C13.5,11.6,14.6,10.5,16,10.5z"/>
	<path class="st1" d="M28,4h-1.6c1,1.8,1.6,3.8,1.6,6c0,6.6-5.4,12-12,12S4,16.6,4,10c0-2.2,0.6-4.2,1.6-6H4C1.8,4,0,5.8,0,8v20
		c0,2.2,1.8,4,4,4h24c2.2,0,4-1.8,4-4V8C32,5.8,30.2,4,28,4z"/>
</g>
</svg>
