<?xml version="1.0" encoding="utf-8"?>
<!-- Generator: Adobe Illustrator 22.1.0, SVG Export Plug-In . SVG Version: 6.00 Build 0)  -->
<svg version="1.1" id="Layer_1" xmlns="http://www.w3.org/2000/svg" xmlns:xlink="http://www.w3.org/1999/xlink" x="0px" y="0px"
	 width="32px" height="32px" viewBox="0 0 32 32" style="enable-background:new 0 0 32 32;" xml:space="preserve">
<style type="text/css">
	.st0{fill:#694B4B;}
	.st1{fill:#FBCB99;}
	.st2{fill:#EDBA89;}
	.st3{fill:#F5F5F7;}
	.st4{fill:#D2D2D7;}
	.st5{fill:#14A45C;}
	.st6{fill:#19442D;}
	.st7{fill:#563B3B;}
</style>
<g>
	<path class="st0" d="M23.6,18.2c0-0.1,0.1-0.1,0.1-0.1c1.3-2,1.9-4.3,1.9-6.8C25.6,5.1,21.3,0,16.1,0c-5.3,0-9.6,5.1-9.6,11.3
		c0,2.5,0.7,4.9,2,6.9c0,0,0,0,0,0.1c0,0.1,0.1,0.1,0.1,0.2c0.5,0.6,1.1,0.5,1.3,0.4c0,0,0,0,0.1,0l0,0c0.6-0.2,1.3-0.4,2.1-0.6
		l1.3-0.3l-1-0.9c-0.8-0.7-1.3-1.7-1.5-2.8l-0.1-0.5l-0.6,0c-0.9-0.1-1.6-0.8-1.6-1.8c0-0.9,0.7-1.7,1.6-1.8l0.6-0.1l0-0.5
		c0.6-0.2,3.3-1.1,5.2-2.9c0.4,0.5,2.1,2.2,5.2,2.9l0,0.5l0.6,0.1c0.9,0.1,1.6,0.8,1.6,1.8c0,0.9-0.7,1.7-1.6,1.8l-0.6,0l-0.1,0.5
		c-0.1,1.1-0.7,2.1-1.5,2.8l-1,0.9l1.3,0.3c0.8,0.2,1.5,0.4,2.2,0.6C22.5,18.9,23.1,19,23.6,18.2z"/>
	<path class="st1" d="M18.6,20.4v-2.5l-0.9,0.2c-0.4,0.1-0.8,0.2-1.2,0.2h-1.1c-0.4,0-0.8-0.1-1.2-0.2l-0.9-0.2v2.5L10.9,21l0.6,2
		l0.2,0.1c0.3,0.2,1.3,0.7,2.6,1c0.6,0.1,1.2,0.2,1.8,0.2h0c1.5,0,2.9-0.4,4.3-1.2l0.2-0.1l0.5-2L18.6,20.4z"/>
	<path class="st2" d="M15.1,24.2c-1.3-0.3-2.2-0.8-2.6-1l0,0l-0.5-2l2.1-0.5v-2.4l-0.6-0.3v2.5L10.9,21l0.6,2l0.2,0.1
		c0.3,0.2,1.3,0.7,2.6,1c0.6,0.1,1.2,0.2,1.8,0.2h0c0.1,0,0.3,0,0.4,0C16,24.3,15.6,24.3,15.1,24.2z"/>
	<path class="st3" d="M19.5,23.4c-1.1,0.5-2.2,0.7-3.4,0.7c-0.6,0-1.2-0.1-1.8-0.2c-0.6-0.1-1.1-0.3-1.6-0.5l-1-0.4l2.5,9h3.7l2.6-9
		L19.5,23.4z"/>
	<polygon class="st4" points="11.6,23 14.2,32 15,32 12.6,23.4 	"/>
	<g>
		<path class="st5" d="M24.8,22.4c-0.3-0.2-0.7-0.3-1-0.5l-0.2-0.1c-1.1-0.5-2.3-0.8-3-1L17.5,32h8.8c1,0,1.2-0.8,1.2-1.1v-3.3
			C27.5,24.9,26,23.2,24.8,22.4z"/>
		<path class="st5" d="M11.4,20.9c-0.6,0.2-1.9,0.5-3,1l-0.2,0.1c-0.4,0.2-0.7,0.3-1,0.5c-1.2,0.8-2.7,2.4-2.7,5.1v3.3
			c0,0.4,0.2,1.1,1.2,1.1h8.8L11.4,20.9z"/>
	</g>
	<g>
		<path class="st6" d="M5.7,30.9v-1.7v-1.6c0-2.7,1.4-4.3,2.7-5.1c0.3-0.2,0.7-0.3,1-0.5l0.2-0.1c0.7-0.3,1.3-0.5,1.9-0.7l-0.1-0.3
			c-0.6,0.2-1.9,0.5-3,1l-0.2,0.1c-0.4,0.2-0.7,0.3-1,0.5c-1.2,0.8-2.7,2.4-2.7,5.1v3.3c0,0.4,0.2,1.1,1.1,1.1V30.9z"/>
		<path class="st6" d="M23.8,32v-4.5c0-0.3-0.2-0.5-0.5-0.5c-0.3,0-0.5,0.2-0.5,0.5V32H23.8z"/>
		<path class="st6" d="M9.2,32v-4.5c0-0.3-0.2-0.5-0.5-0.5s-0.5,0.2-0.5,0.5V32H9.2z"/>
	</g>
	<path class="st1" d="M22.2,9.7c-0.3-0.1-0.6,0-0.8,0.1c-0.2,0.2-0.4,0.4-0.4,0.7v2.6c0,0.3,0.1,0.6,0.4,0.7
		c0.2,0.1,0.3,0.2,0.5,0.2c0.1,0,0.2,0,0.3,0c0.2-0.1,0.3-0.1,0.5-0.2c0.1-0.1,0.2-0.1,0.2-0.2c0.1-0.1,0.2-0.1,0.3-0.2
		c0.4-0.4,0.6-1,0.6-1.5C23.8,10.9,23.2,10,22.2,9.7z"/>
	<path class="st2" d="M10.7,9.8c-0.2-0.2-0.5-0.2-0.8-0.1c-1,0.3-1.6,1.2-1.6,2.2c0,1,0.6,1.9,1.6,2.2c0.1,0,0.2,0,0.3,0
		c0.2,0,0.4-0.1,0.5-0.2c0.2-0.2,0.4-0.4,0.4-0.7v-2.6C11,10.3,10.9,10,10.7,9.8z"/>
	<path class="st1" d="M21.6,9.7C21.6,9.7,21.6,9.7,21.6,9.7L21.6,9.7c0-0.2,0-0.4-0.3-0.5l-0.2-0.1c-2.4-0.6-3.8-1.7-4.5-2.4
		c0,0,0,0,0,0c-0.6-0.5-1.2,0-1.2,0l0,0c-1.6,1.4-3.6,2.2-4.5,2.4l-0.1,0c0,0,0,0,0,0c-0.3,0.1-0.4,0.3-0.4,0.4v4c0,2.8,2.3,5,5,5
		h1.1c2.8,0,5-2.3,5-5L21.6,9.7L21.6,9.7z"/>
	<g>
		<path class="st2" d="M16.4,6.6c-0.5-0.3-1,0.1-1,0.1l0,0c-1.6,1.4-3.6,2.2-4.5,2.4l-0.1,0c0,0,0,0,0,0c-0.3,0.1-0.4,0.3-0.4,0.4v4
			c0,2.8,2.3,5,5,5h0.8c-2.8,0-5-2.3-5-5V9.9c0-0.5,0.3-0.7,0.5-0.7c0,0,0.1,0,0.1,0l0,0h0C12.9,8.8,14.8,8,16.4,6.6L16.4,6.6z"/>
		<path class="st2" d="M16.5,13.5c0.2,0,0.3,0.2,0.3,0.3s-0.2,0.3-0.3,0.3h-0.9c-0.2,0-0.3-0.2-0.3-0.3v-1.7c0-0.2,0.2-0.3,0.3-0.3
			S16,12,16,12.2v1.3L16.5,13.5L16.5,13.5z"/>
	</g>
	<path class="st7" d="M8.5,18.2c0,0.1,0.1,0.1,0.1,0.2c0.5,0.6,1.1,0.5,1.3,0.4c0,0,0,0,0,0l-0.1-0.1c-1.5-2.1-2.4-4.7-2.4-7.4
		c0-6,4-11,9.1-11.3c-0.2,0-0.3,0-0.5,0c-5.3,0-9.6,5.1-9.6,11.3C6.5,13.8,7.2,16.2,8.5,18.2C8.5,18.2,8.5,18.2,8.5,18.2z"/>
</g>
</svg>
