<?xml version="1.0" encoding="utf-8"?>
<!-- Generator: Adobe Illustrator 26.0.2, SVG Export Plug-In . SVG Version: 6.00 Build 0)  -->
<svg version="1.1" id="Layer_1" xmlns="http://www.w3.org/2000/svg" xmlns:xlink="http://www.w3.org/1999/xlink" x="0px" y="0px"
	 viewBox="0 0 200 200" style="enable-background:new 0 0 200 200;" xml:space="preserve">
<style type="text/css">
	.st0{fill:#FFFFFF;}
</style>
<g>
	<g>
		<path class="st0" d="M158.85,199v-0.02l-119.06-0.2c-1.96-0.58-3.88-1.3-5.73-2.17c-8.17-4.26-12.97-12.75-12.44-21.73L21.6,48.28
			c-0.01-2.5-0.02-4.99,0.01-7.48c-0.33-10.15,6.81-19.2,16.97-21.29c5.59-0.71,10.92-0.99,16.19-0.91l4.73,0.07v10.17
			c-0.07,3.37,1.12,6.47,3.37,8.82c2.25,2.36,5.29,3.7,8.55,3.77c19.32,0.07,37.83,0.11,56.38-0.06c2.02-0.02,4-0.47,5.84-1.32
			c4.36-1.97,7.04-6.3,6.87-11.04c0.02-1.41,0.02-2.5,0.01-3.6l-0.01-6.59l8.39-0.04c2.88-0.06,5.64-0.09,8.38,0.12
			c2.98,0.18,5.92,0.91,8.68,2.17c7.97,3.62,12.95,11.91,12.43,20.63l0.01,26.28l-0.01,107.39c0.43,7.24-2.91,14.43-8.93,18.95
			c-0.91,0.58-1.37,0.94-1.84,1.29C165.69,197.05,163.08,199,158.85,199z M41.88,189.39l117.05,0.02c0.89-0.02,1.41-0.33,2.95-1.47
			c0.72-0.54,1.44-1.06,2.22-1.54c3.05-2.32,4.96-6.44,4.71-10.74l-0.01-94.42l0.01-13.25l-0.01-26.55
			c0.3-5.09-2.44-9.65-6.81-11.63c-1.69-0.76-3.49-1.21-5.36-1.32c-2.18-0.16-4.31-0.16-6.52-0.12c-0.01,0.2-0.01,0.41-0.01,0.61
			c0.32,8.35-4.58,16.25-12.48,19.82c-3.03,1.39-6.31,2.13-9.7,2.18c-18.62,0.14-37.18,0.12-55.75,0.06
			c-6.77-0.13-12.19-2.52-16.21-6.74c-4.02-4.21-6.16-9.73-6.02-15.56v-0.5c-3.28,0.09-6.55,0.34-9.78,0.74
			c-5.2,1.09-9.12,6.06-8.93,11.74c-0.03,2.65-0.02,5.09-0.01,7.53l0.01,126.94c-0.32,5.49,2.47,10.43,7.09,12.84
			C39.34,188.5,40.59,188.98,41.88,189.39z"/>
	</g>
	<g>
		<path class="st0" d="M65.88,77.93c-2.41-2.51-4.72-5.01-7.16-7.35c-2.19-2.2-5.75-2.22-7.95-0.03c-2.2,2.19-2.22,5.75-0.03,7.95
			c3.71,3.85,7.48,7.63,11.33,11.33c2.01,2.2,5.43,2.34,7.62,0.33c0.11-0.1,0.22-0.21,0.33-0.33c7.61-7.51,15.18-15.06,22.7-22.66
			c1.47-1.37,2.03-3.46,1.45-5.38c-0.77-3.01-3.83-4.84-6.84-4.07c-1.13,0.29-2.14,0.91-2.89,1.8
			c-5.65,5.55-11.22,11.19-16.83,16.78C67.13,76.79,66.65,77.23,65.88,77.93"/>
	</g>
	<g>
		<path class="st0" d="M66.01,117.67c-2.55-2.63-4.83-5.11-7.28-7.45c-2.18-2.21-5.74-2.23-7.95-0.05
			c-2.21,2.18-2.23,5.74-0.05,7.95c3.71,3.86,7.48,7.64,11.33,11.34c2.01,2.2,5.43,2.36,7.63,0.34c0.11-0.1,0.22-0.21,0.32-0.32
			c7.61-7.5,15.18-15.06,22.7-22.66c1.46-1.37,2.02-3.45,1.45-5.38c-0.77-3.02-3.83-4.84-6.85-4.07c-1.11,0.28-2.1,0.89-2.86,1.75
			c-4.83,4.7-9.54,9.49-14.29,14.25C68.84,114.71,67.56,116.07,66.01,117.67"/>
	</g>
	<g>
		<path class="st0" d="M66.13,156.96c-0.13-0.06-0.25-0.13-0.37-0.21c-2.19-2.16-4.35-4.35-6.57-6.5c-1.97-2.45-5.55-2.83-8-0.86
			c-2.45,1.97-2.83,5.55-0.86,8c0.26,0.32,0.56,0.62,0.88,0.88c3.4,3.44,6.83,6.86,10.27,10.27c1.94,2.53,5.56,3,8.09,1.07
			c0.41-0.32,0.78-0.69,1.09-1.1c7.13-7.1,14.24-14.21,21.34-21.34c2.55-1.87,3.11-5.46,1.24-8.01c-1.87-2.55-5.46-3.11-8.01-1.24
			c-0.5,0.37-0.94,0.81-1.3,1.32c-5.43,5.42-10.86,10.84-16.28,16.26c-0.48,0.48-0.97,0.97-1.52,1.45"/>
	</g>
	<g>
		<path class="st0" d="M128.31,80.21c5.47,0,10.94,0,16.42,0c3.13,0.32,5.92-1.95,6.24-5.08c0.32-3.13-1.95-5.92-5.08-6.24
			c-0.41-0.04-0.83-0.04-1.24,0.01c-10.88,0-21.76,0-32.65,0c-3.13-0.32-5.92,1.95-6.24,5.08c-0.32,3.13,1.95,5.92,5.08,6.24
			c0.41,0.04,0.83,0.04,1.24-0.01C117.49,80.21,122.9,80.21,128.31,80.21"/>
	</g>
	<g>
		<path class="st0" d="M128.31,119.84c5.47,0,10.94,0,16.42,0c3.12,0.33,5.92-1.94,6.25-5.07c0.33-3.12-1.94-5.92-5.07-6.25
			c-0.41-0.04-0.83-0.04-1.24,0.01c-10.88,0-21.76,0-32.65,0c-3.12-0.33-5.92,1.94-6.25,5.07c-0.33,3.12,1.94,5.92,5.07,6.25
			c0.41,0.04,0.83,0.04,1.24-0.01C117.49,119.84,122.9,119.84,128.31,119.84"/>
	</g>
	<g>
		<path class="st0" d="M128.37,148.14c-5.41,0-10.82,0-16.23,0c-3.12-0.38-5.96,1.85-6.34,4.97c-0.38,3.12,1.85,5.96,4.97,6.34
			c0.45,0.05,0.91,0.05,1.37,0c10.82,0,21.64,0,32.46,0c3.12,0.38,5.96-1.85,6.34-4.97c0.38-3.12-1.85-5.96-4.97-6.34
			c-0.45-0.05-0.91-0.05-1.37,0C139.2,148.14,133.79,148.14,128.37,148.14"/>
	</g>
	<g id="Path_1402_00000183967358372887012300000005379067252938298302_">
		<path class="st0" d="M100.05,34.91c-9.11,0-18.23,0-27.34,0c-3.18,0.48-6.15-1.71-6.63-4.9c-0.08-0.55-0.09-1.11-0.01-1.67
			c0-1.57-0.04-3.14,0-4.71c-0.03-6.24,5.01-11.32,11.25-11.35c0.06,0,0.12,0,0.17,0c2.95-0.07,5.91-0.1,8.86,0
			c1.02,0.21,2.03-0.44,2.24-1.47c0.01-0.05,0.02-0.1,0.03-0.15c0.28-1.03,0.66-2.03,1.13-2.99c2.54-5.69,9.22-8.24,14.91-5.69
			c2.52,1.13,4.55,3.15,5.68,5.67c0.08,0.17,0.17,0.34,0.24,0.51c0.54,1.33,0.73,3.26,1.71,3.83c1.18,0.69,3.04,0.25,4.6,0.27
			c1.82,0,3.65,0,5.47,0c6.27-0.17,11.48,4.78,11.65,11.05c0.01,0.22,0.01,0.44,0,0.66c0.03,1.63,0.03,3.27,0,4.9
			c0.2,3.12-2.16,5.81-5.28,6.01c-0.25,0.02-0.51,0.02-0.76,0c-9.3,0.03-18.61,0-27.91,0"/>
	</g>
</g>
</svg>
