<?xml version="1.0" encoding="utf-8"?>
<!-- Generator: Adobe Illustrator 26.0.2, SVG Export Plug-In . SVG Version: 6.00 Build 0)  -->
<svg version="1.1" id="Layer_1" xmlns="http://www.w3.org/2000/svg" xmlns:xlink="http://www.w3.org/1999/xlink" x="0px" y="0px"
	 viewBox="0 0 100 100" style="enable-background:new 0 0 100 100;" xml:space="preserve">
<style type="text/css">
	.st0{fill:#909090;}
	.st1{fill:none;stroke:#909090;stroke-width:0.75;stroke-miterlimit:10;}
	.st2{fill:#909090;stroke:#909090;stroke-width:0.2;stroke-miterlimit:10;}
	.st3{fill:#909090;stroke:#909090;stroke-width:0.25;stroke-miterlimit:10;}
	.st4{fill:none;stroke:#909090;stroke-width:0.6;stroke-miterlimit:10;}
	.st5{fill:#909090;stroke:#909090;stroke-width:0.1;stroke-miterlimit:10;}
</style>
<g>
	<g>
		<path class="st0" d="M78.51,97.97L78.51,97.97l-57.7-0.11c-0.95-0.28-1.88-0.63-2.78-1.05c-3.96-2.06-6.28-6.18-6.02-10.52
			l-0.01-61.34C12,23.73,12,22.52,12.01,21.32c-0.16-4.92,3.3-9.3,8.23-10.32c2.72-0.34,5.34-0.48,7.85-0.44l2.29,0.04v4.92
			c-0.04,1.63,0.54,3.13,1.63,4.27c1.09,1.14,2.56,1.79,4.14,1.83c9.35,0.03,18.34,0.05,27.32-0.03c0.98-0.01,1.93-0.23,2.83-0.64
			c2.11-0.95,3.41-3.05,3.32-5.35c0.02-0.68,0.01-1.21,0.01-1.74l-0.01-3.19l4.06-0.02c1.41-0.02,2.73-0.04,4.07,0.06
			c1.44,0.09,2.87,0.44,4.21,1.05c3.87,1.76,6.29,5.78,6.03,10l0.01,12.73l-0.01,52.04c0.21,3.51-1.41,6.99-4.33,9.18
			c-0.44,0.28-0.67,0.45-0.9,0.62C81.84,97.03,80.56,97.97,78.51,97.97z M21.83,93.32l56.72,0.01c0.46-0.01,0.74-0.2,1.44-0.72
			c0.34-0.26,0.69-0.51,1.06-0.74c1.48-1.13,2.4-3.12,2.29-5.21l-0.01-45.75l0.01-6.42l-0.01-12.86c0.15-2.47-1.19-4.67-3.3-5.64
			c-0.82-0.37-1.69-0.59-2.6-0.64c-1.04-0.08-2.09-0.08-3.16-0.06c0,0.1-0.01,0.2-0.01,0.3c0.16,4.04-2.21,7.87-6.04,9.6
			c-1.48,0.68-3.07,1.04-4.71,1.06c-9,0.07-18,0.06-27,0.03c-3.29-0.06-5.91-1.23-7.86-3.26c-1.95-2.04-2.98-4.72-2.92-7.54v-0.24
			c-1.59,0.05-3.17,0.17-4.74,0.36c-2.52,0.53-4.42,2.93-4.33,5.69c-0.02,1.28-0.01,2.47-0.01,3.65l0.01,61.51
			c-0.16,2.66,1.2,5.05,3.44,6.22C20.61,92.89,21.21,93.12,21.83,93.32z"/>
	</g>
	<g>
		<path class="st0" d="M33.47,39.3c-1.17-1.22-2.29-2.43-3.47-3.56c-1.06-1.07-2.79-1.07-3.85-0.01c-1.07,1.06-1.07,2.79-0.01,3.85
			c1.8,1.86,3.63,3.7,5.49,5.49c0.98,1.06,2.63,1.13,3.69,0.16c0.06-0.05,0.11-0.1,0.16-0.16c3.69-3.64,7.35-7.3,11-10.98
			c0.71-0.66,0.98-1.68,0.7-2.61c-0.37-1.46-1.86-2.34-3.32-1.97c-0.55,0.14-1.04,0.44-1.4,0.87c-2.74,2.69-5.44,5.42-8.16,8.13
			C34.07,38.75,33.84,38.97,33.47,39.3"/>
	</g>
	<g>
		<path class="st0" d="M33.53,58.56c-1.24-1.27-2.34-2.48-3.53-3.61c-1.06-1.07-2.78-1.08-3.85-0.02c-1.07,1.06-1.08,2.78-0.02,3.85
			c1.8,1.87,3.63,3.7,5.49,5.49c0.97,1.07,2.63,1.14,3.7,0.17c0.05-0.05,0.11-0.1,0.16-0.15c3.69-3.64,7.36-7.3,11-10.98
			c0.71-0.67,0.98-1.67,0.7-2.6c-0.37-1.46-1.86-2.35-3.32-1.97c-0.54,0.14-1.02,0.43-1.38,0.85c-2.34,2.28-4.62,4.6-6.92,6.91
			C34.9,57.13,34.28,57.79,33.53,58.56"/>
	</g>
	<g>
		<path class="st0" d="M33.59,77.6c-0.06-0.03-0.12-0.06-0.18-0.1c-1.06-1.05-2.11-2.11-3.18-3.15c-0.95-1.19-2.69-1.37-3.88-0.42
			c-1.19,0.95-1.37,2.69-0.42,3.88c0.13,0.16,0.27,0.3,0.43,0.42c1.65,1.67,3.31,3.33,4.98,4.98c0.94,1.22,2.69,1.46,3.92,0.52
			c0.2-0.15,0.38-0.33,0.53-0.53c3.45-3.44,6.9-6.89,10.34-10.34c1.24-0.91,1.51-2.64,0.6-3.88c-0.91-1.24-2.64-1.51-3.88-0.6
			c-0.24,0.18-0.46,0.39-0.63,0.64c-2.63,2.62-5.26,5.25-7.89,7.88C34.08,77.13,33.85,77.36,33.59,77.6"/>
	</g>
	<g>
		<path class="st0" d="M63.72,40.41c2.65,0,5.3,0,7.96,0c1.51,0.16,2.87-0.95,3.02-2.46c0.16-1.51-0.95-2.87-2.46-3.02
			c-0.2-0.02-0.4-0.02-0.6,0c-5.27,0-10.55,0-15.82,0c-1.51-0.16-2.87,0.95-3.02,2.46c-0.16,1.51,0.95,2.87,2.46,3.02
			c0.2,0.02,0.4,0.02,0.6,0C58.47,40.41,61.09,40.41,63.72,40.41"/>
	</g>
	<g>
		<path class="st0" d="M63.72,59.61c2.65,0,5.3,0,7.96,0c1.51,0.16,2.87-0.94,3.03-2.45c0.16-1.51-0.94-2.87-2.45-3.03
			c-0.2-0.02-0.4-0.02-0.6,0c-5.27,0-10.55,0-15.82,0c-1.51-0.16-2.87,0.94-3.03,2.45c-0.16,1.51,0.94,2.87,2.45,3.03
			c0.2,0.02,0.4,0.02,0.6,0C58.47,59.61,61.09,59.61,63.72,59.61"/>
	</g>
	<g>
		<path class="st0" d="M63.75,73.33c-2.62,0-5.24,0-7.86,0c-1.51-0.18-2.89,0.9-3.07,2.41c-0.18,1.51,0.9,2.89,2.41,3.07
			c0.22,0.03,0.44,0.03,0.66,0c5.24,0,10.48,0,15.73,0c1.51,0.18,2.89-0.9,3.07-2.41c0.18-1.51-0.9-2.89-2.41-3.07
			c-0.22-0.03-0.44-0.03-0.66,0C68.99,73.33,66.37,73.33,63.75,73.33"/>
	</g>
	<g id="Path_1402_00000079480742337200437170000006705140784721766308_">
		<path class="st0" d="M50.02,18.46c-4.42,0-8.83,0-13.25,0c-1.54,0.23-2.98-0.83-3.21-2.37c-0.04-0.27-0.04-0.54,0-0.81
			c0-0.76-0.02-1.52,0-2.28c-0.01-3.02,2.43-5.49,5.45-5.5c0.03,0,0.06,0,0.08,0c1.43-0.04,2.86-0.05,4.29,0
			c0.5,0.1,0.98-0.21,1.09-0.71c0.01-0.02,0.01-0.05,0.01-0.07c0.14-0.5,0.32-0.98,0.55-1.45c1.23-2.76,4.47-3.99,7.23-2.76
			c1.22,0.55,2.2,1.52,2.75,2.75c0.04,0.08,0.08,0.16,0.12,0.25c0.26,0.64,0.35,1.58,0.83,1.86c0.57,0.33,1.47,0.12,2.23,0.13
			c0.88,0,1.77,0,2.65,0c3.04-0.08,5.57,2.32,5.65,5.35c0,0.11,0,0.21,0,0.32c0.01,0.79,0.01,1.58,0,2.38
			c0.1,1.51-1.05,2.82-2.56,2.91c-0.12,0.01-0.25,0.01-0.37,0c-4.51,0.02-9.02,0-13.52,0"/>
	</g>
</g>
</svg>
