<?xml version="1.0" encoding="utf-8"?>
<!-- Generator: Adobe Illustrator 26.0.2, SVG Export Plug-In . SVG Version: 6.00 Build 0)  -->
<svg version="1.1" id="Layer_1" xmlns="http://www.w3.org/2000/svg" xmlns:xlink="http://www.w3.org/1999/xlink" x="0px" y="0px"
	 viewBox="0 0 100 100" style="enable-background:new 0 0 100 100;" xml:space="preserve">
<style type="text/css">
	.st0{fill:#909090;}
	.st1{fill:none;stroke:#909090;stroke-width:0.75;stroke-miterlimit:10;}
	.st2{fill:#909090;stroke:#909090;stroke-width:0.2;stroke-miterlimit:10;}
	.st3{fill:#909090;stroke:#909090;stroke-width:0.25;stroke-miterlimit:10;}
	.st4{fill:none;stroke:#909090;stroke-width:0.6;stroke-miterlimit:10;}
	.st5{fill:#909090;stroke:#909090;stroke-width:0.1;stroke-miterlimit:10;}
</style>
<g>
	<g>
		<path class="st0" d="M95.25,69.97c-0.56,2.1-0.8,4.27-1.23,6.39c-0.13,0.63-0.22,1.27-0.35,1.91c-0.35,1.77-1.64,2.71-3.46,2.47
			c-1.08-0.14-2.14-0.37-3.21-0.57c-0.23-0.04-0.45-0.15-0.63,0.12c-0.18,0.28,0.05,0.44,0.17,0.62c0.62,0.93,1.26,1.84,1.87,2.78
			c0.94,1.44,0.67,3.13-0.73,4.14c-2.36,1.71-4.75,3.38-7.15,5.03c-1.35,0.93-3.01,0.64-4-0.67c-0.64-0.85-1.19-1.75-1.81-2.61
			c-0.17-0.25-0.25-0.69-0.65-0.62c-0.4,0.07-0.32,0.5-0.38,0.81c-0.18,0.98-0.34,1.97-0.54,2.95c-0.35,1.78-1.79,2.78-3.57,2.46
			c-2.78-0.5-5.55-1.02-8.33-1.54c-1.81-0.34-2.82-1.82-2.49-3.63c0.19-1.07,0.39-2.14,0.58-3.21c0.04-0.23,0.12-0.48-0.16-0.62
			c-0.23-0.12-0.39,0.07-0.55,0.18c-0.87,0.61-1.73,1.23-2.6,1.82c-1.52,1.05-3.1,0.85-4.19-0.61c-0.39-0.52-0.81-0.48-1.3-0.48
			c-14.48,0-28.97,0-43.45,0c-1.95,0-2.3-0.36-2.3-2.32c0-4.39-0.08-8.77,0.02-13.16C5.1,58.72,10.76,49.1,22.29,43.1
			c0.13-0.07,0.24-0.15,0.4-0.26c-2.09-2.29-3.67-4.85-4.73-7.73c-4.22-11.45,1.27-24.24,12.4-28.84c1.66-0.69,3.4-1.13,5.19-1.34
			c0.23-0.03,0.45-0.11,0.68-0.16c1.24,0,2.47,0,3.71,0c1.43,0.31,2.9,0.44,4.29,0.93c8.24,2.87,13.25,8.68,14.92,17.16
			c1.44,7.3-0.43,13.87-5.3,19.55c-0.08,0.09-0.16,0.18-0.22,0.27c-0.03,0.05-0.04,0.11-0.07,0.2c1.8,0.86,3.54,1.84,5.14,3.05
			c0.3,0.23,0.51,0.11,0.79-0.03c1.47-0.73,2.91-0.38,3.88,0.97c0.63,0.88,1.22,1.8,1.84,2.69c0.13,0.18,0.21,0.47,0.51,0.4
			c0.29-0.07,0.29-0.34,0.33-0.57c0.19-1.04,0.37-2.08,0.56-3.13c0.35-1.89,1.76-2.85,3.66-2.51c2.69,0.49,5.38,0.98,8.07,1.48
			c1.96,0.37,2.91,1.72,2.6,3.69c-0.16,1.05-0.37,2.08-0.54,3.13c-0.04,0.22-0.13,0.48,0.13,0.64c0.27,0.17,0.44-0.07,0.61-0.2
			c0.9-0.62,1.78-1.26,2.68-1.87c1.43-0.96,3.13-0.69,4.12,0.73c1.68,2.42,3.32,4.86,4.94,7.31c0.89,1.34,0.56,3.01-0.75,4.01
			c-0.86,0.66-1.78,1.25-2.66,1.89c-0.22,0.16-0.58,0.24-0.47,0.65c0.09,0.34,0.4,0.28,0.65,0.33c0.69,0.13,1.38,0.3,2.08,0.37
			c1.7,0.18,2.92,0.96,3.5,2.62C95.25,69.03,95.25,69.5,95.25,69.97z M56.53,47.96c-1.56-1.09-3.11-1.92-4.71-2.66
			c-0.49-0.22-0.82-0.17-1.26,0.16c-3.7,2.75-7.86,4.17-12.47,4.17c-4.58,0-8.72-1.41-12.4-4.12c-0.46-0.34-0.81-0.4-1.33-0.15
			C14.88,49.8,9.46,57.28,8,67.56C7.25,72.84,7.82,78.2,7.7,83.52c-0.01,0.45,0.13,0.62,0.6,0.62c3.77-0.01,7.54-0.01,11.3,0
			c0.41,0,0.52-0.08,0.51-0.54c-0.05-2.32-0.05-4.65-0.04-6.97c0.01-1.02,0.6-1.66,1.45-1.66c0.84,0,1.45,0.66,1.46,1.65
			c0.01,2.24,0.06,4.48-0.03,6.71c-0.03,0.79,0.24,0.82,0.85,0.82c8.21-0.01,16.43-0.01,24.64-0.01c0.28,0,0.58,0.09,0.83-0.09
			c0-0.08,0.02-0.15,0-0.19c-0.77-1.15-1.55-2.29-2.32-3.44c-1.06-1.58-0.78-3.18,0.75-4.33c0.85-0.63,1.72-1.24,2.57-1.87
			c0.18-0.13,0.42-0.24,0.35-0.55c-0.07-0.29-0.31-0.31-0.54-0.35c-0.96-0.17-1.91-0.36-2.86-0.52c-1.96-0.34-2.98-1.73-2.64-3.67
			c0.5-2.81,1.01-5.61,1.53-8.42c0.36-1.9,1.77-2.87,3.66-2.53c0.95,0.17,1.91,0.36,2.86,0.53c0.27,0.05,0.57,0.28,0.79-0.09
			c0.2-0.35-0.13-0.54-0.27-0.76c-0.53-0.81-1.09-1.61-1.63-2.41c-1.14-1.7-0.85-3.34,0.81-4.52C53.7,49.95,55.07,48.99,56.53,47.96
			z M38.13,7.68c-2.41,0.01-4.7,0.48-6.89,1.39c-11.6,4.85-15.46,20.04-7.69,30.24c6.37,8.36,17.83,9.76,26.01,3.18
			c6.72-5.41,9.1-15.19,5.48-23.28C51.78,11.96,46.11,8.07,38.13,7.68z M59,82.83c0.39-0.02,0.7,0.11,1,0.32
			c0.53,0.37,1.07,0.72,1.63,1.05c0.69,0.41,0.97,0.97,0.82,1.77c-0.25,1.3-0.44,2.61-0.72,3.9c-0.14,0.63,0.08,0.82,0.65,0.92
			c2.37,0.44,4.74,0.91,7.1,1.38c0.53,0.11,0.79,0.03,0.88-0.59c0.19-1.28,0.48-2.54,0.7-3.82c0.16-0.92,0.62-1.49,1.59-1.6
			c0.52-0.06,1.05-0.16,1.55-0.32c0.89-0.28,1.54-0.03,2.04,0.74c0.75,1.13,1.53,2.23,2.27,3.36c0.25,0.38,0.43,0.43,0.81,0.16
			c2.04-1.45,4.08-2.89,6.15-4.3c0.47-0.32,0.45-0.56,0.15-0.98c-0.68-0.96-1.31-1.96-1.96-2.94c-0.89-1.34-0.89-1.52-0.02-2.83
			c0.2-0.29,0.39-0.59,0.56-0.9c0.65-1.16,1.02-1.33,2.36-1.08c1.18,0.23,2.37,0.42,3.55,0.66c0.42,0.08,0.63,0.06,0.72-0.44
			c0.44-2.52,0.92-5.03,1.39-7.54c0.1-0.54-0.03-0.8-0.62-0.89c-1.31-0.2-2.6-0.47-3.9-0.7c-1.93-0.35-1.34-2.1-1.78-3.25
			c-0.28-0.73-0.07-1.39,0.61-1.85c0.24-0.16,0.48-0.34,0.72-0.51c0.87-0.61,1.72-1.23,2.61-1.81c0.43-0.28,0.53-0.5,0.21-0.97
			c-1.41-2.06-2.79-4.15-4.16-6.24c-0.27-0.42-0.48-0.48-0.89-0.18c-1.09,0.8-2.22,1.55-3.32,2.33c-0.69,0.48-1.34,0.49-2.03-0.01
			c-0.5-0.36-1.02-0.69-1.56-1c-0.7-0.4-0.98-0.98-0.83-1.77c0.24-1.3,0.42-2.62,0.72-3.9c0.15-0.64-0.04-0.81-0.61-0.92
			c-2.4-0.45-4.79-0.92-7.18-1.4c-0.48-0.1-0.69,0-0.77,0.51c-0.21,1.33-0.49,2.66-0.73,3.99c-0.15,0.84-0.59,1.38-1.49,1.5
			c-0.55,0.07-1.12,0.15-1.64,0.33c-0.95,0.33-1.58-0.02-2.1-0.8c-0.73-1.1-1.49-2.19-2.22-3.29c-0.2-0.3-0.35-0.49-0.75-0.2
			c-2.08,1.49-4.18,2.95-6.29,4.4c-0.34,0.24-0.4,0.43-0.15,0.78c0.56,0.8,1.01,1.67,1.63,2.41c1.13,1.35,1.44,2.65,0.09,4.03
			c-0.08,0.08-0.12,0.2-0.18,0.3c-0.69,1.23-1.03,1.4-2.42,1.14c-1.16-0.22-2.31-0.44-3.47-0.66c-0.42-0.08-0.7-0.07-0.79,0.49
			c-0.43,2.49-0.9,4.98-1.38,7.46c-0.1,0.52,0.03,0.74,0.56,0.84c1.27,0.23,2.53,0.52,3.81,0.76c0.86,0.16,1.34,0.65,1.46,1.52
			c0.08,0.58,0.19,1.16,0.34,1.73c0.2,0.81-0.01,1.43-0.7,1.92c-1.08,0.76-2.14,1.56-3.23,2.31c-0.42,0.28-0.43,0.49-0.15,0.89
			c1.43,2.09,2.83,4.19,4.21,6.31c0.28,0.43,0.48,0.45,0.88,0.16c1.07-0.78,2.17-1.52,3.25-2.28C58.29,83.02,58.6,82.81,59,82.83z"
			/>
		<path class="st0" d="M70.24,95.98c-0.26,0-0.52-0.02-0.79-0.07c-2.78-0.5-5.55-1.02-8.33-1.54c-2.23-0.42-3.5-2.27-3.09-4.5
			l0.45-2.48l-0.38,0.27c-0.54,0.38-1.09,0.77-1.64,1.14c-1.89,1.3-3.9,1-5.22-0.78c-0.13-0.16-0.14-0.19-0.61-0.18l-43.54,0
			c-2.37,0-3.06-0.69-3.06-3.07c0-1.4-0.01-2.8-0.02-4.2C4,77.62,3.98,74.57,4.05,71.58c0.31-13.16,6.18-22.89,17.47-28.92
			c-1.86-2.19-3.29-4.64-4.26-7.28C12.87,23.45,18.5,10.36,30.08,5.58c1.71-0.71,3.53-1.17,5.39-1.39c0.12-0.01,0.24-0.05,0.36-0.09
			l0.22-0.06l3.89-0.02c0.63,0.12,1.11,0.2,1.58,0.29c0.97,0.17,1.98,0.34,2.96,0.69c8.49,2.96,13.68,8.92,15.42,17.73
			c1.44,7.33-0.31,14.02-5.21,19.88c1.68,0.85,3.13,1.73,4.39,2.67l0.08-0.04c1.8-0.88,3.65-0.43,4.83,1.21
			c0.39,0.55,0.77,1.11,1.15,1.67l0.31,0.45l0.1-0.56c0.11-0.62,0.22-1.24,0.34-1.86c0.43-2.31,2.24-3.52,4.54-3.11
			c2.69,0.49,5.38,0.97,8.07,1.48c2.34,0.44,3.57,2.18,3.2,4.55c-0.09,0.62-0.21,1.22-0.32,1.84l-0.11,0.62
			c0.22-0.16,0.44-0.31,0.67-0.47c0.49-0.34,0.98-0.69,1.47-1.02c1.77-1.2,3.94-0.81,5.16,0.93c1.68,2.42,3.32,4.87,4.95,7.33
			c1.09,1.67,0.71,3.78-0.92,5.02c-0.54,0.41-1.09,0.79-1.65,1.17c-0.21,0.15-0.43,0.3-0.64,0.45l0.18,0.04
			c0.44,0.09,0.88,0.18,1.33,0.22c2.1,0.22,3.49,1.27,4.14,3.12L96,68.56l-0.02,1.61c-0.35,1.28-0.58,2.64-0.79,3.94
			c-0.13,0.8-0.26,1.6-0.43,2.4c-0.06,0.31-0.12,0.62-0.17,0.94c-0.06,0.32-0.11,0.65-0.18,0.97c-0.44,2.18-2.09,3.34-4.3,3.07
			c-0.77-0.1-1.54-0.25-2.31-0.4l-0.26-0.05l0.41,0.6c0.37,0.54,0.74,1.09,1.1,1.64c1.18,1.79,0.8,3.92-0.92,5.16
			c-2.37,1.71-4.76,3.39-7.15,5.04c-1.69,1.16-3.8,0.81-5.03-0.84c-0.38-0.5-0.73-1.03-1.08-1.55c-0.16-0.24-0.32-0.49-0.49-0.73
			l-0.12,0.67c-0.11,0.61-0.22,1.23-0.34,1.84C73.51,94.78,72.06,95.98,70.24,95.98z M59.04,85.37c0.15,0,0.31,0.03,0.48,0.12
			c0.49,0.26,0.69,0.71,0.58,1.35l-0.59,3.28c-0.26,1.41,0.48,2.49,1.89,2.76c2.77,0.52,5.54,1.04,8.32,1.54
			c1.38,0.24,2.42-0.49,2.69-1.86c0.12-0.6,0.23-1.21,0.34-1.81l0.21-1.13c0.04-0.41,0.1-1.25,0.99-1.41
			c0.82-0.16,1.21,0.57,1.33,0.8c0.32,0.49,0.58,0.86,0.82,1.23c0.34,0.5,0.67,1.01,1.03,1.49c0.75,0.99,1.97,1.19,2.97,0.5
			c2.4-1.65,4.78-3.32,7.13-5.02c1.07-0.77,1.28-1.99,0.54-3.11c-0.35-0.54-0.72-1.08-1.08-1.61l-0.79-1.17
			c-0.42-0.52-0.47-0.99-0.18-1.44c0.45-0.67,1.12-0.52,1.33-0.47l1.03,0.2c0.74,0.14,1.47,0.28,2.22,0.38
			c1.35,0.19,2.35-0.47,2.62-1.87c0.06-0.32,0.12-0.63,0.18-0.94c0.06-0.32,0.11-0.65,0.18-0.97c0.15-0.78,0.29-1.56,0.42-2.35
			c0.22-1.31,0.44-2.66,0.79-3.99v-1.18c-0.47-1.21-1.37-1.85-2.83-2c-0.49-0.05-0.99-0.15-1.48-0.25l-0.66-0.13
			c-0.33-0.03-1.02-0.1-1.25-0.86c-0.16-0.59,0.06-1.07,0.67-1.42c0.44-0.31,0.79-0.55,1.15-0.8c0.54-0.37,1.07-0.74,1.58-1.13
			c1-0.76,1.24-1.99,0.58-2.99c-1.61-2.45-3.26-4.88-4.92-7.3c-0.75-1.06-1.98-1.27-3.09-0.54c-0.48,0.33-0.96,0.67-1.44,1
			c-0.41,0.29-0.82,0.58-1.24,0.86c-0.5,0.44-0.98,0.5-1.43,0.22c-0.67-0.42-0.54-1.11-0.49-1.34l0.25-1.39
			c0.11-0.6,0.21-1.2,0.31-1.8c0.24-1.56-0.45-2.54-2-2.83c-2.69-0.5-5.38-0.99-8.07-1.48c-1.5-0.26-2.51,0.42-2.79,1.9
			c-0.12,0.62-0.22,1.23-0.34,1.85l-0.22,1.27c-0.05,0.3-0.15,1-0.91,1.17c-0.56,0.13-0.95-0.1-1.27-0.65l-0.74-1.11
			c-0.37-0.55-0.74-1.1-1.12-1.63c-0.75-1.05-1.8-1.3-2.94-0.74c-0.31,0.16-0.92,0.45-1.58-0.05c-1.39-1.05-3.03-2.02-5.01-2.96
			l-0.64-0.31l0.26-0.65c0.03-0.1,0.06-0.21,0.15-0.34c0.08-0.11,0.15-0.2,0.22-0.28c4.84-5.63,6.57-11.99,5.19-18.98
			C56.8,14.77,51.94,9.19,43.99,6.42c-0.87-0.3-1.77-0.46-2.72-0.63c-0.49-0.09-1-0.17-1.48-0.28l-3.55,0.02
			c-0.19,0.08-0.39,0.13-0.59,0.16c-1.73,0.2-3.41,0.63-4.99,1.29c-10.83,4.47-16.09,16.72-11.98,27.88
			c1.02,2.78,2.52,5.23,4.58,7.48l0.59,0.65l-0.73,0.49c-0.26,0.17-0.37,0.25-0.49,0.31C11.6,49.52,5.85,58.89,5.56,71.61
			c-0.07,2.97-0.05,6-0.03,8.94c0.01,1.4,0.02,2.8,0.02,4.2c0,1.55,0.01,1.57,1.55,1.57l43.45,0c0.59-0.02,1.32-0.01,1.91,0.79
			c0.83,1.11,1.96,1.27,3.16,0.44c0.54-0.37,1.08-0.75,1.61-1.13l0.98-0.69C58.37,85.6,58.66,85.37,59.04,85.37z M59.01,86.88
			c0.08-0.01,0.19-0.01,0.24-0.05l-0.61-0.48L59.01,86.88z M86.74,80.12l-0.11,0.75c0.16,0.01,0.14-0.01,0.21-0.04L86.74,80.12z
			 M81.07,52.21l-0.7,0.13l0.75,0.06C81.12,52.36,81.11,52.28,81.07,52.21z M69.81,92.98c-0.17,0-0.33-0.02-0.48-0.05
			c-2.37-0.48-4.72-0.95-7.09-1.38c-0.37-0.07-0.82-0.2-1.1-0.62c-0.31-0.47-0.19-1.03-0.15-1.21c0.16-0.76,0.3-1.52,0.43-2.28
			c0.09-0.54,0.19-1.07,0.29-1.6c0.09-0.48-0.02-0.72-0.46-0.98c-0.57-0.34-1.13-0.7-1.68-1.08c-0.25-0.17-0.45-0.22-0.53-0.19
			h-0.09c0,0-0.01,0-0.01,0c-0.14,0-0.33,0.13-0.53,0.27l-0.91,0.63c-0.78,0.54-1.56,1.08-2.33,1.64c-0.26,0.19-0.6,0.41-1.08,0.33
			c-0.45-0.08-0.72-0.43-0.88-0.68c-1.38-2.12-2.78-4.21-4.2-6.3c-0.18-0.27-0.38-0.63-0.3-1.07c0.09-0.44,0.42-0.71,0.65-0.87
			c0.61-0.41,1.2-0.84,1.79-1.27c0.47-0.35,0.95-0.69,1.43-1.03c0.42-0.3,0.54-0.6,0.41-1.11c-0.15-0.6-0.26-1.2-0.35-1.81
			c-0.08-0.55-0.31-0.79-0.86-0.89c-0.57-0.11-1.14-0.23-1.71-0.35c-0.69-0.14-1.38-0.29-2.08-0.41c-0.17-0.03-0.69-0.12-1-0.57
			c-0.28-0.4-0.23-0.85-0.17-1.15c0.48-2.48,0.95-4.96,1.38-7.44c0.08-0.44,0.26-0.75,0.54-0.95c0.43-0.29,0.91-0.19,1.14-0.15
			l3.46,0.65c1.07,0.2,1.1,0.19,1.63-0.76c0.07-0.14,0.15-0.3,0.28-0.45c0.96-0.98,0.93-1.8-0.11-3.03
			c-0.41-0.5-0.75-1.03-1.08-1.55c-0.19-0.31-0.38-0.61-0.59-0.91c-0.09-0.13-0.35-0.51-0.26-0.99c0.08-0.48,0.48-0.75,0.61-0.85
			c2.11-1.45,4.2-2.91,6.29-4.39c0.11-0.09,0.5-0.35,0.96-0.26s0.71,0.44,0.85,0.66l0.98,1.44c0.42,0.62,0.84,1.23,1.25,1.86
			c0.41,0.62,0.72,0.67,1.22,0.5c0.6-0.21,1.22-0.29,1.78-0.37c0.44-0.06,0.73-0.23,0.85-0.89l0.25-1.33
			c0.17-0.88,0.34-1.76,0.48-2.64c0.02-0.17,0.11-0.68,0.54-0.97c0.38-0.27,0.82-0.21,1.12-0.16c2.39,0.49,4.78,0.95,7.17,1.4
			c0.37,0.07,0.82,0.2,1.08,0.61c0.27,0.42,0.2,0.9,0.12,1.23c-0.19,0.84-0.34,1.7-0.48,2.55c-0.08,0.44-0.15,0.88-0.23,1.31
			c-0.09,0.47,0.04,0.73,0.47,0.98c0.56,0.32,1.1,0.66,1.63,1.04c0.42,0.31,0.73,0.3,1.15,0l1.3-0.9c0.68-0.47,1.35-0.93,2.01-1.42
			c0.24-0.18,0.64-0.4,1.07-0.32c0.45,0.08,0.72,0.41,0.91,0.69c1.37,2.09,2.74,4.17,4.15,6.23c0.17,0.25,0.39,0.64,0.29,1.1
			c-0.09,0.46-0.42,0.73-0.71,0.92c-0.65,0.43-1.28,0.88-1.91,1.33l-1.41,0.99c-0.38,0.26-0.48,0.54-0.32,0.95
			c0.17,0.43,0.22,0.88,0.26,1.31c0.1,0.98,0.18,1.33,0.95,1.47l1.34,0.25c0.85,0.16,1.7,0.32,2.55,0.45
			c0.18,0.03,0.74,0.11,1.07,0.57c0.29,0.42,0.24,0.89,0.18,1.2c-0.48,2.51-0.95,5.01-1.4,7.53c-0.03,0.16-0.11,0.64-0.52,0.92
			c-0.39,0.27-0.87,0.18-1.09,0.14c-0.69-0.14-1.38-0.26-2.07-0.39l-1.48-0.27c-1.04-0.2-1.09-0.16-1.57,0.71
			c-0.18,0.32-0.38,0.64-0.58,0.95c-0.66,0.98-0.66,0.98,0.01,2l0.55,0.83c0.46,0.7,0.92,1.4,1.4,2.09
			c0.19,0.28,0.42,0.66,0.34,1.12c-0.08,0.47-0.42,0.74-0.68,0.92c-2.06,1.41-4.1,2.84-6.14,4.29c-0.23,0.17-0.62,0.37-1.03,0.29
			c-0.49-0.09-0.75-0.5-0.85-0.66c-0.39-0.61-0.81-1.21-1.22-1.82c-0.35-0.51-0.7-1.02-1.05-1.54c-0.33-0.5-0.62-0.61-1.18-0.43
			c-0.52,0.16-1.09,0.28-1.7,0.35c-0.49,0.05-0.81,0.23-0.93,0.97c-0.09,0.53-0.19,1.05-0.29,1.58c-0.15,0.74-0.29,1.48-0.39,2.22
			c-0.03,0.19-0.12,0.74-0.57,1.06C70.31,92.93,70.05,92.98,69.81,92.98z M62.45,90.05c0.02,0.01,0.04,0.01,0.06,0.01
			c2.37,0.44,4.73,0.9,7.1,1.38c0.13-0.83,0.27-1.54,0.41-2.26c0.1-0.51,0.2-1.02,0.29-1.53c0.27-1.66,1.37-2.12,2.25-2.22
			c0.51-0.06,0.99-0.15,1.41-0.29c1.2-0.39,2.19-0.02,2.9,1.04c0.34,0.51,0.68,1.02,1.03,1.52c0.38,0.56,0.77,1.12,1.14,1.69
			c2.01-1.43,3.96-2.8,5.93-4.14c-0.52-0.77-0.96-1.44-1.4-2.11l-0.54-0.82c-1.06-1.59-1.06-2.1-0.01-3.67
			c0.18-0.27,0.36-0.56,0.52-0.85c0.79-1.44,1.5-1.75,3.17-1.45l1.46,0.27c0.65,0.12,1.31,0.24,1.96,0.37
			c0.45-2.51,0.91-4.93,1.37-7.35c-0.95-0.16-1.77-0.32-2.6-0.47l-1.32-0.25c-1.92-0.34-2.08-1.82-2.18-2.79
			c-0.04-0.35-0.07-0.68-0.16-0.93c-0.42-1.07-0.08-2.09,0.88-2.75l1.38-0.97c0.64-0.45,1.27-0.9,1.91-1.32
			c-1.41-2.08-2.74-4.08-4.05-6.09c-0.68,0.49-1.31,0.92-1.93,1.35l-1.28,0.9c-0.97,0.68-1.97,0.66-2.91-0.01
			c-0.48-0.34-0.98-0.66-1.5-0.95c-0.99-0.57-1.4-1.46-1.2-2.56c0.08-0.43,0.15-0.86,0.22-1.29c0.15-0.89,0.31-1.77,0.51-2.64v-0.01
			h-0.01c-2.37-0.44-4.73-0.9-7.09-1.38c-0.15,0.91-0.31,1.73-0.47,2.55l-0.25,1.32c-0.28,1.55-1.31,2-2.13,2.11
			c-0.51,0.07-1.03,0.14-1.5,0.29c-1.21,0.42-2.22,0.04-2.97-1.1c-0.41-0.62-0.82-1.23-1.24-1.84l-0.88-1.3
			c-1.99,1.41-3.96,2.78-5.94,4.15c0.19,0.28,0.35,0.54,0.52,0.8c0.3,0.48,0.59,0.96,0.95,1.39c1.53,1.82,1.55,3.52,0.05,5.04
			c-0.91,1.65-1.58,1.95-3.27,1.65l-3.4-0.64c-0.44,2.49-0.89,4.89-1.36,7.29c0.76,0.15,1.41,0.28,2.07,0.42
			c0.57,0.12,1.12,0.23,1.69,0.34c1.18,0.22,1.9,0.97,2.07,2.16c0.08,0.55,0.18,1.11,0.32,1.65c0.28,1.12-0.06,2.06-1.01,2.72
			c-0.47,0.33-0.94,0.67-1.41,1.01c-0.57,0.42-1.14,0.83-1.71,1.23c1.42,2.1,2.75,4.1,4.07,6.12c0.8-0.57,1.53-1.08,2.26-1.58
			l0.9-0.62c0.29-0.21,0.78-0.58,1.45-0.54c0.03,0,0.05,0,0.08,0c0.62,0,1.07,0.26,1.35,0.46c0.51,0.36,1.05,0.7,1.58,1.02
			c0.98,0.57,1.38,1.46,1.18,2.56c-0.11,0.53-0.19,1.05-0.29,1.58C62.76,88.48,62.63,89.26,62.45,90.05
			C62.46,90.04,62.46,90.05,62.45,90.05z M48.86,84.91c-0.1,0-0.19-0.01-0.27-0.01l-10-0.01c-4.92,0-9.85,0-14.78,0.01
			c-0.43,0-0.89,0-1.25-0.38c-0.34-0.36-0.37-0.84-0.35-1.22c0.07-1.73,0.06-3.49,0.04-5.2l-0.01-1.47c0-0.44-0.19-0.9-0.7-0.9
			c-0.6,0-0.69,0.57-0.69,0.91c-0.02,2.32-0.02,4.64,0.04,6.95c0.01,0.32-0.02,0.7-0.31,0.99c-0.32,0.33-0.75,0.33-0.95,0.33
			c-3.76-0.01-7.52-0.01-11.3,0c-0.16,0-0.66,0-1.02-0.37c-0.35-0.37-0.34-0.87-0.34-1.03c0.04-1.81,0-3.63-0.04-5.45
			c-0.08-3.47-0.16-7.07,0.34-10.6c1.51-10.59,7.15-18.25,16.78-22.77c0.74-0.36,1.4-0.29,2.1,0.23c3.59,2.63,7.62,3.97,11.95,3.97
			c4.39,0,8.43-1.36,12.02-4.02c0.67-0.49,1.3-0.57,2.02-0.24c1.83,0.84,3.37,1.7,4.83,2.73l0.88,0.62l-1.75,1.22
			c-1.14,0.8-2.24,1.57-3.33,2.35c-1.32,0.95-1.54,2.12-0.62,3.48l0.59,0.87c0.35,0.52,0.7,1.03,1.04,1.55
			c0.22,0.26,0.71,0.82,0.29,1.55c-0.21,0.37-0.61,0.77-1.48,0.49c-0.6-0.11-1.11-0.21-1.63-0.31l-1.32-0.24
			c-1.54-0.26-2.51,0.44-2.79,1.93c-0.52,2.8-1.03,5.6-1.53,8.41c-0.13,0.73-0.02,1.37,0.31,1.84c0.34,0.49,0.94,0.82,1.71,0.95
			l2.86,0.52c0.31,0.05,0.97,0.17,1.14,0.92c0.18,0.78-0.39,1.17-0.58,1.29l-1.02,0.73c-0.54,0.39-1.07,0.77-1.6,1.17
			c-1.22,0.91-1.42,2.05-0.58,3.31l2.47,3.66l-0.02,0.77l-0.32,0.22C49.41,84.86,49.1,84.91,48.86,84.91z M48.61,84.24
			c0.01,0.02,0.03,0.05,0.05,0.07L48.61,84.24z M23.7,83.39c0.06,0,0.07,0,0.09,0c4.93-0.01,9.86-0.01,14.79-0.01l9.46,0l-1.72-2.55
			c-1.27-1.92-0.92-3.97,0.93-5.35c0.54-0.4,1.08-0.79,1.63-1.19l0.48-0.34l-2.27-0.42c-1.18-0.2-2.11-0.75-2.69-1.57
			c-0.57-0.81-0.76-1.83-0.56-2.97c0.5-2.81,1.01-5.62,1.53-8.42c0.44-2.32,2.23-3.55,4.53-3.13l1.34,0.25
			c0.34,0.06,0.68,0.13,1.02,0.19c-0.25-0.38-0.51-0.76-0.78-1.14l-0.59-0.88c-1.38-2.05-1.01-4.12,1-5.55
			c1.08-0.77,2.17-1.53,3.3-2.33c-1.12-0.72-2.31-1.36-3.69-1.99c-0.21-0.09-0.25-0.11-0.5,0.08c-3.85,2.86-8.2,4.32-12.92,4.32
			c-4.66,0-8.99-1.43-12.85-4.26c-0.29-0.22-0.35-0.19-0.57-0.08c-9.14,4.29-14.5,11.56-15.93,21.62
			c-0.48,3.41-0.41,6.94-0.33,10.35c0.04,1.79,0.08,3.58,0.05,5.37c3.68-0.01,7.28,0,10.88,0c-0.04-2.33-0.04-4.55-0.02-6.77
			c0.01-1.42,0.91-2.41,2.2-2.41c1.27,0,2.2,1.01,2.21,2.4l0.01,1.47c0.02,1.73,0.04,3.52-0.04,5.28
			C23.7,83.37,23.7,83.38,23.7,83.39z M49.9,73.65l0.59,0.41L50,73.49C49.96,73.52,49.92,73.58,49.9,73.65z M38.03,47.39
			c-0.75,0-1.5-0.04-2.25-0.14c-5.08-0.62-9.64-3.28-12.84-7.49c-3.9-5.13-5.18-11.71-3.47-18.04c1.64-6.12,5.82-10.99,11.48-13.36
			c2.28-0.96,4.7-1.45,7.18-1.45h0.04c8.27,0.41,14.18,4.45,17.56,11.98c3.74,8.34,1.34,18.51-5.7,24.17
			C46.52,45.9,42.33,47.39,38.03,47.39z M38.11,8.43c-2.27,0.01-4.49,0.46-6.59,1.34c-5.21,2.18-9.08,6.69-10.6,12.35
			c-1.58,5.88-0.4,11.98,3.22,16.74c2.96,3.88,7.15,6.34,11.82,6.9c4.71,0.56,9.33-0.81,13.12-3.86c6.51-5.24,8.73-14.66,5.26-22.38
			C51.22,12.55,45.76,8.81,38.11,8.43z"/>
	</g>
	<g>
		<path class="st0" d="M69.93,79.75c-5.62,0.04-10.29-4.66-10.33-10.36c-0.03-5.68,4.61-10.42,10.24-10.45
			c5.63-0.03,10.25,4.6,10.32,10.36C80.24,74.95,75.57,79.72,69.93,79.75z M62.55,69.32c0,4.12,3.31,7.53,7.32,7.53
			c4.03,0,7.37-3.39,7.36-7.48c0-4.13-3.3-7.52-7.32-7.53C65.89,61.84,62.55,65.22,62.55,69.32z"/>
		<path class="st0" d="M69.87,80.51c-2.86,0-5.58-1.13-7.66-3.19c-2.14-2.12-3.33-4.93-3.35-7.92c-0.03-6.14,4.9-11.17,10.99-11.21
			c0.02,0,0.04,0,0.06,0c6,0,10.94,4.97,11.01,11.11c0.04,2.94-1.1,5.74-3.2,7.88c-2.09,2.13-4.86,3.32-7.78,3.34l-0.01-0.75
			l0.01,0.75C69.91,80.51,69.89,80.51,69.87,80.51z M69.91,59.69c-0.02,0-0.04,0-0.05,0c-5.17,0.03-9.52,4.47-9.49,9.7
			c0.01,2.59,1.04,5.02,2.9,6.86c1.8,1.78,4.14,2.76,6.6,2.76c0.02,0,0.04,0,0.06,0c2.52-0.01,4.91-1.04,6.72-2.89
			c1.81-1.85,2.8-4.27,2.77-6.8C79.35,64,75.09,59.69,69.91,59.69z M69.87,77.6L69.87,77.6c-4.46,0-8.08-3.71-8.08-8.28l0,0
			c0.01-2.18,0.85-4.25,2.39-5.81c1.54-1.57,3.57-2.43,5.72-2.43c0.01,0,0.01,0,0.01,0c4.45,0.01,8.07,3.72,8.07,8.28
			c0.01,2.2-0.86,4.28-2.43,5.85C74.02,76.76,72,77.6,69.87,77.6z M63.3,69.32c0,3.67,3.01,6.77,6.57,6.77h0.01
			c1.73,0,3.37-0.69,4.62-1.94c1.29-1.29,1.99-2.99,1.99-4.78c-0.01-3.73-2.95-6.77-6.57-6.77c-0.01,0-0.01,0-0.01,0
			c-1.74,0-3.39,0.7-4.64,1.98C64,65.85,63.3,67.54,63.3,69.32z"/>
	</g>
</g>
</svg>
