<?xml version="1.0" encoding="utf-8"?>
<!-- Generator: Adobe Illustrator 26.0.2, SVG Export Plug-In . SVG Version: 6.00 Build 0)  -->
<svg version="1.1" id="Layer_1" xmlns="http://www.w3.org/2000/svg" xmlns:xlink="http://www.w3.org/1999/xlink" x="0px" y="0px"
	 viewBox="0 0 200 200" style="enable-background:new 0 0 200 200;" xml:space="preserve">
<style type="text/css">
	.st0{fill:#FFFFFF;}
</style>
<g>
	<g>
		<path class="st0" d="M197.42,143c-1.22,4.52-1.72,9.18-2.65,13.76c-0.28,1.36-0.48,2.74-0.76,4.11c-0.76,3.82-3.52,5.84-7.46,5.32
			c-2.32-0.3-4.61-0.81-6.92-1.23c-0.49-0.09-0.97-0.33-1.35,0.26c-0.39,0.61,0.11,0.94,0.36,1.33c1.33,2,2.72,3.97,4.04,5.99
			c2.03,3.1,1.44,6.73-1.57,8.91c-5.08,3.67-10.22,7.27-15.39,10.83c-2.9,2-6.49,1.38-8.61-1.45c-1.37-1.82-2.57-3.77-3.89-5.63
			c-0.38-0.53-0.55-1.49-1.4-1.34c-0.87,0.16-0.7,1.08-0.82,1.74c-0.39,2.12-0.74,4.24-1.16,6.35c-0.75,3.83-3.86,5.98-7.68,5.29
			c-5.98-1.08-11.95-2.19-17.93-3.32c-3.89-0.73-6.07-3.91-5.37-7.81c0.41-2.31,0.85-4.61,1.26-6.91c0.09-0.48,0.25-1.03-0.35-1.34
			c-0.5-0.26-0.83,0.14-1.18,0.38c-1.87,1.3-3.72,2.64-5.6,3.93c-3.28,2.25-6.68,1.84-9.03-1.32c-0.83-1.12-1.75-1.04-2.8-1.04
			c-31.19,0-62.37,0-93.56,0c-4.2,0-4.96-0.77-4.96-5c0-9.44-0.18-18.89,0.03-28.33c0.64-27.72,12.83-48.43,37.65-61.35
			c0.27-0.14,0.51-0.33,0.87-0.56c-4.51-4.93-7.9-10.44-10.18-16.64c-9.08-24.66,2.74-52.19,26.71-62.09
			c3.58-1.48,7.32-2.44,11.18-2.88c0.49-0.06,0.97-0.23,1.46-0.35c2.66,0,5.33,0,7.99,0c3.08,0.67,6.25,0.96,9.24,2
			c17.75,6.19,28.53,18.68,32.13,36.95c3.1,15.72-0.92,29.87-11.41,42.09c-0.16,0.19-0.34,0.38-0.48,0.59
			c-0.07,0.1-0.09,0.23-0.15,0.43c3.88,1.86,7.62,3.97,11.07,6.56c0.66,0.49,1.1,0.24,1.7-0.06c3.17-1.58,6.27-0.81,8.36,2.1
			c1.37,1.9,2.64,3.88,3.97,5.8c0.27,0.39,0.44,1.01,1.1,0.86c0.63-0.14,0.62-0.74,0.71-1.22c0.41-2.24,0.79-4.49,1.2-6.73
			c0.75-4.06,3.79-6.14,7.89-5.4c5.79,1.05,11.58,2.1,17.37,3.18c4.22,0.79,6.27,3.7,5.6,7.96c-0.35,2.25-0.8,4.49-1.17,6.73
			c-0.08,0.47-0.29,1.03,0.28,1.38c0.59,0.37,0.94-0.16,1.32-0.42c1.93-1.33,3.82-2.71,5.77-4.02c3.09-2.08,6.75-1.48,8.87,1.58
			c3.61,5.21,7.15,10.46,10.63,15.75c1.91,2.89,1.2,6.47-1.62,8.63c-1.86,1.42-3.83,2.7-5.73,4.07c-0.47,0.34-1.26,0.52-1.02,1.39
			c0.2,0.73,0.87,0.6,1.41,0.7c1.49,0.27,2.98,0.64,4.49,0.8c3.66,0.38,6.29,2.06,7.54,5.63C197.42,140.97,197.42,141.98,197.42,143
			z M114.07,95.61c-3.36-2.35-6.69-4.14-10.15-5.72c-1.05-0.48-1.77-0.36-2.71,0.34c-7.96,5.92-16.93,8.98-26.85,8.98
			c-9.85,0-18.77-3.04-26.71-8.86c-1-0.73-1.74-0.86-2.87-0.33c-20.39,9.57-32.08,25.68-35.21,47.8
			c-1.61,11.38-0.39,22.92-0.64,34.38c-0.02,0.96,0.29,1.34,1.3,1.33c8.11-0.03,16.23-0.03,24.34,0c0.88,0,1.11-0.17,1.09-1.17
			c-0.11-5-0.11-10.01-0.08-15.02c0.01-2.2,1.29-3.57,3.12-3.57c1.82,0,3.12,1.43,3.13,3.56c0.03,4.82,0.14,9.64-0.06,14.45
			c-0.07,1.71,0.52,1.76,1.83,1.75c17.68-0.03,35.37-0.02,53.05-0.03c0.6,0,1.25,0.2,1.79-0.2c0-0.17,0.05-0.32-0.01-0.4
			c-1.66-2.47-3.33-4.93-4.99-7.41c-2.27-3.41-1.68-6.85,1.62-9.32c1.83-1.37,3.69-2.68,5.53-4.02c0.39-0.29,0.91-0.51,0.75-1.17
			c-0.15-0.63-0.66-0.67-1.17-0.76c-2.06-0.37-4.11-0.77-6.16-1.13c-4.22-0.73-6.41-3.73-5.67-7.9c1.07-6.05,2.17-12.09,3.3-18.12
			c0.77-4.09,3.81-6.17,7.89-5.44c2.06,0.37,4.11,0.77,6.16,1.13c0.57,0.1,1.23,0.6,1.69-0.2c0.43-0.75-0.28-1.17-0.59-1.65
			c-1.14-1.75-2.35-3.46-3.51-5.19c-2.45-3.65-1.83-7.18,1.74-9.73C107.96,99.88,110.92,97.82,114.07,95.61z M74.43,8.87
			c-5.18,0.02-10.12,1.02-14.85,3C34.61,22.31,26.3,55.02,43.02,76.99C56.73,95,81.42,98.02,99.03,83.83
			c14.47-11.65,19.6-32.7,11.8-50.12C103.84,18.09,91.61,9.72,74.43,8.87z M119.37,170.7c0.83-0.04,1.5,0.24,2.15,0.7
			c1.14,0.79,2.31,1.55,3.51,2.26c1.5,0.88,2.09,2.09,1.75,3.82c-0.54,2.8-0.94,5.62-1.55,8.4c-0.29,1.35,0.16,1.76,1.41,1.99
			c5.1,0.94,10.2,1.95,15.28,2.98c1.15,0.23,1.71,0.06,1.9-1.27c0.4-2.75,1.03-5.47,1.5-8.22c0.34-1.99,1.33-3.21,3.43-3.44
			c1.13-0.13,2.26-0.33,3.34-0.68c1.92-0.61,3.31-0.06,4.4,1.59c1.61,2.43,3.3,4.8,4.89,7.24c0.53,0.82,0.93,0.93,1.75,0.34
			c4.38-3.12,8.79-6.22,13.24-9.25c1.01-0.69,0.96-1.2,0.33-2.1c-1.46-2.07-2.82-4.21-4.22-6.32c-1.92-2.89-1.92-3.28-0.04-6.1
			c0.42-0.63,0.83-1.27,1.2-1.94c1.4-2.5,2.2-2.87,5.09-2.31c2.55,0.49,5.11,0.91,7.65,1.42c0.89,0.18,1.36,0.13,1.55-0.96
			c0.95-5.42,1.97-10.84,3-16.24c0.22-1.17-0.06-1.72-1.34-1.91c-2.82-0.42-5.6-1.01-8.41-1.52c-4.16-0.75-2.88-4.51-3.84-7
			c-0.6-1.57-0.16-3,1.31-3.99c0.52-0.35,1.03-0.73,1.55-1.1c1.87-1.31,3.71-2.65,5.62-3.91c0.92-0.6,1.14-1.08,0.45-2.09
			c-3.04-4.44-6.02-8.93-8.96-13.44c-0.59-0.9-1.03-1.04-1.92-0.39c-2.35,1.72-4.77,3.34-7.15,5.02c-1.48,1.04-2.89,1.06-4.37-0.02
			c-1.07-0.78-2.21-1.48-3.35-2.15c-1.5-0.87-2.1-2.11-1.79-3.82c0.52-2.8,0.9-5.63,1.56-8.4c0.33-1.37-0.08-1.75-1.31-1.98
			c-5.16-0.96-10.32-1.97-15.47-3.02c-1.04-0.21-1.48-0.01-1.66,1.1c-0.46,2.87-1.05,5.73-1.57,8.59c-0.33,1.82-1.27,2.97-3.2,3.23
			c-1.19,0.16-2.4,0.32-3.53,0.71c-2.05,0.7-3.4-0.04-4.51-1.72c-1.57-2.38-3.2-4.72-4.79-7.08c-0.43-0.64-0.76-1.05-1.62-0.44
			c-4.49,3.2-9.01,6.35-13.54,9.48c-0.74,0.51-0.85,0.93-0.33,1.67c1.2,1.71,2.18,3.6,3.51,5.19c2.44,2.91,3.1,5.71,0.19,8.68
			c-0.17,0.17-0.27,0.43-0.39,0.65c-1.48,2.65-2.22,3-5.21,2.44c-2.49-0.47-4.98-0.94-7.46-1.42c-0.9-0.17-1.5-0.16-1.71,1.05
			c-0.92,5.36-1.94,10.71-2.98,16.06c-0.22,1.11,0.07,1.59,1.2,1.8c2.74,0.49,5.46,1.11,8.19,1.63c1.86,0.35,2.88,1.41,3.15,3.28
			c0.18,1.25,0.42,2.5,0.72,3.72c0.44,1.75-0.02,3.08-1.51,4.13c-2.34,1.63-4.6,3.37-6.96,4.97c-0.9,0.61-0.93,1.05-0.33,1.92
			c3.07,4.5,6.1,9.03,9.07,13.59c0.61,0.93,1.04,0.97,1.9,0.34c2.3-1.69,4.66-3.28,7-4.91C117.84,171.1,118.53,170.65,119.37,170.7z
			"/>
		<path class="st0" d="M143.58,199c-0.56,0-1.13-0.05-1.71-0.15c-5.98-1.08-11.95-2.19-17.93-3.31c-4.79-0.91-7.54-4.89-6.67-9.7
			l0.98-5.35l-1.01,0.71c-1.1,0.77-2.21,1.56-3.32,2.32c-4.06,2.8-8.39,2.18-11.25-1.69c-0.27-0.36-0.33-0.36-1.31-0.38H7.6
			c-5.1,0-6.58-1.48-6.58-6.62c0-2.98-0.02-5.95-0.04-8.93c-0.04-6.37-0.08-12.96,0.07-19.45c0.65-28.32,13.31-49.27,37.63-62.26
			c-4-4.71-7.09-9.98-9.19-15.68c-9.45-25.68,2.68-53.86,27.61-64.16c3.69-1.52,7.6-2.53,11.61-2.99c0.23-0.03,0.46-0.1,0.7-0.16
			l0.58-0.15L78.35,1c1.37,0.26,2.4,0.44,3.43,0.61c2.08,0.37,4.24,0.74,6.35,1.47c18.29,6.38,29.45,19.23,33.19,38.18
			c3.11,15.77-0.66,30.17-11.21,42.8c3.62,1.83,6.73,3.72,9.45,5.75l0.18-0.08c3.85-1.94,7.85-0.95,10.4,2.61
			c0.83,1.15,1.62,2.33,2.42,3.5l0.72,1.07l0.93-5.21c0.93-4.97,4.71-7.62,9.78-6.7c5.79,1.05,11.58,2.1,17.38,3.18
			c5.07,0.95,7.72,4.71,6.91,9.81c-0.2,1.27-0.43,2.53-0.66,3.8c-0.09,0.49-0.18,1-0.27,1.5c0.44-0.31,0.88-0.62,1.32-0.93
			c1.09-0.77,2.18-1.54,3.29-2.29c3.84-2.58,8.5-1.74,11.11,2c3.62,5.22,7.16,10.48,10.66,15.78c2.36,3.58,1.52,8.13-1.99,10.81
			c-1.14,0.87-2.32,1.69-3.51,2.51c-0.47,0.32-0.94,0.65-1.41,0.98l0.22,0.05c1.01,0.2,2.02,0.42,3.03,0.52
			c4.52,0.47,7.51,2.73,8.91,6.71l0.09,0.53l-0.06,3.46c-0.74,2.74-1.22,5.6-1.68,8.38c-0.3,1.78-0.59,3.54-0.95,5.3
			c-0.15,0.7-0.27,1.41-0.39,2.12c-0.11,0.66-0.23,1.32-0.36,1.98c-0.93,4.69-4.39,7.24-9.26,6.62c-1.64-0.22-3.27-0.53-4.9-0.85
			l-0.64-0.11l0.98,1.45c0.76,1.12,1.52,2.23,2.26,3.36c2.52,3.88,1.71,8.44-1.98,11.12c-5.1,3.68-10.24,7.28-15.42,10.84
			c-3.62,2.5-8.17,1.74-10.83-1.8c-0.81-1.09-1.57-2.22-2.33-3.33c-0.35-0.53-0.7-1.07-1.07-1.58l-0.27,1.47
			c-0.23,1.31-0.46,2.61-0.72,3.92C150.63,196.41,147.51,199,143.58,199z M119.48,176.16c0.31,0,0.66,0.08,1.02,0.27
			c1.09,0.55,1.5,1.55,1.24,2.95l-1.27,7.02c-0.55,3.04,1.05,5.36,4.08,5.93c5.96,1.12,11.93,2.23,17.9,3.31
			c2.99,0.62,5.22-1.04,5.8-4.01c0.25-1.28,0.48-2.56,0.71-3.85l0.44-2.47c0.08-0.9,0.22-2.71,2.14-3.04
			c1.83-0.28,2.61,1.23,2.87,1.74c0.69,1.04,1.23,1.85,1.78,2.65c0.72,1.08,1.45,2.16,2.23,3.2c1.6,2.14,4.21,2.56,6.38,1.09
			c5.16-3.56,10.29-7.14,15.36-10.82c2.29-1.65,2.75-4.29,1.17-6.71c-0.72-1.12-1.47-2.21-2.23-3.31c-0.6-0.89-1.21-1.78-1.8-2.66
			c-0.91-1.12-1.01-2.13-0.37-3.11c0.94-1.43,2.37-1.12,2.85-1.01l2.3,0.44c1.57,0.3,3.13,0.61,4.7,0.81
			c3.11,0.32,5.07-1.04,5.66-4.03c0.13-0.63,0.23-1.27,0.35-1.9c0.13-0.75,0.26-1.48,0.41-2.22c0.36-1.71,0.64-3.45,0.93-5.17
			c0.47-2.79,0.95-5.66,1.69-8.48v-2.54c-1-2.61-2.94-3.98-6.09-4.31c-1.12-0.11-2.24-0.33-3.35-0.56l-1.27-0.25
			c-0.7-0.06-2.21-0.2-2.68-1.86c-0.35-1.27,0.14-2.28,1.45-3.03c0.94-0.66,1.72-1.2,2.5-1.74c1.14-0.79,2.28-1.58,3.39-2.42
			c2.15-1.64,2.66-4.29,1.24-6.44c-3.48-5.27-7.01-10.52-10.61-15.72c-1.59-2.28-4.25-2.76-6.63-1.16
			c-1.09,0.74-2.16,1.49-3.23,2.24c-0.84,0.6-1.68,1.19-2.53,1.77c-1.13,0.94-2.13,1.07-3.09,0.46c-1.45-0.89-1.15-2.38-1.05-2.87
			c0.2-1.15,0.37-2.15,0.56-3.15c0.22-1.24,0.44-2.49,0.64-3.73c0.53-3.37-0.96-5.48-4.3-6.11c-5.78-1.08-11.57-2.13-17.36-3.18
			c-3.23-0.56-5.41,0.92-6,4.1l-1.2,6.72c-0.1,0.65-0.33,2.16-1.95,2.52c-1.11,0.28-2.05-0.22-2.72-1.4l-1.67-2.48
			c-0.77-1.15-1.55-2.3-2.36-3.42c-1.61-2.26-3.86-2.83-6.31-1.6c-0.69,0.36-1.98,0.98-3.4-0.1c-3.01-2.26-6.54-4.35-10.79-6.39
			l-1.27-0.61l0.43-1.35c0.08-0.28,0.16-0.58,0.39-0.88c0.13-0.2,0.32-0.41,0.5-0.62c10.35-12.06,14.06-25.76,11.1-40.78
			c-3.5-17.74-13.95-29.77-31.07-35.74c-1.86-0.65-3.79-0.98-5.84-1.34C80.15,4.63,79.07,4.44,78,4.21l-7.7,0.11
			c-0.4,0.11-0.8,0.22-1.21,0.26c-3.72,0.43-7.33,1.36-10.74,2.78c-23.32,9.63-34.65,36-25.81,60.03c2.21,6,5.44,11.27,9.86,16.1
			l1.3,1.42l-1.62,1.04c-0.56,0.38-0.75,0.51-0.96,0.63C17.31,98.97,4.94,119.14,4.3,146.53c-0.15,6.44-0.11,13.01-0.07,19.36
			c0.02,2.98,0.04,5.96,0.04,8.94c0,3.35,0.03,3.37,3.33,3.37h93.56c1.26,0.01,2.83-0.01,4.1,1.7c1.79,2.42,4.23,2.73,6.82,0.95
			c1.1-0.76,2.19-1.53,3.29-2.31l2.3-1.62C118,176.67,118.64,176.16,119.48,176.16z M119.41,179.41c0.11-0.03,0.39-0.05,0.49-0.1
			l-1.31-1.05L119.41,179.41z M179.09,164.85l-0.22,1.61c0.14,0,0.3,0,0.45-0.09L179.09,164.85z M166.89,104.77l-1.51,0.28
			l1.62,0.13C167.01,105.08,166.98,104.92,166.89,104.77z M142.65,192.55c-0.37,0-0.72-0.06-1.03-0.11
			c-5.08-1.03-10.17-2.03-15.27-2.98c-0.79-0.15-1.78-0.43-2.37-1.33c-0.67-1-0.41-2.21-0.32-2.6c0.34-1.58,0.62-3.18,0.89-4.79
			c0.21-1.19,0.41-2.38,0.65-3.58c0.2-1-0.06-1.56-0.98-2.1c-1.24-0.72-2.44-1.51-3.61-2.32c-0.51-0.36-0.82-0.38-1.15-0.41h-0.17
			c-0.01,0-0.03,0-0.03,0c-0.28,0-0.62,0.2-1.16,0.58l-2.35,1.62c-1.55,1.08-3.1,2.14-4.62,3.26c-0.55,0.42-1.36,0.87-2.3,0.71
			c-0.97-0.18-1.56-0.91-1.91-1.46c-2.97-4.55-6-9.08-9.06-13.57c-0.37-0.56-0.79-1.31-0.65-2.22c0.15-1,0.88-1.6,1.41-1.97
			c1.33-0.9,2.64-1.85,3.94-2.8c1-0.72,2-1.45,3.01-2.16c0.93-0.65,1.15-1.27,0.87-2.4c-0.32-1.28-0.57-2.59-0.75-3.89
			c-0.18-1.19-0.66-1.69-1.86-1.91c-1.15-0.23-2.31-0.46-3.47-0.7c-1.57-0.33-3.13-0.65-4.7-0.93c-0.37-0.06-1.5-0.27-2.16-1.23
			c-0.59-0.86-0.49-1.83-0.36-2.49c1.03-5.34,2.05-10.66,2.97-16.02c0.16-0.94,0.54-1.61,1.15-2.04c0.9-0.63,1.95-0.43,2.46-0.34
			c2.49,0.49,4.97,0.96,7.46,1.42c2.28,0.42,2.35,0.4,3.49-1.64c0.17-0.34,0.34-0.68,0.66-1c2.02-2.06,1.95-3.82-0.28-6.49
			c-0.91-1.08-1.66-2.27-2.38-3.41c-0.4-0.64-0.8-1.27-1.22-1.89c-0.18-0.26-0.77-1.09-0.58-2.12c0.17-0.93,0.84-1.48,1.33-1.81
			c4.51-3.13,9.03-6.26,13.51-9.46c0.7-0.51,1.38-0.69,2.07-0.57c1,0.18,1.52,0.96,1.83,1.42l2.08,3.06
			c0.91,1.34,1.83,2.68,2.72,4.03c0.89,1.36,1.59,1.44,2.63,1.08c1.3-0.44,2.65-0.63,3.84-0.79c0.93-0.13,1.56-0.49,1.82-1.91
			l0.56-2.96c0.35-1.86,0.7-3.73,1-5.6c0.06-0.37,0.23-1.47,1.16-2.1c0.82-0.59,1.78-0.48,2.43-0.33
			c5.14,1.05,10.28,2.05,15.43,3.01c0.51,0.1,1.69,0.32,2.33,1.32c0.58,0.9,0.43,1.93,0.27,2.64c-0.44,1.83-0.75,3.68-1.07,5.54
			c-0.15,0.93-0.31,1.86-0.48,2.78c-0.19,1.02,0.08,1.58,1.01,2.11c1.2,0.7,2.37,1.43,3.49,2.24c0.91,0.66,1.55,0.65,2.48,0.01
			l2.66-1.84c1.5-1.05,3.01-2.09,4.48-3.16c0.52-0.37,1.34-0.89,2.3-0.68c1.1,0.2,1.71,1.14,1.95,1.49
			c2.93,4.49,5.9,8.97,8.93,13.41c0.22,0.3,0.86,1.25,0.65,2.37c-0.2,0.99-0.93,1.58-1.55,1.98c-1.31,0.86-2.59,1.78-3.87,2.68
			l-1.7,1.2c-0.7,0.5-1.13,0.81-1.58,1.11c-0.82,0.56-1.04,1.19-0.7,2.06c0.36,0.93,0.46,1.89,0.56,2.81
			c0.23,2.13,0.39,2.88,2.05,3.18c1.02,0.18,2.04,0.38,3.06,0.57c1.76,0.33,3.52,0.67,5.3,0.93c0.39,0.06,1.6,0.24,2.3,1.24
			c0.63,0.89,0.52,1.9,0.39,2.6c-1.02,5.38-2.05,10.79-2.99,16.2c-0.06,0.34-0.24,1.38-1.13,1.98c-0.86,0.61-1.87,0.39-2.36,0.28
			c-1.5-0.29-3.02-0.57-4.54-0.85l-3.08-0.56c-2.19-0.39-2.31-0.39-3.37,1.51c-0.39,0.7-0.83,1.39-1.27,2.05
			c-1.4,2.12-1.4,2.12,0.04,4.3l1.28,1.94c0.96,1.46,1.91,2.92,2.92,4.34c0.43,0.61,0.89,1.43,0.72,2.42c-0.18,1-0.92,1.6-1.46,1.97
			c-4.43,3.02-8.83,6.11-13.21,9.23c-0.51,0.36-1.32,0.76-2.23,0.63c-1.05-0.2-1.62-1.08-1.83-1.42c-0.88-1.36-1.79-2.69-2.71-4.02
			c-0.73-1.07-1.46-2.13-2.17-3.21c-0.69-1.08-1.34-1.33-2.55-0.94c-1.05,0.34-2.25,0.6-3.66,0.75c-1.07,0.11-1.74,0.49-2.02,2.1
			c-0.2,1.14-0.42,2.28-0.64,3.42c-0.31,1.58-0.61,3.16-0.85,4.74c-0.05,0.39-0.22,1.58-1.2,2.27
			C143.73,192.43,143.18,192.55,142.65,192.55z M126.83,186.23c0.04,0.01,0.08,0.03,0.11,0.03c5.11,0.95,10.2,1.95,15.29,2.98
			c0.29-1.78,0.58-3.28,0.88-4.81c0.22-1.12,0.43-2.23,0.63-3.36c0.61-3.58,2.98-4.56,4.85-4.77c1.18-0.14,2.17-0.34,3.02-0.62
			c2.59-0.8,4.74-0.05,6.26,2.23c0.7,1.07,1.42,2.12,2.14,3.17c0.85,1.26,1.7,2.5,2.52,3.75c4.34-3.08,8.55-6.04,12.79-8.93
			c-1.1-1.58-2-2.97-2.91-4.35l-1.27-1.93c-2.27-3.44-2.28-4.54-0.04-7.91c0.4-0.6,0.79-1.19,1.13-1.81
			c1.75-3.14,3.23-3.79,6.81-3.13l3.06,0.56c1.44,0.27,2.88,0.52,4.32,0.81c0.95-5.39,1.95-10.63,2.94-15.84
			c-1.98-0.33-3.7-0.65-5.4-0.98l-3.02-0.56c-4.15-0.75-4.49-3.92-4.72-6.02c-0.08-0.76-0.16-1.47-0.36-2
			c-0.88-2.29-0.16-4.5,1.92-5.92c0.41-0.29,0.82-0.58,1.23-0.87l1.98-1.4c1.28-0.91,2.56-1.81,3.87-2.68
			c-3.04-4.49-5.91-8.8-8.73-13.12c-1.52,1.09-2.92,2.05-4.3,3.02l-2.63,1.83c-2.06,1.45-4.22,1.45-6.26-0.03
			c-1.03-0.75-2.11-1.42-3.21-2.06c-2.12-1.22-3.01-3.12-2.58-5.51c0.17-0.91,0.32-1.83,0.48-2.74c0.32-1.92,0.65-3.85,1.1-5.74
			c0-0.01,0-0.01,0-0.01c-0.01-0.01-0.03-0.01-0.04-0.01c-5.08-0.94-10.17-1.93-15.25-2.97c-0.32,1.93-0.65,3.67-0.98,5.41
			l-0.55,2.94c-0.61,3.33-2.83,4.3-4.58,4.55c-1.1,0.15-2.23,0.29-3.22,0.63c-2.6,0.89-4.76,0.1-6.4-2.36
			c-0.88-1.34-1.78-2.66-2.69-3.99l-1.88-2.77c-4.29,3.04-8.52,6-12.77,8.93c0.39,0.58,0.73,1.12,1.07,1.65
			c0.69,1.1,1.34,2.14,2.11,3.06c3.29,3.93,3.32,7.58,0.1,10.86c-1.95,3.58-3.37,4.24-7.06,3.56c-2.44-0.46-4.88-0.92-7.32-1.39
			c-0.94,5.36-1.92,10.52-2.93,15.7c1.7,0.33,3.18,0.63,4.67,0.94c1.13,0.24,2.28,0.47,3.42,0.68c2.55,0.49,4.09,2.09,4.46,4.65
			c0.17,1.2,0.39,2.38,0.69,3.56c0.61,2.42-0.14,4.44-2.16,5.85c-0.99,0.7-1.97,1.41-2.95,2.12c-1.26,0.91-2.5,1.83-3.78,2.7
			c3.06,4.51,5.94,8.83,8.77,13.17c1.59-1.14,3.02-2.13,4.45-3.12l2.33-1.62c0.65-0.46,1.84-1.1,3.16-1.17
			c1.39,0.14,2.43,0.55,3.07,0.99c1.1,0.76,2.24,1.5,3.41,2.19c2.1,1.23,2.98,3.14,2.52,5.52c-0.23,1.17-0.42,2.35-0.63,3.51
			c-0.29,1.65-0.57,3.3-0.93,4.93C126.83,186.22,126.83,186.23,126.83,186.23z M97.55,175.16c-0.22,0-0.42-0.01-0.6-0.03
			l-18.01-0.01c-11.79,0-23.57,0-35.36,0.03c-0.01,0-0.03,0-0.03,0c-0.85,0-1.89-0.01-2.67-0.82c-0.73-0.76-0.79-1.8-0.75-2.62
			c0.16-3.72,0.12-7.52,0.09-11.2l-0.03-3.17c-0.01-0.95-0.41-1.95-1.51-1.95c-1.34,0-1.5,1.37-1.5,1.95
			c-0.03,5-0.03,9.98,0.08,14.97c0.01,0.42,0.04,1.41-0.67,2.13c-0.68,0.7-1.6,0.7-2.04,0.7c-8.11-0.04-16.22-0.03-24.33,0
			c-0.36,0-1.43,0-2.19-0.79c-0.76-0.77-0.74-1.85-0.74-2.21c0.09-3.91,0-7.81-0.09-11.73c-0.16-7.48-0.33-15.23,0.75-22.84
			c3.23-22.81,15.39-39.31,36.12-49.04c1.64-0.77,3.01-0.61,4.53,0.49c7.74,5.67,16.39,8.55,25.71,8.55c0.01,0,0.02,0,0.03,0
			c9.44,0,18.15-2.91,25.88-8.66c1.45-1.07,2.77-1.24,4.36-0.51c3.92,1.79,7.23,3.65,10.39,5.86l1.9,1.33l-5.55,3.91
			c-1.83,1.28-3.61,2.53-5.39,3.8c-2.86,2.04-3.31,4.56-1.33,7.5l1.25,1.84c0.77,1.12,1.54,2.24,2.28,3.38
			c0.48,0.55,1.54,1.76,0.63,3.33c-0.46,0.81-1.36,1.67-3.2,1.05l-6.35-1.19c-3.23-0.6-5.41,0.94-6,4.15
			c-1.13,6.03-2.23,12.06-3.3,18.1c-0.28,1.58-0.04,2.95,0.67,3.97c0.74,1.05,2.02,1.76,3.69,2.05c1.19,0.2,2.38,0.43,3.56,0.65
			l2.61,0.48c0.63,0.1,2.07,0.34,2.47,1.98c0.39,1.65-0.84,2.5-1.24,2.78l-2.31,1.66c-1.12,0.8-2.24,1.61-3.35,2.43
			c-2.62,1.97-3.05,4.43-1.25,7.13l5.31,7.87l-0.1,1.55l-0.61,0.61C98.75,175.07,98.09,175.16,97.55,175.16z M43.37,171.9
			c0.08,0,0.16,0,0.21,0c11.79-0.03,23.58-0.03,35.36-0.03l16.82-0.01l-3.69-5.48c-2.75-4.12-1.98-8.55,2-11.51
			c1.12-0.85,2.26-1.66,3.4-2.49l1.13-0.81l-1.36-0.25c-1.17-0.23-2.35-0.44-3.52-0.65c-2.55-0.44-4.55-1.61-5.79-3.39
			c-1.22-1.74-1.64-3.94-1.2-6.39c1.07-6.06,2.17-12.1,3.3-18.14c0.93-4.98,4.74-7.64,9.77-6.75l5.07,0.93
			c-0.55-0.83-1.12-1.65-1.68-2.47l-1.27-1.86c-2.97-4.42-2.16-8.89,2.14-11.96c1.79-1.26,3.58-2.52,5.41-3.8l1.71-1.21
			c-2.43-1.55-5-2.93-7.94-4.27c-0.44-0.21-0.52-0.24-1.07,0.16c-8.31,6.18-17.67,9.3-27.82,9.3c-0.01,0-0.02,0-0.03,0
			c-10.03,0-19.32-3.09-27.63-9.18c-0.61-0.43-0.72-0.39-1.23-0.16c-19.69,9.24-31.22,24.9-34.3,46.55
			c-1.04,7.34-0.87,14.95-0.71,22.3c0.09,3.85,0.17,7.7,0.1,11.54c7.94,0,15.69-0.01,23.45,0.01c-0.09-5.01-0.09-9.79-0.06-14.58
			c0.02-3.04,1.97-5.17,4.75-5.17c2.74,0,4.74,2.18,4.75,5.17l0.03,3.16c0.03,3.73,0.07,7.57-0.09,11.36
			C43.38,171.85,43.37,171.88,43.37,171.9z M99.79,150.94l1.27,0.86l-1.06-1.23C99.91,150.65,99.83,150.79,99.79,150.94z
			 M74.23,94.39c-1.62,0-3.23-0.1-4.85-0.29c-10.93-1.33-20.74-7.06-27.65-16.12c-8.41-11.06-11.14-25.22-7.48-38.86
			c3.54-13.19,12.54-23.67,24.71-28.75c4.93-2.05,10.13-3.11,15.47-3.13h0.09c17.81,0.88,30.53,9.57,37.8,25.8
			c8.05,17.95,2.88,39.85-12.26,52.04C92.51,91.17,83.48,94.39,74.23,94.39z M74.39,10.49c-4.89,0.03-9.67,0.99-14.18,2.87
			c-11.23,4.7-19.55,14.39-22.83,26.6c-3.4,12.66-0.87,25.8,6.94,36.05c6.37,8.36,15.41,13.64,25.45,14.86
			c10.06,1.26,20.07-1.72,28.24-8.31c14.02-11.3,18.79-31.56,11.34-48.19C102.63,19.35,90.87,11.32,74.39,10.49z"/>
	</g>
	<g>
		<path class="st0" d="M142.92,164.07c-12.09,0.08-22.16-10.03-22.23-22.32c-0.07-12.23,9.93-22.43,22.05-22.5
			c12.13-0.07,22.06,9.91,22.22,22.32C165.1,153.73,155.05,163.99,142.92,164.07z M127.02,141.61c-0.01,8.86,7.13,16.21,15.76,16.21
			c8.68,0,15.87-7.3,15.86-16.11c-0.01-8.9-7.11-16.19-15.76-16.21C134.21,125.49,127.03,132.78,127.02,141.61z"/>
		<path class="st0" d="M142.78,165.69c-6.16,0-12.02-2.43-16.5-6.87c-4.62-4.56-7.18-10.61-7.21-17.05
			c-0.08-13.22,10.54-24.05,23.65-24.14c0.04,0,0.1,0,0.14,0c12.92,0,23.55,10.7,23.72,23.92c0.08,6.33-2.36,12.35-6.89,16.95
			c-4.51,4.6-10.46,7.15-16.76,7.19l-0.01-1.62l0.01,1.62C142.88,165.69,142.83,165.69,142.78,165.69z M142.86,120.87
			c-0.04,0-0.08,0-0.12,0c-11.13,0.07-20.49,9.62-20.43,20.86c0.03,5.58,2.24,10.83,6.24,14.77c3.87,3.83,8.92,5.93,14.22,5.93
			c0.04,0,0.09,0,0.13,0c5.43-0.04,10.57-2.24,14.47-6.21c3.91-3.99,6.03-9.18,5.96-14.63
			C163.18,130.14,154.01,120.87,142.86,120.87z M142.78,159.44c-4.53,0-8.83-1.81-12.12-5.1c-3.4-3.41-5.27-7.92-5.26-12.73
			c0.01-4.7,1.83-9.14,5.14-12.51c3.32-3.37,7.69-5.22,12.31-5.22c0.01,0,0.02,0,0.03,0c9.57,0.01,17.37,8.02,17.38,17.83
			c0.01,4.73-1.85,9.21-5.22,12.58C151.72,157.61,147.37,159.44,142.78,159.44z M142.85,127.13c-3.75,0-7.3,1.51-10,4.25
			c-2.71,2.76-4.21,6.39-4.21,10.23l0,0c-0.01,3.94,1.53,7.65,4.32,10.44c5.38,5.4,14.42,5.33,19.77-0.05
			c2.76-2.76,4.28-6.42,4.27-10.28c-0.01-8.03-6.35-14.58-14.13-14.59C142.87,127.13,142.86,127.13,142.85,127.13z"/>
	</g>
</g>
</svg>
