<?xml version="1.0" encoding="utf-8"?>
<!-- Generator: Adobe Illustrator 26.0.2, SVG Export Plug-In . SVG Version: 6.00 Build 0)  -->
<svg version="1.1" id="Layer_1" xmlns="http://www.w3.org/2000/svg" xmlns:xlink="http://www.w3.org/1999/xlink" x="0px" y="0px"
	 viewBox="0 0 200 200" style="enable-background:new 0 0 200 200;" xml:space="preserve">
<style type="text/css">
	.st0{fill:#FFFFFF;}
</style>
<g>
	<g>
		<path class="st0" d="M198.33,195.24c-1.03,2.36-2.86,3.11-5.38,3.11c-61.97-0.04-123.94-0.03-185.9-0.04
			c-0.89,0-1.78,0.07-2.65-0.27c-1.77-0.69-2.87-2.38-2.69-4.21c0.19-1.92,1.67-3.41,3.62-3.63c0.38-0.04,0.77-0.04,1.15-0.05
			c3.36-0.05,3.36-0.05,3.36-3.51c0-13.38,0-26.76,0-40.14c0-4.24,1.28-5.52,5.49-5.52c7.3-0.01,14.6-0.01,21.89,0
			c4.18,0,5.46,1.3,5.46,5.55c0,13.83,0.03,27.66-0.03,41.48c-0.01,1.63,0.32,2.23,2.09,2.17c4.03-0.14,8.07-0.14,12.1,0
			c1.81,0.06,2.21-0.52,2.21-2.24c-0.05-27.33-0.04-54.67-0.03-82c0-0.77-0.03-1.54,0.08-2.3c0.32-2.18,1.81-3.62,4.03-3.64
			c8.19-0.05,16.39-0.05,24.58,0c2.3,0.01,3.8,1.5,4.09,3.79c0.09,0.76,0.06,1.53,0.06,2.3c0,27.08,0,54.16,0.01,81.24
			c0,3.25-0.38,2.79,2.9,2.81c3.78,0.02,7.56-0.09,11.33,0.05c1.7,0.06,2.14-0.44,2.13-2.13c-0.06-19.01-0.04-38.03-0.04-57.04
			c0-3.26-0.03-6.53,0.01-9.79c0.03-3.32,1.52-4.81,4.83-4.82c7.49-0.02,14.98-0.01,22.47-0.01c4.22,0,5.53,1.29,5.53,5.48
			c0,21.89,0,43.79,0.01,65.68c0,2.89-0.3,2.57,2.55,2.58c3.9,0.01,7.81-0.1,11.71,0.05c1.77,0.07,2.09-0.55,2.09-2.17
			c-0.04-38.28-0.03-76.56-0.03-114.85c0-0.83-0.02-1.67,0.12-2.49c0.35-2.04,1.74-3.39,3.8-3.4c8.32-0.06,16.64-0.06,24.96,0
			c2.08,0.01,3.46,1.33,3.82,3.37c0.14,0.81,0.13,1.66,0.13,2.49c0.01,38.15,0,76.31,0.01,114.46c0,2.9-0.25,2.64,2.59,2.51
			c2.48-0.12,4.34,0.64,5.57,2.82C198.33,193.7,198.33,194.47,198.33,195.24z M181.91,132.77c0-18.49-0.02-36.98,0.03-55.47
			c0-1.45-0.3-1.98-1.87-1.94c-4.22,0.12-8.45,0.09-12.67,0.01c-1.38-0.03-1.85,0.27-1.85,1.77c0.04,37.04,0.04,74.09,0,111.13
			c0,1.51,0.52,1.8,1.88,1.78c4.09-0.08,8.19-0.11,12.28,0.01c1.72,0.05,2.25-0.4,2.24-2.2
			C181.88,169.49,181.91,151.13,181.91,132.77z M67.25,148.95c0,13.06,0.02,26.11-0.03,39.17c-0.01,1.5,0.39,1.97,1.92,1.94
			c4.22-0.1,8.45-0.07,12.67-0.01c1.24,0.02,1.8-0.21,1.8-1.65c-0.04-26.17-0.04-52.35,0-78.52c0-1.31-0.35-1.78-1.71-1.75
			c-4.22,0.08-8.45,0.11-12.67-0.01c-1.65-0.05-2.01,0.51-2,2.06C67.27,123.09,67.25,136.02,67.25,148.95z M116.42,157.22
			c0,10.3,0.03,20.59-0.03,30.89c-0.01,1.49,0.37,1.98,1.91,1.94c4.28-0.1,8.57-0.08,12.85-0.01c1.26,0.02,1.62-0.39,1.62-1.63
			c-0.03-20.79-0.03-41.57,0-62.36c0-1.17-0.33-1.53-1.51-1.51c-4.35,0.06-8.7,0.08-13.05-0.01c-1.42-0.03-1.83,0.34-1.82,1.79
			C116.45,136.62,116.42,146.92,116.42,157.22z M34.41,169.49c0-6.2-0.03-12.4,0.02-18.6c0.01-1.25-0.2-1.81-1.64-1.78
			c-4.41,0.09-8.82,0.07-13.23,0.01c-1.19-0.02-1.5,0.36-1.5,1.52c0.04,12.59,0.04,25.19,0,37.78c0,1.27,0.4,1.63,1.64,1.61
			c4.35-0.06,8.7-0.08,13.04,0.01c1.38,0.03,1.71-0.44,1.7-1.75C34.38,182.03,34.41,175.76,34.41,169.49z"/>
		<path class="st0" d="M192.94,199c-61.97-0.04-123.93-0.04-185.91-0.04h-0.4c-0.85,0.06-1.64,0.03-2.49-0.31
			c-2.06-0.81-3.31-2.77-3.11-4.88c0.22-2.24,1.95-3.97,4.21-4.23c0.31-0.03,0.61-0.04,0.92-0.05h0.28
			c2.73-0.04,2.73-0.04,2.73-2.86l-0.01-13.38c0-8.91,0-17.83,0.01-26.75c0-4.62,1.55-6.17,6.14-6.17c7.29-0.03,14.59-0.03,21.89,0
			c4.57,0,6.11,1.56,6.11,6.2l0.01,7.32c0.01,11.38,0.02,22.78-0.04,34.17c0,0.46,0.03,1.09,0.24,1.31c0.16,0.17,0.58,0.18,1.17,0.2
			c4.04-0.15,8.12-0.15,12.15,0c0.63-0.04,1.08-0.06,1.26-0.22c0.18-0.18,0.27-0.61,0.27-1.37c-0.05-24.84-0.04-49.7-0.04-74.55
			l0.01-7.45l-0.01-0.42c-0.01-0.64-0.01-1.29,0.09-1.96c0.37-2.57,2.16-4.19,4.67-4.2c8.17-0.04,16.44-0.04,24.59,0
			c2.59,0.01,4.4,1.69,4.73,4.37c0.08,0.64,0.08,1.29,0.07,1.91l-0.01,0.46c0,27.08,0,54.17,0.01,81.24l-0.01,0.92
			c-0.01,0.55-0.01,1.11,0.05,1.25c0.09,0,0.62,0,1.13-0.01c0.3,0,0.66,0,1.08,0c1.22-0.01,2.52-0.01,3.76-0.01
			c2.49-0.03,5.05-0.04,7.57,0.05c0.65,0,1.04-0.05,1.21-0.2c0.17-0.17,0.25-0.58,0.25-1.27c-0.05-14.79-0.04-29.58-0.04-44.37
			l0.01-12.66l-0.01-3.01c-0.01-2.27-0.01-4.53,0.01-6.79c0.04-3.69,1.84-5.47,5.49-5.47c5.62-0.03,11.23-0.01,16.86-0.01h5.62
			c4.57,0,6.18,1.6,6.18,6.13c0,21.9,0,43.8,0.01,65.68v0.76c-0.01,0.53-0.01,1.06,0.04,1.19c0.06,0,0.58-0.01,1.08-0.01h0.77
			c1.34,0.01,2.6-0.01,3.9-0.01c2.55-0.03,5.22-0.04,7.84,0.05c0.65,0.01,1.01-0.04,1.16-0.19c0.22-0.2,0.25-0.82,0.25-1.32
			c-0.04-31.32-0.04-62.64-0.04-93.97l0.01-21.14c-0.01-0.77-0.01-1.55,0.13-2.34c0.41-2.41,2.11-3.92,4.44-3.93
			c7.98-0.08,16.38-0.06,24.98-0.01c2.33,0.01,4.04,1.51,4.46,3.92c0.14,0.78,0.14,1.58,0.13,2.34v0.26
			c0.01,38.15,0.01,76.31,0.01,114.46v0.65c-0.01,0.56-0.01,1.15,0.06,1.29c0.08,0,0.64-0.03,1.18-0.06l0.67-0.03
			c0.17-0.01,0.33-0.01,0.49-0.01c2.62,0,4.48,1.04,5.68,3.16l0.08,0.32l-0.05,2.57C197.87,197.92,196.02,199,192.94,199z
			 M7.04,197.66c61.97,0,123.94,0,185.91,0.04c2.5,0,3.88-0.76,4.73-2.6v-1.98c-0.97-1.61-2.36-2.36-4.44-2.36
			c-0.14,0-0.29,0.01-0.44,0.01l-0.66,0.04c-1.13,0.05-1.75,0.1-2.19-0.33c-0.45-0.44-0.44-1.04-0.44-2.23l0.01-0.64
			c0-38.15,0-76.31-0.01-114.46v-0.26c0-0.74,0-1.45-0.12-2.11c-0.31-1.79-1.47-2.83-3.18-2.84c-8.58-0.05-16.98-0.04-24.95,0.01
			c-1.68,0.01-2.86,1.08-3.16,2.86c-0.12,0.67-0.12,1.4-0.12,2.1v21.15c0,31.32,0,62.64,0.03,93.97c0,0.99-0.11,1.74-0.65,2.27
			c-0.56,0.55-1.43,0.67-2.12,0.55c-2.58-0.09-5.21-0.08-7.78-0.05c-1.3,0.03-2.63,0.04-3.91,0.01h-0.76
			c-1.06,0.04-1.63,0.01-2.05-0.4c-0.42-0.44-0.42-1.02-0.4-2.1l0.01-0.74c-0.01-21.88-0.01-43.78-0.01-65.68
			c0-3.83-1.01-4.83-4.87-4.83h-5.62c-5.61-0.01-11.24-0.01-16.85,0.01c-2.93,0-4.14,1.2-4.18,4.17c-0.02,2.25-0.01,4.51-0.01,6.76
			v15.69c-0.01,14.79-0.01,29.58,0.04,44.37c0.01,0.78-0.07,1.65-0.64,2.22c-0.57,0.54-1.41,0.54-2.17,0.56
			c-2.49-0.1-5.04-0.05-7.52-0.05c-1.27,0.01-2.55,0-3.78,0.01c-0.44,0-0.77,0-1.06,0.01c-1.08,0-1.66,0.03-2.09-0.41
			c-0.44-0.44-0.43-1.05-0.41-2.16l0.01-0.91c-0.01-27.07-0.01-54.15-0.01-81.24v-0.46c0.01-0.61,0.01-1.19-0.06-1.75
			c-0.24-2-1.53-3.2-3.44-3.21c-8.14-0.05-16.41-0.05-24.57,0c-1.84,0.01-3.11,1.17-3.39,3.07c-0.08,0.58-0.08,1.15-0.07,1.77v7.89
			c-0.01,24.86-0.01,49.71,0.03,74.55c0,0.86-0.08,1.74-0.67,2.31c-0.6,0.56-1.47,0.58-2.22,0.59c-3.98-0.12-8.04-0.12-12.04,0
			c-0.69-0.01-1.57-0.03-2.14-0.56c-0.53-0.53-0.64-1.28-0.63-2.25c0.05-11.4,0.04-22.78,0.03-34.17v-7.32
			c0-3.88-0.99-4.89-4.8-4.89c-7.31,0-14.6,0-21.89,0c-3.84,0-4.83,1-4.83,4.87c0,8.93,0,17.84,0,26.75v13.38
			c0,3.79-0.29,4.11-4.01,4.16l-0.28,0.01c-0.28,0-0.54,0.01-0.81,0.04c-1.63,0.18-2.88,1.43-3.03,3.05
			c-0.15,1.51,0.77,2.93,2.28,3.52c0.62,0.24,1.33,0.22,1.99,0.23H7.04z M179.97,190.71c-0.09,0-0.19-0.01-0.28-0.01
			c-4.32-0.12-8.62-0.06-12.25,0c-0.73,0.01-1.45-0.04-1.96-0.54c-0.52-0.51-0.58-1.28-0.58-1.9c0.04-36.88,0.04-74.26,0-111.13
			c0-0.63,0.06-1.41,0.58-1.91c0.5-0.49,1.19-0.55,1.95-0.51c5.05,0.08,8.94,0.09,12.63-0.01c0.65-0.01,1.43,0.03,1.96,0.55
			c0.52,0.5,0.59,1.28,0.59,2.04c-0.03,15.14-0.03,30.26-0.03,45.38v21.69c-0.01,14.5-0.01,28.99,0.04,43.49
			c0.01,0.79-0.07,1.68-0.66,2.24C181.43,190.61,180.68,190.71,179.97,190.71z M174.15,189.32c1.82,0,3.7,0.03,5.58,0.08
			c0.74-0.01,1.12-0.05,1.3-0.23c0.18-0.18,0.27-0.6,0.27-1.31c-0.06-14.5-0.05-28.99-0.05-43.49l0.01-11.6l-0.01-10.09
			c0-15.12,0-30.26,0.04-45.38c0-0.23,0-0.91-0.2-1.1c-0.1-0.1-0.37-0.14-1.01-0.18c-3.71,0.1-7.62,0.13-12.7,0.01
			c-0.56,0.05-0.88,0.04-1,0.15c-0.08,0.08-0.19,0.31-0.19,0.96c0.04,36.87,0.04,74.25,0,111.13c0,0.64,0.11,0.87,0.19,0.96
			c0.13,0.13,0.55,0.2,1.02,0.17C169.48,189.36,171.76,189.32,174.15,189.32z M68.96,190.7c-0.61,0-1.31-0.08-1.8-0.55
			c-0.53-0.53-0.6-1.32-0.6-2.04c0.04-9.99,0.04-19.96,0.03-29.95v-18.34c0.01-9.89,0.01-19.77-0.03-29.66
			c-0.01-0.79,0.07-1.61,0.62-2.15c0.55-0.54,1.34-0.58,2.05-0.56c3.69,0.1,7.58,0.1,12.64,0.01c0.6,0,1.31,0.04,1.82,0.54
			c0.5,0.49,0.56,1.22,0.56,1.86c-0.03,26.17-0.03,52.35,0.01,78.52c0,0.85-0.17,1.4-0.56,1.78c-0.51,0.51-1.33,0.55-1.9,0.53
			c-3.47-0.05-8.05-0.09-12.65,0.01C69.09,190.7,69.02,190.7,68.96,190.7z M69.02,108.76c-0.47,0-0.78,0.06-0.92,0.19
			c-0.16,0.15-0.23,0.54-0.23,1.22c0.04,9.87,0.04,19.77,0.04,29.66l-0.01,9.12l0.01,9.22c0.01,9.99,0.01,19.96-0.04,29.95
			c0,0.6,0.07,0.96,0.21,1.1c0.12,0.12,0.42,0.18,0.88,0.18c0.05,0,0.1,0,0.15,0c4.62-0.12,9.2-0.05,12.7-0.01
			c0.33,0.06,0.82-0.01,0.96-0.15c0.06-0.06,0.17-0.26,0.17-0.85c-0.04-26.17-0.04-52.35-0.01-78.52c0-0.5-0.06-0.82-0.17-0.93
			c-0.08-0.06-0.24-0.17-0.87-0.15c-5.09,0.09-9.01,0.08-12.7-0.01C69.14,108.76,69.08,108.76,69.02,108.76z M118.12,190.7
			c-0.61,0-1.31-0.08-1.8-0.56c-0.53-0.53-0.6-1.32-0.59-2.04c0.04-7.88,0.04-15.75,0.03-23.61v-14.14c0.01-8,0.01-16.01-0.04-24.02
			c-0.01-0.67,0.06-1.42,0.57-1.92c0.51-0.5,1.33-0.54,1.93-0.53c3.74,0.08,7.77,0.08,13.02,0c0.6,0.05,1.21,0.05,1.66,0.5
			c0.45,0.45,0.51,1.09,0.51,1.66c-0.03,20.78-0.03,41.58,0,62.36c0,0.58-0.06,1.29-0.54,1.77c-0.49,0.47-1.17,0.51-1.74,0.51
			c-3.52-0.05-8.17-0.1-12.83,0.01C118.24,190.7,118.18,190.7,118.12,190.7z M118.03,125.19c-0.54,0-0.74,0.08-0.81,0.15
			c-0.08,0.08-0.18,0.32-0.18,0.99c0.05,8,0.04,16.02,0.04,24.02l-0.01,6.86l0.01,7.27c0.01,7.86,0.01,15.74-0.04,23.61
			c0,0.6,0.06,0.97,0.2,1.1c0.15,0.14,0.55,0.2,1.02,0.19c4.69-0.1,9.34-0.06,12.89-0.01c0.56,0.06,0.74-0.09,0.79-0.14
			c0.07-0.06,0.16-0.27,0.16-0.83c-0.03-20.78-0.03-41.58,0-62.36c0-0.55-0.09-0.7-0.13-0.74c-0.04-0.03-0.17-0.12-0.67-0.12
			c-0.01,0-0.03,0-0.05,0c-5.26,0.08-9.3,0.08-13.07,0C118.13,125.19,118.08,125.19,118.03,125.19z M32.86,190.7
			c-0.04,0-0.08,0-0.13,0c-3.9-0.06-8.15-0.08-13.02-0.01c-0.52,0.01-1.27-0.04-1.76-0.51c-0.49-0.47-0.54-1.19-0.54-1.75
			c0.04-12.54,0.04-25.24,0-37.78c-0.01-0.58,0.05-1.23,0.51-1.68c0.45-0.45,1.14-0.44,1.65-0.5c3.63,0.04,8.4,0.1,13.22-0.01
			c0.03,0,0.07,0,0.11,0c0.52,0,1.2,0.06,1.66,0.53c0.51,0.5,0.54,1.25,0.53,1.92c-0.04,4.64-0.03,9.3-0.03,13.95v9.59
			c-0.01,4.61-0.01,9.23,0.03,13.86c0.01,0.64-0.05,1.38-0.55,1.87C34.08,190.63,33.41,190.7,32.86,190.7z M26.22,189.33
			c2.31,0,4.47,0.01,6.53,0.06c0.69,0.03,0.81-0.1,0.86-0.15c0.12-0.12,0.17-0.44,0.17-0.93c-0.04-4.64-0.04-9.25-0.03-13.87
			l0.01-4.94l-0.01-4.65c-0.01-4.65-0.01-9.31,0.03-13.96c0-0.2,0.01-0.82-0.15-0.97c-0.04-0.05-0.26-0.14-0.82-0.15
			c-4.83,0.12-9.63,0.05-13.25,0.01c-0.02,0-0.04,0-0.05,0c-0.51,0-0.63,0.09-0.67,0.12c-0.04,0.04-0.12,0.19-0.12,0.76
			c0.04,12.54,0.04,25.24,0,37.78c0,0.58,0.1,0.77,0.15,0.82s0.31,0.17,0.81,0.14C21.99,189.34,24.17,189.33,26.22,189.33z"/>
	</g>
	<g>
		<path class="st0" d="M176.05,1.65c1.09,0.33,2.2,0.62,3.27,1.01c8.65,3.15,13.02,12.77,9.7,21.31c-3.35,8.62-13.2,12.8-21.7,9.07
			c-1.59-0.7-2.4-0.45-3.56,0.72c-7.82,7.93-15.7,15.8-23.61,23.63c-1.02,1.01-1.36,1.72-0.66,3.21c2.91,6.2,1.4,13.6-3.53,18.36
			c-4.9,4.74-12.09,5.94-18.32,3.05c-6.15-2.85-9.97-9.3-9.36-16.02c0.11-1.23-0.2-1.65-1.35-1.96c-5.36-1.47-10.7-3-16.04-4.57
			c-0.93-0.27-1.45-0.14-2.07,0.68c-5.69,7.46-14.23,9.16-22.25,4.42c-0.81-0.48-1.27-0.44-1.97,0.11
			c-7.64,6.12-15.28,12.25-22.98,18.29c-1.1,0.86-0.7,1.53-0.32,2.44c3.59,8.6-0.57,18.37-9.19,21.67
			c-8.65,3.31-18.29-1.19-21.34-9.97c-2.17-6.24-0.41-13.02,4.55-17.5c4.92-4.45,11.99-5.51,18.05-2.52
			c1.27,0.62,1.99,0.47,3.01-0.36c7.57-6.11,15.17-12.17,22.82-18.18c0.99-0.78,1.1-1.39,0.72-2.53
			c-2.98-8.91,2.04-18.44,10.97-20.95c9.11-2.55,18.34,2.92,20.49,12.15c0.04,0.19,0.14,0.38,0.11,0.56
			c-0.41,3.17,1.56,3.97,4.16,4.61c4.96,1.22,9.85,2.73,14.75,4.17c0.98,0.29,1.58,0.15,2.32-0.61c5.27-5.33,12.14-6.58,19.01-3.44
			c0.93,0.43,1.41,0.34,2.1-0.36c8.26-8.3,16.55-16.58,24.84-24.85c0.59-0.59,0.89-1.04,0.43-1.95
			c-5.1-10.13,1.42-21.74,11.81-23.43c0.18-0.03,0.33-0.17,0.5-0.26C172.98,1.65,174.51,1.65,176.05,1.65z M181.89,18.01
			c-0.01-4.53-3.67-8.2-8.18-8.18c-4.51,0.02-8.13,3.69-8.12,8.23c0.01,4.52,3.67,8.18,8.18,8.16
			C178.28,26.21,181.9,22.54,181.89,18.01z M116.43,67.11c-0.04,4.55,3.55,8.24,8.05,8.28c4.51,0.05,8.2-3.58,8.24-8.1
			c0.04-4.53-3.54-8.23-8.06-8.3C120.2,58.92,116.47,62.6,116.43,67.11z M34.4,91.77c0-4.51-3.68-8.2-8.16-8.19
			c-4.5,0.01-8.14,3.68-8.13,8.22c0,4.53,3.64,8.18,8.16,8.18C30.77,99.97,34.4,96.31,34.4,91.77z M75.48,42.67
			c-4.59-0.03-8.18,3.51-8.21,8.08c-0.03,4.58,3.52,8.19,8.08,8.22c4.57,0.03,8.18-3.52,8.21-8.08
			C83.6,46.31,80.04,42.7,75.48,42.67z"/>
		<path class="st0" d="M26.25,108.82c-2.44,0-4.87-0.53-7.16-1.59c-4.23-1.97-7.4-5.49-8.94-9.91c-2.27-6.53-0.46-13.51,4.73-18.2
			c5.18-4.67,12.56-5.7,18.79-2.63c1.01,0.49,1.45,0.44,2.31-0.28c8.31-6.7,15.78-12.64,22.83-18.18c0.74-0.58,0.81-0.87,0.51-1.81
			c-1.51-4.51-1.12-9.28,1.09-13.46c2.18-4.12,5.85-7.08,10.32-8.32c4.57-1.31,9.31-0.68,13.34,1.7c4.05,2.39,6.88,6.27,7.97,10.91
			c0.08,0.31,0.15,0.53,0.13,0.78c-0.32,2.5,0.87,3.21,3.66,3.91c4.18,1.04,8.38,2.29,12.44,3.5l2.34,0.69
			c0.76,0.22,1.11,0.13,1.67-0.45c5.46-5.52,12.65-6.81,19.75-3.59c0.67,0.32,0.86,0.29,1.36-0.22c8.25-8.3,16.55-16.57,24.84-24.84
			c0.51-0.51,0.58-0.67,0.31-1.2c-2.46-4.88-2.45-10.46,0.02-15.32c2.45-4.81,7.04-8.2,12.27-9.05c0.15-0.1,0.22-0.15,0.29-0.19
			L171.44,1l4.8,0.03l0.99,0.29c0.78,0.22,1.56,0.45,2.32,0.73c4.35,1.58,7.8,4.78,9.71,8.99c1.91,4.2,2.04,8.87,0.36,13.18
			c-1.7,4.37-5.01,7.76-9.34,9.55c-4.29,1.78-8.99,1.73-13.24-0.13c-1.26-0.56-1.8-0.46-2.82,0.58
			c-8.21,8.32-16.55,16.62-23.62,23.64c-0.9,0.9-1.07,1.31-0.52,2.47c3.01,6.4,1.54,14.09-3.67,19.11
			c-5.1,4.93-12.56,6.19-19.05,3.18c-6.46-3-10.38-9.69-9.74-16.67c0.08-0.9-0.01-1.04-0.86-1.27c-4.68-1.28-9.78-2.73-16.05-4.57
			c-0.72-0.2-0.93-0.15-1.36,0.44c-5.92,7.76-14.78,9.54-23.11,4.6c-0.63-0.37-0.79-0.32-1.22,0.06
			c-7.52,6.02-15.28,12.24-22.99,18.29c-0.62,0.49-0.54,0.68-0.2,1.46l0.09,0.2c1.81,4.35,1.79,9.1-0.04,13.39
			c-1.82,4.25-5.2,7.5-9.51,9.16C30.37,108.45,28.31,108.82,26.25,108.82z M26.19,76.05c-3.77,0-7.48,1.38-10.42,4.05
			c-4.79,4.33-6.47,10.77-4.37,16.79c1.42,4.08,4.35,7.34,8.25,9.16c3.87,1.79,8.21,1.97,12.24,0.42c3.98-1.52,7.1-4.52,8.78-8.44
			c1.7-3.96,1.72-8.36,0.04-12.37l-0.08-0.2c-0.34-0.79-0.81-1.9,0.61-3c7.7-6.04,15.46-12.27,22.97-18.29
			c0.89-0.74,1.65-0.79,2.71-0.17c7.72,4.57,15.92,2.95,21.4-4.26c0.76-1.01,1.54-1.25,2.79-0.9c6.26,1.83,11.35,3.28,16.02,4.57
			c1.47,0.4,1.97,1.11,1.82,2.65c-0.59,6.42,3.02,12.6,8.98,15.37c5.98,2.78,12.89,1.63,17.59-2.95c4.8-4.62,6.16-11.7,3.39-17.59
			c-0.85-1.82-0.36-2.83,0.79-3.96c7.07-7.02,15.4-15.32,23.61-23.64c1.4-1.41,2.5-1.65,4.29-0.86c3.91,1.73,8.25,1.75,12.2,0.12
			c3.99-1.65,7.05-4.79,8.62-8.82c1.54-3.96,1.42-8.27-0.34-12.15c-1.77-3.89-4.96-6.84-8.98-8.3c-0.74-0.27-1.49-0.49-2.23-0.7
			l-0.91-0.27h-4.33c-0.19,0.13-0.35,0.22-0.55,0.26c-4.84,0.79-9.07,3.92-11.34,8.36c-2.28,4.47-2.28,9.62-0.01,14.12
			c0.67,1.32,0.09,2.06-0.55,2.71c-8.3,8.27-16.58,16.54-24.84,24.84c-0.89,0.91-1.68,1.04-2.85,0.49c-6.58-3-13.23-1.77-18.27,3.32
			c-0.92,0.91-1.75,1.14-2.97,0.78l-2.36-0.69c-4.04-1.2-8.23-2.45-12.38-3.47c-2.61-0.65-5.13-1.59-4.65-5.34l-0.1-0.32
			c-1-4.3-3.61-7.88-7.35-10.09c-3.73-2.2-8.11-2.78-12.32-1.58c-4.12,1.15-7.5,3.88-9.52,7.68c-2.04,3.85-2.4,8.27-1.01,12.43
			c0.48,1.45,0.22,2.33-0.94,3.24C52.56,64.61,45.1,70.55,36.8,77.24c-1.26,1.04-2.28,1.14-3.71,0.44
			C30.88,76.59,28.53,76.05,26.19,76.05z M26.23,100.63c-2.34,0-4.54-0.91-6.2-2.56c-1.67-1.66-2.59-3.89-2.59-6.26
			c-0.01-2.39,0.92-4.64,2.59-6.31c1.65-1.65,3.85-2.56,6.19-2.56c0.01,0,0.02,0,0.03,0c2.31,0,4.51,0.91,6.17,2.56
			c1.68,1.69,2.62,3.92,2.62,6.29l0,0c0,4.88-3.94,8.85-8.79,8.85C26.25,100.63,26.24,100.63,26.23,100.63z M26.26,84.24
			c-0.01,0-0.02,0-0.03,0c-1.99,0-3.86,0.78-5.26,2.19c-1.43,1.42-2.22,3.34-2.22,5.38c0,2.02,0.79,3.92,2.21,5.34
			c1.41,1.4,3.28,2.18,5.27,2.18c0.01,0,0.02,0,0.03,0c4.12,0,7.48-3.38,7.48-7.54c-0.01-2.02-0.8-3.92-2.24-5.35
			C30.09,85.02,28.23,84.24,26.26,84.24z M124.58,76.04c-0.04,0-0.07,0-0.1,0c-4.84-0.04-8.75-4.05-8.7-8.93
			c0.02-2.38,0.97-4.61,2.68-6.29c1.66-1.6,3.8-2.48,6.07-2.48c0.05,0,0.1,0,0.15,0c4.83,0.08,8.74,4.1,8.69,8.95
			c-0.02,2.37-0.96,4.58-2.65,6.24C129.08,75.16,126.89,76.04,124.58,76.04z M116.43,67.12h0.65c-0.03,4.16,3.29,7.58,7.41,7.62
			c0.03,0,0.06,0,0.09,0c1.97,0,3.82-0.76,5.23-2.14c1.43-1.41,2.23-3.29,2.26-5.31c0.03-4.14-3.29-7.56-7.41-7.63
			c-0.04,0-0.08,0-0.13,0c-1.92,0-3.75,0.76-5.15,2.13c-1.46,1.42-2.27,3.32-2.29,5.34H116.43z M75.42,59.61c-0.03,0-0.06,0-0.08,0
			c-4.92-0.03-8.76-3.92-8.73-8.86c0.03-4.9,3.9-8.73,8.82-8.73c0.02,0,0.04,0,0.06,0c2.38,0.01,4.58,0.93,6.22,2.59
			c1.64,1.66,2.54,3.89,2.51,6.27C84.17,55.8,80.31,59.61,75.42,59.61z M75.43,43.32c-4.18,0-7.48,3.25-7.51,7.43
			c-0.02,4.21,3.24,7.53,7.43,7.56c0.02,0,0.04,0,0.06,0c4.17,0,7.45-3.25,7.49-7.43c0.01-2.04-0.74-3.93-2.14-5.35
			c-1.39-1.41-3.27-2.19-5.3-2.2C75.46,43.32,75.45,43.32,75.43,43.32z M173.75,26.88c-2.34,0-4.55-0.91-6.21-2.56
			c-1.67-1.66-2.59-3.88-2.59-6.25c-0.02-4.89,3.92-8.87,8.77-8.89c0.01,0,0.03,0,0.05,0c2.32,0,4.5,0.9,6.16,2.54
			c1.68,1.68,2.61,3.91,2.62,6.29c0.02,4.88-3.92,8.86-8.77,8.87C173.77,26.88,173.76,26.88,173.75,26.88z M173.76,10.49
			c-0.01,0-0.03,0-0.04,0c-4.13,0.01-7.48,3.42-7.47,7.58c0.01,2.01,0.79,3.91,2.22,5.31c1.42,1.41,3.29,2.19,5.28,2.19
			c0.01,0,0.02,0,0.03,0c4.12-0.01,7.47-3.41,7.47-7.57c-0.01-2.02-0.8-3.93-2.23-5.35C177.6,11.26,175.73,10.49,173.76,10.49z"/>
	</g>
</g>
</svg>
