<?xml version="1.0" encoding="utf-8"?>
<!-- Generator: Adobe Illustrator 26.0.2, SVG Export Plug-In . SVG Version: 6.00 Build 0)  -->
<svg version="1.1" id="Layer_1" xmlns="http://www.w3.org/2000/svg" xmlns:xlink="http://www.w3.org/1999/xlink" x="0px" y="0px"
	 viewBox="0 0 100 100" style="enable-background:new 0 0 100 100;" xml:space="preserve">
<style type="text/css">
	.st0{fill:#909090;}
	.st1{fill:none;stroke:#909090;stroke-width:0.75;stroke-miterlimit:10;}
	.st2{fill:#909090;stroke:#909090;stroke-width:0.2;stroke-miterlimit:10;}
	.st3{fill:#909090;stroke:#909090;stroke-width:0.25;stroke-miterlimit:10;}
	.st4{fill:none;stroke:#909090;stroke-width:0.6;stroke-miterlimit:10;}
	.st5{fill:#909090;stroke:#909090;stroke-width:0.1;stroke-miterlimit:10;}
</style>
<g>
	<g>
		<path class="st0" d="M96.69,95.23c-0.49,1.12-1.36,1.48-2.56,1.47c-29.43-0.02-58.85-0.02-88.28-0.02c-0.42,0-0.85,0.03-1.26-0.13
			c-0.84-0.33-1.36-1.13-1.28-2c0.09-0.91,0.79-1.62,1.72-1.72c0.18-0.02,0.36-0.02,0.55-0.02c1.6-0.03,1.6-0.03,1.6-1.67
			c0-6.35,0-12.71,0-19.06c0-2.01,0.61-2.62,2.61-2.62c3.47,0,6.93,0,10.4,0c1.99,0,2.59,0.62,2.59,2.64
			c0,6.57,0.01,13.13-0.02,19.7c0,0.77,0.15,1.06,0.99,1.03c1.91-0.07,3.83-0.07,5.74,0c0.86,0.03,1.05-0.24,1.05-1.07
			c-0.02-12.98-0.02-25.96-0.02-38.94c0-0.36-0.01-0.73,0.04-1.09c0.15-1.04,0.86-1.72,1.91-1.73c3.89-0.02,7.78-0.02,11.67,0
			c1.09,0.01,1.8,0.71,1.94,1.8c0.04,0.36,0.03,0.73,0.03,1.09c0,12.86,0,25.72,0,38.58c0,1.54-0.18,1.32,1.38,1.33
			c1.79,0.01,3.59-0.04,5.38,0.02c0.81,0.03,1.01-0.21,1.01-1.01c-0.03-9.03-0.02-18.06-0.02-27.08c0-1.55-0.01-3.1,0-4.65
			c0.02-1.58,0.72-2.28,2.3-2.29c3.56-0.01,7.11-0.01,10.67,0c2,0,2.62,0.61,2.62,2.6c0,10.4,0,20.79,0,31.19
			c0,1.37-0.14,1.22,1.21,1.22c1.85,0.01,3.71-0.05,5.56,0.02c0.84,0.03,0.99-0.26,0.99-1.03c-0.02-18.18-0.02-36.36-0.01-54.53
			c0-0.39-0.01-0.8,0.06-1.18c0.17-0.97,0.82-1.61,1.8-1.61c3.95-0.03,7.9-0.03,11.85,0c0.99,0.01,1.64,0.63,1.82,1.6
			c0.07,0.39,0.06,0.79,0.06,1.18c0,18.12,0,36.23,0,54.35c0,1.38-0.12,1.25,1.23,1.19c1.18-0.06,2.06,0.3,2.65,1.34
			C96.69,94.5,96.69,94.86,96.69,95.23z M88.9,65.56c0-8.78-0.01-17.56,0.01-26.34c0-0.69-0.14-0.94-0.89-0.92
			c-2,0.05-4.01,0.04-6.01,0c-0.65-0.01-0.88,0.13-0.88,0.84c0.02,17.59,0.02,35.18,0,52.77c0,0.72,0.25,0.86,0.89,0.84
			c1.94-0.04,3.89-0.05,5.83,0c0.82,0.02,1.07-0.19,1.06-1.04C88.88,83,88.9,74.28,88.9,65.56z M34.45,73.24
			c0,6.2,0.01,12.4-0.02,18.6c0,0.71,0.18,0.94,0.91,0.92c2-0.05,4.01-0.03,6.02-0.01c0.59,0.01,0.86-0.1,0.86-0.78
			c-0.02-12.43-0.02-24.86,0-37.29c0-0.62-0.17-0.84-0.81-0.83c-2,0.04-4.01,0.05-6.02-0.01c-0.78-0.02-0.95,0.24-0.95,0.98
			C34.46,60.97,34.45,67.11,34.45,73.24z M57.8,77.17c0,4.89,0.01,9.78-0.02,14.67c0,0.71,0.17,0.94,0.91,0.92
			c2.03-0.05,4.07-0.04,6.1-0.01c0.6,0.01,0.77-0.18,0.77-0.78c-0.02-9.87-0.02-19.74,0-29.61c0-0.56-0.16-0.72-0.72-0.72
			c-2.06,0.03-4.13,0.04-6.19,0c-0.67-0.01-0.87,0.16-0.87,0.85C57.81,67.39,57.8,72.28,57.8,77.17z M18.86,83
			c0-2.94-0.01-5.89,0.01-8.83c0.01-0.59-0.09-0.86-0.78-0.84c-2.09,0.04-4.19,0.04-6.28,0c-0.57-0.01-0.71,0.17-0.71,0.72
			c0.02,5.98,0.02,11.96,0,17.94c0,0.6,0.19,0.78,0.78,0.77c2.06-0.03,4.13-0.04,6.19,0c0.65,0.01,0.81-0.21,0.81-0.83
			C18.84,88.95,18.86,85.97,18.86,83z"/>
		<path class="st0" d="M94.14,97.01C71.25,97,48.37,96.99,25.48,96.99l-19.62,0l-0.19,0C5.28,96.99,4.89,97,4.49,96.85
			c-0.98-0.38-1.57-1.31-1.48-2.32c0.1-1.06,0.92-1.88,1.99-2C5.2,92.5,5.39,92.5,5.59,92.5c1.28-0.02,1.28-0.02,1.28-1.36V72.09
			c0.01-2.19,0.74-2.93,2.92-2.93c3.47-0.01,6.93-0.01,10.4,0c2.14,0,2.9,0.77,2.9,2.95v4.38c0.01,5.11,0.01,10.21-0.02,15.32
			c0,0.36,0.04,0.55,0.12,0.62c0.07,0.08,0.29,0.1,0.55,0.1c1.93-0.06,3.86-0.06,5.77,0c0.3,0.01,0.51-0.02,0.6-0.11
			c0.09-0.09,0.13-0.29,0.13-0.65c-0.02-10.82-0.02-21.64-0.02-32.45v-6.67c-0.01-0.31-0.01-0.63,0.04-0.95
			c0.18-1.23,1.03-1.99,2.23-1.99c3.86-0.02,7.8-0.02,11.67,0c1.23,0.01,2.09,0.8,2.25,2.07c0.04,0.3,0.04,0.6,0.03,0.9v0.23
			c0,12.86,0,25.72,0.01,38.58v0.44c-0.01,0.26-0.01,0.53,0.02,0.59c0.06,0.01,0.28,0,0.54-0.01c0.15-0.01,0.32,0,0.51,0
			c0.66,0,1.28-0.01,1.92,0c1.12-0.01,2.32-0.02,3.48,0.03c0.31,0.01,0.5-0.02,0.57-0.1c0.08-0.08,0.12-0.28,0.12-0.6
			c-0.02-7.03-0.02-14.05-0.02-21.07l-0.01-7.35c0-1.11,0-2.22,0.01-3.33c0.01-1.74,0.86-2.59,2.6-2.6
			c2.54-0.01,5.08-0.01,7.63-0.01l3.05,0c2.17,0,2.94,0.77,2.94,2.92v10.39c0,6.93,0,13.86,0,20.79v0.36
			c-0.01,0.24-0.01,0.5,0.02,0.56c0.03,0,0.27,0,0.52-0.01h0.36c0.61,0,1.21,0,1.82-0.01c1.22-0.01,2.5-0.02,3.75,0.03
			c0.27,0,0.47-0.02,0.55-0.1c0.08-0.08,0.12-0.27,0.12-0.62c-0.02-18.18-0.02-36.36-0.01-54.53v-0.16
			c-0.01-0.35-0.01-0.71,0.06-1.07c0.19-1.15,1-1.87,2.11-1.87c3.85-0.03,7.85-0.04,11.85,0c1.12,0.01,1.92,0.7,2.12,1.86
			c0.07,0.38,0.07,0.77,0.07,1.14v54.75c0,0.27-0.01,0.56,0.03,0.62c0.03,0,0.3-0.02,0.56-0.03l0.32-0.02
			c0.08,0,0.15-0.01,0.23-0.01c1.25,0,2.13,0.49,2.7,1.5L97,94.13l-0.02,1.22C96.33,96.84,95.04,97.01,94.14,97.01z M5.86,96.37
			h19.62c22.89,0,45.77,0,68.66,0.02c1.17,0,1.85-0.37,2.24-1.23v-0.95c-0.49-0.82-1.19-1.15-2.32-1.11l-0.31,0.02
			c-0.54,0.02-0.81,0.05-1.03-0.16c-0.21-0.2-0.21-0.49-0.21-1.06V37.16c0-0.36,0-0.71-0.05-1.03c-0.16-0.85-0.71-1.34-1.51-1.35
			c-4.01-0.03-7.99-0.03-11.85,0c-0.81,0.01-1.36,0.5-1.5,1.36c-0.05,0.31-0.05,0.63-0.05,0.97v0.16
			c-0.01,18.18-0.01,36.36,0.01,54.53c0,0.47-0.05,0.83-0.3,1.07c-0.27,0.26-0.72,0.29-1.01,0.27c-1.24-0.04-2.52-0.04-3.73-0.03
			c-0.6,0.01-1.22,0.03-1.82,0.01l-0.36,0c-0.47,0-0.77,0.01-0.97-0.19c-0.2-0.2-0.2-0.48-0.19-0.99l0.01-0.36
			c-0.01-6.93-0.01-13.86,0-20.79V60.39c0-1.82-0.48-2.29-2.32-2.3H63.8c-2.54,0-5.08-0.01-7.63,0c-1.4,0.01-1.97,0.58-1.98,1.98
			c-0.01,1.11-0.01,2.21-0.01,3.32v7.35c0,7.02-0.01,14.04,0.02,21.07c0.01,0.37-0.03,0.78-0.3,1.05c-0.27,0.26-0.65,0.29-1.03,0.27
			c-1.14-0.04-2.3-0.02-3.45-0.03c-0.63,0-1.28,0.01-1.92,0c-0.19-0.01-0.35,0-0.5,0.01c-0.49,0.01-0.78,0.02-0.99-0.19
			c-0.21-0.21-0.2-0.5-0.19-1.02l0.01-0.43c-0.01-12.86-0.01-25.72-0.01-38.58v-0.24c0.01-0.29,0.01-0.55-0.03-0.81
			c-0.12-0.97-0.71-1.53-1.63-1.53c-3.89-0.03-7.8-0.03-11.67,0c-0.87,0.01-1.47,0.55-1.61,1.46c-0.04,0.27-0.04,0.56-0.04,0.86
			v6.68c0,10.81,0,21.63,0.02,32.45c0,0.41-0.04,0.82-0.32,1.09c-0.29,0.27-0.69,0.3-1.06,0.28c-1.9-0.07-3.82-0.07-5.72,0
			c-0.31,0.03-0.74-0.01-1.01-0.27c-0.26-0.25-0.3-0.61-0.3-1.07c0.02-5.11,0.02-10.21,0.02-15.32V72.1c0-1.85-0.47-2.33-2.28-2.33
			c-3.47,0-6.93,0-10.4,0c-1.82,0-2.29,0.48-2.3,2.31v19.06c0,1.8-0.14,1.95-1.9,1.98c-0.18,0-0.35,0-0.52,0.02
			c-0.78,0.09-1.37,0.68-1.45,1.44c-0.07,0.72,0.36,1.4,1.09,1.68c0.29,0.12,0.62,0.1,0.94,0.1H5.86z M87.97,93.08
			c-0.04,0-0.09,0-0.13,0c-1.68-0.05-3.48-0.04-5.81-0.01c-0.33,0.05-0.69-0.02-0.94-0.26c-0.24-0.24-0.27-0.61-0.27-0.9
			c0.02-17.51,0.02-35.26,0-52.77c-0.01-0.29,0.02-0.66,0.27-0.9c0.23-0.24,0.58-0.29,0.92-0.25c2.23,0.05,4.2,0.05,6,0
			c0.29,0,0.68,0.01,0.93,0.26c0.25,0.24,0.28,0.61,0.27,0.98c-0.01,7.02-0.01,14.04-0.01,21.07v10.5c0,6.97-0.01,13.95,0.02,20.93
			c0,0.38-0.04,0.8-0.32,1.07C88.67,93.03,88.31,93.08,87.97,93.08z M85.05,92.41c1,0,1.92,0.01,2.81,0.04c0.04,0,0.08,0,0.11,0
			c0.27,0,0.44-0.03,0.52-0.11c0.09-0.09,0.13-0.29,0.13-0.62c-0.03-6.97-0.03-13.95-0.02-20.93v-10.5c0-7.02-0.01-14.05,0.01-21.07
			c0-0.11,0-0.44-0.09-0.53c-0.04-0.04-0.15-0.08-0.48-0.08c-1.81,0.05-3.78,0.05-6.03,0c-0.02,0-0.04,0-0.06,0
			c-0.22,0-0.36,0.02-0.41,0.08c-0.04,0.04-0.09,0.15-0.09,0.45c0.02,17.51,0.02,35.27,0,52.77c0,0.3,0.05,0.41,0.09,0.45
			c0.09,0.09,0.4,0.09,0.49,0.08C83.13,92.43,84.13,92.41,85.05,92.41z M35.26,93.07c-0.29,0-0.63-0.04-0.86-0.27
			c-0.26-0.25-0.29-0.63-0.28-0.97c0.02-5.16,0.02-10.33,0.02-15.49v-6.17c0-5.11,0-10.23-0.02-15.34
			c-0.01-0.37,0.03-0.76,0.29-1.02c0.27-0.26,0.69-0.3,0.97-0.27c2.17,0.06,4.35,0.03,6,0.01c0.3-0.02,0.63,0.02,0.86,0.25
			c0.24,0.23,0.27,0.58,0.27,0.89c-0.01,12.43-0.01,24.86,0.01,37.29c0,0.25-0.02,0.61-0.27,0.84c-0.21,0.21-0.52,0.25-0.84,0.25
			c-0.02,0-0.04,0-0.07,0c-1.78-0.02-3.87-0.04-6,0.01C35.32,93.07,35.29,93.07,35.26,93.07z M35.3,54.16
			c-0.23,0-0.38,0.03-0.45,0.1c-0.07,0.07-0.1,0.25-0.1,0.57c0.02,5.12,0.02,10.23,0.02,15.35v6.17c0,5.17,0.01,10.33-0.02,15.5
			c0,0.28,0.03,0.46,0.1,0.52c0.06,0.06,0.2,0.08,0.5,0.09c2.13-0.05,4.25-0.03,6.03-0.01c0.07,0,0.38,0.01,0.46-0.07
			c0.02-0.03,0.08-0.12,0.08-0.4c-0.02-12.43-0.02-24.86-0.01-37.29c0-0.24-0.03-0.39-0.09-0.44c-0.04-0.04-0.13-0.08-0.37-0.08
			c-0.01,0-0.03,0-0.04,0c-1.67,0.03-3.86,0.06-6.03-0.01C35.35,54.16,35.32,54.16,35.3,54.16z M58.61,93.07
			c-0.29,0-0.62-0.04-0.85-0.26c-0.26-0.25-0.29-0.63-0.29-0.97c0.02-3.8,0.02-7.6,0.02-11.41v-6.52c0-3.8,0.01-7.6-0.02-11.4
			c-0.01-0.32,0.02-0.67,0.27-0.91c0.24-0.24,0.62-0.27,0.92-0.25c1.81,0.04,3.78,0.03,6.18,0c0.02,0,0.04,0,0.05,0
			c0.25,0,0.54,0.03,0.75,0.24c0.22,0.22,0.24,0.54,0.24,0.8c-0.01,9.87-0.01,19.73,0.01,29.61c0,0.27-0.03,0.61-0.26,0.84
			c-0.23,0.22-0.56,0.24-0.83,0.25c-2.44-0.04-4.32-0.04-6.09,0C58.66,93.07,58.64,93.07,58.61,93.07z M58.58,61.96
			c-0.22,0-0.35,0.02-0.4,0.08c-0.04,0.04-0.09,0.15-0.09,0.46c0.02,3.8,0.02,7.61,0.02,11.41v6.52c0.01,3.8,0.01,7.61-0.02,11.41
			c0,0.28,0.04,0.46,0.1,0.52c0.06,0.06,0.25,0.09,0.49,0.09c1.77-0.05,3.66-0.05,6.12,0c0.01,0,0.02,0,0.03,0
			c0.24,0,0.32-0.04,0.35-0.07c0.04-0.03,0.08-0.13,0.08-0.4c-0.02-9.87-0.02-19.74-0.01-29.61c0-0.26-0.04-0.33-0.05-0.35
			c-0.02-0.02-0.13-0.08-0.35-0.05c-2.42,0.03-4.39,0.04-6.2,0C58.62,61.96,58.59,61.96,58.58,61.96z M18.12,93.07
			c-0.02,0-0.04,0-0.06,0c-1.87-0.04-3.89-0.04-6.18,0c-0.26,0.01-0.61-0.02-0.84-0.25c-0.22-0.23-0.26-0.56-0.26-0.83
			c0.02-6.13,0.02-12.25,0.01-17.94c-0.01-0.27,0.02-0.58,0.24-0.8c0.22-0.22,0.54-0.21,0.79-0.23c1.72,0.02,3.99,0.05,6.27,0
			c0.02,0,0.04,0,0.06,0c0.24,0,0.57,0.04,0.78,0.25c0.24,0.24,0.26,0.59,0.26,0.91c-0.02,2.21-0.01,4.41-0.01,6.62v4.44
			c0,2.23-0.01,4.46,0.01,6.69c0.01,0.31-0.02,0.66-0.26,0.9C18.7,93.04,18.38,93.07,18.12,93.07z M15.04,92.42
			c1.06,0,2.07,0.01,3.03,0.03c0.01,0,0.03,0,0.04,0c0.25,0,0.33-0.05,0.36-0.07c0.05-0.05,0.08-0.21,0.08-0.45
			c-0.02-2.23-0.02-4.46-0.01-6.7v-4.44c-0.01-2.21-0.01-4.42,0.01-6.63c0-0.1,0-0.39-0.07-0.46c-0.01-0.02-0.13-0.05-0.39-0.07
			c-2.3,0.06-4.56,0.03-6.29,0c-0.01,0-0.02,0-0.03,0c-0.23,0-0.29,0.04-0.31,0.05c-0.02,0.02-0.05,0.09-0.05,0.35
			c0.01,5.7,0.02,11.81-0.01,17.94c0,0.27,0.05,0.36,0.08,0.39c0.03,0.03,0.12,0.07,0.36,0.07c0.01,0,0.02,0,0.02,0
			C12.98,92.43,14.03,92.42,15.04,92.42z"/>
	</g>
	<g>
		<path class="st0" d="M86.11,3.3c0.52,0.16,1.05,0.29,1.55,0.48c4.11,1.49,6.18,6.06,4.61,10.12c-1.59,4.09-6.27,6.08-10.31,4.3
			c-0.76-0.33-1.14-0.21-1.69,0.34c-3.71,3.77-7.46,7.5-11.21,11.22c-0.49,0.48-0.64,0.82-0.31,1.53c1.38,2.94,0.66,6.46-1.67,8.72
			c-2.33,2.25-5.74,2.82-8.7,1.45c-2.92-1.35-4.73-4.41-4.44-7.61c0.05-0.58-0.1-0.78-0.64-0.93c-2.55-0.7-5.08-1.43-7.62-2.17
			c-0.44-0.13-0.69-0.07-0.98,0.32c-2.7,3.54-6.76,4.35-10.57,2.1c-0.38-0.23-0.61-0.21-0.93,0.05c-3.63,2.91-7.25,5.81-10.91,8.68
			c-0.52,0.41-0.33,0.73-0.15,1.16c1.7,4.08-0.27,8.72-4.36,10.29c-4.11,1.57-8.68-0.56-10.13-4.73c-1.03-2.96-0.19-6.18,2.16-8.31
			c2.34-2.11,5.7-2.62,8.57-1.2c0.6,0.3,0.94,0.22,1.43-0.17c3.59-2.9,7.2-5.78,10.83-8.64c0.47-0.37,0.52-0.66,0.34-1.2
			c-1.42-4.23,0.97-8.76,5.21-9.95c4.32-1.21,8.71,1.39,9.73,5.77c0.02,0.09,0.06,0.18,0.05,0.27c-0.19,1.51,0.74,1.89,1.98,2.19
			c2.35,0.58,4.68,1.3,7.01,1.98c0.46,0.14,0.75,0.07,1.1-0.29c2.5-2.53,5.77-3.12,9.03-1.64c0.44,0.2,0.67,0.16,1-0.17
			c3.92-3.94,7.86-7.87,11.79-11.8c0.28-0.28,0.42-0.5,0.21-0.93c-2.42-4.81,0.68-10.32,5.61-11.13c0.08-0.01,0.16-0.08,0.24-0.13
			C84.65,3.3,85.38,3.3,86.11,3.3z M88.89,11.07c-0.01-2.15-1.74-3.89-3.88-3.88c-2.14,0.01-3.86,1.75-3.86,3.91
			c0,2.15,1.74,3.88,3.88,3.88C87.17,14.96,88.89,13.22,88.89,11.07z M57.8,34.38c-0.02,2.16,1.68,3.91,3.82,3.93
			c2.14,0.02,3.89-1.7,3.91-3.84c0.02-2.15-1.68-3.91-3.82-3.94C59.6,30.5,57.82,32.24,57.8,34.38z M18.85,46.09
			c0-2.14-1.75-3.9-3.88-3.89c-2.14,0-3.86,1.75-3.86,3.9c0,2.15,1.73,3.89,3.87,3.88C17.13,49.99,18.85,48.25,18.85,46.09z
			 M38.36,22.78c-2.18-0.01-3.89,1.67-3.9,3.83c-0.01,2.17,1.67,3.89,3.84,3.9c2.17,0.01,3.88-1.67,3.9-3.84
			C42.21,24.51,40.52,22.79,38.36,22.78z"/>
		<path class="st0" d="M14.98,54.19c-1.16,0-2.32-0.25-3.4-0.76c-2.01-0.93-3.51-2.61-4.24-4.7c-1.08-3.1-0.22-6.42,2.24-8.65
			c2.46-2.23,5.97-2.7,8.92-1.24c0.46,0.24,0.68,0.2,1.09-0.13c4-3.22,7.54-6.05,10.83-8.63c0.36-0.28,0.4-0.41,0.24-0.85
			c-0.71-2.14-0.53-4.41,0.52-6.39c1.03-1.95,2.78-3.36,4.9-3.96c2.16-0.6,4.42-0.32,6.34,0.81c1.92,1.14,3.26,2.98,3.78,5.18
			c0.04,0.14,0.08,0.25,0.06,0.38c-0.15,1.17,0.41,1.52,1.74,1.85c1.98,0.49,3.98,1.08,5.9,1.65l1.12,0.33
			c0.36,0.1,0.52,0.06,0.79-0.21c2.6-2.62,6.03-3.23,9.38-1.7c0.32,0.14,0.4,0.14,0.65-0.11c3.92-3.94,7.86-7.87,11.8-11.8
			c0.26-0.25,0.27-0.32,0.15-0.56c-1.17-2.33-1.16-4.98,0.01-7.28c1.17-2.29,3.34-3.89,5.83-4.3c0.07-0.05,0.1-0.07,0.14-0.09
			l0.15-0.04L86.21,3c0.16,0.05,0.33,0.1,0.5,0.15c0.36,0.1,0.72,0.21,1.07,0.34c2.07,0.75,3.7,2.27,4.62,4.27
			c0.91,2,0.97,4.22,0.18,6.25c-0.81,2.08-2.39,3.69-4.44,4.54c-2.04,0.85-4.27,0.82-6.28-0.06c-0.61-0.27-0.86-0.22-1.34,0.28
			c-3.23,3.28-6.69,6.74-11.22,11.23c-0.43,0.43-0.51,0.62-0.25,1.17c1.43,3.04,0.73,6.69-1.74,9.08c-2.42,2.34-5.95,2.94-9.05,1.5
			c-3.06-1.42-4.93-4.6-4.62-7.91c0.04-0.43-0.01-0.5-0.41-0.61c-2.2-0.6-4.55-1.27-7.62-2.17c-0.33-0.09-0.45-0.06-0.64,0.21
			c-2.81,3.69-7.02,4.52-10.98,2.18c-0.29-0.16-0.36-0.14-0.58,0.03c-3.29,2.64-7.12,5.71-10.91,8.69c-0.3,0.23-0.26,0.32-0.1,0.7
			l0.04,0.09c0.86,2.06,0.85,4.32-0.02,6.35c-0.86,2.02-2.47,3.56-4.52,4.35C16.94,54.01,15.96,54.19,14.98,54.19z M14.95,38.63
			c-1.79,0-3.55,0.65-4.95,1.92c-2.27,2.06-3.07,5.12-2.07,7.98c0.67,1.94,2.07,3.48,3.92,4.34s3.92,0.94,5.81,0.2
			c1.89-0.72,3.37-2.15,4.17-4.01c0.8-1.88,0.81-3.96,0.02-5.87l-0.04-0.08c-0.16-0.38-0.4-0.91,0.28-1.44
			c3.79-2.97,7.62-6.04,10.91-8.68c0.45-0.35,0.81-0.36,1.29-0.08c3.66,2.16,7.56,1.38,10.16-2.02c0.36-0.48,0.75-0.6,1.32-0.43
			c3.06,0.9,5.41,1.57,7.61,2.16c0.71,0.19,0.94,0.54,0.87,1.26c-0.28,3.05,1.44,5.98,4.26,7.29c2.86,1.32,6.12,0.78,8.35-1.39
			c2.28-2.2,2.93-5.56,1.62-8.36c-0.41-0.86-0.17-1.34,0.37-1.88c4.52-4.48,7.98-7.94,11.21-11.22c0.66-0.66,1.19-0.77,2.04-0.41
			c1.84,0.82,3.91,0.84,5.79,0.06c1.9-0.78,3.36-2.27,4.1-4.19c0.73-1.88,0.67-3.93-0.16-5.77c-0.84-1.85-2.35-3.25-4.26-3.94
			c-0.34-0.12-0.69-0.22-1.03-0.32c-0.15-0.05-0.3-0.09-0.46-0.14h-2.05c-0.1,0.06-0.18,0.11-0.29,0.12
			c-2.28,0.37-4.29,1.86-5.36,3.97c-1.08,2.13-1.08,4.57-0.01,6.71c0.32,0.63,0.03,0.99-0.27,1.29c-3.94,3.92-7.87,7.85-11.8,11.8
			c-0.41,0.42-0.77,0.5-1.34,0.23c-3.13-1.42-6.28-0.85-8.68,1.57c-0.43,0.43-0.81,0.54-1.41,0.37l-1.12-0.33
			c-1.92-0.57-3.9-1.16-5.87-1.65c-1.25-0.3-2.44-0.75-2.21-2.53c-0.03-0.08-0.04-0.12-0.05-0.16c-0.47-2.03-1.71-3.73-3.49-4.78
			c-1.77-1.05-3.86-1.32-5.85-0.75c-1.96,0.55-3.57,1.85-4.52,3.65c-0.97,1.83-1.14,3.93-0.47,5.9c0.23,0.69,0.11,1.11-0.45,1.54
			c-3.29,2.59-6.83,5.41-10.83,8.63c-0.61,0.49-1.09,0.54-1.76,0.21C17.18,38.88,16.06,38.63,14.95,38.63z M14.98,50.3
			c-2.3,0-4.18-1.88-4.18-4.2c0-2.32,1.87-4.21,4.17-4.21c0.01,0,0.01,0,0.01,0c1.1,0,2.15,0.43,2.94,1.22
			c0.8,0.8,1.24,1.85,1.24,2.98C19.16,48.41,17.29,50.3,14.98,50.3z M14.98,42.51c-0.01,0-0.01,0-0.01,0
			c-1.96,0-3.55,1.61-3.55,3.59c0.01,1.97,1.61,3.58,3.56,3.58c1.96,0,3.56-1.61,3.56-3.58c0-0.96-0.38-1.86-1.06-2.54
			C16.81,42.89,15.92,42.51,14.98,42.51z M61.67,38.63c-0.02,0-0.03,0-0.05,0c-2.3-0.02-4.15-1.92-4.13-4.24
			c0.01-1.12,0.46-2.18,1.28-2.98c0.8-0.78,1.85-1.2,2.95-1.19c2.3,0.04,4.15,1.95,4.13,4.26c-0.01,1.12-0.46,2.17-1.25,2.96
			C63.81,38.2,62.77,38.63,61.67,38.63z M57.8,34.38l0.31,0c-0.02,1.97,1.56,3.6,3.52,3.62c0.01,0,0.02,0,0.04,0
			c0.94,0,1.82-0.36,2.49-1.02c0.67-0.67,1.05-1.56,1.06-2.52c0.02-1.97-1.56-3.6-3.52-3.63c-0.02,0-0.04,0-0.05,0
			c-0.91,0-1.78,0.36-2.45,1.01c-0.69,0.67-1.08,1.57-1.09,2.54L57.8,34.38z M38.32,30.82c-0.01,0-0.02,0-0.02,0
			c-1.13-0.01-2.18-0.44-2.96-1.23c-0.78-0.79-1.2-1.85-1.19-2.99c0.01-2.33,1.85-4.14,4.18-4.14c0.01,0,0.02,0,0.02,0l0,0
			c1.13,0.01,2.18,0.44,2.96,1.23c0.77,0.79,1.2,1.85,1.19,2.98C42.49,29.01,40.65,30.82,38.32,30.82z M38.33,23.09
			c-1.99,0-3.55,1.54-3.56,3.53c-0.01,0.97,0.35,1.87,1.02,2.54c0.66,0.67,1.55,1.04,2.51,1.05c0.01,0,0.02,0,0.02,0
			c1.98,0,3.55-1.55,3.56-3.53c0.01-0.97-0.35-1.87-1.01-2.54c-0.66-0.67-1.56-1.04-2.52-1.05C38.35,23.09,38.34,23.09,38.33,23.09z
			 M85.01,15.28c-1.11,0-2.15-0.43-2.94-1.21c-0.8-0.79-1.24-1.85-1.24-2.98c0-2.32,1.87-4.21,4.17-4.22c0.01,0,0.01,0,0.02,0
			c1.1,0,2.14,0.43,2.93,1.21c0.8,0.79,1.24,1.85,1.24,2.98c0.01,2.32-1.86,4.2-4.17,4.21C85.03,15.28,85.02,15.28,85.01,15.28z
			 M85.03,7.5c-0.01,0-0.01,0-0.02,0c-1.96,0.01-3.55,1.62-3.55,3.6c0.01,0.96,0.38,1.86,1.06,2.53c0.67,0.67,1.56,1.03,2.5,1.03
			c0.01,0,0.01,0,0.02,0c1.96-0.01,3.55-1.62,3.55-3.59c-0.01-0.96-0.38-1.87-1.06-2.54C86.85,7.86,85.96,7.5,85.03,7.5z"/>
	</g>
</g>
</svg>
