<?xml version="1.0" encoding="utf-8"?>
<!-- Generator: Adobe Illustrator 26.0.2, SVG Export Plug-In . SVG Version: 6.00 Build 0)  -->
<svg version="1.1" id="Layer_1" xmlns="http://www.w3.org/2000/svg" xmlns:xlink="http://www.w3.org/1999/xlink" x="0px" y="0px"
	 viewBox="0 0 200 200" style="enable-background:new 0 0 200 200;" xml:space="preserve">
<style type="text/css">
	.st0{fill:#FFFFFF;}
</style>
<g>
	<g>
		<path class="st0" d="M40.77,161.94c-4.8,0-8.69-3.3-9.34-7.85c-0.11-0.75-0.12-1.5-0.04-2.24l-0.03-14.79l0.01-5.36H21.13
			c-6.34,0.06-12.46-2.77-16.29-7.98c-2.54-3.42-3.9-7.66-3.82-11.93c-0.03-26.69-0.03-53.47,0-80.24
			c-0.14-5.08,1.76-10.03,5.34-13.8c3.58-3.78,8.42-5.93,13.62-6.07c0.56-0.01,1.16,0,1.74,0.03l104.17-0.01l6.13,0.01
			c10.32-0.23,19.64,8.14,19.98,18.91l0.01,0.17l-0.02,1.23l0.02,14.54L152,111.32c0.56,7.61-3.93,15.11-11.18,18.35
			c-2.99,1.31-6.14,1.97-9.38,1.97c-18.26,0.13-36.57,0.09-54.86,0.04c-1.03,0.02-2.02,0.35-2.67,1.05
			c-8.61,8.71-17.18,17.27-25.8,25.78c-1.54,1.58-3.55,2.74-5.75,3.32C41.82,161.9,41.29,161.94,40.77,161.94z M39.93,127.42
			L39.93,127.42l0.31,26.09c0.68-0.19,1.29-0.55,1.78-1.05c8.65-8.54,17.19-17.08,25.69-25.66c2.25-2.42,5.66-3.6,9.01-3.7
			c18.13,0.06,36.42,0.09,54.67-0.04c2.08,0,4.08-0.41,5.95-1.23c3.94-1.76,6.4-5.86,6.08-10.19l-0.01-57.7l0.01-7.38l-0.01-14.71
			c-0.08-3.87-1.31-6.58-3.45-8.58c-2.14-2.01-4.89-3.13-7.85-2.96l-6.21-0.01L21.44,20.3l-1.23-0.02
			c-2.91,0.07-5.61,1.28-7.62,3.39c-2,2.11-3.06,4.88-2.98,7.79c-0.03,26.88-0.03,53.66,0,80.43c-0.05,2.47,0.71,4.83,2.14,6.75
			c2.17,2.95,5.79,4.69,9.24,4.5h18.95V127.42z"/>
	</g>
	<g>
		<path class="st0" d="M189.75,174.67c0-0.83,0-1.34,0-1.85c0-22.61,0-45.22,0-67.83c0-6.27-3.41-9.68-9.69-9.69
			c-3.59,0-7.18,0.01-10.77,0c-2.97-0.01-5.07-1.93-5.07-4.61c0-2.68,2.09-4.65,5.07-4.6c4.92,0.08,9.86-0.43,14.74,0.28
			c8.44,1.23,14.85,8.64,14.92,17.19c0.07,9.13,0.02,18.25,0.02,27.38c0,17.43,0,34.86,0,52.3c0,3.33-2.27,5.42-5.35,5.02
			c-1.01-0.13-1.8-0.68-2.6-1.25c-8.01-5.72-16.04-11.4-24.02-17.16c-2.68-1.94-5.6-2.83-8.9-2.83c-18,0.03-35.99,0.02-53.99,0.01
			c-11.04,0-18.65-7.6-18.67-18.63c0-1.13-0.03-2.26,0.01-3.38c0.1-2.55,2.06-4.47,4.53-4.5c2.48-0.03,4.52,1.84,4.66,4.37
			c0.08,1.33,0.02,2.67,0.02,4c0.04,5.27,3.63,8.91,8.89,8.91c17.94,0.02,35.89,0.06,53.83-0.02c5.75-0.03,10.86,1.48,15.49,4.93
			c5.06,3.76,10.24,7.35,15.38,11C188.69,174,189.11,174.26,189.75,174.67z"/>
	</g>
	<g>
		<g>
			<path class="st0" d="M76.15,67.13c-8.86,0-17.72,0.03-26.58-0.01c-3.74-0.02-5.96-3.56-4.28-6.71c0.94-1.76,2.5-2.5,4.43-2.5
				c3.48-0.01,6.97,0,10.45,0c13.93,0,27.86,0,41.8,0c2.96,0,4.99,1.61,5.25,4.1c0.3,2.85-1.76,5.09-4.79,5.11
				c-5.43,0.04-10.86,0.01-16.29,0.01C82.81,67.13,79.48,67.13,76.15,67.13z"/>
		</g>
		<g>
			<path class="st0" d="M75.85,88.66c-8.76,0-17.52,0.03-26.28-0.01c-3.74-0.02-5.97-3.54-4.29-6.7c0.94-1.76,2.49-2.5,4.43-2.51
				c2.97-0.01,5.94,0,8.91,0c14.44,0,28.89,0,43.33,0c2.96,0,4.99,1.6,5.26,4.09c0.31,2.84-1.75,5.1-4.78,5.12
				c-5.12,0.04-10.24,0.01-15.37,0.01C83.33,88.66,79.59,88.66,75.85,88.66z"/>
		</g>
	</g>
</g>
</svg>
