<?xml version="1.0" encoding="utf-8"?>
<!-- Generator: Adobe Illustrator 26.0.2, SVG Export Plug-In . SVG Version: 6.00 Build 0)  -->
<svg version="1.1" id="Layer_1" xmlns="http://www.w3.org/2000/svg" xmlns:xlink="http://www.w3.org/1999/xlink" x="0px" y="0px"
	 viewBox="0 0 100 100" style="enable-background:new 0 0 100 100;" xml:space="preserve">
<style type="text/css">
	.st0{fill:#909090;}
	.st1{fill:#FFFFFF;}
	.st2{fill:none;stroke:#909090;stroke-width:0.75;stroke-miterlimit:10;}
	.st3{fill:#909090;stroke:#909090;stroke-width:0.2;stroke-miterlimit:10;}
	.st4{fill:#909090;stroke:#909090;stroke-width:0.25;stroke-miterlimit:10;}
	.st5{fill:none;stroke:#909090;stroke-width:0.6;stroke-miterlimit:10;}
	.st6{fill:#909090;stroke:#909090;stroke-width:0.1;stroke-miterlimit:10;}
</style>
<g>
	<g>
		<path class="st1" d="M20.58,80.67c-1.06,0-1.97-0.32-2.74-0.9c-0.98-0.74-1.61-1.8-1.77-3.01C16.01,76.38,16,76,16.04,75.64
			l-0.02-7.29l0.01-2.65h-5.07c-3.05,0.07-6.16-1.37-8.06-3.95c-1.25-1.68-1.92-3.78-1.89-5.89C1,42.63,1,29.38,1.01,16.13
			C0.88,10.87,5.08,6.44,10.4,6.3c0.28-0.01,0.57-0.01,0.86,0.01l51.56-0.01l3.04,0c2.5-0.05,4.96,0.85,6.84,2.62
			c1.89,1.77,2.97,4.16,3.05,6.75l-0.01,0.72c0.02,2.29,0.02,4.73,0.01,7.17L75.74,55.6c0.28,3.77-1.94,7.48-5.53,9.08
			c-1.49,0.65-3.04,0.98-4.63,0.98c-0.01,0-0.02,0-0.03,0c-9.04,0.07-18.1,0.05-27.15,0.02c-0.46,0.03-1.01,0.18-1.33,0.53
			c-4.26,4.31-8.5,8.54-12.77,12.76c-0.76,0.78-1.75,1.36-2.85,1.64C21.16,80.65,20.87,80.67,20.58,80.67z M20.27,63.57L20.27,63.57
			l0.12,12.81c0.32-0.02,0.66-0.15,0.91-0.41c4.29-4.24,8.52-8.46,12.72-12.71c1.12-1.2,2.8-1.82,4.47-1.83
			c8.97,0.02,18.02,0.04,27.06-0.02c0.01,0,0.01,0,0.02,0c1.02,0,2-0.21,2.93-0.61c1.95-0.87,3.16-2.9,3.01-5.04L71.49,27.2
			l0.01-3.65c0.01-2.43,0.01-4.85-0.01-7.28c-0.04-1.92-0.65-3.26-1.7-4.25c-1.06-0.99-2.32-1.52-3.89-1.47l-3.07,0l-51.7,0
			l-0.67-2.13l0.06,2.12c-2.97,0.08-5.33,2.56-5.25,5.53c-0.01,13.3-0.01,26.55,0,39.81c-0.02,1.22,0.36,2.39,1.06,3.34
			c1.07,1.46,2.76,2.37,4.57,2.23h9.38V63.57z"/>
	</g>
	<g>
		<path class="st1" d="M94.42,86.96c0-0.41,0-0.66,0-0.91c0-11.19,0-22.38,0-33.57c0-3.1-1.69-4.79-4.8-4.79c-1.78,0-3.55,0-5.33,0
			c-1.47-0.01-2.51-0.96-2.51-2.28c0-1.33,1.03-2.3,2.51-2.27c2.43,0.04,4.88-0.21,7.3,0.14c4.18,0.61,7.35,4.28,7.38,8.51
			c0.03,4.52,0.01,9.03,0.01,13.55c0,8.63,0,17.26,0,25.88c0,1.65-1.13,2.68-2.65,2.48c-0.5-0.07-0.89-0.34-1.29-0.62
			c-3.96-2.83-7.94-5.64-11.89-8.49c-1.33-0.96-2.77-1.4-4.41-1.4c-8.91,0.02-17.81,0.01-26.72,0.01c-5.46,0-9.23-3.76-9.24-9.22
			c0-0.56-0.02-1.12,0.01-1.67c0.05-1.26,1.02-2.21,2.24-2.23c1.23-0.01,2.23,0.91,2.31,2.16c0.04,0.66,0.01,1.32,0.01,1.98
			c0.02,2.61,1.8,4.41,4.4,4.41c8.88,0.01,17.76,0.03,26.64-0.01c2.85-0.01,5.38,0.73,7.67,2.44c2.5,1.86,5.07,3.64,7.61,5.45
			C93.9,86.63,94.11,86.75,94.42,86.96z"/>
	</g>
	<g>
		<g>
			<path class="st1" d="M38.2,33.73c-4.39,0-8.77,0.01-13.16-0.01c-1.85-0.01-2.95-1.76-2.12-3.32c0.47-0.87,1.24-1.24,2.2-1.24
				c1.72-0.01,3.45,0,5.17,0c6.9,0,13.79,0,20.69,0c1.46,0,2.47,0.8,2.6,2.03c0.15,1.41-0.87,2.52-2.37,2.53
				c-2.69,0.02-5.37,0.01-8.06,0.01C41.49,33.73,39.85,33.73,38.2,33.73z"/>
		</g>
		<g>
			<path class="st1" d="M38.05,44.39c-4.34,0-8.67,0.01-13.01-0.01c-1.85-0.01-2.95-1.75-2.12-3.32c0.46-0.87,1.23-1.24,2.19-1.24
				c1.47-0.01,2.94,0,4.41,0c7.15,0,14.3,0,21.45,0c1.47,0,2.47,0.79,2.6,2.02c0.15,1.41-0.87,2.52-2.37,2.54
				c-2.54,0.02-5.07,0.01-7.61,0.01C41.75,44.39,39.9,44.39,38.05,44.39z"/>
		</g>
	</g>
</g>
</svg>
