<?xml version="1.0" encoding="utf-8"?>
<!-- Generator: Adobe Illustrator 26.0.2, SVG Export Plug-In . SVG Version: 6.00 Build 0)  -->
<svg version="1.1" id="Layer_1" xmlns="http://www.w3.org/2000/svg" xmlns:xlink="http://www.w3.org/1999/xlink" x="0px" y="0px"
	 viewBox="0 0 100 100" style="enable-background:new 0 0 100 100;" xml:space="preserve">
<style type="text/css">
	.st0{fill:#909090;}
	.st1{fill:#FFFFFF;}
	.st2{fill:none;stroke:#909090;stroke-width:0.75;stroke-miterlimit:10;}
	.st3{fill:#909090;stroke:#909090;stroke-width:0.2;stroke-miterlimit:10;}
	.st4{fill:#909090;stroke:#909090;stroke-width:0.25;stroke-miterlimit:10;}
	.st5{fill:none;stroke:#909090;stroke-width:0.6;stroke-miterlimit:10;}
	.st6{fill:#909090;stroke:#909090;stroke-width:0.1;stroke-miterlimit:10;}
</style>
<g>
	<g id="Path_1403_00000121977106340724730320000007448394632627735974_">
		<path class="st1" d="M76.7,65.51c-3.31,0-6.63-0.01-9.95-0.02c-3.18,0.12-6.47-1.06-8.98-3.38c-2.63-2.43-4.16-5.78-4.3-9.43
			v-0.95c-0.02-4.16-0.01-8.4-0.01-12.63l0.01-6.34l-0.01-6.3l0.01-12.65c-0.22-6.4,4.08-12.08,10.23-13.42
			c0.91-0.21,1.89-0.32,2.85-0.32l2.24-0.01c6.02-0.02,12.04-0.04,18.05,0.01c0.1,0,0.21,0,0.31,0c6,0,11.24,4.42,12.45,10.62
			c0.2,0.97,0.31,2.02,0.31,3.1c0.01,12.66,0.01,25.32,0,37.99C100.15,58,96,63.65,90.04,65.1c-1.12,0.27-2.27,0.42-3.41,0.39
			C83.33,65.51,80.02,65.51,76.7,65.51z M66.66,60.27c6.75,0.02,13.37,0.02,19.98,0c0.99-0.01,1.47-0.08,2.17-0.25
			c3.55-0.86,6.02-4.29,5.88-8.15c0.01-12.76,0.01-25.42,0-38.08c0-0.72-0.07-1.42-0.2-2.07c-0.74-3.83-4.06-6.76-7.59-6.42
			c-6.09-0.05-12.09-0.03-18.08-0.01L66.57,5.3c-0.58,0-1.16,0.06-1.72,0.2c-3.7,0.8-6.28,4.26-6.14,8.23L58.7,26.45l0.01,6.32H58.7
			l-0.01,6.34c-0.01,4.22-0.01,8.45,0.01,12.68l-2.61,0.8l2.61-0.1c0.08,2.25,1.01,4.31,2.62,5.79
			C62.8,59.64,64.51,60.36,66.66,60.27z"/>
	</g>
	<g id="Path_1404_00000061452089848242550220000006639876530090590881_">
		<path class="st1" d="M24.13,99.95c-3.46,0-6.94-0.01-10.41-0.03c-0.12,0-0.25,0-0.36,0c-7.13,0-13.08-5.25-13.29-11.85l0.01-17.65
			h5.23v16.8l-2.62,0.77l2.61-0.08c0.12,3.78,3.74,6.79,8.13,6.79c0.07,0,0.16,0,0.24,0c7.04,0.05,14.02,0.04,21,0
			c2.96-0.07,5.16-1.01,6.64-2.59c1.2-1.29,1.83-2.9,1.77-4.54c0.05-11.44,0.05-22.79,0-34.13c-0.18-4.4-3.88-7.33-8.42-7.21
			c-7.01-0.02-13.92-0.02-20.84,0c-0.9,0.02-1.6,0.07-2.39,0.23c-3.68,0.77-6.28,3.7-6.14,6.96L5.3,64.79l0.01,5.64H0.08l-0.01-5.63
			l0.01-11.28c-0.23-5.71,4.1-10.88,10.32-12.17c1.16-0.23,2.32-0.35,3.44-0.33c6.9-0.02,13.82-0.02,20.74,0
			c7.27-0.27,13.42,4.93,13.73,11.61c0.01,0.28,0.01,0.58,0.01,0.89c0.05,11.26,0.05,22.62,0,33.97c0.11,2.94-1.02,5.88-3.19,8.19
			c-2.42,2.59-5.96,4.13-9.69,4.24h-0.83C31.14,99.94,27.64,99.95,24.13,99.95z"/>
	</g>
	<g id="Path_1405_00000034051462122626720910000015423934804467118005_">
		<path class="st1" d="M24.21,35.47c-3.56,0-7.12-0.02-10.69-0.07C6.44,35.65,0.4,29.88,0.15,22.7c-0.2-3.27-0.2-6.66,0.01-10.01
			C0.45,5.48,6.68-0.32,13.87,0.08c2.21-0.02,4.55-0.02,6.88-0.01l3.48,0.01V0.07l3.48-0.01c2.33-0.01,4.67-0.01,7.01,0.01
			c7.15-0.21,13.28,5.49,13.53,12.76c0.2,3.24,0.2,6.6-0.01,9.91c-0.2,7-6.07,12.67-13.13,12.67c-0.1,0-0.18,0-0.28,0
			C31.32,35.44,27.77,35.47,24.21,35.47z M13.49,30.17c7.21,0.1,14.29,0.1,21.38,0c0.06,0,0.12,0,0.17,0c4.34,0,7.87-3.41,8-7.68
			c0.2-3.18,0.2-6.32,0.01-9.42c-0.15-4.38-3.7-7.79-7.98-7.79c-0.09,0-0.18,0-0.26,0.01c-2.44-0.02-4.75-0.01-7.06-0.01l-3.5,0.01
			l-3.5-0.01c-2.31-0.01-4.64-0.01-6.95,0.01c-0.1,0-0.21-0.01-0.32-0.01c-4.37,0-7.92,3.38-8.09,7.66c-0.2,3.19-0.2,6.36-0.01,9.49
			C5.52,26.85,9.14,30.31,13.49,30.17z"/>
	</g>
	<g id="Path_1406_00000067918044229656638660000000222969737190763415_">
		<path class="st1" d="M86.63,99.94c-0.14,0-0.27,0-0.42,0l-20.85-0.01c-7.01,0.1-13.34-4.44-13.63-10.36
			c-0.16-2.54-0.16-5.07,0.01-7.58c0.13-5.79,6.17-10.37,13.41-10.41c7.11-0.06,14.24-0.06,21.36,0c0.1,0,0.2,0,0.29,0
			c7.08,0,12.82,4.5,13.06,10.34c0.19,2.5,0.19,5.14-0.01,7.73C99.6,95.35,93.71,99.94,86.63,99.94z M75.75,94.71l3.49,0l6.96,0
			c0.1,0,0.2,0,0.3,0c4.38,0,8-2.42,8.13-5.38c0.19-2.41,0.19-4.77,0.01-7.1c-0.12-3.05-3.78-5.48-8.11-5.42
			c-7.17-0.07-14.26-0.07-21.38,0c-0.05,0-0.1,0-0.16,0c-4.34,0-7.97,2.46-8.04,5.42c-0.16,2.39-0.16,4.69-0.01,6.95
			c0.15,3.18,3.84,5.63,8.35,5.52l6.98,0H75.75L75.75,94.71z"/>
	</g>
</g>
</svg>
