<?xml version="1.0" encoding="utf-8"?>
<!-- Generator: Adobe Illustrator 26.0.2, SVG Export Plug-In . SVG Version: 6.00 Build 0)  -->
<svg version="1.1" id="Layer_1" xmlns="http://www.w3.org/2000/svg" xmlns:xlink="http://www.w3.org/1999/xlink" x="0px" y="0px"
	 viewBox="0 0 100 100" style="enable-background:new 0 0 100 100;" xml:space="preserve">
<style type="text/css">
	.st0{fill:#909090;}
	.st1{fill:none;stroke:#909090;stroke-width:0.75;stroke-miterlimit:10;}
	.st2{fill:#909090;stroke:#909090;stroke-width:0.2;stroke-miterlimit:10;}
	.st3{fill:#909090;stroke:#909090;stroke-width:0.25;stroke-miterlimit:10;}
	.st4{fill:none;stroke:#909090;stroke-width:0.6;stroke-miterlimit:10;}
	.st5{fill:#909090;stroke:#909090;stroke-width:0.1;stroke-miterlimit:10;}
</style>
<g>
	<g id="Path_1403_00000121977106340724730320000007448394632627735974_">
		<path class="st0" d="M75.12,64.6c-3.12,0-6.24-0.01-9.36-0.02c-2.99,0.11-6.08-1-8.45-3.18c-2.48-2.29-3.91-5.44-4.05-8.88v-0.9
			c-0.02-3.91-0.01-7.9-0.01-11.89l0.01-5.97l-0.01-5.93l0.01-11.9c-0.2-6.02,3.84-11.37,9.62-12.62c0.86-0.2,1.77-0.3,2.68-0.3
			l2.11-0.01C73.36,3,79.02,2.98,84.67,3.03c0.1,0,0.2,0,0.29,0c5.65,0,10.58,4.16,11.71,9.99c0.19,0.92,0.29,1.91,0.29,2.91
			c0.01,11.91,0.01,23.83,0,35.74c0.22,5.86-3.69,11.18-9.29,12.54c-1.06,0.26-2.14,0.39-3.21,0.37
			C81.36,64.59,78.24,64.6,75.12,64.6z M65.67,59.66c6.35,0.02,12.58,0.02,18.8,0c0.93-0.01,1.38-0.07,2.04-0.23
			c3.34-0.81,5.67-4.04,5.53-7.67c0.01-12,0.01-23.92,0-35.83c0-0.68-0.06-1.33-0.19-1.95c-0.7-3.6-3.82-6.36-7.14-6.04
			C78.99,7.9,73.34,7.92,67.7,7.94l-2.11,0.01c-0.54,0-1.09,0.06-1.62,0.19c-3.48,0.76-5.9,4.01-5.78,7.74l-0.01,11.97l0.01,5.95
			h-0.01l-0.01,5.97c-0.01,3.97-0.01,7.95,0.01,11.93l-2.46,0.75l2.46-0.09c0.08,2.12,0.95,4.05,2.47,5.45
			C62.04,59.07,63.66,59.75,65.67,59.66z"/>
	</g>
	<g id="Path_1404_00000061452089848242550220000006639876530090590881_">
		<path class="st0" d="M25.66,97c-3.26,0-6.53-0.01-9.79-0.03c-0.12,0-0.23,0-0.34,0c-6.7,0-12.31-4.94-12.5-11.15l0.01-16.6h4.92
			v15.8l-2.47,0.72l2.46-0.08c0.11,3.56,3.52,6.39,7.65,6.39c0.07,0,0.15,0,0.22,0c6.62,0.04,13.19,0.04,19.76,0
			c2.79-0.06,4.85-0.95,6.25-2.44c1.13-1.21,1.72-2.72,1.66-4.27c0.04-10.77,0.04-21.44,0-32.11c-0.17-4.14-3.65-6.9-7.92-6.78
			c-6.6-0.02-13.1-0.02-19.61,0c-0.85,0.02-1.5,0.07-2.25,0.21c-3.46,0.72-5.9,3.48-5.78,6.54L7.94,63.91l0.01,5.3H3.03l-0.01-5.3
			l0.01-10.61c-0.22-5.37,3.86-10.23,9.71-11.45c1.09-0.22,2.18-0.33,3.24-0.31c6.49-0.02,13.01-0.02,19.51,0
			c6.84-0.26,12.62,4.64,12.92,10.92c0.01,0.26,0.01,0.55,0.01,0.84c0.04,10.6,0.04,21.28,0,31.96c0.1,2.76-0.96,5.54-3,7.71
			c-2.28,2.44-5.6,3.89-9.12,3.99h-0.78C32.26,96.99,28.97,97,25.66,97z"/>
	</g>
	<g id="Path_1405_00000034051462122626720910000015423934804467118005_">
		<path class="st0" d="M25.73,36.32c-3.35,0-6.7-0.02-10.05-0.06C9.01,36.5,3.33,31.07,3.09,24.31c-0.19-3.08-0.19-6.27,0.01-9.42
			C3.38,8.11,9.24,2.66,16,3.03c2.07-0.02,4.28-0.02,6.47-0.01l3.28,0.01V3.02l3.28-0.01c2.19-0.01,4.39-0.01,6.6,0.01
			c6.73-0.2,12.49,5.16,12.73,12c0.19,3.05,0.19,6.21-0.01,9.32C48.16,30.94,42.64,36.26,36,36.26c-0.09,0-0.17,0-0.26,0
			C32.42,36.3,29.08,36.32,25.73,36.32z M15.65,31.34c6.78,0.09,13.45,0.09,20.11,0c0.06,0,0.11,0,0.16,0
			c4.09,0,7.41-3.21,7.52-7.22c0.19-2.99,0.19-5.95,0.01-8.87c-0.14-4.12-3.48-7.33-7.51-7.33c-0.08,0-0.17,0-0.24,0.01
			c-2.3-0.02-4.47-0.01-6.65-0.01l-3.29,0.01l-3.29-0.01c-2.18-0.01-4.36-0.01-6.54,0.01c-0.1,0-0.2-0.01-0.3-0.01
			c-4.11,0-7.45,3.18-7.61,7.21c-0.19,3-0.19,5.99-0.01,8.93C8.15,28.22,11.55,31.48,15.65,31.34z"/>
	</g>
	<g id="Path_1406_00000067918044229656638660000000222969737190763415_">
		<path class="st0" d="M84.47,96.99c-0.13,0-0.26,0-0.39,0l-19.62-0.01c-6.6,0.09-12.55-4.18-12.83-9.75
			c-0.15-2.39-0.15-4.77,0.01-7.13c0.12-5.45,5.81-9.75,12.62-9.79c6.69-0.06,13.4-0.06,20.09,0c0.1,0,0.19,0,0.28,0
			c6.66,0,12.06,4.23,12.29,9.73c0.18,2.35,0.18,4.83-0.01,7.27C96.67,92.67,91.13,96.99,84.47,96.99z M74.23,92.06l3.29,0l6.54,0
			c0.09,0,0.19,0,0.28,0c4.12,0,7.53-2.28,7.65-5.06c0.18-2.27,0.18-4.49,0.01-6.68c-0.12-2.87-3.55-5.15-7.63-5.1
			c-6.75-0.06-13.42-0.06-20.11,0c-0.04,0-0.1,0-0.15,0c-4.09,0-7.5,2.31-7.56,5.1c-0.15,2.25-0.15,4.41-0.01,6.54
			c0.14,2.99,3.61,5.3,7.86,5.19l6.57,0H74.23L74.23,92.06z"/>
	</g>
</g>
</svg>
