<?xml version="1.0" encoding="utf-8"?>
<!-- Generator: Adobe Illustrator 26.0.2, SVG Export Plug-In . SVG Version: 6.00 Build 0)  -->
<svg version="1.1" id="Layer_1" xmlns="http://www.w3.org/2000/svg" xmlns:xlink="http://www.w3.org/1999/xlink" x="0px" y="0px"
	 viewBox="0 0 200 200" style="enable-background:new 0 0 200 200;" xml:space="preserve">
<style type="text/css">
	.st0{fill:#FFFFFF;}
</style>
<g>
	<g id="Path_1403_00000030457587223548283040000013162371961835835302_">
		<path class="st0" d="M152.93,130.75c-6.57,0-13.14-0.01-19.71-0.04c-6.51,0.23-12.83-2.1-17.8-6.7
			c-5.22-4.82-8.25-11.47-8.52-18.7l-0.01-1.89c-0.04-8.23-0.03-16.63-0.01-25.03l0.03-12.57l-0.01-12.48l0.01-25.07
			c-0.43-12.68,8.09-23.94,20.27-26.58c1.82-0.42,3.74-0.63,5.65-0.63l4.45-0.01c11.92-0.03,23.85-0.09,35.76,0.01
			c12.68-0.47,22.86,8.53,25.3,21.03c0.4,2.01,0.61,4.1,0.59,6.18c0.03,25.05,0.03,50.14,0,75.24c0.47,12.35-7.76,23.54-19.56,26.42
			c-2.24,0.53-4.58,0.6-6.76,0.78C166.05,130.74,159.49,130.75,152.93,130.75z M133.02,120.36c13.34,0.03,26.46,0.03,39.6-0.01
			c1.3,0.01,2.91-0.16,4.31-0.49c7.03-1.71,11.94-8.51,11.65-16.16c0.03-25.28,0.03-50.38-0.01-75.46c0.01-1.41-0.12-2.79-0.4-4.13
			c-1.48-7.55-8.01-13.3-15.05-12.69c-12.05-0.09-23.94-0.06-35.82-0.01l-4.47,0.01c-1.15,0-2.29,0.13-3.41,0.39
			c-7.34,1.59-12.44,8.44-12.17,16.3l-0.01,25.22l0.01,12.52h-0.02l-0.01,12.56c-0.01,8.38-0.03,16.75,0.01,25.12v1.39
			c0.18,4.46,2.02,8.54,5.2,11.49C125.38,119.12,129.15,120.51,133.02,120.36z"/>
	</g>
	<g id="Path_1404_00000145051022341428935920000005571205730227275661_">
		<path class="st0" d="M48.74,199c-6.87,0-13.76-0.03-20.64-0.07c-14.11,0.48-26.61-10.18-27.02-23.48v-34.98h10.36v33.28v1.37
			c0.23,7.5,7.41,13.45,16.1,13.45c0.16,0,0.32,0,0.47-0.01c13.99,0.1,27.81,0.1,41.63,0c5.89-0.13,10.24-2,13.17-5.13
			c2.39-2.55,3.64-5.74,3.51-8.99c0.09-22.69,0.09-45.16,0-67.63c-0.36-8.71-7.8-14.59-16.67-14.28c-13.9-0.03-27.59-0.04-41.3,0.01
			c-1.79-0.13-3.21,0.13-4.72,0.45c-7.32,1.53-12.46,7.32-12.2,13.78l0.01,33.71H1.07l-0.01-11.15l0.01-22.36
			C0.6,95.66,9.2,85.41,21.52,82.85c2.23-0.45,4.66-0.64,6.83-0.66c13.67-0.03,27.39-0.03,41.11,0c14.1-0.48,26.57,9.77,27.19,23
			c0.03,0.54,0.03,1.15,0.02,1.77c0.09,22.32,0.09,44.82,0,67.33c0.22,5.82-2.02,11.66-6.31,16.24c-4.81,5.13-11.81,8.19-19.21,8.41
			h-1.65C62.62,198.97,55.69,199,48.74,199z"/>
	</g>
	<g id="Path_1405_00000059995494369035706060000005841225959211476915_">
		<path class="st0" d="M48.88,71.2c-7.04,0-14.11-0.05-21.18-0.13c-0.22,0.01-0.43,0.01-0.65,0.01C13.29,71.07,1.67,59.91,1.2,45.9
			c-0.4-6.49-0.4-13.21,0.01-19.84C1.8,11.77,13.81,0.64,28.39,1.07C32.76,1,37.4,1.03,42.04,1.04l6.9,0.01V1.04l6.91-0.01
			c4.63-0.01,9.26-0.02,13.9,0.01c14.59-0.22,26.32,10.88,26.81,25.28c0.38,6.42,0.38,13.07-0.01,19.63
			c-0.43,14.07-12.58,24.78-26.59,25.1C62.97,71.15,55.94,71.2,48.88,71.2z M27.64,60.7c14.26,0.2,28.31,0.2,42.37,0
			c8.56-0.03,15.94-6.64,16.19-15.21c0.38-6.3,0.38-12.53,0.01-18.67c-0.3-8.84-7.31-15.77-16.34-15.41
			c-4.8-0.03-9.39-0.02-13.99-0.01l-6.93,0.03L42,11.4c-4.59-0.01-9.17-0.03-13.77,0.01c-8.76-0.26-16.31,6.47-16.68,15.17
			c-0.38,6.32-0.38,12.61,0,18.82C11.85,54.12,19.05,60.79,27.64,60.7z"/>
	</g>
	<g id="Path_1406_00000039819682961978071030000013274649565504166279_">
		<path class="st0" d="M157.92,198.97l-6.91-0.01l-6.83,0.01l-13.75-0.01c-14.39,0.13-26.44-8.81-27-20.54
			c-0.33-5.02-0.33-10.04,0-15c0.26-11.36,11.94-20.64,26.12-20.64c0.16,0,0.3,0,0.46,0c14.05-0.13,28.18-0.13,42.33,0
			c13.99-0.3,25.96,8.75,26.45,20.48c0.4,4.96,0.4,10.18-0.01,15.33c-0.49,11.51-12.31,20.74-27.02,20.37L157.92,198.97z
			 M151.02,188.6l6.92,0.01l13.79-0.01c9.35,0.49,16.46-4.65,16.72-10.64c0.38-4.8,0.38-9.46,0.01-14.07
			c-0.26-6.06-7.38-10.72-16.07-10.75c-14.2-0.13-28.27-0.13-42.34,0c-8.45,0.13-16.13,4.8-16.26,10.74
			c-0.31,4.72-0.31,9.29-0.01,13.78c0.3,6.3,7.96,11.03,16.55,10.93l13.84,0.01H151.02L151.02,188.6z"/>
	</g>
</g>
</svg>
