<?xml version="1.0" encoding="utf-8"?>
<!-- Generator: Adobe Illustrator 26.0.2, SVG Export Plug-In . SVG Version: 6.00 Build 0)  -->
<svg version="1.1" id="Layer_1" xmlns="http://www.w3.org/2000/svg" xmlns:xlink="http://www.w3.org/1999/xlink" x="0px" y="0px"
	 viewBox="0 0 100 100" style="enable-background:new 0 0 100 100;" xml:space="preserve">
<style type="text/css">
	.st0{fill:#909090;}
	.st1{fill:none;stroke:#909090;stroke-width:0.75;stroke-miterlimit:10;}
	.st2{fill:#909090;stroke:#909090;stroke-width:0.2;stroke-miterlimit:10;}
	.st3{fill:#909090;stroke:#909090;stroke-width:0.25;stroke-miterlimit:10;}
	.st4{fill:none;stroke:#909090;stroke-width:0.6;stroke-miterlimit:10;}
	.st5{fill:#909090;stroke:#909090;stroke-width:0.1;stroke-miterlimit:10;}
</style>
<g>
	<g id="Path_1418_00000023280990407683472600000011634104949042329008_">
		<path class="st0" d="M88.99,32.89H32.55V2.42H68.2l-0.06,18.59h20.85V32.89z M37,28.44h47.54v-2.98H63.69L63.7,6.87H37V28.44z"/>
	</g>
	<g>
		<path class="st0" d="M96,97.55H25.66V35.51H96V97.55z M30.1,93.1h61.45V39.96H30.1V93.1z"/>
	</g>
	<g>
		<rect x="41.83" y="47.58" class="st0" width="38" height="17.12"/>
	</g>
	<g>
		<rect x="63.74" y="79.9" class="st0" width="5.13" height="5.11"/>
	</g>
	<g>
		<rect x="41.84" y="79.91" class="st0" width="5.1" height="5.1"/>
	</g>
	<g>
		<rect x="52.76" y="79.88" class="st0" width="5.15" height="5.11"/>
	</g>
	<g>
		<polygon class="st0" points="79.81,79.88 74.7,79.88 74.7,85.02 79.82,85.02 		"/>
	</g>
	<g>
		<rect x="52.79" y="70.14" class="st0" width="5.09" height="5.14"/>
	</g>
	<g>
		<rect x="63.74" y="70.15" class="st0" width="5.15" height="5.08"/>
	</g>
	<g>
		<rect x="41.84" y="70.14" class="st0" width="5.11" height="5.11"/>
	</g>
	<g>
		<rect x="74.7" y="70.14" class="st0" width="5.12" height="5.11"/>
	</g>
	<g id="Rectangle_140_00000031187561970763557880000015952468539217443002_">
		<path class="st0" d="M21.07,97.58H4V30.17h17.07V97.58z M8.45,93.13h8.18V34.62H8.45V93.13z"/>
	</g>
	<g id="Path_1420_00000083056430328834892750000015365387361375941001_">
		<path class="st0" d="M71.19,3.87L85,17.65H71.19V3.87z"/>
	</g>
	<g id="Rectangle_141_00000166654797667331740200000004816593406574308275_">
		<rect x="47.04" y="52.78" class="st0" width="27.55" height="6.66"/>
	</g>
</g>
</svg>
