<?xml version="1.0" encoding="utf-8"?>
<!-- Generator: Adobe Illustrator 26.0.2, SVG Export Plug-In . SVG Version: 6.00 Build 0)  -->
<svg version="1.1" id="Layer_1" xmlns="http://www.w3.org/2000/svg" xmlns:xlink="http://www.w3.org/1999/xlink" x="0px" y="0px"
	 viewBox="0 0 200 200" style="enable-background:new 0 0 200 200;" xml:space="preserve">
<style type="text/css">
	.st0{fill:#FFFFFF;}
</style>
<g>
	<g id="Path_1407_00000081643441197756046510000013053925573216200339_">
		<path class="st0" d="M82.28,99.85c-25.26,0-45.85-20.53-45.91-45.8C36.32,28.73,56.87,8.09,82.18,8.03
			c12.08,0.46,23.81,4.72,32.5,13.38c8.69,8.65,13.49,20.17,13.52,32.43c0,25.36-20.54,45.95-45.79,46.01l-0.02-8.89
			c20.36-0.05,36.92-16.66,36.92-37.01c-0.05-20.47-16.64-37.03-37.02-37.03c-0.03,0-0.06,0-0.09,0
			C61.78,16.96,45.21,33.6,45.26,54.02c0.05,20.39,16.64,36.94,37.02,36.94c0.03,0,0.06,0,0.09,0l0.02,8.89
			C82.36,99.85,82.32,99.85,82.28,99.85z"/>
	</g>
	<g id="Path_1408_00000147941133365430275880000017567234514657441673_">
		<path class="st0" d="M19.04,182.82c-4.21,0-8.43-1.57-11.8-4.52c-3.67-3.22-5.87-7.67-6.19-12.54c-0.06-0.79-0.06-1.59,0-2.4
			l-0.01-27.28c-0.31-6.88,3.62-13.41,10.04-16.42c23.15-12.21,49.45-18.26,75.78-17.55c0.3-0.02,1.43,0.08,2.07,0.13l-0.01,1.05
			l0.06-1.06l4.37,4.84l-1.13,2.12c-6.31,9.08-8.71,20.07-6.75,30.95c1.96,10.88,8.03,20.35,17.11,26.65
			c5.62,3.91,12.18,6.38,18.96,7.13l-0.49,8.86H20.18C19.8,182.81,19.42,182.82,19.04,182.82z M80.92,110.94
			c-22.97,0.25-45.61,5.97-65.89,16.66c-3.34,1.58-5.28,4.79-5.12,8.27l0.01,27.77c-0.03,0.71-0.03,1.11-0.01,1.52
			c0.17,2.51,1.3,4.8,3.18,6.44c1.88,1.65,4.3,2.4,6.8,2.3l77.35-0.01c-10.88-7.66-18.16-19.08-20.52-32.18
			C74.81,131.12,76.3,120.44,80.92,110.94z"/>
	</g>
	<g id="Path_1409_00000126314130918803851980000008982800136775340216_">
		<path class="st0" d="M188.75,191.97c-3.1,0-5.92-1.26-8.02-3.53c-4.73-4.8-16.25-16.63-21.57-22.16
			c-9.96,5.94-21.69,7.57-32.76,4.47c-9.61-2.48-18.06-8.52-23.71-16.99c-12.92-19.11-7.87-45.22,11.28-58.16
			c15.34-10.41,35.31-9.59,49.71,2c16.31,13.32,20.24,36.55,9.73,54.34c1.19,1.03,2.22,1.97,2.82,2.6l19.56,19.57
			c1.9,1.79,3.07,4.34,3.21,7.08c0.13,2.82-0.85,5.5-2.77,7.52c-1.5,1.49-3.08,2.44-4.93,2.99
			C190.43,191.88,189.58,191.97,188.75,191.97z M160.58,154.53l2.65,3.17c0.94,1.04,16.16,16.72,23.93,24.61
			c0.35,0.36,1.02,1.01,1.96,0.78c0.09-0.03,0.4-0.23,0.75-0.57c0.4-0.43,0.24-1.55-0.28-2.04l-19.75-19.75
			c-0.93-1-2.71-2.48-4.44-3.92c-1.75-1.47-3.45-2.9-4.33-3.8l3.11-3.1l-0.03-0.01c10.24-14.31,7.57-34.25-6.07-45.39
			c-11.31-9.11-27.03-9.75-39.13-1.54c-15.09,10.2-19.07,30.77-8.89,45.85c4.45,6.66,11.06,11.41,18.63,13.35
			c9.79,2.75,20.15,0.83,28.53-5.23L160.58,154.53z"/>
	</g>
</g>
</svg>
