<?xml version="1.0" encoding="utf-8"?>
<!-- Generator: Adobe Illustrator 26.0.2, SVG Export Plug-In . SVG Version: 6.00 Build 0)  -->
<svg version="1.1" id="Layer_1" xmlns="http://www.w3.org/2000/svg" xmlns:xlink="http://www.w3.org/1999/xlink" x="0px" y="0px"
	 viewBox="0 0 100 100" style="enable-background:new 0 0 100 100;" xml:space="preserve">
<style type="text/css">
	.st0{fill:#909090;}
	.st1{fill:none;stroke:#909090;stroke-width:0.75;stroke-miterlimit:10;}
	.st2{fill:#909090;stroke:#909090;stroke-width:0.2;stroke-miterlimit:10;}
	.st3{fill:#909090;stroke:#909090;stroke-width:0.25;stroke-miterlimit:10;}
	.st4{fill:none;stroke:#909090;stroke-width:0.6;stroke-miterlimit:10;}
	.st5{fill:#909090;stroke:#909090;stroke-width:0.1;stroke-miterlimit:10;}
</style>
<g>
	<g id="Path_1407_00000024688625554451425860000014405772733019636668_">
		<path class="st0" d="M41.58,49.93c-12,0-21.76-9.74-21.8-21.75C19.76,16.17,29.52,6.37,41.53,6.34c0.02,0,0.03,0,0.05,0
			c5.81,0,11.27,2.25,15.38,6.35c4.13,4.11,6.4,9.57,6.42,15.4c0,12.03-9.75,21.81-21.74,21.85l-0.01-4.22
			c9.66-0.03,17.53-7.91,17.53-17.57c-0.01-4.74-1.85-9.15-5.17-12.46c-3.32-3.3-7.72-5.12-12.4-5.12c-0.01,0-0.03,0-0.04,0
			C31.85,10.58,23.98,18.48,24,28.17c0.02,9.68,7.9,17.54,17.58,17.54c0.01,0,0.03,0,0.04,0l0.01,4.22
			C41.62,49.93,41.6,49.93,41.58,49.93z"/>
	</g>
	<g id="Path_1408_00000147182135797995775600000004535804798788658054_">
		<path class="st0" d="M45.65,55.36c-5.36,8.79-3,20.39,5.56,26.34c2.67,1.85,5.78,3.03,9.01,3.39l-0.24,4.2H12.1
			c-0.19,0.01-0.37,0.02-0.55,0.02c-4.4,0-8.22-3.52-8.53-8.1c-0.02-0.39-0.02-0.76,0-1.12L3.01,67.13
			c-0.15-3.27,1.72-6.36,4.76-7.8C18.69,53.58,31.13,50.68,43.5,51l0.04-0.05l3.31,0.31 M40.94,55.2
			c-10.9,0.12-21.65,2.83-31.28,7.91c-1.58,0.75-2.5,2.27-2.43,3.93v13.18c-0.02,0.33-0.02,0.53-0.01,0.74
			c0.16,2.43,2.33,4.27,4.74,4.13l36.72-0.01C39.02,78.28,35.94,65.53,40.94,55.2z"/>
	</g>
	<g id="Path_1409_00000090276740266059486240000014852116802672473490_">
		<path class="st0" d="M92.14,93.66c-1.48,0-2.81-0.6-3.82-1.67c-2.35-2.38-7.75-7.93-10.24-10.52c-4.72,2.81-10.3,3.58-15.56,2.12
			c-4.56-1.17-8.57-4.04-11.26-8.06c-6.13-9.08-3.73-21.47,5.36-27.61c7.28-4.94,16.76-4.56,23.6,0.95
			c7.74,6.33,9.6,17.35,4.62,25.8c0.56,0.49,1.05,0.93,1.33,1.24l9.29,9.28c1.95,1.85,2.06,4.98,0.21,6.94
			c-0.7,0.69-1.44,1.14-2.32,1.41C92.94,93.62,92.53,93.66,92.14,93.66z M78.75,75.89l1.26,1.49c0.42,0.47,7.57,7.84,11.36,11.69
			c0.16,0.17,0.48,0.47,0.93,0.37c0.03-0.02,0.19-0.11,0.35-0.27c0.21-0.22,0.16-0.69-0.13-0.97l-9.38-9.37
			c-0.44-0.47-1.3-1.18-2.12-1.87c-0.82-0.69-1.62-1.37-2.04-1.79l1.48-1.47l-0.01-0.01c4.86-6.79,3.59-16.26-2.88-21.55
			c-5.37-4.33-12.85-4.63-18.57-0.73c-7.17,4.84-9.06,14.61-4.22,21.77c2.11,3.17,5.25,5.42,8.84,6.34
			c4.65,1.3,9.57,0.39,13.55-2.48L78.75,75.89z"/>
	</g>
</g>
</svg>
