<?xml version="1.0" encoding="utf-8"?>
<!-- Generator: Adobe Illustrator 26.0.2, SVG Export Plug-In . SVG Version: 6.00 Build 0)  -->
<svg version="1.1" id="Layer_1" xmlns="http://www.w3.org/2000/svg" xmlns:xlink="http://www.w3.org/1999/xlink" x="0px" y="0px"
	 viewBox="0 0 200 200" style="enable-background:new 0 0 200 200;" xml:space="preserve">
<style type="text/css">
	.st0{fill:#FFFFFF;}
</style>
<g id="Group_5_00000101790730979453143840000009372432828772456616_" transform="translate(-96.973 -59.77)">
	<g id="Group_688_00000020380342533628516150000016577279211470423184_" transform="translate(136.984 171.436)">
		<g>
			<g id="Group_687_00000073692701503005858640000005694416250088244152_" transform="translate(0 0)">
				<g id="Path_1356_00000093138336629532956930000001700193359911795590_">
					<path class="st0" d="M114.64,84.34L80.33,84.1c-4.89-1.65-7.96-6.56-7.32-11.68c0.04-10.8,0.02-22.14,0.01-33.48l-0.01-6.8
						c0.22-2.86-1.61-5.04-4.08-5.25l-1.18,0.02H52.59c-1.74-0.19-2.96,0.14-3.93,0.89c-0.96,0.75-1.57,1.83-1.73,3.05l0.04,0.27
						l-0.01,12.53c-0.01,9.76-0.02,19.52,0.04,29.3c0.63,4.55-2.44,9.48-7.32,11.15l-1.47,0.24L3.29,83.85
						C-8.63,81.4-16.95,70.82-16.44,58.77c0.17-11.88,0.12-23.88,0.09-35.88l-0.03-13.35c-1.15-0.15-2.3-0.34-3.44-0.56
						C-31.49,5.92-38.3-5.77-35.31-17.13c1.05-3.93,3.16-7.46,6.14-10.21c24.43-24.47,49-49.05,73.61-73.62
						c1.25-1.27,2.67-2.42,4.18-3.41c8.89-5.58,20.36-3.97,27.32,3.81l70.57,70.5c4.45,3.67,7.88,9.16,9.34,15.17l0.13,6.4
						l-0.44,0.93c-1.6,9.35-9.54,16.46-19.18,17.19l0.01,11.62c0.01,13.12,0.02,26.24-0.05,39.36
						c-0.17,10.47-6.97,19.54-16.92,22.62c-1.01,0.31-2.05,0.57-3.05,0.83L114.64,84.34z M82.77,75.26h31.27
						c1.16-0.3,1.93-0.49,2.68-0.72c6.18-1.91,10.41-7.55,10.51-14.03c0.07-13.05,0.06-26.15,0.05-39.25l-0.01-20.64h7.24
						c0.05,0,0.09,0,0.14,0c5.98,0,11-4.22,12.01-10.09l0.24-0.94v-3.39c-0.88-3.05-3.23-6.82-6.5-9.54L69.35-94.31
						c-4.17-4.65-10.76-5.57-15.84-2.39c-0.9,0.59-1.8,1.32-2.61,2.15C26.26-69.97,1.68-45.39-22.87-20.79
						c-1.84,1.7-3.05,3.73-3.65,5.98c-0.83,3.16-0.38,6.45,1.27,9.28c1.64,2.82,4.29,4.84,7.46,5.67c1.85,0.35,4.02,0.62,6.2,0.74
						l4.29,0.24l0.04,21.75c0.04,12.05,0.08,24.11-0.09,36.16C-7.7,66.97-2.12,73.82,5.6,75.06l1.09,0.2h30.52
						c0.53-0.38,0.82-1.03,0.73-1.7c-0.09-10.35-0.08-20.13-0.07-29.92l0.01-11.16c-0.1-0.53-0.09-1.64,0.04-2.75
						c0.46-3.63,2.29-6.86,5.16-9.09s6.44-3.22,10.08-2.77l14.6-0.04c0.36-0.05,1.14-0.06,1.93,0.01
						c7.47,0.64,13.03,7.23,12.39,14.68l0.02,6.42c0.01,11.36,0.03,22.72-0.04,34.09C81.94,74.12,82.24,74.86,82.77,75.26z"/>
				</g>
			</g>
		</g>
	</g>
</g>
</svg>
