<?xml version="1.0" encoding="utf-8"?>
<!-- Generator: Adobe Illustrator 26.0.2, SVG Export Plug-In . SVG Version: 6.00 Build 0)  -->
<svg version="1.1" id="Layer_1" xmlns="http://www.w3.org/2000/svg" xmlns:xlink="http://www.w3.org/1999/xlink" x="0px" y="0px"
	 viewBox="0 0 100 100" style="enable-background:new 0 0 100 100;" xml:space="preserve">
<style type="text/css">
	.st0{fill:#909090;}
	.st1{fill:none;stroke:#909090;stroke-width:0.75;stroke-miterlimit:10;}
	.st2{fill:#909090;stroke:#909090;stroke-width:0.2;stroke-miterlimit:10;}
	.st3{fill:#909090;stroke:#909090;stroke-width:0.25;stroke-miterlimit:10;}
	.st4{fill:none;stroke:#909090;stroke-width:0.6;stroke-miterlimit:10;}
	.st5{fill:#909090;stroke:#909090;stroke-width:0.1;stroke-miterlimit:10;}
</style>
<g id="Group_5_00000096027308574658043520000004273533636536064675_" transform="translate(-96.973 -59.77)">
	<g id="Group_688_00000153694574726318069080000015764020681530289540_" transform="translate(136.984 171.436)">
		<g>
			<g id="Group_687_00000023979360496368690160000003030765062232571556_" transform="translate(0 0)">
				<g id="Path_1356_00000099636150061938518150000002667916522935988101_">
					<path class="st0" d="M37.88-12.66l-17.52-0.12c-2.5-0.85-4.07-3.35-3.73-5.97c0.02-6.03,0.01-12.34,0-18.66l-0.01-1.9
						c0.11-1.46-0.82-2.57-2.08-2.68l-0.6,0.01H6.21c-1.56-0.17-2.73,0.73-2.89,2.01l0.02,0.83l-0.01,6.08
						c-0.01,4.86-0.01,9.71,0.02,14.58c0.32,2.33-1.24,4.84-3.74,5.69l-0.75,0.12l-17.81-0.24c-6.06-1.21-10.35-6.63-10.09-12.81
						c0.08-6.07,0.07-12.2,0.05-18.33l-0.02-6.79c-0.59-0.08-1.17-0.18-1.76-0.29c-2.96-0.78-5.32-2.57-6.78-5.08
						c-1.46-2.51-1.86-5.44-1.12-8.25c0.52-1.99,1.6-3.79,3.12-5.21C-23.06-82.16-10.5-94.7,2.05-107.24
						c0.65-0.66,1.38-1.25,2.14-1.74c4.52-2.85,10.38-2.02,13.94,1.95l36.02,35.98c2.28,1.88,4.03,4.68,4.77,7.74l0.07,3.29
						l-0.25,0.49c-0.8,4.74-4.85,8.36-9.77,8.74l0.01,6.16c0,6.62,0.01,13.24-0.02,19.86c-0.09,5.34-3.56,9.97-8.64,11.54
						c-0.47,0.15-0.97,0.27-1.44,0.4L37.88-12.66z M21.62-17.3h15.98c0.63-0.16,0.99-0.26,1.35-0.37c3.16-0.98,5.32-3.86,5.38-7.16
						c0.03-6.58,0.02-13.19,0.02-19.8L44.33-55.4h3.69c2.96,0.13,5.69-2.13,6.2-5.15l0.13-2.22c-0.45-1.56-1.65-3.48-3.32-4.87
						l-36.27-36.22c-2.12-2.38-5.49-2.84-8.08-1.22c-0.46,0.3-0.92,0.68-1.35,1.11c-12.56,12.54-25.1,25.08-37.64,37.64
						c-0.94,0.87-1.56,1.9-1.85,3.05c-0.43,1.62-0.21,3.3,0.64,4.74c0.84,1.44,2.18,2.47,3.8,2.89c0.95,0.18,2.06,0.32,3.17,0.38
						l2.18,0.12l0.02,11.07c0.02,6.16,0.04,12.32-0.05,18.48c-0.18,4.06,2.67,7.55,6.62,8.18l0.55,0.1h15.58
						c0.27-0.19,0.42-0.52,0.37-0.86c-0.05-5.16-0.04-10.03-0.04-14.9l0.01-6.08c-0.05-0.24-0.05-0.79,0.01-1.38
						c0.48-3.83,3.92-6.58,7.78-6.08l7.45-0.02c0.19-0.02,0.6-0.02,0.98,0c3.82,0.33,6.65,3.69,6.33,7.5l0.01,1.69
						c0.01,6.32,0.02,12.65-0.02,18.98C21.19-17.87,21.34-17.5,21.62-17.3z"/>
				</g>
			</g>
		</g>
	</g>
</g>
</svg>
