<?xml version="1.0" encoding="utf-8"?>
<!-- Generator: Adobe Illustrator 26.0.2, SVG Export Plug-In . SVG Version: 6.00 Build 0)  -->
<svg version="1.1" id="Layer_1" xmlns="http://www.w3.org/2000/svg" xmlns:xlink="http://www.w3.org/1999/xlink" x="0px" y="0px"
	 viewBox="0 0 100 100" style="enable-background:new 0 0 100 100;" xml:space="preserve">
<style type="text/css">
	.st0{fill:#909090;}
	.st1{fill:none;stroke:#909090;stroke-width:0.75;stroke-miterlimit:10;}
	.st2{fill:#909090;stroke:#909090;stroke-width:0.2;stroke-miterlimit:10;}
	.st3{fill:#909090;stroke:#909090;stroke-width:0.25;stroke-miterlimit:10;}
	.st4{fill:none;stroke:#909090;stroke-width:0.6;stroke-miterlimit:10;}
	.st5{fill:#909090;stroke:#909090;stroke-width:0.1;stroke-miterlimit:10;}
</style>
<g>
	<g>
		<path class="st0" d="M82.8,98l-65.89-0.08l-0.57-0.17c-3.3-0.61-6.19-2.45-8.12-5.18C4.99,88.29,4.71,82.5,7.56,77.87l23.21-42.93
			c0.1-0.18,0.15-0.4,0.15-0.61c0.02-5.79,0.02-11.6,0.02-17.4V9.45c-0.21-1.54,0.29-3.35,1.43-4.79c1.13-1.45,2.76-2.37,4.59-2.59
			c0.55-0.07,1.11-0.07,1.67,0l23.04-0.01c1.53-0.22,3.35,0.29,4.8,1.42c1.45,1.13,2.38,2.76,2.61,4.59c0.07,0.6,0.07,1.15,0,1.68
			l0.04,24.6c0,0.19,0.05,0.38,0.14,0.56c2.14,3.99,4.31,8.01,6.48,12.02L92.6,78.15c3.64,6.14,1.59,14.2-4.63,17.89
			c-1.7,0.84-3.27,1.44-4.87,1.88L82.8,98z M37.78,6.59c-0.11,0-0.19,0.01-0.28,0.02c-0.61,0.07-1.15,0.38-1.53,0.87
			c-0.37,0.48-0.55,1.09-0.47,1.7l0.02,7.75c0,5.81,0,11.62-0.02,17.44c-0.01,0.95-0.25,1.89-0.7,2.73L11.52,80.16
			c-1.92,3.12-1.74,6.89,0.39,9.71c1.29,1.81,3.15,3,5.27,3.39l0.76,0.2l64.24-0.02c1.23-0.36,2.45-0.83,3.61-1.4
			c3.91-2.33,5.25-7.58,2.85-11.63L71.7,49.09c-2.18-4.02-4.35-8.04-6.51-12.07c-0.43-0.85-0.66-1.77-0.66-2.68l-0.02-24.9
			l2.28-1.11l-2.27,0.28C64.46,8,64.15,7.46,63.66,7.07c-0.49-0.38-1.13-0.55-1.71-0.47L38.36,6.62C38.1,6.6,37.92,6.59,37.78,6.59z
			"/>
	</g>
	<g>
		<path class="st0" d="M50.01,85.73c8.27,0,16.54,0,24.81,0c2.48,0.3,4.72-1.47,5.02-3.94c0.13-1.12-0.15-2.24-0.81-3.16
			c-1.29-2.34-2.59-4.68-3.9-7.01c-0.98-2.35-3.67-3.46-6.02-2.48c-0.26,0.11-0.5,0.24-0.73,0.39c-1.71,0.83-3.43,1.66-5.2,2.33
			c-3.79,1.6-8.02,1.85-11.97,0.69c-3.39-1.09-6.7-2.41-10.02-3.68c-3.14-1.41-6.46-2.41-9.87-2.95c-1.86-0.29-3.69,0.65-4.54,2.33
			c-2,3.54-3.97,7.1-5.94,10.67c-1.3,2.12-0.64,4.89,1.47,6.2c0.81,0.5,1.76,0.73,2.72,0.66c8.33,0,16.66,0,24.98,0"/>
	</g>
	<g>
		<path class="st0" d="M42.97,63.81c3.47,0.04,6.3-2.74,6.34-6.21c0.04-3.47-2.74-6.3-6.21-6.34c-3.46-0.04-6.29,2.73-6.34,6.19
			c-0.05,3.46,2.71,6.31,6.18,6.36C42.94,63.81,42.95,63.81,42.97,63.81"/>
	</g>
	<g>
		<path class="st0" d="M43,45.42c2.13,0.01,3.87-1.72,3.88-3.85c0.01-2.13-1.72-3.87-3.85-3.88c-2.13-0.01-3.87,1.72-3.88,3.85
			c0,0.01,0,0.01,0,0.02C39.16,43.68,40.87,45.4,43,45.42"/>
	</g>
	<g>
		<path class="st0" d="M53.94,68.79c2.13,0.01,3.87-1.72,3.87-3.85c0.01-2.13-1.72-3.87-3.85-3.87c-2.13-0.01-3.87,1.72-3.87,3.85
			c0,0.01,0,0.02,0,0.03C50.11,67.07,51.82,68.78,53.94,68.79"/>
	</g>
</g>
</svg>
