<?xml version="1.0" encoding="utf-8"?>
<!-- Generator: Adobe Illustrator 26.0.2, SVG Export Plug-In . SVG Version: 6.00 Build 0)  -->
<svg version="1.1" id="Layer_1" xmlns="http://www.w3.org/2000/svg" xmlns:xlink="http://www.w3.org/1999/xlink" x="0px" y="0px"
	 viewBox="0 0 200 200" style="enable-background:new 0 0 200 200;" xml:space="preserve">
<style type="text/css">
	.st0{fill:#FFFFFF;}
</style>
<g>
	<g>
		<path class="st0" d="M167.66,199l-135.94-0.17l-1.13-0.34c-6.8-1.25-12.76-5.04-16.77-10.7c-6.67-8.82-7.23-20.76-1.36-30.3
			l47.87-88.55c0.2-0.37,0.31-0.83,0.32-1.29C60.7,55.1,60.7,42.5,60.7,29.88V16.37C59.8,9.17,65.34,2.09,73.1,1.14
			c1.12-0.15,2.28-0.14,3.45-0.01l47.5-0.03c3.17-0.45,6.9,0.59,9.9,2.92c2.99,2.33,4.9,5.69,5.37,9.46
			c0.14,1.09,0.15,2.24,0.02,3.39l0.06,50.82c0,0.39,0.1,0.79,0.29,1.15c4.22,7.9,8.53,15.85,12.83,23.8l35.34,65.41
			c3.59,6.04,4.64,13.31,2.85,20.31c-1.78,6.99-6.18,12.88-12.39,16.56c-3.49,1.74-6.74,2.97-10.06,3.89L167.66,199z M74.24,10.49
			c-2.61,0.32-4.47,2.7-4.15,5.31l0.04,14.09c0,12.62,0,25.24-0.04,37.86c-0.03,1.99-0.52,3.93-1.43,5.64L20.63,162.2
			c-3.95,6.43-3.59,14.2,0.8,20.03c2.66,3.74,6.49,6.18,10.86,6.98l1.55,0.42l132.53-0.05c2.55-0.75,5.05-1.72,7.45-2.88
			c8.06-4.81,10.82-15.63,5.87-23.99l-35.44-65.57c-4.31-7.96-8.62-15.93-12.89-23.91c-0.9-1.74-1.35-3.61-1.36-5.49l-0.03-51.39
			l0.02-1.69c-0.16-1.27-0.8-2.4-1.81-3.19c-1.01-0.78-2.2-1.12-3.53-0.97l-48.66,0.04L74.24,10.49z"/>
	</g>
	<g>
		<path class="st0" d="M100.03,173.69c17.05,0,34.11,0,51.17,0c5.11,0.61,9.74-3.03,10.36-8.13c0.28-2.3-0.32-4.63-1.66-6.52
			c-2.67-4.83-5.35-9.65-8.05-14.46c-2.01-4.84-7.58-7.14-12.42-5.12c-0.53,0.22-1.03,0.49-1.51,0.8c-3.52,1.71-7.07,3.42-10.72,4.8
			c-7.82,3.31-16.54,3.81-24.68,1.41c-6.98-2.24-13.81-4.98-20.67-7.6c-6.49-2.92-13.33-4.97-20.35-6.09
			c-3.84-0.6-7.62,1.34-9.37,4.81c-4.13,7.31-8.19,14.65-12.25,22c-2.69,4.37-1.33,10.09,3.04,12.78c1.68,1.03,3.64,1.51,5.6,1.35
			c17.18,0,34.35,0,51.53,0"/>
	</g>
	<g>
		<path class="st0" d="M85.5,128.49c7.15,0.07,13-5.66,13.08-12.81c0.07-7.15-5.66-13-12.81-13.08
			c-7.13-0.07-12.98,5.63-13.08,12.76c-0.11,7.14,5.6,13.02,12.74,13.13C85.45,128.49,85.48,128.49,85.5,128.49"/>
	</g>
	<g>
		<path class="st0" d="M85.56,90.54c4.4,0.01,7.98-3.55,8-7.95c0.01-4.4-3.55-7.98-7.95-8c-4.4-0.01-7.98,3.55-8,7.95
			c0,0.01,0,0.03,0,0.04C77.64,86.97,81.18,90.51,85.56,90.54"/>
	</g>
	<g>
		<path class="st0" d="M108.14,138.76c4.4,0.01,7.98-3.55,7.99-7.95c0.01-4.4-3.55-7.98-7.95-7.99c-4.4-0.01-7.98,3.55-7.99,7.95
			c0,0.02,0,0.03,0,0.05C100.23,135.2,103.77,138.73,108.14,138.76"/>
	</g>
</g>
</svg>
