<?xml version="1.0" encoding="utf-8"?>
<!-- Generator: Adobe Illustrator 26.0.2, SVG Export Plug-In . SVG Version: 6.00 Build 0)  -->
<svg version="1.1" id="Layer_1" xmlns="http://www.w3.org/2000/svg" xmlns:xlink="http://www.w3.org/1999/xlink" x="0px" y="0px"
	 viewBox="0 0 200 200" style="enable-background:new 0 0 200 200;" xml:space="preserve">
<style type="text/css">
	.st0{fill:#FFFFFF;}
</style>
<g>
	<g>
		<g id="Group_1080_00000069372990208398521160000002505024921305643905_" transform="translate(38.125 1316.395)">
			<g>
				<g id="Group_1079_00000047027586619712374600000007266096520011564161_" transform="translate(0 0)">
					<g id="Path_1421_00000025410857457865742360000002764060350323928987_">
						<path class="st0" d="M76.14-1131.45c-3.06,0-6.14-0.17-9.24-0.5c-23.98-2.58-45.8-15.29-59.88-34.89l-2.35-3.28l25.06-18.06
							l2.37,3.28c9.99,13.87,26.15,22.19,43.23,22.26c11.54,0.38,23.33-3.56,32.58-10.74c23.78-17.72,28.7-51.4,11.03-75.13
							c-8.56-11.48-21.09-18.96-35.27-21.03c-14.2-2.05-28.32,1.51-39.81,10.07c-9.26,6.89-15.99,16.52-19.3,27.48h25.49
							l-43.67,43.73l-43.5-43.62h29.47c4.44-23.93,18.8-44.64,39.79-57.2c15.7-9.78,34.54-13.93,52.97-11.67
							c46.48,4.99,80.27,46.93,75.28,93.46c-2.43,22.55-13.48,42.8-31.14,57.04C114.01-1137.97,95.44-1131.45,76.14-1131.45z
							 M16.04-1168.34c12.74,15.9,31.37,26.16,51.72,28.34c20.41,2.22,40.42-3.69,56.4-16.55c15.97-12.88,25.98-31.2,28.17-51.6
							c4.53-42.09-26.05-80.04-68.15-84.56c-16.67-2.09-33.63,1.71-47.83,10.54c-19.96,11.95-33.27,31.96-36.57,54.93l-0.5,3.47
							h-16.92l24,24.07l24.15-24.17H14.42l0.99-4.85c3.03-14.91,11.42-28.12,23.62-37.22c13.23-9.85,29.5-13.95,45.81-11.58
							c16.32,2.38,30.73,10.97,40.59,24.2c20.34,27.29,14.67,66.05-12.62,86.39c-10.65,8.27-24.17,12.71-37.59,12.39
							c-18.23-0.08-35.61-8.4-47.2-22.41L16.04-1168.34z"/>
					</g>
				</g>
			</g>
		</g>
	</g>
	<g>
		<polygon class="st0" points="140.06,126.73 106.65,101.28 106.65,65.48 114.74,65.48 114.74,97.28 144.96,120.28 		"/>
	</g>
</g>
</svg>
