<?xml version="1.0" encoding="utf-8"?>
<!-- Generator: Adobe Illustrator 26.0.2, SVG Export Plug-In . SVG Version: 6.00 Build 0)  -->
<svg version="1.1" id="Layer_1" xmlns="http://www.w3.org/2000/svg" xmlns:xlink="http://www.w3.org/1999/xlink" x="0px" y="0px"
	 viewBox="0 0 100 100" style="enable-background:new 0 0 100 100;" xml:space="preserve">
<style type="text/css">
	.st0{fill:#909090;}
	.st1{fill:none;stroke:#909090;stroke-width:0.75;stroke-miterlimit:10;}
	.st2{fill:#909090;stroke:#909090;stroke-width:0.2;stroke-miterlimit:10;}
	.st3{fill:#909090;stroke:#909090;stroke-width:0.25;stroke-miterlimit:10;}
	.st4{fill:none;stroke:#909090;stroke-width:0.6;stroke-miterlimit:10;}
	.st5{fill:#909090;stroke:#909090;stroke-width:0.1;stroke-miterlimit:10;}
</style>
<g>
	<g>
		<g id="Group_1080_00000159462600843623615420000005044029537318104201_" transform="translate(38.125 1316.395)">
			<g>
				<g id="Group_1079_00000127753476931347799010000011533596061541430457_" transform="translate(0 0)">
					<g id="Path_1421_00000016770642379175862490000009992546949900153011_">
						<path class="st0" d="M18.5-1226.92c-1.42,0-2.85-0.08-4.29-0.23c-11.15-1.2-21.29-7.11-27.82-16.21l-1.09-1.53l11.64-8.39
							l1.1,1.53c4.65,6.44,12.15,10.3,20.09,10.34c5.32,0.22,10.84-1.65,15.14-4.99c5.37-4,8.84-9.82,9.8-16.41
							c0.96-6.59-0.7-13.16-4.68-18.5c-3.98-5.34-9.8-8.81-16.39-9.77c-6.58-0.95-13.16,0.7-18.5,4.68
							c-4.29,3.2-7.42,7.67-8.96,12.77H6.37l-20.29,20.32l-20.21-20.27h13.69c2.06-11.11,8.73-20.74,18.49-26.58
							c7.3-4.54,16.03-6.48,24.62-5.42c10.45,1.12,19.86,6.26,26.47,14.46c6.61,8.2,9.63,18.49,8.5,28.96
							c-1.13,10.47-6.26,19.89-14.47,26.5C36.1-1229.95,27.47-1226.92,18.5-1226.92z M-9.42-1244.06
							c5.91,7.39,14.58,12.15,24.03,13.17c9.49,1.02,18.79-1.72,26.2-7.69c7.42-5.98,12.07-14.5,13.09-23.97
							c1.02-9.48-1.71-18.78-7.69-26.21c-5.98-7.42-14.49-12.07-23.97-13.09c-7.74-0.94-15.63,0.79-22.23,4.89
							c-9.28,5.56-15.46,14.85-16.99,25.52l-0.23,1.61h-7.86l11.15,11.19l11.22-11.24h-7.49l0.46-2.25
							c1.41-6.93,5.31-13.07,10.97-17.29c6.14-4.58,13.71-6.49,21.29-5.38c7.58,1.11,14.28,5.1,18.86,11.25s6.49,13.71,5.38,21.29
							c-1.11,7.58-5.1,14.28-11.25,18.86c-4.95,3.84-11.22,5.93-17.46,5.76c-8.47-0.04-16.55-3.9-21.94-10.41L-9.42-1244.06z"/>
					</g>
				</g>
			</g>
		</g>
	</g>
	<g>
		<polygon class="st0" points="68.61,62.42 53.09,50.6 53.09,33.96 56.85,33.96 56.85,48.74 70.89,59.43 		"/>
	</g>
</g>
</svg>
