<?xml version="1.0" encoding="utf-8"?>
<!-- Generator: Adobe Illustrator 26.0.2, SVG Export Plug-In . SVG Version: 6.00 Build 0)  -->
<svg version="1.1" id="Layer_1" xmlns="http://www.w3.org/2000/svg" xmlns:xlink="http://www.w3.org/1999/xlink" x="0px" y="0px"
	 viewBox="0 0 200 200" style="enable-background:new 0 0 200 200;" xml:space="preserve">
<style type="text/css">
	.st0{fill:#FFFFFF;}
</style>
<g>
	<g id="Path_127_00000160192157019543436480000011426937712505704843_">
		<path class="st0" d="M147.87,199l-98.45-0.46c-1.55-0.29-3.11-0.59-4.63-1.02C30.32,194,19.95,181,19.75,165.94
			c-0.92-14.32,1.36-29.2,6.6-42.8c3.29-9.48,10-17.57,18.85-22.65c5.85-3.17,12.35-4.74,18.91-4.57c2.96,0.29,5.51,1.17,7.73,2.56
			c1.57,0.84,3.28,1.97,5,3.1l2.79,1.8c12.52,8.55,28.45,8.53,40.76,0.08l1.43-0.88c1.59-0.98,3.18-1.95,4.67-3.06
			c4.61-3.26,10.27-4.4,15.65-3.24c12.3,1.64,23.23,9.49,28.86,20.95c5.01,9.69,7.96,20.22,8.74,31.2
			c0.53,5.33,0.77,10.87,0.71,16.33c0.24,17.6-13.41,32.55-31.07,33.91L147.87,199z M52.65,189.96h94.5
			c0.34-0.1,0.67-0.18,1.02-0.25c13.43-1.07,23.41-11.99,23.24-24.95c0.06-5.24-0.17-10.44-0.68-15.58
			c-0.7-9.87-3.33-19.22-7.8-27.9c-4.34-8.82-12.69-14.82-22.36-16.12c-3.24-0.68-6.32-0.08-8.76,1.65
			c-1.61,1.21-3.44,2.34-5.27,3.46l-1.22,0.75c-15.25,10.45-35.19,10.46-50.62-0.07l-2.84-1.82c-1.5-0.99-3-1.98-4.58-2.84
			c-1.3-0.8-2.52-1.22-3.75-1.35c-4.78-0.21-9.57,1.09-13.94,3.45c-6.85,3.93-12.13,10.3-14.75,17.86
			c-4.83,12.54-6.91,26.09-6.06,39.34c0.16,11.16,7.69,20.59,18.32,23.18c1.42,0.39,2.72,0.64,4.02,0.88L52.65,189.96z"/>
	</g>
	<g id="Path_128_00000142151389418919804740000009737536230475258013_">
		<path class="st0" d="M99,97.78c-0.01,0-0.03,0-0.05,0h-0.1c-26.68-0.05-48.36-21.79-48.31-48.47
			c0.02-12.92,5.07-25.07,14.23-34.19C73.9,6.01,86.03,1,98.92,1c0.03,0,0.05,0,0.08,0c26.68,0.04,48.36,21.78,48.31,48.46
			c-0.01,12.96-5.05,25.08-14.18,34.2C124.01,92.77,111.89,97.78,99,97.78z M98.86,88.74h0.09c0.01,0,0.02,0,0.04,0
			c10.48,0,20.33-4.07,27.75-11.48c7.42-7.41,11.52-17.27,11.53-27.76c0.03-21.75-17.59-39.43-39.29-39.46c-0.02,0-0.05,0-0.07,0
			c-10.49,0-20.35,4.07-27.77,11.48c-7.45,7.42-11.55,17.3-11.57,27.81C59.54,71.03,77.17,88.71,98.86,88.74z"/>
	</g>
</g>
</svg>
