<?xml version="1.0" encoding="utf-8"?>
<!-- Generator: Adobe Illustrator 26.0.2, SVG Export Plug-In . SVG Version: 6.00 Build 0)  -->
<svg version="1.1" id="Layer_1" xmlns="http://www.w3.org/2000/svg" xmlns:xlink="http://www.w3.org/1999/xlink" x="0px" y="0px"
	 viewBox="0 0 100 100" style="enable-background:new 0 0 100 100;" xml:space="preserve">
<style type="text/css">
	.st0{fill:#909090;}
	.st1{fill:none;stroke:#909090;stroke-width:0.75;stroke-miterlimit:10;}
	.st2{fill:#909090;stroke:#909090;stroke-width:0.2;stroke-miterlimit:10;}
	.st3{fill:#909090;stroke:#909090;stroke-width:0.25;stroke-miterlimit:10;}
	.st4{fill:none;stroke:#909090;stroke-width:0.6;stroke-miterlimit:10;}
	.st5{fill:#909090;stroke:#909090;stroke-width:0.1;stroke-miterlimit:10;}
</style>
<g>
	<g>
		<path class="st0" d="M49.99,96.24c-14.86,0-29.71,0-44.57,0c-1.26,0-1.64-0.38-1.64-1.65c0-18.3,0-36.6-0.02-54.89
			c0-0.67,0.22-1.12,0.75-1.53c4.89-3.71,9.77-7.43,14.63-11.18c0.28-0.22,0.46-0.74,0.47-1.12c0.04-2.96,0.02-5.92,0.02-8.88
			c0-1.35,0.41-1.76,1.76-1.76c4.1-0.01,8.21,0.02,12.31-0.03c0.52-0.01,1.13-0.21,1.55-0.53c4.52-3.41,9.01-6.86,13.5-10.3
			c1.08-0.83,1.41-0.83,2.52,0.01c4.5,3.44,8.99,6.88,13.51,10.29c0.42,0.31,1.03,0.51,1.55,0.52c4.04,0.04,8.08,0.02,12.12,0.02
			c1.56,0,1.92,0.36,1.92,1.89c0,2.93-0.02,5.86,0.03,8.78c0.01,0.4,0.25,0.92,0.56,1.16c4.83,3.73,9.71,7.41,14.53,11.15
			c0.38,0.3,0.71,0.94,0.71,1.42c0.03,18.33,0.02,36.66,0.02,54.99c0,1.24-0.39,1.62-1.67,1.62C79.7,96.24,64.85,96.24,49.99,96.24z
			 M22.33,17.93c-0.02,0.27-0.04,0.43-0.04,0.59c0,10.88-0.01,21.77,0.03,32.65c0,0.42,0.31,0.96,0.65,1.24
			c5.28,4.39,10.57,8.78,15.9,13.12c6.43,5.24,15.06,5.54,21.59,0.49c5.73-4.44,11.24-9.16,16.82-13.8
			c0.29-0.24,0.43-0.82,0.43-1.24c0.02-10.69,0.02-21.39,0.02-32.08c0-0.31-0.03-0.62-0.05-0.96
			C59.21,17.93,40.81,17.93,22.33,17.93z M91.1,93.55c-0.35-0.31-0.55-0.5-0.76-0.67c-9.5-7.83-19.01-15.65-28.49-23.5
			c-0.56-0.46-0.91-0.4-1.48-0.06c-4.44,2.67-9.22,3.47-14.31,2.51c-2.59-0.49-4.96-1.54-7.22-2.97
			c-9.95,8.2-19.87,16.37-29.97,24.7C36.37,93.55,63.62,93.55,91.1,93.55z M6.49,92.09c10.17-8.38,20.17-16.62,30.22-24.9
			c-10.1-8.33-20.1-16.56-30.22-24.9C6.49,58.96,6.49,75.42,6.49,92.09z M93.55,42.28C83.39,50.65,73.4,58.88,63.32,67.19
			c10.09,8.31,20.09,16.55,30.23,24.9C93.55,75.4,93.55,58.96,93.55,42.28z M92.79,39.47c-4.17-3.19-8.22-6.29-12.35-9.45
			c0,6.6,0,13.03,0,19.62C84.6,46.22,88.64,42.89,92.79,39.47z M19.59,30.02c-4.2,3.21-8.23,6.29-12.36,9.46
			c4.12,3.4,8.19,6.75,12.36,10.18C19.59,43.03,19.59,36.63,19.59,30.02z M60.89,15.19c-0.18-0.21-0.24-0.29-0.31-0.35
			c-3.35-2.57-6.72-5.13-10.05-7.72c-0.49-0.38-0.77-0.18-1.14,0.1c-3.22,2.48-6.45,4.95-9.69,7.41c-0.19,0.14-0.47,0.16-0.7,0.24
			c0.11,0.11,0.22,0.21,0.33,0.32C46.46,15.19,53.59,15.19,60.89,15.19z"/>
		<path class="st0" d="M94.56,97.01H5.43c-1.69,0-2.41-0.72-2.41-2.42c0-18.3,0-36.6-0.02-54.89c0-0.91,0.34-1.59,1.05-2.14
			c4.89-3.71,9.77-7.42,14.63-11.17c0.06-0.06,0.16-0.32,0.17-0.52c0.02-1.97,0.02-3.93,0.02-5.91v-2.96
			c0.01-1.77,0.76-2.53,2.53-2.53h3.4c2.97,0.01,5.94,0.01,8.91-0.02c0.36,0,0.81-0.16,1.09-0.37c3.52-2.65,7.01-5.33,10.5-8l3-2.29
			c1.35-1.04,2.07-1.06,3.46,0.01l3.12,2.39c3.46,2.64,6.91,5.28,10.38,7.9c0.28,0.21,0.73,0.36,1.09,0.36
			c2.93,0.03,5.83,0.03,8.77,0.02h3.34c1.99,0,2.69,0.7,2.69,2.66l-0.01,2.2c0,2.19-0.01,4.38,0.03,6.57c0,0.19,0.16,0.48,0.26,0.57
			c2.24,1.73,4.49,3.45,6.74,5.17c2.6,1.99,5.2,3.98,7.79,5.98c0.58,0.44,1.01,1.31,1.01,2.03C97.01,54.29,97,68.96,97,83.63v11
			C97,96.3,96.27,97.01,94.56,97.01z M21.4,16c-0.92,0-0.98,0.07-0.99,1v2.96c0.01,1.97,0.01,3.95-0.02,5.93
			c-0.01,0.55-0.25,1.32-0.76,1.72c-4.86,3.75-9.75,7.48-14.64,11.18c-0.33,0.26-0.45,0.48-0.45,0.92C4.56,58,4.56,76.3,4.56,94.59
			c0,0.85,0.03,0.88,0.87,0.88h89.13c0.88,0,0.9-0.06,0.9-0.85v-11c0-14.66,0.01-29.33-0.02-43.99c0-0.24-0.21-0.66-0.41-0.81
			c-2.58-2-5.18-3.99-7.79-5.98c-2.25-1.72-4.5-3.44-6.74-5.17c-0.49-0.38-0.85-1.12-0.87-1.76c-0.04-2.2-0.03-4.4-0.03-6.6
			l0.01-2.19c0-1.07,0-1.12-1.15-1.12h-3.34c-2.93,0.01-5.86,0.01-8.78-0.02c-0.69-0.01-1.46-0.27-2-0.68
			c-3.47-2.62-6.94-5.26-10.39-7.91L50.81,5c-0.79-0.61-0.79-0.61-1.58-0.01l-3,2.3c-3.49,2.68-6.99,5.35-10.51,8
			c-0.55,0.42-1.31,0.67-2,0.68c-2.96,0.03-5.94,0.05-8.92,0.02H21.4z M93.14,94.32H6.72L38.78,67.9l0.47,0.3
			c2.36,1.49,4.64,2.43,6.96,2.86c4.94,0.94,9.56,0.12,13.76-2.41c0.64-0.38,1.41-0.66,2.37,0.13c6.95,5.76,13.93,11.5,20.89,17.25
			l7.59,6.26c0.14,0.11,0.28,0.24,0.46,0.4L93.14,94.32z M11.02,92.77H89l-6.75-5.56c-6.97-5.74-13.94-11.49-20.9-17.25
			c-0.24-0.2-0.23-0.2-0.58,0.01c-4.54,2.73-9.51,3.61-14.85,2.61c-2.35-0.45-4.65-1.36-7.01-2.78L11.02,92.77z M94.32,93.73
			L62.11,67.19l32.21-26.54V93.73z M64.53,67.19l28.25,23.27V43.91L64.53,67.19z M5.72,93.72V40.65l32.2,26.53L5.72,93.72z
			 M7.26,43.92v46.53L35.5,67.19L7.26,43.92z M50.05,70.39c-4.08,0-8.18-1.43-11.67-4.27C33.05,61.78,27.75,57.4,22.47,53
			c-0.44-0.36-0.92-1.09-0.93-1.82c-0.02-9.34-0.02-18.67-0.02-28v-4.67c0-0.12,0.01-0.24,0.02-0.41l0.07-0.95h56.81l0.05,1.05
			c0.02,0.23,0.03,0.46,0.03,0.68v5.35c0,8.91,0,17.82-0.02,26.74c0,0.58-0.19,1.4-0.71,1.84l-3.94,3.28
			c-4.18,3.5-8.51,7.13-12.9,10.52C57.67,69.14,53.87,70.39,50.05,70.39z M23.06,18.7v4.48c0,9.33,0,18.66,0.02,27.98
			c0,0.15,0.18,0.49,0.37,0.65c5.28,4.4,10.57,8.78,15.89,13.12c6.18,5.04,14.48,5.24,20.64,0.47c4.37-3.38,8.68-7,12.85-10.49
			l3.94-3.29c0.05-0.05,0.16-0.34,0.16-0.65c0.02-8.91,0.02-17.82,0.02-26.73v-5.35c0-0.06,0-0.13-0.01-0.19H23.06z M20.36,51.29
			L5.99,39.45l14.37-10.99V51.29z M8.47,39.49l10.35,8.53V31.58L8.47,39.49z M79.67,51.28V28.46l14.36,10.99L79.67,51.28z
			 M81.21,31.58v16.43l10.34-8.52L81.21,31.58z M62.62,15.96H39.01l-1.46-1.44l1.2-0.39c0.1-0.03,0.19-0.05,0.3-0.08
			c0.07-0.01,0.16-0.04,0.2-0.05c3.21-2.44,6.44-4.91,9.66-7.39c0.37-0.28,1.13-0.86,2.09-0.1c2.36,1.83,4.74,3.65,7.12,5.47
			l2.93,2.24c0.11,0.08,0.18,0.17,0.26,0.27L62.62,15.96z M41.25,14.41h17.5l-1.56-1.2c-2.38-1.82-4.76-3.64-7.13-5.48
			c-0.01-0.04-0.14,0.06-0.2,0.11C46.99,10.03,44.12,12.23,41.25,14.41z"/>
	</g>
	<g>
		<path class="st0" d="M49.91,30.17c-5.79,0-11.57,0-17.36,0c-0.32,0-0.72,0.11-0.93-0.05c-0.42-0.31-0.98-0.75-1.01-1.17
			c-0.03-0.42,0.45-0.96,0.84-1.28c0.24-0.2,0.73-0.13,1.11-0.13c11.63-0.01,23.27,0,34.9,0c0.25,0,0.51-0.02,0.76,0.02
			c0.76,0.1,1.23,0.52,1.25,1.31c0.02,0.74-0.52,1.28-1.35,1.29c-1.49,0.03-2.99,0.01-4.48,0.01
			C59.07,30.17,54.49,30.17,49.91,30.17z"/>
		<path class="st0" d="M31.97,30.98c-0.26,0-0.55-0.05-0.81-0.24c-0.65-0.48-1.26-1.02-1.32-1.73c-0.05-0.81,0.67-1.55,1.11-1.93
			c0.43-0.35,0.98-0.33,1.39-0.32l0.22,0.01l34.9,0c0.43,0.01,0.64,0,0.86,0.02c1.17,0.16,1.88,0.92,1.92,2.05
			c0.02,0.55-0.17,1.06-0.54,1.44c-0.39,0.41-0.95,0.64-1.57,0.65c-1.07,0.02-2.14,0.02-3.22,0.01l-32.36,0
			c-0.07,0-0.14,0.01-0.22,0.02C32.23,30.97,32.1,30.98,31.97,30.98z M31.38,28.94c0.04,0,0.17,0.17,0.67,0.54
			c-0.05-0.05,0.07-0.05,0.14-0.06c0.13-0.01,0.25-0.02,0.36-0.02l32.37,0c1.07,0,2.13,0,3.19-0.01c0.2,0,0.38-0.06,0.48-0.17
			c0.08-0.08,0.11-0.19,0.11-0.33c-0.01-0.28-0.05-0.5-0.58-0.57c-0.14-0.02-0.31-0.02-0.46-0.02l-35.1,0.01l-0.27-0.01
			c-0.14,0-0.36-0.01-0.43,0.01C31.59,28.57,31.4,28.86,31.38,28.94C31.38,28.94,31.38,28.94,31.38,28.94z"/>
	</g>
	<g>
		<path class="st0" d="M50.06,46.73c5.88,0,11.76,0,17.64,0.01c0.4,0,0.91,0.01,1.17,0.24c0.31,0.27,0.61,0.83,0.55,1.19
			c-0.08,0.41-0.51,0.83-0.9,1.07c-0.28,0.18-0.74,0.11-1.12,0.11c-11.6,0-23.2,0-34.8,0c-0.16,0-0.32,0-0.48,0
			c-1.03-0.04-1.62-0.55-1.58-1.38c0.03-0.8,0.58-1.24,1.6-1.24C38.11,46.73,44.09,46.73,50.06,46.73z"/>
		<path class="st0" d="M67.92,50.13c-0.1,0-0.2,0-0.3-0.01l-0.22-0.01l-34.8,0l-0.51,0c-0.7-0.03-1.26-0.23-1.67-0.59
			c-0.45-0.39-0.69-0.96-0.66-1.6c0.05-1.24,0.94-1.98,2.37-1.98l21.85,0c4.55,0,9.15-0.01,13.72,0.01c0.57,0,1.22,0.03,1.68,0.43
			c0.48,0.42,0.92,1.23,0.79,1.91c-0.16,0.84-0.99,1.43-1.25,1.58C68.61,50.1,68.25,50.13,67.92,50.13z M67.4,48.58l0.28,0.01
			c0.14,0.01,0.37,0.02,0.45-0.01c0.31-0.2,0.51-0.46,0.52-0.56c-0.01-0.06-0.14-0.33-0.3-0.46c-0.06-0.03-0.29-0.05-0.66-0.05
			c-4.58-0.02-9.16,0-13.72-0.01l-21.85,0c-0.8,0-0.82,0.3-0.82,0.51c-0.01,0.22,0.06,0.31,0.13,0.36c0.08,0.07,0.28,0.19,0.72,0.21
			l0.31,0L67.4,48.58z"/>
	</g>
	<g>
		<path class="st0" d="M49.99,39.76c-5.75,0-11.51,0-17.26,0c-0.32,0-0.64,0.01-0.95-0.02c-0.78-0.07-1.24-0.52-1.23-1.3
			c0.01-0.78,0.48-1.21,1.26-1.28c0.28-0.02,0.57-0.02,0.86-0.02c11.57,0,23.14,0,34.71,0c1.48,0,2.11,0.4,2.1,1.33
			c-0.01,0.92-0.63,1.3-2.13,1.3C61.56,39.76,55.78,39.76,49.99,39.76z"/>
		<path class="st0" d="M32.53,40.53c-0.33,0-0.57,0-0.81-0.02c-1.2-0.11-1.94-0.91-1.93-2.08c0.01-1.16,0.76-1.94,1.96-2.04
			c0.27-0.02,0.48-0.05,0.84-0.02h34.8c1.13,0,1.88,0.22,2.35,0.7c0.35,0.36,0.52,0.83,0.52,1.41c-0.02,2.06-2.19,2.06-2.9,2.06
			H32.74C32.67,40.53,32.59,40.53,32.53,40.53z M32.51,37.9c-0.24,0-0.44,0-0.63,0.02c-0.51,0.04-0.55,0.26-0.55,0.52
			c0,0.32,0.08,0.49,0.53,0.53c0.24,0.02,0.49,0.03,0.73,0.02h34.76c1.35,0,1.35-0.3,1.36-0.54c0.01-0.23-0.05-0.29-0.07-0.31
			c-0.06-0.06-0.31-0.24-1.26-0.24H32.67C32.61,37.9,32.56,37.9,32.51,37.9z"/>
	</g>
</g>
</svg>
