<?xml version="1.0" encoding="utf-8"?>
<!-- Generator: Adobe Illustrator 26.0.2, SVG Export Plug-In . SVG Version: 6.00 Build 0)  -->
<svg version="1.1" id="Layer_1" xmlns="http://www.w3.org/2000/svg" xmlns:xlink="http://www.w3.org/1999/xlink" x="0px" y="0px"
	 viewBox="0 0 200 200" style="enable-background:new 0 0 200 200;" xml:space="preserve">
<style type="text/css">
	.st0{fill:#FFFFFF;}
</style>
<g>
	<g>
		<path class="st0" d="M99.98,197.38c-31.28,0-62.57,0-93.85,0c-2.66,0-3.45-0.8-3.45-3.47c0-38.53,0-77.07-0.04-115.6
			c0-1.41,0.46-2.37,1.58-3.22c10.3-7.81,20.58-15.64,30.81-23.54c0.59-0.46,0.98-1.55,0.99-2.35c0.08-6.23,0.04-12.46,0.05-18.7
			c0-2.85,0.85-3.71,3.7-3.71c8.64-0.01,17.28,0.04,25.92-0.05c1.1-0.01,2.38-0.45,3.25-1.11c9.52-7.18,18.97-14.44,28.44-21.68
			c2.28-1.75,2.97-1.75,5.3,0.02c9.47,7.23,18.93,14.5,28.45,21.68c0.88,0.66,2.16,1.08,3.26,1.1c8.51,0.09,17.01,0.05,25.52,0.05
			c3.28,0,4.05,0.76,4.05,3.97c0.01,6.17-0.04,12.33,0.06,18.5c0.01,0.84,0.53,1.95,1.19,2.45c10.18,7.85,20.44,15.6,30.6,23.47
			c0.81,0.62,1.49,1.98,1.49,2.99c0.07,38.6,0.05,77.2,0.05,115.8c0,2.62-0.83,3.41-3.51,3.41
			C162.55,197.38,131.26,197.38,99.98,197.38z M41.72,32.46c-0.04,0.58-0.08,0.91-0.08,1.24c0,22.92-0.02,45.84,0.05,68.76
			c0,0.88,0.65,2.02,1.36,2.61c11.12,9.25,22.27,18.48,33.48,27.63c13.54,11.04,31.71,11.67,45.47,1.02
			c12.07-9.34,23.68-19.29,35.42-29.05c0.62-0.51,0.91-1.73,0.91-2.62c0.05-22.52,0.04-45.04,0.03-67.55c0-0.65-0.06-1.3-0.1-2.03
			C119.39,32.46,80.63,32.46,41.72,32.46z M186.54,191.7c-0.73-0.65-1.16-1.05-1.6-1.42c-20.01-16.49-40.02-32.96-59.99-49.5
			c-1.17-0.97-1.93-0.84-3.11-0.13c-9.35,5.63-19.42,7.31-30.13,5.28c-5.46-1.03-10.44-3.24-15.21-6.25
			c-20.95,17.26-41.85,34.48-63.12,52.01C71.3,191.7,128.68,191.7,186.54,191.7z M8.36,188.63c21.41-17.64,42.47-34.99,63.64-52.44
			c-21.28-17.53-42.33-34.88-63.64-52.43C8.36,118.86,8.36,153.53,8.36,188.63z M191.71,83.74c-21.39,17.63-42.44,34.97-63.67,52.46
			c21.24,17.5,42.31,34.85,63.67,52.44C191.71,153.49,191.71,118.87,191.71,83.74z M190.11,77.83c-8.77-6.71-17.3-13.24-26.01-19.9
			c0,13.9,0,27.44,0,41.33C172.87,92.04,181.37,85.03,190.11,77.83z M35.96,57.92c-8.84,6.76-17.33,13.26-26.03,19.91
			c8.68,7.15,17.24,14.21,26.03,21.44C35.96,85.32,35.96,71.84,35.96,57.92z M122.93,26.69c-0.39-0.44-0.5-0.61-0.65-0.73
			c-7.06-5.41-14.15-10.8-21.17-16.26c-1.03-0.8-1.62-0.38-2.41,0.22c-6.79,5.22-13.59,10.42-20.41,15.6
			c-0.39,0.3-0.98,0.34-1.48,0.5c0.23,0.22,0.47,0.45,0.7,0.67C92.53,26.69,107.56,26.69,122.93,26.69z"/>
		<path class="st0" d="M193.83,199H6.13c-3.56,0-5.07-1.52-5.07-5.1c0-38.53,0-77.06-0.03-115.59c-0.01-1.92,0.7-3.36,2.22-4.51
			c10.3-7.8,20.57-15.64,30.8-23.54c0.13-0.13,0.35-0.67,0.36-1.09c0.06-4.48,0.05-8.95,0.04-13.43V30.5
			c0.01-3.73,1.6-5.33,5.32-5.34h8.11c5.92-0.02,11.86,0.01,17.8-0.05c0.75-0.01,1.69-0.33,2.29-0.78
			c7.29-5.5,14.54-11.06,21.8-16.6l6.64-5.08c2.87-2.21,4.38-2.19,7.27,0.02l7.72,5.9c6.9,5.27,13.8,10.55,20.72,15.78
			c0.59,0.44,1.53,0.76,2.3,0.77c6.15,0.06,12.31,0.07,18.46,0.05h7.04c4.18,0,5.67,1.46,5.67,5.6l-0.01,4.46
			c-0.01,4.67-0.01,9.34,0.06,14c0.01,0.39,0.32,1.01,0.56,1.2c4.62,3.56,9.26,7.11,13.89,10.64c5.58,4.27,11.16,8.53,16.71,12.83
			c1.2,0.93,2.12,2.76,2.12,4.27c0.06,33.77,0.06,67.55,0.04,101.33v14.47C198.96,197.49,197.43,199,193.83,199z M39.77,28.41
			c-1.94,0.01-2.07,0.14-2.08,2.1v5.22c0.01,4.49,0.01,8.99-0.04,13.48c-0.02,1.16-0.53,2.78-1.62,3.62
			C25.8,60.73,15.51,68.57,5.21,76.38c-0.72,0.54-0.94,1.01-0.94,1.92C4.3,116.84,4.3,155.38,4.3,193.9c0,1.79,0.07,1.85,1.83,1.85
			h187.7c1.84,0,1.89-0.13,1.89-1.79V179.5c0.01-33.78,0.02-67.56-0.04-101.33c0-0.51-0.44-1.38-0.86-1.71
			c-5.55-4.3-11.13-8.56-16.7-12.82c-4.64-3.54-9.28-7.09-13.9-10.66c-1.03-0.81-1.8-2.36-1.82-3.72
			c-0.07-4.69-0.06-9.37-0.06-14.06l0.01-4.46c-0.01-2.26-0.01-2.35-2.43-2.35h-7.04c-6.16,0.01-12.33,0.01-18.51-0.05
			c-1.46-0.02-3.07-0.56-4.22-1.43c-6.94-5.23-13.84-10.51-20.74-15.79l-7.71-5.89c-1.69-1.28-1.67-1.28-3.33-0.03l-6.63,5.08
			c-7.26,5.55-14.52,11.11-21.81,16.62c-1.15,0.87-2.76,1.42-4.21,1.44c-5.95,0.06-11.91,0.03-17.84,0.05H39.77z M190.78,193.33
			H8.86l67.52-55.63l1,0.63c4.96,3.13,9.74,5.1,14.64,6.02c10.35,1.96,20.12,0.25,28.99-5.07c1.32-0.81,2.95-1.42,4.98,0.26
			c14.9,12.33,29.82,24.63,44.75,36.93l15.25,12.57c0.33,0.28,0.65,0.56,1.07,0.95L190.78,193.33z M17.9,190.09h164.24l-13.48-11.11
			c-14.93-12.3-29.86-24.6-44.76-36.94c-0.51-0.42-0.5-0.42-1.24,0.02c-9.55,5.76-20.05,7.62-31.27,5.49
			c-4.96-0.94-9.8-2.86-14.77-5.86L17.9,190.09z M193.33,192.08l-67.84-55.88l67.84-55.9V192.08z M130.6,136.19l59.49,49.01V87.18
			L130.6,136.19z M6.74,192.06V80.31l67.82,55.88L6.74,192.06z M9.99,87.2v97.99l59.46-49L9.99,87.2z M100.09,142.95
			c-8.6,0-17.23-3.01-24.58-9c-11.21-9.14-22.36-18.38-33.49-27.63c-0.93-0.78-1.93-2.32-1.95-3.85
			c-0.06-21.29-0.06-42.57-0.05-63.86V33.7c0-0.26,0.02-0.51,0.04-0.86l0.13-2h119.6l0.13,2.12c0.04,0.53,0.07,1.03,0.07,1.53
			c0.01,22.52,0.01,45.04-0.04,67.56c0,1.21-0.39,2.96-1.51,3.87l-8.25,6.9c-8.82,7.39-17.94,15.02-27.2,22.18
			C116.15,140.31,108.14,142.95,100.09,142.95z M43.27,34.09v4.53c-0.01,21.28-0.01,42.56,0.05,63.84c0,0.32,0.37,1.03,0.78,1.38
			c11.12,9.25,22.25,18.47,33.47,27.62c13.03,10.63,30.51,11.02,43.45,1c9.21-7.13,18.3-14.75,27.1-22.11l8.27-6.91
			c0.13-0.14,0.33-0.77,0.33-1.37c0.05-22.52,0.04-45.04,0.04-67.56c0-0.13-0.01-0.27-0.01-0.41H43.27z M37.59,102.72L7.32,77.79
			l30.27-23.15V102.72z M12.55,77.88l21.8,17.95V61.21L12.55,77.88z M162.48,102.71V54.65l30.24,23.14L162.48,102.71z M165.73,61.22
			v34.6l21.77-17.94L165.73,61.22z M126.53,28.31H76.86l-3.17-3.01l2.62-0.84c0.2-0.06,0.41-0.11,0.62-0.16
			c0.15-0.03,0.36-0.08,0.42-0.11c6.76-5.15,13.55-10.35,20.34-15.56c0.77-0.58,2.35-1.8,4.39-0.22c5.08,3.95,10.2,7.86,15.31,11.77
			l5.86,4.48c0.23,0.17,0.39,0.37,0.56,0.57L126.53,28.31z M81.57,25.06h36.84l-2.97-2.29c-5.12-3.92-10.24-7.84-15.33-11.79
			c-0.04-0.13-0.3,0.13-0.42,0.23C93.65,15.84,87.61,20.46,81.57,25.06z"/>
	</g>
	<g>
		<path class="st0" d="M99.81,58.25c-12.18,0-24.37,0-36.55,0c-0.67,0-1.53,0.22-1.97-0.1c-0.88-0.65-2.06-1.57-2.12-2.46
			c-0.06-0.88,0.94-2.02,1.76-2.71c0.5-0.42,1.54-0.27,2.33-0.27c24.5-0.01,49-0.01,73.5-0.01c0.54,0,1.08-0.03,1.6,0.04
			c1.59,0.22,2.58,1.09,2.63,2.76c0.05,1.55-1.1,2.69-2.84,2.72c-3.15,0.06-6.29,0.02-9.44,0.02
			C119.09,58.25,109.45,58.25,99.81,58.25z"/>
		<path class="st0" d="M62.03,59.95c-0.55,0-1.15-0.1-1.69-0.49c-1.3-0.97-2.68-2.12-2.78-3.66c-0.13-1.72,1.41-3.28,2.35-4.06
			c0.87-0.74,2.01-0.7,2.91-0.66l0.46,0.01c24.49-0.01,48.98-0.01,73.5-0.01c0.85-0.03,1.35-0.02,1.84,0.06
			c2.44,0.33,3.94,1.94,4.02,4.31c0.04,1.15-0.36,2.23-1.12,3.03c-0.82,0.86-2,1.34-3.31,1.37c-2.26,0.04-4.5,0.03-6.78,0.03
			l-68.16-0.01c-0.15,0-0.3,0.02-0.46,0.03C62.56,59.92,62.31,59.95,62.03,59.95z M60.79,55.66c0.07,0,0.39,0.37,1.42,1.15
			c-0.11-0.11,0.13-0.13,0.3-0.14c0.25-0.03,0.51-0.04,0.75-0.04l68.17,0.01c2.23-0.01,4.45,0.01,6.7-0.03
			c0.44-0.01,0.81-0.13,1.01-0.36c0.16-0.17,0.25-0.41,0.23-0.69c-0.02-0.59-0.12-1.05-1.22-1.2c-0.32-0.05-0.65-0.03-0.96-0.03
			l-0.43,0.01c-24.52,0-49.01-0.01-73.5,0.01l-0.58-0.01c-0.27-0.01-0.75-0.03-0.9,0.01C61.22,54.86,60.82,55.48,60.79,55.66
			C60.78,55.66,60.78,55.66,60.79,55.66z"/>
	</g>
	<g>
		<path class="st0" d="M100.13,93.11c12.38,0,24.77-0.01,37.15,0.02c0.84,0,1.91,0.02,2.46,0.51c0.65,0.58,1.29,1.74,1.15,2.5
			c-0.16,0.86-1.07,1.74-1.89,2.26c-0.6,0.38-1.56,0.23-2.35,0.23c-24.43,0.01-48.86,0.01-73.29,0.01c-0.33,0-0.67,0.01-1-0.01
			c-2.17-0.09-3.4-1.17-3.33-2.9c0.07-1.68,1.21-2.61,3.36-2.61C74.96,93.11,87.54,93.11,100.13,93.11z"/>
		<path class="st0" d="M137.76,100.28c-0.22,0-0.44-0.01-0.64-0.02l-0.48-0.01l-73.3,0.01l-1.07-0.01c-3.08-0.13-5-1.94-4.89-4.59
			c0.11-2.61,1.97-4.17,4.98-4.17l46.01-0.01c9.64,0,19.26-0.01,28.9,0.02c1.2,0,2.57,0.07,3.52,0.91c0.83,0.74,1.97,2.42,1.67,4.01
			c-0.33,1.77-2.09,3-2.62,3.33C139.19,100.2,138.45,100.28,137.76,100.28z M136.65,97.01l0.6,0.02c0.29,0,0.79,0.03,0.94-0.03
			c0.63-0.41,1.07-0.96,1.1-1.15c-0.02-0.13-0.3-0.7-0.63-0.99c-0.13-0.06-0.61-0.1-1.38-0.1c-9.64-0.03-19.3-0.04-28.9-0.02
			l-46.01,0.01c-1.69,0-1.72,0.63-1.74,1.06c-0.01,0.34-0.04,1.13,1.78,1.21l0.68,0.01L136.65,97.01z"/>
	</g>
	<g>
		<path class="st0" d="M99.98,78.44c-12.12,0-24.23,0-36.35,0c-0.67,0-1.34,0.02-2.01-0.05c-1.65-0.15-2.6-1.1-2.59-2.75
			c0.01-1.65,1.01-2.56,2.65-2.7c0.6-0.05,1.2-0.04,1.81-0.04c24.36,0,48.73,0,73.09,0c3.12,0,4.45,0.84,4.43,2.8
			c-0.02,1.94-1.32,2.74-4.48,2.74C124.35,78.44,112.16,78.44,99.98,78.44z"/>
		<path class="st0" d="M63.24,80.06c-0.71,0-1.24-0.01-1.76-0.06c-2.52-0.23-4.08-1.91-4.06-4.37c0.02-2.43,1.6-4.08,4.13-4.3
			c0.54-0.06,1.15-0.02,1.67-0.05h73.37c2.38,0,3.96,0.47,4.94,1.47c0.74,0.75,1.12,1.74,1.1,2.96c-0.04,4.35-4.6,4.35-6.11,4.35
			H63.64C63.5,80.06,63.37,80.06,63.24,80.06z M62.98,74.53c-0.46,0-0.8,0.01-1.14,0.04c-1.08,0.09-1.17,0.55-1.18,1.09
			c-0.01,0.67,0.16,1.03,1.12,1.12c0.52,0.06,1.05,0.05,1.57,0.04h73.19c2.85,0,2.85-0.63,2.86-1.13c0.01-0.48-0.12-0.6-0.16-0.65
			c-0.12-0.12-0.66-0.51-2.64-0.51h-73.1C63.31,74.53,63.14,74.53,62.98,74.53z"/>
	</g>
</g>
</svg>
