<?xml version="1.0" encoding="utf-8"?>
<!-- Generator: Adobe Illustrator 26.0.2, SVG Export Plug-In . SVG Version: 6.00 Build 0)  -->
<svg version="1.1" id="Layer_1" xmlns="http://www.w3.org/2000/svg" xmlns:xlink="http://www.w3.org/1999/xlink" x="0px" y="0px"
	 viewBox="0 0 100 100" style="enable-background:new 0 0 100 100;" xml:space="preserve">
<style type="text/css">
	.st0{fill:#909090;}
	.st1{fill:#FFFFFF;}
	.st2{fill:none;stroke:#909090;stroke-width:0.75;stroke-miterlimit:10;}
	.st3{fill:#909090;stroke:#909090;stroke-width:0.2;stroke-miterlimit:10;}
	.st4{fill:#909090;stroke:#909090;stroke-width:0.25;stroke-miterlimit:10;}
	.st5{fill:none;stroke:#909090;stroke-width:0.6;stroke-miterlimit:10;}
	.st6{fill:#909090;stroke:#909090;stroke-width:0.1;stroke-miterlimit:10;}
</style>
<g>
	<g>
		<path class="st1" d="M2,68c0.22-1,0.4-2.01,0.67-2.99C5.94,53.26,19.39,47.59,30.1,53.43c0.35,0.19,0.7,0.39,1.04,0.57
			C41.22,43.61,58,43.59,68.16,53.32c2.63-1.76,5.52-2.8,8.67-3.24c9.92-1.39,19.95,6.31,20.96,16.25c0.26,2.57,0.2,5.18,0.17,7.77
			c-0.02,1.87-1.53,3.42-3.39,3.68c-0.43,0.06-0.87,0.07-1.31,0.07c-5.31,0-10.62,0-15.94,0c-0.37,0-0.75,0-1.2,0
			c-0.02,0.33-0.05,0.6-0.06,0.86c-0.05,3.28-2.13,5.35-5.44,5.36c-4.19,0.01-8.37,0-12.56,0c-9.41,0-18.81,0-28.22,0
			c-3.62,0-5.37-1.45-6.01-5.04c-0.32,0-0.66,0-0.99,0c-5.25,0-10.5-0.06-15.75,0.03c-2.48,0.04-4.23-0.8-5.1-3.19
			C2,73.25,2,70.62,2,68z M50.01,80.95c6.87,0,13.75,0,20.62,0c1.64,0,2.33-0.69,2.35-2.33c0.01-0.94-0.02-1.87-0.01-2.81
			c0.03-3.28,0.12-6.56-0.78-9.77C68.68,53.41,55.4,46.28,42.9,50.31c-9.01,2.91-15.23,10.84-15.8,20.28
			c-0.16,2.61-0.07,5.24-0.09,7.86c-0.01,1.81,0.66,2.49,2.48,2.49C36.33,80.95,43.17,80.95,50.01,80.95z M76.12,74.71
			c0.2,0.02,0.35,0.04,0.5,0.04c2.62,0,5.25,0,7.87,0c3.03,0,6.06-0.01,9.09,0c0.71,0,1.32-0.16,1.3-0.98
			c-0.09-2.8,0.14-5.68-0.42-8.39c-1.7-8.13-9.49-13.35-17.73-12.16c-2.31,0.33-4.46,1.11-6.41,2.43
			C75.14,62.85,75.47,63.94,76.12,74.71z M29.1,56.5c-0.27-0.18-0.47-0.33-0.68-0.45c-8.97-4.87-20.61,0.27-22.82,10.24
			c-0.58,2.61-0.39,5.4-0.5,8.1c-0.05,1.33,0.18,1.51,1.52,1.51c5.44,0,10.87,0,16.31,0c0.3,0,0.61-0.03,1.07-0.06
			C23.44,68.79,24.74,62.24,29.1,56.5z"/>
	</g>
	<g>
		<path class="st1" d="M49.5,44.29C41.66,44.32,35.22,38,35.17,30.23c-0.05-7.88,6.33-14.29,14.26-14.32
			c7.87-0.03,14.3,6.32,14.33,14.15C63.79,37.88,57.4,44.25,49.5,44.29z M49.46,41.18c6.16,0,11.22-4.99,11.22-11.07
			c0-6.1-5.03-11.07-11.21-11.07c-6.17,0-11.23,4.98-11.23,11.06C38.23,36.17,43.31,41.19,49.46,41.18z"/>
	</g>
	<g>
		<path class="st1" d="M90.14,36.71c-0.01,6.06-5.06,11.04-11.16,11.01c-6.09-0.03-11.14-5.06-11.11-11.09
			c0.03-6.05,5.08-11.02,11.19-11C85.17,25.65,90.15,30.62,90.14,36.71z M79.02,44.59c4.43,0,8.05-3.57,8.03-7.93
			c-0.01-4.38-3.61-7.91-8.05-7.91c-4.45,0.01-8.02,3.53-8.01,7.93C70.99,41.07,74.57,44.59,79.02,44.59z"/>
	</g>
	<g>
		<path class="st1" d="M9.86,37.43c0-6.07,5.01-11.03,11.14-11.03c6.1,0,11.14,5.01,11.14,11.05c-0.01,6.04-5.06,11.04-11.16,11.03
			C14.86,48.47,9.86,43.5,9.86,37.43z M20.93,45.35c4.46,0.03,8.06-3.48,8.08-7.86c0.02-4.41-3.52-7.95-7.96-7.97
			c-4.45-0.02-8.04,3.46-8.1,7.85C12.89,41.71,16.5,45.33,20.93,45.35z"/>
	</g>
</g>
</svg>
