<?xml version="1.0" encoding="utf-8"?>
<!-- Generator: Adobe Illustrator 26.0.2, SVG Export Plug-In . SVG Version: 6.00 Build 0)  -->
<svg version="1.1" id="Layer_1" xmlns="http://www.w3.org/2000/svg" xmlns:xlink="http://www.w3.org/1999/xlink" x="0px" y="0px"
	 viewBox="0 0 200 200" style="enable-background:new 0 0 200 200;" xml:space="preserve">
<style type="text/css">
	.st0{fill:#FFFFFF;}
</style>
<g>
	<g>
		<path class="st0" d="M1,137.12c0.46-2.06,0.83-4.14,1.39-6.17c6.73-24.22,34.49-35.93,56.56-23.88c0.73,0.4,1.45,0.8,2.14,1.18
			c20.79-21.45,55.41-21.49,76.37-1.41c5.42-3.63,11.39-5.78,17.89-6.69c20.46-2.87,41.16,13.01,43.24,33.52
			c0.54,5.3,0.42,10.68,0.36,16.02c-0.05,3.87-3.16,7.05-7,7.6c-0.89,0.13-1.8,0.15-2.7,0.15c-10.96,0.01-21.91,0.01-32.87,0.01
			c-0.77,0-1.54,0-2.48,0c-0.05,0.68-0.11,1.23-0.12,1.78c-0.1,6.77-4.39,11.03-11.23,11.05c-8.64,0.03-17.27,0.01-25.91,0.01
			c-19.4,0-38.8,0-58.2,0c-7.46,0-11.08-2.99-12.4-10.39c-0.66,0-1.35,0-2.05,0c-10.83,0-21.66-0.13-32.48,0.06
			C6.4,160.03,2.8,158.29,1,153.36C1,147.95,1,142.54,1,137.12z M100.03,163.84c14.18,0,28.35,0,42.53,0c3.38,0,4.81-1.42,4.86-4.81
			c0.03-1.93-0.04-3.86-0.02-5.79c0.06-6.76,0.24-13.52-1.61-20.15c-7.26-26.06-34.64-40.77-60.44-32.44
			c-18.58,6-31.41,22.35-32.59,41.83c-0.33,5.39-0.13,10.81-0.18,16.22c-0.03,3.74,1.36,5.14,5.11,5.14
			C71.8,163.84,85.92,163.84,100.03,163.84z M153.87,150.96c0.42,0.04,0.72,0.09,1.03,0.09c5.41,0.01,10.82,0.01,16.24,0.01
			c6.25,0,12.5-0.01,18.75,0.01c1.45,0.01,2.73-0.33,2.68-2.03c-0.18-5.78,0.29-11.72-0.87-17.31
			c-3.51-16.77-19.58-27.54-36.57-25.09c-4.76,0.69-9.21,2.28-13.22,5.01C151.85,126.5,152.54,128.76,153.87,150.96z M56.9,113.41
			c-0.56-0.37-0.96-0.68-1.4-0.92c-18.5-10.04-42.5,0.56-47.06,21.12c-1.19,5.38-0.8,11.13-1.02,16.71
			c-0.11,2.74,0.37,3.11,3.13,3.11c11.21,0,22.43,0,33.64,0c0.62,0,1.25-0.06,2.21-0.11C45.22,138.76,47.9,125.25,56.9,113.41z"/>
	</g>
	<g>
		<path class="st0" d="M98.96,88.21c-16.16,0.07-29.45-12.97-29.55-28.98c-0.1-16.26,13.06-29.47,29.41-29.52
			c16.23-0.06,29.5,13.04,29.56,29.19C128.45,75.01,115.27,88.14,98.96,88.21z M98.89,81.82c12.71,0,23.14-10.29,23.14-22.84
			c0-12.57-10.38-22.83-23.13-22.83c-12.73,0-23.16,10.27-23.16,22.81C75.73,71.48,86.2,81.82,98.89,81.82z"/>
	</g>
	<g>
		<path class="st0" d="M182.79,72.59c-0.02,12.49-10.43,22.76-23.02,22.71c-12.57-0.05-22.98-10.44-22.91-22.87
			c0.06-12.48,10.48-22.72,23.07-22.69C172.54,49.78,182.81,60.04,182.79,72.59z M159.86,88.84c9.14,0,16.59-7.36,16.57-16.35
			c-0.03-9.03-7.45-16.32-16.61-16.31c-9.18,0.01-16.53,7.28-16.53,16.35C143.3,81.58,150.68,88.85,159.86,88.84z"/>
	</g>
	<g>
		<path class="st0" d="M17.22,74.07c0.01-12.52,10.34-22.75,22.97-22.75c12.58,0,22.98,10.33,22.97,22.8
			c-0.01,12.47-10.44,22.77-23.02,22.75C27.52,96.85,17.21,86.59,17.22,74.07z M40.04,90.42c9.19,0.06,16.63-7.17,16.67-16.2
			c0.04-9.09-7.25-16.39-16.42-16.44c-9.17-0.05-16.59,7.14-16.71,16.2C23.46,82.91,30.91,90.36,40.04,90.42z"/>
	</g>
</g>
</svg>
