<?xml version="1.0" encoding="utf-8"?>
<!-- Generator: Adobe Illustrator 26.0.2, SVG Export Plug-In . SVG Version: 6.00 Build 0)  -->
<svg version="1.1" id="Layer_1" xmlns="http://www.w3.org/2000/svg" xmlns:xlink="http://www.w3.org/1999/xlink" x="0px" y="0px"
	 viewBox="0 0 200 200" style="enable-background:new 0 0 200 200;" xml:space="preserve">
<style type="text/css">
	.st0{fill:#FFFFFF;}
</style>
<g>
	<g>
		<g>
			<path class="st0" d="M154.25,199h-0.01c-21.91-0.03-39.98-17.88-40.29-39.79c-0.05-22.55,17.97-40.63,40.15-40.67
				c0.03,0,0.05,0,0.08,0c10.72,0,20.8,4.17,28.4,11.72c7.61,7.59,11.82,17.68,11.84,28.43c0.03,10.75-4.14,20.86-11.73,28.47
				C175.1,194.78,165,198.99,154.25,199z M154.17,126.49c-0.02,0-0.04,0-0.06,0c-17.8,0.04-32.25,14.55-32.22,32.35
				c0.25,17.86,14.77,32.2,32.36,32.22c8.62-0.03,16.72-3.39,22.8-9.49c6.09-6.12,9.43-14.23,9.42-22.84
				c-0.02-8.63-3.4-16.74-9.5-22.82C170.87,129.82,162.78,126.49,154.17,126.49z"/>
		</g>
		<g id="Path_66_00000064325166674903901460000008233758402586529682_">
			<path class="st0" d="M145.69,167.31c-3.53,0-6.83,0-10.14,0c-2.81,0-3.91-1.12-3.92-3.96c0-2.74-0.02-5.47,0-8.21
				c-0.22-1.75,1.02-3.35,2.77-3.57c0.28-0.04,0.57-0.03,0.85,0.01c3.41-0.03,6.83,0,10.43,0c0-3.32,0-6.5,0-9.67
				c0-2.94,1.08-4.02,4.02-4.02c2.57,0,5.14,0,7.71,0c3.06,0,4.03,0.97,4.03,3.96c0,3.18,0,6.36,0,9.73c3.37,0,6.61,0,9.85,0
				c2.81,0,3.85,1.03,3.86,3.79c0,2.85,0.03,5.7,0,8.55c0.2,1.68-1,3.2-2.68,3.4c-0.24,0.03-0.48,0.03-0.71,0
				c-3.31,0.04-6.62,0.03-9.94,0.05c-0.13,0.04-0.26,0.09-0.38,0.16c0,3.01,0,6.11,0,9.24c0,3.82-0.76,4.59-4.59,4.59
				c-2.34,0-4.68,0-7.02,0c-3.08,0-4.14-1.05-4.15-4.08C145.69,174.02,145.69,170.78,145.69,167.31z M156.67,176.48
				c0-3.38,0-6.62,0-9.86c0-3.06,1.05-4.08,4.13-4.09c1.31,0,2.63,0,3.94,0h5.55v-6.17h-6.73c-6.88,0-6.88-0.02-6.88-6.81v-6.76
				h-6.17c0,3.32,0,6.5,0,9.7c0,2.81-1.03,3.84-3.79,3.86c-1.71,0-3.44,0-5.14,0h-5.03v6.16c3.44,0,6.8,0,10.15,0
				c2.77,0,3.8,1.04,3.82,3.82c0,3.35,0,6.7,0,10.12L156.67,176.48z"/>
		</g>
	</g>
	<g>
		<g>
			<path class="st0" d="M109.75,185.85H80.52c-0.57,0-1.24,0.1-1.24-0.86c0.1-3.07-0.38-6.13,0.29-9.1
				c3.45-15.81,7.09-31.53,10.64-47.34c2.59-11.4,6.13-22.71,4.98-34.69c-0.1-0.86,0.1-1.72,0-2.59c-0.1-1.15,0.29-1.92,1.15-2.78
				c4.02-4.02,6.8-8.82,7.76-14.47c1.34-8.34,0.48-16.68,0.48-25.11c0.1-1.73-1.34-2.68-3.07-2.78c-1.53,0-3.07-0.1-4.51,0
				c-5.56,0.38-9.2-2.2-11.4-7.09c-0.38-0.77-0.77-1.44-1.44-1.92c-1.82-1.15-3.74-0.38-4.79,1.92c-2.11,4.6-5.37,7.28-10.73,7.09
				c-5.75-0.1-11.4,0-17.06,0c-2.88,0-4.03,1.15-4.03,4.02v18.59c0.1,6.04,1.53,11.98,5.66,16.39c3.45,3.74,4.41,7.57,3.93,12.27
				c-0.1,0.57-0.1,1.25,0,1.82c0.1,2.97-0.38,5.94,0.29,8.91c4.02,17.92,8.15,35.84,12.17,53.86c1.63,7.28,4.02,14.57,3.45,22.23
				c-0.19,1.25-0.38,1.63-1.72,1.63H36.44c-1.44,0-1.63-0.48-1.63-1.72c0.09-4.5,0.09-8.91,0.09-13.42
				c-0.09-2.68-1.15-3.93-3.16-3.93c-2.11,0-3.26,1.25-3.26,3.83c0,4.5,0,9.01,0.1,13.51c0,1.44-0.48,1.82-1.82,1.72
				c-4.12-0.1-8.34-0.1-12.46,0c-1.34,0-1.72-0.29-1.72-1.63c0.1-13.61-0.1-27.22,0.1-40.83c0.19-15.53,11.79-29.52,26.83-32.87
				c1.34-0.29,1.73-0.1,1.73,1.34c-0.1,7.48,0,14.86,0,22.23c0,1.05-0.29,1.63-1.25,2.2c-3.16,1.63-4.89,4.31-5.08,7.86
				c-0.29,4.7,3.07,8.72,7.67,9.78c4.41,0.86,9.01-1.63,10.73-6.04c1.63-4.22-0.1-9.01-4.12-11.5c-0.77-0.48-1.73-0.67-1.63-2.01
				c0.1-7.86,0-15.62,0-23.38c0-0.86,0.19-1.25,1.06-1.53c1.72-0.48,2.4-1.92,2.11-3.55c-0.29-1.82-1.53-2.59-3.26-2.59
				c-2.3-0.1-4.6,0.1-6.9,0.57c-20.6,3.93-34.21,20.51-34.31,41.5v42.07c0,3.83,0.96,4.7,4.7,4.7H115.7
				C113.49,190.26,111.48,188.15,109.75,185.85z M44.39,141.39c1.72,0,3.16,1.44,3.16,3.16s-1.34,3.16-3.07,3.16
				c-1.72,0.1-3.16-1.25-3.26-2.97C41.13,142.92,42.57,141.39,44.39,141.39z M53.98,69.32c-0.19-5.17,0-10.25-0.1-15.33
				c0-1.25,0.38-1.53,1.53-1.53c4.7,0.1,9.3,0,13.9,0c4.89,0.1,8.91-1.53,12.17-5.08c0.58-0.67,0.96-1.25,1.82-0.29
				c3.45,4.02,7.86,5.65,13.03,5.37c1.72-0.1,2.11,0.48,2.11,2.11c-0.19,2.49-0.1,4.98-0.1,8.05c-0.1,3.45,0.29,7.38-0.67,11.31
				C94.9,84.56,84.74,91.74,74.01,90.5C62.79,89.25,54.26,80.34,53.98,69.32z M63.46,105.16V93.95c8.53,4.03,16.87,3.93,25.4,0.1
				v11.31c0,0.67-0.48,1.15-0.77,1.72c-5.08,7.67-18.69,7.67-23.86,0.1C63.85,106.5,63.46,105.93,63.46,105.16z M66.15,117.04
				c6.61,2.78,13.23,2.87,20.22-0.19c-3.36,14.95-6.71,29.52-10.06,44.37C75.54,159.4,66.34,119.73,66.15,117.04z M105.25,103.34
				c-2.2,0-3.45,0.77-3.64,2.49c-0.29,1.82,0.38,3.16,2.21,3.64c0.67,0.29,0.96,0.57,0.96,1.25c-0.1,6.8-0.1,13.61-0.1,20.41
				c0,0.67-0.19,1.05-0.86,1.25c-8.91,3.55-12.27,8.72-11.79,18.31c0.1,2.11,1.25,3.35,3.07,3.45c2.01,0,3.16-1.25,3.26-3.55v-2.97
				c0.1-3.83,2.3-7,5.46-8.53c1.82-4.12,4.31-8.05,7.19-11.4c0.1-5.27,0.1-10.54,0-15.81c0-1.44,0.48-1.63,1.72-1.34
				c4.7,1.05,9.01,3.16,12.75,5.94c2.11-1.15,4.31-2.01,6.61-2.68C124.8,107.27,115.22,103.24,105.25,103.34z"/>
			<path class="st0" d="M117.47,192.84H10.95c-4.16,0-5.36-1.2-5.36-5.36v-42.08c0.1-21.25,14.1-38.18,34.85-42.14
				c2.35-0.49,4.72-0.72,7.06-0.58c2.17,0,3.56,1.11,3.88,3.14c0.36,2.06-0.65,3.75-2.59,4.28c-0.5,0.17-0.57,0.26-0.57,0.89
				c0,2.59,0.01,5.16,0.03,7.75c0.02,5.11,0.04,10.4-0.03,15.65c-0.05,0.67,0.17,0.81,0.85,1.18c0.16,0.08,0.32,0.17,0.47,0.27
				c4.28,2.64,6.12,7.81,4.39,12.29c-1.84,4.68-6.63,7.41-11.49,6.44c-5.06-1.15-8.5-5.55-8.2-10.45c0.21-3.78,2.09-6.69,5.44-8.42
				c0.69-0.4,0.89-0.75,0.89-1.6c0-2.46-0.01-4.92-0.03-7.37c-0.02-4.85-0.04-9.88,0.03-14.88c0-0.63-0.09-0.76-0.1-0.78
				c-0.01,0.01-0.19-0.05-0.83,0.09c-14.8,3.3-26.12,17.15-26.31,32.23c-0.11,7.77-0.09,15.68-0.08,23.32
				c0.01,5.83,0.03,11.67-0.02,17.5c0,0.89,0,0.97,1.07,0.97c4.13-0.1,8.32-0.1,12.48,0c0.67-0.01,0.87-0.04,0.95-0.13
				c0.07-0.06,0.19-0.27,0.19-0.94c-0.1-4.49-0.1-9.08-0.1-13.5c0-3.92,2.46-4.5,3.92-4.5c1.67,0,3.69,0.79,3.82,4.57
				c0,4.62,0,8.95-0.09,13.45c0,1,0,1.06,0.97,1.06h34.88c0.91,0,0.91-0.03,1.07-1.07c0.45-5.98-1-11.9-2.4-17.62
				c-0.36-1.46-0.72-2.91-1.04-4.37c-2.22-9.95-4.48-19.87-6.73-29.78c-1.82-8.03-3.64-16.07-5.45-24.08
				c-0.47-2.06-0.4-4.11-0.34-6.11c0.03-0.97,0.06-1.95,0.03-2.92c-0.1-0.57-0.1-1.31,0.01-1.95c0.49-4.81-0.63-8.32-3.76-11.71
				C48.97,81.56,47,75.9,46.9,68.76V50.14c0-3.23,1.44-4.68,4.68-4.68c3.73-0.01,7.46-0.05,11.32-0.04c1.91,0,3.83,0,5.74,0.04
				c0.17,0,0.35,0.01,0.52,0.01c4.46,0,7.52-2.15,9.6-6.71c0.64-1.4,1.62-2.35,2.76-2.7c0.98-0.27,2.02-0.12,2.99,0.5
				c0.84,0.6,1.29,1.4,1.68,2.17c2.21,4.89,5.73,7.05,10.77,6.73c0.99-0.05,2.02-0.05,3.02-0.03c0.5,0.01,1.02,0.03,1.53,0.03
				c2.35,0.14,3.84,1.54,3.73,3.48c0,2.33,0.07,4.7,0.14,7.06c0.17,5.94,0.35,12.07-0.63,18.11c-0.93,5.51-3.6,10.5-7.95,14.84
				c-0.78,0.79-1.03,1.38-0.96,2.26c0.05,0.47,0.03,0.93,0,1.38c-0.02,0.39-0.05,0.79,0,1.18c0.97,10.09-1.37,19.79-3.63,29.17
				c-0.47,1.91-0.92,3.83-1.36,5.74c-1.24,5.5-2.48,10.97-3.72,16.44c-2.3,10.12-4.67,20.58-6.92,30.9c-0.43,1.9-0.37,3.83-0.3,5.87
				c0.03,1.03,0.06,2.07,0.03,3.12c0,0.13,0.03,0.18,0.03,0.18c0.03,0,0.27,0,0.41,0h29.71l0.2,0.26c1.62,2.16,3.59,4.26,5.85,6.22
				L117.47,192.84z M46.28,103.98c-1.86,0-3.73,0.19-5.58,0.58c-20.11,3.84-33.69,20.26-33.79,40.85v42.08
				c0,3.43,0.61,4.04,4.04,4.04h103.03c-1.71-1.6-3.23-3.29-4.55-5.01h-28.9c-0.54-0.03-1.1,0.01-1.51-0.39
				c-0.27-0.27-0.4-0.65-0.4-1.14c0.03-1.03,0-2.04-0.03-3.05c-0.06-2.03-0.13-4.14,0.34-6.2c2.25-10.32,4.62-20.79,6.92-30.9
				c1.24-5.47,2.49-10.96,3.72-16.44c0.44-1.93,0.9-3.84,1.36-5.77c2.24-9.27,4.55-18.86,3.6-28.72c-0.05-0.48-0.03-0.94,0-1.4
				c0.02-0.39,0.05-0.79,0-1.18c-0.11-1.29,0.28-2.25,1.34-3.32c4.15-4.14,6.69-8.9,7.58-14.13c0.96-5.91,0.78-11.98,0.61-17.85
				c-0.07-2.38-0.14-4.76-0.14-7.14c0.08-1.46-1.21-2.04-2.44-2.12c-0.49,0.01-1-0.01-1.51-0.01c-1.02-0.03-1.98-0.04-2.91,0.01
				c-0.37,0.03-0.74,0.04-1.1,0.04c-5.02,0-8.7-2.52-10.95-7.52c-0.33-0.65-0.65-1.24-1.22-1.64c-0.61-0.4-1.26-0.53-1.88-0.32
				c-0.77,0.22-1.46,0.92-1.93,1.97c-2.3,5.03-5.84,7.49-10.8,7.49c-0.18,0-0.37,0-0.56-0.01c-3.8-0.04-7.65-0.03-11.38-0.01
				c-1.89,0-3.77,0.01-5.65,0.01c-2.51,0-3.36,0.85-3.36,3.36v18.6c0.1,6.8,1.95,12.16,5.48,15.94c3.36,3.65,4.63,7.59,4.1,12.78
				c-0.09,0.56-0.09,1.14-0.01,1.66c0.04,1.09,0.01,2.1-0.02,3.09c-0.06,1.99-0.13,3.88,0.3,5.78c1.8,8.02,3.62,16.04,5.45,24.07
				c2.25,9.91,4.5,19.83,6.73,29.79c0.32,1.45,0.68,2.9,1.03,4.35c1.42,5.82,2.9,11.84,2.43,18.08c-0.24,1.54-0.65,2.24-2.39,2.24
				H36.44c-1.91,0-2.29-0.88-2.29-2.39c0.09-4.51,0.09-8.83,0.09-13.41c-0.1-2.9-1.38-3.27-2.5-3.27c-1.11,0-2.6,0.34-2.6,3.18
				c0,4.42,0,8.99,0.1,13.49c0,0.63-0.06,1.42-0.61,1.93c-0.53,0.5-1.3,0.54-1.91,0.48c-4.09-0.09-8.28-0.09-12.39,0
				c-1.49,0-2.41-0.38-2.41-2.29c0.04-5.83,0.03-11.67,0.01-17.49c-0.01-7.66-0.03-15.57,0.08-23.36
				c0.19-15.66,11.95-30.07,27.35-33.5c0.67-0.16,1.42-0.26,1.95,0.18c0.51,0.41,0.58,1.11,0.58,1.81c-0.06,4.99-0.04,10-0.02,14.85
				c0.01,2.47,0.02,4.93,0.02,7.39c0,1.32-0.44,2.1-1.57,2.77c-2.99,1.54-4.58,4-4.76,7.33c-0.26,4.26,2.76,8.07,7.16,9.08
				c4.15,0.8,8.37-1.54,9.97-5.63c1.5-3.88-0.12-8.38-3.85-10.68c-0.13-0.09-0.27-0.16-0.39-0.23c-0.66-0.35-1.66-0.87-1.55-2.41
				c0.06-5.2,0.04-10.48,0.02-15.57c-0.01-2.59-0.02-5.17-0.02-7.76c0-1,0.25-1.75,1.51-2.16c1.86-0.52,1.78-2.12,1.66-2.79
				c-0.22-1.37-1.07-2.04-2.61-2.04C47.07,103.99,46.67,103.98,46.28,103.98z M76.49,163.4l-0.8-1.91
				c-0.87-2.08-10.03-41.91-10.21-44.39l-0.08-1.09l1,0.43c6.61,2.77,13.05,2.72,19.7-0.19l1.2-0.52l-0.28,1.27
				c-1.92,8.56-3.84,16.98-5.76,25.42c-1.44,6.3-2.87,12.61-4.31,18.96L76.49,163.4z M66.98,118.09c1.11,5.96,7.12,32.2,9.25,40.46
				c1.24-5.5,2.49-10.97,3.73-16.44c1.82-8.02,3.65-16.04,5.48-24.16C79.24,120.38,73.17,120.42,66.98,118.09z M95.09,154.79
				c-2.23-0.1-3.62-1.63-3.73-4.07c-0.49-9.8,3.05-15.3,12.2-18.96c0.34-0.09,0.45-0.12,0.45-0.62c0-6.69,0-13.61,0.1-20.42
				c0-0.27,0-0.39-0.56-0.62c-1.97-0.5-2.95-2.11-2.6-4.36c0.15-1.37,1.02-3.04,4.29-3.04l0,0c0.13,0,0.26,0,0.38,0
				c9.71,0,19.24,3.75,26.89,10.61l0.89,0.79l-1.14,0.34c-2.4,0.7-4.51,1.57-6.48,2.64l-0.37,0.21l-0.34-0.26
				c-3.86-2.87-8.06-4.84-12.5-5.83c-0.66-0.16-0.79-0.08-0.8-0.08l0,0c0,0-0.12,0.13-0.12,0.78c0.1,5.24,0.1,10.57,0,15.82v0.23
				l-0.16,0.18c-2.88,3.38-5.33,7.26-7.08,11.25l-0.1,0.22l-0.22,0.1c-3.06,1.49-5.01,4.53-5.1,7.94v2.96
				C98.9,153.26,97.47,154.79,95.09,154.79z M105.25,104.01c-2.46,0-2.88,1.01-2.98,1.9c-0.25,1.62,0.31,2.56,1.71,2.92
				c0.8,0.34,1.45,0.78,1.45,1.89c-0.1,6.8-0.1,13.72-0.1,20.41c0,0.38,0,1.51-1.35,1.88c-8.58,3.43-11.76,8.38-11.31,17.64
				c0.08,1.75,0.94,2.74,2.44,2.82c1.64,0,2.48-0.96,2.57-2.91v-2.95c0.1-3.84,2.24-7.27,5.61-9.02c1.77-3.95,4.2-7.8,7.04-11.16
				c0.1-5.16,0.09-10.39,0-15.55c0-0.63,0.06-1.4,0.61-1.82c0.54-0.43,1.24-0.31,1.93-0.18c4.48,1.01,8.74,2.98,12.66,5.82
				c1.62-0.87,3.34-1.58,5.22-2.2c-7.17-6.05-16.25-9.49-25.14-9.49C105.49,104.01,105.37,104.01,105.25,104.01L105.25,104.01z
				 M44.29,148.39c-0.91,0-1.8-0.35-2.49-0.98c-0.74-0.69-1.18-1.62-1.23-2.63c-0.06-1.07,0.31-2.08,1.05-2.86
				c0.72-0.76,1.71-1.19,2.77-1.19c2.08,0,3.82,1.75,3.82,3.82c0,2.11-1.68,3.83-3.73,3.83C44.42,148.37,44.36,148.39,44.29,148.39z
				 M44.4,142.05c-0.69,0-1.34,0.28-1.82,0.78c-0.48,0.5-0.72,1.18-0.69,1.88c0.04,0.67,0.32,1.28,0.8,1.72
				c0.49,0.44,1.14,0.62,1.76,0.63c1.36,0,2.44-1.13,2.44-2.51C46.9,143.19,45.75,142.05,44.4,142.05z M76.14,113.5
				c-5.26,0-9.91-2.22-12.46-5.95l-0.16-0.27c-0.36-0.62-0.72-1.25-0.72-2.12V92.89l0.94,0.45c8.21,3.87,16.34,3.93,24.84,0.09
				l0.93-0.41v12.33c0,0.66-0.32,1.18-0.58,1.59c-0.09,0.14-0.18,0.27-0.25,0.43c-2.54,3.83-7.16,6.09-12.41,6.13
				C76.24,113.5,76.19,113.5,76.14,113.5z M64.12,94.98v10.18c0,0.5,0.25,0.93,0.55,1.46l0.14,0.23c2.28,3.32,6.52,5.33,11.34,5.33
				c0.04,0,0.08,0,0.12,0c4.82-0.04,9.03-2.08,11.28-5.47c0.05-0.12,0.16-0.3,0.27-0.48c0.23-0.38,0.38-0.61,0.38-0.88v-10.3
				C79.99,98.5,72.1,98.47,64.12,94.98z M76.42,91.3c-0.83,0-1.66-0.05-2.5-0.14c-11.65-1.31-20.31-10.49-20.61-21.83
				c-0.11-2.94-0.1-5.89-0.08-8.73c0.01-2.2,0.03-4.4-0.02-6.6c0-1.58,0.63-2.21,2.2-2.21c3.14,0.05,6.27,0.03,9.29,0.03
				c1.68-0.01,3.39,0.01,5.03-0.03c4.57,0,8.25-1.59,11.26-4.86c0.44-0.52,0.85-1,1.47-1.01c0.01,0,0.01,0,0.03,0
				c0.58,0,1.02,0.41,1.3,0.72c3.22,3.76,7.38,5.45,12.5,5.15c0.73-0.08,1.57,0,2.15,0.54c0.58,0.54,0.65,1.4,0.65,2.22
				c-0.14,1.88-0.12,3.67-0.11,5.77c0.01,0.74,0.01,1.49,0.01,2.29c-0.03,0.92-0.01,1.84-0.01,2.79c0.02,2.66,0.05,5.69-0.69,8.67
				C95.66,84.27,86.5,91.3,76.42,91.3z M55.4,53.11c-0.79,0-0.87,0.03-0.87,0.88c0.05,2.2,0.04,4.41,0.03,6.62
				c-0.01,2.83-0.03,5.77,0.08,8.68v0.01c0.28,10.67,8.45,19.31,19.43,20.54c0.79,0.09,1.57,0.14,2.35,0.14
				c9.49,0,18.11-6.64,20.61-16.23c0.69-2.81,0.67-5.61,0.64-8.33c-0.01-0.97-0.01-1.91,0.01-2.82c0-0.78-0.01-1.54-0.01-2.26
				c-0.02-2.12-0.04-3.96,0.11-5.83c0-0.65-0.08-1.05-0.25-1.22c-0.16-0.16-0.54-0.17-1.17-0.18c-5.58,0.35-10.13-1.57-13.57-5.6
				c-0.22-0.23-0.33-0.27-0.33-0.27c-0.03,0.04-0.24,0.28-0.38,0.45l-0.1,0.12c-3.29,3.58-7.29,5.32-12.24,5.32
				c-1.62-0.03-3.34-0.01-5.03,0.01C61.69,53.16,58.55,53.18,55.4,53.11z"/>
		</g>
		<g>
			<path class="st0" d="M31.69,69.42c0-7.67-0.01-15.34,0-23.01c0.05-22.26,15.62-40.56,37.59-44.2
				c24.62-4.09,48.32,13.95,50.95,38.8c0.17,1.58,0.32,3.16,0.32,4.74c0.03,16.47,0.02,32.93,0.02,49.4c0,2.65-1.19,4-3.37,3.88
				c-1.69-0.09-2.68-1.02-2.93-2.68c-0.1-0.65-0.05-1.32-0.05-1.98c0-16.07,0.05-32.14-0.02-48.21
				c-0.07-17.93-11.82-32.79-29.19-37.07c-23.56-5.8-46.78,12.12-46.96,36.37c-0.12,16.27-0.03,32.54-0.03,48.8
				c0,0.66,0.03,1.33-0.03,1.98c-0.18,1.78-1.43,2.91-3.17,2.89c-1.75-0.01-3.03-1.14-3.11-2.94c-0.09-2.18-0.03-4.36-0.03-6.55
				C31.69,82.91,31.69,76.17,31.69,69.42z"/>
			<path class="st0" d="M34.86,99.8c-0.01,0-0.02,0-0.03,0c-2.16-0.01-3.67-1.45-3.76-3.57c-0.07-1.6-0.06-3.22-0.05-4.79l0.01-1.79
				l-0.01-26.81c0-5.48-0.01-10.97,0.01-16.44C31.09,23.72,46.77,5.27,69.17,1.55c11.91-1.9,24.38,1.19,34.22,8.67
				c9.85,7.49,16.23,18.69,17.51,30.73c0.16,1.54,0.32,3.17,0.32,4.8c0.03,16.47,0.03,32.93,0.02,49.4c0,1.64-0.42,2.87-1.25,3.65
				c-0.7,0.67-1.63,1.03-2.82,0.89c-1.99-0.1-3.25-1.25-3.55-3.23c-0.08-0.54-0.07-1.07-0.06-1.58l0.01-0.5l0.01-14.06
				c0.01-11.37,0.02-22.75-0.03-34.15c-0.06-17.58-11.6-32.21-28.69-36.42C73.78,6.99,62.21,9.5,53.12,16.58
				c-9.06,7.04-14.31,17.57-14.4,28.88c-0.08,11.29-0.06,22.77-0.04,33.86c0.01,4.98,0.01,9.96,0.01,14.94l0.01,0.49
				c0.01,0.52,0.01,1.05-0.04,1.55C38.45,98.4,36.93,99.8,34.86,99.8z M76.2,2.3c-2.28,0-4.55,0.19-6.81,0.57
				C47.64,6.48,32.4,24.38,32.35,46.41c-0.01,5.48-0.01,10.96-0.01,16.44l-0.01,28.61c-0.01,1.54-0.02,3.14,0.05,4.72
				c0.06,1.41,1,2.29,2.46,2.3c0.01,0,0.01,0,0.03,0c1.38,0,2.33-0.88,2.48-2.3c0.05-0.47,0.04-0.93,0.03-1.41v-0.5
				c0-4.98-0.01-9.96-0.02-14.94c-0.02-11.1-0.05-22.57,0.05-33.86c0.09-11.73,5.52-22.64,14.9-29.93
				c9.43-7.33,21.41-9.91,32.88-7.09c17.69,4.37,29.62,19.52,29.69,37.72c0.05,11.38,0.04,22.77,0.03,34.15l-0.02,14.59
				c-0.01,0.48-0.02,0.93,0.05,1.35c0.21,1.37,0.94,2.04,2.32,2.12c0.79-0.01,1.41-0.14,1.84-0.53c0.56-0.52,0.83-1.42,0.84-2.69
				c0.01-16.47,0.01-32.93-0.02-49.4c0-1.55-0.16-3.16-0.32-4.67c-1.24-11.67-7.43-22.53-16.99-29.8C94.91,5.43,85.57,2.3,76.2,2.3z
				"/>
		</g>
	</g>
</g>
</svg>
