<?xml version="1.0" encoding="utf-8"?>
<!-- Generator: Adobe Illustrator 26.0.2, SVG Export Plug-In . SVG Version: 6.00 Build 0)  -->
<svg version="1.1" id="Layer_1" xmlns="http://www.w3.org/2000/svg" xmlns:xlink="http://www.w3.org/1999/xlink" x="0px" y="0px"
	 viewBox="0 0 100 100" style="enable-background:new 0 0 100 100;" xml:space="preserve">
<style type="text/css">
	.st0{fill:#909090;}
	.st1{fill:none;stroke:#909090;stroke-width:0.75;stroke-miterlimit:10;}
	.st2{fill:#909090;stroke:#909090;stroke-width:0.2;stroke-miterlimit:10;}
	.st3{fill:#909090;stroke:#909090;stroke-width:0.25;stroke-miterlimit:10;}
	.st4{fill:none;stroke:#909090;stroke-width:0.6;stroke-miterlimit:10;}
	.st5{fill:#909090;stroke:#909090;stroke-width:0.1;stroke-miterlimit:10;}
</style>
<g>
	<g>
		<g>
			<path class="st0" d="M74.71,95.1H74.7c-9.97-0.01-18.21-8.15-18.35-18.12c-0.03-10.27,8.18-18.51,18.28-18.53
				c0.01,0,0.03,0,0.04,0c4.88,0,9.47,1.89,12.93,5.34c3.46,3.46,5.38,8.05,5.39,12.95C93.02,86.85,84.82,95.08,74.71,95.1z
				 M74.68,62.07c-0.01,0-0.02,0-0.03,0c-8.11,0.02-14.69,6.63-14.68,14.73c0.12,8.13,6.73,14.66,14.74,14.68
				c8.11-0.02,14.69-6.63,14.68-14.73c-0.01-3.93-1.54-7.62-4.33-10.39C82.28,63.59,78.59,62.07,74.68,62.07z"/>
		</g>
		<g id="Path_66_00000049901190217464220360000010368826504120808895_">
			<path class="st0" d="M70.81,80.66c-1.61,0-3.11,0-4.62,0c-1.28,0-1.78-0.51-1.79-1.8c0-1.25-0.01-2.49,0-3.74
				c-0.1-0.8,0.46-1.53,1.26-1.63c0.13-0.02,0.26-0.02,0.39,0c1.55-0.01,3.11,0,4.75,0c0-1.51,0-2.96,0-4.4
				c0-1.34,0.49-1.83,1.83-1.83c1.17,0,2.34,0,3.51,0c1.39,0,1.83,0.44,1.84,1.8c0,1.45,0,2.9,0,4.43c1.54,0,3.01,0,4.49,0
				c1.28,0,1.75,0.47,1.76,1.73c0,1.3,0.01,2.6,0,3.9c0.09,0.76-0.45,1.46-1.22,1.55c-0.11,0.01-0.22,0.01-0.33,0
				c-1.51,0.02-3.02,0.02-4.53,0.02c-0.06,0.02-0.12,0.04-0.17,0.07c0,1.37,0,2.79,0,4.21c0,1.74-0.35,2.09-2.09,2.09
				c-1.07,0-2.13,0-3.2,0c-1.4,0-1.89-0.48-1.89-1.86C70.81,83.72,70.81,82.24,70.81,80.66z M75.81,84.84c0-1.54,0-3.02,0-4.49
				c0-1.39,0.48-1.86,1.88-1.86c0.6,0,1.2,0,1.79,0h2.53v-2.81h-3.06c-3.13,0-3.13-0.01-3.13-3.1v-3.08h-2.81c0,1.51,0,2.96,0,4.42
				c0,1.28-0.47,1.75-1.73,1.76c-0.78,0-1.57,0-2.34,0h-2.29v2.81c1.57,0,3.1,0,4.63,0c1.26,0,1.73,0.48,1.74,1.74
				c0,1.52,0,3.05,0,4.61L75.81,84.84z"/>
		</g>
	</g>
	<g>
		<g>
			<path class="st0" d="M54.44,89.11H41.13c-0.26,0-0.57,0.04-0.57-0.39c0.04-1.4-0.17-2.79,0.13-4.15
				c1.57-7.2,3.23-14.36,4.84-21.56c1.18-5.19,2.79-10.35,2.27-15.8c-0.04-0.39,0.04-0.79,0-1.18c-0.04-0.52,0.13-0.87,0.52-1.27
				c1.83-1.83,3.1-4.02,3.54-6.59c0.61-3.8,0.22-7.6,0.22-11.44c0.04-0.79-0.61-1.22-1.4-1.27c-0.7,0-1.4-0.04-2.05,0
				c-2.53,0.17-4.19-1-5.19-3.23c-0.17-0.35-0.35-0.65-0.65-0.87c-0.83-0.52-1.7-0.17-2.18,0.87c-0.96,2.1-2.44,3.32-4.89,3.23
				c-2.62-0.04-5.19,0-7.77,0c-1.31,0-1.83,0.52-1.83,1.83v8.47c0.04,2.75,0.7,5.46,2.58,7.46c1.57,1.7,2.01,3.45,1.79,5.59
				c-0.04,0.26-0.04,0.57,0,0.83c0.04,1.35-0.17,2.71,0.13,4.06c1.83,8.16,3.71,16.33,5.54,24.53c0.74,3.32,1.83,6.63,1.57,10.13
				c-0.09,0.57-0.17,0.74-0.79,0.74H21.05c-0.66,0-0.74-0.22-0.74-0.79c0.04-2.05,0.04-4.06,0.04-6.11
				c-0.04-1.22-0.52-1.79-1.44-1.79c-0.96,0-1.48,0.57-1.48,1.75c0,2.05,0,4.1,0.04,6.15c0,0.65-0.22,0.83-0.83,0.79
				c-1.88-0.04-3.8-0.04-5.67,0c-0.61,0-0.79-0.13-0.79-0.74c0.04-6.2-0.04-12.4,0.04-18.6c0.09-7.07,5.37-13.44,12.22-14.97
				c0.61-0.13,0.79-0.04,0.79,0.61c-0.04,3.4,0,6.77,0,10.13c0,0.48-0.13,0.74-0.57,1c-1.44,0.74-2.23,1.96-2.31,3.58
				c-0.13,2.14,1.4,3.97,3.49,4.45c2.01,0.39,4.1-0.74,4.89-2.75c0.74-1.92-0.04-4.1-1.88-5.24c-0.35-0.22-0.79-0.31-0.74-0.92
				c0.04-3.58,0-7.12,0-10.65c0-0.39,0.09-0.57,0.48-0.7c0.79-0.22,1.09-0.87,0.96-1.62c-0.13-0.83-0.7-1.18-1.48-1.18
				c-1.05-0.04-2.1,0.04-3.14,0.26c-9.38,1.79-15.58,9.34-15.63,18.9v19.16c0,1.75,0.44,2.14,2.14,2.14h47.71
				C56.14,91.12,55.23,90.16,54.44,89.11z M24.67,68.85c0.79,0,1.44,0.65,1.44,1.44c0,0.79-0.61,1.44-1.4,1.44
				c-0.79,0.04-1.44-0.57-1.48-1.35C23.19,69.55,23.84,68.85,24.67,68.85z M29.04,36.03c-0.09-2.36,0-4.67-0.04-6.98
				c0-0.57,0.17-0.7,0.7-0.7c2.14,0.04,4.23,0,6.33,0c2.23,0.04,4.06-0.7,5.54-2.31c0.26-0.31,0.44-0.57,0.83-0.13
				c1.57,1.83,3.58,2.58,5.94,2.44c0.79-0.04,0.96,0.22,0.96,0.96c-0.09,1.13-0.04,2.27-0.04,3.67c-0.04,1.57,0.13,3.36-0.31,5.15
				c-1.27,4.85-5.89,8.12-10.78,7.55C33.05,45.11,29.17,41.05,29.04,36.03z M33.36,52.35v-5.11c3.89,1.83,7.68,1.79,11.57,0.04v5.15
				c0,0.31-0.22,0.52-0.35,0.79c-2.31,3.49-8.51,3.49-10.87,0.04C33.53,52.97,33.36,52.7,33.36,52.35z M34.58,57.77
				c3.01,1.27,6.02,1.31,9.21-0.09c-1.53,6.81-3.06,13.44-4.58,20.21C38.86,77.06,34.67,58.99,34.58,57.77z M52.39,51.53
				c-1,0-1.57,0.35-1.66,1.13c-0.13,0.83,0.17,1.44,1,1.66c0.3,0.13,0.44,0.26,0.44,0.57c-0.04,3.1-0.04,6.2-0.04,9.3
				c0,0.31-0.09,0.48-0.39,0.57c-4.06,1.62-5.59,3.97-5.37,8.34c0.04,0.96,0.57,1.53,1.4,1.57c0.92,0,1.44-0.57,1.48-1.62v-1.35
				c0.04-1.75,1.05-3.19,2.49-3.89c0.83-1.88,1.96-3.67,3.27-5.19c0.04-2.4,0.04-4.8,0-7.2c0-0.65,0.22-0.74,0.79-0.61
				c2.14,0.48,4.1,1.44,5.81,2.71c0.96-0.52,1.96-0.92,3.01-1.22C61.29,53.32,56.93,51.48,52.39,51.53z"/>
			<path class="st0" d="M57.96,92.29H9.44C7.55,92.29,7,91.74,7,89.85V70.69c0.04-9.68,6.42-17.39,15.87-19.2
				c1.07-0.22,2.14-0.32,3.21-0.27c1,0,1.63,0.51,1.77,1.43c0.17,0.94-0.29,1.71-1.18,1.95c-0.23,0.08-0.26,0.12-0.26,0.41
				c0,1.18,0.01,2.35,0.01,3.53c0.01,2.32,0.02,4.73-0.01,7.12c-0.02,0.31,0.08,0.37,0.38,0.53c0.07,0.04,0.15,0.08,0.22,0.12
				c1.94,1.21,2.79,3.56,2,5.61c-0.82,2.1-3.06,3.36-5.23,2.93c-2.3-0.53-3.87-2.53-3.74-4.76c0.09-1.72,0.95-3.04,2.48-3.83
				c0.31-0.19,0.4-0.34,0.4-0.74c0-1.12-0.01-2.24-0.01-3.36c-0.01-2.22-0.02-4.5,0.01-6.78c0-0.29-0.04-0.35-0.05-0.36l0,0
				c0,0-0.08-0.02-0.38,0.04c-6.75,1.5-11.9,7.81-11.98,14.68c-0.05,3.57-0.04,7.21-0.04,10.72c0.01,2.62,0.01,5.25-0.01,7.87
				c0,0.4,0,0.44,0.48,0.44c1.88-0.05,3.8-0.05,5.68,0c0.29,0.02,0.4-0.02,0.44-0.06c0.04-0.03,0.09-0.13,0.09-0.43
				c-0.05-2.05-0.05-4.14-0.05-6.16c0-1.78,1.12-2.04,1.79-2.04c0.77,0,1.69,0.36,1.74,2.08c0,2.1,0,4.07-0.04,6.13
				c0,0.45,0,0.48,0.44,0.48h15.89c0.41,0,0.42-0.02,0.49-0.49c0.21-2.72-0.45-5.41-1.09-8.02c-0.16-0.67-0.33-1.33-0.48-2
				c-1-4.5-2.02-8.98-3.04-13.46c-0.84-3.69-1.67-7.38-2.5-11.07c-0.21-0.94-0.18-1.88-0.15-2.79c0.02-0.44,0.03-0.88,0.02-1.32
				c-0.05-0.25-0.05-0.6,0.01-0.89c0.22-2.19-0.29-3.79-1.72-5.33c-1.71-1.83-2.6-4.41-2.65-7.66V27.3c0-1.48,0.66-2.13,2.13-2.13
				c1.71,0,3.42-0.02,5.16-0.02c0.87,0,1.74,0.01,2.62,0.02c0.08,0,0.15,0,0.23,0c2.03,0,3.42-0.98,4.38-3.06
				c0.29-0.64,0.74-1.07,1.25-1.23c0.43-0.12,0.91-0.05,1.36,0.22c0.39,0.28,0.6,0.66,0.77,1c1.01,2.22,2.63,3.22,4.9,3.06
				c0.45-0.03,0.92-0.02,1.38-0.01c0.23,0.01,0.47,0.01,0.7,0.01c0.58,0.03,1.06,0.24,1.36,0.57c0.24,0.27,0.36,0.62,0.34,1.01
				c0,1.06,0.04,2.14,0.06,3.21c0.08,2.7,0.16,5.5-0.28,8.25c-0.42,2.51-1.64,4.78-3.62,6.75c-0.35,0.36-0.47,0.62-0.44,1.03
				c0.02,0.22,0.01,0.43,0,0.64c-0.01,0.18-0.02,0.35,0,0.53c0.44,4.6-0.62,9.02-1.66,13.29c-0.21,0.87-0.42,1.74-0.62,2.61
				c-0.57,2.54-1.14,5.07-1.72,7.61c-1.04,4.57-2.11,9.29-3.12,13.96c-0.19,0.86-0.17,1.74-0.14,2.66c0.02,0.47,0.03,0.95,0.01,1.43
				c0,0.06,0.01,0.09,0.01,0.09c0.02,0,0.12,0,0.19,0h13.53l0.09,0.12c0.75,1,1.65,1.95,2.67,2.84L57.96,92.29z M25.55,51.82
				c-0.85,0-1.71,0.09-2.57,0.27C13.82,53.83,7.64,61.31,7.6,70.69v19.16c0,1.56,0.28,1.84,1.84,1.84h46.93
				c-0.77-0.72-1.47-1.49-2.07-2.28H41.13c-0.25,0.04-0.5,0.01-0.69-0.18c-0.12-0.12-0.18-0.29-0.18-0.52c0.01-0.47,0-0.94-0.01-1.4
				c-0.03-0.92-0.06-1.88,0.15-2.81c1.01-4.66,2.09-9.39,3.12-13.96c0.58-2.53,1.15-5.06,1.72-7.6c0.2-0.87,0.41-1.75,0.62-2.62
				c1.02-4.23,2.07-8.6,1.64-13.09c-0.02-0.21-0.01-0.42,0-0.62c0.01-0.19,0.02-0.38,0-0.55c-0.05-0.6,0.13-1.03,0.61-1.51
				c1.89-1.89,3.05-4.05,3.45-6.43c0.43-2.7,0.35-5.46,0.27-8.14c-0.03-1.08-0.06-2.16-0.06-3.25c0.01-0.24-0.05-0.44-0.19-0.59
				c-0.19-0.22-0.52-0.35-0.92-0.37c-0.2-0.04-0.46-0.01-0.69-0.01c-0.46-0.01-0.9-0.02-1.33,0.01c-0.16,0.01-0.33,0.02-0.49,0.02
				c-2.29,0-3.97-1.15-5-3.43c-0.16-0.34-0.31-0.58-0.55-0.75c-0.28-0.18-0.57-0.23-0.85-0.14c-0.35,0.1-0.66,0.42-0.87,0.9
				c-1.05,2.29-2.67,3.41-4.93,3.41c-0.08,0-0.16,0-0.25-0.01c-1.74-0.03-3.49-0.02-5.18-0.01c-0.86,0.01-1.72,0.01-2.57,0.01
				c-1.14,0-1.53,0.39-1.53,1.53v8.47c0.05,3.1,0.88,5.54,2.49,7.26c1.54,1.66,2.12,3.46,1.87,5.82c-0.05,0.25-0.05,0.52-0.01,0.75
				c0.02,0.5,0.01,0.95-0.01,1.41c-0.03,0.91-0.05,1.77,0.14,2.64c0.82,3.69,1.67,7.38,2.5,11.07c1.02,4.48,2.03,8.97,3.04,13.47
				c0.15,0.66,0.31,1.32,0.47,1.98c0.65,2.65,1.32,5.39,1.11,8.23c-0.11,0.7-0.3,1.02-1.09,1.02H21.05c-0.87,0-1.04-0.4-1.04-1.09
				c0.04-2.06,0.04-4.03,0.04-6.11c-0.05-1.31-0.6-1.49-1.14-1.49c-0.51,0-1.18,0.15-1.18,1.44c0,2.01,0,4.1,0.05,6.15
				c0,0.29-0.03,0.65-0.28,0.88c-0.25,0.23-0.62,0.22-0.87,0.22c-1.87-0.04-3.78-0.04-5.65,0c-0.68,0-1.09-0.17-1.09-1.04
				c0.02-2.62,0.01-5.25,0.01-7.87c-0.01-3.52-0.02-7.16,0.04-10.73c0.09-7.14,5.44-13.7,12.45-15.26c0.3-0.07,0.64-0.12,0.89,0.08
				c0.24,0.19,0.27,0.51,0.27,0.82c-0.02,2.27-0.02,4.56-0.01,6.77c0,1.12,0.01,2.24,0.01,3.36c0,0.6-0.2,0.95-0.71,1.26
				c-1.36,0.7-2.09,1.82-2.17,3.34c-0.12,1.94,1.25,3.68,3.26,4.14c1.86,0.36,3.82-0.73,4.54-2.56c0.68-1.77-0.05-3.82-1.75-4.88
				c-0.06-0.04-0.12-0.07-0.18-0.1c-0.3-0.16-0.75-0.4-0.7-1.09c0.02-2.37,0.02-4.77,0.01-7.09c0-1.18-0.01-2.35-0.01-3.53
				c0-0.45,0.11-0.79,0.68-0.99c0.86-0.24,0.82-0.97,0.77-1.28c-0.1-0.63-0.49-0.93-1.19-0.93C25.89,51.82,25.72,51.82,25.55,51.82z
				 M39.3,78.86l-0.37-0.86c-0.39-0.92-4.57-19.07-4.65-20.22l-0.04-0.49l0.45,0.19c3.02,1.26,5.96,1.24,8.97-0.09l0.55-0.24
				l-0.13,0.58c-0.82,3.64-1.63,7.22-2.45,10.8c-0.71,3.13-1.42,6.25-2.13,9.41L39.3,78.86z M34.96,58.24
				c0.51,2.72,3.25,14.68,4.22,18.43c0.62-2.76,1.25-5.51,1.88-8.26c0.77-3.39,1.54-6.79,2.32-10.23
				C40.55,59.29,37.79,59.31,34.96,58.24z M47.76,74.96c-1.02-0.05-1.65-0.75-1.7-1.86c-0.22-4.47,1.38-6.97,5.56-8.63
				c0.16-0.05,0.21-0.07,0.21-0.29c0-3.05,0-6.2,0.04-9.3c0-0.13,0-0.18-0.25-0.29c-0.9-0.23-1.35-0.96-1.19-1.98
				c0.07-0.63,0.47-1.39,1.96-1.39l0,0c0.05,0,0.11,0,0.16,0c4.42,0,8.77,1.71,12.26,4.84l0.41,0.36l-0.52,0.15
				c-1.1,0.32-2.06,0.71-2.95,1.2l-0.17,0.09l-0.15-0.11c-1.77-1.31-3.68-2.2-5.7-2.65c-0.3-0.07-0.36-0.04-0.37-0.04
				c0,0-0.05,0.06-0.05,0.35c0.04,2.39,0.04,4.81,0,7.21v0.11l-0.07,0.08c-1.3,1.51-2.42,3.28-3.23,5.12l-0.05,0.1l-0.1,0.05
				c-1.39,0.68-2.28,2.07-2.32,3.62v1.35C49.5,74.27,48.84,74.96,47.76,74.96z M52.39,51.83c-1.12,0-1.31,0.47-1.36,0.87
				c-0.11,0.73,0.14,1.17,0.78,1.33c0.37,0.15,0.66,0.35,0.66,0.86c-0.04,3.1-0.04,6.25-0.04,9.3c0,0.29-0.06,0.7-0.61,0.86
				c-3.91,1.56-5.36,3.81-5.15,8.03c0.04,0.8,0.43,1.25,1.11,1.29c0.73,0,1.13-0.45,1.17-1.33v-1.34c0.04-1.75,1.02-3.31,2.56-4.11
				c0.82-1.82,1.92-3.58,3.21-5.09c0.04-2.35,0.04-4.73,0-7.08c0-0.29,0.03-0.64,0.28-0.83c0.24-0.19,0.55-0.16,0.88-0.08
				c2.03,0.46,3.98,1.35,5.76,2.64c0.74-0.39,1.52-0.72,2.38-1c-3.28-2.76-7.41-4.33-11.47-4.33C52.5,51.83,52.44,51.83,52.39,51.83
				L52.39,51.83z M24.62,72.04c-0.41,0-0.8-0.15-1.12-0.43c-0.34-0.31-0.55-0.74-0.57-1.21c-0.02-0.48,0.15-0.96,0.48-1.3
				c0.33-0.35,0.78-0.54,1.25-0.54c0.96,0,1.74,0.78,1.74,1.74s-0.76,1.74-1.7,1.74C24.69,72.04,24.66,72.04,24.62,72.04z
				 M24.67,69.16c-0.31,0-0.6,0.13-0.82,0.35c-0.22,0.23-0.34,0.54-0.32,0.86c0.02,0.31,0.15,0.59,0.38,0.79
				c0.2,0.18,0.46,0.28,0.72,0.28c0.02,0,0.05,0,0.06,0c0.62,0,1.11-0.51,1.11-1.14C25.81,69.68,25.29,69.16,24.67,69.16z
				 M39.13,56.16c-2.39,0-4.51-1.01-5.67-2.71l-0.06-0.09c-0.16-0.29-0.34-0.59-0.34-0.99v-5.59l0.43,0.2
				c3.74,1.77,7.44,1.78,11.31,0.04l0.42-0.19v5.61c0,0.3-0.14,0.52-0.26,0.72c-0.04,0.06-0.08,0.13-0.12,0.2
				c-1.15,1.75-3.26,2.78-5.66,2.8C39.17,56.16,39.16,56.16,39.13,56.16z M33.66,47.72v4.64c0,0.24,0.12,0.44,0.27,0.69l0.04,0.08
				c1.04,1.52,2.98,2.43,5.17,2.43c0.02,0,0.04,0,0.06,0c2.19-0.01,4.11-0.95,5.13-2.49c0.02-0.05,0.08-0.14,0.13-0.22
				c0.11-0.17,0.17-0.28,0.17-0.4v-4.69C40.88,49.32,37.29,49.31,33.66,47.72z M39.26,46.04c-0.38,0-0.75-0.02-1.14-0.06
				c-5.31-0.59-9.26-4.77-9.39-9.94l0,0c-0.05-1.36-0.04-2.71-0.04-4.02c0.01-0.99,0.01-1.98-0.01-2.97c0-0.72,0.29-1,1-1
				c1.43,0.03,2.86,0.02,4.24,0.01c0.76-0.01,1.54-0.01,2.28-0.01c2.09,0,3.77-0.73,5.14-2.22c0.2-0.24,0.38-0.45,0.67-0.46
				c0.01,0,0.01,0,0.01,0c0.27,0,0.47,0.19,0.59,0.33c1.47,1.71,3.35,2.47,5.7,2.34c0.33-0.02,0.71-0.01,0.98,0.24
				c0.27,0.25,0.3,0.64,0.3,1.02c-0.06,0.84-0.05,1.65-0.05,2.59c0.01,0.34,0.01,0.7,0.01,1.08c-0.01,0.42-0.01,0.85-0.01,1.29
				c0.01,1.27,0.02,2.58-0.31,3.93C48.02,42.83,43.85,46.04,39.26,46.04z M29.68,28.65c-0.36,0-0.39,0-0.39,0.4
				c0.02,0.99,0.01,1.98,0.01,2.98c-0.01,1.3-0.01,2.65,0.04,3.99v0c0.13,4.86,3.85,8.8,8.86,9.36c0.35,0.04,0.71,0.06,1.07,0.06
				c4.32,0,8.25-3.02,9.39-7.39c0.31-1.27,0.3-2.55,0.29-3.77c-0.01-0.45-0.01-0.89,0.01-1.31c0-0.37-0.01-0.72-0.01-1.06
				c-0.01-0.95-0.02-1.78,0.05-2.62c0-0.29-0.04-0.48-0.11-0.55c-0.08-0.07-0.29-0.09-0.53-0.08c-0.18,0.01-0.35,0.01-0.52,0.01
				c-2.3,0-4.2-0.86-5.66-2.56c-0.1-0.11-0.15-0.13-0.15-0.13c-0.02,0.01-0.11,0.13-0.18,0.2v0.01l-0.05,0.05
				c-1.49,1.62-3.32,2.42-5.58,2.42c-0.74-0.01-1.51,0.01-2.28,0.01C32.55,28.67,31.11,28.68,29.68,28.65z"/>
		</g>
		<g>
			<path class="st0" d="M18.88,36.08c0-3.49-0.01-6.99,0-10.48C18.91,15.46,26,7.12,36.01,5.46c11.21-1.86,22.01,6.35,23.21,17.67
				c0.08,0.72,0.15,1.44,0.15,2.16c0.01,7.5,0.01,15,0.01,22.5c0,1.21-0.54,1.82-1.53,1.77c-0.77-0.04-1.22-0.47-1.34-1.22
				c-0.05-0.29-0.02-0.6-0.02-0.9c0-7.32,0.02-14.64-0.01-21.96c-0.03-8.17-5.39-14.94-13.3-16.89
				c-10.73-2.64-21.31,5.52-21.39,16.57c-0.06,7.41-0.01,14.82-0.01,22.23c0,0.3,0.02,0.6-0.01,0.9c-0.08,0.81-0.65,1.32-1.44,1.32
				c-0.8-0.01-1.38-0.52-1.42-1.34c-0.04-0.99-0.02-1.99-0.02-2.98C18.88,42.22,18.88,39.15,18.88,36.08z"/>
			<path class="st0" d="M20.33,49.91c-0.01,0-0.01,0-0.01,0c-0.98-0.01-1.67-0.66-1.71-1.63c-0.03-0.73-0.03-1.48-0.02-2.2
				l0.01-0.79V32.58c-0.01-2.33-0.01-4.66,0-6.99c0.03-10.34,7.18-18.74,17.38-20.43c5.41-0.9,11.09,0.54,15.58,3.94
				c4.49,3.41,7.39,8.51,7.98,13.99c0.08,0.74,0.15,1.46,0.15,2.19c0.01,7.5,0.01,15,0.01,22.5c0,0.75-0.19,1.3-0.56,1.66
				c-0.32,0.3-0.73,0.45-1.29,0.41c-0.9-0.05-1.48-0.57-1.62-1.47c-0.03-0.24-0.03-0.48-0.02-0.72l0.01-0.24
				c-0.01-2.61,0-5.23,0-7.84c0.01-4.7,0.01-9.41-0.01-14.11c-0.03-8.01-5.28-14.68-13.06-16.6c-5.03-1.23-10.32-0.1-14.47,3.13
				c-4.12,3.21-6.51,8-6.55,13.15c-0.04,5.15-0.03,10.39-0.02,15.46c0.01,2.26,0.01,4.51,0.01,6.77l0.01,0.24
				c0,0.23,0.01,0.46-0.02,0.69C21.97,49.28,21.27,49.91,20.33,49.91z M39.16,5.51c-1.04,0-2.07,0.08-3.1,0.25
				c-9.9,1.64-16.84,9.8-16.87,19.84c0,2.33,0,4.66,0,6.99v13.51c-0.01,0.72-0.01,1.45,0.02,2.17c0.03,0.64,0.45,1.04,1.11,1.05
				c0.01,0,0.01,0,0.01,0c0.64,0,1.07-0.4,1.14-1.05c0.02-0.21,0.02-0.42,0.01-0.62v-0.25c0-2.25-0.01-4.51-0.01-6.76
				c-0.01-5.07-0.02-10.31,0.02-15.47c0.04-5.34,2.51-10.3,6.78-13.62c4.3-3.34,9.77-4.52,14.98-3.23
				c8.06,1.99,13.49,8.89,13.52,17.18c0.02,4.7,0.02,9.41,0.01,14.11c0,2.62,0,5.23,0,7.84v0.25c-0.01,0.22-0.01,0.42,0.02,0.61
				c0.09,0.62,0.43,0.92,1.05,0.96c0.34,0,0.64-0.06,0.84-0.25c0.25-0.24,0.38-0.65,0.38-1.22c0.01-7.5,0.01-15-0.01-22.5
				c0-0.7-0.07-1.41-0.15-2.13c-0.57-5.32-3.39-10.27-7.74-13.58C47.68,6.93,43.43,5.51,39.16,5.51z"/>
		</g>
	</g>
</g>
</svg>
