<?xml version="1.0" encoding="utf-8"?>
<!-- Generator: Adobe Illustrator 26.0.2, SVG Export Plug-In . SVG Version: 6.00 Build 0)  -->
<svg version="1.1" id="Layer_1" xmlns="http://www.w3.org/2000/svg" xmlns:xlink="http://www.w3.org/1999/xlink" x="0px" y="0px"
	 viewBox="0 0 200 200" style="enable-background:new 0 0 200 200;" xml:space="preserve">
<style type="text/css">
	.st0{fill:#FFFFFF;}
</style>
<g>
	<g>
		<path class="st0" d="M154.31,152.98v-1.53c0-3.61,0.03-7.21,0-10.81c0.06-2.27-1.72-4.16-3.99-4.22
			c-2.27-0.06-4.16,1.72-4.22,3.99c0,0.08,0,0.16,0,0.23c-0.04,5.5-0.04,10.99,0,16.49c-0.05,2.2,1.69,4.02,3.89,4.06
			c0.03,0,0.06,0,0.09,0c5.58,0.05,11.16,0.05,16.74,0c1.7,0.03,3.22-1.06,3.73-2.68c0.79-2.11-0.27-4.45-2.38-5.25
			c-0.49-0.19-1.02-0.27-1.55-0.26c-4.03-0.05-8.06,0-12.3,0"/>
	</g>
	<g>
		<path class="st0" d="M100.06,67.56c-29.55,0-59.09,0.02-88.64-0.04c-1.78,0-2.35,0.36-2.35,2.27c0.07,32.39,0.05,64.77,0.05,97.16
			c0,7.02,3.91,10.95,10.88,10.95c29.28,0,58.55,0,87.83,0c0.68,0,1.36-0.04,2.03,0.02c1.81,0.16,3.06,1.46,3.1,3.15
			c0.04,1.76-1.26,3.13-3.17,3.3c-0.47,0.04-0.95,0.02-1.42,0.02c-29.55,0-59.09,0.01-88.64,0c-10.17,0-17.1-6.89-17.1-17.03
			c-0.01-42.73-0.01-85.46,0-128.2c0-10.15,6.92-17.03,17.08-17.05c4.6-0.01,9.2-0.04,13.79,0.02c1.22,0.02,1.62-0.28,1.62-1.57
			c-0.02-2.56-0.28-5.13,0.28-7.68c1.43-6.45,7.36-10.83,13.89-10.21c6.51,0.62,11.57,6.04,11.75,12.63c0.05,1.76,0.06,3.52,0,5.27
			c-0.04,1.06,0.16,1.56,1.4,1.56c7.71-0.05,15.42-0.05,23.12,0c1.15,0.01,1.48-0.33,1.49-1.48c0-2.49-0.28-5.01,0.23-7.48
			c1.36-6.62,7.24-11.06,13.86-10.49c6.58,0.57,11.68,6.05,11.83,12.75c0.04,1.76,0.05,3.52,0,5.27c-0.03,0.99,0.19,1.44,1.32,1.43
			c7.78-0.04,15.55-0.04,23.33,0c1.09,0.01,1.35-0.37,1.36-1.4c0.04-2.63-0.28-5.27,0.3-7.88c1.43-6.43,7.41-10.81,13.92-10.17
			c6.44,0.64,11.48,5.99,11.7,12.46c0.06,1.69,0.12,3.39-0.01,5.07c-0.11,1.47,0.28,1.98,1.86,1.94c4.59-0.12,9.19-0.06,13.79-0.04
			c9.87,0.04,16.82,6.99,16.83,16.9c0.02,27.52,0.01,55.04,0.01,82.56c0,0.41,0.02,0.81-0.02,1.22c-0.17,1.91-1.53,3.21-3.3,3.17
			c-1.68-0.04-2.98-1.29-3.15-3.1c-0.06-0.6-0.02-1.22-0.02-1.82c0-17.11-0.03-34.21,0.04-51.32c0.01-1.79-0.44-2.21-2.22-2.21
			C159.16,67.58,129.61,67.56,100.06,67.56z M99.96,61.07c29.41,0,58.83,0,88.24,0c0.47,0,0.95-0.04,1.42,0.01
			c0.97,0.1,1.28-0.29,1.27-1.26c-0.04-7.37,0.09-14.74-0.08-22.11c-0.11-4.84-4.2-8.88-9.03-9.04c-5.2-0.17-10.41-0.03-15.62-0.07
			c-0.97-0.01-1.3,0.31-1.27,1.27c0.06,1.89,0.06,3.79-0.01,5.68c-0.21,6.55-5.38,11.97-11.88,12.5
			c-6.47,0.53-12.31-3.8-13.73-10.16c-0.59-2.61-0.26-5.25-0.31-7.88c-0.02-1-0.22-1.42-1.34-1.42c-7.78,0.04-15.55,0.04-23.33,0
			c-1.11-0.01-1.37,0.4-1.34,1.41c0.06,1.89,0.06,3.79-0.01,5.68c-0.25,6.44-5.38,11.79-11.8,12.36
			c-6.45,0.57-12.35-3.76-13.79-10.08c-0.58-2.55-0.32-5.12-0.3-7.68c0.01-1.31-0.35-1.71-1.69-1.7
			c-7.57,0.06-15.15,0.05-22.72,0.01c-1.19-0.01-1.71,0.23-1.62,1.55c0.11,1.75,0.06,3.52,0.01,5.27c-0.18,6.59-5.23,12-11.75,12.63
			c-6.5,0.63-12.46-3.77-13.89-10.21c-0.56-2.55-0.3-5.12-0.28-7.68c0.01-1.29-0.41-1.58-1.62-1.56c-4.66,0.06-9.33,0.01-14,0.03
			c-6.31,0.02-10.37,4.1-10.38,10.43C9.11,45.67,9.2,52.3,9.07,58.93c-0.04,1.85,0.52,2.18,2.24,2.18
			C40.86,61.05,70.41,61.07,99.96,61.07z M54.56,25.57c0-3.18,0.02-6.35-0.01-9.53c-0.04-3.97-2.76-6.87-6.44-6.9
			c-3.7-0.03-6.51,2.84-6.53,6.79c-0.03,6.29-0.03,12.57,0,18.86c0.02,3.93,2.84,6.83,6.53,6.8c3.68-0.03,6.4-2.92,6.44-6.89
			C54.58,31.65,54.56,28.61,54.56,25.57z M106.49,25.38c0-3.18,0.03-6.35-0.01-9.53c-0.05-3.82-2.82-6.67-6.42-6.71
			c-3.7-0.03-6.52,2.83-6.54,6.77c-0.04,6.29-0.03,12.57,0,18.86c0.02,3.93,2.83,6.83,6.52,6.81c3.68-0.02,6.41-2.91,6.45-6.88
			C106.51,31.6,106.49,28.49,106.49,25.38z M145.44,25.37c0,3.11-0.02,6.22,0.01,9.33c0.03,3.97,2.76,6.87,6.44,6.89
			c3.69,0.03,6.51-2.86,6.53-6.8c0.04-6.29,0.04-12.57,0-18.86c-0.02-3.93-2.85-6.82-6.54-6.79c-3.69,0.03-6.39,2.91-6.43,6.9
			C145.42,19.15,145.44,22.26,145.44,25.37z"/>
		<path class="st0" d="M108.91,186.03c-0.09,0-0.18,0-0.26,0l-88.92-0.01c-11.02,0-18.72-7.67-18.73-18.65V39.18
			c0.01-10.97,7.7-18.65,18.7-18.68h1.72c4.01-0.03,8.03-0.05,12.05,0.03c0.01-0.71-0.01-1.22-0.03-1.71
			c-0.06-2.03-0.11-4.12,0.35-6.26c1.61-7.24,8.46-12.25,15.63-11.47c7.33,0.7,13.01,6.8,13.22,14.19c0.04,1.76,0.06,3.51,0.01,5.24
			c7.74-0.03,15.24-0.01,22.74,0.03c0.01-0.74-0.01-1.28-0.03-1.83c-0.05-1.89-0.11-3.85,0.3-5.86c1.53-7.45,8.13-12.45,15.59-11.78
			c7.42,0.65,13.14,6.81,13.31,14.34c0.04,1.69,0.06,3.4,0.01,5.11c7.71-0.05,15.23-0.05,22.74,0c0.01-0.77-0.01-1.37-0.02-1.97
			c-0.04-1.95-0.1-3.97,0.37-6.05c1.62-7.21,8.29-12.18,15.66-11.42c7.26,0.72,12.92,6.76,13.17,14.02
			c0.06,1.71,0.11,3.47-0.01,5.24c-0.01,0.08-0.01,0.15-0.01,0.2c0.05,0,0.13-0.01,0.21,0c3.58-0.09,7.19-0.08,10.78-0.05l3.06,0.01
			c10.85,0.04,18.43,7.66,18.44,18.52c0.01,19.65,0.01,39.32,0.01,58.97v23.58c0.01,0.66,0.01,1.03-0.03,1.37
			c-0.24,2.7-2.26,4.64-4.83,4.64c-0.04,0-0.08,0-0.11,0c-2.49-0.04-4.49-1.95-4.74-4.56c-0.04-0.51-0.04-1.01-0.04-1.52l0.01-0.46
			l-0.01-11.66c0-13.21-0.01-26.43,0.05-39.67c0-0.27-0.01-0.46-0.03-0.57c-0.07,0.01-0.29,0-0.56,0
			c-25.33,0.05-50.71,0.05-75.97,0.05H85.29c-24.62,0.01-49.25,0.01-73.87-0.04c-0.43-0.03-0.61,0-0.73,0.04
			c0.02,0.08,0,0.28,0,0.61c0.05,24.29,0.05,48.58,0.05,72.88v24.29c0,6.1,3.2,9.32,9.26,9.33h88.36c0.53-0.04,1.1-0.03,1.65,0.04
			c2.63,0.24,4.51,2.18,4.57,4.72c0.06,2.64-1.9,4.72-4.65,4.96C109.59,186.03,109.26,186.03,108.91,186.03z M26.6,23.73
			c-1.72,0-3.44,0-5.15,0.01h-1.72c-9.25,0.03-15.46,6.23-15.47,15.43v128.19c0.01,9.22,6.23,15.4,15.48,15.4l88.64,0.01
			c0.64,0.01,0.97,0.01,1.29-0.03c1.04-0.09,1.7-0.74,1.68-1.64c-0.02-0.86-0.66-1.48-1.62-1.57c-0.42-0.01-0.87-0.04-1.3-0.01
			H20.01c-7.84-0.01-12.51-4.72-12.51-12.58v-24.29c0-24.29,0-48.58-0.05-72.88c0-0.94,0.1-2.13,0.94-2.97
			c0.82-0.82,1.81-0.99,3.04-0.93c24.61,0.05,49.23,0.04,73.85,0.04h27.44c25.33,0.01,50.65,0.01,75.97-0.05
			c1.01,0,2.14,0.11,2.94,0.91c0.81,0.81,0.91,1.94,0.9,2.93c-0.06,13.22-0.05,26.43-0.05,39.65l0.01,11.66l-0.01,0.51
			c-0.01,0.38-0.01,0.77,0.03,1.17c0.09,0.98,0.7,1.61,1.57,1.62c0.86-0.11,1.55-0.63,1.65-1.69c0.03-0.25,0.02-0.51,0.01-0.75
			V97.99c0.01-19.65,0.01-39.32-0.01-58.97c-0.01-8.96-6.26-15.24-15.21-15.28l-3.07-0.01c-3.56-0.04-7.13-0.03-10.68,0.05
			c-0.82-0.06-1.97-0.06-2.76-0.9c-0.79-0.82-0.81-1.91-0.75-2.78c0.11-1.62,0.06-3.26,0-4.91c-0.19-5.64-4.6-10.33-10.24-10.9
			c-5.57-0.39-10.91,3.27-12.16,8.91c-0.37,1.69-0.34,3.42-0.29,5.26c0.02,0.76,0.04,1.53,0.03,2.29c-0.03,2.46-1.6,2.99-2.94,2.99
			c-0.02,0-0.04,0-0.06,0c-7.77-0.03-15.52-0.04-23.3,0.01c-0.37,0-1.46,0-2.23-0.8c-0.68-0.7-0.74-1.6-0.72-2.31
			c0.06-1.74,0.04-3.46,0-5.19C111.21,9.61,106.76,4.81,101,4.31c-5.83-0.65-10.93,3.36-12.13,9.19c-0.34,1.64-0.29,3.32-0.24,5.11
			c0.02,0.68,0.04,1.37,0.04,2.05c0,2.03-1.07,3.11-3.11,3.11c-7.7-0.05-15.41-0.05-23.11,0c-0.39,0-1.53,0-2.32-0.82
			c-0.69-0.72-0.75-1.62-0.72-2.42c0.06-1.71,0.04-3.44,0-5.17C59.25,9.6,54.83,4.84,49.14,4.3c-5.64-0.37-10.9,3.32-12.15,8.95
			c-0.39,1.75-0.33,3.56-0.28,5.48c0.02,0.61,0.04,1.23,0.04,1.84c0.01,0.68-0.07,1.69-0.8,2.41c-0.72,0.72-1.7,0.74-2.45,0.8
			C31.2,23.73,28.89,23.73,26.6,23.73z M166.16,20.5L166.16,20.5L166.16,20.5z M11.32,62.73c-1.08,0-2.19-0.11-2.99-0.93
			c-0.81-0.82-0.89-1.99-0.88-2.9c0.09-4.54,0.08-9.08,0.06-13.62L7.5,39.05c0.02-7.19,4.84-12.03,12-12.06h5.01
			c3-0.01,5.98,0,8.98-0.03c0.68-0.05,1.72,0.06,2.45,0.77c0.74,0.74,0.81,1.74,0.81,2.42c0,0.61-0.02,1.23-0.04,1.84
			c-0.05,1.91-0.11,3.73,0.28,5.49c1.25,5.63,6.41,9.29,12.15,8.94c5.71-0.55,10.12-5.3,10.28-11.06c0.05-1.97,0.1-3.55-0.01-5.13
			c-0.03-0.38-0.11-1.57,0.7-2.42c0.72-0.76,1.7-0.89,2.55-0.85c7.55,0.06,15.13,0.05,22.69-0.01c0.86,0.01,1.76,0.08,2.49,0.81
			c0.74,0.75,0.84,1.74,0.83,2.52l-0.04,1.79c-0.05,1.93-0.1,3.75,0.3,5.53c1.25,5.53,6.43,9.17,12.06,8.82
			c5.67-0.51,10.1-5.16,10.33-10.81c0.08-1.85,0.07-3.7,0.01-5.57c-0.01-0.41-0.06-1.5,0.72-2.29c0.78-0.81,1.95-0.8,2.26-0.79
			c7.77,0.06,15.54,0.06,23.3,0c0.02,0,0.04,0,0.06,0c1.32,0,2.88,0.53,2.91,3.02c0.01,0.77-0.01,1.56-0.03,2.33
			c-0.04,1.83-0.08,3.55,0.29,5.21c1.26,5.62,6.35,9.45,12.03,8.9c5.73-0.47,10.19-5.16,10.38-10.93c0.06-1.86,0.06-3.73,0.01-5.58
			c-0.01-0.34-0.04-1.39,0.7-2.17c0.68-0.71,1.57-0.79,2.19-0.79c2,0.03,4.01,0.01,6,0c3.21,0,6.45-0.01,9.66,0.08
			c5.72,0.19,10.47,4.96,10.61,10.62c0.11,4.75,0.1,9.52,0.08,14.28c-0.01,2.62-0.01,5.25,0,7.86c0,0.37,0.01,1.51-0.84,2.27
			c-0.55,0.49-1.31,0.77-2.23,0.61c-0.24-0.03-0.47,0-0.72,0l-0.53,0.01H80.26C57.28,62.71,34.3,62.68,11.32,62.73z M19.51,30.24
			c-5.39,0.03-8.75,3.4-8.77,8.81l0.01,6.24c0.01,4.55,0.03,9.12-0.06,13.68c-0.01,0.24,0.01,0.42,0.02,0.52c0.08,0,0.29,0,0.6,0
			c22.97-0.05,45.96-0.04,68.95-0.04l108.36-0.01c0.22,0,0.45,0,0.64-0.01c0-2.6,0.01-5.05,0.01-7.48c0.01-4.74,0.03-9.47-0.08-14.2
			c-0.1-3.97-3.44-7.32-7.47-7.45c-3.17-0.1-6.36-0.08-9.54-0.08c-1.86,0.03-3.76,0.04-5.64,0c0.04,1.89,0.03,3.65-0.03,5.39
			c-0.25,7.42-5.99,13.46-13.37,14.07c-7.42,0.42-13.84-4.23-15.45-11.44c-0.46-2.05-0.41-4.06-0.37-6
			c0.02-0.67,0.04-1.34,0.03-2.02c-7.71,0.04-15.23,0.03-22.74-0.01c0.04,1.99,0.04,3.77-0.03,5.53c-0.29,7.29-6,13.26-13.28,13.91
			C94,50.44,87.39,45.44,85.77,38.31c-0.49-2.17-0.43-4.29-0.37-6.33l0.03-1.72c0-0.03,0-0.04,0-0.06l0,0c-0.02,0-0.03,0-0.05,0
			c-7.58,0.08-15.14,0.06-22.71,0.01c0.08,1.77,0.04,3.32,0,4.87c-0.21,7.77-5.89,13.87-13.22,14.57
			c-7.23,0.85-14.02-4.22-15.63-11.46c-0.47-2.16-0.41-4.25-0.35-6.28c0.02-0.57,0.03-1.13,0.04-1.7c-3,0.04-6.01,0.03-9,0.03H19.51
			z M151.93,43.21c-0.03,0-0.04,0-0.06,0c-4.55-0.03-8.01-3.69-8.05-8.51c-0.02-2.18-0.01-4.36-0.01-6.54l0.01-2.79l-0.01-2.79
			c0-2.19-0.01-4.37,0.01-6.55c0.04-4.88,3.42-8.46,8.03-8.51c0.02,0,0.04,0,0.06,0c2.22,0,4.27,0.85,5.77,2.41
			c1.5,1.55,2.34,3.68,2.35,6c0.03,6.29,0.03,12.58,0,18.88c-0.01,2.31-0.85,4.44-2.35,6C156.19,42.36,154.14,43.21,151.93,43.21z
			 M151.91,10.76c-0.01,0-0.02,0-0.03,0c-2.81,0.03-4.79,2.21-4.82,5.29c-0.02,2.17-0.01,4.35-0.01,6.52l0.01,2.8l-0.01,2.8
			c0,2.17-0.01,4.34,0.01,6.5c0.03,3.09,2.01,5.26,4.83,5.29c0.01,0,0.03,0,0.03,0c1.32,0,2.54-0.51,3.42-1.42
			c0.92-0.95,1.43-2.28,1.44-3.77c0.03-6.28,0.03-12.56,0-18.83c-0.01-1.48-0.52-2.81-1.44-3.77
			C154.46,11.27,153.24,10.76,151.91,10.76z M99.98,43.21c-2.13,0-4.12-0.81-5.61-2.27c-1.58-1.57-2.47-3.75-2.48-6.15
			c-0.03-6.3-0.04-12.59,0-18.89c0.01-2.38,0.89-4.56,2.48-6.12c1.48-1.46,3.47-2.26,5.62-2.26c0.03,0,0.06,0,0.09,0
			c4.51,0.05,7.96,3.61,8.03,8.3c0.03,2.21,0.02,4.39,0.01,6.58l-0.01,2.98l0.01,2.87c0.01,2.16,0.01,4.31-0.01,6.48
			c-0.04,4.82-3.51,8.47-8.06,8.48C100.02,43.21,100,43.21,99.98,43.21z M99.98,10.76c-1.3,0-2.45,0.46-3.33,1.33
			c-0.96,0.94-1.5,2.31-1.51,3.83c-0.04,6.28-0.03,12.56,0,18.84c0.01,1.53,0.55,2.9,1.52,3.87c0.88,0.86,1.98,1.47,3.37,1.33
			c2.82-0.01,4.81-2.18,4.84-5.26c0.02-2.16,0.02-4.3,0.01-6.45l-0.01-2.87l0.01-2.99c0.01-2.17,0.01-4.35-0.01-6.52
			c-0.04-2.93-2.07-5.08-4.82-5.11C100.02,10.76,100,10.76,99.98,10.76z M48.06,43.21c-2.14,0-4.14-0.81-5.63-2.28
			c-1.58-1.56-2.46-3.74-2.47-6.12c-0.03-6.3-0.03-12.59,0-18.89c0.01-2.38,0.89-4.56,2.47-6.12c1.48-1.46,3.49-2.27,5.64-2.27
			c0.03,0,0.04,0,0.06,0c4.55,0.03,8.01,3.69,8.04,8.51c0.02,2.21,0.02,4.41,0.01,6.62l-0.01,2.93l0.01,2.8
			c0.01,2.12,0.01,4.22-0.01,6.33c-0.04,4.82-3.5,8.48-8.04,8.51C48.11,43.21,48.09,43.21,48.06,43.21z M48.06,10.76
			c-1.31,0-2.47,0.46-3.36,1.33c-0.96,0.95-1.49,2.32-1.5,3.84c-0.03,6.28-0.03,12.56,0,18.84c0.01,1.52,0.55,2.89,1.51,3.84
			c0.88,0.86,2.07,1.34,3.35,1.34c0.01,0,0.02,0,0.03,0c2.81-0.03,4.8-2.19,4.82-5.29c0.02-2.09,0.02-4.2,0.01-6.29l-0.01-2.81
			l0.01-2.94c0.01-2.19,0.01-4.39-0.01-6.58c-0.03-3.09-2.01-5.26-4.82-5.29C48.09,10.76,48.08,10.76,48.06,10.76z"/>
	</g>
	<g>
		<path class="st0" d="M155.29,197.37c-23.52-0.01-42.29-18.85-42.31-42.47c-0.02-23.01,19.01-41.87,42.27-41.9
			c23.08-0.03,42.11,18.98,42.11,42.07C197.36,178.39,178.47,197.38,155.29,197.37z M155.24,190.89
			c19.45,0.03,35.56-15.98,35.63-35.42c0.08-19.78-15.88-35.97-35.46-35.98c-19.93,0-35.88,15.86-35.93,35.71
			C119.43,174.85,135.48,190.86,155.24,190.89z"/>
		<path class="st0" d="M155.29,199L155.29,199c-24.21-0.01-43.91-19.79-43.92-44.1c-0.02-23.97,19.66-43.5,43.89-43.52
			c0.01,0,0.03,0,0.04,0c11.58,0,22.52,4.56,30.81,12.84c8.3,8.29,12.87,19.25,12.87,30.85C198.98,179.3,179.38,199,155.29,199z
			 M155.3,114.63c-0.01,0-0.03,0-0.04,0c-22.43,0.03-40.66,18.09-40.64,40.28c0.01,22.9,17.88,40.84,40.68,40.85
			c22.3,0,40.44-18.26,40.45-40.68c0-10.74-4.23-20.87-11.92-28.55C176.14,118.85,166.02,114.63,155.3,114.63z M155.28,192.51
			c-0.01,0-0.03,0-0.04,0c-10.03-0.01-19.45-3.93-26.53-11.04c-7.02-7.04-10.87-16.37-10.85-26.26
			c0.04-20.59,16.89-37.34,37.55-37.34c9.83,0,19.11,3.88,26.11,10.92c7.11,7.14,11.01,16.62,10.97,26.69
			C192.41,175.91,175.72,192.51,155.28,192.51z M155.41,121.12c-18.88,0-34.26,15.29-34.31,34.09c-0.03,9.03,3.49,17.53,9.9,23.97
			c6.47,6.49,15.07,10.07,24.23,10.08c0.02,0,0.03,0,0.04,0c18.66,0,33.9-15.15,33.97-33.8c0.04-9.2-3.52-17.86-10.02-24.39
			C172.83,124.65,164.38,121.12,155.41,121.12z"/>
	</g>
	<g>
		<path class="st0" d="M41.56,106.5c-2.16,0-4.33,0.05-6.49-0.01c-3.67-0.1-6.39-2.79-6.46-6.45c-0.07-3.24-0.06-6.49,0-9.73
			c0.07-3.7,2.73-6.44,6.39-6.5c4.39-0.08,8.79-0.08,13.18,0c3.55,0.06,6.27,2.78,6.36,6.33c0.08,3.31,0.08,6.62,0,9.94
			c-0.08,3.66-2.81,6.32-6.49,6.42C45.89,106.55,43.72,106.5,41.56,106.5z M41.5,100.02c1.75,0,3.51-0.04,5.26,0.01
			c0.9,0.03,1.35-0.18,1.33-1.21c-0.06-2.43-0.06-4.86,0-7.29c0.02-0.97-0.3-1.28-1.27-1.27c-3.51,0.05-7.02,0.03-10.53,0.01
			c-0.81-0.01-1.24,0.17-1.22,1.11c0.05,2.5,0.04,4.99,0,7.49c-0.02,0.88,0.29,1.19,1.16,1.16C37.99,99.98,39.74,100.01,41.5,100.02
			z"/>
	</g>
	<g>
		<path class="st0" d="M80.49,106.51c-2.16,0-4.33,0.05-6.49-0.01c-3.66-0.1-6.37-2.8-6.44-6.46c-0.06-3.24-0.06-6.49,0-9.73
			c0.07-3.78,2.79-6.45,6.61-6.49c4.26-0.05,8.52-0.05,12.77,0c3.77,0.05,6.49,2.78,6.55,6.56c0.06,3.18,0.05,6.35,0,9.53
			c-0.07,3.89-2.78,6.54-6.72,6.61C84.68,106.53,82.59,106.51,80.49,106.51z M80.42,100.02c1.75,0,3.51-0.06,5.26,0.02
			c1.1,0.05,1.38-0.37,1.35-1.4c-0.06-2.36-0.05-4.72,0-7.08c0.02-0.94-0.25-1.31-1.24-1.29c-3.51,0.05-7.02,0.05-10.53,0
			c-1-0.01-1.26,0.35-1.24,1.29c0.05,2.36,0.06,4.72,0,7.08c-0.03,1.03,0.25,1.45,1.35,1.4C77.05,99.95,78.74,100.02,80.42,100.02z"
			/>
	</g>
	<g>
		<path class="st0" d="M119.47,83.79c2.16,0,4.33-0.05,6.49,0.01c3.67,0.09,6.4,2.77,6.48,6.43c0.07,3.31,0.08,6.63-0.01,9.94
			c-0.09,3.55-2.8,6.26-6.37,6.32c-4.39,0.08-8.79,0.08-13.18,0c-3.55-0.06-6.28-2.79-6.37-6.32c-0.08-3.38-0.09-6.76,0.01-10.14
			c0.1-3.46,2.79-6.09,6.26-6.21C115,83.73,117.24,83.8,119.47,83.79z M119.42,100.02c1.69,0,3.38-0.06,5.06,0.02
			c1.12,0.05,1.55-0.26,1.5-1.45c-0.09-2.29-0.09-4.59,0-6.88c0.05-1.2-0.4-1.47-1.51-1.45c-3.37,0.06-6.75,0.06-10.12,0
			c-1.03-0.02-1.43,0.25-1.4,1.35c0.08,2.36,0.08,4.72,0,7.08c-0.04,1.11,0.38,1.38,1.41,1.34
			C116.05,99.97,117.74,100.02,119.42,100.02z"/>
	</g>
	<g>
		<path class="st0" d="M158.48,106.51c-2.16,0-4.33,0.04-6.49-0.01c-3.77-0.09-6.48-2.8-6.54-6.58c-0.05-3.18-0.05-6.35,0-9.53
			c0.06-3.81,2.74-6.53,6.52-6.58c4.33-0.06,8.65-0.07,12.98,0c3.65,0.06,6.36,2.79,6.44,6.46c0.07,3.24,0.07,6.49,0,9.73
			c-0.08,3.76-2.81,6.42-6.62,6.49C162.67,106.54,160.57,106.51,158.48,106.51z M158.4,100.02c1.75,0,3.51-0.04,5.26,0.02
			c0.97,0.03,1.29-0.3,1.27-1.27c-0.05-2.43-0.04-4.86-0.01-7.29c0.01-0.82-0.18-1.22-1.11-1.21c-3.58,0.04-7.15,0.04-10.73,0
			c-0.88-0.01-1.18,0.29-1.16,1.16c0.04,2.43,0.07,4.86-0.01,7.29c-0.04,1.14,0.44,1.35,1.43,1.32
			C155.02,99.97,156.71,100.02,158.4,100.02z"/>
	</g>
	<g>
		<path class="st0" d="M41.58,113c2.16,0,4.33-0.05,6.49,0.01c3.67,0.09,6.39,2.77,6.47,6.44c0.07,3.31,0.08,6.63-0.01,9.94
			c-0.09,3.55-2.81,6.25-6.37,6.31c-4.39,0.08-8.79,0.08-13.18,0c-3.55-0.06-6.28-2.79-6.36-6.33c-0.08-3.38-0.09-6.76,0.01-10.14
			c0.1-3.46,2.79-6.09,6.26-6.21C37.12,112.94,39.35,113.01,41.58,113z M41.62,119.49c-1.69,0-3.38,0.06-5.06-0.02
			c-1.13-0.06-1.54,0.27-1.5,1.46c0.09,2.29,0.09,4.59,0,6.88c-0.05,1.2,0.41,1.46,1.51,1.44c3.37-0.06,6.75-0.06,10.12,0
			c1.03,0.02,1.43-0.26,1.4-1.35c-0.07-2.36-0.08-4.72,0-7.08c0.04-1.11-0.39-1.38-1.41-1.34C45,119.54,43.31,119.49,41.62,119.49z"
			/>
	</g>
	<g>
		<path class="st0" d="M80.53,113c2.16,0,4.33-0.05,6.49,0.01c3.67,0.09,6.39,2.77,6.47,6.44c0.07,3.31,0.08,6.63-0.01,9.94
			c-0.09,3.55-2.81,6.25-6.37,6.31c-4.39,0.08-8.79,0.08-13.18,0c-3.55-0.06-6.28-2.79-6.36-6.33c-0.08-3.38-0.09-6.76,0.01-10.14
			c0.1-3.46,2.79-6.09,6.26-6.21C76.06,112.94,78.3,113.01,80.53,113z M80.21,129.23c2.06,0,3.74-0.05,5.43,0.02
			c1.03,0.04,1.43-0.26,1.4-1.35c-0.07-2.36-0.08-4.72,0-7.08c0.04-1.11-0.39-1.36-1.41-1.34c-2.77,0.06-5.53,0.02-8.3,0.02
			c-3.3,0-3.31,0-3.29,3.26c0.02,2.08-0.7,4.87,0.35,6.05C75.61,130.16,78.45,129.04,80.21,129.23z"/>
	</g>
	<g>
		<path class="st0" d="M41.49,164.93c-2.03,0-4.06,0.02-6.08,0c-4.05-0.06-6.76-2.72-6.81-6.73c-0.04-3.11-0.04-6.22,0-9.33
			c0.06-3.92,2.74-6.61,6.66-6.65c4.19-0.05,8.38-0.04,12.57,0c3.91,0.04,6.64,2.73,6.71,6.61c0.05,3.18,0.06,6.35,0,9.53
			c-0.07,3.79-2.77,6.47-6.56,6.56C45.82,164.97,43.66,164.93,41.49,164.93z M41.52,158.44c1.75,0,3.51-0.04,5.26,0.02
			c0.93,0.03,1.32-0.23,1.3-1.24c-0.06-2.43-0.06-4.86,0-7.29c0.02-1-0.36-1.25-1.29-1.24c-3.44,0.04-6.88,0.05-10.32,0
			c-1.02-0.02-1.44,0.24-1.41,1.34c0.08,2.36,0.08,4.72,0,7.08c-0.04,1.1,0.37,1.39,1.4,1.35
			C38.15,158.39,39.84,158.44,41.52,158.44z"/>
	</g>
	<g>
		<path class="st0" d="M80.55,142.21c2.16,0,4.33-0.05,6.49,0.01c3.66,0.1,6.37,2.79,6.45,6.45c0.07,3.24,0.07,6.49,0,9.73
			c-0.07,3.77-2.8,6.46-6.61,6.51c-4.26,0.05-8.52,0.06-12.77,0c-3.78-0.05-6.49-2.78-6.55-6.56c-0.05-3.18-0.05-6.35,0-9.53
			c0.06-3.9,2.76-6.55,6.71-6.61C76.35,142.18,78.45,142.21,80.55,142.21z M80.53,158.44c1.69,0,3.38-0.07,5.06,0.02
			c1.2,0.07,1.48-0.4,1.44-1.51c-0.07-2.29-0.07-4.59,0-6.88c0.03-1.04-0.27-1.41-1.36-1.39c-3.44,0.06-6.88,0.06-10.32,0
			c-1.11-0.02-1.37,0.39-1.34,1.41c0.06,2.36,0.05,4.72,0,7.08c-0.02,0.95,0.27,1.32,1.25,1.28
			C77.02,158.39,78.78,158.44,80.53,158.44z"/>
	</g>
	<g>
		<path class="st0" d="M119.22,113c1.96,0,3.92-0.01,5.88,0c2.58,0.02,4.06,1.18,4.09,3.2c0.03,2.02-1.47,3.28-4,3.29
			c-3.52,0.02-7.03,0.06-10.55-0.02c-1.32-0.03-1.78,0.35-1.69,1.69c0.11,1.62,0.01,3.24,0.03,4.87c0.02,1.59-0.45,3.25,1.89,3.97
			c1.25,0.38,1.62,1.95,1.21,3.33c-0.45,1.52-1.54,2.34-3.15,2.4c-3.2,0.13-6.28-2.69-6.4-6.08c-0.13-3.51-0.12-7.03,0-10.55
			c0.12-3.35,2.82-5.93,6.2-6.06C114.89,112.94,117.06,113.01,119.22,113C119.22,113,119.22,113,119.22,113z"/>
	</g>
</g>
</svg>
