<?xml version="1.0" encoding="utf-8"?>
<!-- Generator: Adobe Illustrator 26.0.2, SVG Export Plug-In . SVG Version: 6.00 Build 0)  -->
<svg version="1.1" id="Layer_1" xmlns="http://www.w3.org/2000/svg" xmlns:xlink="http://www.w3.org/1999/xlink" x="0px" y="0px"
	 viewBox="0 0 100 100" style="enable-background:new 0 0 100 100;" xml:space="preserve">
<style type="text/css">
	.st0{fill:#909090;}
	.st1{fill:none;stroke:#909090;stroke-width:0.75;stroke-miterlimit:10;}
	.st2{fill:#909090;stroke:#909090;stroke-width:0.2;stroke-miterlimit:10;}
	.st3{fill:#909090;stroke:#909090;stroke-width:0.25;stroke-miterlimit:10;}
	.st4{fill:none;stroke:#909090;stroke-width:0.6;stroke-miterlimit:10;}
	.st5{fill:#909090;stroke:#909090;stroke-width:0.1;stroke-miterlimit:10;}
</style>
<g>
	<g>
		<path class="st0" d="M75.79,75.15v-0.73c0-1.71,0.01-3.42,0-5.13c0.03-1.08-0.82-1.98-1.9-2.01c-1.08-0.03-1.98,0.82-2.01,1.9
			c0,0.04,0,0.07,0,0.11c-0.02,2.61-0.02,5.22,0,7.83c-0.02,1.04,0.8,1.91,1.85,1.93c0.01,0,0.03,0,0.04,0
			c2.65,0.03,5.3,0.03,7.95,0c0.81,0.01,1.53-0.5,1.77-1.27c0.38-1-0.13-2.11-1.13-2.49c-0.23-0.09-0.48-0.13-0.74-0.12
			c-1.92-0.03-3.83,0-5.84,0"/>
	</g>
	<g>
		<path class="st0" d="M50.03,34.6c-14.03,0-28.06,0.01-42.08-0.02c-0.85,0-1.12,0.17-1.12,1.08c0.03,15.38,0.02,30.75,0.02,46.13
			c0,3.33,1.86,5.2,5.17,5.2c13.9,0,27.8,0,41.7,0c0.32,0,0.64-0.02,0.96,0.01c0.86,0.08,1.45,0.7,1.47,1.5
			c0.02,0.84-0.6,1.49-1.5,1.57c-0.22,0.02-0.45,0.01-0.67,0.01c-14.03,0-28.06,0-42.08,0c-4.83,0-8.12-3.27-8.12-8.09
			c0-20.29,0-40.57,0-60.86c0-4.82,3.28-8.08,8.11-8.09c2.18,0,4.37-0.02,6.55,0.01c0.58,0.01,0.77-0.13,0.77-0.74
			c-0.01-1.21-0.13-2.44,0.13-3.65c0.68-3.06,3.5-5.14,6.59-4.85c3.09,0.29,5.49,2.87,5.58,5.99c0.02,0.83,0.03,1.67,0,2.5
			c-0.02,0.5,0.07,0.74,0.67,0.74c3.66-0.03,7.32-0.02,10.98,0c0.55,0,0.7-0.16,0.71-0.7c0-1.18-0.13-2.38,0.11-3.55
			c0.65-3.14,3.44-5.25,6.58-4.98c3.13,0.27,5.54,2.87,5.62,6.05c0.02,0.83,0.03,1.67,0,2.5c-0.02,0.47,0.09,0.68,0.63,0.68
			c3.69-0.02,7.38-0.02,11.07,0c0.52,0,0.64-0.18,0.65-0.66c0.02-1.25-0.13-2.5,0.14-3.74c0.68-3.05,3.52-5.13,6.61-4.83
			c3.06,0.3,5.45,2.84,5.55,5.92c0.03,0.8,0.05,1.61,0,2.41c-0.05,0.7,0.13,0.94,0.88,0.92c2.18-0.05,4.37-0.03,6.55-0.02
			c4.69,0.02,7.98,3.32,7.99,8.02c0.01,13.06,0,26.13,0,39.19c0,0.19,0.01,0.39-0.01,0.58c-0.08,0.9-0.73,1.52-1.56,1.5
			c-0.8-0.02-1.42-0.61-1.5-1.47c-0.03-0.29-0.01-0.58-0.01-0.87c0-8.12-0.01-16.24,0.02-24.36c0-0.85-0.21-1.05-1.05-1.05
			C78.09,34.61,64.06,34.6,50.03,34.6z M49.98,31.52c13.96,0,27.93,0,41.89,0c0.22,0,0.45-0.02,0.67,0c0.46,0.05,0.61-0.14,0.6-0.6
			c-0.02-3.5,0.04-7-0.04-10.5c-0.05-2.3-1.99-4.22-4.29-4.29c-2.47-0.08-4.94-0.01-7.41-0.04c-0.46,0-0.62,0.15-0.6,0.61
			c0.03,0.9,0.03,1.8,0,2.7c-0.1,3.11-2.55,5.68-5.64,5.93c-3.07,0.25-5.84-1.81-6.52-4.82c-0.28-1.24-0.12-2.49-0.14-3.74
			c-0.01-0.48-0.11-0.68-0.64-0.67c-3.69,0.02-7.38,0.02-11.07,0c-0.53,0-0.65,0.19-0.64,0.67c0.03,0.9,0.03,1.8,0,2.7
			c-0.12,3.06-2.55,5.6-5.6,5.87c-3.06,0.27-5.86-1.79-6.55-4.79c-0.28-1.21-0.15-2.43-0.14-3.65c0-0.62-0.17-0.81-0.8-0.81
			c-3.6,0.03-7.19,0.03-10.79,0c-0.57,0-0.81,0.11-0.77,0.74c0.05,0.83,0.03,1.67,0.01,2.5c-0.08,3.13-2.48,5.7-5.58,6
			c-3.09,0.3-5.92-1.79-6.59-4.85c-0.27-1.21-0.14-2.43-0.13-3.65c0-0.61-0.19-0.75-0.77-0.74c-2.21,0.03-4.43,0.01-6.64,0.01
			c-3,0.01-4.92,1.94-4.93,4.95c-0.01,3.15,0.04,6.29-0.03,9.44c-0.02,0.88,0.24,1.04,1.07,1.04
			C21.93,31.51,35.95,31.52,49.98,31.52z M28.43,14.66c0-1.51,0.01-3.02,0-4.52c-0.02-1.89-1.31-3.26-3.06-3.27
			c-1.76-0.01-3.09,1.35-3.1,3.22c-0.02,2.98-0.02,5.97,0,8.95c0.01,1.87,1.35,3.24,3.1,3.23c1.75-0.01,3.04-1.39,3.06-3.27
			C28.44,17.55,28.43,16.11,28.43,14.66z M53.08,14.57c0-1.51,0.02-3.02,0-4.52c-0.02-1.81-1.34-3.17-3.05-3.18
			c-1.76-0.02-3.1,1.35-3.11,3.22c-0.02,2.98-0.02,5.97,0,8.95c0.01,1.87,1.35,3.24,3.09,3.23c1.75-0.01,3.05-1.38,3.06-3.27
			C53.09,17.53,53.08,16.05,53.08,14.57z M71.57,14.57c0,1.48-0.01,2.95,0,4.43c0.02,1.88,1.31,3.26,3.06,3.27
			c1.75,0.01,3.09-1.36,3.1-3.23c0.02-2.98,0.02-5.97,0-8.95c-0.01-1.87-1.35-3.24-3.11-3.22c-1.75,0.01-3.03,1.38-3.05,3.27
			C71.56,11.62,71.57,13.09,71.57,14.57z"/>
		<path class="st0" d="M54.36,90.84c-0.07,0-0.13,0-0.2,0l-42.27,0C6.66,90.84,3,87.19,3,81.98C3,61.69,3,41.41,3,21.12
			c0-5.21,3.65-8.86,8.88-8.87l1.03,0c1.84,0,3.68-0.01,5.51,0.02c0-0.34-0.01-0.58-0.01-0.82c-0.03-0.96-0.06-1.95,0.17-2.97
			C19.34,5.05,22.56,2.7,26,3.04c3.48,0.33,6.18,3.23,6.28,6.74c0.02,0.83,0.03,1.66-0.01,2.48c3.68-0.02,7.23-0.02,10.8,0.01
			c0-0.34-0.01-0.59-0.01-0.84c-0.02-0.91-0.05-1.84,0.14-2.8c0.73-3.55,3.76-5.91,7.4-5.59c3.52,0.3,6.24,3.23,6.32,6.8
			c0.02,0.81,0.02,1.62,0,2.42c3.68-0.01,7.24-0.02,10.8,0.01c0.01-0.37,0-0.66-0.01-0.95c-0.02-0.92-0.05-1.88,0.17-2.86
			c0.77-3.44,3.97-5.75,7.44-5.43c3.44,0.34,6.13,3.21,6.25,6.66c0.03,0.84,0.05,1.66-0.01,2.49c-0.01,0.04-0.01,0.07-0.01,0.09
			c0.03-0.01,0.07,0,0.1,0c1.79-0.04,3.58-0.03,5.38-0.02l1.19,0.01c5.15,0.02,8.75,3.64,8.75,8.79C97,30.85,97,40.65,97,50.44v9.8
			c0,0.29,0,0.47-0.02,0.65c-0.11,1.28-1.07,2.2-2.29,2.2c-0.02,0-0.04,0-0.05,0c-1.19-0.03-2.13-0.94-2.24-2.17
			c-0.02-0.23-0.02-0.47-0.02-0.71V53.9c-0.01-6.09-0.01-12.19,0.02-18.28c0-0.13-0.01-0.22-0.01-0.27c-0.04-0.01-0.13,0-0.25,0
			c-0.01,0-0.01,0-0.02,0c-11.86,0.02-23.71,0.03-35.61,0.02H43.02c-11.7,0-23.38,0-35.07-0.02c-0.1,0.01-0.28,0.01-0.34,0.02
			c0.01,0.04,0,0.13,0,0.29C7.63,48.84,7.63,62.02,7.63,75.2v6.59c0,2.9,1.52,4.43,4.39,4.43l41.7,0l0.26,0
			c0.25,0,0.51-0.01,0.77,0.02c1.23,0.11,2.15,1.06,2.17,2.25c0.04,1.24-0.89,2.24-2.2,2.35C54.6,90.84,54.48,90.84,54.36,90.84z
			 M53.98,89.3l0.2,0c0.13,0,0.26,0.01,0.41-0.01c0.49-0.05,0.8-0.35,0.79-0.78c-0.01-0.42-0.31-0.71-0.77-0.75
			c-0.2-0.02-0.4-0.01-0.6-0.01l-0.29,0l-41.7,0c-3.71,0-5.93-2.23-5.93-5.97V75.2c0-13.18,0-26.36-0.02-39.54
			c0-0.45,0.05-1.01,0.45-1.41c0.38-0.38,0.9-0.44,1.41-0.44c0.01,0,0.02,0,0.02,0c11.7,0.02,23.36,0.02,35.07,0.02h13.49
			c11.9-0.01,23.74,0,35.61-0.02c0.01,0,0.01,0,0.02,0c0.47,0,0.99,0.05,1.37,0.43c0.39,0.38,0.43,0.92,0.43,1.39
			c-0.03,6.09-0.02,12.18-0.02,18.26v6.34c-0.01,0.18-0.01,0.36,0.01,0.54c0.04,0.47,0.34,0.77,0.75,0.78c0.01,0,0.01,0,0.02,0
			c0.42,0,0.72-0.31,0.76-0.8c0.02-0.14,0.01-0.26,0.01-0.39v-9.92c0-9.8,0.01-19.6-0.01-29.39c0-4.26-2.97-7.24-7.22-7.25
			l-1.2-0.01c-1.78-0.01-3.56-0.02-5.33,0.02c-0.34,0-0.93-0.02-1.31-0.42c-0.37-0.39-0.39-0.91-0.36-1.32
			c0.06-0.75,0.04-1.53,0.01-2.32c-0.1-2.69-2.18-4.91-4.86-5.18C72.58,4.32,70,6.12,69.39,8.8c-0.17,0.79-0.16,1.61-0.13,2.48
			c0.01,0.37,0.02,0.74,0.01,1.11c-0.01,1.17-0.77,1.42-1.4,1.42c-0.01,0-0.01,0-0.02,0c-3.68-0.02-7.38-0.02-11.06,0
			c-0.19-0.02-0.7,0-1.07-0.38c-0.33-0.33-0.35-0.76-0.34-1.1c0.02-0.81,0.02-1.64,0-2.46c-0.06-2.79-2.17-5.07-4.91-5.31
			C50.31,4.55,50.16,4.55,50,4.55c-2.56,0-4.74,1.78-5.28,4.39c-0.16,0.78-0.13,1.59-0.11,2.44c0.01,0.32,0.02,0.64,0.02,0.95
			c0,0.34-0.04,0.77-0.37,1.1c-0.33,0.33-0.77,0.37-1.08,0.37c-0.01,0-0.02,0-0.02,0c-3.65-0.02-7.31-0.03-10.97,0
			c-0.19,0.04-0.72,0.01-1.1-0.39c-0.37-0.39-0.36-0.92-0.35-1.15c0.04-0.82,0.02-1.64,0.01-2.46c-0.08-2.73-2.18-4.99-4.88-5.25
			c-2.66-0.27-5.17,1.57-5.77,4.24c-0.19,0.83-0.16,1.68-0.13,2.59c0.01,0.3,0.02,0.59,0.02,0.89c0,0.36-0.04,0.81-0.39,1.15
			c-0.34,0.34-0.8,0.36-1.17,0.37c-1.82-0.03-3.67-0.02-5.5-0.02l-1.04,0c-4.39,0.01-7.34,2.95-7.34,7.33
			c-0.01,20.28-0.01,40.57,0,60.86c0,4.37,2.96,7.31,7.35,7.32H53.98z M7.9,32.31c-0.51,0-1.04-0.05-1.42-0.44
			c-0.39-0.39-0.42-0.94-0.42-1.38c0.04-2.13,0.04-4.27,0.03-6.4l-0.01-3.02c0.01-3.41,2.3-5.71,5.69-5.72h2.38
			c1.41,0,2.84,0,4.26-0.01c0.35-0.01,0.82,0.03,1.17,0.37c0.35,0.35,0.39,0.82,0.38,1.15l-0.02,0.83c-0.03,0.92-0.06,1.8,0.13,2.64
			c0.6,2.68,3,4.52,5.77,4.25c2.7-0.26,4.8-2.52,4.88-5.25l0.01-0.31c0.02-0.71,0.04-1.42-0.01-2.12c-0.01-0.18-0.05-0.74,0.33-1.15
			c0.35-0.36,0.85-0.35,1.22-0.41c3.59,0.03,7.17,0.03,10.77,0c0.45,0.04,0.84,0.04,1.19,0.39c0.36,0.35,0.4,0.82,0.4,1.19
			c0,0.29-0.01,0.57-0.02,0.86c-0.02,0.91-0.05,1.78,0.14,2.62c0.59,2.62,3,4.48,5.73,4.19c2.68-0.24,4.8-2.44,4.9-5.13
			c0.03-0.88,0.03-1.76,0-2.64c-0.01-0.2-0.02-0.72,0.35-1.1c0.37-0.37,0.88-0.37,1.07-0.37c3.68,0.02,7.38,0.02,11.06,0
			c0.01,0,0.01,0,0.02,0c0.9,0,1.37,0.48,1.4,1.43c0.01,0.37-0.01,0.73-0.01,1.1c-0.02,0.87-0.04,1.7,0.14,2.49
			c0.56,2.52,2.73,4.24,5.25,4.24c0.14,0,0.29-0.01,0.45-0.02c2.72-0.22,4.84-2.46,4.93-5.19c0.03-0.88,0.03-1.76,0-2.65
			c-0.01-0.17-0.02-0.67,0.34-1.04c0.36-0.37,0.87-0.35,1.04-0.36c0.91,0.01,1.84,0,2.75,0c1.56,0,3.13-0.02,4.68,0.04
			c2.71,0.09,4.97,2.35,5.04,5.04c0.05,2.24,0.04,4.48,0.04,6.73c0,1.26-0.01,2.52,0,3.79c0,0.18,0,0.72-0.4,1.08
			c-0.26,0.23-0.62,0.33-1.05,0.29c-0.13-0.02-0.24-0.01-0.36-0.01l-0.23,0.01H41.56C30.34,32.29,19.12,32.29,7.9,32.31z
			 M11.79,16.88c-2.56,0.01-4.15,1.61-4.16,4.19l0.01,3.02c0.01,2.14,0.01,4.29-0.03,6.43c0,0.12,0,0.2,0.01,0.25
			c0.04-0.01,0.13,0,0.29,0c11.23-0.02,22.46-0.02,33.66-0.02h50.31c0.21,0,0.37,0.01,0.5-0.01c0-1.26,0.01-2.44,0.01-3.61
			c0.01-2.23,0.01-4.46-0.04-6.68c-0.04-1.89-1.64-3.47-3.55-3.54c-1.54-0.05-3.09-0.05-4.63-0.04c-0.86,0-1.73,0.02-2.58,0
			c0.02,0.89,0.02,1.73-0.01,2.56c-0.11,3.52-2.85,6.39-6.35,6.68c-0.18,0.02-0.37,0.02-0.55,0.02c-3.21,0-6.07-2.26-6.78-5.45
			c-0.22-0.98-0.2-1.94-0.17-2.87c0.01-0.31,0.02-0.63,0.01-0.94c-3.66,0.01-7.23,0.01-10.8-0.01c0.02,0.94,0.02,1.78-0.01,2.62
			c-0.14,3.46-2.85,6.3-6.31,6.61c-3.41,0.34-6.6-2.02-7.37-5.38c-0.23-1.03-0.2-2.03-0.18-3l0.02-0.82c0-0.01,0-0.02,0-0.03h-0.01
			c-0.01,0-0.02,0-0.02,0c-3.59,0.03-7.19,0.02-10.77,0c0.03,0.79,0.02,1.48,0,2.18l-0.01,0.31c-0.1,3.51-2.8,6.41-6.28,6.74
			c-3.42,0.34-6.66-2.01-7.42-5.45c-0.23-1.03-0.2-2.04-0.17-3.02l0.02-0.76c-1.43,0.02-2.85,0.02-4.27,0.01H11.79z M43.26,16.88
			L43.26,16.88L43.26,16.88z M25.35,23.04c-1.02,0-1.97-0.39-2.67-1.08c-0.75-0.75-1.17-1.78-1.17-2.91c-0.02-2.99-0.02-5.97,0-8.96
			c0.01-1.13,0.42-2.17,1.17-2.91c0.7-0.7,1.66-1.08,2.67-1.08c0.01,0,0.02,0,0.04,0c2.16,0.02,3.8,1.75,3.82,4.04
			c0.01,1.08,0.01,2.16,0.01,3.24v2.53c0.01,1.04,0.01,2.07-0.01,3.1c-0.02,2.32-1.63,4.02-3.82,4.04
			C25.37,23.04,25.36,23.04,25.35,23.04z M25.35,7.64c-0.62,0-1.18,0.23-1.6,0.63c-0.46,0.45-0.71,1.1-0.71,1.82
			c-0.02,2.99-0.02,5.96,0,8.94c0,0.73,0.26,1.37,0.72,1.83c0.42,0.41,0.98,0.64,1.59,0.64c0.01,0,0.01,0,0.02,0
			c1.33-0.01,2.28-1.04,2.29-2.51c0.01-1.03,0.01-2.06,0.01-3.08v-2.53c0.01-1.07,0.01-2.15-0.01-3.22
			c-0.01-1.47-0.95-2.5-2.29-2.51C25.36,7.64,25.35,7.64,25.35,7.64z M74.65,23.04c-0.01,0-0.01,0-0.02,0
			c-2.15-0.02-3.8-1.75-3.82-4.04c-0.01-0.99-0.01-1.97,0-2.96v-2.95c-0.01-0.99-0.01-1.97,0-2.96c0.02-2.32,1.63-4.02,3.82-4.04
			c0.01,0,0.02,0,0.04,0c1.02,0,1.96,0.38,2.67,1.08c0.75,0.74,1.17,1.78,1.18,2.91c0.02,2.99,0.02,5.98,0,8.97
			C78.49,21.33,76.83,23.04,74.65,23.04z M74.66,7.64c-0.01,0-0.02,0-0.02,0c-1.33,0.01-2.28,1.04-2.29,2.51
			c-0.01,0.98-0.01,1.96,0,2.94v2.96c-0.01,0.98-0.01,1.96,0,2.94c0.01,1.47,0.96,2.5,2.29,2.51c0.01,0,0.01,0,0.01,0
			c1.33,0,2.3-1.04,2.31-2.46c0.02-2.98,0.02-5.96,0-8.94c-0.01-0.72-0.26-1.37-0.72-1.82C75.82,7.86,75.26,7.64,74.66,7.64z
			 M50,23.04c-1.02,0-1.96-0.39-2.67-1.08c-0.75-0.75-1.17-1.78-1.17-2.92c-0.02-2.99-0.02-5.97,0-8.96
			c0.01-1.13,0.42-2.16,1.17-2.9C48.03,6.48,48.98,6.1,50,6.1c0.02,0,0.03,0,0.04,0c2.14,0.02,3.78,1.71,3.81,3.94
			c0.01,1.08,0.01,2.16,0.01,3.24v2.55c0.01,1.06,0.01,2.12-0.01,3.18c-0.02,2.28-1.67,4.01-3.83,4.03
			C50.01,23.04,50.01,23.04,50,23.04z M50,7.64c-0.62,0-1.18,0.22-1.6,0.63c-0.46,0.45-0.71,1.09-0.71,1.81
			c-0.02,2.99-0.02,5.96,0,8.94c0,0.73,0.26,1.38,0.72,1.83c0.42,0.41,0.98,0.64,1.58,0.64c0.01,0,0.01,0,0.01,0
			c1.34-0.01,2.29-1.04,2.3-2.5c0.01-1.05,0.01-2.1,0.01-3.15v-2.56c0.01-1.07,0.01-2.15-0.01-3.22c-0.02-1.39-0.98-2.41-2.28-2.42
			C50.01,7.64,50.01,7.64,50,7.64z"/>
	</g>
	<g>
		<path class="st0" d="M76.25,96.23c-11.17-0.01-20.08-8.95-20.08-20.16c-0.01-10.92,9.03-19.88,20.07-19.89
			c10.96-0.01,19.99,9.01,19.99,19.97C96.22,87.22,87.26,96.23,76.25,96.23z M76.23,93.15c9.23,0.01,16.88-7.59,16.92-16.81
			c0.04-9.39-7.54-17.08-16.84-17.08c-9.46,0-17.04,7.53-17.06,16.95C59.23,85.53,66.85,93.14,76.23,93.15z"/>
		<path class="st0" d="M76.26,97c-0.01,0-0.01,0-0.01,0c-11.68-0.01-20.84-9.2-20.86-20.93c-0.01-11.38,9.34-20.65,20.84-20.66
			c0.01,0,0.01,0,0.02,0c5.5,0,10.69,2.16,14.63,6.1C94.83,65.44,97,70.64,97,76.14c0,5.56-2.17,10.8-6.09,14.74
			C86.99,94.83,81.79,97,76.26,97z M76.26,56.94c-0.01,0-0.02,0-0.02,0c-10.65,0.01-19.3,8.59-19.3,19.12
			c0.01,10.87,8.5,19.38,19.32,19.39c0.01,0,0.01,0,0.01,0c5.11,0,9.93-2.01,13.55-5.66c3.64-3.65,5.64-8.5,5.64-13.65
			c0-5.1-2.01-9.91-5.66-13.55C86.15,58.95,81.34,56.94,76.26,56.94z M76.25,93.92c-0.01,0-0.02,0-0.02,0
			c-4.74-0.01-9.2-1.85-12.56-5.2c-3.36-3.35-5.21-7.79-5.19-12.51c0.02-9.77,8.02-17.72,17.82-17.72h0.01
			c4.67,0,9.08,1.84,12.41,5.19c3.38,3.39,5.22,7.89,5.2,12.67C93.87,86.04,85.95,93.92,76.25,93.92z M76.3,60.03
			c-8.96,0-16.26,7.26-16.28,16.19c-0.01,4.3,1.67,8.35,4.74,11.42c3.06,3.06,7.14,4.75,11.47,4.75c0.01,0,0.02,0,0.02,0
			c8.85,0,16.08-7.19,16.12-16.05c0.02-4.37-1.67-8.48-4.75-11.57C84.58,61.71,80.57,60.03,76.3,60.03L76.3,60.03z"/>
	</g>
	<g>
		<path class="st0" d="M22.26,53.09c-1.03,0-2.05,0.02-3.08-0.01c-1.74-0.05-3.03-1.32-3.07-3.06c-0.03-1.54-0.03-3.08,0-4.62
			c0.03-1.76,1.29-3.06,3.03-3.09c2.09-0.04,4.17-0.04,6.26,0c1.69,0.03,2.98,1.32,3.02,3.01c0.04,1.57,0.04,3.15,0,4.72
			c-0.04,1.74-1.33,3-3.08,3.05C24.31,53.11,23.28,53.09,22.26,53.09z M22.23,50.01c0.83,0,1.67-0.02,2.5,0.01
			c0.43,0.01,0.64-0.08,0.63-0.58c-0.03-1.15-0.03-2.31,0-3.46c0.01-0.46-0.14-0.61-0.6-0.6c-1.67,0.02-3.33,0.02-5,0
			c-0.39,0-0.59,0.08-0.58,0.53c0.02,1.18,0.02,2.37,0,3.56c-0.01,0.42,0.14,0.56,0.55,0.55C20.56,49.99,21.39,50.01,22.23,50.01z"
			/>
	</g>
	<g>
		<path class="st0" d="M40.74,53.09c-1.03,0-2.05,0.02-3.08-0.01c-1.74-0.05-3.03-1.33-3.06-3.07c-0.03-1.54-0.03-3.08,0-4.62
			c0.03-1.79,1.32-3.06,3.14-3.08c2.02-0.02,4.04-0.03,6.06,0c1.79,0.02,3.08,1.32,3.11,3.11c0.03,1.51,0.03,3.02,0,4.52
			c-0.03,1.85-1.32,3.11-3.19,3.14C42.73,53.1,41.73,53.09,40.74,53.09z M40.71,50.01c0.83,0,1.67-0.03,2.5,0.01
			c0.52,0.02,0.65-0.17,0.64-0.66c-0.03-1.12-0.03-2.24,0-3.36c0.01-0.45-0.12-0.62-0.59-0.61c-1.67,0.02-3.33,0.02-5,0
			c-0.47-0.01-0.6,0.17-0.59,0.61c0.02,1.12,0.03,2.24,0,3.36c-0.01,0.49,0.12,0.69,0.64,0.66C39.1,49.98,39.91,50.01,40.71,50.01z"
			/>
	</g>
	<g>
		<path class="st0" d="M59.24,42.31c1.03,0,2.05-0.02,3.08,0c1.74,0.04,3.04,1.32,3.08,3.05c0.03,1.57,0.04,3.15,0,4.72
			c-0.04,1.69-1.33,2.97-3.02,3c-2.09,0.04-4.17,0.04-6.26,0c-1.69-0.03-2.98-1.32-3.02-3c-0.04-1.6-0.04-3.21,0-4.81
			c0.05-1.64,1.32-2.89,2.97-2.95C57.12,42.28,58.18,42.31,59.24,42.31z M59.22,50.01c0.8,0,1.6-0.03,2.4,0.01
			c0.53,0.03,0.74-0.13,0.71-0.69c-0.04-1.09-0.04-2.18,0-3.27c0.02-0.57-0.19-0.7-0.72-0.69c-1.6,0.03-3.2,0.03-4.8,0
			c-0.49-0.01-0.68,0.12-0.66,0.64c0.04,1.12,0.04,2.24,0,3.36c-0.02,0.52,0.18,0.66,0.67,0.64C57.62,49.98,58.42,50.01,59.22,50.01
			z"/>
	</g>
	<g>
		<path class="st0" d="M77.76,53.09c-1.03,0-2.05,0.02-3.08,0c-1.79-0.04-3.07-1.33-3.1-3.12c-0.02-1.51-0.02-3.02,0-4.52
			c0.03-1.81,1.3-3.1,3.1-3.12c2.05-0.03,4.11-0.03,6.16,0c1.73,0.03,3.02,1.33,3.06,3.07c0.03,1.54,0.03,3.08,0,4.62
			c-0.04,1.79-1.34,3.05-3.14,3.08C79.75,53.1,78.76,53.09,77.76,53.09z M77.72,50.01c0.83,0,1.67-0.02,2.5,0.01
			c0.46,0.02,0.61-0.14,0.6-0.6c-0.03-1.15-0.02-2.31,0-3.46c0.01-0.39-0.09-0.58-0.53-0.58c-1.7,0.02-3.4,0.02-5.09,0
			c-0.42,0-0.56,0.14-0.55,0.55c0.02,1.15,0.03,2.31,0,3.46c-0.02,0.54,0.21,0.64,0.68,0.62C76.12,49.99,76.92,50.01,77.72,50.01z"
			/>
	</g>
	<g>
		<path class="st0" d="M22.27,56.17c1.03,0,2.05-0.02,3.08,0c1.74,0.04,3.03,1.32,3.07,3.06c0.03,1.57,0.04,3.15,0,4.72
			c-0.04,1.69-1.33,2.97-3.03,3c-2.09,0.04-4.17,0.04-6.26,0c-1.69-0.03-2.98-1.32-3.02-3c-0.04-1.6-0.04-3.21,0-4.81
			c0.05-1.64,1.33-2.89,2.97-2.95C20.15,56.14,21.21,56.17,22.27,56.17z M22.29,59.25c-0.8,0-1.6,0.03-2.4-0.01
			c-0.53-0.03-0.73,0.13-0.71,0.69c0.04,1.09,0.04,2.18,0,3.27c-0.02,0.57,0.19,0.69,0.72,0.69c1.6-0.03,3.2-0.03,4.8,0
			c0.49,0.01,0.68-0.12,0.66-0.64c-0.04-1.12-0.04-2.24,0-3.36c0.02-0.53-0.19-0.65-0.67-0.63C23.89,59.28,23.09,59.25,22.29,59.25z
			"/>
	</g>
	<g>
		<path class="st0" d="M40.76,56.17c1.03,0,2.05-0.02,3.08,0c1.74,0.04,3.03,1.32,3.07,3.06c0.03,1.57,0.04,3.15,0,4.72
			c-0.04,1.69-1.33,2.97-3.03,3c-2.09,0.04-4.17,0.04-6.26,0c-1.69-0.03-2.98-1.32-3.02-3c-0.04-1.6-0.04-3.21,0-4.81
			c0.05-1.64,1.33-2.89,2.97-2.95C38.64,56.14,39.7,56.17,40.76,56.17z M40.61,63.87c0.98,0,1.78-0.02,2.58,0.01
			c0.49,0.02,0.68-0.12,0.66-0.64c-0.04-1.12-0.04-2.24,0-3.36c0.02-0.53-0.19-0.65-0.67-0.64c-1.31,0.03-2.63,0.01-3.94,0.01
			c-1.57,0-1.57,0-1.56,1.55c0.01,0.99-0.33,2.31,0.17,2.87C38.42,64.32,39.77,63.79,40.61,63.87z"/>
	</g>
	<g>
		<path class="st0" d="M22.23,80.82c-0.96,0-1.93,0.01-2.89,0c-1.92-0.03-3.21-1.29-3.23-3.19c-0.02-1.48-0.02-2.95,0-4.43
			c0.03-1.86,1.3-3.14,3.16-3.16c1.99-0.02,3.98-0.02,5.97,0c1.86,0.02,3.15,1.3,3.18,3.14c0.02,1.51,0.03,3.02,0,4.52
			c-0.03,1.8-1.31,3.07-3.11,3.11C24.28,80.84,23.25,80.82,22.23,80.82z M22.24,77.74c0.83,0,1.67-0.02,2.5,0.01
			c0.44,0.01,0.63-0.11,0.62-0.59c-0.03-1.15-0.03-2.31,0-3.46c0.01-0.47-0.17-0.6-0.61-0.59c-1.63,0.02-3.27,0.02-4.9,0
			c-0.48-0.01-0.68,0.11-0.67,0.64c0.04,1.12,0.04,2.24,0,3.36c-0.02,0.52,0.18,0.66,0.66,0.64C20.64,77.72,21.44,77.74,22.24,77.74
			z"/>
	</g>
	<g>
		<path class="st0" d="M40.77,70.04c1.03,0,2.05-0.02,3.08,0.01c1.74,0.05,3.03,1.32,3.06,3.06c0.03,1.54,0.03,3.08,0,4.62
			c-0.04,1.79-1.33,3.07-3.14,3.09c-2.02,0.03-4.04,0.03-6.06,0c-1.79-0.02-3.08-1.32-3.11-3.11c-0.03-1.51-0.02-3.02,0-4.52
			c0.03-1.85,1.31-3.11,3.18-3.14C38.78,70.03,39.77,70.04,40.77,70.04z M40.76,77.74c0.8,0,1.6-0.03,2.4,0.01
			c0.57,0.03,0.7-0.19,0.69-0.72c-0.03-1.09-0.03-2.18,0-3.27c0.01-0.49-0.13-0.67-0.64-0.66c-1.63,0.03-3.27,0.03-4.9,0
			c-0.53-0.01-0.65,0.19-0.64,0.67c0.03,1.12,0.03,2.24,0,3.36c-0.01,0.45,0.13,0.63,0.6,0.61C39.09,77.72,39.93,77.74,40.76,77.74z
			"/>
	</g>
	<g>
		<path class="st0" d="M59.13,56.17c0.93,0,1.86,0,2.79,0c1.23,0.01,1.93,0.56,1.94,1.52c0.01,0.96-0.7,1.55-1.9,1.56
			c-1.67,0.01-3.34,0.03-5.01-0.01c-0.63-0.02-0.85,0.16-0.8,0.8c0.05,0.77,0.01,1.54,0.01,2.31c0.01,0.76-0.21,1.54,0.9,1.88
			c0.59,0.18,0.77,0.93,0.57,1.58c-0.21,0.72-0.73,1.11-1.49,1.14c-1.52,0.06-2.98-1.28-3.04-2.89c-0.06-1.67-0.06-3.34,0-5.01
			c0.06-1.59,1.34-2.81,2.94-2.88C57.07,56.14,58.1,56.17,59.13,56.17C59.13,56.17,59.13,56.17,59.13,56.17z"/>
	</g>
</g>
</svg>
