<?xml version="1.0" encoding="utf-8"?>
<!-- Generator: Adobe Illustrator 26.0.2, SVG Export Plug-In . SVG Version: 6.00 Build 0)  -->
<svg version="1.1" id="Layer_1" xmlns="http://www.w3.org/2000/svg" xmlns:xlink="http://www.w3.org/1999/xlink" x="0px" y="0px"
	 viewBox="0 0 200 200" style="enable-background:new 0 0 200 200;" xml:space="preserve">
<style type="text/css">
	.st0{fill:#FFFFFF;}
</style>
<g>
	<g id="Group_773_00000031193343229812539600000010649247048947548084_" transform="translate(-299.003 616.167)">
		<g>
			<g id="Group_693_00000133504427988337452620000004490375396669929146_" transform="translate(0 -0.001)">
				<g id="Path_1361_00000163777529515949320020000001415635932818427320_">
					<path class="st0" d="M411.13-417.17l-25.88-0.27c-4.11-1.46-7.06-5.05-7.7-9.35c-0.69-2.98-1.52-6.3-2.35-9.62
						c-0.65-2.6-1.29-5.19-1.91-7.79c-2.78-1.08-5.29-2.13-7.74-3.24c-4.03,2.49-7.86,4.77-11.69,7.05l-1.31,0.78
						c-3.98,3.3-10.68,2.64-14.4-1.9l-13.82-13.8c-1.74-1.18-3.26-3.65-3.71-6.47c-0.44-2.81,0.23-5.63,1.9-7.94l2.33-3.83
						c1.82-3.02,3.64-6.05,5.41-9.1c-0.51-1.27-1.07-2.61-1.65-3.96c-0.54-1.29-1.08-2.57-1.6-3.86l-7.52-1.82
						c-3.41-0.85-6.83-1.69-10.26-2.49c-3.95-0.57-7.53-3.52-8.98-7.63l-0.27-1.56l0.27-25.88c1.47-4.13,5.07-7.08,9.4-7.7
						c3.16-0.75,6.7-1.63,10.24-2.52l7.09-1.74c0.83-2.27,1.69-4.38,2.61-6.44c-3.1-5.08-6-9.95-8.91-14.81
						c-3.35-3.97-2.72-10.74,1.83-14.5l13.72-13.71c1.12-1.71,3.56-3.27,6.38-3.77c2.79-0.48,5.64,0.14,7.97,1.78l3.44,2.14
						c3.66,2.18,7.31,4.37,10.95,6.6c2.92-1.33,5.62-2.47,8.31-3.55c1.49-6.26,3-12.28,4.52-18.31c0.18-2.13,1.54-4.65,3.72-6.42
						c2.19-1.77,4.98-2.53,7.71-2.29l19.86-0.02c5.18-0.68,10.37,3.41,11.1,9.09c1.44,5.64,2.99,11.77,4.46,17.94
						c2.67,1.02,5.14,2.06,7.57,3.16c4.33-2.66,8.49-5.13,12.65-7.61l1.16-0.69c3.86-3.28,10.49-2.63,14.19,1.82l13.97,14
						c1.72,1.18,3.22,3.63,3.66,6.42c0.44,2.79-0.24,5.58-1.9,7.86l-1.96,3.21c-2.08,3.49-4.17,6.99-6.31,10.46
						c1.22,2.69,2.25,5.15,3.22,7.62c6.37,1.52,12.44,3.03,18.51,4.55c5.13,0.69,9.05,5.73,8.42,11.37
						c0.05,6.3,0.05,13.12,0.03,19.95c0.64,5.15-3.46,10.36-9.16,11.05c-5.59,1.43-11.71,2.96-17.86,4.44
						c-1.01,2.6-2.02,5-3.07,7.36c2.58,4.2,5,8.26,7.42,12.32l0.73,1.21c1.37,1.57,2.21,4.3,1.95,7.09
						c-0.26,2.79-1.59,5.31-3.75,7.11c-4.6,4.61-9.3,9.31-14,13.98c-1.24,1.76-3.74,3.24-6.55,3.66c-2.82,0.4-5.62-0.3-7.91-2.01
						l-4.55-2.74c-2.85-1.71-5.69-3.42-8.57-5.1c-2.57,1.02-5.25,2.17-7.92,3.38c-1.53,5.91-3,11.82-4.38,17.76
						c-0.55,3.94-3.5,7.55-7.62,9.01l-1.54-4.35V-417.17z M387.86-426.53h22.25c0.54-0.37,0.9-0.95,1-1.62
						c1.53-6.7,3.1-12.99,4.74-19.25c0.76-2.29,2.15-3.91,4.01-4.88c3.49-1.61,6.84-3.03,10.23-4.37c2.18-0.74,4.27-0.59,6.11,0.34
						c3.46,2,6.63,3.91,9.8,5.81l6.28,3.51l1.31-1.04c4.69-4.66,9.37-9.33,14.03-14.04c1.01-0.85,1.09-1.69,0.74-2.11l-1.14-1.81
						c-2.61-4.37-5.21-8.74-7.88-13.07c-1.44-2.06-1.57-5.07-0.2-7.47c1.08-2.43,2.27-5.27,3.38-8.15c0.67-2.3,2.93-4.29,5.64-4.74
						c6.09-1.46,12.51-3.07,18.91-4.66c1.17-0.18,1.6-0.73,1.53-1.33c-0.01-7.37-0.01-14.17-0.03-20.97
						c0.09-1.11-0.31-1.62-0.88-1.7c-6.89-1.7-13.29-3.3-19.71-4.83c-2.43-0.38-4.74-2.4-5.55-5.08c-1-2.55-2.19-5.4-3.48-8.21
						c-1.25-2.1-1.12-5.27,0.54-7.66c2.12-3.44,4.33-7.14,6.53-10.83l2.64-4.81l-1.05-1.27l-14.05-14.05
						c-0.91-1.08-1.63-1.13-2.11-0.74l-1.76,1.11c-4.44,2.64-8.89,5.28-13.28,7.98c-2.05,1.47-5.14,1.63-7.61,0.27
						c-2.47-1.12-5.31-2.31-8.18-3.4c-2.49-0.75-4.55-3.16-4.95-6.04c-1.43-5.92-3.03-12.27-4.62-18.61
						c-0.17-1.15-0.64-1.47-1.36-1.51l-20.83,0.04c-1.16-0.17-1.78,0.46-1.83,0.99c-1.72,7-3.32,13.33-4.82,19.69
						c-0.44,2.54-2.44,4.76-5.16,5.55c-2.69,1.1-5.8,2.41-8.84,3.79c-2.11,1.26-5.28,1.11-7.67-0.56c-3.59-2.2-7.44-4.5-11.3-6.8
						l-5-2.74l-1.38,1.16l-13.76,13.78c-1.18,0.99-1.26,1.85-0.78,2.43c3.52,5.78,6.62,10.98,9.77,16.16
						c1.41,1.95,1.59,4.96,0.26,7.37c-0.96,2.13-1.98,4.62-2.88,7.14c-0.72,2.5-3.07,4.55-5.92,4.95l-7.39,1.85
						c-3.6,0.89-7.18,1.79-10.79,2.62c-0.98,0.15-1.65,0.55-2.03,1.11v22.25c0.37,0.55,0.96,0.93,1.63,1.02
						c3.84,0.88,7.3,1.73,10.76,2.59l8.37,2.04c2.47,0.43,4.66,2.38,5.44,5.05c0.45,1.09,1.07,2.56,1.69,4.03
						c0.71,1.69,1.43,3.38,2.08,5.08c0.73,2.06,0.6,4.2-0.29,6.02c-2.11,3.69-4.14,7.06-6.17,10.43l-2.29,3.81
						c-0.84,1.17-0.69,2.13-0.19,2.5l14.5,14.39c0.93,1.12,1.72,1.2,2.3,0.76l1.86-1.18c4.13-2.46,8.25-4.92,12.34-7.43
						c1.97-1.44,5.02-1.66,7.5-0.32c2.58,1.18,5.49,2.39,8.42,3.53c2.38,0.65,4.49,3.01,4.95,5.87c0.6,2.5,1.3,5.3,1.99,8.11
						c0.85,3.38,1.69,6.76,2.46,10.15C386.91-427.56,387.3-426.91,387.86-426.53z M374.08-443.91c0.1,0.05,0.2,0.09,0.31,0.12
						C374.28-443.83,374.18-443.87,374.08-443.91z M373.13-444.97c0.01,0.04,0.02,0.08,0.03,0.12
						C373.14-444.89,373.14-444.93,373.13-444.97z M364.75-447.81c0.04,0.02,0.08,0.04,0.12,0.05
						C364.83-447.78,364.78-447.79,364.75-447.81z M366.63-448.09c-0.09,0.05-0.18,0.11-0.26,0.16
						C366.46-447.98,366.54-448.03,366.63-448.09z M467.53-482.41c-0.02,0.05-0.05,0.1-0.07,0.15
						C467.49-482.3,467.52-482.35,467.53-482.41z M467.17-484.18c0.04,0.07,0.08,0.13,0.12,0.2
						C467.25-484.05,467.21-484.11,467.17-484.18z M327.97-490.24c0.09,0.02,0.18,0.05,0.27,0.06L327.97-490.24z M470.17-490.28
						c-0.05,0.01-0.1,0.02-0.16,0.04C470.06-490.25,470.11-490.26,470.17-490.28z M326.72-491.27c0.01,0.05,0.03,0.1,0.06,0.15
						C326.76-491.17,326.74-491.21,326.72-491.27z M471.37-491.66c-0.04,0.1-0.08,0.2-0.12,0.3
						C471.3-491.45,471.34-491.56,471.37-491.66z M326.68-540.87c-0.03,0.07-0.06,0.15-0.08,0.23
						C326.62-540.72,326.65-540.79,326.68-540.87z M471.21-541.16c0.02,0.04,0.04,0.09,0.05,0.13
						C471.26-541.07,471.24-541.11,471.21-541.16z M327.83-542c-0.05,0.01-0.1,0.02-0.15,0.04L327.83-542z M469.81-542.08
						c0.1,0.02,0.19,0.04,0.29,0.07C470-542.04,469.9-542.07,469.81-542.08z M330.14-547.39c0.05,0.09,0.1,0.18,0.16,0.27
						C330.25-547.21,330.2-547.3,330.14-547.39z M467.36-548.82c-0.02,0.04-0.04,0.07-0.06,0.1
						C467.33-548.75,467.34-548.78,467.36-548.82z M330.02-549.1c-0.03,0.04-0.05,0.09-0.07,0.14
						C329.97-549.01,330-549.05,330.02-549.1z M467.24-550.5c0.05,0.11,0.1,0.21,0.15,0.32C467.35-550.29,467.3-550.4,467.24-550.5z
						 M364.26-584.17c-0.12,0.04-0.23,0.09-0.34,0.16C364.03-584.06,364.15-584.11,364.26-584.17z M365.61-584.14
						c0.03,0.02,0.07,0.04,0.1,0.06C365.67-584.1,365.64-584.12,365.61-584.14z M431.47-584.41c-0.08,0.04-0.15,0.09-0.23,0.13
						C431.32-584.32,431.4-584.37,431.47-584.41z M432.91-584.61c0.04,0.02,0.09,0.04,0.13,0.06
						C433.01-584.57,432.96-584.59,432.91-584.61z M373.11-587.17c-0.02,0.07-0.04,0.14-0.05,0.21
						C373.08-587.03,373.09-587.1,373.11-587.17z M424.84-587.49c0.01,0.04,0.02,0.07,0.02,0.11
						C424.86-587.41,424.85-587.45,424.84-587.49z M374.01-588.33c-0.04,0.01-0.08,0.02-0.12,0.04
						C373.93-588.3,373.97-588.32,374.01-588.33z M423.66-588.46c0.07,0.02,0.15,0.05,0.22,0.08
						C423.81-588.41,423.74-588.43,423.66-588.46z M399.01-472.79c-11.61,0-22.47-4.49-30.66-12.66
						c-8.19-8.18-12.71-19.06-12.72-30.63c-0.02-23.9,19.39-43.36,43.29-43.39c0.01,0,0.02,0,0.04,0c23.87,0,43.31,19.4,43.35,43.27
						h0.03c-0.04,23.82-19.45,43.29-43.26,43.41C399.05-472.79,399.03-472.79,399.01-472.79z M398.95-550.11c-0.01,0-0.02,0-0.02,0
						c-18.73,0.02-33.96,15.28-33.94,34.02c0.01,9.07,3.55,17.61,9.98,24.01c6.42,6.4,14.94,9.93,24,9.93c0.01,0,0.02,0,0.04,0
						c18.69-0.09,33.91-15.34,33.97-34.01h-0.03C432.91-534.88,417.67-550.11,398.95-550.11z"/>
				</g>
			</g>
		</g>
	</g>
</g>
</svg>
