<?xml version="1.0" encoding="utf-8"?>
<!-- Generator: Adobe Illustrator 26.0.2, SVG Export Plug-In . SVG Version: 6.00 Build 0)  -->
<svg version="1.1" id="Layer_1" xmlns="http://www.w3.org/2000/svg" xmlns:xlink="http://www.w3.org/1999/xlink" x="0px" y="0px"
	 viewBox="0 0 200 200" style="enable-background:new 0 0 200 200;" xml:space="preserve">
<style type="text/css">
	.st0{fill:#FFFFFF;}
</style>
<g>
	<g>
		<path class="st0" d="M197.47,176.51c-1.18,3.75-2.53,7.39-4.92,10.61c-9.13,12.27-27.5,14.26-38.52,3.65
			c-13.41-12.9-26.42-26.22-39.58-39.38c-1.81-1.81-1.73-3.45,0.02-5.34c0.56-0.6,1.16-1.19,1.62-1.86c1-1.48,0.78-3.33-0.44-4.52
			c-1.2-1.17-3.1-1.34-4.55-0.37c-0.47,0.31-0.88,0.72-1.29,1.12c-2.55,2.45-3.9,2.45-6.43-0.09c-2.1-2.11-4.16-4.27-6.29-6.46
			c-0.42,0.29-0.7,0.44-0.91,0.65C91,139.67,85.8,144.8,80.73,150.05c-0.58,0.6-0.71,1.94-0.59,2.88
			c1.62,12.42-1.83,23.23-10.3,32.41c-17.02,18.45-48.16,15.37-61.3-6.04c-13.44-21.91-3.41-49.7,20.96-57.91
			c5.8-1.95,11.79-2.47,17.85-1.38c1.33,0.24,2.21-0.1,3.18-1.06c22.83-22.89,45.7-45.75,68.59-68.58c0.94-0.94,1.27-1.75,1.07-3.13
			c-3.06-21.6,10.69-40.52,32.21-44.42c0.92-0.17,1.85-0.32,2.77-0.48c2.29,0,4.57,0,6.86,0c1.6,0.31,3.2,0.65,4.81,0.94
			c1.56,0.28,3.02,0.72,3.54,2.43c0.54,1.77-0.41,3-1.59,4.18c-6.13,6.08-12.21,12.21-18.34,18.29c-0.76,0.76-1.01,1.38-0.62,2.47
			c1.56,4.42,2.96,8.9,4.55,13.31c0.27,0.74,1.09,1.53,1.84,1.8c4.3,1.54,8.67,2.87,12.96,4.4c1.29,0.46,2.04,0.19,2.95-0.74
			c5.98-6.05,12.02-12.04,18.04-18.06c1.15-1.15,2.29-2.24,4.13-1.66c1.81,0.57,2.26,2.02,2.51,3.67c0.13,0.85,0.45,1.68,0.68,2.51
			c0,3.68,0,7.37,0,11.05c-0.12,0.42-0.3,0.83-0.37,1.26c-3.35,20.69-23.75,35.27-44.39,31.67c-1.2-0.21-1.99,0.05-2.84,0.92
			c-4.9,4.98-9.86,9.89-14.79,14.83c-0.34,0.34-0.63,0.73-0.91,1.07c0.14,0.22,0.18,0.35,0.27,0.44c1.93,1.93,3.85,3.87,5.78,5.8
			c2.87,2.88,2.89,4.06,0.12,6.97c-1.87,1.96-2.05,3.95-0.52,5.56c1.57,1.64,3.67,1.48,5.7-0.43c2.89-2.72,4.07-2.71,6.82,0.04
			c12.3,12.3,24.61,24.59,36.89,36.9c1.16,1.16,2.24,2.42,3.28,3.7c2.55,3.1,3.75,6.84,4.95,10.57
			C197.47,169.65,197.47,173.08,197.47,176.51z M160.18,9.35c-5.92-0.72-11.37,0.44-16.44,3.11c-13.23,6.97-19.74,20.72-16.81,35.48
			c0.42,2.13,0.11,3.71-1.49,5.31c-24.07,23.98-48.1,48.01-72.09,72.06c-1.53,1.54-3.09,1.74-5.15,1.51
			c-3.7-0.41-7.51-0.94-11.15-0.47c-18.82,2.4-31.47,20.14-27.85,38.69c4.47,22.93,31.18,33.95,50.44,20.81
			c11.13-7.59,16.37-20.58,13.63-33.92c-0.42-2.02-0.17-3.62,1.39-5.17c24.11-24.03,48.18-48.1,72.23-72.19
			c1.45-1.45,2.92-1.9,4.96-1.46c17.27,3.76,32.86-6.54,37.71-21.44c1.22-3.76,1.76-7.59,1.17-11.82c-0.66,0.35-0.93,1.02-1.41,1.5
			c-4.83,4.87-9.73,9.67-14.51,14.59c-1.59,1.63-3.18,1.97-5.3,1.23c-5.69-1.98-11.41-3.87-17.14-5.72
			c-1.92-0.62-3.09-1.73-3.71-3.68c-1.82-5.67-3.69-11.33-5.67-16.95c-0.82-2.32-0.45-4.03,1.37-5.79
			C149.72,19.88,154.92,14.58,160.18,9.35z M106.74,134.24c0.44-0.26,0.97-0.6,1.51-0.9c3.99-2.21,8.86-1.5,12.1,1.75
			c3.17,3.18,3.94,8.29,1.55,12.09c-0.87,1.38-0.53,2,0.46,2.98c11.48,11.42,22.93,22.89,34.39,34.34c0.62,0.62,1.29,1.2,1.61,1.49
			c9.33-9.33,18.55-18.56,27.74-27.76c-12.3-12.25-24.81-24.71-37.36-37.2c-5.48,3.04-9.88,2.77-13.56-0.93
			c-3.58-3.6-3.83-8.04-0.84-13.41c-1.71-1.74-3.37-3.45-4.93-5.04c-9.17,9.21-18.39,18.47-27.61,27.73
			C103.33,130.88,104.99,132.52,106.74,134.24z M165.04,189.77c6.28,2.79,15.48,0.63,20.47-4.58c6.03-6.3,6.88-15.79,4.4-20.27
			C181.63,173.2,173.31,181.51,165.04,189.77z"/>
		<path class="st0" d="M171.4,199c-6.88,0-13.45-2.58-18.3-7.25c-9.75-9.39-19.43-19.14-28.81-28.57
			c-3.59-3.62-7.18-7.23-10.78-10.83c-1.58-1.58-2.87-4.12-0.01-7.2l0.37-0.39c0.4-0.42,0.8-0.83,1.12-1.31
			c0.62-0.92,0.51-2.05-0.26-2.82c-0.76-0.74-1.95-0.82-2.86-0.22c-0.37,0.25-0.7,0.56-1.02,0.87c-3.18,3.08-5.35,3.07-8.41-0.02
			c-1.42-1.43-2.83-2.88-4.25-4.35l-1.23-1.27l-2.98,2.97c-4.12,4.1-8.23,8.19-12.27,12.36c-0.16,0.18-0.33,0.98-0.23,1.78
			c1.67,12.76-1.92,24.03-10.64,33.5c-8.39,9.1-20.45,13.66-33.2,12.36c-12.73-1.24-23.75-8.03-30.24-18.61
			c-6.63-10.81-8.02-23.67-3.81-35.28c4.2-11.6,13.49-20.56,25.49-24.6c6.1-2.05,12.35-2.55,18.51-1.43
			c0.89,0.16,1.32-0.01,1.99-0.68c22.83-22.9,45.7-45.76,68.59-68.59c0.68-0.67,0.82-1.08,0.69-1.99
			c-3.14-22.18,11.18-41.93,33.3-45.94l2.8-0.48L162.02,1l1.78,0.33c1.09,0.22,2.18,0.44,3.27,0.63c1.22,0.22,3.77,0.67,4.59,3.37
			c0.83,2.76-1.04,4.62-1.94,5.51c-2.74,2.73-5.48,5.46-8.22,8.2c-3.37,3.37-6.74,6.74-10.13,10.1c-0.47,0.46-0.47,0.56-0.3,1.06
			c0.72,2.05,1.41,4.1,2.1,6.16c0.79,2.38,1.59,4.77,2.45,7.14c0.12,0.34,0.65,0.85,1.02,0.98c2.17,0.77,4.34,1.5,6.52,2.21
			c2.16,0.72,4.31,1.43,6.45,2.19c0.72,0.26,0.94,0.2,1.56-0.42c3.98-4.04,8-8.05,12.02-12.05l6.02-6.01
			c1.13-1.13,2.82-2.84,5.49-1.99c2.84,0.89,3.24,3.5,3.43,4.75c0.09,0.53,0.25,1.04,0.41,1.56l0.3,1.16l-0.2,11.88
			c-0.07,0.22-0.15,0.43-0.19,0.66c-1.68,10.38-7.46,19.56-16.29,25.85c-8.79,6.25-19.32,8.7-29.65,6.92
			c-0.79-0.13-1.12-0.03-1.66,0.54c-3.33,3.37-6.68,6.73-10.04,10.08l-4.76,4.76c-0.05,0.05-0.09,0.09-0.14,0.14l5.27,5.25
			c3.41,3.41,3.44,5.39,0.14,8.85c-2.02,2.13-0.89,3.31-0.52,3.7c1.04,1.08,2.32,0.92,3.81-0.48c3.41-3.2,5.44-3.18,8.7,0.07
			l9.22,9.23c9.23,9.22,18.46,18.44,27.67,27.68c1.28,1.28,2.42,2.64,3.37,3.79c2.71,3.29,3.98,7.21,5.19,11l0.07,0.43l-0.07,10.7
			c-1.17,3.7-2.59,7.59-5.13,11c-4.71,6.32-11.98,10.32-19.97,10.99C172.91,198.97,172.15,199,171.4,199z M113.15,137.33
			c1.25,0,2.49,0.47,3.43,1.38c1.71,1.68,1.96,4.24,0.62,6.24c-0.39,0.58-0.89,1.12-1.39,1.65l-0.35,0.37
			c-1.3,1.4-1.31,2.22-0.05,3.47c3.6,3.6,7.19,7.22,10.79,10.84c9.37,9.42,19.05,19.16,28.77,28.52c4.84,4.65,11.5,7.07,18.49,6.42
			c7.21-0.59,13.78-4.21,18.03-9.9c2.13-2.87,3.41-6.08,4.65-10.02v-9.87c-1.17-3.65-2.3-7.09-4.65-9.93c-0.91-1.11-2-2.4-3.2-3.6
			c-9.21-9.23-18.44-18.46-27.66-27.68l-9.23-9.22c-2.22-2.22-2.59-2.23-4.96-0.01c-2.57,2.44-5.48,2.58-7.59,0.39
			c-2.05-2.15-1.86-4.92,0.52-7.42c2.28-2.39,2.27-2.72-0.1-5.09l-6.15-6.32l-0.45-0.81l0.74-1.24c0.22-0.28,0.46-0.56,0.72-0.83
			l4.76-4.76c3.35-3.35,6.7-6.69,10.02-10.07c1.16-1.17,2.43-1.58,4.04-1.3c9.62,1.69,19.42-0.62,27.63-6.46
			c8.24-5.87,13.64-14.42,15.2-24.09c0.06-0.37,0.17-0.72,0.29-1.07l0.06-0.18V36.08l-0.17-0.56c-0.2-0.64-0.39-1.29-0.49-1.95
			c-0.26-1.69-0.64-2.3-1.59-2.6c-0.99-0.32-1.58,0.14-2.77,1.33l-6.02,6.01c-4.02,4-8.03,8.01-12.01,12.04
			c-1.34,1.36-2.63,1.69-4.36,1.06c-2.12-0.76-4.26-1.46-6.39-2.17c-2.2-0.72-4.4-1.45-6.58-2.23c-1.13-0.4-2.24-1.49-2.64-2.6
			c-0.87-2.39-1.67-4.8-2.47-7.2c-0.68-2.05-1.37-4.09-2.08-6.12c-0.68-1.92,0.15-3.07,0.95-3.86c3.39-3.35,6.75-6.72,10.12-10.09
			c2.74-2.74,5.47-5.48,8.22-8.2c1.23-1.22,1.53-1.91,1.25-2.84c-0.26-0.85-0.86-1.21-2.49-1.5c-1.11-0.2-2.22-0.43-3.32-0.64
			l-1.51-0.3l-6.6,0.03l-2.54,0.46c-20.67,3.74-34.05,22.19-31.12,42.9c0.25,1.76-0.17,3-1.46,4.27
			C97.17,74.16,74.3,97.02,51.47,119.91c-1.29,1.29-2.63,1.73-4.36,1.44c-5.72-1.04-11.51-0.58-17.19,1.33
			c-11.21,3.77-19.89,12.15-23.81,22.96c-3.93,10.84-2.63,22.86,3.58,32.97c6.04,9.86,16.33,16.18,28.21,17.33
			c11.87,1.23,23.14-3.03,30.95-11.51c8.16-8.85,11.51-19.39,9.96-31.33c-0.16-1.22,0.01-3,0.96-3.98c4.04-4.19,8.17-8.3,12.3-12.4
			l3.16-3.16c0.23-0.23,0.48-0.39,0.72-0.55l1.3-0.91l2.86,2.95c1.41,1.46,2.81,2.91,4.22,4.33c2.01,2.01,2.51,2.03,4.54,0.07
			c0.54-0.52,0.98-0.94,1.48-1.27C111.2,137.61,112.18,137.33,113.15,137.33z M41.42,192.8c-4.38,0-8.79-0.85-13-2.58
			c-10.67-4.38-18.34-13.7-20.54-24.94c-1.83-9.39,0.23-18.81,5.8-26.52c5.55-7.67,13.78-12.55,23.2-13.75
			c3.41-0.45,6.94-0.04,10.34,0.34l1.13,0.12c1.96,0.19,2.99-0.07,4.05-1.12c24-24.05,48.02-48.08,72.09-72.06
			c1.19-1.19,1.48-2.26,1.12-4.1c-3.02-15.25,3.85-29.74,17.5-36.94c5.48-2.89,11.28-4.01,17.23-3.25l2.74,0.33l-6.42,6.41
			c-3.77,3.77-7.53,7.54-11.37,11.23c-1.42,1.36-1.69,2.51-1.04,4.37c1.84,5.24,3.7,10.8,5.68,16.99c0.48,1.5,1.31,2.3,2.85,2.8
			c6.9,2.22,12.2,3.99,17.17,5.73c1.66,0.57,2.68,0.35,3.89-0.9c2.97-3.05,5.97-6.04,8.98-9.04c1.86-1.85,3.71-3.7,5.55-5.55
			c0.12-0.12,0.22-0.26,0.32-0.41c0.3-0.41,0.72-0.96,1.42-1.33l1.69-0.89l0.27,1.9c0.57,4.07,0.17,8.13-1.22,12.41
			c-5.36,16.45-22.24,26.08-39.28,22.33c-1.57-0.33-2.59-0.03-3.72,1.1c-24.05,24.09-48.12,48.15-72.23,72.19
			c-1.12,1.11-1.4,2.18-1.03,3.95c2.85,13.86-2.59,27.39-14.19,35.3C54.72,190.82,48.11,192.8,41.42,192.8z M40.11,127.51
			c-0.98,0-1.94,0.05-2.88,0.17c-8.68,1.1-16.26,5.6-21.36,12.66c-5.13,7.1-7.03,15.78-5.34,24.43
			c2.02,10.34,9.09,18.93,18.92,22.96c9.77,4.02,20.79,2.89,29.45-3.01c10.68-7.29,15.69-19.76,13.06-32.54
			c-0.54-2.66,0-4.63,1.77-6.39c24.11-24.03,48.18-48.1,72.23-72.19c1.8-1.8,3.71-2.39,6.2-1.82c15.73,3.41,31.23-5.41,36.15-20.54
			c0.95-2.9,1.38-5.6,1.35-8.3c-1.63,1.64-3.27,3.28-4.9,4.91c-3,2.99-6,5.98-8.95,9.01c-1.93,1.98-4.06,2.48-6.71,1.56
			c-4.95-1.73-10.23-3.49-17.11-5.7c-2.38-0.77-3.83-2.21-4.58-4.54c-1.98-6.17-3.83-11.7-5.66-16.91c-1.01-2.88-0.49-5.1,1.71-7.21
			c3.83-3.68,7.59-7.43,11.33-11.19l2.38-2.38c-4.52,0.02-8.62,0.97-12.79,3.16c-12.77,6.73-18.94,19.77-16.11,34.04
			c0.53,2.7-0.04,4.71-1.86,6.52c-24.07,23.98-48.1,48-72.09,72.06c-2.05,2.05-4.21,2.07-6.25,1.9l-1.14-0.13
			C44.66,127.77,42.35,127.51,40.11,127.51z M171.25,192.33c-2.4,0-4.72-0.43-6.75-1.33l-1.79-0.79l27.51-27.5l0.87,1.56
			c2.89,5.2,1.73,15.23-4.6,21.85C182.71,190.07,176.77,192.33,171.25,192.33z M167.51,189.2c5.58,1.42,12.91-0.62,17.03-4.94
			c4.96-5.18,6.04-12.61,4.88-16.95L167.51,189.2z M158.39,187.86l-1.3-1.21c-0.36-0.32-0.84-0.75-1.29-1.21l-10.85-10.85
			c-7.84-7.84-15.67-15.67-23.53-23.49c-1.06-1.06-2.08-2.38-0.65-4.65c2.03-3.21,1.45-7.59-1.37-10.42
			c-2.84-2.84-7.04-3.45-10.5-1.53c-0.34,0.19-0.68,0.4-0.98,0.59l-1.38,0.83l-6.65-6.53l29.53-29.66l6.58,6.73l-0.49,0.88
			c-2.72,4.89-2.53,8.64,0.62,11.81c3.22,3.21,7,3.44,11.96,0.7l0.88-0.49L188,158.23L158.39,187.86z M113.16,130.72
			c2.97,0,5.91,1.17,8.15,3.42c3.7,3.71,4.42,9.5,1.73,13.76c-0.29,0.47-0.29,0.63-0.29,0.64c0.01,0.03,0.07,0.19,0.56,0.68
			c7.86,7.82,15.7,15.65,23.54,23.49l10.86,10.85c0.2,0.2,0.41,0.41,0.61,0.59l25.88-25.91l-35.7-35.55
			c-5.59,2.82-10.39,2.28-14.26-1.63c-3.81-3.82-4.32-8.57-1.54-14.12l-3.29-3.36l-25.7,25.8l3.23,3.18
			c0.21-0.13,0.43-0.26,0.66-0.39C109.36,131.19,111.27,130.72,113.16,130.72z"/>
	</g>
	<g>
		<path class="st0" d="M19.83,2.34c7.01,4.05,13.96,8.21,21.07,12.1c2.58,1.41,4.15,3.18,4.48,6.08c0.76,6.66,4.1,11.65,8.98,16.27
			c11.38,10.79,22.27,22.08,33.37,33.17c0.49,0.49,1.07,0.9,1.52,1.27c-1.67,1.6-3.17,3.02-4.81,4.58
			c-0.15-0.14-0.64-0.59-1.12-1.06C70.08,61.51,56.81,48.29,43.62,34.99c-1.05-1.06-1.84-2.57-2.3-4.01
			c-0.94-2.95-1.54-6.01-2.35-9.01c-0.15-0.56-0.46-1.27-0.91-1.53c-6.19-3.6-12.42-7.14-18.45-10.59
			c-3.26,3.23-6.39,6.34-9.66,9.58c3.45,6.04,6.98,12.27,10.59,18.45c0.29,0.5,1.07,0.84,1.69,1.01c2.38,0.67,4.76,1.39,7.19,1.8
			c2.83,0.48,4.94,1.88,6.95,3.9C49.11,57.45,61.94,70.21,74.75,83c0.49,0.49,1.09,0.88,1.76,1.41c-1.8,1.61-3.35,3-5.38,4.81
			c-0.18-0.3-0.47-1.07-1-1.6c-12.87-12.91-25.74-25.8-38.67-38.65c-0.84-0.84-2.05-1.46-3.2-1.8c-3.1-0.92-6.31-1.48-9.37-2.48
			c-1.26-0.41-2.65-1.37-3.31-2.48c-4.19-7.03-8.2-14.16-12.24-21.27c-1.2-2.1-1.08-3.33,0.55-4.97c4.06-4.11,8.15-8.19,12.25-12.26
			c0.53-0.52,1.2-0.91,1.8-1.35C18.56,2.34,19.2,2.34,19.83,2.34z"/>
		<path class="st0" d="M70.81,91.3l-0.84-1.38c-0.07-0.1-0.14-0.24-0.22-0.42c-0.14-0.29-0.34-0.69-0.58-0.92
			C56.31,75.66,43.43,62.77,30.51,49.92c-0.62-0.61-1.61-1.16-2.64-1.47c-1.35-0.39-2.71-0.72-4.08-1.05
			c-1.8-0.43-3.59-0.87-5.34-1.44c-1.67-0.55-3.26-1.76-4.04-3.07c-3.54-5.94-6.94-11.95-10.36-17.96l-1.9-3.35
			c-1.5-2.61-1.27-4.52,0.75-6.58c4.06-4.12,8.16-8.2,12.27-12.27c0.42-0.42,0.91-0.76,1.4-1.1L17.49,1h2.7l6.45,3.75
			c4.86,2.84,9.89,5.77,14.91,8.51c3.18,1.75,4.82,4,5.18,7.11c0.64,5.67,3.29,10.44,8.57,15.44c8.04,7.62,15.96,15.61,23.61,23.35
			c3.26,3.29,6.5,6.57,9.78,9.84c0.3,0.3,0.65,0.57,0.96,0.81l1.63,1.33l-6.84,6.52l-0.93-0.89c-0.39-0.35-0.77-0.72-1.14-1.08
			l-6.12-6.11c-11.22-11.2-22.43-22.4-33.59-33.66c-1.12-1.13-2.06-2.74-2.63-4.55c-0.6-1.89-1.07-3.83-1.54-5.76
			c-0.26-1.11-0.53-2.22-0.83-3.31c-0.11-0.43-0.28-0.7-0.33-0.75c-5.4-3.14-10.88-6.26-16.22-9.31l-1.28-0.74l-8.21,8.13l1.47,2.58
			c2.82,4.94,5.68,9.96,8.6,14.96c0.04,0.03,0.35,0.24,0.91,0.39l1.1,0.31c1.95,0.55,3.96,1.12,5.94,1.46
			c2.86,0.49,5.22,1.81,7.68,4.29c10.55,10.65,21.16,21.24,31.78,31.83l6.59,6.58c0.29,0.3,0.62,0.54,0.99,0.81l1.9,1.49L70.81,91.3
			z M18.36,3.69L18.1,3.87c-0.36,0.24-0.72,0.49-1.03,0.79c-4.1,4.06-8.19,8.13-12.24,12.25c-1.12,1.14-1.29,1.68-0.33,3.35
			l1.9,3.35c3.41,5.99,6.81,11.98,10.33,17.9c0.45,0.75,1.53,1.55,2.57,1.9c1.68,0.54,3.4,0.96,5.13,1.38
			c1.4,0.33,2.82,0.68,4.21,1.09c1.45,0.43,2.82,1.21,3.77,2.13c12.94,12.85,25.81,25.75,38.68,38.66c0.14,0.14,0.27,0.3,0.38,0.45
			l2.95-2.63c-0.22-0.18-0.41-0.35-0.6-0.54l-6.59-6.58C56.59,66.78,45.97,56.19,35.41,45.53c-2.05-2.07-3.91-3.13-6.22-3.52
			c-2.12-0.36-4.2-0.95-6.22-1.52l-1.1-0.32c-0.85-0.24-1.96-0.72-2.49-1.62c-2.92-5.01-5.8-10.04-8.61-14.99l-2.5-4.37L19.41,8.17
			l3.05,1.75c5.35,3.05,10.83,6.18,16.28,9.35c0.93,0.54,1.36,1.7,1.54,2.34c0.3,1.12,0.57,2.25,0.84,3.39
			c0.45,1.87,0.91,3.74,1.48,5.57c0.44,1.38,1.16,2.65,1.98,3.47C55.74,45.3,66.95,56.49,78.17,67.69l6.12,6.11
			c0.05,0.05,0.11,0.11,0.16,0.16l2.78-2.65c-0.15-0.12-0.3-0.26-0.43-0.39c-3.28-3.28-6.54-6.57-9.79-9.86
			c-7.65-7.72-15.55-15.7-23.56-23.29c-5.77-5.48-8.67-10.75-9.39-17.1c-0.26-2.25-1.36-3.72-3.79-5.05
			c-5.05-2.76-10.09-5.7-14.97-8.55l-5.82-3.38H18.36z"/>
	</g>
	<g>
		<path class="st0" d="M41.43,178.03c-2.99,0-5.97-0.04-8.96,0.02c-1.69,0.03-2.91-0.6-3.78-2.06c-3.05-5.12-6.12-10.24-9.21-15.34
			c-0.88-1.46-0.88-2.82,0-4.28c3.09-5.1,6.16-10.21,9.2-15.34c0.83-1.4,2-2.03,3.61-2.03c6.16,0.02,12.32,0.02,18.48,0
			c1.61,0,2.76,0.64,3.59,2.04c3.04,5.13,6.12,10.24,9.21,15.34c0.88,1.46,0.86,2.84-0.01,4.29c-3.09,5.1-6.16,10.21-9.22,15.33
			c-0.87,1.46-2.09,2.08-3.78,2.05C47.53,177.99,44.48,178.03,41.43,178.03z M41.64,145.51c-2.22,0-4.45-0.1-6.67,0.06
			c-0.73,0.05-1.68,0.57-2.06,1.18c-2.21,3.48-4.34,7.02-6.36,10.61c-0.34,0.6-0.32,1.72,0.02,2.32c2.03,3.59,4.15,7.13,6.36,10.61
			c0.38,0.6,1.33,1.18,2.03,1.2c4.38,0.11,8.77,0.11,13.15,0c0.7-0.02,1.65-0.58,2.03-1.18c2.21-3.48,4.25-7.07,6.42-10.58
			c0.53-0.86,0.61-1.48,0.04-2.39c-2.18-3.5-4.3-7.04-6.36-10.61c-0.56-0.97-1.25-1.26-2.3-1.23
			C45.84,145.56,43.74,145.51,41.64,145.51z"/>
		<path class="st0" d="M50.69,179.4c-0.05,0-0.09,0-0.14,0c-2.15-0.05-4.33-0.05-6.5-0.03l-2.62,0.01l-2.69-0.01
			c-2.1-0.01-4.18-0.01-6.24,0.02c-0.05,0-0.1,0-0.14,0c-2.11,0-3.73-0.91-4.82-2.72c-3.05-5.13-6.11-10.23-9.2-15.33
			c-1.14-1.89-1.14-3.8,0.01-5.68c3.09-5.09,6.15-10.21,9.2-15.33c1.06-1.78,2.66-2.68,4.74-2.68c0.01,0,0.02,0,0.03,0
			c6.16,0.03,12.31,0.03,18.47,0c0.01,0,0.02,0,0.03,0c2.07,0,3.66,0.91,4.73,2.7c3.04,5.13,6.11,10.23,9.2,15.33
			c1.14,1.88,1.14,3.79-0.01,5.68c-3.09,5.1-6.16,10.21-9.21,15.33C54.44,178.48,52.82,179.4,50.69,179.4z M46.66,176.67
			c1.31,0,2.63,0.01,3.94,0.03c1.21,0.01,1.99-0.37,2.6-1.4c3.06-5.12,6.14-10.24,9.23-15.34c0.63-1.04,0.63-1.88,0.01-2.9
			c-3.09-5.1-6.18-10.22-9.21-15.35c-0.58-0.98-1.29-1.38-2.42-1.38c-0.01,0-0.01,0-0.02,0c-6.18,0.01-12.34,0.01-18.5,0
			c-1.02-0.06-1.87,0.4-2.45,1.37c-3.05,5.13-6.12,10.25-9.21,15.34c-0.63,1.04-0.63,1.85,0,2.9c3.08,5.09,6.16,10.21,9.21,15.34
			c0.6,0.99,1.33,1.4,2.5,1.4c0.03,0,0.07,0,0.1,0c2.11-0.04,4.21-0.02,6.3-0.02l2.68,0.01l2.61-0.01
			C44.91,176.68,45.78,176.67,46.66,176.67z M41.63,172.91c-2.25,0-4.5-0.03-6.71-0.09c-1.12-0.02-2.49-0.82-3.12-1.82
			c-2.26-3.55-4.41-7.14-6.39-10.67c-0.57-1-0.58-2.64-0.03-3.64c2.05-3.62,4.2-7.21,6.4-10.67c0.6-0.95,1.94-1.71,3.1-1.8
			c1.64-0.11,3.28-0.09,4.89-0.07l3.68,0.02c1.5,0.02,2.97,0.03,4.45-0.03c0.07,0,0.12,0,0.18,0c1.52,0,2.57,0.61,3.32,1.9
			c2.05,3.56,4.16,7.09,6.33,10.57c0.8,1.29,0.79,2.46-0.04,3.81c-0.92,1.49-1.82,3-2.72,4.5c-1.22,2.04-2.43,4.08-3.71,6.09
			c-0.62,0.98-2,1.77-3.12,1.8C45.97,172.88,43.8,172.91,41.63,172.91z M37.86,146.83c-0.93,0-1.86,0.02-2.79,0.08
			c-0.34,0.03-0.89,0.35-1.03,0.57c-2.17,3.42-4.3,6.96-6.32,10.54c-0.1,0.2-0.09,0.8,0.02,1c1.96,3.49,4.09,7.04,6.33,10.55
			c0.16,0.26,0.7,0.56,0.91,0.57c4.31,0.12,8.71,0.12,13.09,0.01c0.22-0.01,0.77-0.31,0.93-0.56c1.25-1.98,2.46-4,3.67-6.03
			c0.91-1.52,1.81-3.03,2.74-4.54c0.31-0.5,0.29-0.57,0.04-0.97c-2.19-3.51-4.31-7.07-6.38-10.65c-0.27-0.45-0.46-0.62-1.1-0.55
			c-1.52,0.05-3.02,0.03-4.54,0.03l-3.7-0.03C39.12,146.84,38.49,146.83,37.86,146.83z"/>
	</g>
	<g>
		<path class="st0" d="M66.47,137.63c-1.32-1.34-2.74-2.78-4.04-4.1c23.73-23.72,47.53-47.5,71.39-71.34
			c1.21,1.33,2.6,2.85,3.87,4.24C114.04,90.07,90.25,113.86,66.47,137.63z"/>
		<path class="st0" d="M66.46,139.54l-5.93-6.02l73.33-73.29l5.68,6.24L66.46,139.54z M64.32,133.54l2.15,2.19l69.35-69.33
			l-2.05-2.25L64.32,133.54z"/>
	</g>
	<g>
		<path class="st0" d="M134.03,137.8c1.28-1.24,2.77-2.69,4.18-4.06c10.69,10.69,21.46,21.45,32.26,32.25
			c-1.43,1.33-2.94,2.73-4.28,3.97C155.62,159.38,144.83,148.6,134.03,137.8z"/>
		<path class="st0" d="M166.16,171.82l-34.05-34.04l6.11-5.94l34.05,34.04l-0.89,1.08L166.16,171.82z M135.94,137.81l30.28,30.28
			l2.31-2.14l-30.34-30.33L135.94,137.81z"/>
	</g>
</g>
</svg>
