<?xml version="1.0" encoding="utf-8"?>
<!-- Generator: Adobe Illustrator 26.0.2, SVG Export Plug-In . SVG Version: 6.00 Build 0)  -->
<svg version="1.1" id="Layer_1" xmlns="http://www.w3.org/2000/svg" xmlns:xlink="http://www.w3.org/1999/xlink" x="0px" y="0px"
	 viewBox="0 0 100 100" style="enable-background:new 0 0 100 100;" xml:space="preserve">
<style type="text/css">
	.st0{fill:#909090;}
	.st1{fill:#FFFFFF;}
	.st2{fill:none;stroke:#909090;stroke-width:0.75;stroke-miterlimit:10;}
	.st3{fill:#909090;stroke:#909090;stroke-width:0.2;stroke-miterlimit:10;}
	.st4{fill:#909090;stroke:#909090;stroke-width:0.25;stroke-miterlimit:10;}
	.st5{fill:none;stroke:#909090;stroke-width:0.6;stroke-miterlimit:10;}
	.st6{fill:#909090;stroke:#909090;stroke-width:0.1;stroke-miterlimit:10;}
</style>
<g>
	<g>
		<path class="st1" d="M96.36,86.39c-0.56,1.78-1.2,3.52-2.34,5.04c-4.34,5.84-13.08,6.78-18.32,1.74
			c-6.38-6.14-12.57-12.47-18.82-18.73c-0.86-0.86-0.82-1.64,0.01-2.54c0.27-0.29,0.55-0.56,0.77-0.89c0.47-0.7,0.37-1.58-0.21-2.15
			c-0.57-0.56-1.48-0.64-2.16-0.18c-0.22,0.15-0.42,0.34-0.62,0.53c-1.21,1.17-1.85,1.17-3.06-0.04c-1-1.01-1.98-2.03-2.99-3.07
			c-0.2,0.14-0.33,0.21-0.43,0.31c-2.46,2.45-4.93,4.89-7.35,7.39c-0.28,0.29-0.34,0.92-0.28,1.37c0.77,5.91-0.87,11.05-4.9,15.42
			c-8.1,8.78-22.91,7.31-29.16-2.87C0.1,77.3,4.87,64.08,16.47,60.18c2.76-0.93,5.61-1.17,8.49-0.66c0.63,0.11,1.05-0.05,1.51-0.51
			C37.33,48.13,48.2,37.26,59.09,26.4c0.45-0.44,0.6-0.83,0.51-1.49C58.14,14.64,64.68,5.64,74.92,3.78
			c0.44-0.08,0.88-0.15,1.32-0.23c1.09,0,2.18,0,3.26,0C80.26,3.7,81.02,3.86,81.79,4c0.74,0.13,1.43,0.34,1.68,1.16
			c0.25,0.84-0.19,1.43-0.76,1.99c-2.91,2.89-5.81,5.81-8.72,8.7c-0.36,0.36-0.48,0.66-0.3,1.17c0.74,2.1,1.41,4.23,2.16,6.33
			c0.13,0.35,0.52,0.73,0.87,0.85c2.04,0.73,4.12,1.36,6.17,2.09c0.61,0.22,0.97,0.09,1.41-0.35c2.84-2.88,5.72-5.73,8.58-8.59
			c0.55-0.55,1.09-1.07,1.97-0.79c0.86,0.27,1.07,0.96,1.19,1.75c0.06,0.41,0.21,0.8,0.33,1.2c0,1.75,0,3.5,0,5.26
			c-0.06,0.2-0.14,0.4-0.17,0.6c-1.59,9.84-11.3,16.77-21.11,15.06c-0.57-0.1-0.95,0.02-1.35,0.44c-2.33,2.37-4.69,4.7-7.04,7.06
			c-0.16,0.16-0.3,0.35-0.43,0.51c0.06,0.11,0.09,0.17,0.13,0.21c0.92,0.92,1.83,1.84,2.75,2.76c1.37,1.37,1.38,1.93,0.06,3.32
			c-0.89,0.93-0.98,1.88-0.25,2.64c0.75,0.78,1.75,0.71,2.71-0.2c1.37-1.29,1.94-1.29,3.25,0.02c5.85,5.85,11.7,11.7,17.55,17.55
			c0.55,0.55,1.06,1.15,1.56,1.76c1.21,1.47,1.78,3.25,2.36,5.03C96.36,83.13,96.36,84.76,96.36,86.39z M78.63,6.88
			c-2.81-0.34-5.41,0.21-7.82,1.48c-6.29,3.31-9.39,9.85-8,16.88c0.2,1.01,0.05,1.77-0.71,2.52C50.66,39.17,39.23,50.6,27.81,62.04
			c-0.73,0.73-1.47,0.83-2.45,0.72c-1.76-0.19-3.57-0.45-5.3-0.23c-8.95,1.14-14.97,9.58-13.25,18.4
			c2.13,10.91,14.83,16.15,23.99,9.9c5.29-3.61,7.79-9.79,6.48-16.13c-0.2-0.96-0.08-1.72,0.66-2.46
			C49.42,60.8,60.87,49.35,72.31,37.9c0.69-0.69,1.39-0.91,2.36-0.69c8.21,1.79,15.63-3.11,17.94-10.2
			c0.58-1.79,0.84-3.61,0.56-5.62c-0.31,0.17-0.44,0.49-0.67,0.71c-2.3,2.32-4.63,4.6-6.9,6.94c-0.76,0.78-1.51,0.94-2.52,0.58
			c-2.7-0.94-5.43-1.84-8.15-2.72c-0.91-0.29-1.47-0.82-1.77-1.75c-0.87-2.7-1.76-5.39-2.7-8.06c-0.39-1.1-0.22-1.92,0.65-2.75
			C73.65,11.89,76.12,9.37,78.63,6.88z M53.21,66.29c0.21-0.12,0.46-0.29,0.72-0.43c1.9-1.05,4.21-0.71,5.75,0.83
			c1.51,1.51,1.88,3.95,0.74,5.75c-0.41,0.66-0.25,0.95,0.22,1.42c5.46,5.43,10.9,10.89,16.36,16.33c0.3,0.3,0.61,0.57,0.77,0.71
			c4.44-4.44,8.82-8.83,13.19-13.2C85.1,71.87,79.15,65.94,73.18,60c-2.61,1.45-4.7,1.32-6.45-0.44c-1.7-1.71-1.82-3.83-0.4-6.38
			c-0.81-0.83-1.6-1.64-2.35-2.4c-4.36,4.38-8.75,8.78-13.13,13.19C51.58,64.69,52.38,65.47,53.21,66.29z M80.93,92.7
			c2.99,1.33,7.36,0.3,9.73-2.18c2.87-3,3.27-7.51,2.09-9.64C88.82,84.81,84.87,88.77,80.93,92.7z"/>
		<path class="st1" d="M83.96,97.09c-3.27,0-6.39-1.23-8.7-3.45c-4.67-4.49-9.31-9.16-13.8-13.68c-1.67-1.69-3.35-3.38-5.03-5.06
			c-1.1-1.1-1.1-2.25-0.01-3.42l0.19-0.21c0.18-0.19,0.37-0.39,0.51-0.61c0.29-0.44,0.25-0.97-0.12-1.34
			c-0.36-0.34-0.92-0.4-1.36-0.1c-0.17,0.11-0.31,0.25-0.46,0.38c-1.54,1.49-2.57,1.49-4.03,0.02c-0.67-0.68-1.34-1.37-2.02-2.07
			l-0.59-0.6l-1.47,1.47c-1.94,1.93-3.88,3.86-5.77,5.82c-0.08,0.09-0.16,0.47-0.11,0.85c0.79,6.08-0.92,11.44-5.07,15.93
			c-3.99,4.32-9.66,6.48-15.78,5.88c-6.06-0.59-11.3-3.81-14.39-8.85C2.8,82.91,2.14,76.8,4.14,71.27c2-5.52,6.42-9.78,12.12-11.7
			c2.92-0.97,5.88-1.2,8.81-0.68c0.41,0.08,0.62,0,0.94-0.32c10.87-10.89,21.74-21.76,32.63-32.62c0.32-0.32,0.39-0.52,0.33-0.95
			c-1.5-10.54,5.31-19.94,15.84-21.85l1.32-0.23l3.37-0.01l0.81,0.15c0.53,0.11,1.06,0.21,1.59,0.31c0.58,0.1,1.8,0.32,2.18,1.61
			c0.41,1.32-0.49,2.2-0.92,2.62c-1.41,1.4-2.82,2.8-4.22,4.21c-1.5,1.5-3,3-4.5,4.49c-0.23,0.23-0.22,0.28-0.14,0.51
			c0.34,0.97,0.67,1.94,0.99,2.92c0.38,1.14,0.76,2.28,1.17,3.41c0.06,0.16,0.31,0.41,0.49,0.47c1.01,0.37,2.04,0.7,3.07,1.04
			c1.03,0.34,2.07,0.68,3.09,1.05c0.37,0.13,0.46,0.08,0.74-0.2c1.9-1.92,3.81-3.83,5.72-5.73l2.87-2.86
			c0.54-0.54,1.34-1.35,2.61-0.95c1.35,0.43,1.54,1.67,1.63,2.26c0.04,0.24,0.12,0.48,0.19,0.71L97,19.51l-0.09,5.63
			c-0.04,0.11-0.07,0.22-0.09,0.32c-0.8,4.95-3.56,9.31-7.76,12.31c-4.19,2.97-9.2,4.14-14.1,3.29c-0.36-0.06-0.52-0.01-0.79,0.26
			c-1.64,1.66-3.3,3.32-4.95,4.97l-2.09,2.09c-0.02,0.02-0.04,0.04-0.06,0.07l2.51,2.5c1.62,1.62,1.64,2.56,0.07,4.21
			c-0.97,1.01-0.43,1.57-0.25,1.76c0.51,0.52,1.11,0.43,1.82-0.22c1.62-1.53,2.58-1.51,4.13,0.03l2.93,2.92
			c4.88,4.88,9.75,9.75,14.62,14.63c0.62,0.62,1.19,1.29,1.6,1.81c1.29,1.55,1.88,3.4,2.46,5.18L97,81.5l-0.02,5.09
			c-0.64,2.04-1.3,3.71-2.45,5.23c-2.24,3-5.69,4.91-9.48,5.22C84.68,97.07,84.32,97.09,83.96,97.09z M56.25,67.76
			c0.6,0,1.19,0.22,1.64,0.65c0.82,0.8,0.94,2.02,0.29,2.97c-0.19,0.27-0.42,0.52-0.64,0.76l-0.18,0.19
			c-0.62,0.67-0.62,1.06-0.03,1.65c1.69,1.69,3.37,3.37,5.04,5.06c4.48,4.51,9.12,9.18,13.77,13.66c2.3,2.21,5.47,3.33,8.8,3.05
			c3.43-0.28,6.55-2,8.57-4.71c1.02-1.36,1.63-2.89,2.22-4.76V81.6c-0.57-1.76-1.11-3.38-2.22-4.72c-0.4-0.49-0.94-1.13-1.52-1.71
			c-4.87-4.88-9.75-9.75-14.62-14.63l-2.92-2.92c-1.05-1.05-1.22-1.07-2.36,0c-1.23,1.15-2.61,1.22-3.61,0.18
			c-0.98-1.02-0.89-2.34,0.25-3.53c1.08-1.14,1.08-1.3-0.04-2.42l-2.93-3.01l-0.21-0.39l0.35-0.58c0.11-0.13,0.22-0.27,0.35-0.4
			l2.09-2.09c1.65-1.65,3.31-3.3,4.94-4.96c0.56-0.56,1.14-0.74,1.92-0.62c4.58,0.81,9.23-0.29,13.14-3.07
			c3.92-2.79,6.49-6.86,7.24-11.46c0.02-0.18,0.09-0.36,0.14-0.54l0.02-5.12l-0.09-0.28c-0.1-0.3-0.19-0.6-0.24-0.91
			c-0.12-0.8-0.3-1.09-0.76-1.24c-0.49-0.16-0.76,0.07-1.32,0.63l-2.86,2.86c-1.91,1.9-3.81,3.81-5.71,5.72
			c-0.64,0.64-1.26,0.8-2.07,0.51c-1.02-0.37-2.04-0.7-3.07-1.04s-2.07-0.68-3.09-1.05c-0.55-0.2-1.07-0.72-1.26-1.24
			c-0.41-1.14-0.8-2.28-1.18-3.43c-0.32-0.97-0.65-1.94-0.99-2.9c-0.32-0.91,0.07-1.46,0.46-1.84c1.5-1.49,3-2.99,4.5-4.49
			c1.4-1.4,2.81-2.81,4.22-4.21c0.59-0.58,0.73-0.9,0.59-1.35c-0.12-0.41-0.41-0.58-1.18-0.71c-0.54-0.1-1.07-0.21-1.61-0.31
			l-0.69-0.14l-3.3,0.05l-1.05,0.18c-9.83,1.78-16.19,10.56-14.8,20.41c0.12,0.84-0.08,1.43-0.69,2.04
			C48.65,37.71,37.78,48.59,26.91,59.47c-0.61,0.61-1.22,0.83-2.07,0.68c-2.73-0.5-5.48-0.27-8.17,0.63
			c-5.33,1.79-9.46,5.77-11.33,10.92c-1.87,5.16-1.25,10.87,1.7,15.68c2.88,4.69,7.77,7.69,13.43,8.25c5.65,0.54,11-1.45,14.72-5.48
			c3.88-4.2,5.48-9.22,4.73-14.9c-0.07-0.58,0.01-1.43,0.47-1.9c1.9-1.97,3.85-3.91,5.79-5.84l1.57-1.55
			c0.11-0.11,0.22-0.19,0.35-0.27l0.61-0.42l1.35,1.4c0.67,0.7,1.34,1.38,2.01,2.06c0.92,0.94,1.17,0.97,2.15,0.03
			c0.29-0.27,0.49-0.46,0.71-0.61C55.33,67.89,55.8,67.76,56.25,67.76z M66.38,48.53l-0.04,0.05l0.06-0.03L66.38,48.53z
			 M22.14,94.14c-2.09,0-4.18-0.41-6.19-1.23c-5.08-2.09-8.72-6.52-9.76-11.86c-0.87-4.47,0.11-8.95,2.76-12.62
			c2.63-3.65,6.56-5.97,11.04-6.54c1.62-0.21,3.29-0.02,4.91,0.16l0.54,0.06c0.93,0.11,1.42-0.02,1.92-0.53
			c11.42-11.44,22.85-22.87,34.29-34.27c0.57-0.57,0.71-1.08,0.54-1.95c-1.44-7.25,1.82-14.15,8.32-17.57
			c2.61-1.38,5.38-1.9,8.2-1.55l1.3,0.16l-3.05,3.05c-1.79,1.79-3.58,3.59-5.41,5.34c-0.67,0.65-0.81,1.19-0.49,2.08
			c0.87,2.47,1.75,5.12,2.7,8.08c0.23,0.71,0.62,1.1,1.35,1.33c2.73,0.88,5.46,1.78,8.17,2.73c0.79,0.28,1.28,0.16,1.85-0.43
			c1.41-1.45,2.85-2.88,4.28-4.32c0.88-0.87,1.75-1.74,2.62-2.62c0.05-0.05,0.09-0.12,0.14-0.18c0.14-0.2,0.34-0.47,0.69-0.65
			l0.8-0.42l0.12,0.9c0.27,1.94,0.08,3.87-0.58,5.9c-2.55,7.83-10.57,12.4-18.69,10.62c-0.76-0.16-1.22-0.02-1.76,0.52
			C61.32,49.81,49.87,61.26,38.4,72.68c-0.53,0.53-0.66,1.04-0.49,1.88c1.35,6.59-1.23,13.03-6.75,16.79
			C28.46,93.2,25.32,94.14,22.14,94.14z M21.51,63.08c-0.46,0-0.92,0.02-1.37,0.08c-4.13,0.52-7.74,2.66-10.16,6.02
			c-2.44,3.38-3.34,7.51-2.53,11.62c0.96,4.92,4.31,9,8.99,10.92c4.64,1.91,9.89,1.38,14-1.43c5.09-3.47,7.47-9.4,6.22-15.48
			c-0.26-1.26-0.01-2.2,0.84-3.04C48.97,60.35,60.42,48.9,71.86,37.45c0.83-0.84,1.74-1.11,2.94-0.87
			c7.42,1.62,14.85-2.57,17.2-9.77c0.44-1.38,0.66-2.66,0.64-3.95c-0.77,0.78-1.55,1.55-2.32,2.32c-1.44,1.43-2.87,2.85-4.28,4.3
			c-0.92,0.95-1.94,1.19-3.19,0.74c-2.7-0.94-5.41-1.84-8.13-2.71c-1.13-0.36-1.82-1.05-2.18-2.16c-0.94-2.95-1.82-5.58-2.7-8.04
			c-0.47-1.35-0.21-2.44,0.82-3.43c1.82-1.75,3.6-3.53,5.39-5.32l1.14-1.14c-0.07,0-0.14,0-0.21,0c-2.02,0-3.95,0.5-5.87,1.51
			c-6.07,3.2-9.01,9.4-7.67,16.19c0.26,1.28-0.02,2.24-0.89,3.1C51.11,39.62,39.68,51.05,28.26,62.49c-0.96,0.97-2.01,1.02-2.97,0.9
			l-0.55-0.06C23.67,63.21,22.58,63.08,21.51,63.08z M83.88,93.91c-1.14,0-2.24-0.2-3.21-0.63l-0.85-0.38l13.09-13.08l0.41,0.74
			c1.37,2.48,0.82,7.25-2.19,10.39C89.33,92.84,86.51,93.91,83.88,93.91z M82.11,92.43c2.67,0.67,6.14-0.3,8.1-2.35
			c2.35-2.46,2.87-5.99,2.32-8.06L82.11,92.43z M77.78,91.78l-0.46-0.41c-0.24-0.22-0.52-0.47-0.79-0.73l-5.2-5.2
			c-3.71-3.71-7.43-7.43-11.15-11.13c-0.51-0.5-0.99-1.13-0.31-2.21c0.96-1.53,0.69-3.62-0.65-4.96c-1.35-1.35-3.35-1.63-4.99-0.72
			c-0.19,0.11-0.37,0.22-0.54,0.32l-0.59,0.35l-3.17-3.11l0.45-0.46c4.39-4.4,8.77-8.8,13.13-13.19l0.46-0.46l3.13,3.2l-0.23,0.42
			c-1.3,2.33-1.2,4.11,0.29,5.62c1.53,1.53,3.34,1.64,5.68,0.33l0.42-0.23l0.34,0.34l18.22,18.14L77.78,91.78z M56.26,64.61
			c1.41,0,2.8,0.56,3.87,1.63c1.76,1.76,2.11,4.52,0.84,6.55c-0.14,0.22-0.14,0.3-0.14,0.3c0,0.02,0.03,0.09,0.26,0.32
			c3.73,3.7,7.44,7.42,11.16,11.13l5.19,5.2c0.1,0.1,0.2,0.19,0.29,0.28l12.31-12.32L73.06,60.79c-2.67,1.34-4.94,1.07-6.79-0.77
			c-1.8-1.82-2.05-4.08-0.72-6.72l-1.57-1.6c-4.05,4.08-8.13,8.17-12.22,12.27l1.54,1.51c0.1-0.06,0.21-0.12,0.32-0.18
			C54.45,64.83,55.36,64.61,56.26,64.61z"/>
	</g>
	<g>
		<path class="st1" d="M11.87,3.55c3.33,1.93,6.64,3.91,10.02,5.75c1.23,0.67,1.98,1.51,2.13,2.89c0.36,3.17,1.95,5.54,4.27,7.74
			c5.41,5.13,10.59,10.5,15.87,15.77c0.23,0.23,0.51,0.43,0.72,0.6c-0.8,0.76-1.51,1.44-2.29,2.18c-0.07-0.07-0.31-0.28-0.53-0.5
			c-6.3-6.3-12.61-12.59-18.89-18.91c-0.5-0.51-0.88-1.22-1.09-1.91c-0.45-1.41-0.73-2.86-1.12-4.29c-0.07-0.27-0.22-0.6-0.43-0.73
			c-2.94-1.71-5.91-3.4-8.77-5.04c-1.55,1.54-3.04,3.02-4.6,4.56c1.64,2.87,3.32,5.83,5.04,8.77c0.14,0.24,0.51,0.4,0.8,0.48
			c1.13,0.32,2.26,0.66,3.42,0.86c1.35,0.23,2.35,0.9,3.3,1.86c6.06,6.12,12.16,12.19,18.25,18.27c0.23,0.23,0.52,0.42,0.83,0.67
			c-0.86,0.77-1.59,1.42-2.56,2.29c-0.09-0.14-0.22-0.51-0.47-0.76c-6.12-6.14-12.24-12.27-18.39-18.38c-0.4-0.4-0.97-0.7-1.52-0.86
			c-1.47-0.44-3-0.7-4.46-1.18c-0.6-0.2-1.26-0.65-1.57-1.18c-1.99-3.34-3.9-6.74-5.82-10.12c-0.57-1-0.51-1.58,0.26-2.36
			c1.93-1.96,3.88-3.9,5.83-5.83c0.25-0.25,0.57-0.43,0.86-0.64C11.27,3.55,11.57,3.55,11.87,3.55z"/>
		<path class="st1" d="M36.13,45.86l-0.41-0.65c-0.03-0.05-0.07-0.12-0.11-0.21c-0.07-0.14-0.16-0.32-0.27-0.43
			c-6.12-6.14-12.25-12.27-18.4-18.38c-0.3-0.29-0.76-0.56-1.25-0.7c-0.64-0.19-1.3-0.35-1.96-0.51c-0.84-0.21-1.69-0.41-2.52-0.68
			c-0.8-0.26-1.55-0.84-1.92-1.46c-1.72-2.88-3.37-5.79-5.03-8.71l-0.81-1.42c-0.71-1.24-0.61-2.15,0.36-3.13
			c1.93-1.95,3.88-3.9,5.83-5.83c0.2-0.2,0.44-0.37,0.69-0.54l0.42-0.29h1.28l3.02,1.75c2.33,1.36,4.74,2.77,7.14,4.08
			c1.51,0.83,2.29,1.9,2.46,3.38c0.31,2.7,1.56,4.96,4.08,7.35c3.81,3.61,7.57,7.41,11.21,11.08c1.55,1.57,3.11,3.14,4.67,4.7
			c0.15,0.15,0.32,0.28,0.47,0.4l0.76,0.62l-3.25,3.1l-0.44-0.42c-0.19-0.17-0.37-0.34-0.54-0.51l-4.41-4.41
			c-4.83-4.83-9.66-9.66-14.48-14.51c-0.53-0.54-0.97-1.31-1.25-2.16c-0.29-0.91-0.51-1.83-0.74-2.76
			c-0.12-0.52-0.25-1.04-0.39-1.55c-0.05-0.2-0.13-0.33-0.16-0.36c-2.51-1.46-5.06-2.91-7.55-4.33l-0.77-0.44l-3.9,3.87l0.65,1.14
			c1.35,2.38,2.73,4.8,4.14,7.2c0.02,0.02,0.17,0.11,0.43,0.19l0.43,0.12c0.96,0.27,1.94,0.55,2.92,0.72
			c1.35,0.23,2.48,0.86,3.65,2.04c5.14,5.19,10.31,10.34,15.48,15.5l2.77,2.76c0.14,0.14,0.29,0.25,0.47,0.38l0.91,0.72l-0.57,0.51
			c-0.86,0.76-1.6,1.42-2.56,2.28L36.13,45.86z M11.17,4.19l-0.11,0.07c-0.17,0.12-0.36,0.24-0.51,0.38
			c-1.95,1.94-3.89,3.87-5.82,5.83c-0.54,0.54-0.62,0.8-0.16,1.6l0.81,1.42c1.65,2.91,3.3,5.82,5.01,8.69
			c0.21,0.36,0.72,0.74,1.22,0.9c0.79,0.26,1.6,0.46,2.42,0.65c0.67,0.17,1.35,0.33,2.02,0.53c0.69,0.2,1.34,0.57,1.79,1.02
			c6.15,6.11,12.28,12.24,18.4,18.38c0.06,0.07,0.12,0.14,0.17,0.21c0.49-0.44,0.94-0.84,1.4-1.25c-0.1-0.08-0.2-0.17-0.29-0.26
			l-2.77-2.76c-5.17-5.16-10.34-10.31-15.48-15.5c-0.98-0.99-1.87-1.49-2.95-1.67c-1.05-0.18-2.07-0.47-3.06-0.75l-0.43-0.12
			c-0.4-0.11-0.93-0.34-1.19-0.77c-1.4-2.41-2.78-4.83-4.15-7.21l-1.14-1.99l5.29-5.24l1.62,0.92c2.5,1.42,5.04,2.88,7.59,4.35
			c0.47,0.27,0.67,0.88,0.73,1.12c0.14,0.52,0.27,1.05,0.39,1.58c0.22,0.9,0.44,1.79,0.72,2.67c0.21,0.66,0.55,1.26,0.94,1.65
			c4.81,4.85,9.64,9.67,14.47,14.5l4.41,4.41c0.02,0.02,0.05,0.05,0.07,0.07l1.32-1.26c-0.07-0.06-0.14-0.13-0.21-0.19
			c-1.56-1.56-3.12-3.13-4.68-4.7c-3.63-3.66-7.39-7.45-11.18-11.05c-2.75-2.61-4.12-5.12-4.47-8.13c-0.12-1.07-0.64-1.77-1.8-2.4
			c-2.42-1.33-4.83-2.73-7.17-4.1L11.7,4.19H11.17z"/>
	</g>
	<g>
		<path class="st1" d="M22.14,87.11c-1.42,0-2.84-0.02-4.26,0.01c-0.81,0.01-1.38-0.29-1.8-0.98c-1.45-2.44-2.91-4.87-4.38-7.3
			c-0.42-0.69-0.42-1.34,0-2.04c1.47-2.42,2.93-4.86,4.38-7.3c0.39-0.66,0.95-0.97,1.71-0.96c2.93,0.01,5.86,0.01,8.79,0
			c0.77,0,1.31,0.3,1.71,0.97c1.45,2.44,2.91,4.87,4.38,7.3c0.42,0.69,0.41,1.35-0.01,2.04c-1.47,2.43-2.93,4.86-4.38,7.29
			c-0.41,0.69-0.99,0.99-1.8,0.98C25.04,87.09,23.59,87.11,22.14,87.11z M22.25,71.65c-1.06,0-2.12-0.05-3.17,0.03
			c-0.34,0.02-0.8,0.27-0.98,0.56c-1.05,1.65-2.06,3.34-3.03,5.05c-0.16,0.28-0.15,0.82,0.01,1.1c0.96,1.71,1.97,3.39,3.03,5.05
			c0.18,0.29,0.63,0.56,0.96,0.57c2.08,0.05,4.17,0.05,6.25,0c0.33-0.01,0.78-0.28,0.97-0.56c1.05-1.66,2.02-3.36,3.05-5.03
			c0.25-0.41,0.29-0.71,0.02-1.14c-1.04-1.66-2.05-3.35-3.02-5.05c-0.27-0.46-0.59-0.6-1.1-0.58
			C24.24,71.67,23.24,71.65,22.25,71.65z"/>
		<path class="st1" d="M26.55,87.76c-0.02,0-0.04,0-0.07,0c-1.03-0.02-2.07-0.02-3.1-0.01l-1.24,0l-1.22,0
			c-1.02,0-2.02-0.01-3.02,0.01c-1.04,0.03-1.84-0.42-2.36-1.3c-1.45-2.44-2.91-4.87-4.38-7.29c-0.54-0.9-0.54-1.81,0.01-2.7
			c1.46-2.42,2.92-4.85,4.37-7.29c0.5-0.85,1.25-1.28,2.25-1.28c0.01,0,0.01,0,0.01,0c2.93,0.01,5.86,0.01,8.8,0c0,0,0.01,0,0.01,0
			c0.99,0,1.74,0.43,2.24,1.29c1.45,2.43,2.92,4.86,4.38,7.29c0.54,0.9,0.54,1.8-0.01,2.7c-1.47,2.43-2.93,4.85-4.38,7.29
			C28.34,87.33,27.56,87.76,26.55,87.76z M24.63,86.47c0.62,0,1.25,0,1.88,0.02c0.02,0,0.03,0,0.05,0c0.56,0,0.91-0.19,1.19-0.66
			c1.45-2.44,2.92-4.87,4.38-7.3c0.3-0.49,0.3-0.89,0.01-1.38c-1.47-2.43-2.93-4.86-4.38-7.3c-0.27-0.47-0.61-0.66-1.14-0.66
			c-0.01,0-0.01,0-0.01,0c-2.94,0.01-5.87,0.01-8.8,0c-0.01,0-0.01,0-0.01,0c-0.54,0-0.87,0.19-1.15,0.65
			c-1.45,2.44-2.91,4.88-4.38,7.3c-0.3,0.49-0.31,0.89-0.01,1.37c1.47,2.43,2.93,4.86,4.38,7.3c0.29,0.49,0.66,0.73,1.24,0.67
			c1.02-0.02,2.04-0.01,3.05-0.01l1.22,0l1.24,0C23.8,86.47,24.22,86.47,24.63,86.47z M22.19,84.68c-1.05,0-2.1-0.01-3.14-0.04
			c-0.54-0.02-1.19-0.4-1.49-0.87c-1.07-1.67-2.09-3.38-3.04-5.07c-0.27-0.48-0.27-1.26-0.01-1.73c0.93-1.65,1.95-3.36,3.04-5.07
			c0.29-0.45,0.92-0.82,1.47-0.86C19.8,70.98,20.59,71,21.36,71l1.75,0.01c0.71,0.01,1.42,0.01,2.11-0.01
			c0.72,0.01,1.3,0.26,1.67,0.9c0.97,1.7,1.98,3.37,3.01,5.03c0.39,0.62,0.38,1.18-0.02,1.81c-0.44,0.71-0.87,1.42-1.29,2.14
			c-0.58,0.97-1.16,1.94-1.76,2.9c-0.3,0.47-0.96,0.84-1.49,0.86C24.29,84.67,23.24,84.68,22.19,84.68z M20.45,72.27
			c-0.44,0-0.89,0.01-1.33,0.04c-0.15,0.01-0.41,0.16-0.49,0.27c-1.07,1.69-2.09,3.37-3,5.01c-0.05,0.1-0.04,0.38,0.01,0.47
			c0.94,1.67,1.95,3.36,3.01,5.02c0.08,0.12,0.34,0.27,0.44,0.27c2.05,0.05,4.14,0.05,6.22,0c0.11,0,0.37-0.15,0.44-0.27
			c0.59-0.94,1.17-1.9,1.74-2.87c0.43-0.72,0.86-1.44,1.3-2.16c0.15-0.24,0.14-0.27,0.02-0.46c-1.04-1.67-2.05-3.36-3.03-5.07
			c-0.12-0.22-0.16-0.32-0.52-0.26c-0.72,0.02-1.45,0.02-2.15,0.01l-1.76-0.01C21.04,72.28,20.75,72.27,20.45,72.27z"/>
	</g>
	<g>
		<path class="st1" d="M34.05,67.9c-0.63-0.64-1.3-1.32-1.92-1.95c11.29-11.28,22.6-22.59,33.95-33.93
			c0.57,0.63,1.24,1.36,1.84,2.02C56.68,45.28,45.36,56.59,34.05,67.9z"/>
		<path class="st1" d="M34.04,68.81l-2.82-2.86L66.1,31.1l2.7,2.96L34.04,68.81z M33.03,65.95l1.03,1.04l32.98-32.98l-0.97-1.07
			L33.03,65.95z"/>
	</g>
	<g>
		<path class="st1" d="M66.18,67.98c0.61-0.59,1.32-1.28,1.99-1.93c5.09,5.08,10.21,10.2,15.35,15.34c-0.68,0.63-1.4,1.3-2.03,1.89
			C76.45,78.24,71.32,73.12,66.18,67.98z"/>
		<path class="st1" d="M81.47,84.16l-0.43-0.43L65.27,67.97l2.91-2.82L84.43,81.4L81.47,84.16z M67.1,67.98l14.41,14.4l1.09-1.02
			L68.17,66.94L67.1,67.98z"/>
	</g>
</g>
</svg>
